<?xml version="1.0" encoding="UTF-8"?><svg xmlns="http://www.w3.org/2000/svg" xmlns:xlink="http://www.w3.org/1999/xlink" fill-opacity="1" color-rendering="auto" color-interpolation="auto" text-rendering="auto" stroke="black" stroke-linecap="square" width="1170" stroke-miterlimit="10" shape-rendering="auto" stroke-opacity="1" fill="black" stroke-dasharray="none" font-weight="normal" stroke-width="1" height="1050" font-family="'Dialog'" font-style="normal" stroke-linejoin="miter" font-size="12px" stroke-dashoffset="0" image-rendering="auto">
  <!--Generated by ySVG 2.5-->
  <defs id="genericDefs"/>
  <g>
    <defs id="defs1">
      <clipPath clipPathUnits="userSpaceOnUse" id="clipPath1">
        <path d="M0 0 L1170 0 L1170 1050 L0 1050 L0 0 Z"/>
      </clipPath>
      <clipPath clipPathUnits="userSpaceOnUse" id="clipPath2">
        <path d="M-91 -139 L1079 -139 L1079 911 L-91 911 L-91 -139 Z"/>
      </clipPath>
    </defs>
    <g fill="white" text-rendering="geometricPrecision" shape-rendering="geometricPrecision" transform="translate(91,139)" stroke="white">
      <rect x="-91" width="1170" height="1050" y="-139" clip-path="url(#clipPath2)" stroke="none"/>
    </g>
    <g font-size="15px" stroke-linecap="butt" transform="matrix(1,0,0,1,91,139)" text-rendering="geometricPrecision" font-family="sans-serif" shape-rendering="geometricPrecision" stroke-miterlimit="1.45">
      <text x="77.1509" xml:space="preserve" y="109.0015" clip-path="url(#clipPath2)" stroke="none">Global</text>
      <rect x="-56" y="93.0781" clip-path="url(#clipPath2)" fill="none" width="183" stroke-dasharray="6,2" rx="4" ry="4" height="330.4609"/>
      <text x="-9.5723" xml:space="preserve" font-size="12px" y="273.1934" clip-path="url(#clipPath2)" stroke="none">Permutations</text>
      <rect fill="none" x="-41" width="143" height="73" y="232.5391" clip-path="url(#clipPath2)"/>
      <text x="-1.501" xml:space="preserve" font-size="12px" y="376.1934" clip-path="url(#clipPath2)" stroke="none">Parse Tree</text>
      <rect fill="none" x="-41" width="143" height="73" y="335.5391" clip-path="url(#clipPath2)"/>
      <text x="2.7354" xml:space="preserve" font-size="12px" y="170.1934" clip-path="url(#clipPath2)" stroke="none">LogThis()</text>
      <rect fill="none" x="-41" width="143" height="73" y="129.5391" clip-path="url(#clipPath2)"/>
      <text x="515.1421" xml:space="preserve" y="-17.5376" clip-path="url(#clipPath2)" stroke="none">Lexer</text>
      <rect x="142" y="-33.4609" clip-path="url(#clipPath2)" fill="none" width="417" stroke-dasharray="6,2" rx="4" ry="4" height="478.4609"/>
      <text x="395.2822" xml:space="preserve" font-size="12px" y="43.6543" clip-path="url(#clipPath2)" stroke="none">Input()</text>
      <rect fill="none" x="344" width="143" height="73" y="3" clip-path="url(#clipPath2)"/>
      <text x="384.0059" xml:space="preserve" font-size="12px" y="159.6543" clip-path="url(#clipPath2)" stroke="none">Tokenize()</text>
      <rect fill="none" x="344" width="143" height="73" y="119" clip-path="url(#clipPath2)"/>
      <text x="394.0693" xml:space="preserve" font-size="12px" y="275.6543" clip-path="url(#clipPath2)" stroke="none">Tokens</text>
      <rect fill="none" x="344" width="143" height="73" y="235" clip-path="url(#clipPath2)"/>
      <text x="390.8174" xml:space="preserve" font-size="12px" y="391.6543" clip-path="url(#clipPath2)" stroke="none">Iterate()</text>
      <rect fill="none" x="344" width="143" height="73" y="351" clip-path="url(#clipPath2)"/>
      <text x="207.7129" xml:space="preserve" font-size="12px" y="275.6543" clip-path="url(#clipPath2)" stroke="none">Record()</text>
      <rect fill="none" x="162" width="143" height="73" y="235" clip-path="url(#clipPath2)"/>
      <text x="205.3604" xml:space="preserve" font-size="12px" y="43.6543" clip-path="url(#clipPath2)" stroke="none">Sentence</text>
      <rect fill="none" x="162" width="143" height="73" y="3" clip-path="url(#clipPath2)"/>
      <text x="198.3613" xml:space="preserve" font-size="12px" y="159.6543" clip-path="url(#clipPath2)" stroke="none">Words[100]</text>
      <rect fill="none" x="162" width="143" height="73" y="119" clip-path="url(#clipPath2)"/>
      <text x="682.0439" xml:space="preserve" font-size="12px" y="470.6543" clip-path="url(#clipPath2)" stroke="none">Rules</text>
      <rect fill="none" x="627" width="143" height="73" y="430" clip-path="url(#clipPath2)"/>
      <text x="890.1172" xml:space="preserve" font-size="12px" y="325.6543" clip-path="url(#clipPath2)" stroke="none">cfg.txt</text>
      <rect fill="none" x="838" width="143" height="73" y="285" clip-path="url(#clipPath2)"/>
      <path fill="none" d="M415.5 76 L415.5 111" clip-path="url(#clipPath2)"/>
      <path d="M415.5 119 L420.5 107 L415.5 110 L410.5 107 Z" stroke="none" clip-path="url(#clipPath2)"/>
    </g>
    <g text-rendering="geometricPrecision" stroke-miterlimit="1.45" shape-rendering="geometricPrecision" transform="matrix(1,0,0,1,91,139)" stroke-linecap="butt">
      <path fill="none" d="M414 192 L414 222.85 L409.25 220 L415.5 235 L421.75 220 L417 222.85 L417 192 Z" clip-path="url(#clipPath2)"/>
    </g>
    <g text-rendering="geometricPrecision" stroke-miterlimit="1.45" shape-rendering="geometricPrecision" transform="matrix(1,0,0,1,91,139)" stroke-linecap="butt">
      <path fill="none" d="M487 39.5 L540 39.5 L540 387.5 L494.9692 387.5" clip-path="url(#clipPath2)"/>
      <path d="M486.9692 387.5 L498.9692 392.5 L495.9692 387.5 L498.9692 382.5 Z" clip-path="url(#clipPath2)" stroke="none"/>
      <path fill="none" d="M344 387.5 L233.5 387.5 L233.5 316" clip-path="url(#clipPath2)"/>
      <path d="M233.5 308 L228.5 320 L233.5 317 L238.5 320 Z" clip-path="url(#clipPath2)" stroke="none"/>
    </g>
    <g text-rendering="geometricPrecision" stroke-miterlimit="1.45" shape-rendering="geometricPrecision" transform="matrix(1,0,0,1,91,139)" stroke-linecap="butt">
      <path fill="none" d="M320 265.25 L305 271.5 L320 277.75 L317.15 273 L344 273 L344 270 L317.15 270 L320 265.25 Z" clip-path="url(#clipPath2)"/>
    </g>
    <g text-rendering="geometricPrecision" stroke-miterlimit="1.45" shape-rendering="geometricPrecision" transform="matrix(1,0,0,1,91,139)" stroke-linecap="butt">
      <path fill="none" d="M117.0234 265.25 L102.0234 271.5 L117.0234 277.75 L114.1734 273 L162 273 L162 270 L114.1734 270 L117.0234 265.25 Z" clip-path="url(#clipPath2)"/>
    </g>
    <g text-rendering="geometricPrecision" stroke-miterlimit="1.45" shape-rendering="geometricPrecision" transform="matrix(1,0,0,1,91,139)" stroke-linecap="butt">
      <path fill="none" d="M320 33.25 L305 39.5 L320 45.75 L317.15 41 L331.85 41 L329 45.75 L344 39.5 L329 33.25 L331.85 38 L317.15 38 L320 33.25 Z" clip-path="url(#clipPath2)"/>
    </g>
    <g text-rendering="geometricPrecision" stroke-miterlimit="1.45" shape-rendering="geometricPrecision" transform="matrix(1,0,0,1,91,139)" stroke-linecap="butt">
      <path fill="none" d="M317.5 58 L317.5 59.5 L317.5 91 L232 91 L232 92.5 L232 106.85 L227.25 104 L233.5 119 L239.75 104 L235 106.85 L235 94 L320.5 94 L320.5 92.5 L320.5 61 L343.959 61 L343.959 58 Z" clip-path="url(#clipPath2)"/>
    </g>
    <g text-rendering="geometricPrecision" stroke-miterlimit="1.45" shape-rendering="geometricPrecision" transform="matrix(1,0,0,1,91,139)" stroke-linecap="butt">
      <path fill="none" d="M329 149.25 L331.85 154 L305 154 L305 157 L331.85 157 L329 161.75 L344 155.5 L329 149.25 Z" clip-path="url(#clipPath2)"/>
    </g>
    <g font-size="15px" stroke-linecap="butt" transform="matrix(1,0,0,1,91,139)" text-rendering="geometricPrecision" font-family="sans-serif" shape-rendering="geometricPrecision" stroke-miterlimit="1.45">
      <text x="76.46" xml:space="preserve" y="454.4624" clip-path="url(#clipPath2)" stroke="none">TREE</text>
      <rect x="-56" y="438.5391" clip-path="url(#clipPath2)" fill="none" width="173" stroke-dasharray="6,2" rx="4" ry="4" height="124.4609"/>
      <text x="-2.5762" xml:space="preserve" font-size="12px" y="515.6543" clip-path="url(#clipPath2)" stroke="none">Tree_DFS()</text>
      <rect fill="none" x="-41" width="143" height="73" y="475" clip-path="url(#clipPath2)"/>
    </g>
    <g text-rendering="geometricPrecision" stroke-miterlimit="1.45" shape-rendering="geometricPrecision" transform="matrix(1,0,0,1,91,139)" stroke-linecap="butt">
      <path fill="none" d="M30.5 408.5391 L24.25 423.5391 L29 420.6891 L29 420.6891 L29 475 L32 475 L32 420.6891 L32 420.6891 L36.75 423.5391 L30.5 408.5391 Z" clip-path="url(#clipPath2)"/>
    </g>
    <g font-size="15px" stroke-linecap="butt" transform="matrix(1,0,0,1,91,139)" text-rendering="geometricPrecision" font-family="sans-serif" shape-rendering="geometricPrecision" stroke-miterlimit="1.45">
      <text x="752.2749" xml:space="preserve" y="264.4624" clip-path="url(#clipPath2)" stroke="none">CFG</text>
      <rect x="612" y="248.5391" clip-path="url(#clipPath2)" fill="none" width="173" stroke-dasharray="6,2" rx="4" ry="4" height="124.4609"/>
      <text x="681.5283" xml:space="preserve" font-size="12px" y="325.6543" clip-path="url(#clipPath2)" stroke="none">CFG()</text>
      <rect fill="none" x="627" width="143" height="73" y="285" clip-path="url(#clipPath2)"/>
    </g>
    <g text-rendering="geometricPrecision" stroke-miterlimit="1.45" shape-rendering="geometricPrecision" transform="matrix(1,0,0,1,91,139)" stroke-linecap="butt">
      <path fill="none" d="M785 315.25 L770 321.5 L785 327.75 L782.15 323 L838 323 L838 320 L782.15 320 L785 315.25 Z" clip-path="url(#clipPath2)"/>
    </g>
    <g text-rendering="geometricPrecision" stroke-miterlimit="1.45" shape-rendering="geometricPrecision" transform="matrix(1,0,0,1,91,139)" stroke-linecap="butt">
      <path fill="none" d="M697 358 L697 417.85 L692.25 415 L698.5 430 L704.75 415 L700 417.85 L700 358 Z" clip-path="url(#clipPath2)"/>
    </g>
    <g font-size="15px" stroke-linecap="butt" transform="matrix(1,0,0,1,91,139)" text-rendering="geometricPrecision" font-family="sans-serif" shape-rendering="geometricPrecision" stroke-miterlimit="1.45">
      <text x="969.0923" xml:space="preserve" y="-17.5376" clip-path="url(#clipPath2)" stroke="none">DICTIONARY</text>
      <rect x="612" y="-33.4609" clip-path="url(#clipPath2)" fill="none" width="452" stroke-dasharray="6,2" rx="4" ry="4" height="246.4609"/>
      <text x="867.5791" xml:space="preserve" font-size="12px" y="162.6543" clip-path="url(#clipPath2)" stroke="none">hashtable[27]</text>
      <rect fill="none" x="838" width="143" height="73" y="122" clip-path="url(#clipPath2)"/>
      <text x="890.3193" xml:space="preserve" font-size="12px" y="43.6543" clip-path="url(#clipPath2)" stroke="none">Load()</text>
      <rect fill="none" x="838" width="143" height="73" y="3" clip-path="url(#clipPath2)"/>
      <text x="651.9004" xml:space="preserve" font-size="12px" y="43.6543" clip-path="url(#clipPath2)" stroke="none">hash_function()</text>
      <rect fill="none" x="627" width="143" height="73" y="3" clip-path="url(#clipPath2)"/>
      <text x="660.8477" xml:space="preserve" font-size="12px" y="159.6543" clip-path="url(#clipPath2)" stroke="none">get_tokens()</text>
      <rect fill="none" x="627" width="143" height="73" y="119" clip-path="url(#clipPath2)"/>
      <text x="869.375" xml:space="preserve" font-size="12px" y="-83.3457" clip-path="url(#clipPath2)" stroke="none">dictionary.txt</text>
      <rect fill="none" x="838" width="143" height="73" y="-124" clip-path="url(#clipPath2)"/>
    </g>
    <g text-rendering="geometricPrecision" stroke-miterlimit="1.45" shape-rendering="geometricPrecision" transform="matrix(1,0,0,1,91,139)" stroke-linecap="butt">
      <path fill="none" d="M908 76 L908 109.85 L903.25 107 L909.5 122 L915.75 107 L911 109.85 L911 76 Z" clip-path="url(#clipPath2)"/>
    </g>
    <g text-rendering="geometricPrecision" stroke-miterlimit="1.45" shape-rendering="geometricPrecision" transform="matrix(1,0,0,1,91,139)" stroke-linecap="butt">
      <path fill="none" d="M785 33.25 L770 39.5 L785 45.75 L782.15 41 L825.85 41 L823 45.75 L838 39.5 L823 33.25 L825.85 38 L782.15 38 L785 33.25 Z" clip-path="url(#clipPath2)"/>
    </g>
    <g text-rendering="geometricPrecision" stroke-miterlimit="1.45" shape-rendering="geometricPrecision" transform="matrix(1,0,0,1,91,139)" stroke-linecap="butt">
      <path fill="none" d="M785.0873 150.4805 L770 156.5166 L784.9096 162.9792 L782.1274 158.1892 L782.1274 158.1892 L837.977 158.9832 L838.023 155.9836 L782.1701 155.1895 L782.1701 155.1895 L785.0873 150.4805 Z" clip-path="url(#clipPath2)"/>
    </g>
    <g text-rendering="geometricPrecision" stroke-miterlimit="1.45" shape-rendering="geometricPrecision" transform="matrix(1,0,0,1,91,139)" stroke-linecap="butt">
      <path fill="none" d="M697 76 L697 106.85 L692.25 104 L698.5 119 L704.75 104 L700 106.85 L700 76 Z" clip-path="url(#clipPath2)"/>
    </g>
    <g text-rendering="geometricPrecision" stroke-miterlimit="1.45" shape-rendering="geometricPrecision" transform="matrix(1,0,0,1,91,139)" stroke-linecap="butt">
      <path fill="none" d="M451.5168 118.9598 L451.5168 96.7323 L657.7274 96.7323 L657.7274 110.9896" clip-path="url(#clipPath2)"/>
      <path d="M657.7274 118.9896 L662.7274 106.9896 L657.7274 109.9896 L652.7274 106.9896 Z" clip-path="url(#clipPath2)" stroke="none"/>
    </g>
    <g text-rendering="geometricPrecision" stroke-miterlimit="1.45" shape-rendering="geometricPrecision" transform="matrix(1,0,0,1,91,139)" stroke-linecap="butt">
      <path fill="none" d="M502 149.25 L487 155.5 L502 161.75 L499.15 157 L627 157 L627 154 L499.15 154 L502 149.25 Z" clip-path="url(#clipPath2)"/>
    </g>
    <g text-rendering="geometricPrecision" stroke-miterlimit="1.45" shape-rendering="geometricPrecision" transform="matrix(1,0,0,1,91,139)" stroke-linecap="butt">
      <path fill="none" d="M908 -51 L908 -9.15 L903.25 -12 L909.5 3 L915.75 -12 L911 -9.15 L911 -51 Z" clip-path="url(#clipPath2)"/>
    </g>
    <g font-size="15px" stroke-linecap="butt" transform="matrix(1,0,0,1,91,139)" text-rendering="geometricPrecision" font-family="sans-serif" shape-rendering="geometricPrecision" stroke-miterlimit="1.45">
      <text x="490.8607" xml:space="preserve" y="504.7957" clip-path="url(#clipPath2)" stroke="none">CYK</text>
      <rect x="276" y="488.8724" clip-path="url(#clipPath2)" fill="none" width="246.3333" stroke-dasharray="6,2" rx="4" ry="4" height="406.4609"/>
      <text x="382.6094" xml:space="preserve" font-size="12px" y="565.9876" clip-path="url(#clipPath2)" stroke="none">Matrix</text>
      <rect fill="none" x="330" width="143" height="73" y="525.3333" clip-path="url(#clipPath2)"/>
      <text x="352.4014" xml:space="preserve" font-size="12px" y="823.9876" clip-path="url(#clipPath2)" stroke="none">Cycle_Through()</text>
      <rect fill="none" x="330" width="143" height="73" y="783.3333" clip-path="url(#clipPath2)"/>
      <text x="385.0293" xml:space="preserve" font-size="12px" y="704.9876" clip-path="url(#clipPath2)" stroke="none">CYK()</text>
      <rect fill="none" x="330" width="143" height="73" y="664.3333" clip-path="url(#clipPath2)"/>
      <text x="11.1904" xml:space="preserve" font-size="12px" y="43.6543" clip-path="url(#clipPath2)" stroke="none">log.txt</text>
      <rect fill="none" x="-41" width="143" height="73" y="3" clip-path="url(#clipPath2)"/>
    </g>
    <g text-rendering="geometricPrecision" stroke-miterlimit="1.45" shape-rendering="geometricPrecision" transform="matrix(1,0,0,1,91,139)" stroke-linecap="butt">
      <path fill="none" d="M117 505.25 L102 511.5 L117 517.75 L114.15 513 L400 513 L400 525.3333 L403 525.3333 L403 511.5 L403 510 L114.15 510 L117 505.25 Z" clip-path="url(#clipPath2)"/>
    </g>
    <g text-rendering="geometricPrecision" stroke-miterlimit="1.45" shape-rendering="geometricPrecision" transform="matrix(1,0,0,1,91,139)" stroke-linecap="butt">
      <path fill="none" d="M401.5 783.3333 L401.5 745.3333" clip-path="url(#clipPath2)"/>
      <path d="M401.5 737.3333 L396.5 749.3333 L401.5 746.3333 L406.5 749.3333 Z" clip-path="url(#clipPath2)" stroke="none"/>
    </g>
    <g text-rendering="geometricPrecision" stroke-miterlimit="1.45" shape-rendering="geometricPrecision" transform="matrix(1,0,0,1,91,139)" stroke-linecap="butt">
      <path fill="none" d="M697 503 L697 699.3333 L485.15 699.3333 L488 694.5833 L473 700.8333 L488 707.0833 L485.15 702.3333 L700 702.3333 L700 700.8333 L700 503 Z" clip-path="url(#clipPath2)"/>
    </g>
    <g text-rendering="geometricPrecision" stroke-miterlimit="1.45" shape-rendering="geometricPrecision" transform="matrix(1,0,0,1,91,139)" stroke-linecap="butt">
      <path fill="none" d="M-77.5 267.5391 L-77.5 269.0391 L-77.5 700.8333 L-77.5 702.3333 L317.85 702.3333 L315 707.0833 L330 700.8333 L315 694.5833 L317.85 699.3333 L-74.5 699.3333 L-74.5 270.5391 L-41.0342 270.5391 L-41.0342 267.5391 Z" clip-path="url(#clipPath2)"/>
    </g>
    <g text-rendering="geometricPrecision" stroke-miterlimit="1.45" shape-rendering="geometricPrecision" transform="matrix(1,0,0,1,91,139)" stroke-linecap="butt">
      <path fill="none" d="M401.5 598.3333 L395.25 613.3333 L400 610.4833 L400 610.4833 L400 664.3333 L403 664.3333 L403 610.4833 L403 610.4833 L407.75 613.3333 L401.5 598.3333 Z" clip-path="url(#clipPath2)"/>
    </g>
    <g text-rendering="geometricPrecision" stroke-miterlimit="1.45" shape-rendering="geometricPrecision" transform="matrix(1,0,0,1,91,139)" stroke-linecap="butt">
      <path fill="none" d="M30.5 76 L24.25 91 L29 88.15 L29 88.15 L29 129.5391 L32 129.5391 L32 88.15 L32 88.15 L36.75 91 L30.5 76 Z" clip-path="url(#clipPath2)"/>
    </g>
  </g>
</svg>
