<?xml version="1.0" encoding="UTF-8"?><svg xmlns="http://www.w3.org/2000/svg" xmlns:xlink="http://www.w3.org/1999/xlink" fill-opacity="1" color-rendering="auto" color-interpolation="auto" text-rendering="auto" stroke="black" stroke-linecap="square" width="553" stroke-miterlimit="10" shape-rendering="auto" stroke-opacity="1" fill="black" stroke-dasharray="none" font-weight="normal" stroke-width="1" height="482" font-family="'Dialog'" font-style="normal" stroke-linejoin="miter" font-size="12px" stroke-dashoffset="0" image-rendering="auto">
  <!--Generated by ySVG 2.5-->
  <defs id="genericDefs"/>
  <g>
    <defs id="defs1">
      <clipPath clipPathUnits="userSpaceOnUse" id="clipPath1">
        <path d="M0 0 L553 0 L553 482 L0 482 L0 0 Z"/>
      </clipPath>
      <clipPath clipPathUnits="userSpaceOnUse" id="clipPath2">
        <path d="M430 314 L983 314 L983 796 L430 796 L430 314 Z"/>
      </clipPath>
    </defs>
    <g fill="white" text-rendering="geometricPrecision" shape-rendering="geometricPrecision" transform="translate(-430,-314)" stroke="white">
      <rect x="430" width="553" height="482" y="314" clip-path="url(#clipPath2)" stroke="none"/>
    </g>
    <g font-size="15px" stroke-linecap="butt" transform="matrix(1,0,0,1,-430,-314)" text-rendering="geometricPrecision" font-family="sans-serif" shape-rendering="geometricPrecision" stroke-miterlimit="1.45">
      <text x="751.0209" xml:space="preserve" y="516.5811" clip-path="url(#clipPath2)" stroke="none">Stack</text>
      <rect x="727.2576" y="500.6577" clip-path="url(#clipPath2)" fill="none" width="67.2917" stroke-dasharray="6,2" rx="4" ry="4" height="89.6523"/>
    </g>
    <g fill="white" text-rendering="geometricPrecision" shape-rendering="geometricPrecision" transform="matrix(1,0,0,1,-430,-314)" stroke="white">
      <rect x="749.5492" width="30" height="30" y="537.1186" clip-path="url(#clipPath2)" stroke="none"/>
    </g>
    <g text-rendering="geometricPrecision" stroke-miterlimit="1.45" shape-rendering="geometricPrecision" font-family="sans-serif" transform="matrix(1,0,0,1,-430,-314)" stroke-linecap="butt">
      <text x="761.4233" xml:space="preserve" y="556.2729" clip-path="url(#clipPath2)" stroke="none">s</text>
      <rect fill="none" x="749.5492" width="30" height="30" y="537.1186" clip-path="url(#clipPath2)"/>
      <text x="931.602" xml:space="preserve" font-size="15px" y="516.5811" clip-path="url(#clipPath2)" stroke="none">Line</text>
      <rect x="903.1951" y="500.6577" clip-path="url(#clipPath2)" fill="none" width="61.6667" stroke-dasharray="6,2" rx="4" ry="4" height="81.4609"/>
    </g>
    <g fill="white" text-rendering="geometricPrecision" shape-rendering="geometricPrecision" transform="matrix(1,0,0,1,-430,-314)" stroke="white">
      <rect x="445.9034" width="518.9583" height="30" y="396.462" clip-path="url(#clipPath2)" stroke="none"/>
    </g>
    <g text-rendering="geometricPrecision" stroke-miterlimit="1.45" shape-rendering="geometricPrecision" font-family="sans-serif" transform="matrix(1,0,0,1,-430,-314)" stroke-linecap="butt">
      <text x="685.9968" xml:space="preserve" y="415.6163" clip-path="url(#clipPath2)" stroke="none">Step 0</text>
      <rect fill="none" x="445.9034" width="518.9583" height="30" y="396.462" clip-path="url(#clipPath2)"/>
    </g>
    <g fill="white" text-rendering="geometricPrecision" shape-rendering="geometricPrecision" transform="matrix(1,0,0,1,-430,-314)" stroke="white">
      <rect x="445.9034" width="30" height="30" y="500.6577" clip-path="url(#clipPath2)" stroke="none"/>
    </g>
    <g text-rendering="geometricPrecision" stroke-miterlimit="1.45" shape-rendering="geometricPrecision" font-family="sans-serif" transform="matrix(1,0,0,1,-430,-314)" stroke-linecap="butt">
      <text x="457.7774" xml:space="preserve" y="519.812" clip-path="url(#clipPath2)" stroke="none">s</text>
      <rect x="445.9034" y="500.6577" clip-path="url(#clipPath2)" fill="none" width="30" stroke-dasharray="12,4" height="30" stroke-width="2"/>
    </g>
    <g fill="white" text-rendering="geometricPrecision" shape-rendering="geometricPrecision" transform="matrix(1,0,0,1,-430,-314)" stroke="white">
      <rect x="495.9034" width="30" height="30" y="500.6577" clip-path="url(#clipPath2)" stroke="none"/>
    </g>
    <g text-rendering="geometricPrecision" stroke-miterlimit="1.45" shape-rendering="geometricPrecision" font-family="sans-serif" transform="matrix(1,0,0,1,-430,-314)" stroke-linecap="butt">
      <text x="503.544" xml:space="preserve" y="519.812" clip-path="url(#clipPath2)" stroke="none">vp</text>
      <rect fill="none" x="495.9034" width="30" height="30" y="500.6577" clip-path="url(#clipPath2)"/>
    </g>
    <g fill="white" text-rendering="geometricPrecision" shape-rendering="geometricPrecision" transform="matrix(1,0,0,1,-430,-314)" stroke="white">
      <rect x="545.9034" width="30" height="30" y="500.6577" clip-path="url(#clipPath2)" stroke="none"/>
    </g>
    <g text-rendering="geometricPrecision" stroke-miterlimit="1.45" shape-rendering="geometricPrecision" font-family="sans-serif" transform="matrix(1,0,0,1,-430,-314)" stroke-linecap="butt">
      <text x="551.0508" xml:space="preserve" y="519.812" clip-path="url(#clipPath2)" stroke="none">det</text>
      <rect fill="none" x="545.9034" width="30" height="30" y="500.6577" clip-path="url(#clipPath2)"/>
    </g>
    <g fill="white" text-rendering="geometricPrecision" shape-rendering="geometricPrecision" transform="matrix(1,0,0,1,-430,-314)" stroke="white">
      <rect x="595.9034" width="30" height="30" y="500.6577" clip-path="url(#clipPath2)" stroke="none"/>
    </g>
    <g text-rendering="geometricPrecision" stroke-miterlimit="1.45" shape-rendering="geometricPrecision" font-family="sans-serif" transform="matrix(1,0,0,1,-430,-314)" stroke-linecap="butt">
      <text x="603.544" xml:space="preserve" y="519.812" clip-path="url(#clipPath2)" stroke="none">vp</text>
      <rect fill="none" x="595.9034" width="30" height="30" y="500.6577" clip-path="url(#clipPath2)"/>
    </g>
    <g fill="white" text-rendering="geometricPrecision" shape-rendering="geometricPrecision" transform="matrix(1,0,0,1,-430,-314)" stroke="white">
      <rect x="445.9034" width="30" height="30" y="550.6577" clip-path="url(#clipPath2)" stroke="none"/>
    </g>
    <g text-rendering="geometricPrecision" stroke-miterlimit="1.45" shape-rendering="geometricPrecision" font-family="sans-serif" transform="matrix(1,0,0,1,-430,-314)" stroke-linecap="butt">
      <text x="453.2921" xml:space="preserve" y="569.812" clip-path="url(#clipPath2)" stroke="none">np</text>
      <rect fill="none" x="445.9034" width="30" height="30" y="550.6577" clip-path="url(#clipPath2)"/>
    </g>
    <g fill="white" text-rendering="geometricPrecision" shape-rendering="geometricPrecision" transform="matrix(1,0,0,1,-430,-314)" stroke="white">
      <rect x="495.9034" width="30" height="30" y="550.6577" clip-path="url(#clipPath2)" stroke="none"/>
    </g>
    <g text-rendering="geometricPrecision" stroke-miterlimit="1.45" shape-rendering="geometricPrecision" font-family="sans-serif" transform="matrix(1,0,0,1,-430,-314)" stroke-linecap="butt">
      <text x="503.544" xml:space="preserve" y="569.812" clip-path="url(#clipPath2)" stroke="none">vp</text>
      <rect fill="none" x="495.9034" width="30" height="30" y="550.6577" clip-path="url(#clipPath2)"/>
    </g>
    <g fill="white" text-rendering="geometricPrecision" shape-rendering="geometricPrecision" transform="matrix(1,0,0,1,-430,-314)" stroke="white">
      <rect x="545.9034" width="30" height="30" y="550.6577" clip-path="url(#clipPath2)" stroke="none"/>
    </g>
    <g text-rendering="geometricPrecision" stroke-miterlimit="1.45" shape-rendering="geometricPrecision" font-family="sans-serif" transform="matrix(1,0,0,1,-430,-314)" stroke-linecap="butt">
      <text x="551.0508" xml:space="preserve" y="569.812" clip-path="url(#clipPath2)" stroke="none">det</text>
      <rect fill="none" x="545.9034" width="30" height="30" y="550.6577" clip-path="url(#clipPath2)"/>
    </g>
    <g fill="white" text-rendering="geometricPrecision" shape-rendering="geometricPrecision" transform="matrix(1,0,0,1,-430,-314)" stroke="white">
      <rect x="595.9034" width="30" height="30" y="550.6577" clip-path="url(#clipPath2)" stroke="none"/>
    </g>
    <g text-rendering="geometricPrecision" stroke-miterlimit="1.45" shape-rendering="geometricPrecision" font-family="sans-serif" transform="matrix(1,0,0,1,-430,-314)" stroke-linecap="butt">
      <text x="597.3858" xml:space="preserve" y="569.812" clip-path="url(#clipPath2)" stroke="none">verb</text>
      <rect fill="none" x="595.9034" width="30" height="30" y="550.6577" clip-path="url(#clipPath2)"/>
    </g>
    <g fill="white" text-rendering="geometricPrecision" shape-rendering="geometricPrecision" transform="matrix(1,0,0,1,-430,-314)" stroke="white">
      <rect x="445.9034" width="30" height="30" y="600.6577" clip-path="url(#clipPath2)" stroke="none"/>
    </g>
    <g text-rendering="geometricPrecision" stroke-miterlimit="1.45" shape-rendering="geometricPrecision" font-family="sans-serif" transform="matrix(1,0,0,1,-430,-314)" stroke-linecap="butt">
      <text x="453.2921" xml:space="preserve" y="619.812" clip-path="url(#clipPath2)" stroke="none">np</text>
      <rect fill="none" x="445.9034" width="30" height="30" y="600.6577" clip-path="url(#clipPath2)"/>
    </g>
    <g fill="white" text-rendering="geometricPrecision" shape-rendering="geometricPrecision" transform="matrix(1,0,0,1,-430,-314)" stroke="white">
      <rect x="495.9034" width="30" height="30" y="600.6577" clip-path="url(#clipPath2)" stroke="none"/>
    </g>
    <g text-rendering="geometricPrecision" stroke-miterlimit="1.45" shape-rendering="geometricPrecision" font-family="sans-serif" transform="matrix(1,0,0,1,-430,-314)" stroke-linecap="butt">
      <text x="503.544" xml:space="preserve" y="619.812" clip-path="url(#clipPath2)" stroke="none">vp</text>
      <rect fill="none" x="495.9034" width="30" height="30" y="600.6577" clip-path="url(#clipPath2)"/>
    </g>
    <g fill="white" text-rendering="geometricPrecision" shape-rendering="geometricPrecision" transform="matrix(1,0,0,1,-430,-314)" stroke="white">
      <rect x="545.9034" width="30" height="30" y="600.6577" clip-path="url(#clipPath2)" stroke="none"/>
    </g>
    <g text-rendering="geometricPrecision" stroke-miterlimit="1.45" shape-rendering="geometricPrecision" font-family="sans-serif" transform="matrix(1,0,0,1,-430,-314)" stroke-linecap="butt">
      <text x="551.0508" xml:space="preserve" y="619.812" clip-path="url(#clipPath2)" stroke="none">det</text>
      <rect fill="none" x="545.9034" width="30" height="30" y="600.6577" clip-path="url(#clipPath2)"/>
    </g>
    <g fill="white" text-rendering="geometricPrecision" shape-rendering="geometricPrecision" transform="matrix(1,0,0,1,-430,-314)" stroke="white">
      <rect x="595.9034" width="30" height="30" y="600.6577" clip-path="url(#clipPath2)" stroke="none"/>
    </g>
    <g text-rendering="geometricPrecision" stroke-miterlimit="1.45" shape-rendering="geometricPrecision" transform="matrix(1,0,0,1,-430,-314)" stroke-linecap="butt">
      <rect fill="none" x="595.9034" width="30" height="30" y="600.6577" clip-path="url(#clipPath2)"/>
    </g>
    <g fill="white" text-rendering="geometricPrecision" shape-rendering="geometricPrecision" transform="matrix(1,0,0,1,-430,-314)" stroke="white">
      <rect x="445.9034" width="30" height="30" y="650.6577" clip-path="url(#clipPath2)" stroke="none"/>
    </g>
    <g text-rendering="geometricPrecision" stroke-miterlimit="1.45" shape-rendering="geometricPrecision" font-family="sans-serif" transform="matrix(1,0,0,1,-430,-314)" stroke-linecap="butt">
      <text x="453.2921" xml:space="preserve" y="669.812" clip-path="url(#clipPath2)" stroke="none">np</text>
      <rect fill="none" x="445.9034" width="30" height="30" y="650.6577" clip-path="url(#clipPath2)"/>
    </g>
    <g fill="white" text-rendering="geometricPrecision" shape-rendering="geometricPrecision" transform="matrix(1,0,0,1,-430,-314)" stroke="white">
      <rect x="495.9034" width="30" height="30" y="650.6577" clip-path="url(#clipPath2)" stroke="none"/>
    </g>
    <g text-rendering="geometricPrecision" stroke-miterlimit="1.45" shape-rendering="geometricPrecision" font-family="sans-serif" transform="matrix(1,0,0,1,-430,-314)" stroke-linecap="butt">
      <text x="497.3858" xml:space="preserve" y="669.812" clip-path="url(#clipPath2)" stroke="none">verb</text>
      <rect fill="none" x="495.9034" width="30" height="30" y="650.6577" clip-path="url(#clipPath2)"/>
    </g>
    <g fill="white" text-rendering="geometricPrecision" shape-rendering="geometricPrecision" transform="matrix(1,0,0,1,-430,-314)" stroke="white">
      <rect x="545.9034" width="30" height="30" y="650.6577" clip-path="url(#clipPath2)" stroke="none"/>
    </g>
    <g text-rendering="geometricPrecision" stroke-miterlimit="1.45" shape-rendering="geometricPrecision" transform="matrix(1,0,0,1,-430,-314)" stroke-linecap="butt">
      <rect fill="none" x="545.9034" width="30" height="30" y="650.6577" clip-path="url(#clipPath2)"/>
    </g>
    <g fill="white" text-rendering="geometricPrecision" shape-rendering="geometricPrecision" transform="matrix(1,0,0,1,-430,-314)" stroke="white">
      <rect x="595.9034" width="30" height="30" y="650.6577" clip-path="url(#clipPath2)" stroke="none"/>
    </g>
    <g text-rendering="geometricPrecision" stroke-miterlimit="1.45" shape-rendering="geometricPrecision" transform="matrix(1,0,0,1,-430,-314)" stroke-linecap="butt">
      <rect fill="none" x="595.9034" width="30" height="30" y="650.6577" clip-path="url(#clipPath2)"/>
    </g>
    <g fill="white" text-rendering="geometricPrecision" shape-rendering="geometricPrecision" transform="matrix(1,0,0,1,-430,-314)" stroke="white">
      <rect x="445.9034" width="30" height="30" y="700.6577" clip-path="url(#clipPath2)" stroke="none"/>
    </g>
    <g text-rendering="geometricPrecision" stroke-miterlimit="1.45" shape-rendering="geometricPrecision" font-family="sans-serif" transform="matrix(1,0,0,1,-430,-314)" stroke-linecap="butt">
      <text x="447.1544" xml:space="preserve" y="719.812" clip-path="url(#clipPath2)" stroke="none">pron</text>
      <rect fill="none" x="445.9034" width="30" height="30" y="700.6577" clip-path="url(#clipPath2)"/>
    </g>
    <g fill="white" text-rendering="geometricPrecision" shape-rendering="geometricPrecision" transform="matrix(1,0,0,1,-430,-314)" stroke="white">
      <rect x="495.9034" width="30" height="30" y="700.6577" clip-path="url(#clipPath2)" stroke="none"/>
    </g>
    <g text-rendering="geometricPrecision" stroke-miterlimit="1.45" shape-rendering="geometricPrecision" transform="matrix(1,0,0,1,-430,-314)" stroke-linecap="butt">
      <rect fill="none" x="495.9034" width="30" height="30" y="700.6577" clip-path="url(#clipPath2)"/>
    </g>
    <g fill="white" text-rendering="geometricPrecision" shape-rendering="geometricPrecision" transform="matrix(1,0,0,1,-430,-314)" stroke="white">
      <rect x="545.9034" width="30" height="30" y="700.6577" clip-path="url(#clipPath2)" stroke="none"/>
    </g>
    <g text-rendering="geometricPrecision" stroke-miterlimit="1.45" shape-rendering="geometricPrecision" transform="matrix(1,0,0,1,-430,-314)" stroke-linecap="butt">
      <rect fill="none" x="545.9034" width="30" height="30" y="700.6577" clip-path="url(#clipPath2)"/>
    </g>
    <g fill="white" text-rendering="geometricPrecision" shape-rendering="geometricPrecision" transform="matrix(1,0,0,1,-430,-314)" stroke="white">
      <rect x="595.9034" width="30" height="30" y="700.6577" clip-path="url(#clipPath2)" stroke="none"/>
    </g>
    <g text-rendering="geometricPrecision" stroke-miterlimit="1.45" shape-rendering="geometricPrecision" transform="matrix(1,0,0,1,-430,-314)" stroke-linecap="butt">
      <rect fill="none" x="595.9034" width="30" height="30" y="700.6577" clip-path="url(#clipPath2)"/>
    </g>
    <g fill="white" text-rendering="geometricPrecision" shape-rendering="geometricPrecision" transform="matrix(1,0,0,1,-430,-314)" stroke="white">
      <rect x="445.9034" width="180" height="30" y="448.6577" clip-path="url(#clipPath2)" stroke="none"/>
    </g>
    <g text-rendering="geometricPrecision" stroke-miterlimit="1.45" shape-rendering="geometricPrecision" font-family="sans-serif" transform="matrix(1,0,0,1,-430,-314)" stroke-linecap="butt">
      <text x="503.3165" xml:space="preserve" y="467.812" clip-path="url(#clipPath2)" stroke="none">CKY Matrix</text>
      <rect fill="none" x="445.9034" width="180" height="30" y="448.6577" clip-path="url(#clipPath2)"/>
    </g>
    <g fill="white" text-rendering="geometricPrecision" shape-rendering="geometricPrecision" transform="matrix(1,0,0,1,-430,-314)" stroke="white">
      <rect x="445.9034" width="518.9583" height="44.6667" y="329.5996" clip-path="url(#clipPath2)" stroke="none"/>
    </g>
    <g font-size="11px" stroke-linecap="butt" transform="matrix(1,0,0,1,-430,-314)" text-rendering="geometricPrecision" font-family="sans-serif" shape-rendering="geometricPrecision" stroke-miterlimit="1.45">
      <text x="622.8369" xml:space="preserve" y="342.9364" clip-path="url(#clipPath2)" stroke="none">Tree_DFS of "I am a Function"</text>
      <text x="655.939" xml:space="preserve" y="355.7411" clip-path="url(#clipPath2)" stroke="none">First Permutation:</text>
      <text x="652.1362" xml:space="preserve" y="368.5457" clip-path="url(#clipPath2)" stroke="none">Pron Verb Det Verb</text>
      <rect fill="none" x="445.9034" width="518.9583" height="44.6667" y="329.5996" clip-path="url(#clipPath2)"/>
    </g>
    <g fill="white" text-rendering="geometricPrecision" shape-rendering="geometricPrecision" transform="matrix(1,0,0,1,-430,-314)" stroke="white">
      <rect x="727.2576" width="237.6042" height="30" y="448.6577" clip-path="url(#clipPath2)" stroke="none"/>
    </g>
    <g text-rendering="geometricPrecision" stroke-miterlimit="1.45" shape-rendering="geometricPrecision" font-family="sans-serif" transform="matrix(1,0,0,1,-430,-314)" stroke-linecap="butt">
      <text x="787.4249" xml:space="preserve" y="467.812" clip-path="url(#clipPath2)" stroke="none">Stack &amp; Line Status</text>
      <rect fill="none" x="727.2576" width="237.6042" height="30" y="448.6577" clip-path="url(#clipPath2)"/>
    </g>
    <g fill="white" text-rendering="geometricPrecision" shape-rendering="geometricPrecision" transform="matrix(1,0,0,1,-430,-314)" stroke="white">
      <rect x="730.0701" width="237.6042" height="30" y="620.31" clip-path="url(#clipPath2)" stroke="none"/>
    </g>
    <g text-rendering="geometricPrecision" stroke-miterlimit="1.45" shape-rendering="geometricPrecision" font-family="sans-serif" transform="matrix(1,0,0,1,-430,-314)" stroke-linecap="butt">
      <text x="835.3575" xml:space="preserve" y="639.4644" clip-path="url(#clipPath2)" stroke="none">Tree</text>
      <rect fill="none" x="730.0701" width="237.6042" height="30" y="620.31" clip-path="url(#clipPath2)"/>
    </g>
    <g fill="white" text-rendering="geometricPrecision" shape-rendering="geometricPrecision" transform="matrix(1,0,0,1,-430,-314)" stroke="white">
      <rect x="445.9034" width="518.9583" height="30" y="750.6577" clip-path="url(#clipPath2)" stroke="none"/>
    </g>
    <g text-rendering="geometricPrecision" stroke-miterlimit="1.45" shape-rendering="geometricPrecision" font-family="sans-serif" transform="matrix(1,0,0,1,-430,-314)" stroke-linecap="butt">
      <text x="676.9529" xml:space="preserve" y="769.812" clip-path="url(#clipPath2)" stroke="none">Figure 24</text>
      <rect fill="none" x="445.9034" width="518.9583" height="30" y="750.6577" clip-path="url(#clipPath2)"/>
      <path fill="none" d="M495.9034 515.6577 L483.9034 515.6577" clip-path="url(#clipPath2)"/>
      <path d="M475.9034 515.6577 L487.9034 520.6577 L484.9034 515.6577 L487.9034 510.6577 Z" clip-path="url(#clipPath2)" stroke="none"/>
      <path fill="none" d="M460.9034 550.6577 L460.9034 538.6577" clip-path="url(#clipPath2)"/>
      <path d="M460.9034 530.6577 L455.9034 542.6577 L460.9034 539.6577 L465.9034 542.6577 Z" clip-path="url(#clipPath2)" stroke="none"/>
    </g>
    <g text-rendering="geometricPrecision" stroke-miterlimit="1.45" shape-rendering="geometricPrecision" transform="matrix(1,0,0,1,-430,-314)" stroke-linecap="butt">
      <path fill="none" d="M510.9034 530.6577 L504.6534 545.6577 L509.4034 542.8077 L509.4034 542.8077 L509.4034 550.6577 L512.4034 550.6577 L512.4034 542.8077 L517.1534 545.6577 L510.9034 530.6577 Z" clip-path="url(#clipPath2)"/>
    </g>
    <g text-rendering="geometricPrecision" stroke-miterlimit="1.45" shape-rendering="geometricPrecision" transform="matrix(1,0,0,1,-430,-314)" stroke-linecap="butt">
      <path fill="none" d="M560.9034 530.6577 L554.6534 545.6577 L559.4034 542.8077 L559.4034 550.6577 L562.4034 550.6577 L562.4034 542.8077 L567.1534 545.6577 L560.9034 530.6577 Z" clip-path="url(#clipPath2)"/>
    </g>
    <g text-rendering="geometricPrecision" stroke-miterlimit="1.45" shape-rendering="geometricPrecision" transform="matrix(1,0,0,1,-430,-314)" stroke-linecap="butt">
      <path fill="none" d="M610.9034 550.6577 L610.9034 538.6577" clip-path="url(#clipPath2)"/>
      <path d="M610.9034 530.6577 L605.9034 542.6577 L610.9034 539.6577 L615.9034 542.6577 Z" clip-path="url(#clipPath2)" stroke="none"/>
    </g>
    <g text-rendering="geometricPrecision" stroke-miterlimit="1.45" shape-rendering="geometricPrecision" transform="matrix(1,0,0,1,-430,-314)" stroke-linecap="butt">
      <path fill="none" d="M460.9034 580.6577 L454.6534 595.6577 L459.4034 592.8077 L459.4034 592.8077 L459.4034 600.6577 L462.4034 600.6577 L462.4034 592.8077 L462.4034 592.8077 L467.1534 595.6577 L460.9034 580.6577 Z" clip-path="url(#clipPath2)"/>
    </g>
    <g text-rendering="geometricPrecision" stroke-miterlimit="1.45" shape-rendering="geometricPrecision" transform="matrix(1,0,0,1,-430,-314)" stroke-linecap="butt">
      <path fill="none" d="M510.9034 580.6577 L504.6534 595.6577 L509.4034 592.8077 L509.4034 592.8077 L509.4034 600.6577 L512.4034 600.6577 L512.4034 592.8077 L517.1534 595.6577 L510.9034 580.6577 Z" clip-path="url(#clipPath2)"/>
    </g>
    <g text-rendering="geometricPrecision" stroke-miterlimit="1.45" shape-rendering="geometricPrecision" transform="matrix(1,0,0,1,-430,-314)" stroke-linecap="butt">
      <path fill="none" d="M560.9034 580.6577 L554.6534 595.6577 L559.4034 592.8077 L559.4034 600.6577 L562.4034 600.6577 L562.4034 592.8077 L567.1534 595.6577 L560.9034 580.6577 Z" clip-path="url(#clipPath2)"/>
    </g>
    <g text-rendering="geometricPrecision" stroke-miterlimit="1.45" shape-rendering="geometricPrecision" transform="matrix(1,0,0,1,-430,-314)" stroke-linecap="butt">
      <path fill="none" d="M460.9034 630.6577 L454.6534 645.6577 L459.4034 642.8077 L459.4034 642.8077 L459.4034 650.6577 L462.4034 650.6577 L462.4034 642.8077 L462.4034 642.8077 L467.1534 645.6577 L460.9034 630.6577 Z" clip-path="url(#clipPath2)"/>
    </g>
    <g text-rendering="geometricPrecision" stroke-miterlimit="1.45" shape-rendering="geometricPrecision" transform="matrix(1,0,0,1,-430,-314)" stroke-linecap="butt">
      <path fill="none" d="M510.9034 650.6577 L510.9034 638.6577" clip-path="url(#clipPath2)"/>
      <path d="M510.9034 630.6577 L505.9034 642.6577 L510.9034 639.6577 L515.9034 642.6577 Z" clip-path="url(#clipPath2)" stroke="none"/>
      <path fill="none" d="M460.9034 700.6577 L460.9034 688.6577" clip-path="url(#clipPath2)"/>
      <path d="M460.9034 680.6577 L455.9034 692.6577 L460.9034 689.6577 L465.9034 692.6577 Z" clip-path="url(#clipPath2)" stroke="none"/>
    </g>
  </g>
</svg>
