<?xml version="1.0" encoding="UTF-8"?><svg xmlns="http://www.w3.org/2000/svg" xmlns:xlink="http://www.w3.org/1999/xlink" fill-opacity="1" color-rendering="auto" color-interpolation="auto" text-rendering="auto" stroke="black" stroke-linecap="square" width="484" stroke-miterlimit="10" shape-rendering="auto" stroke-opacity="1" fill="black" stroke-dasharray="none" font-weight="normal" stroke-width="1" height="415" font-family="'Dialog'" font-style="normal" stroke-linejoin="miter" font-size="12px" stroke-dashoffset="0" image-rendering="auto">
  <!--Generated by ySVG 2.5-->
  <defs id="genericDefs"/>
  <g>
    <defs id="defs1">
      <clipPath clipPathUnits="userSpaceOnUse" id="clipPath1">
        <path d="M0 0 L484 0 L484 415 L0 415 L0 0 Z"/>
      </clipPath>
      <clipPath clipPathUnits="userSpaceOnUse" id="clipPath2">
        <path d="M394 362 L878 362 L878 777 L394 777 L394 362 Z"/>
      </clipPath>
    </defs>
    <g fill="white" text-rendering="geometricPrecision" shape-rendering="geometricPrecision" transform="translate(-394,-362)" stroke="white">
      <rect x="394" width="484" height="415" y="362" clip-path="url(#clipPath2)" stroke="none"/>
    </g>
    <g fill="white" text-rendering="geometricPrecision" shape-rendering="geometricPrecision" transform="matrix(1,0,0,1,-394,-362)" stroke="white">
      <rect x="546" width="30" height="30" y="481" clip-path="url(#clipPath2)" stroke="none"/>
    </g>
    <g text-rendering="geometricPrecision" stroke-miterlimit="1.45" shape-rendering="geometricPrecision" transform="matrix(1,0,0,1,-394,-362)" stroke-linecap="butt">
      <rect fill="none" x="546" width="30" height="30" y="481" clip-path="url(#clipPath2)"/>
    </g>
    <g fill="white" text-rendering="geometricPrecision" shape-rendering="geometricPrecision" transform="matrix(1,0,0,1,-394,-362)" stroke="white">
      <rect x="596" width="30" height="30" y="481" clip-path="url(#clipPath2)" stroke="none"/>
    </g>
    <g text-rendering="geometricPrecision" stroke-miterlimit="1.45" shape-rendering="geometricPrecision" transform="matrix(1,0,0,1,-394,-362)" stroke-linecap="butt">
      <rect fill="none" x="596" width="30" height="30" y="481" clip-path="url(#clipPath2)"/>
    </g>
    <g fill="white" text-rendering="geometricPrecision" shape-rendering="geometricPrecision" transform="matrix(1,0,0,1,-394,-362)" stroke="white">
      <rect x="646" width="30" height="30" y="481" clip-path="url(#clipPath2)" stroke="none"/>
    </g>
    <g text-rendering="geometricPrecision" stroke-miterlimit="1.45" shape-rendering="geometricPrecision" transform="matrix(1,0,0,1,-394,-362)" stroke-linecap="butt">
      <rect fill="none" x="646" width="30" height="30" y="481" clip-path="url(#clipPath2)"/>
    </g>
    <g fill="white" text-rendering="geometricPrecision" shape-rendering="geometricPrecision" transform="matrix(1,0,0,1,-394,-362)" stroke="white">
      <rect x="696" width="30" height="30" y="481" clip-path="url(#clipPath2)" stroke="none"/>
    </g>
    <g text-rendering="geometricPrecision" stroke-miterlimit="1.45" shape-rendering="geometricPrecision" font-family="sans-serif" transform="matrix(1,0,0,1,-394,-362)" stroke-linecap="butt">
      <text x="703.6406" xml:space="preserve" y="500.1543" clip-path="url(#clipPath2)" stroke="none">vp</text>
      <rect fill="none" x="696" width="30" height="30" y="481" clip-path="url(#clipPath2)"/>
    </g>
    <g fill="white" text-rendering="geometricPrecision" shape-rendering="geometricPrecision" transform="matrix(1,0,0,1,-394,-362)" stroke="white">
      <rect x="546" width="30" height="30" y="531" clip-path="url(#clipPath2)" stroke="none"/>
    </g>
    <g text-rendering="geometricPrecision" stroke-miterlimit="1.45" shape-rendering="geometricPrecision" transform="matrix(1,0,0,1,-394,-362)" stroke-linecap="butt">
      <rect fill="none" x="546" width="30" height="30" y="531" clip-path="url(#clipPath2)"/>
    </g>
    <g fill="white" text-rendering="geometricPrecision" shape-rendering="geometricPrecision" transform="matrix(1,0,0,1,-394,-362)" stroke="white">
      <rect x="596" width="30" height="30" y="531" clip-path="url(#clipPath2)" stroke="none"/>
    </g>
    <g text-rendering="geometricPrecision" stroke-miterlimit="1.45" shape-rendering="geometricPrecision" font-family="sans-serif" transform="matrix(1,0,0,1,-394,-362)" stroke-linecap="butt">
      <text x="603.6406" xml:space="preserve" y="550.1543" clip-path="url(#clipPath2)" stroke="none">vp</text>
      <rect fill="none" x="596" width="30" height="30" y="531" clip-path="url(#clipPath2)"/>
    </g>
    <g fill="white" text-rendering="geometricPrecision" shape-rendering="geometricPrecision" transform="matrix(1,0,0,1,-394,-362)" stroke="white">
      <rect x="646" width="30" height="30" y="531" clip-path="url(#clipPath2)" stroke="none"/>
    </g>
    <g text-rendering="geometricPrecision" stroke-miterlimit="1.45" shape-rendering="geometricPrecision" font-family="sans-serif" transform="matrix(1,0,0,1,-394,-362)" stroke-linecap="butt">
      <text x="651.1475" xml:space="preserve" y="550.1543" clip-path="url(#clipPath2)" stroke="none">det</text>
      <rect fill="none" x="646" width="30" height="30" y="531" clip-path="url(#clipPath2)"/>
    </g>
    <g fill="white" text-rendering="geometricPrecision" shape-rendering="geometricPrecision" transform="matrix(1,0,0,1,-394,-362)" stroke="white">
      <rect x="696" width="30" height="30" y="531" clip-path="url(#clipPath2)" stroke="none"/>
    </g>
    <g text-rendering="geometricPrecision" stroke-miterlimit="1.45" shape-rendering="geometricPrecision" font-family="sans-serif" transform="matrix(1,0,0,1,-394,-362)" stroke-linecap="butt">
      <text x="697.4824" xml:space="preserve" y="550.1543" clip-path="url(#clipPath2)" stroke="none">verb</text>
      <rect fill="none" x="696" width="30" height="30" y="531" clip-path="url(#clipPath2)"/>
    </g>
    <g fill="white" text-rendering="geometricPrecision" shape-rendering="geometricPrecision" transform="matrix(1,0,0,1,-394,-362)" stroke="white">
      <rect x="546" width="30" height="30" y="581" clip-path="url(#clipPath2)" stroke="none"/>
    </g>
    <g text-rendering="geometricPrecision" stroke-miterlimit="1.45" shape-rendering="geometricPrecision" font-family="sans-serif" transform="matrix(1,0,0,1,-394,-362)" stroke-linecap="butt">
      <text x="553.3887" xml:space="preserve" y="600.1543" clip-path="url(#clipPath2)" stroke="none">np</text>
      <rect fill="none" x="546" width="30" height="30" y="581" clip-path="url(#clipPath2)"/>
    </g>
    <g fill="white" text-rendering="geometricPrecision" shape-rendering="geometricPrecision" transform="matrix(1,0,0,1,-394,-362)" stroke="white">
      <rect x="596" width="30" height="30" y="581" clip-path="url(#clipPath2)" stroke="none"/>
    </g>
    <g text-rendering="geometricPrecision" stroke-miterlimit="1.45" shape-rendering="geometricPrecision" font-family="sans-serif" transform="matrix(1,0,0,1,-394,-362)" stroke-linecap="butt">
      <text x="603.6406" xml:space="preserve" y="600.1543" clip-path="url(#clipPath2)" stroke="none">vp</text>
      <rect fill="none" x="596" width="30" height="30" y="581" clip-path="url(#clipPath2)"/>
    </g>
    <g fill="white" text-rendering="geometricPrecision" shape-rendering="geometricPrecision" transform="matrix(1,0,0,1,-394,-362)" stroke="white">
      <rect x="646" width="30" height="30" y="581" clip-path="url(#clipPath2)" stroke="none"/>
    </g>
    <g text-rendering="geometricPrecision" stroke-miterlimit="1.45" shape-rendering="geometricPrecision" font-family="sans-serif" transform="matrix(1,0,0,1,-394,-362)" stroke-linecap="butt">
      <text x="651.1475" xml:space="preserve" y="600.1543" clip-path="url(#clipPath2)" stroke="none">det</text>
      <rect fill="none" x="646" width="30" height="30" y="581" clip-path="url(#clipPath2)"/>
    </g>
    <g fill="white" text-rendering="geometricPrecision" shape-rendering="geometricPrecision" transform="matrix(1,0,0,1,-394,-362)" stroke="white">
      <rect x="696" width="30" height="30" y="581" clip-path="url(#clipPath2)" stroke="none"/>
    </g>
    <g text-rendering="geometricPrecision" stroke-miterlimit="1.45" shape-rendering="geometricPrecision" transform="matrix(1,0,0,1,-394,-362)" stroke-linecap="butt">
      <rect fill="none" x="696" width="30" height="30" y="581" clip-path="url(#clipPath2)"/>
    </g>
    <g fill="white" text-rendering="geometricPrecision" shape-rendering="geometricPrecision" transform="matrix(1,0,0,1,-394,-362)" stroke="white">
      <rect x="546" width="30" height="30" y="631" clip-path="url(#clipPath2)" stroke="none"/>
    </g>
    <g text-rendering="geometricPrecision" stroke-miterlimit="1.45" shape-rendering="geometricPrecision" font-family="sans-serif" transform="matrix(1,0,0,1,-394,-362)" stroke-linecap="butt">
      <text x="553.3887" xml:space="preserve" y="650.1543" clip-path="url(#clipPath2)" stroke="none">np</text>
      <rect fill="none" x="546" width="30" height="30" y="631" clip-path="url(#clipPath2)"/>
    </g>
    <g fill="white" text-rendering="geometricPrecision" shape-rendering="geometricPrecision" transform="matrix(1,0,0,1,-394,-362)" stroke="white">
      <rect x="596" width="30" height="30" y="631" clip-path="url(#clipPath2)" stroke="none"/>
    </g>
    <g text-rendering="geometricPrecision" stroke-miterlimit="1.45" shape-rendering="geometricPrecision" font-family="sans-serif" transform="matrix(1,0,0,1,-394,-362)" stroke-linecap="butt">
      <text x="597.4824" xml:space="preserve" y="650.1543" clip-path="url(#clipPath2)" stroke="none">verb</text>
      <rect fill="none" x="596" width="30" height="30" y="631" clip-path="url(#clipPath2)"/>
    </g>
    <g fill="white" text-rendering="geometricPrecision" shape-rendering="geometricPrecision" transform="matrix(1,0,0,1,-394,-362)" stroke="white">
      <rect x="646" width="30" height="30" y="631" clip-path="url(#clipPath2)" stroke="none"/>
    </g>
    <g text-rendering="geometricPrecision" stroke-miterlimit="1.45" shape-rendering="geometricPrecision" transform="matrix(1,0,0,1,-394,-362)" stroke-linecap="butt">
      <rect fill="none" x="646" width="30" height="30" y="631" clip-path="url(#clipPath2)"/>
    </g>
    <g fill="white" text-rendering="geometricPrecision" shape-rendering="geometricPrecision" transform="matrix(1,0,0,1,-394,-362)" stroke="white">
      <rect x="696" width="30" height="30" y="631" clip-path="url(#clipPath2)" stroke="none"/>
    </g>
    <g text-rendering="geometricPrecision" stroke-miterlimit="1.45" shape-rendering="geometricPrecision" transform="matrix(1,0,0,1,-394,-362)" stroke-linecap="butt">
      <rect fill="none" x="696" width="30" height="30" y="631" clip-path="url(#clipPath2)"/>
    </g>
    <g fill="white" text-rendering="geometricPrecision" shape-rendering="geometricPrecision" transform="matrix(1,0,0,1,-394,-362)" stroke="white">
      <rect x="546" width="30" height="30" y="681" clip-path="url(#clipPath2)" stroke="none"/>
    </g>
    <g text-rendering="geometricPrecision" stroke-miterlimit="1.45" shape-rendering="geometricPrecision" font-family="sans-serif" transform="matrix(1,0,0,1,-394,-362)" stroke-linecap="butt">
      <text x="547.251" xml:space="preserve" y="700.1543" clip-path="url(#clipPath2)" stroke="none">pron</text>
      <rect fill="none" x="546" width="30" height="30" y="681" clip-path="url(#clipPath2)"/>
    </g>
    <g fill="white" text-rendering="geometricPrecision" shape-rendering="geometricPrecision" transform="matrix(1,0,0,1,-394,-362)" stroke="white">
      <rect x="596" width="30" height="30" y="681" clip-path="url(#clipPath2)" stroke="none"/>
    </g>
    <g text-rendering="geometricPrecision" stroke-miterlimit="1.45" shape-rendering="geometricPrecision" transform="matrix(1,0,0,1,-394,-362)" stroke-linecap="butt">
      <rect fill="none" x="596" width="30" height="30" y="681" clip-path="url(#clipPath2)"/>
    </g>
    <g fill="white" text-rendering="geometricPrecision" shape-rendering="geometricPrecision" transform="matrix(1,0,0,1,-394,-362)" stroke="white">
      <rect x="646" width="30" height="30" y="681" clip-path="url(#clipPath2)" stroke="none"/>
    </g>
    <g text-rendering="geometricPrecision" stroke-miterlimit="1.45" shape-rendering="geometricPrecision" transform="matrix(1,0,0,1,-394,-362)" stroke-linecap="butt">
      <rect fill="none" x="646" width="30" height="30" y="681" clip-path="url(#clipPath2)"/>
    </g>
    <g fill="white" text-rendering="geometricPrecision" shape-rendering="geometricPrecision" transform="matrix(1,0,0,1,-394,-362)" stroke="white">
      <rect x="696" width="30" height="30" y="681" clip-path="url(#clipPath2)" stroke="none"/>
    </g>
    <g text-rendering="geometricPrecision" stroke-miterlimit="1.45" shape-rendering="geometricPrecision" transform="matrix(1,0,0,1,-394,-362)" stroke-linecap="butt">
      <rect fill="none" x="696" width="30" height="30" y="681" clip-path="url(#clipPath2)"/>
    </g>
    <g fill="white" text-rendering="geometricPrecision" shape-rendering="geometricPrecision" transform="matrix(1,0,0,1,-394,-362)" stroke="white">
      <rect x="546" width="180" height="30" y="429" clip-path="url(#clipPath2)" stroke="none"/>
    </g>
    <g text-rendering="geometricPrecision" stroke-miterlimit="1.45" shape-rendering="geometricPrecision" font-family="sans-serif" transform="matrix(1,0,0,1,-394,-362)" stroke-linecap="butt">
      <text x="610.8896" xml:space="preserve" y="448.1543" clip-path="url(#clipPath2)" stroke="none">Step 2.1</text>
      <rect fill="none" x="546" width="180" height="30" y="429" clip-path="url(#clipPath2)"/>
    </g>
    <g fill="white" text-rendering="geometricPrecision" shape-rendering="geometricPrecision" transform="matrix(1,0,0,1,-394,-362)" stroke="white">
      <rect x="409.5" width="453" height="30" y="377" clip-path="url(#clipPath2)" stroke="none"/>
    </g>
    <g text-rendering="geometricPrecision" stroke-miterlimit="1.45" shape-rendering="geometricPrecision" font-family="sans-serif" transform="matrix(1,0,0,1,-394,-362)" stroke-linecap="butt">
      <text x="442.6436" xml:space="preserve" y="396.1543" clip-path="url(#clipPath2)" stroke="none">CKY of "I am a Function" - First Permutation: Pron Verb Det Verb</text>
      <rect fill="none" x="409.5" width="453" height="30" y="377" clip-path="url(#clipPath2)"/>
    </g>
    <g fill="white" text-rendering="geometricPrecision" shape-rendering="geometricPrecision" transform="matrix(1,0,0,1,-394,-362)" stroke="white">
      <rect x="409.5" width="453" height="30" y="731" clip-path="url(#clipPath2)" stroke="none"/>
    </g>
    <g text-rendering="geometricPrecision" stroke-miterlimit="1.45" shape-rendering="geometricPrecision" font-family="sans-serif" transform="matrix(1,0,0,1,-394,-362)" stroke-linecap="butt">
      <text x="611.3877" xml:space="preserve" y="750.1543" clip-path="url(#clipPath2)" stroke="none">Figure 8</text>
      <rect fill="none" x="409.5" width="453" height="30" y="731" clip-path="url(#clipPath2)"/>
      <path fill="none" d="M711 531 L711 519" clip-path="url(#clipPath2)"/>
      <path d="M711 511 L706 523 L711 520 L716 523 Z" clip-path="url(#clipPath2)" stroke="none"/>
    </g>
    <g text-rendering="geometricPrecision" stroke-miterlimit="1.45" shape-rendering="geometricPrecision" transform="matrix(1,0,0,1,-394,-362)" stroke-linecap="butt">
      <path fill="none" d="M611 561 L604.75 576 L609.5 573.15 L609.5 581 L612.5 581 L612.5 573.15 L617.25 576 L611 561 Z" clip-path="url(#clipPath2)"/>
    </g>
    <g text-rendering="geometricPrecision" stroke-miterlimit="1.45" shape-rendering="geometricPrecision" transform="matrix(1,0,0,1,-394,-362)" stroke-linecap="butt">
      <path fill="none" d="M661 561 L654.75 576 L659.5 573.15 L659.5 581 L662.5 581 L662.5 573.15 L667.25 576 L661 561 Z" clip-path="url(#clipPath2)"/>
    </g>
    <g text-rendering="geometricPrecision" stroke-miterlimit="1.45" shape-rendering="geometricPrecision" transform="matrix(1,0,0,1,-394,-362)" stroke-linecap="butt">
      <path fill="none" d="M561 611 L554.75 626 L559.5 623.15 L559.5 631 L562.5 631 L562.5 623.15 L567.25 626 L561 611 Z" clip-path="url(#clipPath2)"/>
    </g>
    <g text-rendering="geometricPrecision" stroke-miterlimit="1.45" shape-rendering="geometricPrecision" transform="matrix(1,0,0,1,-394,-362)" stroke-linecap="butt">
      <path fill="none" d="M611 631 L611 619" clip-path="url(#clipPath2)"/>
      <path d="M611 611 L606 623 L611 620 L616 623 Z" clip-path="url(#clipPath2)" stroke="none"/>
      <path fill="none" d="M561 681 L561 669" clip-path="url(#clipPath2)"/>
      <path d="M561 661 L556 673 L561 670 L566 673 Z" clip-path="url(#clipPath2)" stroke="none"/>
    </g>
  </g>
</svg>
