<?xml version="1.0" encoding="UTF-8"?><svg xmlns="http://www.w3.org/2000/svg" xmlns:xlink="http://www.w3.org/1999/xlink" fill-opacity="1" color-rendering="auto" color-interpolation="auto" text-rendering="auto" stroke="black" stroke-linecap="square" width="483" stroke-miterlimit="10" shape-rendering="auto" stroke-opacity="1" fill="black" stroke-dasharray="none" font-weight="normal" stroke-width="1" height="414" font-family="'Dialog'" font-style="normal" stroke-linejoin="miter" font-size="12px" stroke-dashoffset="0" image-rendering="auto">
  <!--Generated by ySVG 2.5-->
  <defs id="genericDefs"/>
  <g>
    <defs id="defs1">
      <clipPath clipPathUnits="userSpaceOnUse" id="clipPath1">
        <path d="M0 0 L483 0 L483 414 L0 414 L0 0 Z"/>
      </clipPath>
      <clipPath clipPathUnits="userSpaceOnUse" id="clipPath2">
        <path d="M594 562 L1077 562 L1077 976 L594 976 L594 562 Z"/>
      </clipPath>
    </defs>
    <g fill="white" text-rendering="geometricPrecision" shape-rendering="geometricPrecision" transform="translate(-594,-562)" stroke="white">
      <rect x="594" width="483" height="414" y="562" clip-path="url(#clipPath2)" stroke="none"/>
    </g>
    <g fill="white" text-rendering="geometricPrecision" shape-rendering="geometricPrecision" transform="matrix(1,0,0,1,-594,-562)" stroke="white">
      <rect x="745.5" width="30" height="30" y="681" clip-path="url(#clipPath2)" stroke="none"/>
    </g>
    <g text-rendering="geometricPrecision" stroke-miterlimit="1.45" shape-rendering="geometricPrecision" transform="matrix(1,0,0,1,-594,-562)" stroke-linecap="butt">
      <rect fill="none" x="745.5" width="30" height="30" y="681" clip-path="url(#clipPath2)"/>
    </g>
    <g fill="white" text-rendering="geometricPrecision" shape-rendering="geometricPrecision" transform="matrix(1,0,0,1,-594,-562)" stroke="white">
      <rect x="795.5" width="30" height="30" y="681" clip-path="url(#clipPath2)" stroke="none"/>
    </g>
    <g text-rendering="geometricPrecision" stroke-miterlimit="1.45" shape-rendering="geometricPrecision" transform="matrix(1,0,0,1,-594,-562)" stroke-linecap="butt">
      <rect fill="none" x="795.5" width="30" height="30" y="681" clip-path="url(#clipPath2)"/>
    </g>
    <g fill="white" text-rendering="geometricPrecision" shape-rendering="geometricPrecision" transform="matrix(1,0,0,1,-594,-562)" stroke="white">
      <rect x="845.5" width="30" height="30" y="681" clip-path="url(#clipPath2)" stroke="none"/>
    </g>
    <g text-rendering="geometricPrecision" stroke-miterlimit="1.45" shape-rendering="geometricPrecision" transform="matrix(1,0,0,1,-594,-562)" stroke-linecap="butt">
      <rect fill="none" x="845.5" width="30" height="30" y="681" clip-path="url(#clipPath2)"/>
    </g>
    <g fill="white" text-rendering="geometricPrecision" shape-rendering="geometricPrecision" transform="matrix(1,0,0,1,-594,-562)" stroke="white">
      <rect x="895.5" width="30" height="30" y="681" clip-path="url(#clipPath2)" stroke="none"/>
    </g>
    <g text-rendering="geometricPrecision" stroke-miterlimit="1.45" shape-rendering="geometricPrecision" transform="matrix(1,0,0,1,-594,-562)" stroke-linecap="butt">
      <rect fill="none" x="895.5" width="30" height="30" y="681" clip-path="url(#clipPath2)"/>
    </g>
    <g fill="white" text-rendering="geometricPrecision" shape-rendering="geometricPrecision" transform="matrix(1,0,0,1,-594,-562)" stroke="white">
      <rect x="745.5" width="30" height="30" y="731" clip-path="url(#clipPath2)" stroke="none"/>
    </g>
    <g text-rendering="geometricPrecision" stroke-miterlimit="1.45" shape-rendering="geometricPrecision" transform="matrix(1,0,0,1,-594,-562)" stroke-linecap="butt">
      <rect fill="none" x="745.5" width="30" height="30" y="731" clip-path="url(#clipPath2)"/>
    </g>
    <g fill="white" text-rendering="geometricPrecision" shape-rendering="geometricPrecision" transform="matrix(1,0,0,1,-594,-562)" stroke="white">
      <rect x="795.5" width="30" height="30" y="731" clip-path="url(#clipPath2)" stroke="none"/>
    </g>
    <g text-rendering="geometricPrecision" stroke-miterlimit="1.45" shape-rendering="geometricPrecision" transform="matrix(1,0,0,1,-594,-562)" stroke-linecap="butt">
      <rect fill="none" x="795.5" width="30" height="30" y="731" clip-path="url(#clipPath2)"/>
    </g>
    <g fill="white" text-rendering="geometricPrecision" shape-rendering="geometricPrecision" transform="matrix(1,0,0,1,-594,-562)" stroke="white">
      <rect x="845.5" width="30" height="30" y="731" clip-path="url(#clipPath2)" stroke="none"/>
    </g>
    <g text-rendering="geometricPrecision" stroke-miterlimit="1.45" shape-rendering="geometricPrecision" font-family="sans-serif" transform="matrix(1,0,0,1,-594,-562)" stroke-linecap="butt">
      <text x="850.6475" xml:space="preserve" y="750.1543" clip-path="url(#clipPath2)" stroke="none">det</text>
      <rect fill="none" x="845.5" width="30" height="30" y="731" clip-path="url(#clipPath2)"/>
    </g>
    <g fill="white" text-rendering="geometricPrecision" shape-rendering="geometricPrecision" transform="matrix(1,0,0,1,-594,-562)" stroke="white">
      <rect x="895.5" width="30" height="30" y="731" clip-path="url(#clipPath2)" stroke="none"/>
    </g>
    <g text-rendering="geometricPrecision" stroke-miterlimit="1.45" shape-rendering="geometricPrecision" font-family="sans-serif" transform="matrix(1,0,0,1,-594,-562)" stroke-linecap="butt">
      <text x="895.4209" xml:space="preserve" y="750.1543" clip-path="url(#clipPath2)" stroke="none">noun</text>
      <rect fill="none" x="895.5" width="30" height="30" y="731" clip-path="url(#clipPath2)"/>
    </g>
    <g fill="white" text-rendering="geometricPrecision" shape-rendering="geometricPrecision" transform="matrix(1,0,0,1,-594,-562)" stroke="white">
      <rect x="745.5" width="30" height="30" y="781" clip-path="url(#clipPath2)" stroke="none"/>
    </g>
    <g text-rendering="geometricPrecision" stroke-miterlimit="1.45" shape-rendering="geometricPrecision" transform="matrix(1,0,0,1,-594,-562)" stroke-linecap="butt">
      <rect fill="none" x="745.5" width="30" height="30" y="781" clip-path="url(#clipPath2)"/>
    </g>
    <g fill="white" text-rendering="geometricPrecision" shape-rendering="geometricPrecision" transform="matrix(1,0,0,1,-594,-562)" stroke="white">
      <rect x="795.5" width="30" height="30" y="781" clip-path="url(#clipPath2)" stroke="none"/>
    </g>
    <g text-rendering="geometricPrecision" stroke-miterlimit="1.45" shape-rendering="geometricPrecision" font-family="sans-serif" transform="matrix(1,0,0,1,-594,-562)" stroke-linecap="butt">
      <text x="803.1406" xml:space="preserve" y="800.1543" clip-path="url(#clipPath2)" stroke="none">vp</text>
      <rect fill="none" x="795.5" width="30" height="30" y="781" clip-path="url(#clipPath2)"/>
    </g>
    <g fill="white" text-rendering="geometricPrecision" shape-rendering="geometricPrecision" transform="matrix(1,0,0,1,-594,-562)" stroke="white">
      <rect x="845.5" width="30" height="30" y="781" clip-path="url(#clipPath2)" stroke="none"/>
    </g>
    <g text-rendering="geometricPrecision" stroke-miterlimit="1.45" shape-rendering="geometricPrecision" font-family="sans-serif" transform="matrix(1,0,0,1,-594,-562)" stroke-linecap="butt">
      <text x="850.6475" xml:space="preserve" y="800.1543" clip-path="url(#clipPath2)" stroke="none">det</text>
      <rect fill="none" x="845.5" width="30" height="30" y="781" clip-path="url(#clipPath2)"/>
    </g>
    <g fill="white" text-rendering="geometricPrecision" shape-rendering="geometricPrecision" transform="matrix(1,0,0,1,-594,-562)" stroke="white">
      <rect x="895.5" width="30" height="30" y="781" clip-path="url(#clipPath2)" stroke="none"/>
    </g>
    <g text-rendering="geometricPrecision" stroke-miterlimit="1.45" shape-rendering="geometricPrecision" transform="matrix(1,0,0,1,-594,-562)" stroke-linecap="butt">
      <rect fill="none" x="895.5" width="30" height="30" y="781" clip-path="url(#clipPath2)"/>
    </g>
    <g fill="white" text-rendering="geometricPrecision" shape-rendering="geometricPrecision" transform="matrix(1,0,0,1,-594,-562)" stroke="white">
      <rect x="745.5" width="30" height="30" y="831" clip-path="url(#clipPath2)" stroke="none"/>
    </g>
    <g text-rendering="geometricPrecision" stroke-miterlimit="1.45" shape-rendering="geometricPrecision" font-family="sans-serif" transform="matrix(1,0,0,1,-594,-562)" stroke-linecap="butt">
      <text x="752.8887" xml:space="preserve" y="850.1543" clip-path="url(#clipPath2)" stroke="none">np</text>
      <rect fill="none" x="745.5" width="30" height="30" y="831" clip-path="url(#clipPath2)"/>
    </g>
    <g fill="white" text-rendering="geometricPrecision" shape-rendering="geometricPrecision" transform="matrix(1,0,0,1,-594,-562)" stroke="white">
      <rect x="795.5" width="30" height="30" y="831" clip-path="url(#clipPath2)" stroke="none"/>
    </g>
    <g text-rendering="geometricPrecision" stroke-miterlimit="1.45" shape-rendering="geometricPrecision" font-family="sans-serif" transform="matrix(1,0,0,1,-594,-562)" stroke-linecap="butt">
      <text x="796.9824" xml:space="preserve" y="850.1543" clip-path="url(#clipPath2)" stroke="none">verb</text>
      <rect fill="none" x="795.5" width="30" height="30" y="831" clip-path="url(#clipPath2)"/>
    </g>
    <g fill="white" text-rendering="geometricPrecision" shape-rendering="geometricPrecision" transform="matrix(1,0,0,1,-594,-562)" stroke="white">
      <rect x="845.5" width="30" height="30" y="831" clip-path="url(#clipPath2)" stroke="none"/>
    </g>
    <g text-rendering="geometricPrecision" stroke-miterlimit="1.45" shape-rendering="geometricPrecision" transform="matrix(1,0,0,1,-594,-562)" stroke-linecap="butt">
      <rect fill="none" x="845.5" width="30" height="30" y="831" clip-path="url(#clipPath2)"/>
    </g>
    <g fill="white" text-rendering="geometricPrecision" shape-rendering="geometricPrecision" transform="matrix(1,0,0,1,-594,-562)" stroke="white">
      <rect x="895.5" width="30" height="30" y="831" clip-path="url(#clipPath2)" stroke="none"/>
    </g>
    <g text-rendering="geometricPrecision" stroke-miterlimit="1.45" shape-rendering="geometricPrecision" transform="matrix(1,0,0,1,-594,-562)" stroke-linecap="butt">
      <rect fill="none" x="895.5" width="30" height="30" y="831" clip-path="url(#clipPath2)"/>
    </g>
    <g fill="white" text-rendering="geometricPrecision" shape-rendering="geometricPrecision" transform="matrix(1,0,0,1,-594,-562)" stroke="white">
      <rect x="745.5" width="30" height="30" y="881" clip-path="url(#clipPath2)" stroke="none"/>
    </g>
    <g text-rendering="geometricPrecision" stroke-miterlimit="1.45" shape-rendering="geometricPrecision" font-family="sans-serif" transform="matrix(1,0,0,1,-594,-562)" stroke-linecap="butt">
      <text x="746.751" xml:space="preserve" y="900.1543" clip-path="url(#clipPath2)" stroke="none">pron</text>
      <rect fill="none" x="745.5" width="30" height="30" y="881" clip-path="url(#clipPath2)"/>
    </g>
    <g fill="white" text-rendering="geometricPrecision" shape-rendering="geometricPrecision" transform="matrix(1,0,0,1,-594,-562)" stroke="white">
      <rect x="795.5" width="30" height="30" y="881" clip-path="url(#clipPath2)" stroke="none"/>
    </g>
    <g text-rendering="geometricPrecision" stroke-miterlimit="1.45" shape-rendering="geometricPrecision" transform="matrix(1,0,0,1,-594,-562)" stroke-linecap="butt">
      <rect fill="none" x="795.5" width="30" height="30" y="881" clip-path="url(#clipPath2)"/>
    </g>
    <g fill="white" text-rendering="geometricPrecision" shape-rendering="geometricPrecision" transform="matrix(1,0,0,1,-594,-562)" stroke="white">
      <rect x="845.5" width="30" height="30" y="881" clip-path="url(#clipPath2)" stroke="none"/>
    </g>
    <g text-rendering="geometricPrecision" stroke-miterlimit="1.45" shape-rendering="geometricPrecision" transform="matrix(1,0,0,1,-594,-562)" stroke-linecap="butt">
      <rect fill="none" x="845.5" width="30" height="30" y="881" clip-path="url(#clipPath2)"/>
    </g>
    <g fill="white" text-rendering="geometricPrecision" shape-rendering="geometricPrecision" transform="matrix(1,0,0,1,-594,-562)" stroke="white">
      <rect x="895.5" width="30" height="30" y="881" clip-path="url(#clipPath2)" stroke="none"/>
    </g>
    <g text-rendering="geometricPrecision" stroke-miterlimit="1.45" shape-rendering="geometricPrecision" transform="matrix(1,0,0,1,-594,-562)" stroke-linecap="butt">
      <rect fill="none" x="895.5" width="30" height="30" y="881" clip-path="url(#clipPath2)"/>
    </g>
    <g fill="white" text-rendering="geometricPrecision" shape-rendering="geometricPrecision" transform="matrix(1,0,0,1,-594,-562)" stroke="white">
      <rect x="745.5" width="180" height="30" y="629" clip-path="url(#clipPath2)" stroke="none"/>
    </g>
    <g text-rendering="geometricPrecision" stroke-miterlimit="1.45" shape-rendering="geometricPrecision" font-family="sans-serif" transform="matrix(1,0,0,1,-594,-562)" stroke-linecap="butt">
      <text x="810.3896" xml:space="preserve" y="648.1543" clip-path="url(#clipPath2)" stroke="none">Step 1.2</text>
      <rect fill="none" x="745.5" width="180" height="30" y="629" clip-path="url(#clipPath2)"/>
    </g>
    <g fill="white" text-rendering="geometricPrecision" shape-rendering="geometricPrecision" transform="matrix(1,0,0,1,-594,-562)" stroke="white">
      <rect x="609" width="453" height="30" y="577" clip-path="url(#clipPath2)" stroke="none"/>
    </g>
    <g text-rendering="geometricPrecision" stroke-miterlimit="1.45" shape-rendering="geometricPrecision" font-family="sans-serif" transform="matrix(1,0,0,1,-594,-562)" stroke-linecap="butt">
      <text x="631.4326" xml:space="preserve" y="596.1543" clip-path="url(#clipPath2)" stroke="none">CKY of "I am a Function" - Second Permutation: Pron Verb Det Noun</text>
      <rect fill="none" x="609" width="453" height="30" y="577" clip-path="url(#clipPath2)"/>
    </g>
    <g fill="white" text-rendering="geometricPrecision" shape-rendering="geometricPrecision" transform="matrix(1,0,0,1,-594,-562)" stroke="white">
      <rect x="609" width="453" height="30" y="931" clip-path="url(#clipPath2)" stroke="none"/>
    </g>
    <g text-rendering="geometricPrecision" stroke-miterlimit="1.45" shape-rendering="geometricPrecision" font-family="sans-serif" transform="matrix(1,0,0,1,-594,-562)" stroke-linecap="butt">
      <text x="807.0703" xml:space="preserve" y="950.1543" clip-path="url(#clipPath2)" stroke="none">Figure 16</text>
      <rect fill="none" x="609" width="453" height="30" y="931" clip-path="url(#clipPath2)"/>
    </g>
    <g text-rendering="geometricPrecision" stroke-miterlimit="1.45" shape-rendering="geometricPrecision" transform="matrix(1,0,0,1,-594,-562)" stroke-linecap="butt">
      <path fill="none" d="M860.5 761 L854.25 776 L859 773.15 L859 781 L862 781 L862 773.15 L866.75 776 L860.5 761 Z" clip-path="url(#clipPath2)"/>
    </g>
    <g text-rendering="geometricPrecision" stroke-miterlimit="1.45" shape-rendering="geometricPrecision" transform="matrix(1,0,0,1,-594,-562)" stroke-linecap="butt">
      <path fill="none" d="M810.5 831 L810.5 819" clip-path="url(#clipPath2)"/>
      <path d="M810.5 811 L805.5 823 L810.5 820 L815.5 823 Z" clip-path="url(#clipPath2)" stroke="none"/>
      <path fill="none" d="M760.5 881 L760.5 869" clip-path="url(#clipPath2)"/>
      <path d="M760.5 861 L755.5 873 L760.5 870 L765.5 873 Z" clip-path="url(#clipPath2)" stroke="none"/>
    </g>
  </g>
</svg>
