<?xml version="1.0" encoding="UTF-8"?><svg xmlns="http://www.w3.org/2000/svg" xmlns:xlink="http://www.w3.org/1999/xlink" fill-opacity="1" color-rendering="auto" color-interpolation="auto" text-rendering="auto" stroke="black" stroke-linecap="square" width="551" stroke-miterlimit="10" shape-rendering="auto" stroke-opacity="1" fill="black" stroke-dasharray="none" font-weight="normal" stroke-width="1" height="824" font-family="'Dialog'" font-style="normal" stroke-linejoin="miter" font-size="12px" stroke-dashoffset="0" image-rendering="auto">
  <!--Generated by ySVG 2.5-->
  <defs id="genericDefs"/>
  <g>
    <defs id="defs1">
      <clipPath clipPathUnits="userSpaceOnUse" id="clipPath1">
        <path d="M0 0 L551 0 L551 824 L0 824 L0 0 Z"/>
      </clipPath>
      <clipPath clipPathUnits="userSpaceOnUse" id="clipPath2">
        <path d="M429 314 L980 314 L980 1138 L429 1138 L429 314 Z"/>
      </clipPath>
    </defs>
    <g fill="white" text-rendering="geometricPrecision" shape-rendering="geometricPrecision" transform="translate(-429,-314)" stroke="white">
      <rect x="429" width="551" height="824" y="314" clip-path="url(#clipPath2)" stroke="none"/>
    </g>
    <g font-size="15px" stroke-linecap="butt" transform="matrix(1,0,0,1,-429,-314)" text-rendering="geometricPrecision" font-family="sans-serif" shape-rendering="geometricPrecision" stroke-miterlimit="1.45">
      <text x="462.4626" xml:space="preserve" y="828.6854" clip-path="url(#clipPath2)" stroke="none">Stack</text>
      <rect x="445.3543" y="812.762" clip-path="url(#clipPath2)" fill="none" width="60.6367" stroke-dasharray="6,2" rx="4" ry="4" height="249.4609"/>
    </g>
    <g fill="white" text-rendering="geometricPrecision" shape-rendering="geometricPrecision" transform="matrix(1,0,0,1,-429,-314)" stroke="white">
      <rect x="460.6726" width="30" height="30" y="1017.223" clip-path="url(#clipPath2)" stroke="none"/>
    </g>
    <g text-rendering="geometricPrecision" stroke-miterlimit="1.45" shape-rendering="geometricPrecision" font-family="sans-serif" transform="matrix(1,0,0,1,-429,-314)" stroke-linecap="butt">
      <text x="473.3318" xml:space="preserve" y="1036.3773" clip-path="url(#clipPath2)" stroke="none">)</text>
      <rect fill="none" x="460.6726" width="30" height="30" y="1017.223" clip-path="url(#clipPath2)"/>
    </g>
    <g fill="white" text-rendering="geometricPrecision" shape-rendering="geometricPrecision" transform="matrix(1,0,0,1,-429,-314)" stroke="white">
      <rect x="460.6726" width="30" height="30" y="975.223" clip-path="url(#clipPath2)" stroke="none"/>
    </g>
    <g text-rendering="geometricPrecision" stroke-miterlimit="1.45" shape-rendering="geometricPrecision" font-family="sans-serif" transform="matrix(1,0,0,1,-429,-314)" stroke-linecap="butt">
      <text x="473.3318" xml:space="preserve" y="994.3773" clip-path="url(#clipPath2)" stroke="none">)</text>
      <rect fill="none" x="460.6726" width="30" height="30" y="975.223" clip-path="url(#clipPath2)"/>
    </g>
    <g fill="white" text-rendering="geometricPrecision" shape-rendering="geometricPrecision" transform="matrix(1,0,0,1,-429,-314)" stroke="white">
      <rect x="460.6726" width="30" height="30" y="933.223" clip-path="url(#clipPath2)" stroke="none"/>
    </g>
    <g text-rendering="geometricPrecision" stroke-miterlimit="1.45" shape-rendering="geometricPrecision" font-family="sans-serif" transform="matrix(1,0,0,1,-429,-314)" stroke-linecap="butt">
      <text x="473.3318" xml:space="preserve" y="952.3773" clip-path="url(#clipPath2)" stroke="none">)</text>
      <rect fill="none" x="460.6726" width="30" height="30" y="933.223" clip-path="url(#clipPath2)"/>
    </g>
    <g fill="white" text-rendering="geometricPrecision" shape-rendering="geometricPrecision" transform="matrix(1,0,0,1,-429,-314)" stroke="white">
      <rect x="460.6726" width="30" height="30" y="891.223" clip-path="url(#clipPath2)" stroke="none"/>
    </g>
    <g text-rendering="geometricPrecision" stroke-miterlimit="1.45" shape-rendering="geometricPrecision" font-family="sans-serif" transform="matrix(1,0,0,1,-429,-314)" stroke-linecap="butt">
      <text x="462.3542" xml:space="preserve" y="910.3773" clip-path="url(#clipPath2)" stroke="none">nom</text>
      <rect fill="none" x="460.6726" width="30" height="30" y="891.223" clip-path="url(#clipPath2)"/>
    </g>
    <g fill="white" text-rendering="geometricPrecision" shape-rendering="geometricPrecision" transform="matrix(1,0,0,1,-429,-314)" stroke="white">
      <rect x="460.6726" width="30" height="30" y="849.223" clip-path="url(#clipPath2)" stroke="none"/>
    </g>
    <g text-rendering="geometricPrecision" stroke-miterlimit="1.45" shape-rendering="geometricPrecision" font-family="sans-serif" transform="matrix(1,0,0,1,-429,-314)" stroke-linecap="butt">
      <text x="465.8201" xml:space="preserve" y="868.3773" clip-path="url(#clipPath2)" stroke="none">det</text>
      <rect fill="none" x="460.6726" width="30" height="30" y="849.223" clip-path="url(#clipPath2)"/>
      <text x="885.2726" xml:space="preserve" font-size="15px" y="828.6854" clip-path="url(#clipPath2)" stroke="none">Line</text>
      <rect x="558.5324" y="812.762" clip-path="url(#clipPath2)" fill="none" width="360" stroke-dasharray="6,2" rx="4" ry="4" height="81.4609"/>
    </g>
    <g fill="white" text-rendering="geometricPrecision" shape-rendering="geometricPrecision" transform="matrix(1,0,0,1,-429,-314)" stroke="white">
      <rect x="573.5324" width="30" height="30" y="849.223" clip-path="url(#clipPath2)" stroke="none"/>
    </g>
    <g text-rendering="geometricPrecision" stroke-miterlimit="1.45" shape-rendering="geometricPrecision" font-family="sans-serif" transform="matrix(1,0,0,1,-429,-314)" stroke-linecap="butt">
      <text x="585.4064" xml:space="preserve" y="868.3773" clip-path="url(#clipPath2)" stroke="none">s</text>
      <rect fill="none" x="573.5324" width="30" height="30" y="849.223" clip-path="url(#clipPath2)"/>
    </g>
    <g fill="white" text-rendering="geometricPrecision" shape-rendering="geometricPrecision" transform="matrix(1,0,0,1,-429,-314)" stroke="white">
      <rect x="603.5324" width="30" height="30" y="849.223" clip-path="url(#clipPath2)" stroke="none"/>
    </g>
    <g text-rendering="geometricPrecision" stroke-miterlimit="1.45" shape-rendering="geometricPrecision" font-family="sans-serif" transform="matrix(1,0,0,1,-429,-314)" stroke-linecap="butt">
      <text x="616.1916" xml:space="preserve" y="868.3773" clip-path="url(#clipPath2)" stroke="none">(</text>
      <rect fill="none" x="603.5324" width="30" height="30" y="849.223" clip-path="url(#clipPath2)"/>
    </g>
    <g fill="white" text-rendering="geometricPrecision" shape-rendering="geometricPrecision" transform="matrix(1,0,0,1,-429,-314)" stroke="white">
      <rect x="633.5324" width="30" height="30" y="849.223" clip-path="url(#clipPath2)" stroke="none"/>
    </g>
    <g text-rendering="geometricPrecision" stroke-miterlimit="1.45" shape-rendering="geometricPrecision" font-family="sans-serif" transform="matrix(1,0,0,1,-429,-314)" stroke-linecap="butt">
      <text x="640.9211" xml:space="preserve" y="868.3773" clip-path="url(#clipPath2)" stroke="none">np</text>
      <rect fill="none" x="633.5324" width="30" height="30" y="849.223" clip-path="url(#clipPath2)"/>
    </g>
    <g fill="white" text-rendering="geometricPrecision" shape-rendering="geometricPrecision" transform="matrix(1,0,0,1,-429,-314)" stroke="white">
      <rect x="663.5324" width="30" height="30" y="849.223" clip-path="url(#clipPath2)" stroke="none"/>
    </g>
    <g text-rendering="geometricPrecision" stroke-miterlimit="1.45" shape-rendering="geometricPrecision" font-family="sans-serif" transform="matrix(1,0,0,1,-429,-314)" stroke-linecap="butt">
      <text x="676.1916" xml:space="preserve" y="868.3773" clip-path="url(#clipPath2)" stroke="none">(</text>
      <rect fill="none" x="663.5324" width="30" height="30" y="849.223" clip-path="url(#clipPath2)"/>
    </g>
    <g fill="white" text-rendering="geometricPrecision" shape-rendering="geometricPrecision" transform="matrix(1,0,0,1,-429,-314)" stroke="white">
      <rect x="723.5324" width="30" height="30" y="849.223" clip-path="url(#clipPath2)" stroke="none"/>
    </g>
    <g text-rendering="geometricPrecision" stroke-miterlimit="1.45" shape-rendering="geometricPrecision" font-family="sans-serif" transform="matrix(1,0,0,1,-429,-314)" stroke-linecap="butt">
      <text x="736.1916" xml:space="preserve" y="868.3773" clip-path="url(#clipPath2)" stroke="none">)</text>
      <rect fill="none" x="723.5324" width="30" height="30" y="849.223" clip-path="url(#clipPath2)"/>
    </g>
    <g fill="white" text-rendering="geometricPrecision" shape-rendering="geometricPrecision" transform="matrix(1,0,0,1,-429,-314)" stroke="white">
      <rect x="693.5324" width="30" height="30" y="849.223" clip-path="url(#clipPath2)" stroke="none"/>
    </g>
    <g text-rendering="geometricPrecision" stroke-miterlimit="1.45" shape-rendering="geometricPrecision" font-family="sans-serif" transform="matrix(1,0,0,1,-429,-314)" stroke-linecap="butt">
      <text x="694.7834" xml:space="preserve" y="868.3773" clip-path="url(#clipPath2)" stroke="none">pron</text>
      <rect fill="none" x="693.5324" width="30" height="30" y="849.223" clip-path="url(#clipPath2)"/>
    </g>
    <g fill="white" text-rendering="geometricPrecision" shape-rendering="geometricPrecision" transform="matrix(1,0,0,1,-429,-314)" stroke="white">
      <rect x="753.5324" width="30" height="30" y="849.223" clip-path="url(#clipPath2)" stroke="none"/>
    </g>
    <g text-rendering="geometricPrecision" stroke-miterlimit="1.45" shape-rendering="geometricPrecision" font-family="sans-serif" transform="matrix(1,0,0,1,-429,-314)" stroke-linecap="butt">
      <text x="761.173" xml:space="preserve" y="868.3773" clip-path="url(#clipPath2)" stroke="none">vp</text>
      <rect fill="none" x="753.5324" width="30" height="30" y="849.223" clip-path="url(#clipPath2)"/>
    </g>
    <g fill="white" text-rendering="geometricPrecision" shape-rendering="geometricPrecision" transform="matrix(1,0,0,1,-429,-314)" stroke="white">
      <rect x="783.5324" width="30" height="30" y="849.223" clip-path="url(#clipPath2)" stroke="none"/>
    </g>
    <g text-rendering="geometricPrecision" stroke-miterlimit="1.45" shape-rendering="geometricPrecision" font-family="sans-serif" transform="matrix(1,0,0,1,-429,-314)" stroke-linecap="butt">
      <text x="796.1916" xml:space="preserve" y="868.3773" clip-path="url(#clipPath2)" stroke="none">(</text>
      <rect fill="none" x="783.5324" width="30" height="30" y="849.223" clip-path="url(#clipPath2)"/>
    </g>
    <g fill="white" text-rendering="geometricPrecision" shape-rendering="geometricPrecision" transform="matrix(1,0,0,1,-429,-314)" stroke="white">
      <rect x="813.5324" width="30" height="30" y="849.223" clip-path="url(#clipPath2)" stroke="none"/>
    </g>
    <g text-rendering="geometricPrecision" stroke-miterlimit="1.45" shape-rendering="geometricPrecision" font-family="sans-serif" transform="matrix(1,0,0,1,-429,-314)" stroke-linecap="butt">
      <text x="815.0148" xml:space="preserve" y="868.3773" clip-path="url(#clipPath2)" stroke="none">verb</text>
      <rect fill="none" x="813.5324" width="30" height="30" y="849.223" clip-path="url(#clipPath2)"/>
    </g>
    <g fill="white" text-rendering="geometricPrecision" shape-rendering="geometricPrecision" transform="matrix(1,0,0,1,-429,-314)" stroke="white">
      <rect x="843.5324" width="30" height="30" y="849.223" clip-path="url(#clipPath2)" stroke="none"/>
    </g>
    <g text-rendering="geometricPrecision" stroke-miterlimit="1.45" shape-rendering="geometricPrecision" font-family="sans-serif" transform="matrix(1,0,0,1,-429,-314)" stroke-linecap="butt">
      <text x="850.9211" xml:space="preserve" y="868.3773" clip-path="url(#clipPath2)" stroke="none">np</text>
      <rect fill="none" x="843.5324" width="30" height="30" y="849.223" clip-path="url(#clipPath2)"/>
    </g>
    <g fill="white" text-rendering="geometricPrecision" shape-rendering="geometricPrecision" transform="matrix(1,0,0,1,-429,-314)" stroke="white">
      <rect x="873.5324" width="30" height="30" y="849.223" clip-path="url(#clipPath2)" stroke="none"/>
    </g>
    <g text-rendering="geometricPrecision" stroke-miterlimit="1.45" shape-rendering="geometricPrecision" font-family="sans-serif" transform="matrix(1,0,0,1,-429,-314)" stroke-linecap="butt">
      <text x="886.1916" xml:space="preserve" y="868.3773" clip-path="url(#clipPath2)" stroke="none">(</text>
      <rect fill="none" x="873.5324" width="30" height="30" y="849.223" clip-path="url(#clipPath2)"/>
    </g>
    <g fill="white" text-rendering="geometricPrecision" shape-rendering="geometricPrecision" transform="matrix(1,0,0,1,-429,-314)" stroke="white">
      <rect x="445.3543" width="30" height="30" y="500.1544" clip-path="url(#clipPath2)" stroke="none"/>
    </g>
    <g text-rendering="geometricPrecision" stroke-miterlimit="1.45" shape-rendering="geometricPrecision" font-family="sans-serif" transform="matrix(1,0,0,1,-429,-314)" stroke-linecap="butt">
      <text x="457.2283" xml:space="preserve" y="519.3087" clip-path="url(#clipPath2)" stroke="none">s</text>
    </g>
    <g stroke-linecap="round" transform="matrix(1,0,0,1,-429,-314)" stroke-dashoffset="2" text-rendering="geometricPrecision" shape-rendering="geometricPrecision" stroke-dasharray="0,4" stroke-miterlimit="1.45">
      <rect fill="none" x="445.3543" width="30" height="30" y="500.1544" clip-path="url(#clipPath2)"/>
    </g>
    <g fill="white" text-rendering="geometricPrecision" shape-rendering="geometricPrecision" transform="matrix(1,0,0,1,-429,-314)" stroke="white">
      <rect x="495.3543" width="30" height="30" y="500.1544" clip-path="url(#clipPath2)" stroke="none"/>
    </g>
    <g text-rendering="geometricPrecision" stroke-miterlimit="1.45" shape-rendering="geometricPrecision" font-family="sans-serif" transform="matrix(1,0,0,1,-429,-314)" stroke-linecap="butt">
      <text x="502.9949" xml:space="preserve" y="519.3087" clip-path="url(#clipPath2)" stroke="none">vp</text>
    </g>
    <g stroke-linecap="round" transform="matrix(1,0,0,1,-429,-314)" stroke-dashoffset="2" text-rendering="geometricPrecision" shape-rendering="geometricPrecision" stroke-dasharray="0,4" stroke-miterlimit="1.45">
      <rect fill="none" x="495.3543" width="30" height="30" y="500.1544" clip-path="url(#clipPath2)"/>
    </g>
    <g fill="white" text-rendering="geometricPrecision" shape-rendering="geometricPrecision" transform="matrix(1,0,0,1,-429,-314)" stroke="white">
      <rect x="545.3543" width="30" height="30" y="500.1544" clip-path="url(#clipPath2)" stroke="none"/>
    </g>
    <g text-rendering="geometricPrecision" stroke-miterlimit="1.45" shape-rendering="geometricPrecision" font-family="sans-serif" transform="matrix(1,0,0,1,-429,-314)" stroke-linecap="butt">
      <text x="552.7429" xml:space="preserve" y="519.3087" clip-path="url(#clipPath2)" stroke="none">np</text>
    </g>
    <g stroke-linecap="round" transform="matrix(1,0,0,1,-429,-314)" stroke-dashoffset="2" text-rendering="geometricPrecision" shape-rendering="geometricPrecision" stroke-dasharray="0,4" stroke-miterlimit="1.45">
      <rect fill="none" x="545.3543" width="30" height="30" y="500.1544" clip-path="url(#clipPath2)"/>
    </g>
    <g fill="white" text-rendering="geometricPrecision" shape-rendering="geometricPrecision" transform="matrix(1,0,0,1,-429,-314)" stroke="white">
      <rect x="595.3543" width="30" height="30" y="500.1544" clip-path="url(#clipPath2)" stroke="none"/>
    </g>
    <g text-rendering="geometricPrecision" stroke-miterlimit="1.45" shape-rendering="geometricPrecision" font-family="sans-serif" transform="matrix(1,0,0,1,-429,-314)" stroke-linecap="butt">
      <text x="597.0359" xml:space="preserve" y="519.3087" clip-path="url(#clipPath2)" stroke="none">nom</text>
      <rect x="595.3543" y="500.1544" clip-path="url(#clipPath2)" fill="none" width="30" stroke-dasharray="12,4" height="30" stroke-width="2"/>
    </g>
    <g fill="white" text-rendering="geometricPrecision" shape-rendering="geometricPrecision" transform="matrix(1,0,0,1,-429,-314)" stroke="white">
      <rect x="445.3543" width="30" height="30" y="550.1544" clip-path="url(#clipPath2)" stroke="none"/>
    </g>
    <g text-rendering="geometricPrecision" stroke-miterlimit="1.45" shape-rendering="geometricPrecision" font-family="sans-serif" transform="matrix(1,0,0,1,-429,-314)" stroke-linecap="butt">
      <text x="452.7429" xml:space="preserve" y="569.3087" clip-path="url(#clipPath2)" stroke="none">np</text>
    </g>
    <g stroke-linecap="round" transform="matrix(1,0,0,1,-429,-314)" stroke-dashoffset="2" text-rendering="geometricPrecision" shape-rendering="geometricPrecision" stroke-dasharray="0,4" stroke-miterlimit="1.45">
      <rect fill="none" x="445.3543" width="30" height="30" y="550.1544" clip-path="url(#clipPath2)"/>
    </g>
    <g fill="white" text-rendering="geometricPrecision" shape-rendering="geometricPrecision" transform="matrix(1,0,0,1,-429,-314)" stroke="white">
      <rect x="495.3543" width="30" height="30" y="550.1544" clip-path="url(#clipPath2)" stroke="none"/>
    </g>
    <g text-rendering="geometricPrecision" stroke-miterlimit="1.45" shape-rendering="geometricPrecision" font-family="sans-serif" transform="matrix(1,0,0,1,-429,-314)" stroke-linecap="butt">
      <text x="502.9949" xml:space="preserve" y="569.3087" clip-path="url(#clipPath2)" stroke="none">vp</text>
      <rect fill="none" x="495.3543" width="30" height="30" y="550.1544" clip-path="url(#clipPath2)"/>
    </g>
    <g fill="white" text-rendering="geometricPrecision" shape-rendering="geometricPrecision" transform="matrix(1,0,0,1,-429,-314)" stroke="white">
      <rect x="545.3543" width="30" height="30" y="550.1544" clip-path="url(#clipPath2)" stroke="none"/>
    </g>
    <g text-rendering="geometricPrecision" stroke-miterlimit="1.45" shape-rendering="geometricPrecision" font-family="sans-serif" transform="matrix(1,0,0,1,-429,-314)" stroke-linecap="butt">
      <text x="550.5017" xml:space="preserve" y="569.3087" clip-path="url(#clipPath2)" stroke="none">det</text>
      <rect fill="none" x="545.3543" width="30" height="30" y="550.1544" clip-path="url(#clipPath2)"/>
    </g>
    <g fill="white" text-rendering="geometricPrecision" shape-rendering="geometricPrecision" transform="matrix(1,0,0,1,-429,-314)" stroke="white">
      <rect x="595.3543" width="30" height="30" y="550.1544" clip-path="url(#clipPath2)" stroke="none"/>
    </g>
    <g text-rendering="geometricPrecision" stroke-miterlimit="1.45" shape-rendering="geometricPrecision" font-family="sans-serif" transform="matrix(1,0,0,1,-429,-314)" stroke-linecap="butt">
      <text x="595.2751" xml:space="preserve" y="569.3087" clip-path="url(#clipPath2)" stroke="none">noun</text>
      <rect fill="none" x="595.3543" width="30" height="30" y="550.1544" clip-path="url(#clipPath2)"/>
    </g>
    <g fill="white" text-rendering="geometricPrecision" shape-rendering="geometricPrecision" transform="matrix(1,0,0,1,-429,-314)" stroke="white">
      <rect x="445.3543" width="30" height="30" y="600.1544" clip-path="url(#clipPath2)" stroke="none"/>
    </g>
    <g text-rendering="geometricPrecision" stroke-miterlimit="1.45" shape-rendering="geometricPrecision" font-family="sans-serif" transform="matrix(1,0,0,1,-429,-314)" stroke-linecap="butt">
      <text x="452.7429" xml:space="preserve" y="619.3087" clip-path="url(#clipPath2)" stroke="none">np</text>
      <rect fill="none" x="445.3543" width="30" height="30" y="600.1544" clip-path="url(#clipPath2)"/>
    </g>
    <g fill="white" text-rendering="geometricPrecision" shape-rendering="geometricPrecision" transform="matrix(1,0,0,1,-429,-314)" stroke="white">
      <rect x="495.3543" width="30" height="30" y="600.1544" clip-path="url(#clipPath2)" stroke="none"/>
    </g>
    <g text-rendering="geometricPrecision" stroke-miterlimit="1.45" shape-rendering="geometricPrecision" font-family="sans-serif" transform="matrix(1,0,0,1,-429,-314)" stroke-linecap="butt">
      <text x="502.9949" xml:space="preserve" y="619.3087" clip-path="url(#clipPath2)" stroke="none">vp</text>
      <rect fill="none" x="495.3543" width="30" height="30" y="600.1544" clip-path="url(#clipPath2)"/>
    </g>
    <g fill="white" text-rendering="geometricPrecision" shape-rendering="geometricPrecision" transform="matrix(1,0,0,1,-429,-314)" stroke="white">
      <rect x="545.3543" width="30" height="30" y="600.1544" clip-path="url(#clipPath2)" stroke="none"/>
    </g>
    <g text-rendering="geometricPrecision" stroke-miterlimit="1.45" shape-rendering="geometricPrecision" font-family="sans-serif" transform="matrix(1,0,0,1,-429,-314)" stroke-linecap="butt">
      <text x="550.5017" xml:space="preserve" y="619.3087" clip-path="url(#clipPath2)" stroke="none">det</text>
      <rect x="545.3543" y="600.1544" clip-path="url(#clipPath2)" fill="none" width="30" stroke-dasharray="12,4" height="30" stroke-width="2"/>
    </g>
    <g fill="white" text-rendering="geometricPrecision" shape-rendering="geometricPrecision" transform="matrix(1,0,0,1,-429,-314)" stroke="white">
      <rect x="595.3543" width="30" height="30" y="600.1544" clip-path="url(#clipPath2)" stroke="none"/>
    </g>
    <g text-rendering="geometricPrecision" stroke-miterlimit="1.45" shape-rendering="geometricPrecision" transform="matrix(1,0,0,1,-429,-314)" stroke-linecap="butt">
      <rect fill="none" x="595.3543" width="30" height="30" y="600.1544" clip-path="url(#clipPath2)"/>
    </g>
    <g fill="white" text-rendering="geometricPrecision" shape-rendering="geometricPrecision" transform="matrix(1,0,0,1,-429,-314)" stroke="white">
      <rect x="445.3543" width="30" height="30" y="650.1544" clip-path="url(#clipPath2)" stroke="none"/>
    </g>
    <g text-rendering="geometricPrecision" stroke-miterlimit="1.45" shape-rendering="geometricPrecision" font-family="sans-serif" transform="matrix(1,0,0,1,-429,-314)" stroke-linecap="butt">
      <text x="452.7429" xml:space="preserve" y="669.3087" clip-path="url(#clipPath2)" stroke="none">np</text>
      <rect fill="none" x="445.3543" width="30" height="30" y="650.1544" clip-path="url(#clipPath2)"/>
    </g>
    <g fill="white" text-rendering="geometricPrecision" shape-rendering="geometricPrecision" transform="matrix(1,0,0,1,-429,-314)" stroke="white">
      <rect x="495.3543" width="30" height="30" y="650.1544" clip-path="url(#clipPath2)" stroke="none"/>
    </g>
    <g text-rendering="geometricPrecision" stroke-miterlimit="1.45" shape-rendering="geometricPrecision" font-family="sans-serif" transform="matrix(1,0,0,1,-429,-314)" stroke-linecap="butt">
      <text x="496.8367" xml:space="preserve" y="669.3087" clip-path="url(#clipPath2)" stroke="none">verb</text>
    </g>
    <g stroke-linecap="round" transform="matrix(1,0,0,1,-429,-314)" stroke-dashoffset="2" text-rendering="geometricPrecision" shape-rendering="geometricPrecision" stroke-dasharray="0,4" stroke-miterlimit="1.45">
      <rect fill="none" x="495.3543" width="30" height="30" y="650.1544" clip-path="url(#clipPath2)"/>
    </g>
    <g fill="white" text-rendering="geometricPrecision" shape-rendering="geometricPrecision" transform="matrix(1,0,0,1,-429,-314)" stroke="white">
      <rect x="545.3543" width="30" height="30" y="650.1544" clip-path="url(#clipPath2)" stroke="none"/>
    </g>
    <g text-rendering="geometricPrecision" stroke-miterlimit="1.45" shape-rendering="geometricPrecision" transform="matrix(1,0,0,1,-429,-314)" stroke-linecap="butt">
      <rect fill="none" x="545.3543" width="30" height="30" y="650.1544" clip-path="url(#clipPath2)"/>
    </g>
    <g fill="white" text-rendering="geometricPrecision" shape-rendering="geometricPrecision" transform="matrix(1,0,0,1,-429,-314)" stroke="white">
      <rect x="595.3543" width="30" height="30" y="650.1544" clip-path="url(#clipPath2)" stroke="none"/>
    </g>
    <g text-rendering="geometricPrecision" stroke-miterlimit="1.45" shape-rendering="geometricPrecision" transform="matrix(1,0,0,1,-429,-314)" stroke-linecap="butt">
      <rect fill="none" x="595.3543" width="30" height="30" y="650.1544" clip-path="url(#clipPath2)"/>
    </g>
    <g fill="white" text-rendering="geometricPrecision" shape-rendering="geometricPrecision" transform="matrix(1,0,0,1,-429,-314)" stroke="white">
      <rect x="445.3543" width="30" height="30" y="700.1544" clip-path="url(#clipPath2)" stroke="none"/>
    </g>
    <g text-rendering="geometricPrecision" stroke-miterlimit="1.45" shape-rendering="geometricPrecision" font-family="sans-serif" transform="matrix(1,0,0,1,-429,-314)" stroke-linecap="butt">
      <text x="446.6052" xml:space="preserve" y="719.3087" clip-path="url(#clipPath2)" stroke="none">pron</text>
    </g>
    <g stroke-linecap="round" transform="matrix(1,0,0,1,-429,-314)" stroke-dashoffset="2" text-rendering="geometricPrecision" shape-rendering="geometricPrecision" stroke-dasharray="0,4" stroke-miterlimit="1.45">
      <rect fill="none" x="445.3543" width="30" height="30" y="700.1544" clip-path="url(#clipPath2)"/>
    </g>
    <g fill="white" text-rendering="geometricPrecision" shape-rendering="geometricPrecision" transform="matrix(1,0,0,1,-429,-314)" stroke="white">
      <rect x="495.3543" width="30" height="30" y="700.1544" clip-path="url(#clipPath2)" stroke="none"/>
    </g>
    <g text-rendering="geometricPrecision" stroke-miterlimit="1.45" shape-rendering="geometricPrecision" transform="matrix(1,0,0,1,-429,-314)" stroke-linecap="butt">
      <rect fill="none" x="495.3543" width="30" height="30" y="700.1544" clip-path="url(#clipPath2)"/>
    </g>
    <g fill="white" text-rendering="geometricPrecision" shape-rendering="geometricPrecision" transform="matrix(1,0,0,1,-429,-314)" stroke="white">
      <rect x="545.3543" width="30" height="30" y="700.1544" clip-path="url(#clipPath2)" stroke="none"/>
    </g>
    <g text-rendering="geometricPrecision" stroke-miterlimit="1.45" shape-rendering="geometricPrecision" transform="matrix(1,0,0,1,-429,-314)" stroke-linecap="butt">
      <rect fill="none" x="545.3543" width="30" height="30" y="700.1544" clip-path="url(#clipPath2)"/>
    </g>
    <g fill="white" text-rendering="geometricPrecision" shape-rendering="geometricPrecision" transform="matrix(1,0,0,1,-429,-314)" stroke="white">
      <rect x="595.3543" width="30" height="30" y="700.1544" clip-path="url(#clipPath2)" stroke="none"/>
    </g>
    <g text-rendering="geometricPrecision" stroke-miterlimit="1.45" shape-rendering="geometricPrecision" transform="matrix(1,0,0,1,-429,-314)" stroke-linecap="butt">
      <rect fill="none" x="595.3543" width="30" height="30" y="700.1544" clip-path="url(#clipPath2)"/>
    </g>
    <g fill="white" text-rendering="geometricPrecision" shape-rendering="geometricPrecision" transform="matrix(1,0,0,1,-429,-314)" stroke="white">
      <rect x="445.3543" width="180" height="30" y="448.1544" clip-path="url(#clipPath2)" stroke="none"/>
    </g>
    <g text-rendering="geometricPrecision" stroke-miterlimit="1.45" shape-rendering="geometricPrecision" font-family="sans-serif" transform="matrix(1,0,0,1,-429,-314)" stroke-linecap="butt">
      <text x="502.7673" xml:space="preserve" y="467.3087" clip-path="url(#clipPath2)" stroke="none">CKY Matrix</text>
      <rect fill="none" x="445.3543" width="180" height="30" y="448.1544" clip-path="url(#clipPath2)"/>
    </g>
    <g fill="white" text-rendering="geometricPrecision" shape-rendering="geometricPrecision" transform="matrix(1,0,0,1,-429,-314)" stroke="white">
      <rect x="726.7084" width="30" height="30" y="500.1544" clip-path="url(#clipPath2)" stroke="none"/>
    </g>
    <g text-rendering="geometricPrecision" stroke-miterlimit="1.45" shape-rendering="geometricPrecision" font-family="sans-serif" transform="matrix(1,0,0,1,-429,-314)" stroke-linecap="butt">
      <text x="738.5825" xml:space="preserve" y="519.3087" clip-path="url(#clipPath2)" stroke="none">s</text>
      <rect fill="none" x="726.7084" width="30" height="30" y="500.1544" clip-path="url(#clipPath2)"/>
    </g>
    <g fill="white" text-rendering="geometricPrecision" shape-rendering="geometricPrecision" transform="matrix(1,0,0,1,-429,-314)" stroke="white">
      <rect x="726.7084" width="30" height="30" y="567.509" clip-path="url(#clipPath2)" stroke="none"/>
    </g>
    <g text-rendering="geometricPrecision" stroke-miterlimit="1.45" shape-rendering="geometricPrecision" font-family="sans-serif" transform="matrix(1,0,0,1,-429,-314)" stroke-linecap="butt">
      <text x="734.0971" xml:space="preserve" y="586.6633" clip-path="url(#clipPath2)" stroke="none">np</text>
      <rect fill="none" x="726.7084" width="30" height="30" y="567.509" clip-path="url(#clipPath2)"/>
    </g>
    <g fill="white" text-rendering="geometricPrecision" shape-rendering="geometricPrecision" transform="matrix(1,0,0,1,-429,-314)" stroke="white">
      <rect x="726.7084" width="30" height="30" y="634.8636" clip-path="url(#clipPath2)" stroke="none"/>
    </g>
    <g text-rendering="geometricPrecision" stroke-miterlimit="1.45" shape-rendering="geometricPrecision" font-family="sans-serif" transform="matrix(1,0,0,1,-429,-314)" stroke-linecap="butt">
      <text x="727.9594" xml:space="preserve" y="654.0179" clip-path="url(#clipPath2)" stroke="none">pron</text>
      <rect stroke-linecap="round" x="726.7084" y="634.8636" clip-path="url(#clipPath2)" fill="none" width="30" stroke-dasharray="4,3,0,3" height="30"/>
    </g>
    <g fill="white" text-rendering="geometricPrecision" shape-rendering="geometricPrecision" transform="matrix(1,0,0,1,-429,-314)" stroke="white">
      <rect x="800.1204" width="30" height="30" y="567.509" clip-path="url(#clipPath2)" stroke="none"/>
    </g>
    <g text-rendering="geometricPrecision" stroke-miterlimit="1.45" shape-rendering="geometricPrecision" font-family="sans-serif" transform="matrix(1,0,0,1,-429,-314)" stroke-linecap="butt">
      <text x="807.761" xml:space="preserve" y="586.6633" clip-path="url(#clipPath2)" stroke="none">vp</text>
      <rect fill="none" x="800.1204" width="30" height="30" y="567.509" clip-path="url(#clipPath2)"/>
    </g>
    <g fill="white" text-rendering="geometricPrecision" shape-rendering="geometricPrecision" transform="matrix(1,0,0,1,-429,-314)" stroke="white">
      <rect x="800.1204" width="30" height="30" y="634.8636" clip-path="url(#clipPath2)" stroke="none"/>
    </g>
    <g text-rendering="geometricPrecision" stroke-miterlimit="1.45" shape-rendering="geometricPrecision" font-family="sans-serif" transform="matrix(1,0,0,1,-429,-314)" stroke-linecap="butt">
      <text x="801.6028" xml:space="preserve" y="654.0179" clip-path="url(#clipPath2)" stroke="none">verb</text>
      <rect stroke-linecap="round" x="800.1204" y="634.8636" clip-path="url(#clipPath2)" fill="none" width="30" stroke-dasharray="4,3,0,3" height="30"/>
    </g>
    <g fill="white" text-rendering="geometricPrecision" shape-rendering="geometricPrecision" transform="matrix(1,0,0,1,-429,-314)" stroke="white">
      <rect x="873.5324" width="30" height="30" y="634.8636" clip-path="url(#clipPath2)" stroke="none"/>
    </g>
    <g text-rendering="geometricPrecision" stroke-miterlimit="1.45" shape-rendering="geometricPrecision" font-family="sans-serif" transform="matrix(1,0,0,1,-429,-314)" stroke-linecap="butt">
      <text x="880.9211" xml:space="preserve" y="654.0179" clip-path="url(#clipPath2)" stroke="none">np</text>
      <rect fill="none" x="873.5324" width="30" height="30" y="634.8636" clip-path="url(#clipPath2)"/>
    </g>
    <g fill="white" text-rendering="geometricPrecision" shape-rendering="geometricPrecision" transform="matrix(1,0,0,1,-429,-314)" stroke="white">
      <rect x="445.3543" width="518.9583" height="30" y="395.9586" clip-path="url(#clipPath2)" stroke="none"/>
    </g>
    <g text-rendering="geometricPrecision" stroke-miterlimit="1.45" shape-rendering="geometricPrecision" font-family="sans-serif" transform="matrix(1,0,0,1,-429,-314)" stroke-linecap="butt">
      <text x="685.4477" xml:space="preserve" y="415.1129" clip-path="url(#clipPath2)" stroke="none">Step 6</text>
      <rect fill="none" x="445.3543" width="518.9583" height="30" y="395.9586" clip-path="url(#clipPath2)"/>
    </g>
    <g fill="white" text-rendering="geometricPrecision" shape-rendering="geometricPrecision" transform="matrix(1,0,0,1,-429,-314)" stroke="white">
      <rect x="445.3543" width="518.9583" height="44.6667" y="329.0963" clip-path="url(#clipPath2)" stroke="none"/>
    </g>
    <g font-size="11px" stroke-linecap="butt" transform="matrix(1,0,0,1,-429,-314)" text-rendering="geometricPrecision" font-family="sans-serif" shape-rendering="geometricPrecision" stroke-miterlimit="1.45">
      <text x="622.2878" xml:space="preserve" y="342.433" clip-path="url(#clipPath2)" stroke="none">Tree_DFS of "I am a Function"</text>
      <text x="655.3898" xml:space="preserve" y="355.2377" clip-path="url(#clipPath2)" stroke="none">First Permutation:</text>
      <text x="650.0349" xml:space="preserve" y="368.0424" clip-path="url(#clipPath2)" stroke="none">Pron Verb Det Noun</text>
      <rect fill="none" x="445.3543" width="518.9583" height="44.6667" y="329.0963" clip-path="url(#clipPath2)"/>
    </g>
    <g fill="white" text-rendering="geometricPrecision" shape-rendering="geometricPrecision" transform="matrix(1,0,0,1,-429,-314)" stroke="white">
      <rect x="445.3543" width="237.6042" height="30" y="760.1544" clip-path="url(#clipPath2)" stroke="none"/>
    </g>
    <g text-rendering="geometricPrecision" stroke-miterlimit="1.45" shape-rendering="geometricPrecision" font-family="sans-serif" transform="matrix(1,0,0,1,-429,-314)" stroke-linecap="butt">
      <text x="505.5216" xml:space="preserve" y="779.3087" clip-path="url(#clipPath2)" stroke="none">Stack &amp; Line Status</text>
      <rect fill="none" x="445.3543" width="237.6042" height="30" y="760.1544" clip-path="url(#clipPath2)"/>
    </g>
    <g fill="white" text-rendering="geometricPrecision" shape-rendering="geometricPrecision" transform="matrix(1,0,0,1,-429,-314)" stroke="white">
      <rect x="726.7084" width="237.6042" height="30" y="448.1544" clip-path="url(#clipPath2)" stroke="none"/>
    </g>
    <g text-rendering="geometricPrecision" stroke-miterlimit="1.45" shape-rendering="geometricPrecision" font-family="sans-serif" transform="matrix(1,0,0,1,-429,-314)" stroke-linecap="butt">
      <text x="831.9958" xml:space="preserve" y="467.3087" clip-path="url(#clipPath2)" stroke="none">Tree</text>
      <rect fill="none" x="726.7084" width="237.6042" height="30" y="448.1544" clip-path="url(#clipPath2)"/>
    </g>
    <g fill="white" text-rendering="geometricPrecision" shape-rendering="geometricPrecision" transform="matrix(1,0,0,1,-429,-314)" stroke="white">
      <rect x="445.3543" width="518.9583" height="30" y="1092.223" clip-path="url(#clipPath2)" stroke="none"/>
    </g>
    <g text-rendering="geometricPrecision" stroke-miterlimit="1.45" shape-rendering="geometricPrecision" font-family="sans-serif" transform="matrix(1,0,0,1,-429,-314)" stroke-linecap="butt">
      <text x="676.4037" xml:space="preserve" y="1111.3773" clip-path="url(#clipPath2)" stroke="none">Figure 36</text>
      <rect fill="none" x="445.3543" width="518.9583" height="30" y="1092.223" clip-path="url(#clipPath2)"/>
      <path fill="none" d="M495.3542 515.1544 L483.3542 515.1544" clip-path="url(#clipPath2)"/>
      <path d="M475.3542 515.1544 L487.3542 520.1544 L484.3542 515.1544 L487.3542 510.1544 Z" clip-path="url(#clipPath2)" stroke="none"/>
      <path fill="none" d="M545.3542 515.1544 L533.3542 515.1544" clip-path="url(#clipPath2)"/>
      <path d="M525.3542 515.1544 L537.3542 520.1544 L534.3542 515.1544 L537.3542 510.1544 Z" clip-path="url(#clipPath2)" stroke="none"/>
      <path fill="none" d="M595.3542 515.1544 L583.3542 515.1544" clip-path="url(#clipPath2)"/>
      <path d="M575.3542 515.1544 L587.3542 520.1544 L584.3542 515.1544 L587.3542 510.1544 Z" clip-path="url(#clipPath2)" stroke="none"/>
      <path fill="none" d="M460.3542 550.1544 L460.3542 538.1544" clip-path="url(#clipPath2)"/>
      <path d="M460.3542 530.1544 L455.3542 542.1544 L460.3542 539.1544 L465.3542 542.1544 Z" clip-path="url(#clipPath2)" stroke="none"/>
    </g>
    <g text-rendering="geometricPrecision" stroke-miterlimit="1.45" shape-rendering="geometricPrecision" transform="matrix(1,0,0,1,-429,-314)" stroke-linecap="butt">
      <path fill="none" d="M510.3542 530.1544 L504.1042 545.1544 L508.8542 542.3044 L508.8542 542.3044 L508.8542 550.1544 L511.8542 550.1544 L511.8542 542.3044 L511.8542 542.3044 L516.6042 545.1544 L510.3542 530.1544 Z" clip-path="url(#clipPath2)"/>
    </g>
    <g text-rendering="geometricPrecision" stroke-miterlimit="1.45" shape-rendering="geometricPrecision" transform="matrix(1,0,0,1,-429,-314)" stroke-linecap="butt">
      <path fill="none" d="M560.3542 550.1544 L560.3542 538.1544" clip-path="url(#clipPath2)"/>
      <path d="M560.3542 530.1544 L555.3542 542.1544 L560.3542 539.1544 L565.3542 542.1544 Z" clip-path="url(#clipPath2)" stroke="none"/>
      <path fill="none" d="M610.3542 550.1544 L610.3542 538.1544" clip-path="url(#clipPath2)"/>
      <path d="M610.3542 530.1544 L605.3542 542.1544 L610.3542 539.1544 L615.3542 542.1544 Z" clip-path="url(#clipPath2)" stroke="none"/>
    </g>
    <g text-rendering="geometricPrecision" stroke-miterlimit="1.45" shape-rendering="geometricPrecision" transform="matrix(1,0,0,1,-429,-314)" stroke-linecap="butt">
      <path fill="none" d="M460.3542 580.1544 L454.1042 595.1544 L458.8542 592.3044 L458.8542 592.3044 L458.8542 600.1544 L461.8542 600.1544 L461.8542 592.3044 L461.8542 592.3044 L466.6042 595.1544 L460.3542 580.1544 Z" clip-path="url(#clipPath2)"/>
    </g>
    <g text-rendering="geometricPrecision" stroke-miterlimit="1.45" shape-rendering="geometricPrecision" transform="matrix(1,0,0,1,-429,-314)" stroke-linecap="butt">
      <path fill="none" d="M510.3542 580.1544 L504.1042 595.1544 L508.8542 592.3044 L508.8542 592.3044 L508.8542 600.1544 L511.8542 600.1544 L511.8542 592.3044 L511.8542 592.3044 L516.6042 595.1544 L510.3542 580.1544 Z" clip-path="url(#clipPath2)"/>
    </g>
    <g text-rendering="geometricPrecision" stroke-miterlimit="1.45" shape-rendering="geometricPrecision" transform="matrix(1,0,0,1,-429,-314)" stroke-linecap="butt">
      <path fill="none" d="M560.3542 580.1544 L554.1042 595.1544 L558.8542 592.3044 L558.8542 600.1544 L561.8542 600.1544 L561.8542 592.3044 L566.6042 595.1544 L560.3542 580.1544 Z" clip-path="url(#clipPath2)"/>
    </g>
    <g text-rendering="geometricPrecision" stroke-miterlimit="1.45" shape-rendering="geometricPrecision" transform="matrix(1,0,0,1,-429,-314)" stroke-linecap="butt">
      <path fill="none" d="M460.3542 630.1544 L454.1042 645.1544 L458.8542 642.3044 L458.8542 642.3044 L458.8542 650.1544 L461.8542 650.1544 L461.8542 642.3044 L461.8542 642.3044 L466.6042 645.1544 L460.3542 630.1544 Z" clip-path="url(#clipPath2)"/>
    </g>
    <g text-rendering="geometricPrecision" stroke-miterlimit="1.45" shape-rendering="geometricPrecision" transform="matrix(1,0,0,1,-429,-314)" stroke-linecap="butt">
      <path fill="none" d="M510.3542 650.1544 L510.3542 638.1544" clip-path="url(#clipPath2)"/>
      <path d="M510.3542 630.1544 L505.3542 642.1544 L510.3542 639.1544 L515.3542 642.1544 Z" clip-path="url(#clipPath2)" stroke="none"/>
      <path fill="none" d="M460.3542 700.1544 L460.3542 688.1544" clip-path="url(#clipPath2)"/>
      <path d="M460.3542 680.1544 L455.3542 692.1544 L460.3542 689.1544 L465.3542 692.1544 Z" clip-path="url(#clipPath2)" stroke="none"/>
      <path fill="none" d="M741.7084 530.1544 L741.7084 559.509" clip-path="url(#clipPath2)"/>
      <path d="M741.7084 567.509 L746.7084 555.509 L741.7084 558.509 L736.7084 555.509 Z" clip-path="url(#clipPath2)" stroke="none"/>
      <path fill="none" d="M741.7084 597.509 L741.7084 626.8636" clip-path="url(#clipPath2)"/>
      <path d="M741.7084 634.8636 L746.7084 622.8636 L741.7084 625.8636 L736.7084 622.8636 Z" clip-path="url(#clipPath2)" stroke="none"/>
      <path fill="none" d="M756.7084 528.9167 L794.2256 563.3383" clip-path="url(#clipPath2)"/>
      <path d="M800.1204 568.7466 L794.6584 556.9498 L793.4887 562.6622 L787.8979 564.3183 Z" clip-path="url(#clipPath2)" stroke="none"/>
      <path fill="none" d="M815.1204 597.509 L815.1204 626.8636" clip-path="url(#clipPath2)"/>
      <path d="M815.1204 634.8636 L820.1204 622.8636 L815.1204 625.8636 L810.1204 622.8636 Z" clip-path="url(#clipPath2)" stroke="none"/>
      <path fill="none" d="M830.1204 596.2713 L867.6376 630.6929" clip-path="url(#clipPath2)"/>
      <path d="M873.5324 636.1013 L868.0704 624.3044 L866.9008 630.0168 L861.3099 631.6729 Z" clip-path="url(#clipPath2)" stroke="none"/>
    </g>
  </g>
</svg>
