<?xml version="1.0" encoding="UTF-8"?><svg xmlns="http://www.w3.org/2000/svg" xmlns:xlink="http://www.w3.org/1999/xlink" fill-opacity="1" color-rendering="auto" color-interpolation="auto" text-rendering="auto" stroke="black" stroke-linecap="square" width="484" stroke-miterlimit="10" shape-rendering="auto" stroke-opacity="1" fill="black" stroke-dasharray="none" font-weight="normal" stroke-width="1" height="415" font-family="'Dialog'" font-style="normal" stroke-linejoin="miter" font-size="12px" stroke-dashoffset="0" image-rendering="auto">
  <!--Generated by ySVG 2.5-->
  <defs id="genericDefs"/>
  <g>
    <defs id="defs1">
      <clipPath clipPathUnits="userSpaceOnUse" id="clipPath1">
        <path d="M0 0 L484 0 L484 415 L0 415 L0 0 Z"/>
      </clipPath>
      <clipPath clipPathUnits="userSpaceOnUse" id="clipPath2">
        <path d="M419 387 L903 387 L903 802 L419 802 L419 387 Z"/>
      </clipPath>
    </defs>
    <g fill="white" text-rendering="geometricPrecision" shape-rendering="geometricPrecision" transform="translate(-419,-387)" stroke="white">
      <rect x="419" width="484" height="415" y="387" clip-path="url(#clipPath2)" stroke="none"/>
    </g>
    <g fill="white" text-rendering="geometricPrecision" shape-rendering="geometricPrecision" transform="matrix(1,0,0,1,-419,-387)" stroke="white">
      <rect x="571" width="30" height="30" y="506" clip-path="url(#clipPath2)" stroke="none"/>
    </g>
    <g text-rendering="geometricPrecision" stroke-miterlimit="1.45" shape-rendering="geometricPrecision" transform="matrix(1,0,0,1,-419,-387)" stroke-linecap="butt">
      <rect fill="none" x="571" width="30" height="30" y="506" clip-path="url(#clipPath2)"/>
    </g>
    <g fill="white" text-rendering="geometricPrecision" shape-rendering="geometricPrecision" transform="matrix(1,0,0,1,-419,-387)" stroke="white">
      <rect x="621" width="30" height="30" y="506" clip-path="url(#clipPath2)" stroke="none"/>
    </g>
    <g text-rendering="geometricPrecision" stroke-miterlimit="1.45" shape-rendering="geometricPrecision" transform="matrix(1,0,0,1,-419,-387)" stroke-linecap="butt">
      <rect fill="none" x="621" width="30" height="30" y="506" clip-path="url(#clipPath2)"/>
    </g>
    <g fill="white" text-rendering="geometricPrecision" shape-rendering="geometricPrecision" transform="matrix(1,0,0,1,-419,-387)" stroke="white">
      <rect x="671" width="30" height="30" y="506" clip-path="url(#clipPath2)" stroke="none"/>
    </g>
    <g text-rendering="geometricPrecision" stroke-miterlimit="1.45" shape-rendering="geometricPrecision" font-family="sans-serif" transform="matrix(1,0,0,1,-419,-387)" stroke-linecap="butt">
      <text x="676.1475" xml:space="preserve" y="525.1543" clip-path="url(#clipPath2)" stroke="none">det</text>
      <rect fill="none" x="671" width="30" height="30" y="506" clip-path="url(#clipPath2)"/>
    </g>
    <g fill="white" text-rendering="geometricPrecision" shape-rendering="geometricPrecision" transform="matrix(1,0,0,1,-419,-387)" stroke="white">
      <rect x="721" width="30" height="30" y="506" clip-path="url(#clipPath2)" stroke="none"/>
    </g>
    <g text-rendering="geometricPrecision" stroke-miterlimit="1.45" shape-rendering="geometricPrecision" font-family="sans-serif" transform="matrix(1,0,0,1,-419,-387)" stroke-linecap="butt">
      <text x="728.6406" xml:space="preserve" y="525.1543" clip-path="url(#clipPath2)" stroke="none">vp</text>
      <rect fill="none" x="721" width="30" height="30" y="506" clip-path="url(#clipPath2)"/>
    </g>
    <g fill="white" text-rendering="geometricPrecision" shape-rendering="geometricPrecision" transform="matrix(1,0,0,1,-419,-387)" stroke="white">
      <rect x="571" width="30" height="30" y="556" clip-path="url(#clipPath2)" stroke="none"/>
    </g>
    <g text-rendering="geometricPrecision" stroke-miterlimit="1.45" shape-rendering="geometricPrecision" transform="matrix(1,0,0,1,-419,-387)" stroke-linecap="butt">
      <rect fill="none" x="571" width="30" height="30" y="556" clip-path="url(#clipPath2)"/>
    </g>
    <g fill="white" text-rendering="geometricPrecision" shape-rendering="geometricPrecision" transform="matrix(1,0,0,1,-419,-387)" stroke="white">
      <rect x="621" width="30" height="30" y="556" clip-path="url(#clipPath2)" stroke="none"/>
    </g>
    <g text-rendering="geometricPrecision" stroke-miterlimit="1.45" shape-rendering="geometricPrecision" font-family="sans-serif" transform="matrix(1,0,0,1,-419,-387)" stroke-linecap="butt">
      <text x="628.6406" xml:space="preserve" y="575.1543" clip-path="url(#clipPath2)" stroke="none">vp</text>
      <rect fill="none" x="621" width="30" height="30" y="556" clip-path="url(#clipPath2)"/>
    </g>
    <g fill="white" text-rendering="geometricPrecision" shape-rendering="geometricPrecision" transform="matrix(1,0,0,1,-419,-387)" stroke="white">
      <rect x="671" width="30" height="30" y="556" clip-path="url(#clipPath2)" stroke="none"/>
    </g>
    <g text-rendering="geometricPrecision" stroke-miterlimit="1.45" shape-rendering="geometricPrecision" font-family="sans-serif" transform="matrix(1,0,0,1,-419,-387)" stroke-linecap="butt">
      <text x="676.1475" xml:space="preserve" y="575.1543" clip-path="url(#clipPath2)" stroke="none">det</text>
      <rect fill="none" x="671" width="30" height="30" y="556" clip-path="url(#clipPath2)"/>
    </g>
    <g fill="white" text-rendering="geometricPrecision" shape-rendering="geometricPrecision" transform="matrix(1,0,0,1,-419,-387)" stroke="white">
      <rect x="721" width="30" height="30" y="556" clip-path="url(#clipPath2)" stroke="none"/>
    </g>
    <g text-rendering="geometricPrecision" stroke-miterlimit="1.45" shape-rendering="geometricPrecision" font-family="sans-serif" transform="matrix(1,0,0,1,-419,-387)" stroke-linecap="butt">
      <text x="722.4824" xml:space="preserve" y="575.1543" clip-path="url(#clipPath2)" stroke="none">verb</text>
      <rect fill="none" x="721" width="30" height="30" y="556" clip-path="url(#clipPath2)"/>
    </g>
    <g fill="white" text-rendering="geometricPrecision" shape-rendering="geometricPrecision" transform="matrix(1,0,0,1,-419,-387)" stroke="white">
      <rect x="571" width="30" height="30" y="606" clip-path="url(#clipPath2)" stroke="none"/>
    </g>
    <g text-rendering="geometricPrecision" stroke-miterlimit="1.45" shape-rendering="geometricPrecision" font-family="sans-serif" transform="matrix(1,0,0,1,-419,-387)" stroke-linecap="butt">
      <text x="578.3887" xml:space="preserve" y="625.1543" clip-path="url(#clipPath2)" stroke="none">np</text>
      <rect fill="none" x="571" width="30" height="30" y="606" clip-path="url(#clipPath2)"/>
    </g>
    <g fill="white" text-rendering="geometricPrecision" shape-rendering="geometricPrecision" transform="matrix(1,0,0,1,-419,-387)" stroke="white">
      <rect x="621" width="30" height="30" y="606" clip-path="url(#clipPath2)" stroke="none"/>
    </g>
    <g text-rendering="geometricPrecision" stroke-miterlimit="1.45" shape-rendering="geometricPrecision" font-family="sans-serif" transform="matrix(1,0,0,1,-419,-387)" stroke-linecap="butt">
      <text x="628.6406" xml:space="preserve" y="625.1543" clip-path="url(#clipPath2)" stroke="none">vp</text>
      <rect fill="none" x="621" width="30" height="30" y="606" clip-path="url(#clipPath2)"/>
    </g>
    <g fill="white" text-rendering="geometricPrecision" shape-rendering="geometricPrecision" transform="matrix(1,0,0,1,-419,-387)" stroke="white">
      <rect x="671" width="30" height="30" y="606" clip-path="url(#clipPath2)" stroke="none"/>
    </g>
    <g text-rendering="geometricPrecision" stroke-miterlimit="1.45" shape-rendering="geometricPrecision" font-family="sans-serif" transform="matrix(1,0,0,1,-419,-387)" stroke-linecap="butt">
      <text x="676.1475" xml:space="preserve" y="625.1543" clip-path="url(#clipPath2)" stroke="none">det</text>
      <rect fill="none" x="671" width="30" height="30" y="606" clip-path="url(#clipPath2)"/>
    </g>
    <g fill="white" text-rendering="geometricPrecision" shape-rendering="geometricPrecision" transform="matrix(1,0,0,1,-419,-387)" stroke="white">
      <rect x="721" width="30" height="30" y="606" clip-path="url(#clipPath2)" stroke="none"/>
    </g>
    <g text-rendering="geometricPrecision" stroke-miterlimit="1.45" shape-rendering="geometricPrecision" transform="matrix(1,0,0,1,-419,-387)" stroke-linecap="butt">
      <rect fill="none" x="721" width="30" height="30" y="606" clip-path="url(#clipPath2)"/>
    </g>
    <g fill="white" text-rendering="geometricPrecision" shape-rendering="geometricPrecision" transform="matrix(1,0,0,1,-419,-387)" stroke="white">
      <rect x="571" width="30" height="30" y="656" clip-path="url(#clipPath2)" stroke="none"/>
    </g>
    <g text-rendering="geometricPrecision" stroke-miterlimit="1.45" shape-rendering="geometricPrecision" font-family="sans-serif" transform="matrix(1,0,0,1,-419,-387)" stroke-linecap="butt">
      <text x="578.3887" xml:space="preserve" y="675.1543" clip-path="url(#clipPath2)" stroke="none">np</text>
      <rect fill="none" x="571" width="30" height="30" y="656" clip-path="url(#clipPath2)"/>
    </g>
    <g fill="white" text-rendering="geometricPrecision" shape-rendering="geometricPrecision" transform="matrix(1,0,0,1,-419,-387)" stroke="white">
      <rect x="621" width="30" height="30" y="656" clip-path="url(#clipPath2)" stroke="none"/>
    </g>
    <g text-rendering="geometricPrecision" stroke-miterlimit="1.45" shape-rendering="geometricPrecision" font-family="sans-serif" transform="matrix(1,0,0,1,-419,-387)" stroke-linecap="butt">
      <text x="622.4824" xml:space="preserve" y="675.1543" clip-path="url(#clipPath2)" stroke="none">verb</text>
      <rect fill="none" x="621" width="30" height="30" y="656" clip-path="url(#clipPath2)"/>
    </g>
    <g fill="white" text-rendering="geometricPrecision" shape-rendering="geometricPrecision" transform="matrix(1,0,0,1,-419,-387)" stroke="white">
      <rect x="671" width="30" height="30" y="656" clip-path="url(#clipPath2)" stroke="none"/>
    </g>
    <g text-rendering="geometricPrecision" stroke-miterlimit="1.45" shape-rendering="geometricPrecision" transform="matrix(1,0,0,1,-419,-387)" stroke-linecap="butt">
      <rect fill="none" x="671" width="30" height="30" y="656" clip-path="url(#clipPath2)"/>
    </g>
    <g fill="white" text-rendering="geometricPrecision" shape-rendering="geometricPrecision" transform="matrix(1,0,0,1,-419,-387)" stroke="white">
      <rect x="721" width="30" height="30" y="656" clip-path="url(#clipPath2)" stroke="none"/>
    </g>
    <g text-rendering="geometricPrecision" stroke-miterlimit="1.45" shape-rendering="geometricPrecision" transform="matrix(1,0,0,1,-419,-387)" stroke-linecap="butt">
      <rect fill="none" x="721" width="30" height="30" y="656" clip-path="url(#clipPath2)"/>
    </g>
    <g fill="white" text-rendering="geometricPrecision" shape-rendering="geometricPrecision" transform="matrix(1,0,0,1,-419,-387)" stroke="white">
      <rect x="571" width="30" height="30" y="706" clip-path="url(#clipPath2)" stroke="none"/>
    </g>
    <g text-rendering="geometricPrecision" stroke-miterlimit="1.45" shape-rendering="geometricPrecision" font-family="sans-serif" transform="matrix(1,0,0,1,-419,-387)" stroke-linecap="butt">
      <text x="572.251" xml:space="preserve" y="725.1543" clip-path="url(#clipPath2)" stroke="none">pron</text>
      <rect fill="none" x="571" width="30" height="30" y="706" clip-path="url(#clipPath2)"/>
    </g>
    <g fill="white" text-rendering="geometricPrecision" shape-rendering="geometricPrecision" transform="matrix(1,0,0,1,-419,-387)" stroke="white">
      <rect x="621" width="30" height="30" y="706" clip-path="url(#clipPath2)" stroke="none"/>
    </g>
    <g text-rendering="geometricPrecision" stroke-miterlimit="1.45" shape-rendering="geometricPrecision" transform="matrix(1,0,0,1,-419,-387)" stroke-linecap="butt">
      <rect fill="none" x="621" width="30" height="30" y="706" clip-path="url(#clipPath2)"/>
    </g>
    <g fill="white" text-rendering="geometricPrecision" shape-rendering="geometricPrecision" transform="matrix(1,0,0,1,-419,-387)" stroke="white">
      <rect x="671" width="30" height="30" y="706" clip-path="url(#clipPath2)" stroke="none"/>
    </g>
    <g text-rendering="geometricPrecision" stroke-miterlimit="1.45" shape-rendering="geometricPrecision" transform="matrix(1,0,0,1,-419,-387)" stroke-linecap="butt">
      <rect fill="none" x="671" width="30" height="30" y="706" clip-path="url(#clipPath2)"/>
    </g>
    <g fill="white" text-rendering="geometricPrecision" shape-rendering="geometricPrecision" transform="matrix(1,0,0,1,-419,-387)" stroke="white">
      <rect x="721" width="30" height="30" y="706" clip-path="url(#clipPath2)" stroke="none"/>
    </g>
    <g text-rendering="geometricPrecision" stroke-miterlimit="1.45" shape-rendering="geometricPrecision" transform="matrix(1,0,0,1,-419,-387)" stroke-linecap="butt">
      <rect fill="none" x="721" width="30" height="30" y="706" clip-path="url(#clipPath2)"/>
    </g>
    <g fill="white" text-rendering="geometricPrecision" shape-rendering="geometricPrecision" transform="matrix(1,0,0,1,-419,-387)" stroke="white">
      <rect x="571" width="180" height="30" y="454" clip-path="url(#clipPath2)" stroke="none"/>
    </g>
    <g text-rendering="geometricPrecision" stroke-miterlimit="1.45" shape-rendering="geometricPrecision" font-family="sans-serif" transform="matrix(1,0,0,1,-419,-387)" stroke-linecap="butt">
      <text x="635.8896" xml:space="preserve" y="473.1543" clip-path="url(#clipPath2)" stroke="none">Step 2.2</text>
      <rect fill="none" x="571" width="180" height="30" y="454" clip-path="url(#clipPath2)"/>
    </g>
    <g fill="white" text-rendering="geometricPrecision" shape-rendering="geometricPrecision" transform="matrix(1,0,0,1,-419,-387)" stroke="white">
      <rect x="434.5" width="453" height="30" y="402" clip-path="url(#clipPath2)" stroke="none"/>
    </g>
    <g text-rendering="geometricPrecision" stroke-miterlimit="1.45" shape-rendering="geometricPrecision" font-family="sans-serif" transform="matrix(1,0,0,1,-419,-387)" stroke-linecap="butt">
      <text x="467.6436" xml:space="preserve" y="421.1543" clip-path="url(#clipPath2)" stroke="none">CKY of "I am a Function" - First Permutation: Pron Verb Det Verb</text>
      <rect fill="none" x="434.5" width="453" height="30" y="402" clip-path="url(#clipPath2)"/>
    </g>
    <g fill="white" text-rendering="geometricPrecision" shape-rendering="geometricPrecision" transform="matrix(1,0,0,1,-419,-387)" stroke="white">
      <rect x="434.5" width="453" height="30" y="756" clip-path="url(#clipPath2)" stroke="none"/>
    </g>
    <g text-rendering="geometricPrecision" stroke-miterlimit="1.45" shape-rendering="geometricPrecision" font-family="sans-serif" transform="matrix(1,0,0,1,-419,-387)" stroke-linecap="butt">
      <text x="636.3877" xml:space="preserve" y="775.1543" clip-path="url(#clipPath2)" stroke="none">Figure 9</text>
      <rect fill="none" x="434.5" width="453" height="30" y="756" clip-path="url(#clipPath2)"/>
    </g>
    <g text-rendering="geometricPrecision" stroke-miterlimit="1.45" shape-rendering="geometricPrecision" transform="matrix(1,0,0,1,-419,-387)" stroke-linecap="butt">
      <path fill="none" d="M686 536 L679.75 551 L684.5 548.15 L684.5 556 L687.5 556 L687.5 548.15 L692.25 551 L686 536 Z" clip-path="url(#clipPath2)"/>
    </g>
    <g text-rendering="geometricPrecision" stroke-miterlimit="1.45" shape-rendering="geometricPrecision" transform="matrix(1,0,0,1,-419,-387)" stroke-linecap="butt">
      <path fill="none" d="M736 556 L736 544" clip-path="url(#clipPath2)"/>
      <path d="M736 536 L731 548 L736 545 L741 548 Z" clip-path="url(#clipPath2)" stroke="none"/>
    </g>
    <g text-rendering="geometricPrecision" stroke-miterlimit="1.45" shape-rendering="geometricPrecision" transform="matrix(1,0,0,1,-419,-387)" stroke-linecap="butt">
      <path fill="none" d="M636 586 L629.75 601 L634.5 598.15 L634.5 606 L637.5 606 L637.5 598.15 L642.25 601 L636 586 Z" clip-path="url(#clipPath2)"/>
    </g>
    <g text-rendering="geometricPrecision" stroke-miterlimit="1.45" shape-rendering="geometricPrecision" transform="matrix(1,0,0,1,-419,-387)" stroke-linecap="butt">
      <path fill="none" d="M686 586 L679.75 601 L684.5 598.15 L684.5 606 L687.5 606 L687.5 598.15 L692.25 601 L686 586 Z" clip-path="url(#clipPath2)"/>
    </g>
    <g text-rendering="geometricPrecision" stroke-miterlimit="1.45" shape-rendering="geometricPrecision" transform="matrix(1,0,0,1,-419,-387)" stroke-linecap="butt">
      <path fill="none" d="M586 636 L579.75 651 L584.5 648.15 L584.5 656 L587.5 656 L587.5 648.15 L592.25 651 L586 636 Z" clip-path="url(#clipPath2)"/>
    </g>
    <g text-rendering="geometricPrecision" stroke-miterlimit="1.45" shape-rendering="geometricPrecision" transform="matrix(1,0,0,1,-419,-387)" stroke-linecap="butt">
      <path fill="none" d="M636 656 L636 644" clip-path="url(#clipPath2)"/>
      <path d="M636 636 L631 648 L636 645 L641 648 Z" clip-path="url(#clipPath2)" stroke="none"/>
      <path fill="none" d="M586 706 L586 694" clip-path="url(#clipPath2)"/>
      <path d="M586 686 L581 698 L586 695 L591 698 Z" clip-path="url(#clipPath2)" stroke="none"/>
    </g>
  </g>
</svg>
