<?xml version="1.0" encoding="UTF-8"?><svg xmlns="http://www.w3.org/2000/svg" xmlns:xlink="http://www.w3.org/1999/xlink" fill-opacity="1" color-rendering="auto" color-interpolation="auto" text-rendering="auto" stroke="black" stroke-linecap="square" width="483" stroke-miterlimit="10" shape-rendering="auto" stroke-opacity="1" fill="black" stroke-dasharray="none" font-weight="normal" stroke-width="1" height="414" font-family="'Dialog'" font-style="normal" stroke-linejoin="miter" font-size="12px" stroke-dashoffset="0" image-rendering="auto">
  <!--Generated by ySVG 2.5-->
  <defs id="genericDefs"/>
  <g>
    <defs id="defs1">
      <clipPath clipPathUnits="userSpaceOnUse" id="clipPath1">
        <path d="M0 0 L483 0 L483 414 L0 414 L0 0 Z"/>
      </clipPath>
      <clipPath clipPathUnits="userSpaceOnUse" id="clipPath2">
        <path d="M544 512 L1027 512 L1027 926 L544 926 L544 512 Z"/>
      </clipPath>
    </defs>
    <g fill="white" text-rendering="geometricPrecision" shape-rendering="geometricPrecision" transform="translate(-544,-512)" stroke="white">
      <rect x="544" width="483" height="414" y="512" clip-path="url(#clipPath2)" stroke="none"/>
    </g>
    <g fill="white" text-rendering="geometricPrecision" shape-rendering="geometricPrecision" transform="matrix(1,0,0,1,-544,-512)" stroke="white">
      <rect x="695.5" width="30" height="30" y="631" clip-path="url(#clipPath2)" stroke="none"/>
    </g>
    <g text-rendering="geometricPrecision" stroke-miterlimit="1.45" shape-rendering="geometricPrecision" transform="matrix(1,0,0,1,-544,-512)" stroke-linecap="butt">
      <rect fill="none" x="695.5" width="30" height="30" y="631" clip-path="url(#clipPath2)"/>
    </g>
    <g fill="white" text-rendering="geometricPrecision" shape-rendering="geometricPrecision" transform="matrix(1,0,0,1,-544,-512)" stroke="white">
      <rect x="745.5" width="30" height="30" y="631" clip-path="url(#clipPath2)" stroke="none"/>
    </g>
    <g text-rendering="geometricPrecision" stroke-miterlimit="1.45" shape-rendering="geometricPrecision" transform="matrix(1,0,0,1,-544,-512)" stroke-linecap="butt">
      <rect fill="none" x="745.5" width="30" height="30" y="631" clip-path="url(#clipPath2)"/>
    </g>
    <g fill="white" text-rendering="geometricPrecision" shape-rendering="geometricPrecision" transform="matrix(1,0,0,1,-544,-512)" stroke="white">
      <rect x="795.5" width="30" height="30" y="631" clip-path="url(#clipPath2)" stroke="none"/>
    </g>
    <g text-rendering="geometricPrecision" stroke-miterlimit="1.45" shape-rendering="geometricPrecision" transform="matrix(1,0,0,1,-544,-512)" stroke-linecap="butt">
      <rect fill="none" x="795.5" width="30" height="30" y="631" clip-path="url(#clipPath2)"/>
    </g>
    <g fill="white" text-rendering="geometricPrecision" shape-rendering="geometricPrecision" transform="matrix(1,0,0,1,-544,-512)" stroke="white">
      <rect x="845.5" width="30" height="30" y="631" clip-path="url(#clipPath2)" stroke="none"/>
    </g>
    <g text-rendering="geometricPrecision" stroke-miterlimit="1.45" shape-rendering="geometricPrecision" transform="matrix(1,0,0,1,-544,-512)" stroke-linecap="butt">
      <rect fill="none" x="845.5" width="30" height="30" y="631" clip-path="url(#clipPath2)"/>
    </g>
    <g fill="white" text-rendering="geometricPrecision" shape-rendering="geometricPrecision" transform="matrix(1,0,0,1,-544,-512)" stroke="white">
      <rect x="695.5" width="30" height="30" y="681" clip-path="url(#clipPath2)" stroke="none"/>
    </g>
    <g text-rendering="geometricPrecision" stroke-miterlimit="1.45" shape-rendering="geometricPrecision" transform="matrix(1,0,0,1,-544,-512)" stroke-linecap="butt">
      <rect fill="none" x="695.5" width="30" height="30" y="681" clip-path="url(#clipPath2)"/>
    </g>
    <g fill="white" text-rendering="geometricPrecision" shape-rendering="geometricPrecision" transform="matrix(1,0,0,1,-544,-512)" stroke="white">
      <rect x="745.5" width="30" height="30" y="681" clip-path="url(#clipPath2)" stroke="none"/>
    </g>
    <g text-rendering="geometricPrecision" stroke-miterlimit="1.45" shape-rendering="geometricPrecision" transform="matrix(1,0,0,1,-544,-512)" stroke-linecap="butt">
      <rect fill="none" x="745.5" width="30" height="30" y="681" clip-path="url(#clipPath2)"/>
    </g>
    <g fill="white" text-rendering="geometricPrecision" shape-rendering="geometricPrecision" transform="matrix(1,0,0,1,-544,-512)" stroke="white">
      <rect x="795.5" width="30" height="30" y="681" clip-path="url(#clipPath2)" stroke="none"/>
    </g>
    <g text-rendering="geometricPrecision" stroke-miterlimit="1.45" shape-rendering="geometricPrecision" transform="matrix(1,0,0,1,-544,-512)" stroke-linecap="butt">
      <rect fill="none" x="795.5" width="30" height="30" y="681" clip-path="url(#clipPath2)"/>
    </g>
    <g fill="white" text-rendering="geometricPrecision" shape-rendering="geometricPrecision" transform="matrix(1,0,0,1,-544,-512)" stroke="white">
      <rect x="845.5" width="30" height="30" y="681" clip-path="url(#clipPath2)" stroke="none"/>
    </g>
    <g text-rendering="geometricPrecision" stroke-miterlimit="1.45" shape-rendering="geometricPrecision" font-family="sans-serif" transform="matrix(1,0,0,1,-544,-512)" stroke-linecap="butt">
      <text x="845.4209" xml:space="preserve" y="700.1543" clip-path="url(#clipPath2)" stroke="none">noun</text>
      <rect fill="none" x="845.5" width="30" height="30" y="681" clip-path="url(#clipPath2)"/>
    </g>
    <g fill="white" text-rendering="geometricPrecision" shape-rendering="geometricPrecision" transform="matrix(1,0,0,1,-544,-512)" stroke="white">
      <rect x="695.5" width="30" height="30" y="731" clip-path="url(#clipPath2)" stroke="none"/>
    </g>
    <g text-rendering="geometricPrecision" stroke-miterlimit="1.45" shape-rendering="geometricPrecision" transform="matrix(1,0,0,1,-544,-512)" stroke-linecap="butt">
      <rect fill="none" x="695.5" width="30" height="30" y="731" clip-path="url(#clipPath2)"/>
    </g>
    <g fill="white" text-rendering="geometricPrecision" shape-rendering="geometricPrecision" transform="matrix(1,0,0,1,-544,-512)" stroke="white">
      <rect x="745.5" width="30" height="30" y="731" clip-path="url(#clipPath2)" stroke="none"/>
    </g>
    <g text-rendering="geometricPrecision" stroke-miterlimit="1.45" shape-rendering="geometricPrecision" transform="matrix(1,0,0,1,-544,-512)" stroke-linecap="butt">
      <rect fill="none" x="745.5" width="30" height="30" y="731" clip-path="url(#clipPath2)"/>
    </g>
    <g fill="white" text-rendering="geometricPrecision" shape-rendering="geometricPrecision" transform="matrix(1,0,0,1,-544,-512)" stroke="white">
      <rect x="795.5" width="30" height="30" y="731" clip-path="url(#clipPath2)" stroke="none"/>
    </g>
    <g text-rendering="geometricPrecision" stroke-miterlimit="1.45" shape-rendering="geometricPrecision" font-family="sans-serif" transform="matrix(1,0,0,1,-544,-512)" stroke-linecap="butt">
      <text x="800.6475" xml:space="preserve" y="750.1543" clip-path="url(#clipPath2)" stroke="none">det</text>
      <rect fill="none" x="795.5" width="30" height="30" y="731" clip-path="url(#clipPath2)"/>
    </g>
    <g fill="white" text-rendering="geometricPrecision" shape-rendering="geometricPrecision" transform="matrix(1,0,0,1,-544,-512)" stroke="white">
      <rect x="845.5" width="30" height="30" y="731" clip-path="url(#clipPath2)" stroke="none"/>
    </g>
    <g text-rendering="geometricPrecision" stroke-miterlimit="1.45" shape-rendering="geometricPrecision" transform="matrix(1,0,0,1,-544,-512)" stroke-linecap="butt">
      <rect fill="none" x="845.5" width="30" height="30" y="731" clip-path="url(#clipPath2)"/>
    </g>
    <g fill="white" text-rendering="geometricPrecision" shape-rendering="geometricPrecision" transform="matrix(1,0,0,1,-544,-512)" stroke="white">
      <rect x="695.5" width="30" height="30" y="781" clip-path="url(#clipPath2)" stroke="none"/>
    </g>
    <g text-rendering="geometricPrecision" stroke-miterlimit="1.45" shape-rendering="geometricPrecision" font-family="sans-serif" transform="matrix(1,0,0,1,-544,-512)" stroke-linecap="butt">
      <text x="702.8887" xml:space="preserve" y="800.1543" clip-path="url(#clipPath2)" stroke="none">np</text>
      <rect fill="none" x="695.5" width="30" height="30" y="781" clip-path="url(#clipPath2)"/>
    </g>
    <g fill="white" text-rendering="geometricPrecision" shape-rendering="geometricPrecision" transform="matrix(1,0,0,1,-544,-512)" stroke="white">
      <rect x="745.5" width="30" height="30" y="781" clip-path="url(#clipPath2)" stroke="none"/>
    </g>
    <g text-rendering="geometricPrecision" stroke-miterlimit="1.45" shape-rendering="geometricPrecision" font-family="sans-serif" transform="matrix(1,0,0,1,-544,-512)" stroke-linecap="butt">
      <text x="746.9824" xml:space="preserve" y="800.1543" clip-path="url(#clipPath2)" stroke="none">verb</text>
      <rect fill="none" x="745.5" width="30" height="30" y="781" clip-path="url(#clipPath2)"/>
    </g>
    <g fill="white" text-rendering="geometricPrecision" shape-rendering="geometricPrecision" transform="matrix(1,0,0,1,-544,-512)" stroke="white">
      <rect x="795.5" width="30" height="30" y="781" clip-path="url(#clipPath2)" stroke="none"/>
    </g>
    <g text-rendering="geometricPrecision" stroke-miterlimit="1.45" shape-rendering="geometricPrecision" transform="matrix(1,0,0,1,-544,-512)" stroke-linecap="butt">
      <rect fill="none" x="795.5" width="30" height="30" y="781" clip-path="url(#clipPath2)"/>
    </g>
    <g fill="white" text-rendering="geometricPrecision" shape-rendering="geometricPrecision" transform="matrix(1,0,0,1,-544,-512)" stroke="white">
      <rect x="845.5" width="30" height="30" y="781" clip-path="url(#clipPath2)" stroke="none"/>
    </g>
    <g text-rendering="geometricPrecision" stroke-miterlimit="1.45" shape-rendering="geometricPrecision" transform="matrix(1,0,0,1,-544,-512)" stroke-linecap="butt">
      <rect fill="none" x="845.5" width="30" height="30" y="781" clip-path="url(#clipPath2)"/>
    </g>
    <g fill="white" text-rendering="geometricPrecision" shape-rendering="geometricPrecision" transform="matrix(1,0,0,1,-544,-512)" stroke="white">
      <rect x="695.5" width="30" height="30" y="831" clip-path="url(#clipPath2)" stroke="none"/>
    </g>
    <g text-rendering="geometricPrecision" stroke-miterlimit="1.45" shape-rendering="geometricPrecision" font-family="sans-serif" transform="matrix(1,0,0,1,-544,-512)" stroke-linecap="butt">
      <text x="696.751" xml:space="preserve" y="850.1543" clip-path="url(#clipPath2)" stroke="none">pron</text>
      <rect fill="none" x="695.5" width="30" height="30" y="831" clip-path="url(#clipPath2)"/>
    </g>
    <g fill="white" text-rendering="geometricPrecision" shape-rendering="geometricPrecision" transform="matrix(1,0,0,1,-544,-512)" stroke="white">
      <rect x="745.5" width="30" height="30" y="831" clip-path="url(#clipPath2)" stroke="none"/>
    </g>
    <g text-rendering="geometricPrecision" stroke-miterlimit="1.45" shape-rendering="geometricPrecision" transform="matrix(1,0,0,1,-544,-512)" stroke-linecap="butt">
      <rect fill="none" x="745.5" width="30" height="30" y="831" clip-path="url(#clipPath2)"/>
    </g>
    <g fill="white" text-rendering="geometricPrecision" shape-rendering="geometricPrecision" transform="matrix(1,0,0,1,-544,-512)" stroke="white">
      <rect x="795.5" width="30" height="30" y="831" clip-path="url(#clipPath2)" stroke="none"/>
    </g>
    <g text-rendering="geometricPrecision" stroke-miterlimit="1.45" shape-rendering="geometricPrecision" transform="matrix(1,0,0,1,-544,-512)" stroke-linecap="butt">
      <rect fill="none" x="795.5" width="30" height="30" y="831" clip-path="url(#clipPath2)"/>
    </g>
    <g fill="white" text-rendering="geometricPrecision" shape-rendering="geometricPrecision" transform="matrix(1,0,0,1,-544,-512)" stroke="white">
      <rect x="845.5" width="30" height="30" y="831" clip-path="url(#clipPath2)" stroke="none"/>
    </g>
    <g text-rendering="geometricPrecision" stroke-miterlimit="1.45" shape-rendering="geometricPrecision" transform="matrix(1,0,0,1,-544,-512)" stroke-linecap="butt">
      <rect fill="none" x="845.5" width="30" height="30" y="831" clip-path="url(#clipPath2)"/>
    </g>
    <g fill="white" text-rendering="geometricPrecision" shape-rendering="geometricPrecision" transform="matrix(1,0,0,1,-544,-512)" stroke="white">
      <rect x="695.5" width="180" height="30" y="579" clip-path="url(#clipPath2)" stroke="none"/>
    </g>
    <g text-rendering="geometricPrecision" stroke-miterlimit="1.45" shape-rendering="geometricPrecision" font-family="sans-serif" transform="matrix(1,0,0,1,-544,-512)" stroke-linecap="butt">
      <text x="760.3896" xml:space="preserve" y="598.1543" clip-path="url(#clipPath2)" stroke="none">Step 1.0</text>
      <rect fill="none" x="695.5" width="180" height="30" y="579" clip-path="url(#clipPath2)"/>
    </g>
    <g fill="white" text-rendering="geometricPrecision" shape-rendering="geometricPrecision" transform="matrix(1,0,0,1,-544,-512)" stroke="white">
      <rect x="559" width="453" height="30" y="881" clip-path="url(#clipPath2)" stroke="none"/>
    </g>
    <g text-rendering="geometricPrecision" stroke-miterlimit="1.45" shape-rendering="geometricPrecision" font-family="sans-serif" transform="matrix(1,0,0,1,-544,-512)" stroke-linecap="butt">
      <text x="757.0703" xml:space="preserve" y="900.1543" clip-path="url(#clipPath2)" stroke="none">Figure 14</text>
      <rect fill="none" x="559" width="453" height="30" y="881" clip-path="url(#clipPath2)"/>
    </g>
    <g fill="white" text-rendering="geometricPrecision" shape-rendering="geometricPrecision" transform="matrix(1,0,0,1,-544,-512)" stroke="white">
      <rect x="559" width="453" height="30" y="527" clip-path="url(#clipPath2)" stroke="none"/>
    </g>
    <g text-rendering="geometricPrecision" stroke-miterlimit="1.45" shape-rendering="geometricPrecision" font-family="sans-serif" transform="matrix(1,0,0,1,-544,-512)" stroke-linecap="butt">
      <text x="581.4326" xml:space="preserve" y="546.1543" clip-path="url(#clipPath2)" stroke="none">CKY of "I am a Function" - Second Permutation: Pron Verb Det Noun</text>
      <rect fill="none" x="559" width="453" height="30" y="527" clip-path="url(#clipPath2)"/>
      <path fill="none" d="M710.5 831 L710.5 819" clip-path="url(#clipPath2)"/>
      <path d="M710.5 811 L705.5 823 L710.5 820 L715.5 823 Z" clip-path="url(#clipPath2)" stroke="none"/>
    </g>
  </g>
</svg>
