<?xml version="1.0" encoding="UTF-8"?><svg xmlns="http://www.w3.org/2000/svg" xmlns:xlink="http://www.w3.org/1999/xlink" fill-opacity="1" color-rendering="auto" color-interpolation="auto" text-rendering="auto" stroke="black" stroke-linecap="square" width="558" stroke-miterlimit="10" shape-rendering="auto" stroke-opacity="1" fill="black" stroke-dasharray="none" font-weight="normal" stroke-width="1" height="692" font-family="'Dialog'" font-style="normal" stroke-linejoin="miter" font-size="12px" stroke-dashoffset="0" image-rendering="auto">
  <!--Generated by ySVG 2.5-->
  <defs id="genericDefs"/>
  <g>
    <defs id="defs1">
      <clipPath clipPathUnits="userSpaceOnUse" id="clipPath1">
        <path d="M0 0 L558 0 L558 692 L0 692 L0 0 Z"/>
      </clipPath>
      <clipPath clipPathUnits="userSpaceOnUse" id="clipPath2">
        <path d="M429 314 L987 314 L987 1006 L429 1006 L429 314 Z"/>
      </clipPath>
    </defs>
    <g fill="white" text-rendering="geometricPrecision" shape-rendering="geometricPrecision" transform="translate(-429,-314)" stroke="white">
      <rect x="429" width="558" height="692" y="314" clip-path="url(#clipPath2)" stroke="none"/>
    </g>
    <g font-size="15px" stroke-linecap="butt" transform="matrix(1,0,0,1,-429,-314)" text-rendering="geometricPrecision" font-family="sans-serif" shape-rendering="geometricPrecision" stroke-miterlimit="1.45">
      <text x="469.8993" xml:space="preserve" y="827.082" clip-path="url(#clipPath2)" stroke="none">Stack</text>
      <rect x="452.3104" y="811.1586" clip-path="url(#clipPath2)" fill="none" width="61.1172" stroke-dasharray="6,2" rx="4" ry="4" height="125.4609"/>
    </g>
    <g fill="white" text-rendering="geometricPrecision" shape-rendering="geometricPrecision" transform="matrix(1,0,0,1,-429,-314)" stroke="white">
      <rect x="467.3104" width="30" height="30" y="847.6195" clip-path="url(#clipPath2)" stroke="none"/>
    </g>
    <g text-rendering="geometricPrecision" stroke-miterlimit="1.45" shape-rendering="geometricPrecision" font-family="sans-serif" transform="matrix(1,0,0,1,-429,-314)" stroke-linecap="butt">
      <text x="474.951" xml:space="preserve" y="866.7739" clip-path="url(#clipPath2)" stroke="none">vp</text>
      <rect fill="none" x="467.3104" width="30" height="30" y="847.6195" clip-path="url(#clipPath2)"/>
    </g>
    <g fill="white" text-rendering="geometricPrecision" shape-rendering="geometricPrecision" transform="matrix(1,0,0,1,-429,-314)" stroke="white">
      <rect x="467.3104" width="30" height="30" y="889.6195" clip-path="url(#clipPath2)" stroke="none"/>
    </g>
    <g text-rendering="geometricPrecision" stroke-miterlimit="1.45" shape-rendering="geometricPrecision" font-family="sans-serif" transform="matrix(1,0,0,1,-429,-314)" stroke-linecap="butt">
      <text x="479.9696" xml:space="preserve" y="908.7739" clip-path="url(#clipPath2)" stroke="none">)</text>
      <rect fill="none" x="467.3104" width="30" height="30" y="889.6195" clip-path="url(#clipPath2)"/>
    </g>
    <g fill="white" text-rendering="geometricPrecision" shape-rendering="geometricPrecision" transform="matrix(1,0,0,1,-429,-314)" stroke="white">
      <rect x="726.1711" width="237.6042" height="30" y="450.5307" clip-path="url(#clipPath2)" stroke="none"/>
    </g>
    <g text-rendering="geometricPrecision" stroke-miterlimit="1.45" shape-rendering="geometricPrecision" font-family="sans-serif" transform="matrix(1,0,0,1,-429,-314)" stroke-linecap="butt">
      <text x="831.4585" xml:space="preserve" y="469.685" clip-path="url(#clipPath2)" stroke="none">Tree</text>
      <rect fill="none" x="726.1711" width="237.6042" height="30" y="450.5307" clip-path="url(#clipPath2)"/>
    </g>
    <g fill="white" text-rendering="geometricPrecision" shape-rendering="geometricPrecision" transform="matrix(1,0,0,1,-429,-314)" stroke="white">
      <rect x="444.8169" width="518.9583" height="44.6667" y="329.4816" clip-path="url(#clipPath2)" stroke="none"/>
    </g>
    <g font-size="11px" stroke-linecap="butt" transform="matrix(1,0,0,1,-429,-314)" text-rendering="geometricPrecision" font-family="sans-serif" shape-rendering="geometricPrecision" stroke-miterlimit="1.45">
      <text x="621.7504" xml:space="preserve" y="342.8184" clip-path="url(#clipPath2)" stroke="none">Tree_DFS of "I am a Function"</text>
      <text x="654.8525" xml:space="preserve" y="355.6231" clip-path="url(#clipPath2)" stroke="none">First Permutation:</text>
      <text x="649.4975" xml:space="preserve" y="368.4278" clip-path="url(#clipPath2)" stroke="none">Pron Verb Det Noun</text>
      <rect fill="none" x="444.8169" width="518.9583" height="44.6667" y="329.4816" clip-path="url(#clipPath2)"/>
    </g>
    <g fill="white" text-rendering="geometricPrecision" shape-rendering="geometricPrecision" transform="matrix(1,0,0,1,-429,-314)" stroke="white">
      <rect x="444.8169" width="180" height="30" y="450.5307" clip-path="url(#clipPath2)" stroke="none"/>
    </g>
    <g text-rendering="geometricPrecision" stroke-miterlimit="1.45" shape-rendering="geometricPrecision" font-family="sans-serif" transform="matrix(1,0,0,1,-429,-314)" stroke-linecap="butt">
      <text x="502.23" xml:space="preserve" y="469.685" clip-path="url(#clipPath2)" stroke="none">CKY Matrix</text>
      <rect fill="none" x="444.8169" width="180" height="30" y="450.5307" clip-path="url(#clipPath2)"/>
    </g>
    <g fill="white" text-rendering="geometricPrecision" shape-rendering="geometricPrecision" transform="matrix(1,0,0,1,-429,-314)" stroke="white">
      <rect x="444.8169" width="518.9583" height="30" y="397.3395" clip-path="url(#clipPath2)" stroke="none"/>
    </g>
    <g text-rendering="geometricPrecision" stroke-miterlimit="1.45" shape-rendering="geometricPrecision" font-family="sans-serif" transform="matrix(1,0,0,1,-429,-314)" stroke-linecap="butt">
      <text x="684.9103" xml:space="preserve" y="416.4938" clip-path="url(#clipPath2)" stroke="none">Step 3</text>
      <rect fill="none" x="444.8169" width="518.9583" height="30" y="397.3395" clip-path="url(#clipPath2)"/>
    </g>
    <g fill="white" text-rendering="geometricPrecision" shape-rendering="geometricPrecision" transform="matrix(1,0,0,1,-429,-314)" stroke="white">
      <rect x="452.3104" width="323.8284" height="30" y="757.4403" clip-path="url(#clipPath2)" stroke="none"/>
    </g>
    <g text-rendering="geometricPrecision" stroke-miterlimit="1.45" shape-rendering="geometricPrecision" font-family="sans-serif" transform="matrix(1,0,0,1,-429,-314)" stroke-linecap="butt">
      <text x="555.5898" xml:space="preserve" y="776.5945" clip-path="url(#clipPath2)" stroke="none">Stack &amp; Line Status</text>
      <rect fill="none" x="452.3104" width="323.8284" height="30" y="757.4403" clip-path="url(#clipPath2)"/>
      <text x="742.8791" xml:space="preserve" font-size="15px" y="827.082" clip-path="url(#clipPath2)" stroke="none">Line</text>
      <rect x="569.1388" y="811.1586" clip-path="url(#clipPath2)" fill="none" width="207" stroke-dasharray="6,2" rx="4" ry="4" height="81.4609"/>
    </g>
    <g fill="white" text-rendering="geometricPrecision" shape-rendering="geometricPrecision" transform="matrix(1,0,0,1,-429,-314)" stroke="white">
      <rect x="701.1388" width="30" height="30" y="847.6195" clip-path="url(#clipPath2)" stroke="none"/>
    </g>
    <g text-rendering="geometricPrecision" stroke-miterlimit="1.45" shape-rendering="geometricPrecision" font-family="sans-serif" transform="matrix(1,0,0,1,-429,-314)" stroke-linecap="butt">
      <text x="702.5803" xml:space="preserve" y="866.7739" clip-path="url(#clipPath2)" stroke="none">Pron</text>
      <rect fill="none" x="701.1388" width="30" height="30" y="847.6195" clip-path="url(#clipPath2)"/>
    </g>
    <g fill="white" text-rendering="geometricPrecision" shape-rendering="geometricPrecision" transform="matrix(1,0,0,1,-429,-314)" stroke="white">
      <rect x="731.1388" width="30" height="30" y="847.6195" clip-path="url(#clipPath2)" stroke="none"/>
    </g>
    <g text-rendering="geometricPrecision" stroke-miterlimit="1.45" shape-rendering="geometricPrecision" font-family="sans-serif" transform="matrix(1,0,0,1,-429,-314)" stroke-linecap="butt">
      <text x="743.798" xml:space="preserve" y="866.7739" clip-path="url(#clipPath2)" stroke="none">)</text>
      <rect fill="none" x="731.1388" width="30" height="30" y="847.6195" clip-path="url(#clipPath2)"/>
    </g>
    <g fill="white" text-rendering="geometricPrecision" shape-rendering="geometricPrecision" transform="matrix(1,0,0,1,-429,-314)" stroke="white">
      <rect x="674.1388" width="30" height="30" y="847.6195" clip-path="url(#clipPath2)" stroke="none"/>
    </g>
    <g text-rendering="geometricPrecision" stroke-miterlimit="1.45" shape-rendering="geometricPrecision" font-family="sans-serif" transform="matrix(1,0,0,1,-429,-314)" stroke-linecap="butt">
      <text x="686.798" xml:space="preserve" y="866.7739" clip-path="url(#clipPath2)" stroke="none">(</text>
      <rect fill="none" x="674.1388" width="30" height="30" y="847.6195" clip-path="url(#clipPath2)"/>
    </g>
    <g fill="white" text-rendering="geometricPrecision" shape-rendering="geometricPrecision" transform="matrix(1,0,0,1,-429,-314)" stroke="white">
      <rect x="644.1388" width="30" height="30" y="847.6195" clip-path="url(#clipPath2)" stroke="none"/>
    </g>
    <g text-rendering="geometricPrecision" stroke-miterlimit="1.45" shape-rendering="geometricPrecision" font-family="sans-serif" transform="matrix(1,0,0,1,-429,-314)" stroke-linecap="butt">
      <text x="651.5275" xml:space="preserve" y="866.7739" clip-path="url(#clipPath2)" stroke="none">np</text>
      <rect fill="none" x="644.1388" width="30" height="30" y="847.6195" clip-path="url(#clipPath2)"/>
    </g>
    <g fill="white" text-rendering="geometricPrecision" shape-rendering="geometricPrecision" transform="matrix(1,0,0,1,-429,-314)" stroke="white">
      <rect x="614.1388" width="30" height="30" y="847.6195" clip-path="url(#clipPath2)" stroke="none"/>
    </g>
    <g text-rendering="geometricPrecision" stroke-miterlimit="1.45" shape-rendering="geometricPrecision" font-family="sans-serif" transform="matrix(1,0,0,1,-429,-314)" stroke-linecap="butt">
      <text x="626.798" xml:space="preserve" y="866.7739" clip-path="url(#clipPath2)" stroke="none">(</text>
      <rect fill="none" x="614.1388" width="30" height="30" y="847.6195" clip-path="url(#clipPath2)"/>
    </g>
    <g fill="white" text-rendering="geometricPrecision" shape-rendering="geometricPrecision" transform="matrix(1,0,0,1,-429,-314)" stroke="white">
      <rect x="584.1388" width="30" height="30" y="847.6195" clip-path="url(#clipPath2)" stroke="none"/>
    </g>
    <g text-rendering="geometricPrecision" stroke-miterlimit="1.45" shape-rendering="geometricPrecision" font-family="sans-serif" transform="matrix(1,0,0,1,-429,-314)" stroke-linecap="butt">
      <text x="596.0129" xml:space="preserve" y="866.7739" clip-path="url(#clipPath2)" stroke="none">s</text>
      <rect fill="none" x="584.1388" width="30" height="30" y="847.6195" clip-path="url(#clipPath2)"/>
    </g>
    <g fill="white" text-rendering="geometricPrecision" shape-rendering="geometricPrecision" transform="matrix(1,0,0,1,-429,-314)" stroke="white">
      <rect x="829.9731" width="30" height="30" y="638.4312" clip-path="url(#clipPath2)" stroke="none"/>
    </g>
    <g text-rendering="geometricPrecision" stroke-miterlimit="1.45" shape-rendering="geometricPrecision" font-family="sans-serif" transform="matrix(1,0,0,1,-429,-314)" stroke-linecap="butt">
      <text x="831.2241" xml:space="preserve" y="657.5855" clip-path="url(#clipPath2)" stroke="none">pron</text>
      <rect stroke-linecap="round" x="829.9731" y="638.4312" clip-path="url(#clipPath2)" fill="none" width="30" stroke-dasharray="4,3,0,3" height="30"/>
    </g>
    <g fill="white" text-rendering="geometricPrecision" shape-rendering="geometricPrecision" transform="matrix(1,0,0,1,-429,-314)" stroke="white">
      <rect x="829.9731" width="30" height="30" y="571.0765" clip-path="url(#clipPath2)" stroke="none"/>
    </g>
    <g text-rendering="geometricPrecision" stroke-miterlimit="1.45" shape-rendering="geometricPrecision" font-family="sans-serif" transform="matrix(1,0,0,1,-429,-314)" stroke-linecap="butt">
      <text x="837.3618" xml:space="preserve" y="590.2308" clip-path="url(#clipPath2)" stroke="none">np</text>
      <rect fill="none" x="829.9731" width="30" height="30" y="571.0765" clip-path="url(#clipPath2)"/>
    </g>
    <g fill="white" text-rendering="geometricPrecision" shape-rendering="geometricPrecision" transform="matrix(1,0,0,1,-429,-314)" stroke="white">
      <rect x="829.9731" width="30" height="30" y="503.7219" clip-path="url(#clipPath2)" stroke="none"/>
    </g>
    <g text-rendering="geometricPrecision" stroke-miterlimit="1.45" shape-rendering="geometricPrecision" font-family="sans-serif" transform="matrix(1,0,0,1,-429,-314)" stroke-linecap="butt">
      <text x="841.8472" xml:space="preserve" y="522.8762" clip-path="url(#clipPath2)" stroke="none">s</text>
      <rect fill="none" x="829.9731" width="30" height="30" y="503.7219" clip-path="url(#clipPath2)"/>
    </g>
    <g fill="white" text-rendering="geometricPrecision" shape-rendering="geometricPrecision" transform="matrix(1,0,0,1,-429,-314)" stroke="white">
      <rect x="602.3104" width="30" height="30" y="703.7219" clip-path="url(#clipPath2)" stroke="none"/>
    </g>
    <g text-rendering="geometricPrecision" stroke-miterlimit="1.45" shape-rendering="geometricPrecision" transform="matrix(1,0,0,1,-429,-314)" stroke-linecap="butt">
      <rect fill="none" x="602.3104" width="30" height="30" y="703.7219" clip-path="url(#clipPath2)"/>
    </g>
    <g fill="white" text-rendering="geometricPrecision" shape-rendering="geometricPrecision" transform="matrix(1,0,0,1,-429,-314)" stroke="white">
      <rect x="552.3104" width="30" height="30" y="703.7219" clip-path="url(#clipPath2)" stroke="none"/>
    </g>
    <g text-rendering="geometricPrecision" stroke-miterlimit="1.45" shape-rendering="geometricPrecision" transform="matrix(1,0,0,1,-429,-314)" stroke-linecap="butt">
      <rect fill="none" x="552.3104" width="30" height="30" y="703.7219" clip-path="url(#clipPath2)"/>
    </g>
    <g fill="white" text-rendering="geometricPrecision" shape-rendering="geometricPrecision" transform="matrix(1,0,0,1,-429,-314)" stroke="white">
      <rect x="502.3104" width="30" height="30" y="703.7219" clip-path="url(#clipPath2)" stroke="none"/>
    </g>
    <g text-rendering="geometricPrecision" stroke-miterlimit="1.45" shape-rendering="geometricPrecision" transform="matrix(1,0,0,1,-429,-314)" stroke-linecap="butt">
      <rect fill="none" x="502.3104" width="30" height="30" y="703.7219" clip-path="url(#clipPath2)"/>
    </g>
    <g fill="white" text-rendering="geometricPrecision" shape-rendering="geometricPrecision" transform="matrix(1,0,0,1,-429,-314)" stroke="white">
      <rect x="452.3104" width="30" height="30" y="703.7219" clip-path="url(#clipPath2)" stroke="none"/>
    </g>
    <g text-rendering="geometricPrecision" stroke-miterlimit="1.45" shape-rendering="geometricPrecision" font-family="sans-serif" transform="matrix(1,0,0,1,-429,-314)" stroke-linecap="butt">
      <text x="453.5614" xml:space="preserve" y="722.8762" clip-path="url(#clipPath2)" stroke="none">pron</text>
    </g>
    <g stroke-linecap="round" transform="matrix(1,0,0,1,-429,-314)" stroke-dashoffset="2" text-rendering="geometricPrecision" shape-rendering="geometricPrecision" stroke-dasharray="0,4" stroke-miterlimit="1.45">
      <rect fill="none" x="452.3104" width="30" height="30" y="703.7219" clip-path="url(#clipPath2)"/>
    </g>
    <g fill="white" text-rendering="geometricPrecision" shape-rendering="geometricPrecision" transform="matrix(1,0,0,1,-429,-314)" stroke="white">
      <rect x="602.3104" width="30" height="30" y="653.7219" clip-path="url(#clipPath2)" stroke="none"/>
    </g>
    <g text-rendering="geometricPrecision" stroke-miterlimit="1.45" shape-rendering="geometricPrecision" transform="matrix(1,0,0,1,-429,-314)" stroke-linecap="butt">
      <rect fill="none" x="602.3104" width="30" height="30" y="653.7219" clip-path="url(#clipPath2)"/>
    </g>
    <g fill="white" text-rendering="geometricPrecision" shape-rendering="geometricPrecision" transform="matrix(1,0,0,1,-429,-314)" stroke="white">
      <rect x="552.3104" width="30" height="30" y="653.7219" clip-path="url(#clipPath2)" stroke="none"/>
    </g>
    <g text-rendering="geometricPrecision" stroke-miterlimit="1.45" shape-rendering="geometricPrecision" transform="matrix(1,0,0,1,-429,-314)" stroke-linecap="butt">
      <rect fill="none" x="552.3104" width="30" height="30" y="653.7219" clip-path="url(#clipPath2)"/>
    </g>
    <g fill="white" text-rendering="geometricPrecision" shape-rendering="geometricPrecision" transform="matrix(1,0,0,1,-429,-314)" stroke="white">
      <rect x="502.3104" width="30" height="30" y="653.7219" clip-path="url(#clipPath2)" stroke="none"/>
    </g>
    <g text-rendering="geometricPrecision" stroke-miterlimit="1.45" shape-rendering="geometricPrecision" font-family="sans-serif" transform="matrix(1,0,0,1,-429,-314)" stroke-linecap="butt">
      <text x="503.7928" xml:space="preserve" y="672.8762" clip-path="url(#clipPath2)" stroke="none">verb</text>
      <rect fill="none" x="502.3104" width="30" height="30" y="653.7219" clip-path="url(#clipPath2)"/>
    </g>
    <g fill="white" text-rendering="geometricPrecision" shape-rendering="geometricPrecision" transform="matrix(1,0,0,1,-429,-314)" stroke="white">
      <rect x="452.3104" width="30" height="30" y="653.7219" clip-path="url(#clipPath2)" stroke="none"/>
    </g>
    <g text-rendering="geometricPrecision" stroke-miterlimit="1.45" shape-rendering="geometricPrecision" font-family="sans-serif" transform="matrix(1,0,0,1,-429,-314)" stroke-linecap="butt">
      <text x="459.6991" xml:space="preserve" y="672.8762" clip-path="url(#clipPath2)" stroke="none">np</text>
      <rect fill="none" x="452.3104" width="30" height="30" y="653.7219" clip-path="url(#clipPath2)"/>
    </g>
    <g fill="white" text-rendering="geometricPrecision" shape-rendering="geometricPrecision" transform="matrix(1,0,0,1,-429,-314)" stroke="white">
      <rect x="602.3104" width="30" height="30" y="603.7219" clip-path="url(#clipPath2)" stroke="none"/>
    </g>
    <g text-rendering="geometricPrecision" stroke-miterlimit="1.45" shape-rendering="geometricPrecision" transform="matrix(1,0,0,1,-429,-314)" stroke-linecap="butt">
      <rect fill="none" x="602.3104" width="30" height="30" y="603.7219" clip-path="url(#clipPath2)"/>
    </g>
    <g fill="white" text-rendering="geometricPrecision" shape-rendering="geometricPrecision" transform="matrix(1,0,0,1,-429,-314)" stroke="white">
      <rect x="552.3104" width="30" height="30" y="603.7219" clip-path="url(#clipPath2)" stroke="none"/>
    </g>
    <g text-rendering="geometricPrecision" stroke-miterlimit="1.45" shape-rendering="geometricPrecision" font-family="sans-serif" transform="matrix(1,0,0,1,-429,-314)" stroke-linecap="butt">
      <text x="557.4579" xml:space="preserve" y="622.8762" clip-path="url(#clipPath2)" stroke="none">det</text>
      <rect fill="none" x="552.3104" width="30" height="30" y="603.7219" clip-path="url(#clipPath2)"/>
    </g>
    <g fill="white" text-rendering="geometricPrecision" shape-rendering="geometricPrecision" transform="matrix(1,0,0,1,-429,-314)" stroke="white">
      <rect x="502.3104" width="30" height="30" y="603.7219" clip-path="url(#clipPath2)" stroke="none"/>
    </g>
    <g text-rendering="geometricPrecision" stroke-miterlimit="1.45" shape-rendering="geometricPrecision" font-family="sans-serif" transform="matrix(1,0,0,1,-429,-314)" stroke-linecap="butt">
      <text x="509.951" xml:space="preserve" y="622.8762" clip-path="url(#clipPath2)" stroke="none">vp</text>
      <rect fill="none" x="502.3104" width="30" height="30" y="603.7219" clip-path="url(#clipPath2)"/>
    </g>
    <g fill="white" text-rendering="geometricPrecision" shape-rendering="geometricPrecision" transform="matrix(1,0,0,1,-429,-314)" stroke="white">
      <rect x="452.3104" width="30" height="30" y="603.7219" clip-path="url(#clipPath2)" stroke="none"/>
    </g>
    <g text-rendering="geometricPrecision" stroke-miterlimit="1.45" shape-rendering="geometricPrecision" font-family="sans-serif" transform="matrix(1,0,0,1,-429,-314)" stroke-linecap="butt">
      <text x="459.6991" xml:space="preserve" y="622.8762" clip-path="url(#clipPath2)" stroke="none">np</text>
      <rect fill="none" x="452.3104" width="30" height="30" y="603.7219" clip-path="url(#clipPath2)"/>
    </g>
    <g fill="white" text-rendering="geometricPrecision" shape-rendering="geometricPrecision" transform="matrix(1,0,0,1,-429,-314)" stroke="white">
      <rect x="602.3104" width="30" height="30" y="553.7219" clip-path="url(#clipPath2)" stroke="none"/>
    </g>
    <g text-rendering="geometricPrecision" stroke-miterlimit="1.45" shape-rendering="geometricPrecision" font-family="sans-serif" transform="matrix(1,0,0,1,-429,-314)" stroke-linecap="butt">
      <text x="602.2313" xml:space="preserve" y="572.8762" clip-path="url(#clipPath2)" stroke="none">noun</text>
      <rect fill="none" x="602.3104" width="30" height="30" y="553.7219" clip-path="url(#clipPath2)"/>
    </g>
    <g fill="white" text-rendering="geometricPrecision" shape-rendering="geometricPrecision" transform="matrix(1,0,0,1,-429,-314)" stroke="white">
      <rect x="552.3104" width="30" height="30" y="553.7219" clip-path="url(#clipPath2)" stroke="none"/>
    </g>
    <g text-rendering="geometricPrecision" stroke-miterlimit="1.45" shape-rendering="geometricPrecision" font-family="sans-serif" transform="matrix(1,0,0,1,-429,-314)" stroke-linecap="butt">
      <text x="557.4579" xml:space="preserve" y="572.8762" clip-path="url(#clipPath2)" stroke="none">det</text>
      <rect fill="none" x="552.3104" width="30" height="30" y="553.7219" clip-path="url(#clipPath2)"/>
    </g>
    <g fill="white" text-rendering="geometricPrecision" shape-rendering="geometricPrecision" transform="matrix(1,0,0,1,-429,-314)" stroke="white">
      <rect x="502.3104" width="30" height="30" y="553.7219" clip-path="url(#clipPath2)" stroke="none"/>
    </g>
    <g text-rendering="geometricPrecision" stroke-miterlimit="1.45" shape-rendering="geometricPrecision" font-family="sans-serif" transform="matrix(1,0,0,1,-429,-314)" stroke-linecap="butt">
      <text x="509.951" xml:space="preserve" y="572.8762" clip-path="url(#clipPath2)" stroke="none">vp</text>
      <rect fill="none" x="502.3104" width="30" height="30" y="553.7219" clip-path="url(#clipPath2)"/>
    </g>
    <g fill="white" text-rendering="geometricPrecision" shape-rendering="geometricPrecision" transform="matrix(1,0,0,1,-429,-314)" stroke="white">
      <rect x="452.3104" width="30" height="30" y="553.7219" clip-path="url(#clipPath2)" stroke="none"/>
    </g>
    <g text-rendering="geometricPrecision" stroke-miterlimit="1.45" shape-rendering="geometricPrecision" font-family="sans-serif" transform="matrix(1,0,0,1,-429,-314)" stroke-linecap="butt">
      <text x="459.6991" xml:space="preserve" y="572.8762" clip-path="url(#clipPath2)" stroke="none">np</text>
    </g>
    <g stroke-linecap="round" transform="matrix(1,0,0,1,-429,-314)" stroke-dashoffset="2" text-rendering="geometricPrecision" shape-rendering="geometricPrecision" stroke-dasharray="0,4" stroke-miterlimit="1.45">
      <rect fill="none" x="452.3104" width="30" height="30" y="553.7219" clip-path="url(#clipPath2)"/>
    </g>
    <g fill="white" text-rendering="geometricPrecision" shape-rendering="geometricPrecision" transform="matrix(1,0,0,1,-429,-314)" stroke="white">
      <rect x="602.3104" width="30" height="30" y="503.7219" clip-path="url(#clipPath2)" stroke="none"/>
    </g>
    <g text-rendering="geometricPrecision" stroke-miterlimit="1.45" shape-rendering="geometricPrecision" font-family="sans-serif" transform="matrix(1,0,0,1,-429,-314)" stroke-linecap="butt">
      <text x="603.9921" xml:space="preserve" y="522.8762" clip-path="url(#clipPath2)" stroke="none">nom</text>
      <rect fill="none" x="602.3104" width="30" height="30" y="503.7219" clip-path="url(#clipPath2)"/>
    </g>
    <g fill="white" text-rendering="geometricPrecision" shape-rendering="geometricPrecision" transform="matrix(1,0,0,1,-429,-314)" stroke="white">
      <rect x="552.3104" width="30" height="30" y="503.7219" clip-path="url(#clipPath2)" stroke="none"/>
    </g>
    <g text-rendering="geometricPrecision" stroke-miterlimit="1.45" shape-rendering="geometricPrecision" font-family="sans-serif" transform="matrix(1,0,0,1,-429,-314)" stroke-linecap="butt">
      <text x="559.6991" xml:space="preserve" y="522.8762" clip-path="url(#clipPath2)" stroke="none">np</text>
      <rect fill="none" x="552.3104" width="30" height="30" y="503.7219" clip-path="url(#clipPath2)"/>
    </g>
    <g fill="white" text-rendering="geometricPrecision" shape-rendering="geometricPrecision" transform="matrix(1,0,0,1,-429,-314)" stroke="white">
      <rect x="502.3104" width="30" height="30" y="503.7219" clip-path="url(#clipPath2)" stroke="none"/>
    </g>
    <g text-rendering="geometricPrecision" stroke-miterlimit="1.45" shape-rendering="geometricPrecision" font-family="sans-serif" transform="matrix(1,0,0,1,-429,-314)" stroke-linecap="butt">
      <text x="509.951" xml:space="preserve" y="522.8762" clip-path="url(#clipPath2)" stroke="none">vp</text>
      <rect x="502.3104" y="503.7219" clip-path="url(#clipPath2)" fill="none" width="30" stroke-dasharray="12,4" height="30" stroke-width="2"/>
    </g>
    <g fill="white" text-rendering="geometricPrecision" shape-rendering="geometricPrecision" transform="matrix(1,0,0,1,-429,-314)" stroke="white">
      <rect x="452.3104" width="30" height="30" y="503.7219" clip-path="url(#clipPath2)" stroke="none"/>
    </g>
    <g text-rendering="geometricPrecision" stroke-miterlimit="1.45" shape-rendering="geometricPrecision" font-family="sans-serif" transform="matrix(1,0,0,1,-429,-314)" stroke-linecap="butt">
      <text x="464.1844" xml:space="preserve" y="522.8762" clip-path="url(#clipPath2)" stroke="none">s</text>
    </g>
    <g stroke-linecap="round" transform="matrix(1,0,0,1,-429,-314)" stroke-dashoffset="2" text-rendering="geometricPrecision" shape-rendering="geometricPrecision" stroke-dasharray="0,4" stroke-miterlimit="1.45">
      <rect fill="none" x="452.3104" width="30" height="30" y="503.7219" clip-path="url(#clipPath2)"/>
    </g>
    <g fill="white" text-rendering="geometricPrecision" shape-rendering="geometricPrecision" transform="matrix(1,0,0,1,-429,-314)" stroke="white">
      <rect x="452.3104" width="518.9583" height="30" y="960.3379" clip-path="url(#clipPath2)" stroke="none"/>
    </g>
    <g text-rendering="geometricPrecision" stroke-miterlimit="1.45" shape-rendering="geometricPrecision" font-family="sans-serif" transform="matrix(1,0,0,1,-429,-314)" stroke-linecap="butt">
      <text x="683.3599" xml:space="preserve" y="979.4922" clip-path="url(#clipPath2)" stroke="none">Figure 33</text>
      <rect fill="none" x="452.3104" width="518.9583" height="30" y="960.3379" clip-path="url(#clipPath2)"/>
      <path fill="none" d="M844.9731 601.0765 L844.9731 630.4312" clip-path="url(#clipPath2)"/>
      <path d="M844.9731 638.4312 L849.9731 626.4312 L844.9731 629.4312 L839.9731 626.4312 Z" clip-path="url(#clipPath2)" stroke="none"/>
      <path fill="none" d="M844.9731 533.7219 L844.9731 563.0765" clip-path="url(#clipPath2)"/>
      <path d="M844.9731 571.0765 L849.9731 559.0765 L844.9731 562.0765 L839.9731 559.0765 Z" clip-path="url(#clipPath2)" stroke="none"/>
      <path fill="none" d="M467.3104 703.7219 L467.3104 691.7219" clip-path="url(#clipPath2)"/>
      <path d="M467.3104 683.7219 L462.3104 695.7219 L467.3104 692.7219 L472.3104 695.7219 Z" clip-path="url(#clipPath2)" stroke="none"/>
      <path fill="none" d="M517.3104 653.7219 L517.3104 641.7219" clip-path="url(#clipPath2)"/>
      <path d="M517.3104 633.7219 L512.3104 645.7219 L517.3104 642.7219 L522.3104 645.7219 Z" clip-path="url(#clipPath2)" stroke="none"/>
    </g>
    <g text-rendering="geometricPrecision" stroke-miterlimit="1.45" shape-rendering="geometricPrecision" transform="matrix(1,0,0,1,-429,-314)" stroke-linecap="butt">
      <path fill="none" d="M467.3104 633.7219 L461.0604 648.7219 L465.8104 645.8719 L465.8104 645.8719 L465.8104 653.7219 L468.8104 653.7219 L468.8104 645.8719 L468.8104 645.8719 L473.5604 648.7219 L467.3104 633.7219 Z" clip-path="url(#clipPath2)"/>
    </g>
    <g text-rendering="geometricPrecision" stroke-miterlimit="1.45" shape-rendering="geometricPrecision" transform="matrix(1,0,0,1,-429,-314)" stroke-linecap="butt">
      <path fill="none" d="M567.3104 583.7219 L561.0604 598.7219 L565.8104 595.8719 L565.8104 603.7219 L568.8104 603.7219 L568.8104 595.8719 L573.5604 598.7219 L567.3104 583.7219 Z" clip-path="url(#clipPath2)"/>
    </g>
    <g text-rendering="geometricPrecision" stroke-miterlimit="1.45" shape-rendering="geometricPrecision" transform="matrix(1,0,0,1,-429,-314)" stroke-linecap="butt">
      <path fill="none" d="M517.3104 583.7219 L511.0604 598.7219 L515.8104 595.8719 L515.8104 603.7219 L518.8104 603.7219 L518.8104 595.8719 L523.5604 598.7219 L517.3104 583.7219 Z" clip-path="url(#clipPath2)"/>
    </g>
    <g text-rendering="geometricPrecision" stroke-miterlimit="1.45" shape-rendering="geometricPrecision" transform="matrix(1,0,0,1,-429,-314)" stroke-linecap="butt">
      <path fill="none" d="M467.3104 583.7219 L461.0604 598.7219 L465.8104 595.8719 L465.8104 595.8719 L465.8104 603.7219 L468.8104 603.7219 L468.8104 595.8719 L468.8104 595.8719 L473.5604 598.7219 L467.3104 583.7219 Z" clip-path="url(#clipPath2)"/>
    </g>
    <g text-rendering="geometricPrecision" stroke-miterlimit="1.45" shape-rendering="geometricPrecision" transform="matrix(1,0,0,1,-429,-314)" stroke-linecap="butt">
      <path fill="none" d="M617.3104 553.7219 L617.3104 541.7219" clip-path="url(#clipPath2)"/>
      <path d="M617.3104 533.7219 L612.3104 545.7219 L617.3104 542.7219 L622.3104 545.7219 Z" clip-path="url(#clipPath2)" stroke="none"/>
      <path fill="none" d="M567.3104 553.7219 L567.3104 541.7219" clip-path="url(#clipPath2)"/>
      <path d="M567.3104 533.7219 L562.3104 545.7219 L567.3104 542.7219 L572.3104 545.7219 Z" clip-path="url(#clipPath2)" stroke="none"/>
      <path fill="none" d="M602.3104 518.7219 L590.3104 518.7219" clip-path="url(#clipPath2)"/>
      <path d="M582.3104 518.7219 L594.3104 523.7219 L591.3104 518.7219 L594.3104 513.7219 Z" clip-path="url(#clipPath2)" stroke="none"/>
    </g>
    <g text-rendering="geometricPrecision" stroke-miterlimit="1.45" shape-rendering="geometricPrecision" transform="matrix(1,0,0,1,-429,-314)" stroke-linecap="butt">
      <path fill="none" d="M517.3104 533.7219 L511.0604 548.7219 L515.8104 545.8719 L515.8104 553.7219 L518.8104 553.7219 L518.8104 545.8719 L523.5604 548.7219 L517.3104 533.7219 Z" clip-path="url(#clipPath2)"/>
    </g>
    <g text-rendering="geometricPrecision" stroke-miterlimit="1.45" shape-rendering="geometricPrecision" transform="matrix(1,0,0,1,-429,-314)" stroke-linecap="butt">
      <path fill="none" d="M552.3104 518.7219 L540.3104 518.7219" clip-path="url(#clipPath2)"/>
      <path d="M532.3104 518.7219 L544.3104 523.7219 L541.3104 518.7219 L544.3104 513.7219 Z" clip-path="url(#clipPath2)" stroke="none"/>
      <path fill="none" d="M467.3104 553.7219 L467.3104 541.7219" clip-path="url(#clipPath2)"/>
      <path d="M467.3104 533.7219 L462.3104 545.7219 L467.3104 542.7219 L472.3104 545.7219 Z" clip-path="url(#clipPath2)" stroke="none"/>
      <path fill="none" d="M502.3104 518.7219 L490.3104 518.7219" clip-path="url(#clipPath2)"/>
      <path d="M482.3104 518.7219 L494.3104 523.7219 L491.3104 518.7219 L494.3104 513.7219 Z" clip-path="url(#clipPath2)" stroke="none"/>
    </g>
  </g>
</svg>
