<?xml version="1.0" encoding="UTF-8"?><svg xmlns="http://www.w3.org/2000/svg" xmlns:xlink="http://www.w3.org/1999/xlink" fill-opacity="1" color-rendering="auto" color-interpolation="auto" text-rendering="auto" stroke="black" stroke-linecap="square" width="567" stroke-miterlimit="10" shape-rendering="auto" stroke-opacity="1" fill="black" stroke-dasharray="none" font-weight="normal" stroke-width="1" height="764" font-family="'Dialog'" font-style="normal" stroke-linejoin="miter" font-size="12px" stroke-dashoffset="0" image-rendering="auto">
  <!--Generated by ySVG 2.5-->
  <defs id="genericDefs"/>
  <g>
    <defs id="defs1">
      <clipPath clipPathUnits="userSpaceOnUse" id="clipPath1">
        <path d="M0 0 L567 0 L567 764 L0 764 L0 0 Z"/>
      </clipPath>
      <clipPath clipPathUnits="userSpaceOnUse" id="clipPath2">
        <path d="M75 17 L642 17 L642 781 L75 781 L75 17 Z"/>
      </clipPath>
    </defs>
    <g fill="white" text-rendering="geometricPrecision" shape-rendering="geometricPrecision" transform="translate(-75,-17)" stroke="white">
      <rect x="75" width="567" height="764" y="17" clip-path="url(#clipPath2)" stroke="none"/>
    </g>
    <g font-size="15px" stroke-linecap="butt" transform="matrix(1,0,0,1,-75,-17)" text-rendering="geometricPrecision" font-family="sans-serif" shape-rendering="geometricPrecision" stroke-miterlimit="1.45">
      <text x="111.7489" xml:space="preserve" y="514.0065" clip-path="url(#clipPath2)" stroke="none">Stack</text>
      <rect x="91.119" y="498.0832" clip-path="url(#clipPath2)" fill="none" width="64.1582" stroke-dasharray="6,2" rx="4" ry="4" height="207.4609"/>
    </g>
    <g fill="white" text-rendering="geometricPrecision" shape-rendering="geometricPrecision" transform="matrix(1,0,0,1,-75,-17)" stroke="white">
      <rect x="106.4374" width="30" height="30" y="660.5441" clip-path="url(#clipPath2)" stroke="none"/>
    </g>
    <g text-rendering="geometricPrecision" stroke-miterlimit="1.45" shape-rendering="geometricPrecision" font-family="sans-serif" transform="matrix(1,0,0,1,-75,-17)" stroke-linecap="butt">
      <text x="119.0965" xml:space="preserve" y="679.6984" clip-path="url(#clipPath2)" stroke="none">)</text>
      <rect fill="none" x="106.4374" width="30" height="30" y="660.5441" clip-path="url(#clipPath2)"/>
    </g>
    <g fill="white" text-rendering="geometricPrecision" shape-rendering="geometricPrecision" transform="matrix(1,0,0,1,-75,-17)" stroke="white">
      <rect x="106.4374" width="30" height="30" y="618.5441" clip-path="url(#clipPath2)" stroke="none"/>
    </g>
    <g text-rendering="geometricPrecision" stroke-miterlimit="1.45" shape-rendering="geometricPrecision" font-family="sans-serif" transform="matrix(1,0,0,1,-75,-17)" stroke-linecap="butt">
      <text x="119.0965" xml:space="preserve" y="637.6984" clip-path="url(#clipPath2)" stroke="none">)</text>
      <rect fill="none" x="106.4374" width="30" height="30" y="618.5441" clip-path="url(#clipPath2)"/>
    </g>
    <g fill="white" text-rendering="geometricPrecision" shape-rendering="geometricPrecision" transform="matrix(1,0,0,1,-75,-17)" stroke="white">
      <rect x="106.4374" width="30" height="30" y="576.5441" clip-path="url(#clipPath2)" stroke="none"/>
    </g>
    <g text-rendering="geometricPrecision" stroke-miterlimit="1.45" shape-rendering="geometricPrecision" font-family="sans-serif" transform="matrix(1,0,0,1,-75,-17)" stroke-linecap="butt">
      <text x="119.0965" xml:space="preserve" y="595.6984" clip-path="url(#clipPath2)" stroke="none">)</text>
      <rect fill="none" x="106.4374" width="30" height="30" y="576.5441" clip-path="url(#clipPath2)"/>
    </g>
    <g fill="white" text-rendering="geometricPrecision" shape-rendering="geometricPrecision" transform="matrix(1,0,0,1,-75,-17)" stroke="white">
      <rect x="106.4374" width="30" height="30" y="534.5441" clip-path="url(#clipPath2)" stroke="none"/>
    </g>
    <g text-rendering="geometricPrecision" stroke-miterlimit="1.45" shape-rendering="geometricPrecision" font-family="sans-serif" transform="matrix(1,0,0,1,-75,-17)" stroke-linecap="butt">
      <text x="108.119" xml:space="preserve" y="553.6984" clip-path="url(#clipPath2)" stroke="none">nom</text>
      <rect fill="none" x="106.4374" width="30" height="30" y="534.5441" clip-path="url(#clipPath2)"/>
      <text x="592.9815" xml:space="preserve" font-size="15px" y="514.0065" clip-path="url(#clipPath2)" stroke="none">Line</text>
      <rect x="221.2413" y="498.0832" clip-path="url(#clipPath2)" fill="none" width="405" stroke-dasharray="6,2" rx="4" ry="4" height="81.4609"/>
    </g>
    <g fill="white" text-rendering="geometricPrecision" shape-rendering="geometricPrecision" transform="matrix(1,0,0,1,-75,-17)" stroke="white">
      <rect x="236.2413" width="30" height="30" y="534.5441" clip-path="url(#clipPath2)" stroke="none"/>
    </g>
    <g text-rendering="geometricPrecision" stroke-miterlimit="1.45" shape-rendering="geometricPrecision" font-family="sans-serif" transform="matrix(1,0,0,1,-75,-17)" stroke-linecap="butt">
      <text x="248.1153" xml:space="preserve" y="553.6984" clip-path="url(#clipPath2)" stroke="none">s</text>
      <rect fill="none" x="236.2413" width="30" height="30" y="534.5441" clip-path="url(#clipPath2)"/>
    </g>
    <g fill="white" text-rendering="geometricPrecision" shape-rendering="geometricPrecision" transform="matrix(1,0,0,1,-75,-17)" stroke="white">
      <rect x="266.2413" width="30" height="30" y="534.5441" clip-path="url(#clipPath2)" stroke="none"/>
    </g>
    <g text-rendering="geometricPrecision" stroke-miterlimit="1.45" shape-rendering="geometricPrecision" font-family="sans-serif" transform="matrix(1,0,0,1,-75,-17)" stroke-linecap="butt">
      <text x="278.9005" xml:space="preserve" y="553.6984" clip-path="url(#clipPath2)" stroke="none">(</text>
      <rect fill="none" x="266.2413" width="30" height="30" y="534.5441" clip-path="url(#clipPath2)"/>
    </g>
    <g fill="white" text-rendering="geometricPrecision" shape-rendering="geometricPrecision" transform="matrix(1,0,0,1,-75,-17)" stroke="white">
      <rect x="296.2413" width="30" height="30" y="534.5441" clip-path="url(#clipPath2)" stroke="none"/>
    </g>
    <g text-rendering="geometricPrecision" stroke-miterlimit="1.45" shape-rendering="geometricPrecision" font-family="sans-serif" transform="matrix(1,0,0,1,-75,-17)" stroke-linecap="butt">
      <text x="303.6299" xml:space="preserve" y="553.6984" clip-path="url(#clipPath2)" stroke="none">np</text>
      <rect fill="none" x="296.2413" width="30" height="30" y="534.5441" clip-path="url(#clipPath2)"/>
    </g>
    <g fill="white" text-rendering="geometricPrecision" shape-rendering="geometricPrecision" transform="matrix(1,0,0,1,-75,-17)" stroke="white">
      <rect x="326.2413" width="30" height="30" y="534.5441" clip-path="url(#clipPath2)" stroke="none"/>
    </g>
    <g text-rendering="geometricPrecision" stroke-miterlimit="1.45" shape-rendering="geometricPrecision" font-family="sans-serif" transform="matrix(1,0,0,1,-75,-17)" stroke-linecap="butt">
      <text x="338.9005" xml:space="preserve" y="553.6984" clip-path="url(#clipPath2)" stroke="none">(</text>
      <rect fill="none" x="326.2413" width="30" height="30" y="534.5441" clip-path="url(#clipPath2)"/>
    </g>
    <g fill="white" text-rendering="geometricPrecision" shape-rendering="geometricPrecision" transform="matrix(1,0,0,1,-75,-17)" stroke="white">
      <rect x="386.2413" width="30" height="30" y="534.5441" clip-path="url(#clipPath2)" stroke="none"/>
    </g>
    <g text-rendering="geometricPrecision" stroke-miterlimit="1.45" shape-rendering="geometricPrecision" font-family="sans-serif" transform="matrix(1,0,0,1,-75,-17)" stroke-linecap="butt">
      <text x="398.9005" xml:space="preserve" y="553.6984" clip-path="url(#clipPath2)" stroke="none">)</text>
      <rect fill="none" x="386.2413" width="30" height="30" y="534.5441" clip-path="url(#clipPath2)"/>
    </g>
    <g fill="white" text-rendering="geometricPrecision" shape-rendering="geometricPrecision" transform="matrix(1,0,0,1,-75,-17)" stroke="white">
      <rect x="356.2413" width="30" height="30" y="534.5441" clip-path="url(#clipPath2)" stroke="none"/>
    </g>
    <g text-rendering="geometricPrecision" stroke-miterlimit="1.45" shape-rendering="geometricPrecision" font-family="sans-serif" transform="matrix(1,0,0,1,-75,-17)" stroke-linecap="butt">
      <text x="357.4922" xml:space="preserve" y="553.6984" clip-path="url(#clipPath2)" stroke="none">pron</text>
      <rect fill="none" x="356.2413" width="30" height="30" y="534.5441" clip-path="url(#clipPath2)"/>
    </g>
    <g fill="white" text-rendering="geometricPrecision" shape-rendering="geometricPrecision" transform="matrix(1,0,0,1,-75,-17)" stroke="white">
      <rect x="416.2413" width="30" height="30" y="534.5441" clip-path="url(#clipPath2)" stroke="none"/>
    </g>
    <g text-rendering="geometricPrecision" stroke-miterlimit="1.45" shape-rendering="geometricPrecision" font-family="sans-serif" transform="matrix(1,0,0,1,-75,-17)" stroke-linecap="butt">
      <text x="423.8819" xml:space="preserve" y="553.6984" clip-path="url(#clipPath2)" stroke="none">vp</text>
      <rect fill="none" x="416.2413" width="30" height="30" y="534.5441" clip-path="url(#clipPath2)"/>
    </g>
    <g fill="white" text-rendering="geometricPrecision" shape-rendering="geometricPrecision" transform="matrix(1,0,0,1,-75,-17)" stroke="white">
      <rect x="446.2413" width="30" height="30" y="534.5441" clip-path="url(#clipPath2)" stroke="none"/>
    </g>
    <g text-rendering="geometricPrecision" stroke-miterlimit="1.45" shape-rendering="geometricPrecision" font-family="sans-serif" transform="matrix(1,0,0,1,-75,-17)" stroke-linecap="butt">
      <text x="458.9005" xml:space="preserve" y="553.6984" clip-path="url(#clipPath2)" stroke="none">(</text>
      <rect fill="none" x="446.2413" width="30" height="30" y="534.5441" clip-path="url(#clipPath2)"/>
    </g>
    <g fill="white" text-rendering="geometricPrecision" shape-rendering="geometricPrecision" transform="matrix(1,0,0,1,-75,-17)" stroke="white">
      <rect x="476.2413" width="30" height="30" y="534.5441" clip-path="url(#clipPath2)" stroke="none"/>
    </g>
    <g text-rendering="geometricPrecision" stroke-miterlimit="1.45" shape-rendering="geometricPrecision" font-family="sans-serif" transform="matrix(1,0,0,1,-75,-17)" stroke-linecap="butt">
      <text x="477.7237" xml:space="preserve" y="553.6984" clip-path="url(#clipPath2)" stroke="none">verb</text>
      <rect fill="none" x="476.2413" width="30" height="30" y="534.5441" clip-path="url(#clipPath2)"/>
    </g>
    <g fill="white" text-rendering="geometricPrecision" shape-rendering="geometricPrecision" transform="matrix(1,0,0,1,-75,-17)" stroke="white">
      <rect x="506.2413" width="30" height="30" y="534.5441" clip-path="url(#clipPath2)" stroke="none"/>
    </g>
    <g text-rendering="geometricPrecision" stroke-miterlimit="1.45" shape-rendering="geometricPrecision" font-family="sans-serif" transform="matrix(1,0,0,1,-75,-17)" stroke-linecap="butt">
      <text x="513.6299" xml:space="preserve" y="553.6984" clip-path="url(#clipPath2)" stroke="none">np</text>
      <rect fill="none" x="506.2413" width="30" height="30" y="534.5441" clip-path="url(#clipPath2)"/>
    </g>
    <g fill="white" text-rendering="geometricPrecision" shape-rendering="geometricPrecision" transform="matrix(1,0,0,1,-75,-17)" stroke="white">
      <rect x="536.2413" width="30" height="30" y="534.5441" clip-path="url(#clipPath2)" stroke="none"/>
    </g>
    <g text-rendering="geometricPrecision" stroke-miterlimit="1.45" shape-rendering="geometricPrecision" font-family="sans-serif" transform="matrix(1,0,0,1,-75,-17)" stroke-linecap="butt">
      <text x="548.9005" xml:space="preserve" y="553.6984" clip-path="url(#clipPath2)" stroke="none">(</text>
      <rect fill="none" x="536.2413" width="30" height="30" y="534.5441" clip-path="url(#clipPath2)"/>
    </g>
    <g fill="white" text-rendering="geometricPrecision" shape-rendering="geometricPrecision" transform="matrix(1,0,0,1,-75,-17)" stroke="white">
      <rect x="566.2413" width="30" height="30" y="534.5441" clip-path="url(#clipPath2)" stroke="none"/>
    </g>
    <g text-rendering="geometricPrecision" stroke-miterlimit="1.45" shape-rendering="geometricPrecision" font-family="sans-serif" transform="matrix(1,0,0,1,-75,-17)" stroke-linecap="butt">
      <text x="571.3887" xml:space="preserve" y="553.6984" clip-path="url(#clipPath2)" stroke="none">det</text>
      <rect fill="none" x="566.2413" width="30" height="30" y="534.5441" clip-path="url(#clipPath2)"/>
    </g>
    <g fill="white" text-rendering="geometricPrecision" shape-rendering="geometricPrecision" transform="matrix(1,0,0,1,-75,-17)" stroke="white">
      <rect x="91.119" width="30" height="30" y="203.3631" clip-path="url(#clipPath2)" stroke="none"/>
    </g>
    <g text-rendering="geometricPrecision" stroke-miterlimit="1.45" shape-rendering="geometricPrecision" font-family="sans-serif" transform="matrix(1,0,0,1,-75,-17)" stroke-linecap="butt">
      <text x="102.993" xml:space="preserve" y="222.5174" clip-path="url(#clipPath2)" stroke="none">s</text>
    </g>
    <g stroke-linecap="round" transform="matrix(1,0,0,1,-75,-17)" stroke-dashoffset="2" text-rendering="geometricPrecision" shape-rendering="geometricPrecision" stroke-dasharray="0,4" stroke-miterlimit="1.45">
      <rect fill="none" x="91.119" width="30" height="30" y="203.3631" clip-path="url(#clipPath2)"/>
    </g>
    <g fill="white" text-rendering="geometricPrecision" shape-rendering="geometricPrecision" transform="matrix(1,0,0,1,-75,-17)" stroke="white">
      <rect x="141.119" width="30" height="30" y="203.3631" clip-path="url(#clipPath2)" stroke="none"/>
    </g>
    <g text-rendering="geometricPrecision" stroke-miterlimit="1.45" shape-rendering="geometricPrecision" font-family="sans-serif" transform="matrix(1,0,0,1,-75,-17)" stroke-linecap="butt">
      <text x="148.7596" xml:space="preserve" y="222.5174" clip-path="url(#clipPath2)" stroke="none">vp</text>
    </g>
    <g stroke-linecap="round" transform="matrix(1,0,0,1,-75,-17)" stroke-dashoffset="2" text-rendering="geometricPrecision" shape-rendering="geometricPrecision" stroke-dasharray="0,4" stroke-miterlimit="1.45">
      <rect fill="none" x="141.119" width="30" height="30" y="203.3631" clip-path="url(#clipPath2)"/>
    </g>
    <g fill="white" text-rendering="geometricPrecision" shape-rendering="geometricPrecision" transform="matrix(1,0,0,1,-75,-17)" stroke="white">
      <rect x="191.119" width="30" height="30" y="203.3631" clip-path="url(#clipPath2)" stroke="none"/>
    </g>
    <g text-rendering="geometricPrecision" stroke-miterlimit="1.45" shape-rendering="geometricPrecision" font-family="sans-serif" transform="matrix(1,0,0,1,-75,-17)" stroke-linecap="butt">
      <text x="198.5077" xml:space="preserve" y="222.5174" clip-path="url(#clipPath2)" stroke="none">np</text>
    </g>
    <g stroke-linecap="round" transform="matrix(1,0,0,1,-75,-17)" stroke-dashoffset="2" text-rendering="geometricPrecision" shape-rendering="geometricPrecision" stroke-dasharray="0,4" stroke-miterlimit="1.45">
      <rect fill="none" x="191.119" width="30" height="30" y="203.3631" clip-path="url(#clipPath2)"/>
    </g>
    <g fill="white" text-rendering="geometricPrecision" shape-rendering="geometricPrecision" transform="matrix(1,0,0,1,-75,-17)" stroke="white">
      <rect x="241.119" width="30" height="30" y="203.3631" clip-path="url(#clipPath2)" stroke="none"/>
    </g>
    <g text-rendering="geometricPrecision" stroke-miterlimit="1.45" shape-rendering="geometricPrecision" font-family="sans-serif" transform="matrix(1,0,0,1,-75,-17)" stroke-linecap="butt">
      <text x="242.8006" xml:space="preserve" y="222.5174" clip-path="url(#clipPath2)" stroke="none">nom</text>
      <rect x="241.119" y="203.3631" clip-path="url(#clipPath2)" fill="none" width="30" stroke-dasharray="12,4" height="30" stroke-width="2"/>
    </g>
    <g fill="white" text-rendering="geometricPrecision" shape-rendering="geometricPrecision" transform="matrix(1,0,0,1,-75,-17)" stroke="white">
      <rect x="91.119" width="30" height="30" y="253.3631" clip-path="url(#clipPath2)" stroke="none"/>
    </g>
    <g text-rendering="geometricPrecision" stroke-miterlimit="1.45" shape-rendering="geometricPrecision" font-family="sans-serif" transform="matrix(1,0,0,1,-75,-17)" stroke-linecap="butt">
      <text x="98.5077" xml:space="preserve" y="272.5174" clip-path="url(#clipPath2)" stroke="none">np</text>
    </g>
    <g stroke-linecap="round" transform="matrix(1,0,0,1,-75,-17)" stroke-dashoffset="2" text-rendering="geometricPrecision" shape-rendering="geometricPrecision" stroke-dasharray="0,4" stroke-miterlimit="1.45">
      <rect fill="none" x="91.119" width="30" height="30" y="253.3631" clip-path="url(#clipPath2)"/>
    </g>
    <g fill="white" text-rendering="geometricPrecision" shape-rendering="geometricPrecision" transform="matrix(1,0,0,1,-75,-17)" stroke="white">
      <rect x="141.119" width="30" height="30" y="253.3631" clip-path="url(#clipPath2)" stroke="none"/>
    </g>
    <g text-rendering="geometricPrecision" stroke-miterlimit="1.45" shape-rendering="geometricPrecision" font-family="sans-serif" transform="matrix(1,0,0,1,-75,-17)" stroke-linecap="butt">
      <text x="148.7596" xml:space="preserve" y="272.5174" clip-path="url(#clipPath2)" stroke="none">vp</text>
      <rect fill="none" x="141.119" width="30" height="30" y="253.3631" clip-path="url(#clipPath2)"/>
    </g>
    <g fill="white" text-rendering="geometricPrecision" shape-rendering="geometricPrecision" transform="matrix(1,0,0,1,-75,-17)" stroke="white">
      <rect x="191.119" width="30" height="30" y="253.3631" clip-path="url(#clipPath2)" stroke="none"/>
    </g>
    <g text-rendering="geometricPrecision" stroke-miterlimit="1.45" shape-rendering="geometricPrecision" font-family="sans-serif" transform="matrix(1,0,0,1,-75,-17)" stroke-linecap="butt">
      <text x="196.2664" xml:space="preserve" y="272.5174" clip-path="url(#clipPath2)" stroke="none">det</text>
      <rect fill="none" x="191.119" width="30" height="30" y="253.3631" clip-path="url(#clipPath2)"/>
    </g>
    <g fill="white" text-rendering="geometricPrecision" shape-rendering="geometricPrecision" transform="matrix(1,0,0,1,-75,-17)" stroke="white">
      <rect x="241.119" width="30" height="30" y="253.3631" clip-path="url(#clipPath2)" stroke="none"/>
    </g>
    <g text-rendering="geometricPrecision" stroke-miterlimit="1.45" shape-rendering="geometricPrecision" font-family="sans-serif" transform="matrix(1,0,0,1,-75,-17)" stroke-linecap="butt">
      <text x="241.0399" xml:space="preserve" y="272.5174" clip-path="url(#clipPath2)" stroke="none">noun</text>
      <rect fill="none" x="241.119" width="30" height="30" y="253.3631" clip-path="url(#clipPath2)"/>
    </g>
    <g fill="white" text-rendering="geometricPrecision" shape-rendering="geometricPrecision" transform="matrix(1,0,0,1,-75,-17)" stroke="white">
      <rect x="91.119" width="30" height="30" y="303.3631" clip-path="url(#clipPath2)" stroke="none"/>
    </g>
    <g text-rendering="geometricPrecision" stroke-miterlimit="1.45" shape-rendering="geometricPrecision" font-family="sans-serif" transform="matrix(1,0,0,1,-75,-17)" stroke-linecap="butt">
      <text x="98.5077" xml:space="preserve" y="322.5174" clip-path="url(#clipPath2)" stroke="none">np</text>
      <rect fill="none" x="91.119" width="30" height="30" y="303.3631" clip-path="url(#clipPath2)"/>
    </g>
    <g fill="white" text-rendering="geometricPrecision" shape-rendering="geometricPrecision" transform="matrix(1,0,0,1,-75,-17)" stroke="white">
      <rect x="141.119" width="30" height="30" y="303.3631" clip-path="url(#clipPath2)" stroke="none"/>
    </g>
    <g text-rendering="geometricPrecision" stroke-miterlimit="1.45" shape-rendering="geometricPrecision" font-family="sans-serif" transform="matrix(1,0,0,1,-75,-17)" stroke-linecap="butt">
      <text x="148.7596" xml:space="preserve" y="322.5174" clip-path="url(#clipPath2)" stroke="none">vp</text>
      <rect fill="none" x="141.119" width="30" height="30" y="303.3631" clip-path="url(#clipPath2)"/>
    </g>
    <g fill="white" text-rendering="geometricPrecision" shape-rendering="geometricPrecision" transform="matrix(1,0,0,1,-75,-17)" stroke="white">
      <rect x="191.119" width="30" height="30" y="303.3631" clip-path="url(#clipPath2)" stroke="none"/>
    </g>
    <g text-rendering="geometricPrecision" stroke-miterlimit="1.45" shape-rendering="geometricPrecision" font-family="sans-serif" transform="matrix(1,0,0,1,-75,-17)" stroke-linecap="butt">
      <text x="196.2664" xml:space="preserve" y="322.5174" clip-path="url(#clipPath2)" stroke="none">det</text>
    </g>
    <g stroke-linecap="round" transform="matrix(1,0,0,1,-75,-17)" stroke-dashoffset="2" text-rendering="geometricPrecision" shape-rendering="geometricPrecision" stroke-dasharray="0,4" stroke-miterlimit="1.45">
      <rect fill="none" x="191.119" width="30" height="30" y="303.3631" clip-path="url(#clipPath2)"/>
    </g>
    <g fill="white" text-rendering="geometricPrecision" shape-rendering="geometricPrecision" transform="matrix(1,0,0,1,-75,-17)" stroke="white">
      <rect x="241.119" width="30" height="30" y="303.3631" clip-path="url(#clipPath2)" stroke="none"/>
    </g>
    <g text-rendering="geometricPrecision" stroke-miterlimit="1.45" shape-rendering="geometricPrecision" transform="matrix(1,0,0,1,-75,-17)" stroke-linecap="butt">
      <rect fill="none" x="241.119" width="30" height="30" y="303.3631" clip-path="url(#clipPath2)"/>
    </g>
    <g fill="white" text-rendering="geometricPrecision" shape-rendering="geometricPrecision" transform="matrix(1,0,0,1,-75,-17)" stroke="white">
      <rect x="91.119" width="30" height="30" y="353.3631" clip-path="url(#clipPath2)" stroke="none"/>
    </g>
    <g text-rendering="geometricPrecision" stroke-miterlimit="1.45" shape-rendering="geometricPrecision" font-family="sans-serif" transform="matrix(1,0,0,1,-75,-17)" stroke-linecap="butt">
      <text x="98.5077" xml:space="preserve" y="372.5174" clip-path="url(#clipPath2)" stroke="none">np</text>
      <rect fill="none" x="91.119" width="30" height="30" y="353.3631" clip-path="url(#clipPath2)"/>
    </g>
    <g fill="white" text-rendering="geometricPrecision" shape-rendering="geometricPrecision" transform="matrix(1,0,0,1,-75,-17)" stroke="white">
      <rect x="141.119" width="30" height="30" y="353.3631" clip-path="url(#clipPath2)" stroke="none"/>
    </g>
    <g text-rendering="geometricPrecision" stroke-miterlimit="1.45" shape-rendering="geometricPrecision" font-family="sans-serif" transform="matrix(1,0,0,1,-75,-17)" stroke-linecap="butt">
      <text x="142.6014" xml:space="preserve" y="372.5174" clip-path="url(#clipPath2)" stroke="none">verb</text>
    </g>
    <g stroke-linecap="round" transform="matrix(1,0,0,1,-75,-17)" stroke-dashoffset="2" text-rendering="geometricPrecision" shape-rendering="geometricPrecision" stroke-dasharray="0,4" stroke-miterlimit="1.45">
      <rect fill="none" x="141.119" width="30" height="30" y="353.3631" clip-path="url(#clipPath2)"/>
    </g>
    <g fill="white" text-rendering="geometricPrecision" shape-rendering="geometricPrecision" transform="matrix(1,0,0,1,-75,-17)" stroke="white">
      <rect x="191.119" width="30" height="30" y="353.3631" clip-path="url(#clipPath2)" stroke="none"/>
    </g>
    <g text-rendering="geometricPrecision" stroke-miterlimit="1.45" shape-rendering="geometricPrecision" transform="matrix(1,0,0,1,-75,-17)" stroke-linecap="butt">
      <rect fill="none" x="191.119" width="30" height="30" y="353.3631" clip-path="url(#clipPath2)"/>
    </g>
    <g fill="white" text-rendering="geometricPrecision" shape-rendering="geometricPrecision" transform="matrix(1,0,0,1,-75,-17)" stroke="white">
      <rect x="241.119" width="30" height="30" y="353.3631" clip-path="url(#clipPath2)" stroke="none"/>
    </g>
    <g text-rendering="geometricPrecision" stroke-miterlimit="1.45" shape-rendering="geometricPrecision" transform="matrix(1,0,0,1,-75,-17)" stroke-linecap="butt">
      <rect fill="none" x="241.119" width="30" height="30" y="353.3631" clip-path="url(#clipPath2)"/>
    </g>
    <g fill="white" text-rendering="geometricPrecision" shape-rendering="geometricPrecision" transform="matrix(1,0,0,1,-75,-17)" stroke="white">
      <rect x="91.119" width="30" height="30" y="403.3631" clip-path="url(#clipPath2)" stroke="none"/>
    </g>
    <g text-rendering="geometricPrecision" stroke-miterlimit="1.45" shape-rendering="geometricPrecision" font-family="sans-serif" transform="matrix(1,0,0,1,-75,-17)" stroke-linecap="butt">
      <text x="92.37" xml:space="preserve" y="422.5174" clip-path="url(#clipPath2)" stroke="none">pron</text>
    </g>
    <g stroke-linecap="round" transform="matrix(1,0,0,1,-75,-17)" stroke-dashoffset="2" text-rendering="geometricPrecision" shape-rendering="geometricPrecision" stroke-dasharray="0,4" stroke-miterlimit="1.45">
      <rect fill="none" x="91.119" width="30" height="30" y="403.3631" clip-path="url(#clipPath2)"/>
    </g>
    <g fill="white" text-rendering="geometricPrecision" shape-rendering="geometricPrecision" transform="matrix(1,0,0,1,-75,-17)" stroke="white">
      <rect x="141.119" width="30" height="30" y="403.3631" clip-path="url(#clipPath2)" stroke="none"/>
    </g>
    <g text-rendering="geometricPrecision" stroke-miterlimit="1.45" shape-rendering="geometricPrecision" transform="matrix(1,0,0,1,-75,-17)" stroke-linecap="butt">
      <rect fill="none" x="141.119" width="30" height="30" y="403.3631" clip-path="url(#clipPath2)"/>
    </g>
    <g fill="white" text-rendering="geometricPrecision" shape-rendering="geometricPrecision" transform="matrix(1,0,0,1,-75,-17)" stroke="white">
      <rect x="191.119" width="30" height="30" y="403.3631" clip-path="url(#clipPath2)" stroke="none"/>
    </g>
    <g text-rendering="geometricPrecision" stroke-miterlimit="1.45" shape-rendering="geometricPrecision" transform="matrix(1,0,0,1,-75,-17)" stroke-linecap="butt">
      <rect fill="none" x="191.119" width="30" height="30" y="403.3631" clip-path="url(#clipPath2)"/>
    </g>
    <g fill="white" text-rendering="geometricPrecision" shape-rendering="geometricPrecision" transform="matrix(1,0,0,1,-75,-17)" stroke="white">
      <rect x="241.119" width="30" height="30" y="403.3631" clip-path="url(#clipPath2)" stroke="none"/>
    </g>
    <g text-rendering="geometricPrecision" stroke-miterlimit="1.45" shape-rendering="geometricPrecision" transform="matrix(1,0,0,1,-75,-17)" stroke-linecap="butt">
      <rect fill="none" x="241.119" width="30" height="30" y="403.3631" clip-path="url(#clipPath2)"/>
    </g>
    <g fill="white" text-rendering="geometricPrecision" shape-rendering="geometricPrecision" transform="matrix(1,0,0,1,-75,-17)" stroke="white">
      <rect x="91.119" width="180" height="30" y="151.3631" clip-path="url(#clipPath2)" stroke="none"/>
    </g>
    <g text-rendering="geometricPrecision" stroke-miterlimit="1.45" shape-rendering="geometricPrecision" font-family="sans-serif" transform="matrix(1,0,0,1,-75,-17)" stroke-linecap="butt">
      <text x="148.5321" xml:space="preserve" y="170.5174" clip-path="url(#clipPath2)" stroke="none">CKY Matrix</text>
      <rect fill="none" x="91.119" width="180" height="30" y="151.3631" clip-path="url(#clipPath2)"/>
    </g>
    <g fill="white" text-rendering="geometricPrecision" shape-rendering="geometricPrecision" transform="matrix(1,0,0,1,-75,-17)" stroke="white">
      <rect x="372.8293" width="30" height="30" y="203.3631" clip-path="url(#clipPath2)" stroke="none"/>
    </g>
    <g text-rendering="geometricPrecision" stroke-miterlimit="1.45" shape-rendering="geometricPrecision" font-family="sans-serif" transform="matrix(1,0,0,1,-75,-17)" stroke-linecap="butt">
      <text x="384.7033" xml:space="preserve" y="222.5174" clip-path="url(#clipPath2)" stroke="none">s</text>
      <rect fill="none" x="372.8293" width="30" height="30" y="203.3631" clip-path="url(#clipPath2)"/>
    </g>
    <g fill="white" text-rendering="geometricPrecision" shape-rendering="geometricPrecision" transform="matrix(1,0,0,1,-75,-17)" stroke="white">
      <rect x="372.8293" width="30" height="30" y="270.7177" clip-path="url(#clipPath2)" stroke="none"/>
    </g>
    <g text-rendering="geometricPrecision" stroke-miterlimit="1.45" shape-rendering="geometricPrecision" font-family="sans-serif" transform="matrix(1,0,0,1,-75,-17)" stroke-linecap="butt">
      <text x="380.218" xml:space="preserve" y="289.872" clip-path="url(#clipPath2)" stroke="none">np</text>
      <rect fill="none" x="372.8293" width="30" height="30" y="270.7177" clip-path="url(#clipPath2)"/>
    </g>
    <g fill="white" text-rendering="geometricPrecision" shape-rendering="geometricPrecision" transform="matrix(1,0,0,1,-75,-17)" stroke="white">
      <rect x="372.8293" width="30" height="30" y="338.0724" clip-path="url(#clipPath2)" stroke="none"/>
    </g>
    <g text-rendering="geometricPrecision" stroke-miterlimit="1.45" shape-rendering="geometricPrecision" font-family="sans-serif" transform="matrix(1,0,0,1,-75,-17)" stroke-linecap="butt">
      <text x="374.0803" xml:space="preserve" y="357.2267" clip-path="url(#clipPath2)" stroke="none">pron</text>
      <rect stroke-linecap="round" x="372.8293" y="338.0724" clip-path="url(#clipPath2)" fill="none" width="30" stroke-dasharray="4,3,0,3" height="30"/>
    </g>
    <g fill="white" text-rendering="geometricPrecision" shape-rendering="geometricPrecision" transform="matrix(1,0,0,1,-75,-17)" stroke="white">
      <rect x="446.2413" width="30" height="30" y="270.7177" clip-path="url(#clipPath2)" stroke="none"/>
    </g>
    <g text-rendering="geometricPrecision" stroke-miterlimit="1.45" shape-rendering="geometricPrecision" font-family="sans-serif" transform="matrix(1,0,0,1,-75,-17)" stroke-linecap="butt">
      <text x="453.8819" xml:space="preserve" y="289.872" clip-path="url(#clipPath2)" stroke="none">vp</text>
      <rect fill="none" x="446.2413" width="30" height="30" y="270.7177" clip-path="url(#clipPath2)"/>
    </g>
    <g fill="white" text-rendering="geometricPrecision" shape-rendering="geometricPrecision" transform="matrix(1,0,0,1,-75,-17)" stroke="white">
      <rect x="446.2413" width="30" height="30" y="338.0724" clip-path="url(#clipPath2)" stroke="none"/>
    </g>
    <g text-rendering="geometricPrecision" stroke-miterlimit="1.45" shape-rendering="geometricPrecision" font-family="sans-serif" transform="matrix(1,0,0,1,-75,-17)" stroke-linecap="butt">
      <text x="447.7237" xml:space="preserve" y="357.2267" clip-path="url(#clipPath2)" stroke="none">verb</text>
      <rect stroke-linecap="round" x="446.2413" y="338.0724" clip-path="url(#clipPath2)" fill="none" width="30" stroke-dasharray="4,3,0,3" height="30"/>
    </g>
    <g fill="white" text-rendering="geometricPrecision" shape-rendering="geometricPrecision" transform="matrix(1,0,0,1,-75,-17)" stroke="white">
      <rect x="519.6533" width="30" height="30" y="338.0724" clip-path="url(#clipPath2)" stroke="none"/>
    </g>
    <g text-rendering="geometricPrecision" stroke-miterlimit="1.45" shape-rendering="geometricPrecision" font-family="sans-serif" transform="matrix(1,0,0,1,-75,-17)" stroke-linecap="butt">
      <text x="527.0419" xml:space="preserve" y="357.2267" clip-path="url(#clipPath2)" stroke="none">np</text>
      <rect fill="none" x="519.6533" width="30" height="30" y="338.0724" clip-path="url(#clipPath2)"/>
    </g>
    <g fill="white" text-rendering="geometricPrecision" shape-rendering="geometricPrecision" transform="matrix(1,0,0,1,-75,-17)" stroke="white">
      <rect x="519.6533" width="30" height="30" y="398.0724" clip-path="url(#clipPath2)" stroke="none"/>
    </g>
    <g text-rendering="geometricPrecision" stroke-miterlimit="1.45" shape-rendering="geometricPrecision" font-family="sans-serif" transform="matrix(1,0,0,1,-75,-17)" stroke-linecap="butt">
      <text x="524.8007" xml:space="preserve" y="417.2267" clip-path="url(#clipPath2)" stroke="none">det</text>
      <rect fill="none" x="519.6533" width="30" height="30" y="398.0724" clip-path="url(#clipPath2)"/>
    </g>
    <g fill="white" text-rendering="geometricPrecision" shape-rendering="geometricPrecision" transform="matrix(1,0,0,1,-75,-17)" stroke="white">
      <rect x="372.8293" width="237.6042" height="30" y="151.3631" clip-path="url(#clipPath2)" stroke="none"/>
    </g>
    <g text-rendering="geometricPrecision" stroke-miterlimit="1.45" shape-rendering="geometricPrecision" font-family="sans-serif" transform="matrix(1,0,0,1,-75,-17)" stroke-linecap="butt">
      <text x="478.1167" xml:space="preserve" y="170.5174" clip-path="url(#clipPath2)" stroke="none">Tree</text>
      <rect fill="none" x="372.8293" width="237.6042" height="30" y="151.3631" clip-path="url(#clipPath2)"/>
    </g>
    <g fill="white" text-rendering="geometricPrecision" shape-rendering="geometricPrecision" transform="matrix(1,0,0,1,-75,-17)" stroke="white">
      <rect x="91.4751" width="237.6042" height="30" y="453.3631" clip-path="url(#clipPath2)" stroke="none"/>
    </g>
    <g text-rendering="geometricPrecision" stroke-miterlimit="1.45" shape-rendering="geometricPrecision" font-family="sans-serif" transform="matrix(1,0,0,1,-75,-17)" stroke-linecap="butt">
      <text x="151.6424" xml:space="preserve" y="472.5174" clip-path="url(#clipPath2)" stroke="none">Stack &amp; Line Status</text>
      <rect fill="none" x="91.4751" width="237.6042" height="30" y="453.3631" clip-path="url(#clipPath2)"/>
    </g>
    <g fill="white" text-rendering="geometricPrecision" shape-rendering="geometricPrecision" transform="matrix(1,0,0,1,-75,-17)" stroke="white">
      <rect x="91.4751" width="518.9583" height="44.6667" y="32.305" clip-path="url(#clipPath2)" stroke="none"/>
    </g>
    <g font-size="11px" stroke-linecap="butt" transform="matrix(1,0,0,1,-75,-17)" text-rendering="geometricPrecision" font-family="sans-serif" shape-rendering="geometricPrecision" stroke-miterlimit="1.45">
      <text x="268.4086" xml:space="preserve" y="45.6418" clip-path="url(#clipPath2)" stroke="none">Tree_DFS of "I am a Function"</text>
      <text x="301.5107" xml:space="preserve" y="58.4464" clip-path="url(#clipPath2)" stroke="none">First Permutation:</text>
      <text x="296.1557" xml:space="preserve" y="71.2511" clip-path="url(#clipPath2)" stroke="none">Pron Verb Det Noun</text>
      <rect fill="none" x="91.4751" width="518.9583" height="44.6667" y="32.305" clip-path="url(#clipPath2)"/>
    </g>
    <g fill="white" text-rendering="geometricPrecision" shape-rendering="geometricPrecision" transform="matrix(1,0,0,1,-75,-17)" stroke="white">
      <rect x="91.4751" width="518.9583" height="30" y="99.1674" clip-path="url(#clipPath2)" stroke="none"/>
    </g>
    <g text-rendering="geometricPrecision" stroke-miterlimit="1.45" shape-rendering="geometricPrecision" font-family="sans-serif" transform="matrix(1,0,0,1,-75,-17)" stroke-linecap="butt">
      <text x="331.5685" xml:space="preserve" y="118.3217" clip-path="url(#clipPath2)" stroke="none">Step 7</text>
      <rect fill="none" x="91.4751" width="518.9583" height="30" y="99.1674" clip-path="url(#clipPath2)"/>
    </g>
    <g fill="white" text-rendering="geometricPrecision" shape-rendering="geometricPrecision" transform="matrix(1,0,0,1,-75,-17)" stroke="white">
      <rect x="91.119" width="518.9583" height="30" y="735.5441" clip-path="url(#clipPath2)" stroke="none"/>
    </g>
    <g text-rendering="geometricPrecision" stroke-miterlimit="1.45" shape-rendering="geometricPrecision" font-family="sans-serif" transform="matrix(1,0,0,1,-75,-17)" stroke-linecap="butt">
      <text x="322.1685" xml:space="preserve" y="754.6984" clip-path="url(#clipPath2)" stroke="none">Figure 37</text>
      <rect fill="none" x="91.119" width="518.9583" height="30" y="735.5441" clip-path="url(#clipPath2)"/>
      <path fill="none" d="M141.119 218.3631 L129.119 218.3631" clip-path="url(#clipPath2)"/>
      <path d="M121.119 218.3631 L133.119 223.3631 L130.119 218.3631 L133.119 213.3631 Z" clip-path="url(#clipPath2)" stroke="none"/>
      <path fill="none" d="M191.119 218.3631 L179.119 218.3631" clip-path="url(#clipPath2)"/>
      <path d="M171.119 218.3631 L183.119 223.3631 L180.119 218.3631 L183.119 213.3631 Z" clip-path="url(#clipPath2)" stroke="none"/>
      <path fill="none" d="M241.119 218.3631 L229.119 218.3631" clip-path="url(#clipPath2)"/>
      <path d="M221.119 218.3631 L233.119 223.3631 L230.119 218.3631 L233.119 213.3631 Z" clip-path="url(#clipPath2)" stroke="none"/>
      <path fill="none" d="M106.119 253.3631 L106.119 241.3631" clip-path="url(#clipPath2)"/>
      <path d="M106.119 233.3631 L101.119 245.3631 L106.119 242.3631 L111.119 245.3631 Z" clip-path="url(#clipPath2)" stroke="none"/>
    </g>
    <g text-rendering="geometricPrecision" stroke-miterlimit="1.45" shape-rendering="geometricPrecision" transform="matrix(1,0,0,1,-75,-17)" stroke-linecap="butt">
      <path fill="none" d="M156.119 233.3631 L149.869 248.3631 L154.619 245.5131 L154.619 253.3631 L157.619 253.3631 L157.619 245.5131 L162.369 248.3631 L156.119 233.3631 Z" clip-path="url(#clipPath2)"/>
    </g>
    <g text-rendering="geometricPrecision" stroke-miterlimit="1.45" shape-rendering="geometricPrecision" transform="matrix(1,0,0,1,-75,-17)" stroke-linecap="butt">
      <path fill="none" d="M206.119 253.3631 L206.119 241.3631" clip-path="url(#clipPath2)"/>
      <path d="M206.119 233.3631 L201.119 245.3631 L206.119 242.3631 L211.119 245.3631 Z" clip-path="url(#clipPath2)" stroke="none"/>
      <path fill="none" d="M256.119 253.3631 L256.119 241.3631" clip-path="url(#clipPath2)"/>
      <path d="M256.119 233.3631 L251.119 245.3631 L256.119 242.3631 L261.119 245.3631 Z" clip-path="url(#clipPath2)" stroke="none"/>
    </g>
    <g text-rendering="geometricPrecision" stroke-miterlimit="1.45" shape-rendering="geometricPrecision" transform="matrix(1,0,0,1,-75,-17)" stroke-linecap="butt">
      <path fill="none" d="M106.119 283.3631 L99.869 298.3631 L104.619 295.5131 L104.619 295.5131 L104.619 303.3631 L107.619 303.3631 L107.619 295.5131 L107.619 295.5131 L112.369 298.3631 L106.119 283.3631 Z" clip-path="url(#clipPath2)"/>
    </g>
    <g text-rendering="geometricPrecision" stroke-miterlimit="1.45" shape-rendering="geometricPrecision" transform="matrix(1,0,0,1,-75,-17)" stroke-linecap="butt">
      <path fill="none" d="M156.119 283.3631 L149.869 298.3631 L154.619 295.5131 L154.619 295.5131 L154.619 303.3631 L157.619 303.3631 L157.619 295.5131 L157.619 295.5131 L162.369 298.3631 L156.119 283.3631 Z" clip-path="url(#clipPath2)"/>
    </g>
    <g text-rendering="geometricPrecision" stroke-miterlimit="1.45" shape-rendering="geometricPrecision" transform="matrix(1,0,0,1,-75,-17)" stroke-linecap="butt">
      <path fill="none" d="M206.119 283.3631 L199.869 298.3631 L204.619 295.5131 L204.619 295.5131 L204.619 303.3631 L207.619 303.3631 L207.619 295.5131 L207.619 295.5131 L212.369 298.3631 L206.119 283.3631 Z" clip-path="url(#clipPath2)"/>
    </g>
    <g text-rendering="geometricPrecision" stroke-miterlimit="1.45" shape-rendering="geometricPrecision" transform="matrix(1,0,0,1,-75,-17)" stroke-linecap="butt">
      <path fill="none" d="M106.119 333.3631 L99.869 348.3631 L104.619 345.5131 L104.619 345.5131 L104.619 353.3631 L107.619 353.3631 L107.619 345.5131 L107.619 345.5131 L112.369 348.3631 L106.119 333.3631 Z" clip-path="url(#clipPath2)"/>
    </g>
    <g text-rendering="geometricPrecision" stroke-miterlimit="1.45" shape-rendering="geometricPrecision" transform="matrix(1,0,0,1,-75,-17)" stroke-linecap="butt">
      <path fill="none" d="M156.119 353.3631 L156.119 341.3631" clip-path="url(#clipPath2)"/>
      <path d="M156.119 333.3631 L151.119 345.3631 L156.119 342.3631 L161.119 345.3631 Z" clip-path="url(#clipPath2)" stroke="none"/>
      <path fill="none" d="M106.119 403.3631 L106.119 391.3631" clip-path="url(#clipPath2)"/>
      <path d="M106.119 383.3631 L101.119 395.3631 L106.119 392.3631 L111.119 395.3631 Z" clip-path="url(#clipPath2)" stroke="none"/>
      <path fill="none" d="M387.8293 233.3631 L387.8293 262.7177" clip-path="url(#clipPath2)"/>
      <path d="M387.8293 270.7177 L392.8293 258.7177 L387.8293 261.7177 L382.8293 258.7177 Z" clip-path="url(#clipPath2)" stroke="none"/>
      <path fill="none" d="M387.8293 300.7177 L387.8293 330.0724" clip-path="url(#clipPath2)"/>
      <path d="M387.8293 338.0724 L392.8293 326.0724 L387.8293 329.0724 L382.8293 326.0724 Z" clip-path="url(#clipPath2)" stroke="none"/>
      <path fill="none" d="M402.8293 232.1254 L440.3464 266.547" clip-path="url(#clipPath2)"/>
      <path d="M446.2413 271.9554 L440.7793 260.1585 L439.6096 265.8709 L434.0188 267.5271 Z" clip-path="url(#clipPath2)" stroke="none"/>
      <path fill="none" d="M461.2413 300.7177 L461.2413 330.0724" clip-path="url(#clipPath2)"/>
      <path d="M461.2413 338.0724 L466.2413 326.0724 L461.2413 329.0724 L456.2413 326.0724 Z" clip-path="url(#clipPath2)" stroke="none"/>
      <path fill="none" d="M476.2413 299.4801 L513.7584 333.9016" clip-path="url(#clipPath2)"/>
      <path d="M519.6533 339.31 L514.1913 327.5131 L513.0216 333.2256 L507.4308 334.8817 Z" clip-path="url(#clipPath2)" stroke="none"/>
      <path fill="none" d="M534.6533 368.0724 L534.6533 390.0724" clip-path="url(#clipPath2)"/>
      <path d="M534.6533 398.0724 L539.6533 386.0724 L534.6533 389.0724 L529.6533 386.0724 Z" clip-path="url(#clipPath2)" stroke="none"/>
    </g>
  </g>
</svg>
