<?xml version="1.0" encoding="UTF-8"?><svg xmlns="http://www.w3.org/2000/svg" xmlns:xlink="http://www.w3.org/1999/xlink" fill-opacity="1" color-rendering="auto" color-interpolation="auto" text-rendering="auto" stroke="black" stroke-linecap="square" width="703" stroke-miterlimit="10" shape-rendering="auto" stroke-opacity="1" fill="black" stroke-dasharray="none" font-weight="normal" stroke-width="1" height="314" font-family="'Dialog'" font-style="normal" stroke-linejoin="miter" font-size="12px" stroke-dashoffset="0" image-rendering="auto">
  <!--Generated by ySVG 2.5-->
  <defs id="genericDefs"/>
  <g>
    <defs id="defs1">
      <clipPath clipPathUnits="userSpaceOnUse" id="clipPath1">
        <path d="M0 0 L703 0 L703 314 L0 314 L0 0 Z"/>
      </clipPath>
      <clipPath clipPathUnits="userSpaceOnUse" id="clipPath2">
        <path d="M430 314 L1133 314 L1133 628 L430 628 L430 314 Z"/>
      </clipPath>
    </defs>
    <g fill="white" text-rendering="geometricPrecision" shape-rendering="geometricPrecision" transform="translate(-430,-314)" stroke="white">
      <rect x="430" width="703" height="314" y="314" clip-path="url(#clipPath2)" stroke="none"/>
    </g>
    <g font-size="15px" stroke-linecap="butt" transform="matrix(1,0,0,1,-430,-314)" text-rendering="geometricPrecision" font-family="sans-serif" shape-rendering="geometricPrecision" stroke-miterlimit="1.45">
      <text x="701.6777" xml:space="preserve" y="405.3719" clip-path="url(#clipPath2)" stroke="none">Iteration #5</text>
      <rect x="445.183" y="389.4486" clip-path="url(#clipPath2)" fill="none" width="349" stroke-dasharray="6,2" rx="4" ry="4" height="171.4609"/>
    </g>
    <g fill="white" text-rendering="geometricPrecision" shape-rendering="geometricPrecision" transform="matrix(1,0,0,1,-430,-314)" stroke="white">
      <rect x="708.183" width="71" height="30" y="425.9095" clip-path="url(#clipPath2)" stroke="none"/>
    </g>
    <g text-rendering="geometricPrecision" stroke-miterlimit="1.45" shape-rendering="geometricPrecision" font-family="sans-serif" transform="matrix(1,0,0,1,-430,-314)" stroke-linecap="butt">
      <text x="732.7436" xml:space="preserve" y="445.0638" clip-path="url(#clipPath2)" stroke="none">null</text>
      <rect fill="none" x="708.183" width="71" height="30" y="425.9095" clip-path="url(#clipPath2)"/>
    </g>
    <g fill="white" text-rendering="geometricPrecision" shape-rendering="geometricPrecision" transform="matrix(1,0,0,1,-430,-314)" stroke="white">
      <rect x="637.183" width="71" height="30" y="425.9095" clip-path="url(#clipPath2)" stroke="none"/>
    </g>
    <g text-rendering="geometricPrecision" stroke-miterlimit="1.45" shape-rendering="geometricPrecision" font-family="sans-serif" transform="matrix(1,0,0,1,-430,-314)" stroke-linecap="butt">
      <text x="661.7436" xml:space="preserve" y="445.0638" clip-path="url(#clipPath2)" stroke="none">null</text>
      <rect fill="none" x="637.183" width="71" height="30" y="425.9095" clip-path="url(#clipPath2)"/>
    </g>
    <g transform="matrix(1,0,0,1,-430,-314)" fill-opacity="0.0588" fill="rgb(0,0,0)" text-rendering="geometricPrecision" shape-rendering="geometricPrecision" stroke="rgb(0,0,0)" stroke-opacity="0.0588">
      <rect x="566.183" width="71" height="30" y="425.9095" clip-path="url(#clipPath2)" stroke="none"/>
    </g>
    <g stroke-linecap="butt" transform="matrix(1,0,0,1,-430,-314)" text-rendering="geometricPrecision" font-family="sans-serif" shape-rendering="geometricPrecision" font-style="italic" font-weight="bold" stroke-miterlimit="1.45">
      <text x="586.0356" xml:space="preserve" y="445.0638" clip-path="url(#clipPath2)" stroke="none">pron</text>
      <rect fill="none" x="566.183" width="71" height="30" y="425.9095" clip-path="url(#clipPath2)"/>
    </g>
    <g fill="white" text-rendering="geometricPrecision" shape-rendering="geometricPrecision" transform="matrix(1,0,0,1,-430,-314)" stroke="white">
      <rect x="460.183" width="71" height="30" y="425.9095" clip-path="url(#clipPath2)" stroke="none"/>
    </g>
    <g text-rendering="geometricPrecision" stroke-miterlimit="1.45" shape-rendering="geometricPrecision" font-family="sans-serif" transform="matrix(1,0,0,1,-430,-314)" stroke-linecap="butt">
      <text x="493.9135" xml:space="preserve" y="445.0638" clip-path="url(#clipPath2)" stroke="none">I</text>
      <rect fill="none" x="460.183" width="71" height="30" y="425.9095" clip-path="url(#clipPath2)"/>
    </g>
    <g fill="white" text-rendering="geometricPrecision" shape-rendering="geometricPrecision" transform="matrix(1,0,0,1,-430,-314)" stroke="white">
      <rect x="708.183" width="71" height="30" y="455.9095" clip-path="url(#clipPath2)" stroke="none"/>
    </g>
    <g text-rendering="geometricPrecision" stroke-miterlimit="1.45" shape-rendering="geometricPrecision" font-family="sans-serif" transform="matrix(1,0,0,1,-430,-314)" stroke-linecap="butt">
      <text x="732.7436" xml:space="preserve" y="475.0638" clip-path="url(#clipPath2)" stroke="none">null</text>
      <rect fill="none" x="708.183" width="71" height="30" y="455.9095" clip-path="url(#clipPath2)"/>
    </g>
    <g fill="white" text-rendering="geometricPrecision" shape-rendering="geometricPrecision" transform="matrix(1,0,0,1,-430,-314)" stroke="white">
      <rect x="637.183" width="71" height="30" y="455.9095" clip-path="url(#clipPath2)" stroke="none"/>
    </g>
    <g text-rendering="geometricPrecision" stroke-miterlimit="1.45" shape-rendering="geometricPrecision" font-family="sans-serif" transform="matrix(1,0,0,1,-430,-314)" stroke-linecap="butt">
      <text x="661.7436" xml:space="preserve" y="475.0638" clip-path="url(#clipPath2)" stroke="none">null</text>
      <rect fill="none" x="637.183" width="71" height="30" y="455.9095" clip-path="url(#clipPath2)"/>
    </g>
    <g transform="matrix(1,0,0,1,-430,-314)" fill-opacity="0.0588" fill="rgb(0,0,0)" text-rendering="geometricPrecision" shape-rendering="geometricPrecision" stroke="rgb(0,0,0)" stroke-opacity="0.0588">
      <rect x="566.183" width="71" height="30" y="455.9095" clip-path="url(#clipPath2)" stroke="none"/>
    </g>
    <g stroke-linecap="butt" transform="matrix(1,0,0,1,-430,-314)" text-rendering="geometricPrecision" font-family="sans-serif" shape-rendering="geometricPrecision" font-style="italic" font-weight="bold" stroke-miterlimit="1.45">
      <text x="586.4487" xml:space="preserve" y="475.0638" clip-path="url(#clipPath2)" stroke="none">verb</text>
      <rect fill="none" x="566.183" width="71" height="30" y="455.9095" clip-path="url(#clipPath2)"/>
    </g>
    <g fill="white" text-rendering="geometricPrecision" shape-rendering="geometricPrecision" transform="matrix(1,0,0,1,-430,-314)" stroke="white">
      <rect x="460.183" width="71" height="30" y="455.9095" clip-path="url(#clipPath2)" stroke="none"/>
    </g>
    <g text-rendering="geometricPrecision" stroke-miterlimit="1.45" shape-rendering="geometricPrecision" font-family="sans-serif" transform="matrix(1,0,0,1,-430,-314)" stroke-linecap="butt">
      <text x="485.7338" xml:space="preserve" y="475.0638" clip-path="url(#clipPath2)" stroke="none">Am</text>
      <rect fill="none" x="460.183" width="71" height="30" y="455.9095" clip-path="url(#clipPath2)"/>
    </g>
    <g fill="white" text-rendering="geometricPrecision" shape-rendering="geometricPrecision" transform="matrix(1,0,0,1,-430,-314)" stroke="white">
      <rect x="708.183" width="71" height="30" y="485.9095" clip-path="url(#clipPath2)" stroke="none"/>
    </g>
    <g text-rendering="geometricPrecision" stroke-miterlimit="1.45" shape-rendering="geometricPrecision" font-family="sans-serif" transform="matrix(1,0,0,1,-430,-314)" stroke-linecap="butt">
      <text x="732.7436" xml:space="preserve" y="505.0638" clip-path="url(#clipPath2)" stroke="none">null</text>
      <rect fill="none" x="708.183" width="71" height="30" y="485.9095" clip-path="url(#clipPath2)"/>
    </g>
    <g transform="matrix(1,0,0,1,-430,-314)" fill-opacity="0.0588" fill="rgb(0,0,0)" text-rendering="geometricPrecision" shape-rendering="geometricPrecision" stroke="rgb(0,0,0)" stroke-opacity="0.0588">
      <rect x="637.183" width="71" height="30" y="485.9095" clip-path="url(#clipPath2)" stroke="none"/>
    </g>
    <g stroke-linecap="butt" transform="matrix(1,0,0,1,-430,-314)" text-rendering="geometricPrecision" font-family="sans-serif" shape-rendering="geometricPrecision" font-style="italic" font-weight="bold" stroke-miterlimit="1.45">
      <text x="660.0268" xml:space="preserve" y="505.0638" clip-path="url(#clipPath2)" stroke="none">null</text>
      <rect fill="none" x="637.183" width="71" height="30" y="485.9095" clip-path="url(#clipPath2)"/>
      <text x="591.8305" y="505.0638" clip-path="url(#clipPath2)" font-style="normal" stroke="none" font-weight="normal" xml:space="preserve">det</text>
      <rect fill="none" x="566.183" width="71" height="30" y="485.9095" clip-path="url(#clipPath2)"/>
    </g>
    <g fill="white" text-rendering="geometricPrecision" shape-rendering="geometricPrecision" transform="matrix(1,0,0,1,-430,-314)" stroke="white">
      <rect x="460.183" width="71" height="30" y="485.9095" clip-path="url(#clipPath2)" stroke="none"/>
    </g>
    <g text-rendering="geometricPrecision" stroke-miterlimit="1.45" shape-rendering="geometricPrecision" font-family="sans-serif" transform="matrix(1,0,0,1,-430,-314)" stroke-linecap="butt">
      <text x="491.5785" xml:space="preserve" y="505.0638" clip-path="url(#clipPath2)" stroke="none">A</text>
      <rect fill="none" x="460.183" width="71" height="30" y="485.9095" clip-path="url(#clipPath2)"/>
      <text x="732.7436" xml:space="preserve" y="535.0638" clip-path="url(#clipPath2)" stroke="none">null</text>
      <rect fill="none" x="708.183" width="71" height="30" y="515.9095" clip-path="url(#clipPath2)"/>
    </g>
    <g transform="matrix(1,0,0,1,-430,-314)" fill-opacity="0.0588" fill="rgb(0,0,0)" text-rendering="geometricPrecision" shape-rendering="geometricPrecision" stroke="rgb(0,0,0)" stroke-opacity="0.0588">
      <rect x="637.183" width="71" height="30" y="515.9095" clip-path="url(#clipPath2)" stroke="none"/>
    </g>
    <g stroke-linecap="butt" transform="matrix(1,0,0,1,-430,-314)" text-rendering="geometricPrecision" font-family="sans-serif" shape-rendering="geometricPrecision" font-style="italic" font-weight="bold" stroke-miterlimit="1.45">
      <text x="655.7465" xml:space="preserve" y="535.0638" clip-path="url(#clipPath2)" stroke="none">noun</text>
      <rect fill="none" x="637.183" width="71" height="30" y="515.9095" clip-path="url(#clipPath2)"/>
    </g>
    <g transform="matrix(1,0,0,1,-430,-314)" fill-opacity="0" fill="rgb(0,0,0)" text-rendering="geometricPrecision" shape-rendering="geometricPrecision" stroke="rgb(0,0,0)" stroke-opacity="0">
      <rect x="566.183" width="71" height="30" y="515.9095" clip-path="url(#clipPath2)" stroke="none"/>
    </g>
    <g text-rendering="geometricPrecision" stroke-miterlimit="1.45" shape-rendering="geometricPrecision" font-family="sans-serif" transform="matrix(1,0,0,1,-430,-314)" stroke-linecap="butt">
      <text x="588.1655" xml:space="preserve" y="535.0638" clip-path="url(#clipPath2)" stroke="none">verb</text>
      <rect fill="none" x="566.183" width="71" height="30" y="515.9095" clip-path="url(#clipPath2)"/>
    </g>
    <g fill="white" text-rendering="geometricPrecision" shape-rendering="geometricPrecision" transform="matrix(1,0,0,1,-430,-314)" stroke="white">
      <rect x="460.183" width="71" height="30" y="515.9095" clip-path="url(#clipPath2)" stroke="none"/>
    </g>
    <g text-rendering="geometricPrecision" stroke-miterlimit="1.45" shape-rendering="geometricPrecision" font-family="sans-serif" transform="matrix(1,0,0,1,-430,-314)" stroke-linecap="butt">
      <text x="469.8344" xml:space="preserve" y="535.0638" clip-path="url(#clipPath2)" stroke="none">Function</text>
      <rect fill="none" x="460.183" width="71" height="30" y="515.9095" clip-path="url(#clipPath2)"/>
    </g>
    <g fill="white" text-rendering="geometricPrecision" shape-rendering="geometricPrecision" transform="matrix(1,0,0,1,-430,-314)" stroke="white">
      <rect x="1046.5147" width="71" height="30" y="460.1791" clip-path="url(#clipPath2)" stroke="none"/>
    </g>
    <g text-rendering="geometricPrecision" stroke-miterlimit="1.45" shape-rendering="geometricPrecision" font-family="sans-serif" transform="matrix(1,0,0,1,-430,-314)" stroke-linecap="butt">
      <text x="1066.9355" xml:space="preserve" y="479.3334" clip-path="url(#clipPath2)" stroke="none">noun</text>
      <rect fill="none" x="1046.5147" width="71" height="30" y="460.1791" clip-path="url(#clipPath2)"/>
    </g>
    <g fill="white" text-rendering="geometricPrecision" shape-rendering="geometricPrecision" transform="matrix(1,0,0,1,-430,-314)" stroke="white">
      <rect x="975.5147" width="71" height="30" y="460.1791" clip-path="url(#clipPath2)" stroke="none"/>
    </g>
    <g text-rendering="geometricPrecision" stroke-miterlimit="1.45" shape-rendering="geometricPrecision" font-family="sans-serif" transform="matrix(1,0,0,1,-430,-314)" stroke-linecap="butt">
      <text x="1001.7422" xml:space="preserve" y="479.3334" clip-path="url(#clipPath2)" stroke="none">nul</text>
      <rect fill="none" x="975.5147" width="71" height="30" y="460.1791" clip-path="url(#clipPath2)"/>
    </g>
    <g fill="white" text-rendering="geometricPrecision" shape-rendering="geometricPrecision" transform="matrix(1,0,0,1,-430,-314)" stroke="white">
      <rect x="904.5147" width="71" height="30" y="460.1791" clip-path="url(#clipPath2)" stroke="none"/>
    </g>
    <g text-rendering="geometricPrecision" stroke-miterlimit="1.45" shape-rendering="geometricPrecision" font-family="sans-serif" transform="matrix(1,0,0,1,-430,-314)" stroke-linecap="butt">
      <text x="926.4971" xml:space="preserve" y="479.3334" clip-path="url(#clipPath2)" stroke="none">verb</text>
      <rect fill="none" x="904.5147" width="71" height="30" y="460.1791" clip-path="url(#clipPath2)"/>
    </g>
    <g fill="white" text-rendering="geometricPrecision" shape-rendering="geometricPrecision" transform="matrix(1,0,0,1,-430,-314)" stroke="white">
      <rect x="833.5147" width="71" height="30" y="460.1791" clip-path="url(#clipPath2)" stroke="none"/>
    </g>
    <g text-rendering="geometricPrecision" stroke-miterlimit="1.45" shape-rendering="geometricPrecision" font-family="sans-serif" transform="matrix(1,0,0,1,-430,-314)" stroke-linecap="butt">
      <text x="855.2656" xml:space="preserve" y="479.3334" clip-path="url(#clipPath2)" stroke="none">pron</text>
      <rect fill="none" x="833.5147" width="71" height="30" y="460.1791" clip-path="url(#clipPath2)"/>
    </g>
    <g fill="white" text-rendering="geometricPrecision" shape-rendering="geometricPrecision" transform="matrix(1,0,0,1,-430,-314)" stroke="white">
      <rect x="445.183" width="672.6962" height="30" y="329.4486" clip-path="url(#clipPath2)" stroke="none"/>
    </g>
    <g text-rendering="geometricPrecision" stroke-miterlimit="1.45" shape-rendering="geometricPrecision" font-family="sans-serif" transform="matrix(1,0,0,1,-430,-314)" stroke-linecap="butt">
      <text x="513.2977" xml:space="preserve" y="348.6029" clip-path="url(#clipPath2)" stroke="none">Apply iterate(), and iterate over tokens to generate permutations of tokenized sentences</text>
      <rect fill="none" x="445.183" width="672.6962" height="30" y="329.4486" clip-path="url(#clipPath2)"/>
    </g>
    <g fill="white" text-rendering="geometricPrecision" shape-rendering="geometricPrecision" transform="matrix(1,0,0,1,-430,-314)" stroke="white">
      <rect x="445.183" width="672.6962" height="30" y="582.3705" clip-path="url(#clipPath2)" stroke="none"/>
    </g>
    <g text-rendering="geometricPrecision" stroke-miterlimit="1.45" shape-rendering="geometricPrecision" font-family="sans-serif" transform="matrix(1,0,0,1,-430,-314)" stroke-linecap="butt">
      <text x="753.1014" xml:space="preserve" y="601.5248" clip-path="url(#clipPath2)" stroke="none">Figure 44</text>
      <rect fill="none" x="445.183" width="672.6962" height="30" y="582.3705" clip-path="url(#clipPath2)"/>
      <path fill="none" d="M794.1725 475.1791 L825.5146 475.1791" clip-path="url(#clipPath2)"/>
      <path d="M833.5146 475.1791 L821.5146 470.1791 L824.5146 475.1791 L821.5146 480.1791 Z" clip-path="url(#clipPath2)" stroke="none"/>
    </g>
  </g>
</svg>
