<?xml version="1.0" encoding="UTF-8"?><svg xmlns="http://www.w3.org/2000/svg" xmlns:xlink="http://www.w3.org/1999/xlink" fill-opacity="1" color-rendering="auto" color-interpolation="auto" text-rendering="auto" stroke="black" stroke-linecap="square" width="484" stroke-miterlimit="10" shape-rendering="auto" stroke-opacity="1" fill="black" stroke-dasharray="none" font-weight="normal" stroke-width="1" height="415" font-family="'Dialog'" font-style="normal" stroke-linejoin="miter" font-size="12px" stroke-dashoffset="0" image-rendering="auto">
  <!--Generated by ySVG 2.5-->
  <defs id="genericDefs"/>
  <g>
    <defs id="defs1">
      <clipPath clipPathUnits="userSpaceOnUse" id="clipPath1">
        <path d="M0 0 L484 0 L484 415 L0 415 L0 0 Z"/>
      </clipPath>
      <clipPath clipPathUnits="userSpaceOnUse" id="clipPath2">
        <path d="M444 412 L928 412 L928 827 L444 827 L444 412 Z"/>
      </clipPath>
    </defs>
    <g fill="white" text-rendering="geometricPrecision" shape-rendering="geometricPrecision" transform="translate(-444,-412)" stroke="white">
      <rect x="444" width="484" height="415" y="412" clip-path="url(#clipPath2)" stroke="none"/>
    </g>
    <g fill="white" text-rendering="geometricPrecision" shape-rendering="geometricPrecision" transform="matrix(1,0,0,1,-444,-412)" stroke="white">
      <rect x="596" width="30" height="30" y="531" clip-path="url(#clipPath2)" stroke="none"/>
    </g>
    <g text-rendering="geometricPrecision" stroke-miterlimit="1.45" shape-rendering="geometricPrecision" transform="matrix(1,0,0,1,-444,-412)" stroke-linecap="butt">
      <rect fill="none" x="596" width="30" height="30" y="531" clip-path="url(#clipPath2)"/>
    </g>
    <g fill="white" text-rendering="geometricPrecision" shape-rendering="geometricPrecision" transform="matrix(1,0,0,1,-444,-412)" stroke="white">
      <rect x="646" width="30" height="30" y="531" clip-path="url(#clipPath2)" stroke="none"/>
    </g>
    <g text-rendering="geometricPrecision" stroke-miterlimit="1.45" shape-rendering="geometricPrecision" transform="matrix(1,0,0,1,-444,-412)" stroke-linecap="butt">
      <rect fill="none" x="646" width="30" height="30" y="531" clip-path="url(#clipPath2)"/>
    </g>
    <g fill="white" text-rendering="geometricPrecision" shape-rendering="geometricPrecision" transform="matrix(1,0,0,1,-444,-412)" stroke="white">
      <rect x="696" width="30" height="30" y="531" clip-path="url(#clipPath2)" stroke="none"/>
    </g>
    <g text-rendering="geometricPrecision" stroke-miterlimit="1.45" shape-rendering="geometricPrecision" font-family="sans-serif" transform="matrix(1,0,0,1,-444,-412)" stroke-linecap="butt">
      <text x="701.1475" xml:space="preserve" y="550.1543" clip-path="url(#clipPath2)" stroke="none">det</text>
      <rect fill="none" x="696" width="30" height="30" y="531" clip-path="url(#clipPath2)"/>
    </g>
    <g fill="white" text-rendering="geometricPrecision" shape-rendering="geometricPrecision" transform="matrix(1,0,0,1,-444,-412)" stroke="white">
      <rect x="746" width="30" height="30" y="531" clip-path="url(#clipPath2)" stroke="none"/>
    </g>
    <g text-rendering="geometricPrecision" stroke-miterlimit="1.45" shape-rendering="geometricPrecision" font-family="sans-serif" transform="matrix(1,0,0,1,-444,-412)" stroke-linecap="butt">
      <text x="753.6406" xml:space="preserve" y="550.1543" clip-path="url(#clipPath2)" stroke="none">vp</text>
      <rect fill="none" x="746" width="30" height="30" y="531" clip-path="url(#clipPath2)"/>
    </g>
    <g fill="white" text-rendering="geometricPrecision" shape-rendering="geometricPrecision" transform="matrix(1,0,0,1,-444,-412)" stroke="white">
      <rect x="596" width="30" height="30" y="581" clip-path="url(#clipPath2)" stroke="none"/>
    </g>
    <g text-rendering="geometricPrecision" stroke-miterlimit="1.45" shape-rendering="geometricPrecision" font-family="sans-serif" transform="matrix(1,0,0,1,-444,-412)" stroke-linecap="butt">
      <text x="603.3887" xml:space="preserve" y="600.1543" clip-path="url(#clipPath2)" stroke="none">np</text>
      <rect fill="none" x="596" width="30" height="30" y="581" clip-path="url(#clipPath2)"/>
    </g>
    <g fill="white" text-rendering="geometricPrecision" shape-rendering="geometricPrecision" transform="matrix(1,0,0,1,-444,-412)" stroke="white">
      <rect x="646" width="30" height="30" y="581" clip-path="url(#clipPath2)" stroke="none"/>
    </g>
    <g text-rendering="geometricPrecision" stroke-miterlimit="1.45" shape-rendering="geometricPrecision" font-family="sans-serif" transform="matrix(1,0,0,1,-444,-412)" stroke-linecap="butt">
      <text x="653.6406" xml:space="preserve" y="600.1543" clip-path="url(#clipPath2)" stroke="none">vp</text>
      <rect fill="none" x="646" width="30" height="30" y="581" clip-path="url(#clipPath2)"/>
    </g>
    <g fill="white" text-rendering="geometricPrecision" shape-rendering="geometricPrecision" transform="matrix(1,0,0,1,-444,-412)" stroke="white">
      <rect x="696" width="30" height="30" y="581" clip-path="url(#clipPath2)" stroke="none"/>
    </g>
    <g text-rendering="geometricPrecision" stroke-miterlimit="1.45" shape-rendering="geometricPrecision" font-family="sans-serif" transform="matrix(1,0,0,1,-444,-412)" stroke-linecap="butt">
      <text x="701.1475" xml:space="preserve" y="600.1543" clip-path="url(#clipPath2)" stroke="none">det</text>
      <rect fill="none" x="696" width="30" height="30" y="581" clip-path="url(#clipPath2)"/>
    </g>
    <g fill="white" text-rendering="geometricPrecision" shape-rendering="geometricPrecision" transform="matrix(1,0,0,1,-444,-412)" stroke="white">
      <rect x="746" width="30" height="30" y="581" clip-path="url(#clipPath2)" stroke="none"/>
    </g>
    <g text-rendering="geometricPrecision" stroke-miterlimit="1.45" shape-rendering="geometricPrecision" font-family="sans-serif" transform="matrix(1,0,0,1,-444,-412)" stroke-linecap="butt">
      <text x="747.4824" xml:space="preserve" y="600.1543" clip-path="url(#clipPath2)" stroke="none">verb</text>
      <rect fill="none" x="746" width="30" height="30" y="581" clip-path="url(#clipPath2)"/>
    </g>
    <g fill="white" text-rendering="geometricPrecision" shape-rendering="geometricPrecision" transform="matrix(1,0,0,1,-444,-412)" stroke="white">
      <rect x="596" width="30" height="30" y="631" clip-path="url(#clipPath2)" stroke="none"/>
    </g>
    <g text-rendering="geometricPrecision" stroke-miterlimit="1.45" shape-rendering="geometricPrecision" font-family="sans-serif" transform="matrix(1,0,0,1,-444,-412)" stroke-linecap="butt">
      <text x="603.3887" xml:space="preserve" y="650.1543" clip-path="url(#clipPath2)" stroke="none">np</text>
      <rect fill="none" x="596" width="30" height="30" y="631" clip-path="url(#clipPath2)"/>
    </g>
    <g fill="white" text-rendering="geometricPrecision" shape-rendering="geometricPrecision" transform="matrix(1,0,0,1,-444,-412)" stroke="white">
      <rect x="646" width="30" height="30" y="631" clip-path="url(#clipPath2)" stroke="none"/>
    </g>
    <g text-rendering="geometricPrecision" stroke-miterlimit="1.45" shape-rendering="geometricPrecision" font-family="sans-serif" transform="matrix(1,0,0,1,-444,-412)" stroke-linecap="butt">
      <text x="653.6406" xml:space="preserve" y="650.1543" clip-path="url(#clipPath2)" stroke="none">vp</text>
      <rect fill="none" x="646" width="30" height="30" y="631" clip-path="url(#clipPath2)"/>
    </g>
    <g fill="white" text-rendering="geometricPrecision" shape-rendering="geometricPrecision" transform="matrix(1,0,0,1,-444,-412)" stroke="white">
      <rect x="696" width="30" height="30" y="631" clip-path="url(#clipPath2)" stroke="none"/>
    </g>
    <g text-rendering="geometricPrecision" stroke-miterlimit="1.45" shape-rendering="geometricPrecision" font-family="sans-serif" transform="matrix(1,0,0,1,-444,-412)" stroke-linecap="butt">
      <text x="701.1475" xml:space="preserve" y="650.1543" clip-path="url(#clipPath2)" stroke="none">det</text>
      <rect fill="none" x="696" width="30" height="30" y="631" clip-path="url(#clipPath2)"/>
    </g>
    <g fill="white" text-rendering="geometricPrecision" shape-rendering="geometricPrecision" transform="matrix(1,0,0,1,-444,-412)" stroke="white">
      <rect x="746" width="30" height="30" y="631" clip-path="url(#clipPath2)" stroke="none"/>
    </g>
    <g text-rendering="geometricPrecision" stroke-miterlimit="1.45" shape-rendering="geometricPrecision" transform="matrix(1,0,0,1,-444,-412)" stroke-linecap="butt">
      <rect fill="none" x="746" width="30" height="30" y="631" clip-path="url(#clipPath2)"/>
    </g>
    <g fill="white" text-rendering="geometricPrecision" shape-rendering="geometricPrecision" transform="matrix(1,0,0,1,-444,-412)" stroke="white">
      <rect x="596" width="30" height="30" y="681" clip-path="url(#clipPath2)" stroke="none"/>
    </g>
    <g text-rendering="geometricPrecision" stroke-miterlimit="1.45" shape-rendering="geometricPrecision" font-family="sans-serif" transform="matrix(1,0,0,1,-444,-412)" stroke-linecap="butt">
      <text x="603.3887" xml:space="preserve" y="700.1543" clip-path="url(#clipPath2)" stroke="none">np</text>
      <rect fill="none" x="596" width="30" height="30" y="681" clip-path="url(#clipPath2)"/>
    </g>
    <g fill="white" text-rendering="geometricPrecision" shape-rendering="geometricPrecision" transform="matrix(1,0,0,1,-444,-412)" stroke="white">
      <rect x="646" width="30" height="30" y="681" clip-path="url(#clipPath2)" stroke="none"/>
    </g>
    <g text-rendering="geometricPrecision" stroke-miterlimit="1.45" shape-rendering="geometricPrecision" font-family="sans-serif" transform="matrix(1,0,0,1,-444,-412)" stroke-linecap="butt">
      <text x="647.4824" xml:space="preserve" y="700.1543" clip-path="url(#clipPath2)" stroke="none">verb</text>
      <rect fill="none" x="646" width="30" height="30" y="681" clip-path="url(#clipPath2)"/>
    </g>
    <g fill="white" text-rendering="geometricPrecision" shape-rendering="geometricPrecision" transform="matrix(1,0,0,1,-444,-412)" stroke="white">
      <rect x="696" width="30" height="30" y="681" clip-path="url(#clipPath2)" stroke="none"/>
    </g>
    <g text-rendering="geometricPrecision" stroke-miterlimit="1.45" shape-rendering="geometricPrecision" transform="matrix(1,0,0,1,-444,-412)" stroke-linecap="butt">
      <rect fill="none" x="696" width="30" height="30" y="681" clip-path="url(#clipPath2)"/>
    </g>
    <g fill="white" text-rendering="geometricPrecision" shape-rendering="geometricPrecision" transform="matrix(1,0,0,1,-444,-412)" stroke="white">
      <rect x="746" width="30" height="30" y="681" clip-path="url(#clipPath2)" stroke="none"/>
    </g>
    <g text-rendering="geometricPrecision" stroke-miterlimit="1.45" shape-rendering="geometricPrecision" transform="matrix(1,0,0,1,-444,-412)" stroke-linecap="butt">
      <rect fill="none" x="746" width="30" height="30" y="681" clip-path="url(#clipPath2)"/>
    </g>
    <g fill="white" text-rendering="geometricPrecision" shape-rendering="geometricPrecision" transform="matrix(1,0,0,1,-444,-412)" stroke="white">
      <rect x="596" width="30" height="30" y="731" clip-path="url(#clipPath2)" stroke="none"/>
    </g>
    <g text-rendering="geometricPrecision" stroke-miterlimit="1.45" shape-rendering="geometricPrecision" font-family="sans-serif" transform="matrix(1,0,0,1,-444,-412)" stroke-linecap="butt">
      <text x="597.251" xml:space="preserve" y="750.1543" clip-path="url(#clipPath2)" stroke="none">pron</text>
      <rect fill="none" x="596" width="30" height="30" y="731" clip-path="url(#clipPath2)"/>
    </g>
    <g fill="white" text-rendering="geometricPrecision" shape-rendering="geometricPrecision" transform="matrix(1,0,0,1,-444,-412)" stroke="white">
      <rect x="646" width="30" height="30" y="731" clip-path="url(#clipPath2)" stroke="none"/>
    </g>
    <g text-rendering="geometricPrecision" stroke-miterlimit="1.45" shape-rendering="geometricPrecision" transform="matrix(1,0,0,1,-444,-412)" stroke-linecap="butt">
      <rect fill="none" x="646" width="30" height="30" y="731" clip-path="url(#clipPath2)"/>
    </g>
    <g fill="white" text-rendering="geometricPrecision" shape-rendering="geometricPrecision" transform="matrix(1,0,0,1,-444,-412)" stroke="white">
      <rect x="696" width="30" height="30" y="731" clip-path="url(#clipPath2)" stroke="none"/>
    </g>
    <g text-rendering="geometricPrecision" stroke-miterlimit="1.45" shape-rendering="geometricPrecision" transform="matrix(1,0,0,1,-444,-412)" stroke-linecap="butt">
      <rect fill="none" x="696" width="30" height="30" y="731" clip-path="url(#clipPath2)"/>
    </g>
    <g fill="white" text-rendering="geometricPrecision" shape-rendering="geometricPrecision" transform="matrix(1,0,0,1,-444,-412)" stroke="white">
      <rect x="746" width="30" height="30" y="731" clip-path="url(#clipPath2)" stroke="none"/>
    </g>
    <g text-rendering="geometricPrecision" stroke-miterlimit="1.45" shape-rendering="geometricPrecision" transform="matrix(1,0,0,1,-444,-412)" stroke-linecap="butt">
      <rect fill="none" x="746" width="30" height="30" y="731" clip-path="url(#clipPath2)"/>
    </g>
    <g fill="white" text-rendering="geometricPrecision" shape-rendering="geometricPrecision" transform="matrix(1,0,0,1,-444,-412)" stroke="white">
      <rect x="596" width="180" height="30" y="479" clip-path="url(#clipPath2)" stroke="none"/>
    </g>
    <g text-rendering="geometricPrecision" stroke-miterlimit="1.45" shape-rendering="geometricPrecision" font-family="sans-serif" transform="matrix(1,0,0,1,-444,-412)" stroke-linecap="butt">
      <text x="660.8896" xml:space="preserve" y="498.1543" clip-path="url(#clipPath2)" stroke="none">Step 3.0</text>
      <rect fill="none" x="596" width="180" height="30" y="479" clip-path="url(#clipPath2)"/>
    </g>
    <g fill="white" text-rendering="geometricPrecision" shape-rendering="geometricPrecision" transform="matrix(1,0,0,1,-444,-412)" stroke="white">
      <rect x="459.5" width="453" height="30" y="427" clip-path="url(#clipPath2)" stroke="none"/>
    </g>
    <g text-rendering="geometricPrecision" stroke-miterlimit="1.45" shape-rendering="geometricPrecision" font-family="sans-serif" transform="matrix(1,0,0,1,-444,-412)" stroke-linecap="butt">
      <text x="492.6436" xml:space="preserve" y="446.1543" clip-path="url(#clipPath2)" stroke="none">CKY of "I am a Function" - First Permutation: Pron Verb Det Verb</text>
      <rect fill="none" x="459.5" width="453" height="30" y="427" clip-path="url(#clipPath2)"/>
    </g>
    <g fill="white" text-rendering="geometricPrecision" shape-rendering="geometricPrecision" transform="matrix(1,0,0,1,-444,-412)" stroke="white">
      <rect x="459.5" width="453" height="30" y="781" clip-path="url(#clipPath2)" stroke="none"/>
    </g>
    <g text-rendering="geometricPrecision" stroke-miterlimit="1.45" shape-rendering="geometricPrecision" font-family="sans-serif" transform="matrix(1,0,0,1,-444,-412)" stroke-linecap="butt">
      <text x="657.5703" xml:space="preserve" y="800.1543" clip-path="url(#clipPath2)" stroke="none">Figure 10</text>
      <rect fill="none" x="459.5" width="453" height="30" y="781" clip-path="url(#clipPath2)"/>
    </g>
    <g text-rendering="geometricPrecision" stroke-miterlimit="1.45" shape-rendering="geometricPrecision" transform="matrix(1,0,0,1,-444,-412)" stroke-linecap="butt">
      <path fill="none" d="M711 561 L704.75 576 L709.5 573.15 L709.5 581 L712.5 581 L712.5 573.15 L717.25 576 L711 561 Z" clip-path="url(#clipPath2)"/>
    </g>
    <g text-rendering="geometricPrecision" stroke-miterlimit="1.45" shape-rendering="geometricPrecision" transform="matrix(1,0,0,1,-444,-412)" stroke-linecap="butt">
      <path fill="none" d="M761 581 L761 569" clip-path="url(#clipPath2)"/>
      <path d="M761 561 L756 573 L761 570 L766 573 Z" clip-path="url(#clipPath2)" stroke="none"/>
    </g>
    <g text-rendering="geometricPrecision" stroke-miterlimit="1.45" shape-rendering="geometricPrecision" transform="matrix(1,0,0,1,-444,-412)" stroke-linecap="butt">
      <path fill="none" d="M611 611 L604.75 626 L609.5 623.15 L609.5 631 L612.5 631 L612.5 623.15 L617.25 626 L611 611 Z" clip-path="url(#clipPath2)"/>
    </g>
    <g text-rendering="geometricPrecision" stroke-miterlimit="1.45" shape-rendering="geometricPrecision" transform="matrix(1,0,0,1,-444,-412)" stroke-linecap="butt">
      <path fill="none" d="M661 611 L654.75 626 L659.5 623.15 L659.5 631 L662.5 631 L662.5 623.15 L667.25 626 L661 611 Z" clip-path="url(#clipPath2)"/>
    </g>
    <g text-rendering="geometricPrecision" stroke-miterlimit="1.45" shape-rendering="geometricPrecision" transform="matrix(1,0,0,1,-444,-412)" stroke-linecap="butt">
      <path fill="none" d="M711 611 L704.75 626 L709.5 623.15 L709.5 631 L712.5 631 L712.5 623.15 L717.25 626 L711 611 Z" clip-path="url(#clipPath2)"/>
    </g>
    <g text-rendering="geometricPrecision" stroke-miterlimit="1.45" shape-rendering="geometricPrecision" transform="matrix(1,0,0,1,-444,-412)" stroke-linecap="butt">
      <path fill="none" d="M611 661 L604.75 676 L609.5 673.15 L609.5 681 L612.5 681 L612.5 673.15 L617.25 676 L611 661 Z" clip-path="url(#clipPath2)"/>
    </g>
    <g text-rendering="geometricPrecision" stroke-miterlimit="1.45" shape-rendering="geometricPrecision" transform="matrix(1,0,0,1,-444,-412)" stroke-linecap="butt">
      <path fill="none" d="M661 681 L661 669" clip-path="url(#clipPath2)"/>
      <path d="M661 661 L656 673 L661 670 L666 673 Z" clip-path="url(#clipPath2)" stroke="none"/>
      <path fill="none" d="M611 731 L611 719" clip-path="url(#clipPath2)"/>
      <path d="M611 711 L606 723 L611 720 L616 723 Z" clip-path="url(#clipPath2)" stroke="none"/>
    </g>
  </g>
</svg>
