<?xml version="1.0" encoding="UTF-8"?><svg xmlns="http://www.w3.org/2000/svg" xmlns:xlink="http://www.w3.org/1999/xlink" fill-opacity="1" color-rendering="auto" color-interpolation="auto" text-rendering="auto" stroke="black" stroke-linecap="square" width="591" stroke-miterlimit="10" shape-rendering="auto" stroke-opacity="1" fill="black" stroke-dasharray="none" font-weight="normal" stroke-width="1" height="800" font-family="'Dialog'" font-style="normal" stroke-linejoin="miter" font-size="12px" stroke-dashoffset="0" image-rendering="auto">
  <!--Generated by ySVG 2.5-->
  <defs id="genericDefs"/>
  <g>
    <defs id="defs1">
      <clipPath clipPathUnits="userSpaceOnUse" id="clipPath1">
        <path d="M0 0 L591 0 L591 800 L0 800 L0 0 Z"/>
      </clipPath>
      <clipPath clipPathUnits="userSpaceOnUse" id="clipPath2">
        <path d="M429 314 L1020 314 L1020 1114 L429 1114 L429 314 Z"/>
      </clipPath>
    </defs>
    <g fill="white" text-rendering="geometricPrecision" shape-rendering="geometricPrecision" transform="translate(-429,-314)" stroke="white">
      <rect x="429" width="591" height="800" y="314" clip-path="url(#clipPath2)" stroke="none"/>
    </g>
    <g fill="white" text-rendering="geometricPrecision" shape-rendering="geometricPrecision" transform="matrix(1,0,0,1,-429,-314)" stroke="white">
      <rect x="445.4027" width="30" height="30" y="493.3109" clip-path="url(#clipPath2)" stroke="none"/>
    </g>
    <g text-rendering="geometricPrecision" stroke-miterlimit="1.45" shape-rendering="geometricPrecision" font-family="sans-serif" transform="matrix(1,0,0,1,-429,-314)" stroke-linecap="butt">
      <text x="457.2767" xml:space="preserve" y="512.4652" clip-path="url(#clipPath2)" stroke="none">s</text>
    </g>
    <g stroke-linecap="round" transform="matrix(1,0,0,1,-429,-314)" stroke-dashoffset="2" text-rendering="geometricPrecision" shape-rendering="geometricPrecision" stroke-dasharray="0,4" stroke-miterlimit="1.45">
      <rect fill="none" x="445.4027" width="30" height="30" y="493.3109" clip-path="url(#clipPath2)"/>
    </g>
    <g fill="white" text-rendering="geometricPrecision" shape-rendering="geometricPrecision" transform="matrix(1,0,0,1,-429,-314)" stroke="white">
      <rect x="495.4027" width="30" height="30" y="493.3109" clip-path="url(#clipPath2)" stroke="none"/>
    </g>
    <g text-rendering="geometricPrecision" stroke-miterlimit="1.45" shape-rendering="geometricPrecision" font-family="sans-serif" transform="matrix(1,0,0,1,-429,-314)" stroke-linecap="butt">
      <text x="503.0433" xml:space="preserve" y="512.4652" clip-path="url(#clipPath2)" stroke="none">vp</text>
    </g>
    <g stroke-linecap="round" transform="matrix(1,0,0,1,-429,-314)" stroke-dashoffset="2" text-rendering="geometricPrecision" shape-rendering="geometricPrecision" stroke-dasharray="0,4" stroke-miterlimit="1.45">
      <rect fill="none" x="495.4027" width="30" height="30" y="493.3109" clip-path="url(#clipPath2)"/>
    </g>
    <g fill="white" text-rendering="geometricPrecision" shape-rendering="geometricPrecision" transform="matrix(1,0,0,1,-429,-314)" stroke="white">
      <rect x="545.4027" width="30" height="30" y="493.3109" clip-path="url(#clipPath2)" stroke="none"/>
    </g>
    <g text-rendering="geometricPrecision" stroke-miterlimit="1.45" shape-rendering="geometricPrecision" font-family="sans-serif" transform="matrix(1,0,0,1,-429,-314)" stroke-linecap="butt">
      <text x="552.7914" xml:space="preserve" y="512.4652" clip-path="url(#clipPath2)" stroke="none">np</text>
    </g>
    <g stroke-linecap="round" transform="matrix(1,0,0,1,-429,-314)" stroke-dashoffset="2" text-rendering="geometricPrecision" shape-rendering="geometricPrecision" stroke-dasharray="0,4" stroke-miterlimit="1.45">
      <rect fill="none" x="545.4027" width="30" height="30" y="493.3109" clip-path="url(#clipPath2)"/>
    </g>
    <g fill="white" text-rendering="geometricPrecision" shape-rendering="geometricPrecision" transform="matrix(1,0,0,1,-429,-314)" stroke="white">
      <rect x="595.4027" width="30" height="30" y="493.3109" clip-path="url(#clipPath2)" stroke="none"/>
    </g>
    <g text-rendering="geometricPrecision" stroke-miterlimit="1.45" shape-rendering="geometricPrecision" font-family="sans-serif" transform="matrix(1,0,0,1,-429,-314)" stroke-linecap="butt">
      <text x="597.0844" xml:space="preserve" y="512.4652" clip-path="url(#clipPath2)" stroke="none">nom</text>
    </g>
    <g stroke-linecap="round" transform="matrix(1,0,0,1,-429,-314)" stroke-dashoffset="2" text-rendering="geometricPrecision" shape-rendering="geometricPrecision" stroke-dasharray="0,4" stroke-miterlimit="1.45">
      <rect fill="none" x="595.4027" width="30" height="30" y="493.3109" clip-path="url(#clipPath2)"/>
    </g>
    <g fill="white" text-rendering="geometricPrecision" shape-rendering="geometricPrecision" transform="matrix(1,0,0,1,-429,-314)" stroke="white">
      <rect x="445.4027" width="30" height="30" y="543.3109" clip-path="url(#clipPath2)" stroke="none"/>
    </g>
    <g text-rendering="geometricPrecision" stroke-miterlimit="1.45" shape-rendering="geometricPrecision" font-family="sans-serif" transform="matrix(1,0,0,1,-429,-314)" stroke-linecap="butt">
      <text x="452.7914" xml:space="preserve" y="562.4652" clip-path="url(#clipPath2)" stroke="none">np</text>
    </g>
    <g stroke-linecap="round" transform="matrix(1,0,0,1,-429,-314)" stroke-dashoffset="2" text-rendering="geometricPrecision" shape-rendering="geometricPrecision" stroke-dasharray="0,4" stroke-miterlimit="1.45">
      <rect fill="none" x="445.4027" width="30" height="30" y="543.3109" clip-path="url(#clipPath2)"/>
    </g>
    <g fill="white" text-rendering="geometricPrecision" shape-rendering="geometricPrecision" transform="matrix(1,0,0,1,-429,-314)" stroke="white">
      <rect x="495.4027" width="30" height="30" y="543.3109" clip-path="url(#clipPath2)" stroke="none"/>
    </g>
    <g text-rendering="geometricPrecision" stroke-miterlimit="1.45" shape-rendering="geometricPrecision" font-family="sans-serif" transform="matrix(1,0,0,1,-429,-314)" stroke-linecap="butt">
      <text x="503.0433" xml:space="preserve" y="562.4652" clip-path="url(#clipPath2)" stroke="none">vp</text>
      <rect fill="none" x="495.4027" width="30" height="30" y="543.3109" clip-path="url(#clipPath2)"/>
    </g>
    <g fill="white" text-rendering="geometricPrecision" shape-rendering="geometricPrecision" transform="matrix(1,0,0,1,-429,-314)" stroke="white">
      <rect x="545.4027" width="30" height="30" y="543.3109" clip-path="url(#clipPath2)" stroke="none"/>
    </g>
    <g text-rendering="geometricPrecision" stroke-miterlimit="1.45" shape-rendering="geometricPrecision" font-family="sans-serif" transform="matrix(1,0,0,1,-429,-314)" stroke-linecap="butt">
      <text x="550.5502" xml:space="preserve" y="562.4652" clip-path="url(#clipPath2)" stroke="none">det</text>
      <rect fill="none" x="545.4027" width="30" height="30" y="543.3109" clip-path="url(#clipPath2)"/>
    </g>
    <g fill="white" text-rendering="geometricPrecision" shape-rendering="geometricPrecision" transform="matrix(1,0,0,1,-429,-314)" stroke="white">
      <rect x="595.4027" width="30" height="30" y="543.3109" clip-path="url(#clipPath2)" stroke="none"/>
    </g>
    <g text-rendering="geometricPrecision" stroke-miterlimit="1.45" shape-rendering="geometricPrecision" font-family="sans-serif" transform="matrix(1,0,0,1,-429,-314)" stroke-linecap="butt">
      <text x="595.3236" xml:space="preserve" y="562.4652" clip-path="url(#clipPath2)" stroke="none">noun</text>
      <rect x="595.4027" y="543.3109" clip-path="url(#clipPath2)" fill="none" width="30" stroke-dasharray="12,4" height="30" stroke-width="2"/>
    </g>
    <g fill="white" text-rendering="geometricPrecision" shape-rendering="geometricPrecision" transform="matrix(1,0,0,1,-429,-314)" stroke="white">
      <rect x="445.4027" width="30" height="30" y="593.3109" clip-path="url(#clipPath2)" stroke="none"/>
    </g>
    <g text-rendering="geometricPrecision" stroke-miterlimit="1.45" shape-rendering="geometricPrecision" font-family="sans-serif" transform="matrix(1,0,0,1,-429,-314)" stroke-linecap="butt">
      <text x="452.7914" xml:space="preserve" y="612.4652" clip-path="url(#clipPath2)" stroke="none">np</text>
      <rect fill="none" x="445.4027" width="30" height="30" y="593.3109" clip-path="url(#clipPath2)"/>
    </g>
    <g fill="white" text-rendering="geometricPrecision" shape-rendering="geometricPrecision" transform="matrix(1,0,0,1,-429,-314)" stroke="white">
      <rect x="495.4027" width="30" height="30" y="593.3109" clip-path="url(#clipPath2)" stroke="none"/>
    </g>
    <g text-rendering="geometricPrecision" stroke-miterlimit="1.45" shape-rendering="geometricPrecision" font-family="sans-serif" transform="matrix(1,0,0,1,-429,-314)" stroke-linecap="butt">
      <text x="503.0433" xml:space="preserve" y="612.4652" clip-path="url(#clipPath2)" stroke="none">vp</text>
      <rect fill="none" x="495.4027" width="30" height="30" y="593.3109" clip-path="url(#clipPath2)"/>
    </g>
    <g fill="white" text-rendering="geometricPrecision" shape-rendering="geometricPrecision" transform="matrix(1,0,0,1,-429,-314)" stroke="white">
      <rect x="545.4027" width="30" height="30" y="593.3109" clip-path="url(#clipPath2)" stroke="none"/>
    </g>
    <g text-rendering="geometricPrecision" stroke-miterlimit="1.45" shape-rendering="geometricPrecision" font-family="sans-serif" transform="matrix(1,0,0,1,-429,-314)" stroke-linecap="butt">
      <text x="550.5502" xml:space="preserve" y="612.4652" clip-path="url(#clipPath2)" stroke="none">det</text>
    </g>
    <g stroke-linecap="round" transform="matrix(1,0,0,1,-429,-314)" stroke-dashoffset="2" text-rendering="geometricPrecision" shape-rendering="geometricPrecision" stroke-dasharray="0,4" stroke-miterlimit="1.45">
      <rect fill="none" x="545.4027" width="30" height="30" y="593.3109" clip-path="url(#clipPath2)"/>
    </g>
    <g fill="white" text-rendering="geometricPrecision" shape-rendering="geometricPrecision" transform="matrix(1,0,0,1,-429,-314)" stroke="white">
      <rect x="595.4027" width="30" height="30" y="593.3109" clip-path="url(#clipPath2)" stroke="none"/>
    </g>
    <g text-rendering="geometricPrecision" stroke-miterlimit="1.45" shape-rendering="geometricPrecision" transform="matrix(1,0,0,1,-429,-314)" stroke-linecap="butt">
      <rect fill="none" x="595.4027" width="30" height="30" y="593.3109" clip-path="url(#clipPath2)"/>
    </g>
    <g fill="white" text-rendering="geometricPrecision" shape-rendering="geometricPrecision" transform="matrix(1,0,0,1,-429,-314)" stroke="white">
      <rect x="445.4027" width="30" height="30" y="643.3109" clip-path="url(#clipPath2)" stroke="none"/>
    </g>
    <g text-rendering="geometricPrecision" stroke-miterlimit="1.45" shape-rendering="geometricPrecision" font-family="sans-serif" transform="matrix(1,0,0,1,-429,-314)" stroke-linecap="butt">
      <text x="452.7914" xml:space="preserve" y="662.4652" clip-path="url(#clipPath2)" stroke="none">np</text>
      <rect fill="none" x="445.4027" width="30" height="30" y="643.3109" clip-path="url(#clipPath2)"/>
    </g>
    <g fill="white" text-rendering="geometricPrecision" shape-rendering="geometricPrecision" transform="matrix(1,0,0,1,-429,-314)" stroke="white">
      <rect x="495.4027" width="30" height="30" y="643.3109" clip-path="url(#clipPath2)" stroke="none"/>
    </g>
    <g text-rendering="geometricPrecision" stroke-miterlimit="1.45" shape-rendering="geometricPrecision" font-family="sans-serif" transform="matrix(1,0,0,1,-429,-314)" stroke-linecap="butt">
      <text x="496.8851" xml:space="preserve" y="662.4652" clip-path="url(#clipPath2)" stroke="none">verb</text>
    </g>
    <g stroke-linecap="round" transform="matrix(1,0,0,1,-429,-314)" stroke-dashoffset="2" text-rendering="geometricPrecision" shape-rendering="geometricPrecision" stroke-dasharray="0,4" stroke-miterlimit="1.45">
      <rect fill="none" x="495.4027" width="30" height="30" y="643.3109" clip-path="url(#clipPath2)"/>
    </g>
    <g fill="white" text-rendering="geometricPrecision" shape-rendering="geometricPrecision" transform="matrix(1,0,0,1,-429,-314)" stroke="white">
      <rect x="545.4027" width="30" height="30" y="643.3109" clip-path="url(#clipPath2)" stroke="none"/>
    </g>
    <g text-rendering="geometricPrecision" stroke-miterlimit="1.45" shape-rendering="geometricPrecision" transform="matrix(1,0,0,1,-429,-314)" stroke-linecap="butt">
      <rect fill="none" x="545.4027" width="30" height="30" y="643.3109" clip-path="url(#clipPath2)"/>
    </g>
    <g fill="white" text-rendering="geometricPrecision" shape-rendering="geometricPrecision" transform="matrix(1,0,0,1,-429,-314)" stroke="white">
      <rect x="595.4027" width="30" height="30" y="643.3109" clip-path="url(#clipPath2)" stroke="none"/>
    </g>
    <g text-rendering="geometricPrecision" stroke-miterlimit="1.45" shape-rendering="geometricPrecision" transform="matrix(1,0,0,1,-429,-314)" stroke-linecap="butt">
      <rect fill="none" x="595.4027" width="30" height="30" y="643.3109" clip-path="url(#clipPath2)"/>
    </g>
    <g fill="white" text-rendering="geometricPrecision" shape-rendering="geometricPrecision" transform="matrix(1,0,0,1,-429,-314)" stroke="white">
      <rect x="445.4027" width="30" height="30" y="693.3109" clip-path="url(#clipPath2)" stroke="none"/>
    </g>
    <g text-rendering="geometricPrecision" stroke-miterlimit="1.45" shape-rendering="geometricPrecision" font-family="sans-serif" transform="matrix(1,0,0,1,-429,-314)" stroke-linecap="butt">
      <text x="446.6537" xml:space="preserve" y="712.4652" clip-path="url(#clipPath2)" stroke="none">pron</text>
    </g>
    <g stroke-linecap="round" transform="matrix(1,0,0,1,-429,-314)" stroke-dashoffset="2" text-rendering="geometricPrecision" shape-rendering="geometricPrecision" stroke-dasharray="0,4" stroke-miterlimit="1.45">
      <rect fill="none" x="445.4027" width="30" height="30" y="693.3109" clip-path="url(#clipPath2)"/>
    </g>
    <g fill="white" text-rendering="geometricPrecision" shape-rendering="geometricPrecision" transform="matrix(1,0,0,1,-429,-314)" stroke="white">
      <rect x="495.4027" width="30" height="30" y="693.3109" clip-path="url(#clipPath2)" stroke="none"/>
    </g>
    <g text-rendering="geometricPrecision" stroke-miterlimit="1.45" shape-rendering="geometricPrecision" transform="matrix(1,0,0,1,-429,-314)" stroke-linecap="butt">
      <rect fill="none" x="495.4027" width="30" height="30" y="693.3109" clip-path="url(#clipPath2)"/>
    </g>
    <g fill="white" text-rendering="geometricPrecision" shape-rendering="geometricPrecision" transform="matrix(1,0,0,1,-429,-314)" stroke="white">
      <rect x="545.4027" width="30" height="30" y="693.3109" clip-path="url(#clipPath2)" stroke="none"/>
    </g>
    <g text-rendering="geometricPrecision" stroke-miterlimit="1.45" shape-rendering="geometricPrecision" transform="matrix(1,0,0,1,-429,-314)" stroke-linecap="butt">
      <rect fill="none" x="545.4027" width="30" height="30" y="693.3109" clip-path="url(#clipPath2)"/>
    </g>
    <g fill="white" text-rendering="geometricPrecision" shape-rendering="geometricPrecision" transform="matrix(1,0,0,1,-429,-314)" stroke="white">
      <rect x="595.4027" width="30" height="30" y="693.3109" clip-path="url(#clipPath2)" stroke="none"/>
    </g>
    <g text-rendering="geometricPrecision" stroke-miterlimit="1.45" shape-rendering="geometricPrecision" transform="matrix(1,0,0,1,-429,-314)" stroke-linecap="butt">
      <rect fill="none" x="595.4027" width="30" height="30" y="693.3109" clip-path="url(#clipPath2)"/>
    </g>
    <g fill="white" text-rendering="geometricPrecision" shape-rendering="geometricPrecision" transform="matrix(1,0,0,1,-429,-314)" stroke="white">
      <rect x="445.4027" width="180" height="30" y="441.3109" clip-path="url(#clipPath2)" stroke="none"/>
    </g>
    <g text-rendering="geometricPrecision" stroke-miterlimit="1.45" shape-rendering="geometricPrecision" font-family="sans-serif" transform="matrix(1,0,0,1,-429,-314)" stroke-linecap="butt">
      <text x="502.8158" xml:space="preserve" y="460.4652" clip-path="url(#clipPath2)" stroke="none">CKY Matrix</text>
      <rect fill="none" x="445.4027" width="180" height="30" y="441.3109" clip-path="url(#clipPath2)"/>
    </g>
    <g fill="white" text-rendering="geometricPrecision" shape-rendering="geometricPrecision" transform="matrix(1,0,0,1,-429,-314)" stroke="white">
      <rect x="726.7388" width="30" height="30" y="493.3109" clip-path="url(#clipPath2)" stroke="none"/>
    </g>
    <g text-rendering="geometricPrecision" stroke-miterlimit="1.45" shape-rendering="geometricPrecision" font-family="sans-serif" transform="matrix(1,0,0,1,-429,-314)" stroke-linecap="butt">
      <text x="738.6129" xml:space="preserve" y="512.4652" clip-path="url(#clipPath2)" stroke="none">s</text>
      <rect fill="none" x="726.7388" width="30" height="30" y="493.3109" clip-path="url(#clipPath2)"/>
    </g>
    <g fill="white" text-rendering="geometricPrecision" shape-rendering="geometricPrecision" transform="matrix(1,0,0,1,-429,-314)" stroke="white">
      <rect x="726.7388" width="30" height="30" y="560.6655" clip-path="url(#clipPath2)" stroke="none"/>
    </g>
    <g text-rendering="geometricPrecision" stroke-miterlimit="1.45" shape-rendering="geometricPrecision" font-family="sans-serif" transform="matrix(1,0,0,1,-429,-314)" stroke-linecap="butt">
      <text x="734.1275" xml:space="preserve" y="579.8198" clip-path="url(#clipPath2)" stroke="none">np</text>
      <rect fill="none" x="726.7388" width="30" height="30" y="560.6655" clip-path="url(#clipPath2)"/>
    </g>
    <g fill="white" text-rendering="geometricPrecision" shape-rendering="geometricPrecision" transform="matrix(1,0,0,1,-429,-314)" stroke="white">
      <rect x="726.7388" width="30" height="30" y="628.0202" clip-path="url(#clipPath2)" stroke="none"/>
    </g>
    <g text-rendering="geometricPrecision" stroke-miterlimit="1.45" shape-rendering="geometricPrecision" font-family="sans-serif" transform="matrix(1,0,0,1,-429,-314)" stroke-linecap="butt">
      <text x="727.9898" xml:space="preserve" y="647.1745" clip-path="url(#clipPath2)" stroke="none">pron</text>
      <rect stroke-linecap="round" x="726.7388" y="628.0202" clip-path="url(#clipPath2)" fill="none" width="30" stroke-dasharray="4,3,0,3" height="30"/>
    </g>
    <g fill="white" text-rendering="geometricPrecision" shape-rendering="geometricPrecision" transform="matrix(1,0,0,1,-429,-314)" stroke="white">
      <rect x="800.1508" width="30" height="30" y="560.6655" clip-path="url(#clipPath2)" stroke="none"/>
    </g>
    <g text-rendering="geometricPrecision" stroke-miterlimit="1.45" shape-rendering="geometricPrecision" font-family="sans-serif" transform="matrix(1,0,0,1,-429,-314)" stroke-linecap="butt">
      <text x="807.7914" xml:space="preserve" y="579.8198" clip-path="url(#clipPath2)" stroke="none">vp</text>
      <rect fill="none" x="800.1508" width="30" height="30" y="560.6655" clip-path="url(#clipPath2)"/>
    </g>
    <g fill="white" text-rendering="geometricPrecision" shape-rendering="geometricPrecision" transform="matrix(1,0,0,1,-429,-314)" stroke="white">
      <rect x="800.1508" width="30" height="30" y="628.0202" clip-path="url(#clipPath2)" stroke="none"/>
    </g>
    <g text-rendering="geometricPrecision" stroke-miterlimit="1.45" shape-rendering="geometricPrecision" font-family="sans-serif" transform="matrix(1,0,0,1,-429,-314)" stroke-linecap="butt">
      <text x="801.6332" xml:space="preserve" y="647.1745" clip-path="url(#clipPath2)" stroke="none">verb</text>
      <rect stroke-linecap="round" x="800.1508" y="628.0202" clip-path="url(#clipPath2)" fill="none" width="30" stroke-dasharray="4,3,0,3" height="30"/>
    </g>
    <g fill="white" text-rendering="geometricPrecision" shape-rendering="geometricPrecision" transform="matrix(1,0,0,1,-429,-314)" stroke="white">
      <rect x="873.5628" width="30" height="30" y="628.0202" clip-path="url(#clipPath2)" stroke="none"/>
    </g>
    <g text-rendering="geometricPrecision" stroke-miterlimit="1.45" shape-rendering="geometricPrecision" font-family="sans-serif" transform="matrix(1,0,0,1,-429,-314)" stroke-linecap="butt">
      <text x="880.9515" xml:space="preserve" y="647.1745" clip-path="url(#clipPath2)" stroke="none">np</text>
      <rect fill="none" x="873.5628" width="30" height="30" y="628.0202" clip-path="url(#clipPath2)"/>
    </g>
    <g fill="white" text-rendering="geometricPrecision" shape-rendering="geometricPrecision" transform="matrix(1,0,0,1,-429,-314)" stroke="white">
      <rect x="873.5628" width="30" height="30" y="688.0202" clip-path="url(#clipPath2)" stroke="none"/>
    </g>
    <g text-rendering="geometricPrecision" stroke-miterlimit="1.45" shape-rendering="geometricPrecision" font-family="sans-serif" transform="matrix(1,0,0,1,-429,-314)" stroke-linecap="butt">
      <text x="878.7103" xml:space="preserve" y="707.1745" clip-path="url(#clipPath2)" stroke="none">det</text>
      <rect fill="none" x="873.5628" width="30" height="30" y="688.0202" clip-path="url(#clipPath2)"/>
    </g>
    <g fill="white" text-rendering="geometricPrecision" shape-rendering="geometricPrecision" transform="matrix(1,0,0,1,-429,-314)" stroke="white">
      <rect x="946.9748" width="30" height="30" y="688.0202" clip-path="url(#clipPath2)" stroke="none"/>
    </g>
    <g text-rendering="geometricPrecision" stroke-miterlimit="1.45" shape-rendering="geometricPrecision" font-family="sans-serif" transform="matrix(1,0,0,1,-429,-314)" stroke-linecap="butt">
      <text x="948.6564" xml:space="preserve" y="707.1745" clip-path="url(#clipPath2)" stroke="none">nom</text>
      <rect fill="none" x="946.9748" width="30" height="30" y="688.0202" clip-path="url(#clipPath2)"/>
      <path fill="none" d="M495.4027 508.3109 L483.4027 508.3109" clip-path="url(#clipPath2)"/>
      <path d="M475.4027 508.3109 L487.4027 513.3109 L484.4027 508.3109 L487.4027 503.3109 Z" clip-path="url(#clipPath2)" stroke="none"/>
      <path fill="none" d="M545.4027 508.3109 L533.4027 508.3109" clip-path="url(#clipPath2)"/>
      <path d="M525.4027 508.3109 L537.4027 513.3109 L534.4027 508.3109 L537.4027 503.3109 Z" clip-path="url(#clipPath2)" stroke="none"/>
      <path fill="none" d="M595.4027 508.3109 L583.4027 508.3109" clip-path="url(#clipPath2)"/>
      <path d="M575.4027 508.3109 L587.4027 513.3109 L584.4027 508.3109 L587.4027 503.3109 Z" clip-path="url(#clipPath2)" stroke="none"/>
      <path fill="none" d="M460.4027 543.3109 L460.4027 531.3109" clip-path="url(#clipPath2)"/>
      <path d="M460.4027 523.3109 L455.4027 535.3109 L460.4027 532.3109 L465.4027 535.3109 Z" clip-path="url(#clipPath2)" stroke="none"/>
    </g>
    <g text-rendering="geometricPrecision" stroke-miterlimit="1.45" shape-rendering="geometricPrecision" transform="matrix(1,0,0,1,-429,-314)" stroke-linecap="butt">
      <path fill="none" d="M510.4027 523.3109 L504.1527 538.3109 L508.9027 535.4609 L508.9027 535.4609 L508.9027 543.3109 L511.9027 543.3109 L511.9027 535.4609 L511.9027 535.4609 L516.6527 538.3109 L510.4027 523.3109 Z" clip-path="url(#clipPath2)"/>
    </g>
    <g text-rendering="geometricPrecision" stroke-miterlimit="1.45" shape-rendering="geometricPrecision" transform="matrix(1,0,0,1,-429,-314)" stroke-linecap="butt">
      <path fill="none" d="M560.4027 543.3109 L560.4027 531.3109" clip-path="url(#clipPath2)"/>
      <path d="M560.4027 523.3109 L555.4027 535.3109 L560.4027 532.3109 L565.4027 535.3109 Z" clip-path="url(#clipPath2)" stroke="none"/>
      <path fill="none" d="M610.4027 543.3109 L610.4027 531.3109" clip-path="url(#clipPath2)"/>
      <path d="M610.4027 523.3109 L605.4027 535.3109 L610.4027 532.3109 L615.4027 535.3109 Z" clip-path="url(#clipPath2)" stroke="none"/>
    </g>
    <g text-rendering="geometricPrecision" stroke-miterlimit="1.45" shape-rendering="geometricPrecision" transform="matrix(1,0,0,1,-429,-314)" stroke-linecap="butt">
      <path fill="none" d="M460.4027 573.3109 L454.1527 588.3109 L458.9027 585.4609 L458.9027 585.4609 L458.9027 593.3109 L461.9027 593.3109 L461.9027 585.4609 L461.9027 585.4609 L466.6527 588.3109 L460.4027 573.3109 Z" clip-path="url(#clipPath2)"/>
    </g>
    <g text-rendering="geometricPrecision" stroke-miterlimit="1.45" shape-rendering="geometricPrecision" transform="matrix(1,0,0,1,-429,-314)" stroke-linecap="butt">
      <path fill="none" d="M510.4027 573.3109 L504.1527 588.3109 L508.9027 585.4609 L508.9027 585.4609 L508.9027 593.3109 L511.9027 593.3109 L511.9027 585.4609 L511.9027 585.4609 L516.6527 588.3109 L510.4027 573.3109 Z" clip-path="url(#clipPath2)"/>
    </g>
    <g text-rendering="geometricPrecision" stroke-miterlimit="1.45" shape-rendering="geometricPrecision" transform="matrix(1,0,0,1,-429,-314)" stroke-linecap="butt">
      <path fill="none" d="M560.4027 573.3109 L554.1527 588.3109 L558.9027 585.4609 L558.9027 593.3109 L561.9027 593.3109 L561.9027 585.4609 L566.6527 588.3109 L560.4027 573.3109 Z" clip-path="url(#clipPath2)"/>
    </g>
    <g text-rendering="geometricPrecision" stroke-miterlimit="1.45" shape-rendering="geometricPrecision" transform="matrix(1,0,0,1,-429,-314)" stroke-linecap="butt">
      <path fill="none" d="M460.4027 623.3109 L454.1527 638.3109 L458.9027 635.4609 L458.9027 635.4609 L458.9027 643.3109 L461.9027 643.3109 L461.9027 635.4609 L461.9027 635.4609 L466.6527 638.3109 L460.4027 623.3109 Z" clip-path="url(#clipPath2)"/>
    </g>
    <g text-rendering="geometricPrecision" stroke-miterlimit="1.45" shape-rendering="geometricPrecision" transform="matrix(1,0,0,1,-429,-314)" stroke-linecap="butt">
      <path fill="none" d="M510.4027 643.3109 L510.4027 631.3109" clip-path="url(#clipPath2)"/>
      <path d="M510.4027 623.3109 L505.4027 635.3109 L510.4027 632.3109 L515.4027 635.3109 Z" clip-path="url(#clipPath2)" stroke="none"/>
      <path fill="none" d="M460.4027 693.3109 L460.4027 681.3109" clip-path="url(#clipPath2)"/>
      <path d="M460.4027 673.3109 L455.4027 685.3109 L460.4027 682.3109 L465.4027 685.3109 Z" clip-path="url(#clipPath2)" stroke="none"/>
      <path fill="none" d="M741.7388 523.3109 L741.7388 552.6655" clip-path="url(#clipPath2)"/>
      <path d="M741.7388 560.6655 L746.7388 548.6655 L741.7388 551.6655 L736.7388 548.6655 Z" clip-path="url(#clipPath2)" stroke="none"/>
      <path fill="none" d="M741.7388 590.6655 L741.7388 620.0202" clip-path="url(#clipPath2)"/>
      <path d="M741.7388 628.0202 L746.7388 616.0202 L741.7388 619.0202 L736.7388 616.0202 Z" clip-path="url(#clipPath2)" stroke="none"/>
      <path fill="none" d="M756.7388 522.0732 L794.256 556.4948" clip-path="url(#clipPath2)"/>
      <path d="M800.1508 561.9032 L794.6888 550.1063 L793.5191 555.8187 L787.9283 557.4749 Z" clip-path="url(#clipPath2)" stroke="none"/>
      <path fill="none" d="M815.1508 590.6655 L815.1508 620.0202" clip-path="url(#clipPath2)"/>
      <path d="M815.1508 628.0202 L820.1508 616.0202 L815.1508 619.0202 L810.1508 616.0202 Z" clip-path="url(#clipPath2)" stroke="none"/>
      <path fill="none" d="M830.1508 589.4279 L867.668 623.8494" clip-path="url(#clipPath2)"/>
      <path d="M873.5628 629.2579 L868.1008 617.4609 L866.9312 623.1734 L861.3403 624.8295 Z" clip-path="url(#clipPath2)" stroke="none"/>
      <path fill="none" d="M888.5628 658.0202 L888.5628 680.0202" clip-path="url(#clipPath2)"/>
      <path d="M888.5628 688.0202 L893.5628 676.0202 L888.5628 679.0202 L883.5628 676.0202 Z" clip-path="url(#clipPath2)" stroke="none"/>
      <path fill="none" d="M903.5628 655.2798 L940.7805 685.6979" clip-path="url(#clipPath2)"/>
      <path d="M946.9748 690.7606 L940.8475 679.2952 L940.0062 685.0651 L934.5192 687.0381 Z" clip-path="url(#clipPath2)" stroke="none"/>
      <text x="971.6041" font-size="15px" y="804.9634" clip-path="url(#clipPath2)" font-family="sans-serif" stroke="none" xml:space="preserve">Line</text>
      <rect x="554.8638" y="789.0401" clip-path="url(#clipPath2)" fill="none" width="450" stroke-dasharray="6,2" rx="4" ry="4" height="81.4609"/>
    </g>
    <g fill="white" text-rendering="geometricPrecision" shape-rendering="geometricPrecision" transform="matrix(1,0,0,1,-429,-314)" stroke="white">
      <rect x="959.8638" width="30" height="30" y="825.501" clip-path="url(#clipPath2)" stroke="none"/>
    </g>
    <g text-rendering="geometricPrecision" stroke-miterlimit="1.45" shape-rendering="geometricPrecision" font-family="sans-serif" transform="matrix(1,0,0,1,-429,-314)" stroke-linecap="butt">
      <text x="972.523" xml:space="preserve" y="844.6553" clip-path="url(#clipPath2)" stroke="none">(</text>
      <rect fill="none" x="959.8638" width="30" height="30" y="825.501" clip-path="url(#clipPath2)"/>
    </g>
    <g fill="white" text-rendering="geometricPrecision" shape-rendering="geometricPrecision" transform="matrix(1,0,0,1,-429,-314)" stroke="white">
      <rect x="929.8638" width="30" height="30" y="825.501" clip-path="url(#clipPath2)" stroke="none"/>
    </g>
    <g text-rendering="geometricPrecision" stroke-miterlimit="1.45" shape-rendering="geometricPrecision" font-family="sans-serif" transform="matrix(1,0,0,1,-429,-314)" stroke-linecap="butt">
      <text x="931.5455" xml:space="preserve" y="844.6553" clip-path="url(#clipPath2)" stroke="none">nom</text>
      <rect fill="none" x="929.8638" width="30" height="30" y="825.501" clip-path="url(#clipPath2)"/>
    </g>
    <g fill="white" text-rendering="geometricPrecision" shape-rendering="geometricPrecision" transform="matrix(1,0,0,1,-429,-314)" stroke="white">
      <rect x="899.8638" width="30" height="30" y="825.501" clip-path="url(#clipPath2)" stroke="none"/>
    </g>
    <g text-rendering="geometricPrecision" stroke-miterlimit="1.45" shape-rendering="geometricPrecision" font-family="sans-serif" transform="matrix(1,0,0,1,-429,-314)" stroke-linecap="butt">
      <text x="905.0113" xml:space="preserve" y="844.6553" clip-path="url(#clipPath2)" stroke="none">det</text>
      <rect fill="none" x="899.8638" width="30" height="30" y="825.501" clip-path="url(#clipPath2)"/>
    </g>
    <g fill="white" text-rendering="geometricPrecision" shape-rendering="geometricPrecision" transform="matrix(1,0,0,1,-429,-314)" stroke="white">
      <rect x="869.8638" width="30" height="30" y="825.501" clip-path="url(#clipPath2)" stroke="none"/>
    </g>
    <g text-rendering="geometricPrecision" stroke-miterlimit="1.45" shape-rendering="geometricPrecision" font-family="sans-serif" transform="matrix(1,0,0,1,-429,-314)" stroke-linecap="butt">
      <text x="882.523" xml:space="preserve" y="844.6553" clip-path="url(#clipPath2)" stroke="none">(</text>
      <rect fill="none" x="869.8638" width="30" height="30" y="825.501" clip-path="url(#clipPath2)"/>
    </g>
    <g fill="white" text-rendering="geometricPrecision" shape-rendering="geometricPrecision" transform="matrix(1,0,0,1,-429,-314)" stroke="white">
      <rect x="839.8638" width="30" height="30" y="825.501" clip-path="url(#clipPath2)" stroke="none"/>
    </g>
    <g text-rendering="geometricPrecision" stroke-miterlimit="1.45" shape-rendering="geometricPrecision" font-family="sans-serif" transform="matrix(1,0,0,1,-429,-314)" stroke-linecap="butt">
      <text x="847.2525" xml:space="preserve" y="844.6553" clip-path="url(#clipPath2)" stroke="none">np</text>
      <rect fill="none" x="839.8638" width="30" height="30" y="825.501" clip-path="url(#clipPath2)"/>
    </g>
    <g fill="white" text-rendering="geometricPrecision" shape-rendering="geometricPrecision" transform="matrix(1,0,0,1,-429,-314)" stroke="white">
      <rect x="809.8638" width="30" height="30" y="825.501" clip-path="url(#clipPath2)" stroke="none"/>
    </g>
    <g text-rendering="geometricPrecision" stroke-miterlimit="1.45" shape-rendering="geometricPrecision" font-family="sans-serif" transform="matrix(1,0,0,1,-429,-314)" stroke-linecap="butt">
      <text x="811.3463" xml:space="preserve" y="844.6553" clip-path="url(#clipPath2)" stroke="none">verb</text>
      <rect fill="none" x="809.8638" width="30" height="30" y="825.501" clip-path="url(#clipPath2)"/>
    </g>
    <g fill="white" text-rendering="geometricPrecision" shape-rendering="geometricPrecision" transform="matrix(1,0,0,1,-429,-314)" stroke="white">
      <rect x="779.8638" width="30" height="30" y="825.501" clip-path="url(#clipPath2)" stroke="none"/>
    </g>
    <g text-rendering="geometricPrecision" stroke-miterlimit="1.45" shape-rendering="geometricPrecision" font-family="sans-serif" transform="matrix(1,0,0,1,-429,-314)" stroke-linecap="butt">
      <text x="792.523" xml:space="preserve" y="844.6553" clip-path="url(#clipPath2)" stroke="none">(</text>
      <rect fill="none" x="779.8638" width="30" height="30" y="825.501" clip-path="url(#clipPath2)"/>
    </g>
    <g fill="white" text-rendering="geometricPrecision" shape-rendering="geometricPrecision" transform="matrix(1,0,0,1,-429,-314)" stroke="white">
      <rect x="749.8638" width="30" height="30" y="825.501" clip-path="url(#clipPath2)" stroke="none"/>
    </g>
    <g text-rendering="geometricPrecision" stroke-miterlimit="1.45" shape-rendering="geometricPrecision" font-family="sans-serif" transform="matrix(1,0,0,1,-429,-314)" stroke-linecap="butt">
      <text x="757.5045" xml:space="preserve" y="844.6553" clip-path="url(#clipPath2)" stroke="none">vp</text>
      <rect fill="none" x="749.8638" width="30" height="30" y="825.501" clip-path="url(#clipPath2)"/>
    </g>
    <g fill="white" text-rendering="geometricPrecision" shape-rendering="geometricPrecision" transform="matrix(1,0,0,1,-429,-314)" stroke="white">
      <rect x="689.8638" width="30" height="30" y="825.501" clip-path="url(#clipPath2)" stroke="none"/>
    </g>
    <g text-rendering="geometricPrecision" stroke-miterlimit="1.45" shape-rendering="geometricPrecision" font-family="sans-serif" transform="matrix(1,0,0,1,-429,-314)" stroke-linecap="butt">
      <text x="691.1148" xml:space="preserve" y="844.6553" clip-path="url(#clipPath2)" stroke="none">pron</text>
      <rect fill="none" x="689.8638" width="30" height="30" y="825.501" clip-path="url(#clipPath2)"/>
    </g>
    <g fill="white" text-rendering="geometricPrecision" shape-rendering="geometricPrecision" transform="matrix(1,0,0,1,-429,-314)" stroke="white">
      <rect x="719.8638" width="30" height="30" y="825.501" clip-path="url(#clipPath2)" stroke="none"/>
    </g>
    <g text-rendering="geometricPrecision" stroke-miterlimit="1.45" shape-rendering="geometricPrecision" font-family="sans-serif" transform="matrix(1,0,0,1,-429,-314)" stroke-linecap="butt">
      <text x="732.523" xml:space="preserve" y="844.6553" clip-path="url(#clipPath2)" stroke="none">)</text>
      <rect fill="none" x="719.8638" width="30" height="30" y="825.501" clip-path="url(#clipPath2)"/>
    </g>
    <g fill="white" text-rendering="geometricPrecision" shape-rendering="geometricPrecision" transform="matrix(1,0,0,1,-429,-314)" stroke="white">
      <rect x="659.8638" width="30" height="30" y="825.501" clip-path="url(#clipPath2)" stroke="none"/>
    </g>
    <g text-rendering="geometricPrecision" stroke-miterlimit="1.45" shape-rendering="geometricPrecision" font-family="sans-serif" transform="matrix(1,0,0,1,-429,-314)" stroke-linecap="butt">
      <text x="672.523" xml:space="preserve" y="844.6553" clip-path="url(#clipPath2)" stroke="none">(</text>
      <rect fill="none" x="659.8638" width="30" height="30" y="825.501" clip-path="url(#clipPath2)"/>
    </g>
    <g fill="white" text-rendering="geometricPrecision" shape-rendering="geometricPrecision" transform="matrix(1,0,0,1,-429,-314)" stroke="white">
      <rect x="629.8638" width="30" height="30" y="825.501" clip-path="url(#clipPath2)" stroke="none"/>
    </g>
    <g text-rendering="geometricPrecision" stroke-miterlimit="1.45" shape-rendering="geometricPrecision" font-family="sans-serif" transform="matrix(1,0,0,1,-429,-314)" stroke-linecap="butt">
      <text x="637.2525" xml:space="preserve" y="844.6553" clip-path="url(#clipPath2)" stroke="none">np</text>
      <rect fill="none" x="629.8638" width="30" height="30" y="825.501" clip-path="url(#clipPath2)"/>
    </g>
    <g fill="white" text-rendering="geometricPrecision" shape-rendering="geometricPrecision" transform="matrix(1,0,0,1,-429,-314)" stroke="white">
      <rect x="599.8638" width="30" height="30" y="825.501" clip-path="url(#clipPath2)" stroke="none"/>
    </g>
    <g text-rendering="geometricPrecision" stroke-miterlimit="1.45" shape-rendering="geometricPrecision" font-family="sans-serif" transform="matrix(1,0,0,1,-429,-314)" stroke-linecap="butt">
      <text x="612.523" xml:space="preserve" y="844.6553" clip-path="url(#clipPath2)" stroke="none">(</text>
      <rect fill="none" x="599.8638" width="30" height="30" y="825.501" clip-path="url(#clipPath2)"/>
    </g>
    <g fill="white" text-rendering="geometricPrecision" shape-rendering="geometricPrecision" transform="matrix(1,0,0,1,-429,-314)" stroke="white">
      <rect x="569.8638" width="30" height="30" y="825.501" clip-path="url(#clipPath2)" stroke="none"/>
    </g>
    <g text-rendering="geometricPrecision" stroke-miterlimit="1.45" shape-rendering="geometricPrecision" font-family="sans-serif" transform="matrix(1,0,0,1,-429,-314)" stroke-linecap="butt">
      <text x="581.7379" xml:space="preserve" y="844.6553" clip-path="url(#clipPath2)" stroke="none">s</text>
      <rect fill="none" x="569.8638" width="30" height="30" y="825.501" clip-path="url(#clipPath2)"/>
      <text x="466.0326" xml:space="preserve" font-size="15px" y="804.9634" clip-path="url(#clipPath2)" stroke="none">Stack</text>
      <rect x="445.4027" y="789.0401" clip-path="url(#clipPath2)" fill="none" width="64.1582" stroke-dasharray="6,2" rx="4" ry="4" height="249.4609"/>
    </g>
    <g fill="white" text-rendering="geometricPrecision" shape-rendering="geometricPrecision" transform="matrix(1,0,0,1,-429,-314)" stroke="white">
      <rect x="462.4818" width="30" height="30" y="825.501" clip-path="url(#clipPath2)" stroke="none"/>
    </g>
    <g text-rendering="geometricPrecision" stroke-miterlimit="1.45" shape-rendering="geometricPrecision" font-family="sans-serif" transform="matrix(1,0,0,1,-429,-314)" stroke-linecap="butt">
      <text x="462.4027" xml:space="preserve" y="844.6553" clip-path="url(#clipPath2)" stroke="none">noun</text>
      <rect fill="none" x="462.4818" width="30" height="30" y="825.501" clip-path="url(#clipPath2)"/>
    </g>
    <g fill="white" text-rendering="geometricPrecision" shape-rendering="geometricPrecision" transform="matrix(1,0,0,1,-429,-314)" stroke="white">
      <rect x="462.4818" width="30" height="30" y="867.501" clip-path="url(#clipPath2)" stroke="none"/>
    </g>
    <g text-rendering="geometricPrecision" stroke-miterlimit="1.45" shape-rendering="geometricPrecision" font-family="sans-serif" transform="matrix(1,0,0,1,-429,-314)" stroke-linecap="butt">
      <text x="475.141" xml:space="preserve" y="886.6553" clip-path="url(#clipPath2)" stroke="none">)</text>
      <rect fill="none" x="462.4818" width="30" height="30" y="867.501" clip-path="url(#clipPath2)"/>
    </g>
    <g fill="white" text-rendering="geometricPrecision" shape-rendering="geometricPrecision" transform="matrix(1,0,0,1,-429,-314)" stroke="white">
      <rect x="462.4818" width="30" height="30" y="909.501" clip-path="url(#clipPath2)" stroke="none"/>
    </g>
    <g text-rendering="geometricPrecision" stroke-miterlimit="1.45" shape-rendering="geometricPrecision" font-family="sans-serif" transform="matrix(1,0,0,1,-429,-314)" stroke-linecap="butt">
      <text x="475.141" xml:space="preserve" y="928.6553" clip-path="url(#clipPath2)" stroke="none">)</text>
      <rect fill="none" x="462.4818" width="30" height="30" y="909.501" clip-path="url(#clipPath2)"/>
    </g>
    <g fill="white" text-rendering="geometricPrecision" shape-rendering="geometricPrecision" transform="matrix(1,0,0,1,-429,-314)" stroke="white">
      <rect x="462.4818" width="30" height="30" y="951.501" clip-path="url(#clipPath2)" stroke="none"/>
    </g>
    <g text-rendering="geometricPrecision" stroke-miterlimit="1.45" shape-rendering="geometricPrecision" font-family="sans-serif" transform="matrix(1,0,0,1,-429,-314)" stroke-linecap="butt">
      <text x="475.141" xml:space="preserve" y="970.6553" clip-path="url(#clipPath2)" stroke="none">)</text>
      <rect fill="none" x="462.4818" width="30" height="30" y="951.501" clip-path="url(#clipPath2)"/>
    </g>
    <g fill="white" text-rendering="geometricPrecision" shape-rendering="geometricPrecision" transform="matrix(1,0,0,1,-429,-314)" stroke="white">
      <rect x="462.4818" width="30" height="30" y="993.501" clip-path="url(#clipPath2)" stroke="none"/>
    </g>
    <g text-rendering="geometricPrecision" stroke-miterlimit="1.45" shape-rendering="geometricPrecision" font-family="sans-serif" transform="matrix(1,0,0,1,-429,-314)" stroke-linecap="butt">
      <text x="475.141" xml:space="preserve" y="1012.6553" clip-path="url(#clipPath2)" stroke="none">)</text>
      <rect fill="none" x="462.4818" width="30" height="30" y="993.501" clip-path="url(#clipPath2)"/>
    </g>
    <g fill="white" text-rendering="geometricPrecision" shape-rendering="geometricPrecision" transform="matrix(1,0,0,1,-429,-314)" stroke="white">
      <rect x="726.7388" width="237.6042" height="30" y="448.6655" clip-path="url(#clipPath2)" stroke="none"/>
    </g>
    <g text-rendering="geometricPrecision" stroke-miterlimit="1.45" shape-rendering="geometricPrecision" font-family="sans-serif" transform="matrix(1,0,0,1,-429,-314)" stroke-linecap="butt">
      <text x="832.0262" xml:space="preserve" y="467.8199" clip-path="url(#clipPath2)" stroke="none">Tree</text>
      <rect fill="none" x="726.7388" width="237.6042" height="30" y="448.6655" clip-path="url(#clipPath2)"/>
    </g>
    <g fill="white" text-rendering="geometricPrecision" shape-rendering="geometricPrecision" transform="matrix(1,0,0,1,-429,-314)" stroke="white">
      <rect x="445.3846" width="180.018" height="30" y="750.6655" clip-path="url(#clipPath2)" stroke="none"/>
    </g>
    <g text-rendering="geometricPrecision" stroke-miterlimit="1.45" shape-rendering="geometricPrecision" font-family="sans-serif" transform="matrix(1,0,0,1,-429,-314)" stroke-linecap="butt">
      <text x="476.7589" xml:space="preserve" y="769.8198" clip-path="url(#clipPath2)" stroke="none">Stack &amp; Line Status</text>
      <rect fill="none" x="445.3846" width="180.018" height="30" y="750.6655" clip-path="url(#clipPath2)"/>
    </g>
    <g fill="white" text-rendering="geometricPrecision" shape-rendering="geometricPrecision" transform="matrix(1,0,0,1,-429,-314)" stroke="white">
      <rect x="445.3846" width="559.4792" height="44.6667" y="329.6075" clip-path="url(#clipPath2)" stroke="none"/>
    </g>
    <g font-size="11px" stroke-linecap="butt" transform="matrix(1,0,0,1,-429,-314)" text-rendering="geometricPrecision" font-family="sans-serif" shape-rendering="geometricPrecision" stroke-miterlimit="1.45">
      <text x="642.5786" xml:space="preserve" y="342.9442" clip-path="url(#clipPath2)" stroke="none">Tree_DFS of "I am a Function"</text>
      <text x="675.6806" xml:space="preserve" y="355.7489" clip-path="url(#clipPath2)" stroke="none">First Permutation:</text>
      <text x="670.3256" xml:space="preserve" y="368.5536" clip-path="url(#clipPath2)" stroke="none">Pron Verb Det Noun</text>
      <rect fill="none" x="445.3846" width="559.4792" height="44.6667" y="329.6075" clip-path="url(#clipPath2)"/>
    </g>
    <g fill="white" text-rendering="geometricPrecision" shape-rendering="geometricPrecision" transform="matrix(1,0,0,1,-429,-314)" stroke="white">
      <rect x="445.3846" width="559.4792" height="30" y="396.4698" clip-path="url(#clipPath2)" stroke="none"/>
    </g>
    <g text-rendering="geometricPrecision" stroke-miterlimit="1.45" shape-rendering="geometricPrecision" font-family="sans-serif" transform="matrix(1,0,0,1,-429,-314)" stroke-linecap="butt">
      <text x="705.7385" xml:space="preserve" y="415.6241" clip-path="url(#clipPath2)" stroke="none">Step 8</text>
      <rect fill="none" x="445.3846" width="559.4792" height="30" y="396.4698" clip-path="url(#clipPath2)"/>
    </g>
    <g fill="white" text-rendering="geometricPrecision" shape-rendering="geometricPrecision" transform="matrix(1,0,0,1,-429,-314)" stroke="white">
      <rect x="445.3846" width="559.4792" height="30" y="1068.501" clip-path="url(#clipPath2)" stroke="none"/>
    </g>
    <g text-rendering="geometricPrecision" stroke-miterlimit="1.45" shape-rendering="geometricPrecision" font-family="sans-serif" transform="matrix(1,0,0,1,-429,-314)" stroke-linecap="butt">
      <text x="696.6945" xml:space="preserve" y="1087.6553" clip-path="url(#clipPath2)" stroke="none">Figure 37</text>
      <rect fill="none" x="445.3846" width="559.4792" height="30" y="1068.501" clip-path="url(#clipPath2)"/>
    </g>
  </g>
</svg>
