<?xml version="1.0" encoding="UTF-8"?><svg xmlns="http://www.w3.org/2000/svg" xmlns:xlink="http://www.w3.org/1999/xlink" fill-opacity="1" color-rendering="auto" color-interpolation="auto" text-rendering="auto" stroke="black" stroke-linecap="square" width="483" stroke-miterlimit="10" shape-rendering="auto" stroke-opacity="1" fill="black" stroke-dasharray="none" font-weight="normal" stroke-width="1" height="415" font-family="'Dialog'" font-style="normal" stroke-linejoin="miter" font-size="12px" stroke-dashoffset="0" image-rendering="auto">
  <!--Generated by ySVG 2.5-->
  <defs id="genericDefs"/>
  <g>
    <defs id="defs1">
      <clipPath clipPathUnits="userSpaceOnUse" id="clipPath1">
        <path d="M0 0 L483 0 L483 415 L0 415 L0 0 Z"/>
      </clipPath>
      <clipPath clipPathUnits="userSpaceOnUse" id="clipPath2">
        <path d="M319 287 L802 287 L802 702 L319 702 L319 287 Z"/>
      </clipPath>
    </defs>
    <g fill="white" text-rendering="geometricPrecision" shape-rendering="geometricPrecision" transform="translate(-319,-287)" stroke="white">
      <rect x="319" width="483" height="415" y="287" clip-path="url(#clipPath2)" stroke="none"/>
    </g>
    <g fill="white" text-rendering="geometricPrecision" shape-rendering="geometricPrecision" transform="matrix(1,0,0,1,-319,-287)" stroke="white">
      <rect x="470.5" width="30" height="30" y="406.3333" clip-path="url(#clipPath2)" stroke="none"/>
    </g>
    <g text-rendering="geometricPrecision" stroke-miterlimit="1.45" shape-rendering="geometricPrecision" transform="matrix(1,0,0,1,-319,-287)" stroke-linecap="butt">
      <rect fill="none" x="470.5" width="30" height="30" y="406.3333" clip-path="url(#clipPath2)"/>
    </g>
    <g fill="white" text-rendering="geometricPrecision" shape-rendering="geometricPrecision" transform="matrix(1,0,0,1,-319,-287)" stroke="white">
      <rect x="520.5" width="30" height="30" y="406.3333" clip-path="url(#clipPath2)" stroke="none"/>
    </g>
    <g text-rendering="geometricPrecision" stroke-miterlimit="1.45" shape-rendering="geometricPrecision" transform="matrix(1,0,0,1,-319,-287)" stroke-linecap="butt">
      <rect fill="none" x="520.5" width="30" height="30" y="406.3333" clip-path="url(#clipPath2)"/>
    </g>
    <g fill="white" text-rendering="geometricPrecision" shape-rendering="geometricPrecision" transform="matrix(1,0,0,1,-319,-287)" stroke="white">
      <rect x="570.5" width="30" height="30" y="406.3333" clip-path="url(#clipPath2)" stroke="none"/>
    </g>
    <g text-rendering="geometricPrecision" stroke-miterlimit="1.45" shape-rendering="geometricPrecision" transform="matrix(1,0,0,1,-319,-287)" stroke-linecap="butt">
      <rect fill="none" x="570.5" width="30" height="30" y="406.3333" clip-path="url(#clipPath2)"/>
    </g>
    <g fill="white" text-rendering="geometricPrecision" shape-rendering="geometricPrecision" transform="matrix(1,0,0,1,-319,-287)" stroke="white">
      <rect x="620.5" width="30" height="30" y="406.3333" clip-path="url(#clipPath2)" stroke="none"/>
    </g>
    <g text-rendering="geometricPrecision" stroke-miterlimit="1.45" shape-rendering="geometricPrecision" font-family="sans-serif" transform="matrix(1,0,0,1,-319,-287)" stroke-linecap="butt">
      <text x="622.1816" xml:space="preserve" y="425.4876" clip-path="url(#clipPath2)" stroke="none">nom</text>
      <rect fill="none" x="620.5" width="30" height="30" y="406.3333" clip-path="url(#clipPath2)"/>
    </g>
    <g fill="white" text-rendering="geometricPrecision" shape-rendering="geometricPrecision" transform="matrix(1,0,0,1,-319,-287)" stroke="white">
      <rect x="470.5" width="30" height="30" y="456.3333" clip-path="url(#clipPath2)" stroke="none"/>
    </g>
    <g text-rendering="geometricPrecision" stroke-miterlimit="1.45" shape-rendering="geometricPrecision" transform="matrix(1,0,0,1,-319,-287)" stroke-linecap="butt">
      <rect fill="none" x="470.5" width="30" height="30" y="456.3333" clip-path="url(#clipPath2)"/>
    </g>
    <g fill="white" text-rendering="geometricPrecision" shape-rendering="geometricPrecision" transform="matrix(1,0,0,1,-319,-287)" stroke="white">
      <rect x="520.5" width="30" height="30" y="456.3333" clip-path="url(#clipPath2)" stroke="none"/>
    </g>
    <g text-rendering="geometricPrecision" stroke-miterlimit="1.45" shape-rendering="geometricPrecision" font-family="sans-serif" transform="matrix(1,0,0,1,-319,-287)" stroke-linecap="butt">
      <text x="528.1406" xml:space="preserve" y="475.4876" clip-path="url(#clipPath2)" stroke="none">vp</text>
      <rect fill="none" x="520.5" width="30" height="30" y="456.3333" clip-path="url(#clipPath2)"/>
    </g>
    <g fill="white" text-rendering="geometricPrecision" shape-rendering="geometricPrecision" transform="matrix(1,0,0,1,-319,-287)" stroke="white">
      <rect x="570.5" width="30" height="30" y="456.3333" clip-path="url(#clipPath2)" stroke="none"/>
    </g>
    <g text-rendering="geometricPrecision" stroke-miterlimit="1.45" shape-rendering="geometricPrecision" font-family="sans-serif" transform="matrix(1,0,0,1,-319,-287)" stroke-linecap="butt">
      <text x="575.6475" xml:space="preserve" y="475.4876" clip-path="url(#clipPath2)" stroke="none">det</text>
      <rect fill="none" x="570.5" width="30" height="30" y="456.3333" clip-path="url(#clipPath2)"/>
    </g>
    <g fill="white" text-rendering="geometricPrecision" shape-rendering="geometricPrecision" transform="matrix(1,0,0,1,-319,-287)" stroke="white">
      <rect x="620.5" width="30" height="30" y="456.3333" clip-path="url(#clipPath2)" stroke="none"/>
    </g>
    <g text-rendering="geometricPrecision" stroke-miterlimit="1.45" shape-rendering="geometricPrecision" font-family="sans-serif" transform="matrix(1,0,0,1,-319,-287)" stroke-linecap="butt">
      <text x="620.4209" xml:space="preserve" y="475.4876" clip-path="url(#clipPath2)" stroke="none">noun</text>
      <rect fill="none" x="620.5" width="30" height="30" y="456.3333" clip-path="url(#clipPath2)"/>
    </g>
    <g fill="white" text-rendering="geometricPrecision" shape-rendering="geometricPrecision" transform="matrix(1,0,0,1,-319,-287)" stroke="white">
      <rect x="470.5" width="30" height="30" y="506.3333" clip-path="url(#clipPath2)" stroke="none"/>
    </g>
    <g text-rendering="geometricPrecision" stroke-miterlimit="1.45" shape-rendering="geometricPrecision" font-family="sans-serif" transform="matrix(1,0,0,1,-319,-287)" stroke-linecap="butt">
      <text x="477.8887" xml:space="preserve" y="525.4876" clip-path="url(#clipPath2)" stroke="none">np</text>
      <rect fill="none" x="470.5" width="30" height="30" y="506.3333" clip-path="url(#clipPath2)"/>
    </g>
    <g fill="white" text-rendering="geometricPrecision" shape-rendering="geometricPrecision" transform="matrix(1,0,0,1,-319,-287)" stroke="white">
      <rect x="520.5" width="30" height="30" y="506.3333" clip-path="url(#clipPath2)" stroke="none"/>
    </g>
    <g text-rendering="geometricPrecision" stroke-miterlimit="1.45" shape-rendering="geometricPrecision" font-family="sans-serif" transform="matrix(1,0,0,1,-319,-287)" stroke-linecap="butt">
      <text x="528.1406" xml:space="preserve" y="525.4876" clip-path="url(#clipPath2)" stroke="none">vp</text>
      <rect fill="none" x="520.5" width="30" height="30" y="506.3333" clip-path="url(#clipPath2)"/>
    </g>
    <g fill="white" text-rendering="geometricPrecision" shape-rendering="geometricPrecision" transform="matrix(1,0,0,1,-319,-287)" stroke="white">
      <rect x="570.5" width="30" height="30" y="506.3333" clip-path="url(#clipPath2)" stroke="none"/>
    </g>
    <g text-rendering="geometricPrecision" stroke-miterlimit="1.45" shape-rendering="geometricPrecision" font-family="sans-serif" transform="matrix(1,0,0,1,-319,-287)" stroke-linecap="butt">
      <text x="575.6475" xml:space="preserve" y="525.4876" clip-path="url(#clipPath2)" stroke="none">det</text>
      <rect fill="none" x="570.5" width="30" height="30" y="506.3333" clip-path="url(#clipPath2)"/>
    </g>
    <g fill="white" text-rendering="geometricPrecision" shape-rendering="geometricPrecision" transform="matrix(1,0,0,1,-319,-287)" stroke="white">
      <rect x="620.5" width="30" height="30" y="506.3333" clip-path="url(#clipPath2)" stroke="none"/>
    </g>
    <g text-rendering="geometricPrecision" stroke-miterlimit="1.45" shape-rendering="geometricPrecision" transform="matrix(1,0,0,1,-319,-287)" stroke-linecap="butt">
      <rect fill="none" x="620.5" width="30" height="30" y="506.3333" clip-path="url(#clipPath2)"/>
    </g>
    <g fill="white" text-rendering="geometricPrecision" shape-rendering="geometricPrecision" transform="matrix(1,0,0,1,-319,-287)" stroke="white">
      <rect x="470.5" width="30" height="30" y="556.3333" clip-path="url(#clipPath2)" stroke="none"/>
    </g>
    <g text-rendering="geometricPrecision" stroke-miterlimit="1.45" shape-rendering="geometricPrecision" font-family="sans-serif" transform="matrix(1,0,0,1,-319,-287)" stroke-linecap="butt">
      <text x="477.8887" xml:space="preserve" y="575.4876" clip-path="url(#clipPath2)" stroke="none">np</text>
      <rect fill="none" x="470.5" width="30" height="30" y="556.3333" clip-path="url(#clipPath2)"/>
    </g>
    <g fill="white" text-rendering="geometricPrecision" shape-rendering="geometricPrecision" transform="matrix(1,0,0,1,-319,-287)" stroke="white">
      <rect x="520.5" width="30" height="30" y="556.3333" clip-path="url(#clipPath2)" stroke="none"/>
    </g>
    <g text-rendering="geometricPrecision" stroke-miterlimit="1.45" shape-rendering="geometricPrecision" font-family="sans-serif" transform="matrix(1,0,0,1,-319,-287)" stroke-linecap="butt">
      <text x="521.9824" xml:space="preserve" y="575.4876" clip-path="url(#clipPath2)" stroke="none">verb</text>
      <rect fill="none" x="520.5" width="30" height="30" y="556.3333" clip-path="url(#clipPath2)"/>
    </g>
    <g fill="white" text-rendering="geometricPrecision" shape-rendering="geometricPrecision" transform="matrix(1,0,0,1,-319,-287)" stroke="white">
      <rect x="570.5" width="30" height="30" y="556.3333" clip-path="url(#clipPath2)" stroke="none"/>
    </g>
    <g text-rendering="geometricPrecision" stroke-miterlimit="1.45" shape-rendering="geometricPrecision" transform="matrix(1,0,0,1,-319,-287)" stroke-linecap="butt">
      <rect fill="none" x="570.5" width="30" height="30" y="556.3333" clip-path="url(#clipPath2)"/>
    </g>
    <g fill="white" text-rendering="geometricPrecision" shape-rendering="geometricPrecision" transform="matrix(1,0,0,1,-319,-287)" stroke="white">
      <rect x="620.5" width="30" height="30" y="556.3333" clip-path="url(#clipPath2)" stroke="none"/>
    </g>
    <g text-rendering="geometricPrecision" stroke-miterlimit="1.45" shape-rendering="geometricPrecision" transform="matrix(1,0,0,1,-319,-287)" stroke-linecap="butt">
      <rect fill="none" x="620.5" width="30" height="30" y="556.3333" clip-path="url(#clipPath2)"/>
    </g>
    <g fill="white" text-rendering="geometricPrecision" shape-rendering="geometricPrecision" transform="matrix(1,0,0,1,-319,-287)" stroke="white">
      <rect x="470.5" width="30" height="30" y="606.3333" clip-path="url(#clipPath2)" stroke="none"/>
    </g>
    <g text-rendering="geometricPrecision" stroke-miterlimit="1.45" shape-rendering="geometricPrecision" font-family="sans-serif" transform="matrix(1,0,0,1,-319,-287)" stroke-linecap="butt">
      <text x="471.751" xml:space="preserve" y="625.4876" clip-path="url(#clipPath2)" stroke="none">pron</text>
      <rect fill="none" x="470.5" width="30" height="30" y="606.3333" clip-path="url(#clipPath2)"/>
    </g>
    <g fill="white" text-rendering="geometricPrecision" shape-rendering="geometricPrecision" transform="matrix(1,0,0,1,-319,-287)" stroke="white">
      <rect x="520.5" width="30" height="30" y="606.3333" clip-path="url(#clipPath2)" stroke="none"/>
    </g>
    <g text-rendering="geometricPrecision" stroke-miterlimit="1.45" shape-rendering="geometricPrecision" transform="matrix(1,0,0,1,-319,-287)" stroke-linecap="butt">
      <rect fill="none" x="520.5" width="30" height="30" y="606.3333" clip-path="url(#clipPath2)"/>
    </g>
    <g fill="white" text-rendering="geometricPrecision" shape-rendering="geometricPrecision" transform="matrix(1,0,0,1,-319,-287)" stroke="white">
      <rect x="570.5" width="30" height="30" y="606.3333" clip-path="url(#clipPath2)" stroke="none"/>
    </g>
    <g text-rendering="geometricPrecision" stroke-miterlimit="1.45" shape-rendering="geometricPrecision" transform="matrix(1,0,0,1,-319,-287)" stroke-linecap="butt">
      <rect fill="none" x="570.5" width="30" height="30" y="606.3333" clip-path="url(#clipPath2)"/>
    </g>
    <g fill="white" text-rendering="geometricPrecision" shape-rendering="geometricPrecision" transform="matrix(1,0,0,1,-319,-287)" stroke="white">
      <rect x="620.5" width="30" height="30" y="606.3333" clip-path="url(#clipPath2)" stroke="none"/>
    </g>
    <g text-rendering="geometricPrecision" stroke-miterlimit="1.45" shape-rendering="geometricPrecision" transform="matrix(1,0,0,1,-319,-287)" stroke-linecap="butt">
      <rect fill="none" x="620.5" width="30" height="30" y="606.3333" clip-path="url(#clipPath2)"/>
    </g>
    <g fill="white" text-rendering="geometricPrecision" shape-rendering="geometricPrecision" transform="matrix(1,0,0,1,-319,-287)" stroke="white">
      <rect x="470.5" width="180" height="30" y="354.3333" clip-path="url(#clipPath2)" stroke="none"/>
    </g>
    <g text-rendering="geometricPrecision" stroke-miterlimit="1.45" shape-rendering="geometricPrecision" font-family="sans-serif" transform="matrix(1,0,0,1,-319,-287)" stroke-linecap="butt">
      <text x="535.3896" xml:space="preserve" y="373.4876" clip-path="url(#clipPath2)" stroke="none">Step 2.1</text>
      <rect fill="none" x="470.5" width="180" height="30" y="354.3333" clip-path="url(#clipPath2)"/>
    </g>
    <g fill="white" text-rendering="geometricPrecision" shape-rendering="geometricPrecision" transform="matrix(1,0,0,1,-319,-287)" stroke="white">
      <rect x="334" width="453" height="30" y="302.3333" clip-path="url(#clipPath2)" stroke="none"/>
    </g>
    <g text-rendering="geometricPrecision" stroke-miterlimit="1.45" shape-rendering="geometricPrecision" font-family="sans-serif" transform="matrix(1,0,0,1,-319,-287)" stroke-linecap="butt">
      <text x="356.4326" xml:space="preserve" y="321.4876" clip-path="url(#clipPath2)" stroke="none">CKY of "I am a Function" - Second Permutation: Pron Verb Det Noun</text>
      <rect fill="none" x="334" width="453" height="30" y="302.3333" clip-path="url(#clipPath2)"/>
    </g>
    <g fill="white" text-rendering="geometricPrecision" shape-rendering="geometricPrecision" transform="matrix(1,0,0,1,-319,-287)" stroke="white">
      <rect x="334" width="453" height="30" y="656.3333" clip-path="url(#clipPath2)" stroke="none"/>
    </g>
    <g text-rendering="geometricPrecision" stroke-miterlimit="1.45" shape-rendering="geometricPrecision" font-family="sans-serif" transform="matrix(1,0,0,1,-319,-287)" stroke-linecap="butt">
      <text x="532.0703" xml:space="preserve" y="675.4876" clip-path="url(#clipPath2)" stroke="none">Figure 19</text>
      <rect fill="none" x="334" width="453" height="30" y="656.3333" clip-path="url(#clipPath2)"/>
      <path fill="none" d="M635.5 456.3333 L635.5 444.3333" clip-path="url(#clipPath2)"/>
      <path d="M635.5 436.3333 L630.5 448.3333 L635.5 445.3333 L640.5 448.3333 Z" clip-path="url(#clipPath2)" stroke="none"/>
    </g>
    <g text-rendering="geometricPrecision" stroke-miterlimit="1.45" shape-rendering="geometricPrecision" transform="matrix(1,0,0,1,-319,-287)" stroke-linecap="butt">
      <path fill="none" d="M535.5 486.3333 L529.25 501.3333 L534 498.4833 L534 506.3333 L537 506.3333 L537 498.4833 L541.75 501.3333 L535.5 486.3333 Z" clip-path="url(#clipPath2)"/>
    </g>
    <g text-rendering="geometricPrecision" stroke-miterlimit="1.45" shape-rendering="geometricPrecision" transform="matrix(1,0,0,1,-319,-287)" stroke-linecap="butt">
      <path fill="none" d="M585.5 486.3333 L579.25 501.3333 L584 498.4833 L584 506.3333 L587 506.3333 L587 498.4833 L591.75 501.3333 L585.5 486.3333 Z" clip-path="url(#clipPath2)"/>
    </g>
    <g text-rendering="geometricPrecision" stroke-miterlimit="1.45" shape-rendering="geometricPrecision" transform="matrix(1,0,0,1,-319,-287)" stroke-linecap="butt">
      <path fill="none" d="M485.5 536.3333 L479.25 551.3333 L484 548.4833 L484 548.4833 L484 556.3333 L487 556.3333 L487 548.4833 L487 548.4833 L491.75 551.3333 L485.5 536.3333 Z" clip-path="url(#clipPath2)"/>
    </g>
    <g text-rendering="geometricPrecision" stroke-miterlimit="1.45" shape-rendering="geometricPrecision" transform="matrix(1,0,0,1,-319,-287)" stroke-linecap="butt">
      <path fill="none" d="M535.5 556.3333 L535.5 544.3333" clip-path="url(#clipPath2)"/>
      <path d="M535.5 536.3333 L530.5 548.3333 L535.5 545.3333 L540.5 548.3333 Z" clip-path="url(#clipPath2)" stroke="none"/>
      <path fill="none" d="M485.5 606.3333 L485.5 594.3333" clip-path="url(#clipPath2)"/>
      <path d="M485.5 586.3333 L480.5 598.3333 L485.5 595.3333 L490.5 598.3333 Z" clip-path="url(#clipPath2)" stroke="none"/>
    </g>
  </g>
</svg>
