<?xml version="1.0" encoding="UTF-8"?><svg xmlns="http://www.w3.org/2000/svg" xmlns:xlink="http://www.w3.org/1999/xlink" fill-opacity="1" color-rendering="auto" color-interpolation="auto" text-rendering="auto" stroke="black" stroke-linecap="square" width="484" stroke-miterlimit="10" shape-rendering="auto" stroke-opacity="1" fill="black" stroke-dasharray="none" font-weight="normal" stroke-width="1" height="415" font-family="'Dialog'" font-style="normal" stroke-linejoin="miter" font-size="12px" stroke-dashoffset="0" image-rendering="auto">
  <!--Generated by ySVG 2.5-->
  <defs id="genericDefs"/>
  <g>
    <defs id="defs1">
      <clipPath clipPathUnits="userSpaceOnUse" id="clipPath1">
        <path d="M0 0 L484 0 L484 415 L0 415 L0 0 Z"/>
      </clipPath>
      <clipPath clipPathUnits="userSpaceOnUse" id="clipPath2">
        <path d="M294 262 L778 262 L778 677 L294 677 L294 262 Z"/>
      </clipPath>
    </defs>
    <g fill="white" text-rendering="geometricPrecision" shape-rendering="geometricPrecision" transform="translate(-294,-262)" stroke="white">
      <rect x="294" width="484" height="415" y="262" clip-path="url(#clipPath2)" stroke="none"/>
    </g>
    <g fill="white" text-rendering="geometricPrecision" shape-rendering="geometricPrecision" transform="matrix(1,0,0,1,-294,-262)" stroke="white">
      <rect x="446" width="30" height="30" y="381.6667" clip-path="url(#clipPath2)" stroke="none"/>
    </g>
    <g text-rendering="geometricPrecision" stroke-miterlimit="1.45" shape-rendering="geometricPrecision" transform="matrix(1,0,0,1,-294,-262)" stroke-linecap="butt">
      <rect fill="none" x="446" width="30" height="30" y="381.6667" clip-path="url(#clipPath2)"/>
    </g>
    <g fill="white" text-rendering="geometricPrecision" shape-rendering="geometricPrecision" transform="matrix(1,0,0,1,-294,-262)" stroke="white">
      <rect x="496" width="30" height="30" y="381.6667" clip-path="url(#clipPath2)" stroke="none"/>
    </g>
    <g text-rendering="geometricPrecision" stroke-miterlimit="1.45" shape-rendering="geometricPrecision" transform="matrix(1,0,0,1,-294,-262)" stroke-linecap="butt">
      <rect fill="none" x="496" width="30" height="30" y="381.6667" clip-path="url(#clipPath2)"/>
    </g>
    <g fill="white" text-rendering="geometricPrecision" shape-rendering="geometricPrecision" transform="matrix(1,0,0,1,-294,-262)" stroke="white">
      <rect x="546" width="30" height="30" y="381.6667" clip-path="url(#clipPath2)" stroke="none"/>
    </g>
    <g text-rendering="geometricPrecision" stroke-miterlimit="1.45" shape-rendering="geometricPrecision" transform="matrix(1,0,0,1,-294,-262)" stroke-linecap="butt">
      <rect fill="none" x="546" width="30" height="30" y="381.6667" clip-path="url(#clipPath2)"/>
    </g>
    <g fill="white" text-rendering="geometricPrecision" shape-rendering="geometricPrecision" transform="matrix(1,0,0,1,-294,-262)" stroke="white">
      <rect x="596" width="30" height="30" y="381.6667" clip-path="url(#clipPath2)" stroke="none"/>
    </g>
    <g text-rendering="geometricPrecision" stroke-miterlimit="1.45" shape-rendering="geometricPrecision" transform="matrix(1,0,0,1,-294,-262)" stroke-linecap="butt">
      <rect fill="none" x="596" width="30" height="30" y="381.6667" clip-path="url(#clipPath2)"/>
    </g>
    <g fill="white" text-rendering="geometricPrecision" shape-rendering="geometricPrecision" transform="matrix(1,0,0,1,-294,-262)" stroke="white">
      <rect x="446" width="30" height="30" y="431.6667" clip-path="url(#clipPath2)" stroke="none"/>
    </g>
    <g text-rendering="geometricPrecision" stroke-miterlimit="1.45" shape-rendering="geometricPrecision" transform="matrix(1,0,0,1,-294,-262)" stroke-linecap="butt">
      <rect fill="none" x="446" width="30" height="30" y="431.6667" clip-path="url(#clipPath2)"/>
    </g>
    <g fill="white" text-rendering="geometricPrecision" shape-rendering="geometricPrecision" transform="matrix(1,0,0,1,-294,-262)" stroke="white">
      <rect x="496" width="30" height="30" y="431.6667" clip-path="url(#clipPath2)" stroke="none"/>
    </g>
    <g text-rendering="geometricPrecision" stroke-miterlimit="1.45" shape-rendering="geometricPrecision" transform="matrix(1,0,0,1,-294,-262)" stroke-linecap="butt">
      <rect fill="none" x="496" width="30" height="30" y="431.6667" clip-path="url(#clipPath2)"/>
    </g>
    <g fill="white" text-rendering="geometricPrecision" shape-rendering="geometricPrecision" transform="matrix(1,0,0,1,-294,-262)" stroke="white">
      <rect x="546" width="30" height="30" y="431.6667" clip-path="url(#clipPath2)" stroke="none"/>
    </g>
    <g text-rendering="geometricPrecision" stroke-miterlimit="1.45" shape-rendering="geometricPrecision" transform="matrix(1,0,0,1,-294,-262)" stroke-linecap="butt">
      <rect fill="none" x="546" width="30" height="30" y="431.6667" clip-path="url(#clipPath2)"/>
    </g>
    <g fill="white" text-rendering="geometricPrecision" shape-rendering="geometricPrecision" transform="matrix(1,0,0,1,-294,-262)" stroke="white">
      <rect x="596" width="30" height="30" y="431.6667" clip-path="url(#clipPath2)" stroke="none"/>
    </g>
    <g text-rendering="geometricPrecision" stroke-miterlimit="1.45" shape-rendering="geometricPrecision" font-family="sans-serif" transform="matrix(1,0,0,1,-294,-262)" stroke-linecap="butt">
      <text x="597.4824" xml:space="preserve" y="450.821" clip-path="url(#clipPath2)" stroke="none">verb</text>
      <rect fill="none" x="596" width="30" height="30" y="431.6667" clip-path="url(#clipPath2)"/>
    </g>
    <g fill="white" text-rendering="geometricPrecision" shape-rendering="geometricPrecision" transform="matrix(1,0,0,1,-294,-262)" stroke="white">
      <rect x="446" width="30" height="30" y="481.6667" clip-path="url(#clipPath2)" stroke="none"/>
    </g>
    <g text-rendering="geometricPrecision" stroke-miterlimit="1.45" shape-rendering="geometricPrecision" transform="matrix(1,0,0,1,-294,-262)" stroke-linecap="butt">
      <rect fill="none" x="446" width="30" height="30" y="481.6667" clip-path="url(#clipPath2)"/>
    </g>
    <g fill="white" text-rendering="geometricPrecision" shape-rendering="geometricPrecision" transform="matrix(1,0,0,1,-294,-262)" stroke="white">
      <rect x="496" width="30" height="30" y="481.6667" clip-path="url(#clipPath2)" stroke="none"/>
    </g>
    <g text-rendering="geometricPrecision" stroke-miterlimit="1.45" shape-rendering="geometricPrecision" font-family="sans-serif" transform="matrix(1,0,0,1,-294,-262)" stroke-linecap="butt">
      <text x="503.6406" xml:space="preserve" y="500.821" clip-path="url(#clipPath2)" stroke="none">vp</text>
      <rect fill="none" x="496" width="30" height="30" y="481.6667" clip-path="url(#clipPath2)"/>
    </g>
    <g fill="white" text-rendering="geometricPrecision" shape-rendering="geometricPrecision" transform="matrix(1,0,0,1,-294,-262)" stroke="white">
      <rect x="546" width="30" height="30" y="481.6667" clip-path="url(#clipPath2)" stroke="none"/>
    </g>
    <g text-rendering="geometricPrecision" stroke-miterlimit="1.45" shape-rendering="geometricPrecision" font-family="sans-serif" transform="matrix(1,0,0,1,-294,-262)" stroke-linecap="butt">
      <text x="551.1475" xml:space="preserve" y="500.821" clip-path="url(#clipPath2)" stroke="none">det</text>
      <rect fill="none" x="546" width="30" height="30" y="481.6667" clip-path="url(#clipPath2)"/>
    </g>
    <g fill="white" text-rendering="geometricPrecision" shape-rendering="geometricPrecision" transform="matrix(1,0,0,1,-294,-262)" stroke="white">
      <rect x="596" width="30" height="30" y="481.6667" clip-path="url(#clipPath2)" stroke="none"/>
    </g>
    <g text-rendering="geometricPrecision" stroke-miterlimit="1.45" shape-rendering="geometricPrecision" transform="matrix(1,0,0,1,-294,-262)" stroke-linecap="butt">
      <rect fill="none" x="596" width="30" height="30" y="481.6667" clip-path="url(#clipPath2)"/>
    </g>
    <g fill="white" text-rendering="geometricPrecision" shape-rendering="geometricPrecision" transform="matrix(1,0,0,1,-294,-262)" stroke="white">
      <rect x="446" width="30" height="30" y="531.6667" clip-path="url(#clipPath2)" stroke="none"/>
    </g>
    <g text-rendering="geometricPrecision" stroke-miterlimit="1.45" shape-rendering="geometricPrecision" font-family="sans-serif" transform="matrix(1,0,0,1,-294,-262)" stroke-linecap="butt">
      <text x="453.3887" xml:space="preserve" y="550.821" clip-path="url(#clipPath2)" stroke="none">np</text>
      <rect fill="none" x="446" width="30" height="30" y="531.6667" clip-path="url(#clipPath2)"/>
    </g>
    <g fill="white" text-rendering="geometricPrecision" shape-rendering="geometricPrecision" transform="matrix(1,0,0,1,-294,-262)" stroke="white">
      <rect x="496" width="30" height="30" y="531.6667" clip-path="url(#clipPath2)" stroke="none"/>
    </g>
    <g text-rendering="geometricPrecision" stroke-miterlimit="1.45" shape-rendering="geometricPrecision" font-family="sans-serif" transform="matrix(1,0,0,1,-294,-262)" stroke-linecap="butt">
      <text x="497.4824" xml:space="preserve" y="550.821" clip-path="url(#clipPath2)" stroke="none">verb</text>
      <rect fill="none" x="496" width="30" height="30" y="531.6667" clip-path="url(#clipPath2)"/>
    </g>
    <g fill="white" text-rendering="geometricPrecision" shape-rendering="geometricPrecision" transform="matrix(1,0,0,1,-294,-262)" stroke="white">
      <rect x="546" width="30" height="30" y="531.6667" clip-path="url(#clipPath2)" stroke="none"/>
    </g>
    <g text-rendering="geometricPrecision" stroke-miterlimit="1.45" shape-rendering="geometricPrecision" transform="matrix(1,0,0,1,-294,-262)" stroke-linecap="butt">
      <rect fill="none" x="546" width="30" height="30" y="531.6667" clip-path="url(#clipPath2)"/>
    </g>
    <g fill="white" text-rendering="geometricPrecision" shape-rendering="geometricPrecision" transform="matrix(1,0,0,1,-294,-262)" stroke="white">
      <rect x="596" width="30" height="30" y="531.6667" clip-path="url(#clipPath2)" stroke="none"/>
    </g>
    <g text-rendering="geometricPrecision" stroke-miterlimit="1.45" shape-rendering="geometricPrecision" transform="matrix(1,0,0,1,-294,-262)" stroke-linecap="butt">
      <rect fill="none" x="596" width="30" height="30" y="531.6667" clip-path="url(#clipPath2)"/>
    </g>
    <g fill="white" text-rendering="geometricPrecision" shape-rendering="geometricPrecision" transform="matrix(1,0,0,1,-294,-262)" stroke="white">
      <rect x="446" width="30" height="30" y="581.6667" clip-path="url(#clipPath2)" stroke="none"/>
    </g>
    <g text-rendering="geometricPrecision" stroke-miterlimit="1.45" shape-rendering="geometricPrecision" font-family="sans-serif" transform="matrix(1,0,0,1,-294,-262)" stroke-linecap="butt">
      <text x="447.251" xml:space="preserve" y="600.821" clip-path="url(#clipPath2)" stroke="none">pron</text>
      <rect fill="none" x="446" width="30" height="30" y="581.6667" clip-path="url(#clipPath2)"/>
    </g>
    <g fill="white" text-rendering="geometricPrecision" shape-rendering="geometricPrecision" transform="matrix(1,0,0,1,-294,-262)" stroke="white">
      <rect x="496" width="30" height="30" y="581.6667" clip-path="url(#clipPath2)" stroke="none"/>
    </g>
    <g text-rendering="geometricPrecision" stroke-miterlimit="1.45" shape-rendering="geometricPrecision" transform="matrix(1,0,0,1,-294,-262)" stroke-linecap="butt">
      <rect fill="none" x="496" width="30" height="30" y="581.6667" clip-path="url(#clipPath2)"/>
    </g>
    <g fill="white" text-rendering="geometricPrecision" shape-rendering="geometricPrecision" transform="matrix(1,0,0,1,-294,-262)" stroke="white">
      <rect x="546" width="30" height="30" y="581.6667" clip-path="url(#clipPath2)" stroke="none"/>
    </g>
    <g text-rendering="geometricPrecision" stroke-miterlimit="1.45" shape-rendering="geometricPrecision" transform="matrix(1,0,0,1,-294,-262)" stroke-linecap="butt">
      <rect fill="none" x="546" width="30" height="30" y="581.6667" clip-path="url(#clipPath2)"/>
    </g>
    <g fill="white" text-rendering="geometricPrecision" shape-rendering="geometricPrecision" transform="matrix(1,0,0,1,-294,-262)" stroke="white">
      <rect x="596" width="30" height="30" y="581.6667" clip-path="url(#clipPath2)" stroke="none"/>
    </g>
    <g text-rendering="geometricPrecision" stroke-miterlimit="1.45" shape-rendering="geometricPrecision" transform="matrix(1,0,0,1,-294,-262)" stroke-linecap="butt">
      <rect fill="none" x="596" width="30" height="30" y="581.6667" clip-path="url(#clipPath2)"/>
    </g>
    <g fill="white" text-rendering="geometricPrecision" shape-rendering="geometricPrecision" transform="matrix(1,0,0,1,-294,-262)" stroke="white">
      <rect x="446" width="180" height="30" y="329.6667" clip-path="url(#clipPath2)" stroke="none"/>
    </g>
    <g text-rendering="geometricPrecision" stroke-miterlimit="1.45" shape-rendering="geometricPrecision" font-family="sans-serif" transform="matrix(1,0,0,1,-294,-262)" stroke-linecap="butt">
      <text x="510.8896" xml:space="preserve" y="348.821" clip-path="url(#clipPath2)" stroke="none">Step 1.1</text>
      <rect fill="none" x="446" width="180" height="30" y="329.6667" clip-path="url(#clipPath2)"/>
    </g>
    <g fill="white" text-rendering="geometricPrecision" shape-rendering="geometricPrecision" transform="matrix(1,0,0,1,-294,-262)" stroke="white">
      <rect x="309.5" width="453" height="30" y="277.6667" clip-path="url(#clipPath2)" stroke="none"/>
    </g>
    <g text-rendering="geometricPrecision" stroke-miterlimit="1.45" shape-rendering="geometricPrecision" font-family="sans-serif" transform="matrix(1,0,0,1,-294,-262)" stroke-linecap="butt">
      <text x="342.6436" xml:space="preserve" y="296.821" clip-path="url(#clipPath2)" stroke="none">CKY of "I am a Function" - First Permutation: Pron Verb Det Verb</text>
      <rect fill="none" x="309.5" width="453" height="30" y="277.6667" clip-path="url(#clipPath2)"/>
    </g>
    <g fill="white" text-rendering="geometricPrecision" shape-rendering="geometricPrecision" transform="matrix(1,0,0,1,-294,-262)" stroke="white">
      <rect x="309.5" width="453" height="30" y="631.6667" clip-path="url(#clipPath2)" stroke="none"/>
    </g>
    <g text-rendering="geometricPrecision" stroke-miterlimit="1.45" shape-rendering="geometricPrecision" font-family="sans-serif" transform="matrix(1,0,0,1,-294,-262)" stroke-linecap="butt">
      <text x="511.3877" xml:space="preserve" y="650.821" clip-path="url(#clipPath2)" stroke="none">Figure 4</text>
      <rect fill="none" x="309.5" width="453" height="30" y="631.6667" clip-path="url(#clipPath2)"/>
      <path fill="none" d="M511 531.6667 L511 519.6667" clip-path="url(#clipPath2)"/>
      <path d="M511 511.6667 L506 523.6667 L511 520.6667 L516 523.6667 Z" clip-path="url(#clipPath2)" stroke="none"/>
      <path fill="none" d="M461 581.6667 L461 569.6667" clip-path="url(#clipPath2)"/>
      <path d="M461 561.6667 L456 573.6667 L461 570.6667 L466 573.6667 Z" clip-path="url(#clipPath2)" stroke="none"/>
    </g>
  </g>
</svg>
