<?xml version="1.0" encoding="UTF-8"?><svg xmlns="http://www.w3.org/2000/svg" xmlns:xlink="http://www.w3.org/1999/xlink" fill-opacity="1" color-rendering="auto" color-interpolation="auto" text-rendering="auto" stroke="black" stroke-linecap="square" width="484" stroke-miterlimit="10" shape-rendering="auto" stroke-opacity="1" fill="black" stroke-dasharray="none" font-weight="normal" stroke-width="1" height="415" font-family="'Dialog'" font-style="normal" stroke-linejoin="miter" font-size="12px" stroke-dashoffset="0" image-rendering="auto">
  <!--Generated by ySVG 2.5-->
  <defs id="genericDefs"/>
  <g>
    <defs id="defs1">
      <clipPath clipPathUnits="userSpaceOnUse" id="clipPath1">
        <path d="M0 0 L484 0 L484 415 L0 415 L0 0 Z"/>
      </clipPath>
      <clipPath clipPathUnits="userSpaceOnUse" id="clipPath2">
        <path d="M-151 -67 L333 -67 L333 348 L-151 348 L-151 -67 Z"/>
      </clipPath>
    </defs>
    <g fill="white" text-rendering="geometricPrecision" shape-rendering="geometricPrecision" transform="translate(151,67)" stroke="white">
      <rect x="-151" width="484" height="415" y="-67" clip-path="url(#clipPath2)" stroke="none"/>
    </g>
    <g fill="white" text-rendering="geometricPrecision" shape-rendering="geometricPrecision" transform="matrix(1,0,0,1,151,67)" stroke="white">
      <rect x="1.1696" width="30" height="30" y="52.6667" clip-path="url(#clipPath2)" stroke="none"/>
    </g>
    <g text-rendering="geometricPrecision" stroke-miterlimit="1.45" shape-rendering="geometricPrecision" transform="matrix(1,0,0,1,151,67)" stroke-linecap="butt">
      <rect fill="none" x="1.1696" width="30" height="30" y="52.6667" clip-path="url(#clipPath2)"/>
    </g>
    <g fill="white" text-rendering="geometricPrecision" shape-rendering="geometricPrecision" transform="matrix(1,0,0,1,151,67)" stroke="white">
      <rect x="51.1696" width="30" height="30" y="52.6667" clip-path="url(#clipPath2)" stroke="none"/>
    </g>
    <g text-rendering="geometricPrecision" stroke-miterlimit="1.45" shape-rendering="geometricPrecision" transform="matrix(1,0,0,1,151,67)" stroke-linecap="butt">
      <rect fill="none" x="51.1696" width="30" height="30" y="52.6667" clip-path="url(#clipPath2)"/>
    </g>
    <g fill="white" text-rendering="geometricPrecision" shape-rendering="geometricPrecision" transform="matrix(1,0,0,1,151,67)" stroke="white">
      <rect x="101.1696" width="30" height="30" y="52.6667" clip-path="url(#clipPath2)" stroke="none"/>
    </g>
    <g text-rendering="geometricPrecision" stroke-miterlimit="1.45" shape-rendering="geometricPrecision" transform="matrix(1,0,0,1,151,67)" stroke-linecap="butt">
      <rect fill="none" x="101.1696" width="30" height="30" y="52.6667" clip-path="url(#clipPath2)"/>
    </g>
    <g fill="white" text-rendering="geometricPrecision" shape-rendering="geometricPrecision" transform="matrix(1,0,0,1,151,67)" stroke="white">
      <rect x="151.1696" width="30" height="30" y="52.6667" clip-path="url(#clipPath2)" stroke="none"/>
    </g>
    <g text-rendering="geometricPrecision" stroke-miterlimit="1.45" shape-rendering="geometricPrecision" transform="matrix(1,0,0,1,151,67)" stroke-linecap="butt">
      <rect fill="none" x="151.1696" width="30" height="30" y="52.6667" clip-path="url(#clipPath2)"/>
    </g>
    <g fill="white" text-rendering="geometricPrecision" shape-rendering="geometricPrecision" transform="matrix(1,0,0,1,151,67)" stroke="white">
      <rect x="1.1696" width="30" height="30" y="102.6667" clip-path="url(#clipPath2)" stroke="none"/>
    </g>
    <g text-rendering="geometricPrecision" stroke-miterlimit="1.45" shape-rendering="geometricPrecision" transform="matrix(1,0,0,1,151,67)" stroke-linecap="butt">
      <rect fill="none" x="1.1696" width="30" height="30" y="102.6667" clip-path="url(#clipPath2)"/>
    </g>
    <g fill="white" text-rendering="geometricPrecision" shape-rendering="geometricPrecision" transform="matrix(1,0,0,1,151,67)" stroke="white">
      <rect x="51.1696" width="30" height="30" y="102.6667" clip-path="url(#clipPath2)" stroke="none"/>
    </g>
    <g text-rendering="geometricPrecision" stroke-miterlimit="1.45" shape-rendering="geometricPrecision" transform="matrix(1,0,0,1,151,67)" stroke-linecap="butt">
      <rect fill="none" x="51.1696" width="30" height="30" y="102.6667" clip-path="url(#clipPath2)"/>
    </g>
    <g fill="white" text-rendering="geometricPrecision" shape-rendering="geometricPrecision" transform="matrix(1,0,0,1,151,67)" stroke="white">
      <rect x="101.1696" width="30" height="30" y="102.6667" clip-path="url(#clipPath2)" stroke="none"/>
    </g>
    <g text-rendering="geometricPrecision" stroke-miterlimit="1.45" shape-rendering="geometricPrecision" transform="matrix(1,0,0,1,151,67)" stroke-linecap="butt">
      <rect fill="none" x="101.1696" width="30" height="30" y="102.6667" clip-path="url(#clipPath2)"/>
    </g>
    <g fill="white" text-rendering="geometricPrecision" shape-rendering="geometricPrecision" transform="matrix(1,0,0,1,151,67)" stroke="white">
      <rect x="151.1696" width="30" height="30" y="102.6667" clip-path="url(#clipPath2)" stroke="none"/>
    </g>
    <g text-rendering="geometricPrecision" stroke-miterlimit="1.45" shape-rendering="geometricPrecision" font-family="sans-serif" transform="matrix(1,0,0,1,151,67)" stroke-linecap="butt">
      <text x="152.652" xml:space="preserve" y="121.821" clip-path="url(#clipPath2)" stroke="none">verb</text>
      <rect fill="none" x="151.1696" width="30" height="30" y="102.6667" clip-path="url(#clipPath2)"/>
    </g>
    <g fill="white" text-rendering="geometricPrecision" shape-rendering="geometricPrecision" transform="matrix(1,0,0,1,151,67)" stroke="white">
      <rect x="1.1696" width="30" height="30" y="152.6667" clip-path="url(#clipPath2)" stroke="none"/>
    </g>
    <g text-rendering="geometricPrecision" stroke-miterlimit="1.45" shape-rendering="geometricPrecision" transform="matrix(1,0,0,1,151,67)" stroke-linecap="butt">
      <rect fill="none" x="1.1696" width="30" height="30" y="152.6667" clip-path="url(#clipPath2)"/>
    </g>
    <g fill="white" text-rendering="geometricPrecision" shape-rendering="geometricPrecision" transform="matrix(1,0,0,1,151,67)" stroke="white">
      <rect x="51.1696" width="30" height="30" y="152.6667" clip-path="url(#clipPath2)" stroke="none"/>
    </g>
    <g text-rendering="geometricPrecision" stroke-miterlimit="1.45" shape-rendering="geometricPrecision" transform="matrix(1,0,0,1,151,67)" stroke-linecap="butt">
      <rect fill="none" x="51.1696" width="30" height="30" y="152.6667" clip-path="url(#clipPath2)"/>
    </g>
    <g fill="white" text-rendering="geometricPrecision" shape-rendering="geometricPrecision" transform="matrix(1,0,0,1,151,67)" stroke="white">
      <rect x="101.1696" width="30" height="30" y="152.6667" clip-path="url(#clipPath2)" stroke="none"/>
    </g>
    <g text-rendering="geometricPrecision" stroke-miterlimit="1.45" shape-rendering="geometricPrecision" font-family="sans-serif" transform="matrix(1,0,0,1,151,67)" stroke-linecap="butt">
      <text x="106.317" xml:space="preserve" y="171.821" clip-path="url(#clipPath2)" stroke="none">det</text>
      <rect fill="none" x="101.1696" width="30" height="30" y="152.6667" clip-path="url(#clipPath2)"/>
    </g>
    <g fill="white" text-rendering="geometricPrecision" shape-rendering="geometricPrecision" transform="matrix(1,0,0,1,151,67)" stroke="white">
      <rect x="151.1696" width="30" height="30" y="152.6667" clip-path="url(#clipPath2)" stroke="none"/>
    </g>
    <g text-rendering="geometricPrecision" stroke-miterlimit="1.45" shape-rendering="geometricPrecision" transform="matrix(1,0,0,1,151,67)" stroke-linecap="butt">
      <rect fill="none" x="151.1696" width="30" height="30" y="152.6667" clip-path="url(#clipPath2)"/>
    </g>
    <g fill="white" text-rendering="geometricPrecision" shape-rendering="geometricPrecision" transform="matrix(1,0,0,1,151,67)" stroke="white">
      <rect x="1.1696" width="30" height="30" y="202.6667" clip-path="url(#clipPath2)" stroke="none"/>
    </g>
    <g text-rendering="geometricPrecision" stroke-miterlimit="1.45" shape-rendering="geometricPrecision" font-family="sans-serif" transform="matrix(1,0,0,1,151,67)" stroke-linecap="butt">
      <text x="8.5582" xml:space="preserve" y="221.821" clip-path="url(#clipPath2)" stroke="none">np</text>
      <rect fill="none" x="1.1696" width="30" height="30" y="202.6667" clip-path="url(#clipPath2)"/>
    </g>
    <g fill="white" text-rendering="geometricPrecision" shape-rendering="geometricPrecision" transform="matrix(1,0,0,1,151,67)" stroke="white">
      <rect x="51.1696" width="30" height="30" y="202.6667" clip-path="url(#clipPath2)" stroke="none"/>
    </g>
    <g text-rendering="geometricPrecision" stroke-miterlimit="1.45" shape-rendering="geometricPrecision" font-family="sans-serif" transform="matrix(1,0,0,1,151,67)" stroke-linecap="butt">
      <text x="52.652" xml:space="preserve" y="221.821" clip-path="url(#clipPath2)" stroke="none">verb</text>
      <rect fill="none" x="51.1696" width="30" height="30" y="202.6667" clip-path="url(#clipPath2)"/>
    </g>
    <g fill="white" text-rendering="geometricPrecision" shape-rendering="geometricPrecision" transform="matrix(1,0,0,1,151,67)" stroke="white">
      <rect x="101.1696" width="30" height="30" y="202.6667" clip-path="url(#clipPath2)" stroke="none"/>
    </g>
    <g text-rendering="geometricPrecision" stroke-miterlimit="1.45" shape-rendering="geometricPrecision" transform="matrix(1,0,0,1,151,67)" stroke-linecap="butt">
      <rect fill="none" x="101.1696" width="30" height="30" y="202.6667" clip-path="url(#clipPath2)"/>
    </g>
    <g fill="white" text-rendering="geometricPrecision" shape-rendering="geometricPrecision" transform="matrix(1,0,0,1,151,67)" stroke="white">
      <rect x="151.1696" width="30" height="30" y="202.6667" clip-path="url(#clipPath2)" stroke="none"/>
    </g>
    <g text-rendering="geometricPrecision" stroke-miterlimit="1.45" shape-rendering="geometricPrecision" transform="matrix(1,0,0,1,151,67)" stroke-linecap="butt">
      <rect fill="none" x="151.1696" width="30" height="30" y="202.6667" clip-path="url(#clipPath2)"/>
    </g>
    <g fill="white" text-rendering="geometricPrecision" shape-rendering="geometricPrecision" transform="matrix(1,0,0,1,151,67)" stroke="white">
      <rect x="1.1696" width="30" height="30" y="252.6667" clip-path="url(#clipPath2)" stroke="none"/>
    </g>
    <g text-rendering="geometricPrecision" stroke-miterlimit="1.45" shape-rendering="geometricPrecision" font-family="sans-serif" transform="matrix(1,0,0,1,151,67)" stroke-linecap="butt">
      <text x="2.4205" xml:space="preserve" y="271.821" clip-path="url(#clipPath2)" stroke="none">pron</text>
      <rect fill="none" x="1.1696" width="30" height="30" y="252.6667" clip-path="url(#clipPath2)"/>
    </g>
    <g fill="white" text-rendering="geometricPrecision" shape-rendering="geometricPrecision" transform="matrix(1,0,0,1,151,67)" stroke="white">
      <rect x="51.1696" width="30" height="30" y="252.6667" clip-path="url(#clipPath2)" stroke="none"/>
    </g>
    <g text-rendering="geometricPrecision" stroke-miterlimit="1.45" shape-rendering="geometricPrecision" transform="matrix(1,0,0,1,151,67)" stroke-linecap="butt">
      <rect fill="none" x="51.1696" width="30" height="30" y="252.6667" clip-path="url(#clipPath2)"/>
    </g>
    <g fill="white" text-rendering="geometricPrecision" shape-rendering="geometricPrecision" transform="matrix(1,0,0,1,151,67)" stroke="white">
      <rect x="101.1696" width="30" height="30" y="252.6667" clip-path="url(#clipPath2)" stroke="none"/>
    </g>
    <g text-rendering="geometricPrecision" stroke-miterlimit="1.45" shape-rendering="geometricPrecision" transform="matrix(1,0,0,1,151,67)" stroke-linecap="butt">
      <rect fill="none" x="101.1696" width="30" height="30" y="252.6667" clip-path="url(#clipPath2)"/>
    </g>
    <g fill="white" text-rendering="geometricPrecision" shape-rendering="geometricPrecision" transform="matrix(1,0,0,1,151,67)" stroke="white">
      <rect x="151.1696" width="30" height="30" y="252.6667" clip-path="url(#clipPath2)" stroke="none"/>
    </g>
    <g text-rendering="geometricPrecision" stroke-miterlimit="1.45" shape-rendering="geometricPrecision" transform="matrix(1,0,0,1,151,67)" stroke-linecap="butt">
      <rect fill="none" x="151.1696" width="30" height="30" y="252.6667" clip-path="url(#clipPath2)"/>
    </g>
    <g fill="white" text-rendering="geometricPrecision" shape-rendering="geometricPrecision" transform="matrix(1,0,0,1,151,67)" stroke="white">
      <rect x="1.1696" width="180" height="30" y="0.6667" clip-path="url(#clipPath2)" stroke="none"/>
    </g>
    <g text-rendering="geometricPrecision" stroke-miterlimit="1.45" shape-rendering="geometricPrecision" font-family="sans-serif" transform="matrix(1,0,0,1,151,67)" stroke-linecap="butt">
      <text x="66.0592" xml:space="preserve" y="19.821" clip-path="url(#clipPath2)" stroke="none">Step 1.0</text>
      <rect fill="none" x="1.1696" width="180" height="30" y="0.6667" clip-path="url(#clipPath2)"/>
    </g>
    <g fill="white" text-rendering="geometricPrecision" shape-rendering="geometricPrecision" transform="matrix(1,0,0,1,151,67)" stroke="white">
      <rect x="-135.3304" width="453" height="30" y="-51.3333" clip-path="url(#clipPath2)" stroke="none"/>
    </g>
    <g text-rendering="geometricPrecision" stroke-miterlimit="1.45" shape-rendering="geometricPrecision" font-family="sans-serif" transform="matrix(1,0,0,1,151,67)" stroke-linecap="butt">
      <text x="-102.1869" xml:space="preserve" y="-32.179" clip-path="url(#clipPath2)" stroke="none">CKY of "I am a Function" - First Permutation: Pron Verb Det Verb</text>
      <rect fill="none" x="-135.3304" width="453" height="30" y="-51.3333" clip-path="url(#clipPath2)"/>
    </g>
    <g fill="white" text-rendering="geometricPrecision" shape-rendering="geometricPrecision" transform="matrix(1,0,0,1,151,67)" stroke="white">
      <rect x="-135.3304" width="453" height="30" y="302.6667" clip-path="url(#clipPath2)" stroke="none"/>
    </g>
    <g text-rendering="geometricPrecision" stroke-miterlimit="1.45" shape-rendering="geometricPrecision" font-family="sans-serif" transform="matrix(1,0,0,1,151,67)" stroke-linecap="butt">
      <text x="66.5572" xml:space="preserve" y="321.821" clip-path="url(#clipPath2)" stroke="none">Figure 3</text>
      <rect fill="none" x="-135.3304" width="453" height="30" y="302.6667" clip-path="url(#clipPath2)"/>
      <path fill="none" d="M16.1695 252.6667 L16.1695 240.6667" clip-path="url(#clipPath2)"/>
      <path d="M16.1695 232.6667 L11.1695 244.6667 L16.1695 241.6667 L21.1695 244.6667 Z" clip-path="url(#clipPath2)" stroke="none"/>
    </g>
  </g>
</svg>
