<?xml version="1.0" encoding="UTF-8"?><svg xmlns="http://www.w3.org/2000/svg" xmlns:xlink="http://www.w3.org/1999/xlink" fill-opacity="1" color-rendering="auto" color-interpolation="auto" text-rendering="auto" stroke="black" stroke-linecap="square" width="703" stroke-miterlimit="10" shape-rendering="auto" stroke-opacity="1" fill="black" stroke-dasharray="none" font-weight="normal" stroke-width="1" height="323" font-family="'Dialog'" font-style="normal" stroke-linejoin="miter" font-size="12px" stroke-dashoffset="0" image-rendering="auto">
  <!--Generated by ySVG 2.5-->
  <defs id="genericDefs"/>
  <g>
    <defs id="defs1">
      <clipPath clipPathUnits="userSpaceOnUse" id="clipPath1">
        <path d="M0 0 L703 0 L703 323 L0 323 L0 0 Z"/>
      </clipPath>
      <clipPath clipPathUnits="userSpaceOnUse" id="clipPath2">
        <path d="M430 314 L1133 314 L1133 637 L430 637 L430 314 Z"/>
      </clipPath>
    </defs>
    <g fill="white" text-rendering="geometricPrecision" shape-rendering="geometricPrecision" transform="translate(-430,-314)" stroke="white">
      <rect x="430" width="703" height="323" y="314" clip-path="url(#clipPath2)" stroke="none"/>
    </g>
    <g font-size="15px" stroke-linecap="butt" transform="matrix(1,0,0,1,-430,-314)" text-rendering="geometricPrecision" font-family="sans-serif" shape-rendering="geometricPrecision" stroke-miterlimit="1.45">
      <text x="692.1196" xml:space="preserve" y="405.7443" clip-path="url(#clipPath2)" stroke="none">Iteration #28</text>
      <rect x="445.1684" y="389.8209" clip-path="url(#clipPath2)" fill="none" width="349" stroke-dasharray="6,2" rx="4" ry="4" height="171.4609"/>
    </g>
    <g fill="white" text-rendering="geometricPrecision" shape-rendering="geometricPrecision" transform="matrix(1,0,0,1,-430,-314)" stroke="white">
      <rect x="708.1684" width="71" height="30" y="426.2819" clip-path="url(#clipPath2)" stroke="none"/>
    </g>
    <g text-rendering="geometricPrecision" stroke-miterlimit="1.45" shape-rendering="geometricPrecision" font-family="sans-serif" transform="matrix(1,0,0,1,-430,-314)" stroke-linecap="butt">
      <text x="732.7289" xml:space="preserve" y="445.4362" clip-path="url(#clipPath2)" stroke="none">null</text>
      <rect fill="none" x="708.1684" width="71" height="30" y="426.2819" clip-path="url(#clipPath2)"/>
    </g>
    <g transform="matrix(1,0,0,1,-430,-314)" fill-opacity="0.0588" fill="rgb(0,0,0)" text-rendering="geometricPrecision" shape-rendering="geometricPrecision" stroke="rgb(0,0,0)" stroke-opacity="0.0588">
      <rect x="637.1684" width="71" height="30" y="426.2819" clip-path="url(#clipPath2)" stroke="none"/>
    </g>
    <g stroke-linecap="butt" transform="matrix(1,0,0,1,-430,-314)" text-rendering="geometricPrecision" font-family="sans-serif" shape-rendering="geometricPrecision" font-style="italic" font-weight="bold" stroke-miterlimit="1.45">
      <text x="660.0121" xml:space="preserve" y="445.4362" clip-path="url(#clipPath2)" stroke="none">null</text>
      <rect fill="none" x="637.1684" width="71" height="30" y="426.2819" clip-path="url(#clipPath2)"/>
      <text x="587.9194" y="445.4362" clip-path="url(#clipPath2)" font-style="normal" stroke="none" font-weight="normal" xml:space="preserve">pron</text>
      <rect fill="none" x="566.1684" width="71" height="30" y="426.2819" clip-path="url(#clipPath2)"/>
    </g>
    <g fill="white" text-rendering="geometricPrecision" shape-rendering="geometricPrecision" transform="matrix(1,0,0,1,-430,-314)" stroke="white">
      <rect x="460.1684" width="71" height="30" y="426.2819" clip-path="url(#clipPath2)" stroke="none"/>
    </g>
    <g text-rendering="geometricPrecision" stroke-miterlimit="1.45" shape-rendering="geometricPrecision" font-family="sans-serif" transform="matrix(1,0,0,1,-430,-314)" stroke-linecap="butt">
      <text x="493.8989" xml:space="preserve" y="445.4362" clip-path="url(#clipPath2)" stroke="none">I</text>
      <rect fill="none" x="460.1684" width="71" height="30" y="426.2819" clip-path="url(#clipPath2)"/>
    </g>
    <g fill="white" text-rendering="geometricPrecision" shape-rendering="geometricPrecision" transform="matrix(1,0,0,1,-430,-314)" stroke="white">
      <rect x="708.1684" width="71" height="30" y="456.2819" clip-path="url(#clipPath2)" stroke="none"/>
    </g>
    <g text-rendering="geometricPrecision" stroke-miterlimit="1.45" shape-rendering="geometricPrecision" font-family="sans-serif" transform="matrix(1,0,0,1,-430,-314)" stroke-linecap="butt">
      <text x="732.7289" xml:space="preserve" y="475.4362" clip-path="url(#clipPath2)" stroke="none">null</text>
      <rect fill="none" x="708.1684" width="71" height="30" y="456.2819" clip-path="url(#clipPath2)"/>
    </g>
    <g fill="white" text-rendering="geometricPrecision" shape-rendering="geometricPrecision" transform="matrix(1,0,0,1,-430,-314)" stroke="white">
      <rect x="637.1684" width="71" height="30" y="456.2819" clip-path="url(#clipPath2)" stroke="none"/>
    </g>
    <g text-rendering="geometricPrecision" stroke-miterlimit="1.45" shape-rendering="geometricPrecision" font-family="sans-serif" transform="matrix(1,0,0,1,-430,-314)" stroke-linecap="butt">
      <text x="661.7289" xml:space="preserve" y="475.4362" clip-path="url(#clipPath2)" stroke="none">null</text>
      <rect fill="none" x="637.1684" width="71" height="30" y="456.2819" clip-path="url(#clipPath2)"/>
    </g>
    <g transform="matrix(1,0,0,1,-430,-314)" fill-opacity="0.0588" fill="rgb(0,0,0)" text-rendering="geometricPrecision" shape-rendering="geometricPrecision" stroke="rgb(0,0,0)" stroke-opacity="0.0588">
      <rect x="566.1684" width="71" height="30" y="456.2819" clip-path="url(#clipPath2)" stroke="none"/>
    </g>
    <g stroke-linecap="butt" transform="matrix(1,0,0,1,-430,-314)" text-rendering="geometricPrecision" font-family="sans-serif" shape-rendering="geometricPrecision" font-style="italic" font-weight="bold" stroke-miterlimit="1.45">
      <text x="586.434" xml:space="preserve" y="475.4362" clip-path="url(#clipPath2)" stroke="none">verb</text>
      <rect fill="none" x="566.1684" width="71" height="30" y="456.2819" clip-path="url(#clipPath2)"/>
    </g>
    <g fill="white" text-rendering="geometricPrecision" shape-rendering="geometricPrecision" transform="matrix(1,0,0,1,-430,-314)" stroke="white">
      <rect x="460.1684" width="71" height="30" y="456.2819" clip-path="url(#clipPath2)" stroke="none"/>
    </g>
    <g text-rendering="geometricPrecision" stroke-miterlimit="1.45" shape-rendering="geometricPrecision" font-family="sans-serif" transform="matrix(1,0,0,1,-430,-314)" stroke-linecap="butt">
      <text x="485.7192" xml:space="preserve" y="475.4362" clip-path="url(#clipPath2)" stroke="none">Am</text>
      <rect fill="none" x="460.1684" width="71" height="30" y="456.2819" clip-path="url(#clipPath2)"/>
    </g>
    <g fill="white" text-rendering="geometricPrecision" shape-rendering="geometricPrecision" transform="matrix(1,0,0,1,-430,-314)" stroke="white">
      <rect x="708.1684" width="71" height="30" y="486.2819" clip-path="url(#clipPath2)" stroke="none"/>
    </g>
    <g text-rendering="geometricPrecision" stroke-miterlimit="1.45" shape-rendering="geometricPrecision" font-family="sans-serif" transform="matrix(1,0,0,1,-430,-314)" stroke-linecap="butt">
      <text x="732.7289" xml:space="preserve" y="505.4362" clip-path="url(#clipPath2)" stroke="none">null</text>
      <rect fill="none" x="708.1684" width="71" height="30" y="486.2819" clip-path="url(#clipPath2)"/>
      <text x="661.7289" xml:space="preserve" y="505.4362" clip-path="url(#clipPath2)" stroke="none">null</text>
      <rect fill="none" x="637.1684" width="71" height="30" y="486.2819" clip-path="url(#clipPath2)"/>
    </g>
    <g transform="matrix(1,0,0,1,-430,-314)" fill-opacity="0.0588" fill="rgb(0,0,0)" text-rendering="geometricPrecision" shape-rendering="geometricPrecision" stroke="rgb(0,0,0)" stroke-opacity="0.0588">
      <rect x="566.1684" width="71" height="30" y="486.2819" clip-path="url(#clipPath2)" stroke="none"/>
    </g>
    <g stroke-linecap="butt" transform="matrix(1,0,0,1,-430,-314)" text-rendering="geometricPrecision" font-family="sans-serif" shape-rendering="geometricPrecision" font-style="italic" font-weight="bold" stroke-miterlimit="1.45">
      <text x="590.436" xml:space="preserve" y="505.4362" clip-path="url(#clipPath2)" stroke="none">det</text>
      <rect fill="none" x="566.1684" width="71" height="30" y="486.2819" clip-path="url(#clipPath2)"/>
    </g>
    <g fill="white" text-rendering="geometricPrecision" shape-rendering="geometricPrecision" transform="matrix(1,0,0,1,-430,-314)" stroke="white">
      <rect x="460.1684" width="71" height="30" y="486.2819" clip-path="url(#clipPath2)" stroke="none"/>
    </g>
    <g text-rendering="geometricPrecision" stroke-miterlimit="1.45" shape-rendering="geometricPrecision" font-family="sans-serif" transform="matrix(1,0,0,1,-430,-314)" stroke-linecap="butt">
      <text x="491.5639" xml:space="preserve" y="505.4362" clip-path="url(#clipPath2)" stroke="none">A</text>
      <rect fill="none" x="460.1684" width="71" height="30" y="486.2819" clip-path="url(#clipPath2)"/>
      <text x="732.7289" xml:space="preserve" y="535.4362" clip-path="url(#clipPath2)" stroke="none">null</text>
      <rect fill="none" x="708.1684" width="71" height="30" y="516.2819" clip-path="url(#clipPath2)"/>
      <text x="657.5893" xml:space="preserve" y="535.4362" clip-path="url(#clipPath2)" stroke="none">noun</text>
      <rect fill="none" x="637.1684" width="71" height="30" y="516.2819" clip-path="url(#clipPath2)"/>
    </g>
    <g transform="matrix(1,0,0,1,-430,-314)" fill-opacity="0.0588" fill="rgb(0,0,0)" text-rendering="geometricPrecision" shape-rendering="geometricPrecision" stroke="rgb(0,0,0)" stroke-opacity="0.0588">
      <rect x="566.1684" width="71" height="30" y="516.2819" clip-path="url(#clipPath2)" stroke="none"/>
    </g>
    <g stroke-linecap="butt" transform="matrix(1,0,0,1,-430,-314)" text-rendering="geometricPrecision" font-family="sans-serif" shape-rendering="geometricPrecision" font-style="italic" font-weight="bold" stroke-miterlimit="1.45">
      <text x="586.434" xml:space="preserve" y="535.4362" clip-path="url(#clipPath2)" stroke="none">verb</text>
      <rect fill="none" x="566.1684" width="71" height="30" y="516.2819" clip-path="url(#clipPath2)"/>
    </g>
    <g fill="white" text-rendering="geometricPrecision" shape-rendering="geometricPrecision" transform="matrix(1,0,0,1,-430,-314)" stroke="white">
      <rect x="460.1684" width="71" height="30" y="516.2819" clip-path="url(#clipPath2)" stroke="none"/>
    </g>
    <g text-rendering="geometricPrecision" stroke-miterlimit="1.45" shape-rendering="geometricPrecision" font-family="sans-serif" transform="matrix(1,0,0,1,-430,-314)" stroke-linecap="butt">
      <text x="469.8198" xml:space="preserve" y="535.4362" clip-path="url(#clipPath2)" stroke="none">Function</text>
      <rect fill="none" x="460.1684" width="71" height="30" y="516.2819" clip-path="url(#clipPath2)"/>
    </g>
    <g fill="white" text-rendering="geometricPrecision" shape-rendering="geometricPrecision" transform="matrix(1,0,0,1,-430,-314)" stroke="white">
      <rect x="1046.5" width="71" height="30" y="460.5514" clip-path="url(#clipPath2)" stroke="none"/>
    </g>
    <g text-rendering="geometricPrecision" stroke-miterlimit="1.45" shape-rendering="geometricPrecision" font-family="sans-serif" transform="matrix(1,0,0,1,-430,-314)" stroke-linecap="butt">
      <text x="1068.4824" xml:space="preserve" y="479.7057" clip-path="url(#clipPath2)" stroke="none">verb</text>
      <rect fill="none" x="1046.5" width="71" height="30" y="460.5514" clip-path="url(#clipPath2)"/>
    </g>
    <g fill="white" text-rendering="geometricPrecision" shape-rendering="geometricPrecision" transform="matrix(1,0,0,1,-430,-314)" stroke="white">
      <rect x="975.5" width="71" height="30" y="460.5514" clip-path="url(#clipPath2)" stroke="none"/>
    </g>
    <g text-rendering="geometricPrecision" stroke-miterlimit="1.45" shape-rendering="geometricPrecision" font-family="sans-serif" transform="matrix(1,0,0,1,-430,-314)" stroke-linecap="butt">
      <text x="1001.1475" xml:space="preserve" y="479.7057" clip-path="url(#clipPath2)" stroke="none">det</text>
      <rect fill="none" x="975.5" width="71" height="30" y="460.5514" clip-path="url(#clipPath2)"/>
    </g>
    <g fill="white" text-rendering="geometricPrecision" shape-rendering="geometricPrecision" transform="matrix(1,0,0,1,-430,-314)" stroke="white">
      <rect x="904.5" width="71" height="30" y="460.5514" clip-path="url(#clipPath2)" stroke="none"/>
    </g>
    <g text-rendering="geometricPrecision" stroke-miterlimit="1.45" shape-rendering="geometricPrecision" font-family="sans-serif" transform="matrix(1,0,0,1,-430,-314)" stroke-linecap="butt">
      <text x="926.4825" xml:space="preserve" y="479.7057" clip-path="url(#clipPath2)" stroke="none">verb</text>
      <rect fill="none" x="904.5" width="71" height="30" y="460.5514" clip-path="url(#clipPath2)"/>
    </g>
    <g fill="white" text-rendering="geometricPrecision" shape-rendering="geometricPrecision" transform="matrix(1,0,0,1,-430,-314)" stroke="white">
      <rect x="833.5" width="71" height="30" y="460.5514" clip-path="url(#clipPath2)" stroke="none"/>
    </g>
    <g text-rendering="geometricPrecision" stroke-miterlimit="1.45" shape-rendering="geometricPrecision" font-family="sans-serif" transform="matrix(1,0,0,1,-430,-314)" stroke-linecap="butt">
      <text x="858.0606" xml:space="preserve" y="479.7057" clip-path="url(#clipPath2)" stroke="none">null</text>
      <rect fill="none" x="833.5" width="71" height="30" y="460.5514" clip-path="url(#clipPath2)"/>
    </g>
    <g fill="white" text-rendering="geometricPrecision" shape-rendering="geometricPrecision" transform="matrix(1,0,0,1,-430,-314)" stroke="white">
      <rect x="445.1684" width="672.6962" height="30" y="329.8209" clip-path="url(#clipPath2)" stroke="none"/>
    </g>
    <g text-rendering="geometricPrecision" stroke-miterlimit="1.45" shape-rendering="geometricPrecision" font-family="sans-serif" transform="matrix(1,0,0,1,-430,-314)" stroke-linecap="butt">
      <text x="513.2831" xml:space="preserve" y="348.9752" clip-path="url(#clipPath2)" stroke="none">Apply iterate(), and iterate over tokens to generate permutations of tokenized sentences</text>
      <rect fill="none" x="445.1684" width="672.6962" height="30" y="329.8209" clip-path="url(#clipPath2)"/>
    </g>
    <g fill="white" text-rendering="geometricPrecision" shape-rendering="geometricPrecision" transform="matrix(1,0,0,1,-430,-314)" stroke="white">
      <rect x="445.1684" width="672.6962" height="30" y="591.2819" clip-path="url(#clipPath2)" stroke="none"/>
    </g>
    <g text-rendering="geometricPrecision" stroke-miterlimit="1.45" shape-rendering="geometricPrecision" font-family="sans-serif" transform="matrix(1,0,0,1,-430,-314)" stroke-linecap="butt">
      <text x="753.0869" xml:space="preserve" y="610.4362" clip-path="url(#clipPath2)" stroke="none">Figure 47</text>
      <rect fill="none" x="445.1684" width="672.6962" height="30" y="591.2819" clip-path="url(#clipPath2)"/>
      <path fill="none" d="M794.158 475.5514 L825.5001 475.5514" clip-path="url(#clipPath2)"/>
      <path d="M833.5001 475.5514 L821.5001 470.5514 L824.5001 475.5514 L821.5001 480.5514 Z" clip-path="url(#clipPath2)" stroke="none"/>
    </g>
  </g>
</svg>
