<?xml version="1.0" encoding="UTF-8"?><svg xmlns="http://www.w3.org/2000/svg" xmlns:xlink="http://www.w3.org/1999/xlink" fill-opacity="1" color-rendering="auto" color-interpolation="auto" text-rendering="auto" stroke="black" stroke-linecap="square" width="704" stroke-miterlimit="10" shape-rendering="auto" stroke-opacity="1" fill="black" stroke-dasharray="none" font-weight="normal" stroke-width="1" height="314" font-family="'Dialog'" font-style="normal" stroke-linejoin="miter" font-size="12px" stroke-dashoffset="0" image-rendering="auto">
  <!--Generated by ySVG 2.5-->
  <defs id="genericDefs"/>
  <g>
    <defs id="defs1">
      <clipPath clipPathUnits="userSpaceOnUse" id="clipPath1">
        <path d="M0 0 L704 0 L704 314 L0 314 L0 0 Z"/>
      </clipPath>
      <clipPath clipPathUnits="userSpaceOnUse" id="clipPath2">
        <path d="M429 314 L1133 314 L1133 628 L429 628 L429 314 Z"/>
      </clipPath>
    </defs>
    <g fill="white" text-rendering="geometricPrecision" shape-rendering="geometricPrecision" transform="translate(-429,-314)" stroke="white">
      <rect x="429" width="704" height="314" y="314" clip-path="url(#clipPath2)" stroke="none"/>
    </g>
    <g font-size="15px" stroke-linecap="butt" transform="matrix(1,0,0,1,-429,-314)" text-rendering="geometricPrecision" font-family="sans-serif" shape-rendering="geometricPrecision" stroke-miterlimit="1.45">
      <text x="701.1885" xml:space="preserve" y="405.3346" clip-path="url(#clipPath2)" stroke="none">Iteration #6</text>
      <rect x="444.6939" y="389.4112" clip-path="url(#clipPath2)" fill="none" width="349" stroke-dasharray="6,2" rx="4" ry="4" height="171.4609"/>
    </g>
    <g fill="white" text-rendering="geometricPrecision" shape-rendering="geometricPrecision" transform="matrix(1,0,0,1,-429,-314)" stroke="white">
      <rect x="707.6939" width="71" height="30" y="425.8722" clip-path="url(#clipPath2)" stroke="none"/>
    </g>
    <g text-rendering="geometricPrecision" stroke-miterlimit="1.45" shape-rendering="geometricPrecision" font-family="sans-serif" transform="matrix(1,0,0,1,-429,-314)" stroke-linecap="butt">
      <text x="732.2544" xml:space="preserve" y="445.0265" clip-path="url(#clipPath2)" stroke="none">null</text>
      <rect fill="none" x="707.6939" width="71" height="30" y="425.8722" clip-path="url(#clipPath2)"/>
    </g>
    <g fill="white" text-rendering="geometricPrecision" shape-rendering="geometricPrecision" transform="matrix(1,0,0,1,-429,-314)" stroke="white">
      <rect x="636.6939" width="71" height="30" y="425.8722" clip-path="url(#clipPath2)" stroke="none"/>
    </g>
    <g text-rendering="geometricPrecision" stroke-miterlimit="1.45" shape-rendering="geometricPrecision" font-family="sans-serif" transform="matrix(1,0,0,1,-429,-314)" stroke-linecap="butt">
      <text x="661.2544" xml:space="preserve" y="445.0265" clip-path="url(#clipPath2)" stroke="none">null</text>
      <rect fill="none" x="636.6939" width="71" height="30" y="425.8722" clip-path="url(#clipPath2)"/>
    </g>
    <g transform="matrix(1,0,0,1,-429,-314)" fill-opacity="0.0588" fill="rgb(0,0,0)" text-rendering="geometricPrecision" shape-rendering="geometricPrecision" stroke="rgb(0,0,0)" stroke-opacity="0.0588">
      <rect x="565.6939" width="71" height="30" y="425.8722" clip-path="url(#clipPath2)" stroke="none"/>
    </g>
    <g stroke-linecap="butt" transform="matrix(1,0,0,1,-429,-314)" text-rendering="geometricPrecision" font-family="sans-serif" shape-rendering="geometricPrecision" font-style="italic" font-weight="bold" stroke-miterlimit="1.45">
      <text x="585.5464" xml:space="preserve" y="445.0265" clip-path="url(#clipPath2)" stroke="none">pron</text>
      <rect fill="none" x="565.6939" width="71" height="30" y="425.8722" clip-path="url(#clipPath2)"/>
    </g>
    <g fill="white" text-rendering="geometricPrecision" shape-rendering="geometricPrecision" transform="matrix(1,0,0,1,-429,-314)" stroke="white">
      <rect x="459.6939" width="71" height="30" y="425.8722" clip-path="url(#clipPath2)" stroke="none"/>
    </g>
    <g text-rendering="geometricPrecision" stroke-miterlimit="1.45" shape-rendering="geometricPrecision" font-family="sans-serif" transform="matrix(1,0,0,1,-429,-314)" stroke-linecap="butt">
      <text x="493.4243" xml:space="preserve" y="445.0265" clip-path="url(#clipPath2)" stroke="none">I</text>
      <rect fill="none" x="459.6939" width="71" height="30" y="425.8722" clip-path="url(#clipPath2)"/>
    </g>
    <g fill="white" text-rendering="geometricPrecision" shape-rendering="geometricPrecision" transform="matrix(1,0,0,1,-429,-314)" stroke="white">
      <rect x="707.6939" width="71" height="30" y="455.8722" clip-path="url(#clipPath2)" stroke="none"/>
    </g>
    <g text-rendering="geometricPrecision" stroke-miterlimit="1.45" shape-rendering="geometricPrecision" font-family="sans-serif" transform="matrix(1,0,0,1,-429,-314)" stroke-linecap="butt">
      <text x="732.2544" xml:space="preserve" y="475.0265" clip-path="url(#clipPath2)" stroke="none">null</text>
      <rect fill="none" x="707.6939" width="71" height="30" y="455.8722" clip-path="url(#clipPath2)"/>
    </g>
    <g fill="white" text-rendering="geometricPrecision" shape-rendering="geometricPrecision" transform="matrix(1,0,0,1,-429,-314)" stroke="white">
      <rect x="636.6939" width="71" height="30" y="455.8722" clip-path="url(#clipPath2)" stroke="none"/>
    </g>
    <g text-rendering="geometricPrecision" stroke-miterlimit="1.45" shape-rendering="geometricPrecision" font-family="sans-serif" transform="matrix(1,0,0,1,-429,-314)" stroke-linecap="butt">
      <text x="661.2544" xml:space="preserve" y="475.0265" clip-path="url(#clipPath2)" stroke="none">null</text>
      <rect fill="none" x="636.6939" width="71" height="30" y="455.8722" clip-path="url(#clipPath2)"/>
    </g>
    <g transform="matrix(1,0,0,1,-429,-314)" fill-opacity="0.0588" fill="rgb(0,0,0)" text-rendering="geometricPrecision" shape-rendering="geometricPrecision" stroke="rgb(0,0,0)" stroke-opacity="0.0588">
      <rect x="565.6939" width="71" height="30" y="455.8722" clip-path="url(#clipPath2)" stroke="none"/>
    </g>
    <g stroke-linecap="butt" transform="matrix(1,0,0,1,-429,-314)" text-rendering="geometricPrecision" font-family="sans-serif" shape-rendering="geometricPrecision" font-style="italic" font-weight="bold" stroke-miterlimit="1.45">
      <text x="585.9595" xml:space="preserve" y="475.0265" clip-path="url(#clipPath2)" stroke="none">verb</text>
      <rect fill="none" x="565.6939" width="71" height="30" y="455.8722" clip-path="url(#clipPath2)"/>
    </g>
    <g fill="white" text-rendering="geometricPrecision" shape-rendering="geometricPrecision" transform="matrix(1,0,0,1,-429,-314)" stroke="white">
      <rect x="459.6939" width="71" height="30" y="455.8722" clip-path="url(#clipPath2)" stroke="none"/>
    </g>
    <g text-rendering="geometricPrecision" stroke-miterlimit="1.45" shape-rendering="geometricPrecision" font-family="sans-serif" transform="matrix(1,0,0,1,-429,-314)" stroke-linecap="butt">
      <text x="485.2447" xml:space="preserve" y="475.0265" clip-path="url(#clipPath2)" stroke="none">Am</text>
      <rect fill="none" x="459.6939" width="71" height="30" y="455.8722" clip-path="url(#clipPath2)"/>
    </g>
    <g fill="white" text-rendering="geometricPrecision" shape-rendering="geometricPrecision" transform="matrix(1,0,0,1,-429,-314)" stroke="white">
      <rect x="707.6939" width="71" height="30" y="485.8722" clip-path="url(#clipPath2)" stroke="none"/>
    </g>
    <g text-rendering="geometricPrecision" stroke-miterlimit="1.45" shape-rendering="geometricPrecision" font-family="sans-serif" transform="matrix(1,0,0,1,-429,-314)" stroke-linecap="butt">
      <text x="732.2544" xml:space="preserve" y="505.0265" clip-path="url(#clipPath2)" stroke="none">null</text>
      <rect fill="none" x="707.6939" width="71" height="30" y="485.8722" clip-path="url(#clipPath2)"/>
    </g>
    <g transform="matrix(1,0,0,1,-429,-314)" fill-opacity="0.0588" fill="rgb(0,0,0)" text-rendering="geometricPrecision" shape-rendering="geometricPrecision" stroke="rgb(0,0,0)" stroke-opacity="0.0588">
      <rect x="636.6939" width="71" height="30" y="485.8722" clip-path="url(#clipPath2)" stroke="none"/>
    </g>
    <g stroke-linecap="butt" transform="matrix(1,0,0,1,-429,-314)" text-rendering="geometricPrecision" font-family="sans-serif" shape-rendering="geometricPrecision" font-style="italic" font-weight="bold" stroke-miterlimit="1.45">
      <text x="659.5376" xml:space="preserve" y="505.0265" clip-path="url(#clipPath2)" stroke="none">null</text>
      <rect fill="none" x="636.6939" width="71" height="30" y="485.8722" clip-path="url(#clipPath2)"/>
      <text x="591.3413" y="505.0265" clip-path="url(#clipPath2)" font-style="normal" stroke="none" font-weight="normal" xml:space="preserve">det</text>
      <rect fill="none" x="565.6939" width="71" height="30" y="485.8722" clip-path="url(#clipPath2)"/>
    </g>
    <g fill="white" text-rendering="geometricPrecision" shape-rendering="geometricPrecision" transform="matrix(1,0,0,1,-429,-314)" stroke="white">
      <rect x="459.6939" width="71" height="30" y="485.8722" clip-path="url(#clipPath2)" stroke="none"/>
    </g>
    <g text-rendering="geometricPrecision" stroke-miterlimit="1.45" shape-rendering="geometricPrecision" font-family="sans-serif" transform="matrix(1,0,0,1,-429,-314)" stroke-linecap="butt">
      <text x="491.0894" xml:space="preserve" y="505.0265" clip-path="url(#clipPath2)" stroke="none">A</text>
      <rect fill="none" x="459.6939" width="71" height="30" y="485.8722" clip-path="url(#clipPath2)"/>
    </g>
    <g transform="matrix(1,0,0,1,-429,-314)" fill-opacity="0.0588" fill="rgb(0,0,0)" text-rendering="geometricPrecision" shape-rendering="geometricPrecision" stroke="rgb(0,0,0)" stroke-opacity="0.0588">
      <rect x="707.6939" width="71" height="30" y="515.8722" clip-path="url(#clipPath2)" stroke="none"/>
    </g>
    <g stroke-linecap="butt" transform="matrix(1,0,0,1,-429,-314)" text-rendering="geometricPrecision" font-family="sans-serif" shape-rendering="geometricPrecision" font-style="italic" font-weight="bold" stroke-miterlimit="1.45">
      <text x="730.5376" xml:space="preserve" y="535.0264" clip-path="url(#clipPath2)" stroke="none">null</text>
      <rect fill="none" x="707.6939" width="71" height="30" y="515.8722" clip-path="url(#clipPath2)"/>
      <text x="657.1147" y="535.0264" clip-path="url(#clipPath2)" font-style="normal" stroke="none" font-weight="normal" xml:space="preserve">noun</text>
      <rect fill="none" x="636.6939" width="71" height="30" y="515.8722" clip-path="url(#clipPath2)"/>
    </g>
    <g transform="matrix(1,0,0,1,-429,-314)" fill-opacity="0" fill="rgb(0,0,0)" text-rendering="geometricPrecision" shape-rendering="geometricPrecision" stroke="rgb(0,0,0)" stroke-opacity="0">
      <rect x="565.6939" width="71" height="30" y="515.8722" clip-path="url(#clipPath2)" stroke="none"/>
    </g>
    <g text-rendering="geometricPrecision" stroke-miterlimit="1.45" shape-rendering="geometricPrecision" font-family="sans-serif" transform="matrix(1,0,0,1,-429,-314)" stroke-linecap="butt">
      <text x="587.6763" xml:space="preserve" y="535.0264" clip-path="url(#clipPath2)" stroke="none">verb</text>
      <rect fill="none" x="565.6939" width="71" height="30" y="515.8722" clip-path="url(#clipPath2)"/>
    </g>
    <g fill="white" text-rendering="geometricPrecision" shape-rendering="geometricPrecision" transform="matrix(1,0,0,1,-429,-314)" stroke="white">
      <rect x="459.6939" width="71" height="30" y="515.8722" clip-path="url(#clipPath2)" stroke="none"/>
    </g>
    <g text-rendering="geometricPrecision" stroke-miterlimit="1.45" shape-rendering="geometricPrecision" font-family="sans-serif" transform="matrix(1,0,0,1,-429,-314)" stroke-linecap="butt">
      <text x="469.3452" xml:space="preserve" y="535.0264" clip-path="url(#clipPath2)" stroke="none">Function</text>
      <rect fill="none" x="459.6939" width="71" height="30" y="515.8722" clip-path="url(#clipPath2)"/>
    </g>
    <g fill="white" text-rendering="geometricPrecision" shape-rendering="geometricPrecision" transform="matrix(1,0,0,1,-429,-314)" stroke="white">
      <rect x="1046.0255" width="71" height="30" y="460.1417" clip-path="url(#clipPath2)" stroke="none"/>
    </g>
    <g text-rendering="geometricPrecision" stroke-miterlimit="1.45" shape-rendering="geometricPrecision" font-family="sans-serif" transform="matrix(1,0,0,1,-429,-314)" stroke-linecap="butt">
      <text x="1070.5861" xml:space="preserve" y="479.296" clip-path="url(#clipPath2)" stroke="none">null</text>
      <rect fill="none" x="1046.0255" width="71" height="30" y="460.1417" clip-path="url(#clipPath2)"/>
    </g>
    <g fill="white" text-rendering="geometricPrecision" shape-rendering="geometricPrecision" transform="matrix(1,0,0,1,-429,-314)" stroke="white">
      <rect x="975.0255" width="71" height="30" y="460.1417" clip-path="url(#clipPath2)" stroke="none"/>
    </g>
    <g text-rendering="geometricPrecision" stroke-miterlimit="1.45" shape-rendering="geometricPrecision" font-family="sans-serif" transform="matrix(1,0,0,1,-429,-314)" stroke-linecap="butt">
      <text x="999.5861" xml:space="preserve" y="479.296" clip-path="url(#clipPath2)" stroke="none">null</text>
      <rect fill="none" x="975.0255" width="71" height="30" y="460.1417" clip-path="url(#clipPath2)"/>
    </g>
    <g fill="white" text-rendering="geometricPrecision" shape-rendering="geometricPrecision" transform="matrix(1,0,0,1,-429,-314)" stroke="white">
      <rect x="904.0255" width="71" height="30" y="460.1417" clip-path="url(#clipPath2)" stroke="none"/>
    </g>
    <g text-rendering="geometricPrecision" stroke-miterlimit="1.45" shape-rendering="geometricPrecision" font-family="sans-serif" transform="matrix(1,0,0,1,-429,-314)" stroke-linecap="butt">
      <text x="926.0079" xml:space="preserve" y="479.296" clip-path="url(#clipPath2)" stroke="none">verb</text>
      <rect fill="none" x="904.0255" width="71" height="30" y="460.1417" clip-path="url(#clipPath2)"/>
    </g>
    <g fill="white" text-rendering="geometricPrecision" shape-rendering="geometricPrecision" transform="matrix(1,0,0,1,-429,-314)" stroke="white">
      <rect x="833.0255" width="71" height="30" y="460.1417" clip-path="url(#clipPath2)" stroke="none"/>
    </g>
    <g text-rendering="geometricPrecision" stroke-miterlimit="1.45" shape-rendering="geometricPrecision" font-family="sans-serif" transform="matrix(1,0,0,1,-429,-314)" stroke-linecap="butt">
      <text x="854.7765" xml:space="preserve" y="479.296" clip-path="url(#clipPath2)" stroke="none">pron</text>
      <rect fill="none" x="833.0255" width="71" height="30" y="460.1417" clip-path="url(#clipPath2)"/>
    </g>
    <g fill="white" text-rendering="geometricPrecision" shape-rendering="geometricPrecision" transform="matrix(1,0,0,1,-429,-314)" stroke="white">
      <rect x="444.6939" width="672.6962" height="30" y="329.4112" clip-path="url(#clipPath2)" stroke="none"/>
    </g>
    <g text-rendering="geometricPrecision" stroke-miterlimit="1.45" shape-rendering="geometricPrecision" font-family="sans-serif" transform="matrix(1,0,0,1,-429,-314)" stroke-linecap="butt">
      <text x="512.8086" xml:space="preserve" y="348.5655" clip-path="url(#clipPath2)" stroke="none">Apply iterate(), and iterate over tokens to generate permutations of tokenized sentences</text>
      <rect fill="none" x="444.6939" width="672.6962" height="30" y="329.4112" clip-path="url(#clipPath2)"/>
    </g>
    <g fill="white" text-rendering="geometricPrecision" shape-rendering="geometricPrecision" transform="matrix(1,0,0,1,-429,-314)" stroke="white">
      <rect x="444.6939" width="672.6962" height="30" y="582.3331" clip-path="url(#clipPath2)" stroke="none"/>
    </g>
    <g text-rendering="geometricPrecision" stroke-miterlimit="1.45" shape-rendering="geometricPrecision" font-family="sans-serif" transform="matrix(1,0,0,1,-429,-314)" stroke-linecap="butt">
      <text x="752.6123" xml:space="preserve" y="601.4874" clip-path="url(#clipPath2)" stroke="none">Figure 45</text>
      <rect fill="none" x="444.6939" width="672.6962" height="30" y="582.3331" clip-path="url(#clipPath2)"/>
      <path fill="none" d="M793.6834 475.1417 L825.0255 475.1417" clip-path="url(#clipPath2)"/>
      <path d="M833.0255 475.1417 L821.0255 470.1417 L824.0255 475.1417 L821.0255 480.1417 Z" clip-path="url(#clipPath2)" stroke="none"/>
    </g>
  </g>
</svg>
