<?xml version="1.0" encoding="UTF-8"?><svg xmlns="http://www.w3.org/2000/svg" xmlns:xlink="http://www.w3.org/1999/xlink" fill-opacity="1" color-rendering="auto" color-interpolation="auto" text-rendering="auto" stroke="black" stroke-linecap="square" width="704" stroke-miterlimit="10" shape-rendering="auto" stroke-opacity="1" fill="black" stroke-dasharray="none" font-weight="normal" stroke-width="1" height="316" font-family="'Dialog'" font-style="normal" stroke-linejoin="miter" font-size="12px" stroke-dashoffset="0" image-rendering="auto">
  <!--Generated by ySVG 2.5-->
  <defs id="genericDefs"/>
  <g>
    <defs id="defs1">
      <clipPath clipPathUnits="userSpaceOnUse" id="clipPath1">
        <path d="M0 0 L704 0 L704 316 L0 316 L0 0 Z"/>
      </clipPath>
      <clipPath clipPathUnits="userSpaceOnUse" id="clipPath2">
        <path d="M317 610 L1021 610 L1021 926 L317 926 L317 610 Z"/>
      </clipPath>
    </defs>
    <g fill="white" text-rendering="geometricPrecision" shape-rendering="geometricPrecision" transform="translate(-317,-610)" stroke="white">
      <rect x="317" width="704" height="316" y="610" clip-path="url(#clipPath2)" stroke="none"/>
    </g>
    <g font-size="15px" stroke-linecap="butt" transform="matrix(1,0,0,1,-317,-610)" text-rendering="geometricPrecision" font-family="sans-serif" shape-rendering="geometricPrecision" stroke-miterlimit="1.45">
      <text x="589.4478" xml:space="preserve" y="701.3744" clip-path="url(#clipPath2)" stroke="none">Iteration #3</text>
      <rect x="332.9532" y="685.451" clip-path="url(#clipPath2)" fill="none" width="349" stroke-dasharray="6,2" rx="4" ry="4" height="171.4609"/>
    </g>
    <g fill="white" text-rendering="geometricPrecision" shape-rendering="geometricPrecision" transform="matrix(1,0,0,1,-317,-610)" stroke="white">
      <rect x="595.9532" width="71" height="30" y="721.912" clip-path="url(#clipPath2)" stroke="none"/>
    </g>
    <g text-rendering="geometricPrecision" stroke-miterlimit="1.45" shape-rendering="geometricPrecision" font-family="sans-serif" transform="matrix(1,0,0,1,-317,-610)" stroke-linecap="butt">
      <text x="620.5137" xml:space="preserve" y="741.0663" clip-path="url(#clipPath2)" stroke="none">null</text>
      <rect fill="none" x="595.9532" width="71" height="30" y="721.912" clip-path="url(#clipPath2)"/>
    </g>
    <g fill="white" text-rendering="geometricPrecision" shape-rendering="geometricPrecision" transform="matrix(1,0,0,1,-317,-610)" stroke="white">
      <rect x="524.9532" width="71" height="30" y="721.912" clip-path="url(#clipPath2)" stroke="none"/>
    </g>
    <g text-rendering="geometricPrecision" stroke-miterlimit="1.45" shape-rendering="geometricPrecision" font-family="sans-serif" transform="matrix(1,0,0,1,-317,-610)" stroke-linecap="butt">
      <text x="549.5137" xml:space="preserve" y="741.0663" clip-path="url(#clipPath2)" stroke="none">null</text>
      <rect fill="none" x="524.9532" width="71" height="30" y="721.912" clip-path="url(#clipPath2)"/>
    </g>
    <g transform="matrix(1,0,0,1,-317,-610)" fill-opacity="0.0588" fill="rgb(0,0,0)" text-rendering="geometricPrecision" shape-rendering="geometricPrecision" stroke="rgb(0,0,0)" stroke-opacity="0.0588">
      <rect x="453.9532" width="71" height="30" y="721.912" clip-path="url(#clipPath2)" stroke="none"/>
    </g>
    <g stroke-linecap="butt" transform="matrix(1,0,0,1,-317,-610)" text-rendering="geometricPrecision" font-family="sans-serif" shape-rendering="geometricPrecision" font-style="italic" font-weight="bold" stroke-miterlimit="1.45">
      <text x="473.8057" xml:space="preserve" y="741.0663" clip-path="url(#clipPath2)" stroke="none">pron</text>
      <rect fill="none" x="453.9532" width="71" height="30" y="721.912" clip-path="url(#clipPath2)"/>
    </g>
    <g fill="white" text-rendering="geometricPrecision" shape-rendering="geometricPrecision" transform="matrix(1,0,0,1,-317,-610)" stroke="white">
      <rect x="347.9532" width="71" height="30" y="721.912" clip-path="url(#clipPath2)" stroke="none"/>
    </g>
    <g text-rendering="geometricPrecision" stroke-miterlimit="1.45" shape-rendering="geometricPrecision" font-family="sans-serif" transform="matrix(1,0,0,1,-317,-610)" stroke-linecap="butt">
      <text x="381.6836" xml:space="preserve" y="741.0663" clip-path="url(#clipPath2)" stroke="none">I</text>
      <rect fill="none" x="347.9532" width="71" height="30" y="721.912" clip-path="url(#clipPath2)"/>
    </g>
    <g fill="white" text-rendering="geometricPrecision" shape-rendering="geometricPrecision" transform="matrix(1,0,0,1,-317,-610)" stroke="white">
      <rect x="595.9532" width="71" height="30" y="751.912" clip-path="url(#clipPath2)" stroke="none"/>
    </g>
    <g text-rendering="geometricPrecision" stroke-miterlimit="1.45" shape-rendering="geometricPrecision" font-family="sans-serif" transform="matrix(1,0,0,1,-317,-610)" stroke-linecap="butt">
      <text x="620.5137" xml:space="preserve" y="771.0663" clip-path="url(#clipPath2)" stroke="none">null</text>
      <rect fill="none" x="595.9532" width="71" height="30" y="751.912" clip-path="url(#clipPath2)"/>
    </g>
    <g fill="white" text-rendering="geometricPrecision" shape-rendering="geometricPrecision" transform="matrix(1,0,0,1,-317,-610)" stroke="white">
      <rect x="524.9532" width="71" height="30" y="751.912" clip-path="url(#clipPath2)" stroke="none"/>
    </g>
    <g text-rendering="geometricPrecision" stroke-miterlimit="1.45" shape-rendering="geometricPrecision" font-family="sans-serif" transform="matrix(1,0,0,1,-317,-610)" stroke-linecap="butt">
      <text x="549.5137" xml:space="preserve" y="771.0663" clip-path="url(#clipPath2)" stroke="none">null</text>
      <rect fill="none" x="524.9532" width="71" height="30" y="751.912" clip-path="url(#clipPath2)"/>
    </g>
    <g transform="matrix(1,0,0,1,-317,-610)" fill-opacity="0.0588" fill="rgb(0,0,0)" text-rendering="geometricPrecision" shape-rendering="geometricPrecision" stroke="rgb(0,0,0)" stroke-opacity="0.0588">
      <rect x="453.9532" width="71" height="30" y="751.912" clip-path="url(#clipPath2)" stroke="none"/>
    </g>
    <g stroke-linecap="butt" transform="matrix(1,0,0,1,-317,-610)" text-rendering="geometricPrecision" font-family="sans-serif" shape-rendering="geometricPrecision" font-style="italic" font-weight="bold" stroke-miterlimit="1.45">
      <text x="474.2188" xml:space="preserve" y="771.0663" clip-path="url(#clipPath2)" stroke="none">verb</text>
      <rect fill="none" x="453.9532" width="71" height="30" y="751.912" clip-path="url(#clipPath2)"/>
    </g>
    <g fill="white" text-rendering="geometricPrecision" shape-rendering="geometricPrecision" transform="matrix(1,0,0,1,-317,-610)" stroke="white">
      <rect x="347.9532" width="71" height="30" y="751.912" clip-path="url(#clipPath2)" stroke="none"/>
    </g>
    <g text-rendering="geometricPrecision" stroke-miterlimit="1.45" shape-rendering="geometricPrecision" font-family="sans-serif" transform="matrix(1,0,0,1,-317,-610)" stroke-linecap="butt">
      <text x="373.5039" xml:space="preserve" y="771.0663" clip-path="url(#clipPath2)" stroke="none">Am</text>
      <rect fill="none" x="347.9532" width="71" height="30" y="751.912" clip-path="url(#clipPath2)"/>
    </g>
    <g fill="white" text-rendering="geometricPrecision" shape-rendering="geometricPrecision" transform="matrix(1,0,0,1,-317,-610)" stroke="white">
      <rect x="595.9532" width="71" height="30" y="781.912" clip-path="url(#clipPath2)" stroke="none"/>
    </g>
    <g text-rendering="geometricPrecision" stroke-miterlimit="1.45" shape-rendering="geometricPrecision" font-family="sans-serif" transform="matrix(1,0,0,1,-317,-610)" stroke-linecap="butt">
      <text x="620.5137" xml:space="preserve" y="801.0663" clip-path="url(#clipPath2)" stroke="none">null</text>
      <rect fill="none" x="595.9532" width="71" height="30" y="781.912" clip-path="url(#clipPath2)"/>
    </g>
    <g fill="white" text-rendering="geometricPrecision" shape-rendering="geometricPrecision" transform="matrix(1,0,0,1,-317,-610)" stroke="white">
      <rect x="524.9532" width="71" height="30" y="781.912" clip-path="url(#clipPath2)" stroke="none"/>
    </g>
    <g text-rendering="geometricPrecision" stroke-miterlimit="1.45" shape-rendering="geometricPrecision" font-family="sans-serif" transform="matrix(1,0,0,1,-317,-610)" stroke-linecap="butt">
      <text x="549.5137" xml:space="preserve" y="801.0663" clip-path="url(#clipPath2)" stroke="none">null</text>
      <rect fill="none" x="524.9532" width="71" height="30" y="781.912" clip-path="url(#clipPath2)"/>
    </g>
    <g transform="matrix(1,0,0,1,-317,-610)" fill-opacity="0.0588" fill="rgb(0,0,0)" text-rendering="geometricPrecision" shape-rendering="geometricPrecision" stroke="rgb(0,0,0)" stroke-opacity="0.0588">
      <rect x="453.9532" width="71" height="30" y="781.912" clip-path="url(#clipPath2)" stroke="none"/>
    </g>
    <g stroke-linecap="butt" transform="matrix(1,0,0,1,-317,-610)" text-rendering="geometricPrecision" font-family="sans-serif" shape-rendering="geometricPrecision" font-style="italic" font-weight="bold" stroke-miterlimit="1.45">
      <text x="478.2207" xml:space="preserve" y="801.0663" clip-path="url(#clipPath2)" stroke="none">det</text>
      <rect fill="none" x="453.9532" width="71" height="30" y="781.912" clip-path="url(#clipPath2)"/>
    </g>
    <g fill="white" text-rendering="geometricPrecision" shape-rendering="geometricPrecision" transform="matrix(1,0,0,1,-317,-610)" stroke="white">
      <rect x="347.9532" width="71" height="30" y="781.912" clip-path="url(#clipPath2)" stroke="none"/>
    </g>
    <g text-rendering="geometricPrecision" stroke-miterlimit="1.45" shape-rendering="geometricPrecision" font-family="sans-serif" transform="matrix(1,0,0,1,-317,-610)" stroke-linecap="butt">
      <text x="379.3487" xml:space="preserve" y="801.0663" clip-path="url(#clipPath2)" stroke="none">A</text>
      <rect fill="none" x="347.9532" width="71" height="30" y="781.912" clip-path="url(#clipPath2)"/>
    </g>
    <g transform="matrix(1,0,0,1,-317,-610)" fill-opacity="0.0588" fill="rgb(0,0,0)" text-rendering="geometricPrecision" shape-rendering="geometricPrecision" stroke="rgb(0,0,0)" stroke-opacity="0.0588">
      <rect x="595.9532" width="71" height="30" y="811.912" clip-path="url(#clipPath2)" stroke="none"/>
    </g>
    <g stroke-linecap="butt" transform="matrix(1,0,0,1,-317,-610)" text-rendering="geometricPrecision" font-family="sans-serif" shape-rendering="geometricPrecision" font-style="italic" font-weight="bold" stroke-miterlimit="1.45">
      <text x="618.7969" xml:space="preserve" y="831.0663" clip-path="url(#clipPath2)" stroke="none">null</text>
      <rect fill="none" x="595.9532" width="71" height="30" y="811.912" clip-path="url(#clipPath2)"/>
    </g>
    <g fill="white" text-rendering="geometricPrecision" shape-rendering="geometricPrecision" transform="matrix(1,0,0,1,-317,-610)" stroke="white">
      <rect x="524.9532" width="71" height="30" y="811.912" clip-path="url(#clipPath2)" stroke="none"/>
    </g>
    <g text-rendering="geometricPrecision" stroke-miterlimit="1.45" shape-rendering="geometricPrecision" font-family="sans-serif" transform="matrix(1,0,0,1,-317,-610)" stroke-linecap="butt">
      <text x="545.3741" xml:space="preserve" y="831.0663" clip-path="url(#clipPath2)" stroke="none">noun</text>
      <rect fill="none" x="524.9532" width="71" height="30" y="811.912" clip-path="url(#clipPath2)"/>
    </g>
    <g fill="white" text-rendering="geometricPrecision" shape-rendering="geometricPrecision" transform="matrix(1,0,0,1,-317,-610)" stroke="white">
      <rect x="453.9532" width="71" height="30" y="811.912" clip-path="url(#clipPath2)" stroke="none"/>
    </g>
    <g text-rendering="geometricPrecision" stroke-miterlimit="1.45" shape-rendering="geometricPrecision" font-family="sans-serif" transform="matrix(1,0,0,1,-317,-610)" stroke-linecap="butt">
      <text x="475.9356" xml:space="preserve" y="831.0663" clip-path="url(#clipPath2)" stroke="none">verb</text>
      <rect fill="none" x="453.9532" width="71" height="30" y="811.912" clip-path="url(#clipPath2)"/>
    </g>
    <g fill="white" text-rendering="geometricPrecision" shape-rendering="geometricPrecision" transform="matrix(1,0,0,1,-317,-610)" stroke="white">
      <rect x="347.9532" width="71" height="30" y="811.912" clip-path="url(#clipPath2)" stroke="none"/>
    </g>
    <g text-rendering="geometricPrecision" stroke-miterlimit="1.45" shape-rendering="geometricPrecision" font-family="sans-serif" transform="matrix(1,0,0,1,-317,-610)" stroke-linecap="butt">
      <text x="357.6045" xml:space="preserve" y="831.0663" clip-path="url(#clipPath2)" stroke="none">Function</text>
      <rect fill="none" x="347.9532" width="71" height="30" y="811.912" clip-path="url(#clipPath2)"/>
    </g>
    <g fill="white" text-rendering="geometricPrecision" shape-rendering="geometricPrecision" transform="matrix(1,0,0,1,-317,-610)" stroke="white">
      <rect x="934.2848" width="71" height="30" y="756.1815" clip-path="url(#clipPath2)" stroke="none"/>
    </g>
    <g text-rendering="geometricPrecision" stroke-miterlimit="1.45" shape-rendering="geometricPrecision" font-family="sans-serif" transform="matrix(1,0,0,1,-317,-610)" stroke-linecap="butt">
      <text x="958.8453" xml:space="preserve" y="775.3358" clip-path="url(#clipPath2)" stroke="none">null</text>
      <rect fill="none" x="934.2848" width="71" height="30" y="756.1815" clip-path="url(#clipPath2)"/>
    </g>
    <g fill="white" text-rendering="geometricPrecision" shape-rendering="geometricPrecision" transform="matrix(1,0,0,1,-317,-610)" stroke="white">
      <rect x="863.2848" width="71" height="30" y="756.1815" clip-path="url(#clipPath2)" stroke="none"/>
    </g>
    <g text-rendering="geometricPrecision" stroke-miterlimit="1.45" shape-rendering="geometricPrecision" font-family="sans-serif" transform="matrix(1,0,0,1,-317,-610)" stroke-linecap="butt">
      <text x="888.9323" xml:space="preserve" y="775.3358" clip-path="url(#clipPath2)" stroke="none">det</text>
      <rect fill="none" x="863.2848" width="71" height="30" y="756.1815" clip-path="url(#clipPath2)"/>
    </g>
    <g fill="white" text-rendering="geometricPrecision" shape-rendering="geometricPrecision" transform="matrix(1,0,0,1,-317,-610)" stroke="white">
      <rect x="792.2848" width="71" height="30" y="756.1815" clip-path="url(#clipPath2)" stroke="none"/>
    </g>
    <g text-rendering="geometricPrecision" stroke-miterlimit="1.45" shape-rendering="geometricPrecision" font-family="sans-serif" transform="matrix(1,0,0,1,-317,-610)" stroke-linecap="butt">
      <text x="814.2672" xml:space="preserve" y="775.3358" clip-path="url(#clipPath2)" stroke="none">verb</text>
      <rect fill="none" x="792.2848" width="71" height="30" y="756.1815" clip-path="url(#clipPath2)"/>
    </g>
    <g fill="white" text-rendering="geometricPrecision" shape-rendering="geometricPrecision" transform="matrix(1,0,0,1,-317,-610)" stroke="white">
      <rect x="721.2848" width="71" height="30" y="756.1815" clip-path="url(#clipPath2)" stroke="none"/>
    </g>
    <g text-rendering="geometricPrecision" stroke-miterlimit="1.45" shape-rendering="geometricPrecision" font-family="sans-serif" transform="matrix(1,0,0,1,-317,-610)" stroke-linecap="butt">
      <text x="743.0358" xml:space="preserve" y="775.3358" clip-path="url(#clipPath2)" stroke="none">pron</text>
      <rect fill="none" x="721.2848" width="71" height="30" y="756.1815" clip-path="url(#clipPath2)"/>
    </g>
    <g fill="white" text-rendering="geometricPrecision" shape-rendering="geometricPrecision" transform="matrix(1,0,0,1,-317,-610)" stroke="white">
      <rect x="332.9532" width="672.6962" height="30" y="625.451" clip-path="url(#clipPath2)" stroke="none"/>
    </g>
    <g text-rendering="geometricPrecision" stroke-miterlimit="1.45" shape-rendering="geometricPrecision" font-family="sans-serif" transform="matrix(1,0,0,1,-317,-610)" stroke-linecap="butt">
      <text x="401.0679" xml:space="preserve" y="644.6053" clip-path="url(#clipPath2)" stroke="none">Apply iterate(), and iterate over tokens to generate permutations of tokenized sentences</text>
      <rect fill="none" x="332.9532" width="672.6962" height="30" y="625.451" clip-path="url(#clipPath2)"/>
    </g>
    <g fill="white" text-rendering="geometricPrecision" shape-rendering="geometricPrecision" transform="matrix(1,0,0,1,-317,-610)" stroke="white">
      <rect x="332.5886" width="672.6962" height="30" y="880.912" clip-path="url(#clipPath2)" stroke="none"/>
    </g>
    <g text-rendering="geometricPrecision" stroke-miterlimit="1.45" shape-rendering="geometricPrecision" font-family="sans-serif" transform="matrix(1,0,0,1,-317,-610)" stroke-linecap="butt">
      <text x="640.507" xml:space="preserve" y="900.0663" clip-path="url(#clipPath2)" stroke="none">Figure 42</text>
      <rect fill="none" x="332.5886" width="672.6962" height="30" y="880.912" clip-path="url(#clipPath2)"/>
      <path fill="none" d="M681.9427 771.1815 L713.2848 771.1815" clip-path="url(#clipPath2)"/>
      <path d="M721.2848 771.1815 L709.2848 766.1815 L712.2848 771.1815 L709.2848 776.1815 Z" clip-path="url(#clipPath2)" stroke="none"/>
    </g>
  </g>
</svg>
