<?xml version="1.0" encoding="UTF-8"?><svg xmlns="http://www.w3.org/2000/svg" xmlns:xlink="http://www.w3.org/1999/xlink" fill-opacity="1" color-rendering="auto" color-interpolation="auto" text-rendering="auto" stroke="black" stroke-linecap="square" width="552" stroke-miterlimit="10" shape-rendering="auto" stroke-opacity="1" fill="black" stroke-dasharray="none" font-weight="normal" stroke-width="1" height="660" font-family="'Dialog'" font-style="normal" stroke-linejoin="miter" font-size="12px" stroke-dashoffset="0" image-rendering="auto">
  <!--Generated by ySVG 2.5-->
  <defs id="genericDefs"/>
  <g>
    <defs id="defs1">
      <clipPath clipPathUnits="userSpaceOnUse" id="clipPath1">
        <path d="M0 0 L552 0 L552 660 L0 660 L0 0 Z"/>
      </clipPath>
      <clipPath clipPathUnits="userSpaceOnUse" id="clipPath2">
        <path d="M287 190 L839 190 L839 850 L287 850 L287 190 Z"/>
      </clipPath>
    </defs>
    <g fill="white" text-rendering="geometricPrecision" shape-rendering="geometricPrecision" transform="translate(-287,-190)" stroke="white">
      <rect x="287" width="552" height="660" y="190" clip-path="url(#clipPath2)" stroke="none"/>
    </g>
    <g fill="white" text-rendering="geometricPrecision" shape-rendering="geometricPrecision" transform="matrix(1,0,0,1,-287,-190)" stroke="white">
      <rect x="586.0075" width="237.6042" height="30" y="324.21" clip-path="url(#clipPath2)" stroke="none"/>
    </g>
    <g text-rendering="geometricPrecision" stroke-miterlimit="1.45" shape-rendering="geometricPrecision" font-family="sans-serif" transform="matrix(1,0,0,1,-287,-190)" stroke-linecap="butt">
      <text x="691.295" xml:space="preserve" y="343.3643" clip-path="url(#clipPath2)" stroke="none">Tree</text>
      <rect fill="none" x="586.0075" width="237.6042" height="30" y="324.21" clip-path="url(#clipPath2)"/>
    </g>
    <g fill="white" text-rendering="geometricPrecision" shape-rendering="geometricPrecision" transform="matrix(1,0,0,1,-287,-190)" stroke="white">
      <rect x="304.6534" width="237.6042" height="30" y="626.21" clip-path="url(#clipPath2)" stroke="none"/>
    </g>
    <g text-rendering="geometricPrecision" stroke-miterlimit="1.45" shape-rendering="geometricPrecision" font-family="sans-serif" transform="matrix(1,0,0,1,-287,-190)" stroke-linecap="butt">
      <text x="364.8207" xml:space="preserve" y="645.3643" clip-path="url(#clipPath2)" stroke="none">Stack &amp; Line Status</text>
      <rect fill="none" x="304.6534" width="237.6042" height="30" y="626.21" clip-path="url(#clipPath2)"/>
    </g>
    <g fill="white" text-rendering="geometricPrecision" shape-rendering="geometricPrecision" transform="matrix(1,0,0,1,-287,-190)" stroke="white">
      <rect x="304.6534" width="518.9583" height="44.6667" y="205.1519" clip-path="url(#clipPath2)" stroke="none"/>
    </g>
    <g font-size="11px" stroke-linecap="butt" transform="matrix(1,0,0,1,-287,-190)" text-rendering="geometricPrecision" font-family="sans-serif" shape-rendering="geometricPrecision" stroke-miterlimit="1.45">
      <text x="481.5869" xml:space="preserve" y="218.4886" clip-path="url(#clipPath2)" stroke="none">Tree_DFS of "I am a Function"</text>
      <text x="514.6889" xml:space="preserve" y="231.2933" clip-path="url(#clipPath2)" stroke="none">First Permutation:</text>
      <text x="509.334" xml:space="preserve" y="244.098" clip-path="url(#clipPath2)" stroke="none">Pron Verb Det Noun</text>
      <rect fill="none" x="304.6534" width="518.9583" height="44.6667" y="205.1519" clip-path="url(#clipPath2)"/>
    </g>
    <g fill="white" text-rendering="geometricPrecision" shape-rendering="geometricPrecision" transform="matrix(1,0,0,1,-287,-190)" stroke="white">
      <rect x="304.6534" width="518.9583" height="30" y="272.0143" clip-path="url(#clipPath2)" stroke="none"/>
    </g>
    <g text-rendering="geometricPrecision" stroke-miterlimit="1.45" shape-rendering="geometricPrecision" font-family="sans-serif" transform="matrix(1,0,0,1,-287,-190)" stroke-linecap="butt">
      <text x="544.7468" xml:space="preserve" y="291.1685" clip-path="url(#clipPath2)" stroke="none">Step 0</text>
      <rect fill="none" x="304.6534" width="518.9583" height="30" y="272.0143" clip-path="url(#clipPath2)"/>
    </g>
    <g fill="white" text-rendering="geometricPrecision" shape-rendering="geometricPrecision" transform="matrix(1,0,0,1,-287,-190)" stroke="white">
      <rect x="304.6534" width="30" height="30" y="376.21" clip-path="url(#clipPath2)" stroke="none"/>
    </g>
    <g text-rendering="geometricPrecision" stroke-miterlimit="1.45" shape-rendering="geometricPrecision" font-family="sans-serif" transform="matrix(1,0,0,1,-287,-190)" stroke-linecap="butt">
      <text x="316.5274" xml:space="preserve" y="395.3643" clip-path="url(#clipPath2)" stroke="none">s</text>
      <rect x="304.6534" y="376.21" clip-path="url(#clipPath2)" fill="none" width="30" stroke-dasharray="12,4" height="30" stroke-width="2"/>
    </g>
    <g fill="white" text-rendering="geometricPrecision" shape-rendering="geometricPrecision" transform="matrix(1,0,0,1,-287,-190)" stroke="white">
      <rect x="354.6534" width="30" height="30" y="376.21" clip-path="url(#clipPath2)" stroke="none"/>
    </g>
    <g text-rendering="geometricPrecision" stroke-miterlimit="1.45" shape-rendering="geometricPrecision" font-family="sans-serif" transform="matrix(1,0,0,1,-287,-190)" stroke-linecap="butt">
      <text x="362.294" xml:space="preserve" y="395.3643" clip-path="url(#clipPath2)" stroke="none">vp</text>
      <rect fill="none" x="354.6534" width="30" height="30" y="376.21" clip-path="url(#clipPath2)"/>
    </g>
    <g fill="white" text-rendering="geometricPrecision" shape-rendering="geometricPrecision" transform="matrix(1,0,0,1,-287,-190)" stroke="white">
      <rect x="404.6534" width="30" height="30" y="376.21" clip-path="url(#clipPath2)" stroke="none"/>
    </g>
    <g text-rendering="geometricPrecision" stroke-miterlimit="1.45" shape-rendering="geometricPrecision" font-family="sans-serif" transform="matrix(1,0,0,1,-287,-190)" stroke-linecap="butt">
      <text x="412.042" xml:space="preserve" y="395.3643" clip-path="url(#clipPath2)" stroke="none">np</text>
      <rect fill="none" x="404.6534" width="30" height="30" y="376.21" clip-path="url(#clipPath2)"/>
    </g>
    <g fill="white" text-rendering="geometricPrecision" shape-rendering="geometricPrecision" transform="matrix(1,0,0,1,-287,-190)" stroke="white">
      <rect x="454.6534" width="30" height="30" y="376.21" clip-path="url(#clipPath2)" stroke="none"/>
    </g>
    <g text-rendering="geometricPrecision" stroke-miterlimit="1.45" shape-rendering="geometricPrecision" font-family="sans-serif" transform="matrix(1,0,0,1,-287,-190)" stroke-linecap="butt">
      <text x="456.335" xml:space="preserve" y="395.3643" clip-path="url(#clipPath2)" stroke="none">nom</text>
      <rect fill="none" x="454.6534" width="30" height="30" y="376.21" clip-path="url(#clipPath2)"/>
    </g>
    <g fill="white" text-rendering="geometricPrecision" shape-rendering="geometricPrecision" transform="matrix(1,0,0,1,-287,-190)" stroke="white">
      <rect x="304.6534" width="30" height="30" y="426.21" clip-path="url(#clipPath2)" stroke="none"/>
    </g>
    <g text-rendering="geometricPrecision" stroke-miterlimit="1.45" shape-rendering="geometricPrecision" font-family="sans-serif" transform="matrix(1,0,0,1,-287,-190)" stroke-linecap="butt">
      <text x="312.042" xml:space="preserve" y="445.3643" clip-path="url(#clipPath2)" stroke="none">np</text>
      <rect fill="none" x="304.6534" width="30" height="30" y="426.21" clip-path="url(#clipPath2)"/>
    </g>
    <g fill="white" text-rendering="geometricPrecision" shape-rendering="geometricPrecision" transform="matrix(1,0,0,1,-287,-190)" stroke="white">
      <rect x="354.6534" width="30" height="30" y="426.21" clip-path="url(#clipPath2)" stroke="none"/>
    </g>
    <g text-rendering="geometricPrecision" stroke-miterlimit="1.45" shape-rendering="geometricPrecision" font-family="sans-serif" transform="matrix(1,0,0,1,-287,-190)" stroke-linecap="butt">
      <text x="362.294" xml:space="preserve" y="445.3643" clip-path="url(#clipPath2)" stroke="none">vp</text>
      <rect fill="none" x="354.6534" width="30" height="30" y="426.21" clip-path="url(#clipPath2)"/>
    </g>
    <g fill="white" text-rendering="geometricPrecision" shape-rendering="geometricPrecision" transform="matrix(1,0,0,1,-287,-190)" stroke="white">
      <rect x="404.6534" width="30" height="30" y="426.21" clip-path="url(#clipPath2)" stroke="none"/>
    </g>
    <g text-rendering="geometricPrecision" stroke-miterlimit="1.45" shape-rendering="geometricPrecision" font-family="sans-serif" transform="matrix(1,0,0,1,-287,-190)" stroke-linecap="butt">
      <text x="409.8008" xml:space="preserve" y="445.3643" clip-path="url(#clipPath2)" stroke="none">det</text>
      <rect fill="none" x="404.6534" width="30" height="30" y="426.21" clip-path="url(#clipPath2)"/>
    </g>
    <g fill="white" text-rendering="geometricPrecision" shape-rendering="geometricPrecision" transform="matrix(1,0,0,1,-287,-190)" stroke="white">
      <rect x="454.6534" width="30" height="30" y="426.21" clip-path="url(#clipPath2)" stroke="none"/>
    </g>
    <g text-rendering="geometricPrecision" stroke-miterlimit="1.45" shape-rendering="geometricPrecision" font-family="sans-serif" transform="matrix(1,0,0,1,-287,-190)" stroke-linecap="butt">
      <text x="454.5742" xml:space="preserve" y="445.3643" clip-path="url(#clipPath2)" stroke="none">noun</text>
      <rect fill="none" x="454.6534" width="30" height="30" y="426.21" clip-path="url(#clipPath2)"/>
    </g>
    <g fill="white" text-rendering="geometricPrecision" shape-rendering="geometricPrecision" transform="matrix(1,0,0,1,-287,-190)" stroke="white">
      <rect x="304.6534" width="30" height="30" y="476.21" clip-path="url(#clipPath2)" stroke="none"/>
    </g>
    <g text-rendering="geometricPrecision" stroke-miterlimit="1.45" shape-rendering="geometricPrecision" font-family="sans-serif" transform="matrix(1,0,0,1,-287,-190)" stroke-linecap="butt">
      <text x="312.042" xml:space="preserve" y="495.3643" clip-path="url(#clipPath2)" stroke="none">np</text>
      <rect fill="none" x="304.6534" width="30" height="30" y="476.21" clip-path="url(#clipPath2)"/>
    </g>
    <g fill="white" text-rendering="geometricPrecision" shape-rendering="geometricPrecision" transform="matrix(1,0,0,1,-287,-190)" stroke="white">
      <rect x="354.6534" width="30" height="30" y="476.21" clip-path="url(#clipPath2)" stroke="none"/>
    </g>
    <g text-rendering="geometricPrecision" stroke-miterlimit="1.45" shape-rendering="geometricPrecision" font-family="sans-serif" transform="matrix(1,0,0,1,-287,-190)" stroke-linecap="butt">
      <text x="362.294" xml:space="preserve" y="495.3643" clip-path="url(#clipPath2)" stroke="none">vp</text>
      <rect fill="none" x="354.6534" width="30" height="30" y="476.21" clip-path="url(#clipPath2)"/>
    </g>
    <g fill="white" text-rendering="geometricPrecision" shape-rendering="geometricPrecision" transform="matrix(1,0,0,1,-287,-190)" stroke="white">
      <rect x="404.6534" width="30" height="30" y="476.21" clip-path="url(#clipPath2)" stroke="none"/>
    </g>
    <g text-rendering="geometricPrecision" stroke-miterlimit="1.45" shape-rendering="geometricPrecision" font-family="sans-serif" transform="matrix(1,0,0,1,-287,-190)" stroke-linecap="butt">
      <text x="409.8008" xml:space="preserve" y="495.3643" clip-path="url(#clipPath2)" stroke="none">det</text>
      <rect fill="none" x="404.6534" width="30" height="30" y="476.21" clip-path="url(#clipPath2)"/>
    </g>
    <g fill="white" text-rendering="geometricPrecision" shape-rendering="geometricPrecision" transform="matrix(1,0,0,1,-287,-190)" stroke="white">
      <rect x="454.6534" width="30" height="30" y="476.21" clip-path="url(#clipPath2)" stroke="none"/>
    </g>
    <g text-rendering="geometricPrecision" stroke-miterlimit="1.45" shape-rendering="geometricPrecision" transform="matrix(1,0,0,1,-287,-190)" stroke-linecap="butt">
      <rect fill="none" x="454.6534" width="30" height="30" y="476.21" clip-path="url(#clipPath2)"/>
    </g>
    <g fill="white" text-rendering="geometricPrecision" shape-rendering="geometricPrecision" transform="matrix(1,0,0,1,-287,-190)" stroke="white">
      <rect x="304.6534" width="30" height="30" y="526.21" clip-path="url(#clipPath2)" stroke="none"/>
    </g>
    <g text-rendering="geometricPrecision" stroke-miterlimit="1.45" shape-rendering="geometricPrecision" font-family="sans-serif" transform="matrix(1,0,0,1,-287,-190)" stroke-linecap="butt">
      <text x="312.042" xml:space="preserve" y="545.3643" clip-path="url(#clipPath2)" stroke="none">np</text>
      <rect fill="none" x="304.6534" width="30" height="30" y="526.21" clip-path="url(#clipPath2)"/>
    </g>
    <g fill="white" text-rendering="geometricPrecision" shape-rendering="geometricPrecision" transform="matrix(1,0,0,1,-287,-190)" stroke="white">
      <rect x="354.6534" width="30" height="30" y="526.21" clip-path="url(#clipPath2)" stroke="none"/>
    </g>
    <g text-rendering="geometricPrecision" stroke-miterlimit="1.45" shape-rendering="geometricPrecision" font-family="sans-serif" transform="matrix(1,0,0,1,-287,-190)" stroke-linecap="butt">
      <text x="356.1358" xml:space="preserve" y="545.3643" clip-path="url(#clipPath2)" stroke="none">verb</text>
      <rect fill="none" x="354.6534" width="30" height="30" y="526.21" clip-path="url(#clipPath2)"/>
    </g>
    <g fill="white" text-rendering="geometricPrecision" shape-rendering="geometricPrecision" transform="matrix(1,0,0,1,-287,-190)" stroke="white">
      <rect x="404.6534" width="30" height="30" y="526.21" clip-path="url(#clipPath2)" stroke="none"/>
    </g>
    <g text-rendering="geometricPrecision" stroke-miterlimit="1.45" shape-rendering="geometricPrecision" transform="matrix(1,0,0,1,-287,-190)" stroke-linecap="butt">
      <rect fill="none" x="404.6534" width="30" height="30" y="526.21" clip-path="url(#clipPath2)"/>
    </g>
    <g fill="white" text-rendering="geometricPrecision" shape-rendering="geometricPrecision" transform="matrix(1,0,0,1,-287,-190)" stroke="white">
      <rect x="454.6534" width="30" height="30" y="526.21" clip-path="url(#clipPath2)" stroke="none"/>
    </g>
    <g text-rendering="geometricPrecision" stroke-miterlimit="1.45" shape-rendering="geometricPrecision" transform="matrix(1,0,0,1,-287,-190)" stroke-linecap="butt">
      <rect fill="none" x="454.6534" width="30" height="30" y="526.21" clip-path="url(#clipPath2)"/>
    </g>
    <g fill="white" text-rendering="geometricPrecision" shape-rendering="geometricPrecision" transform="matrix(1,0,0,1,-287,-190)" stroke="white">
      <rect x="304.6534" width="30" height="30" y="576.21" clip-path="url(#clipPath2)" stroke="none"/>
    </g>
    <g text-rendering="geometricPrecision" stroke-miterlimit="1.45" shape-rendering="geometricPrecision" font-family="sans-serif" transform="matrix(1,0,0,1,-287,-190)" stroke-linecap="butt">
      <text x="305.9043" xml:space="preserve" y="595.3643" clip-path="url(#clipPath2)" stroke="none">pron</text>
      <rect fill="none" x="304.6534" width="30" height="30" y="576.21" clip-path="url(#clipPath2)"/>
    </g>
    <g fill="white" text-rendering="geometricPrecision" shape-rendering="geometricPrecision" transform="matrix(1,0,0,1,-287,-190)" stroke="white">
      <rect x="354.6534" width="30" height="30" y="576.21" clip-path="url(#clipPath2)" stroke="none"/>
    </g>
    <g text-rendering="geometricPrecision" stroke-miterlimit="1.45" shape-rendering="geometricPrecision" transform="matrix(1,0,0,1,-287,-190)" stroke-linecap="butt">
      <rect fill="none" x="354.6534" width="30" height="30" y="576.21" clip-path="url(#clipPath2)"/>
    </g>
    <g fill="white" text-rendering="geometricPrecision" shape-rendering="geometricPrecision" transform="matrix(1,0,0,1,-287,-190)" stroke="white">
      <rect x="404.6534" width="30" height="30" y="576.21" clip-path="url(#clipPath2)" stroke="none"/>
    </g>
    <g text-rendering="geometricPrecision" stroke-miterlimit="1.45" shape-rendering="geometricPrecision" transform="matrix(1,0,0,1,-287,-190)" stroke-linecap="butt">
      <rect fill="none" x="404.6534" width="30" height="30" y="576.21" clip-path="url(#clipPath2)"/>
    </g>
    <g fill="white" text-rendering="geometricPrecision" shape-rendering="geometricPrecision" transform="matrix(1,0,0,1,-287,-190)" stroke="white">
      <rect x="454.6534" width="30" height="30" y="576.21" clip-path="url(#clipPath2)" stroke="none"/>
    </g>
    <g text-rendering="geometricPrecision" stroke-miterlimit="1.45" shape-rendering="geometricPrecision" transform="matrix(1,0,0,1,-287,-190)" stroke-linecap="butt">
      <rect fill="none" x="454.6534" width="30" height="30" y="576.21" clip-path="url(#clipPath2)"/>
    </g>
    <g fill="white" text-rendering="geometricPrecision" shape-rendering="geometricPrecision" transform="matrix(1,0,0,1,-287,-190)" stroke="white">
      <rect x="304.6534" width="180" height="30" y="324.21" clip-path="url(#clipPath2)" stroke="none"/>
    </g>
    <g text-rendering="geometricPrecision" stroke-miterlimit="1.45" shape-rendering="geometricPrecision" font-family="sans-serif" transform="matrix(1,0,0,1,-287,-190)" stroke-linecap="butt">
      <text x="362.0664" xml:space="preserve" y="343.3643" clip-path="url(#clipPath2)" stroke="none">CKY Matrix</text>
      <rect fill="none" x="304.6534" width="180" height="30" y="324.21" clip-path="url(#clipPath2)"/>
      <path fill="none" d="M354.6534 391.21 L342.6534 391.21" clip-path="url(#clipPath2)"/>
      <path d="M334.6534 391.21 L346.6534 396.21 L343.6534 391.21 L346.6534 386.21 Z" clip-path="url(#clipPath2)" stroke="none"/>
      <path fill="none" d="M404.6534 391.21 L392.6534 391.21" clip-path="url(#clipPath2)"/>
      <path d="M384.6534 391.21 L396.6534 396.21 L393.6534 391.21 L396.6534 386.21 Z" clip-path="url(#clipPath2)" stroke="none"/>
      <path fill="none" d="M454.6534 391.21 L442.6534 391.21" clip-path="url(#clipPath2)"/>
      <path d="M434.6534 391.21 L446.6534 396.21 L443.6534 391.21 L446.6534 386.21 Z" clip-path="url(#clipPath2)" stroke="none"/>
      <path fill="none" d="M319.6534 426.21 L319.6534 414.21" clip-path="url(#clipPath2)"/>
      <path d="M319.6534 406.21 L314.6534 418.21 L319.6534 415.21 L324.6534 418.21 Z" clip-path="url(#clipPath2)" stroke="none"/>
    </g>
    <g text-rendering="geometricPrecision" stroke-miterlimit="1.45" shape-rendering="geometricPrecision" transform="matrix(1,0,0,1,-287,-190)" stroke-linecap="butt">
      <path fill="none" d="M369.6534 406.21 L363.4034 421.21 L368.1534 418.36 L368.1534 418.36 L368.1534 426.21 L371.1534 426.21 L371.1534 418.36 L371.1534 418.36 L375.9034 421.21 L369.6534 406.21 Z" clip-path="url(#clipPath2)"/>
    </g>
    <g text-rendering="geometricPrecision" stroke-miterlimit="1.45" shape-rendering="geometricPrecision" transform="matrix(1,0,0,1,-287,-190)" stroke-linecap="butt">
      <path fill="none" d="M419.6534 426.21 L419.6534 414.21" clip-path="url(#clipPath2)"/>
      <path d="M419.6534 406.21 L414.6534 418.21 L419.6534 415.21 L424.6534 418.21 Z" clip-path="url(#clipPath2)" stroke="none"/>
      <path fill="none" d="M469.6534 426.21 L469.6534 414.21" clip-path="url(#clipPath2)"/>
      <path d="M469.6534 406.21 L464.6534 418.21 L469.6534 415.21 L474.6534 418.21 Z" clip-path="url(#clipPath2)" stroke="none"/>
    </g>
    <g text-rendering="geometricPrecision" stroke-miterlimit="1.45" shape-rendering="geometricPrecision" transform="matrix(1,0,0,1,-287,-190)" stroke-linecap="butt">
      <path fill="none" d="M319.6534 456.21 L313.4034 471.21 L318.1534 468.36 L318.1534 468.36 L318.1534 476.21 L321.1534 476.21 L321.1534 468.36 L321.1534 468.36 L325.9034 471.21 L319.6534 456.21 Z" clip-path="url(#clipPath2)"/>
    </g>
    <g text-rendering="geometricPrecision" stroke-miterlimit="1.45" shape-rendering="geometricPrecision" transform="matrix(1,0,0,1,-287,-190)" stroke-linecap="butt">
      <path fill="none" d="M369.6534 456.21 L363.4034 471.21 L368.1534 468.36 L368.1534 468.36 L368.1534 476.21 L371.1534 476.21 L371.1534 468.36 L371.1534 468.36 L375.9034 471.21 L369.6534 456.21 Z" clip-path="url(#clipPath2)"/>
    </g>
    <g text-rendering="geometricPrecision" stroke-miterlimit="1.45" shape-rendering="geometricPrecision" transform="matrix(1,0,0,1,-287,-190)" stroke-linecap="butt">
      <path fill="none" d="M419.6534 456.21 L413.4034 471.21 L418.1534 468.36 L418.1534 468.36 L418.1534 476.21 L421.1534 476.21 L421.1534 468.36 L421.1534 468.36 L425.9034 471.21 L419.6534 456.21 Z" clip-path="url(#clipPath2)"/>
    </g>
    <g text-rendering="geometricPrecision" stroke-miterlimit="1.45" shape-rendering="geometricPrecision" transform="matrix(1,0,0,1,-287,-190)" stroke-linecap="butt">
      <path fill="none" d="M319.6534 506.21 L313.4034 521.21 L318.1534 518.36 L318.1534 518.36 L318.1534 526.21 L321.1534 526.21 L321.1534 518.36 L321.1534 518.36 L325.9034 521.21 L319.6534 506.21 Z" clip-path="url(#clipPath2)"/>
    </g>
    <g text-rendering="geometricPrecision" stroke-miterlimit="1.45" shape-rendering="geometricPrecision" transform="matrix(1,0,0,1,-287,-190)" stroke-linecap="butt">
      <path fill="none" d="M369.6534 526.21 L369.6534 514.21" clip-path="url(#clipPath2)"/>
      <path d="M369.6534 506.21 L364.6534 518.21 L369.6534 515.21 L374.6534 518.21 Z" clip-path="url(#clipPath2)" stroke="none"/>
      <path fill="none" d="M319.6534 576.21 L319.6534 564.21" clip-path="url(#clipPath2)"/>
      <path d="M319.6534 556.21 L314.6534 568.21 L319.6534 565.21 L324.6534 568.21 Z" clip-path="url(#clipPath2)" stroke="none"/>
      <text x="318.7292" font-size="15px" y="692.1333" clip-path="url(#clipPath2)" font-family="sans-serif" stroke="none" xml:space="preserve">Stack</text>
      <rect x="302.2575" y="676.21" clip-path="url(#clipPath2)" fill="none" width="60" stroke-dasharray="6,2" rx="4" ry="4" height="81.4609"/>
    </g>
    <g fill="white" text-rendering="geometricPrecision" shape-rendering="geometricPrecision" transform="matrix(1,0,0,1,-287,-190)" stroke="white">
      <rect x="317.2575" width="30" height="30" y="712.6709" clip-path="url(#clipPath2)" stroke="none"/>
    </g>
    <g text-rendering="geometricPrecision" stroke-miterlimit="1.45" shape-rendering="geometricPrecision" font-family="sans-serif" transform="matrix(1,0,0,1,-287,-190)" stroke-linecap="butt">
      <text x="329.1316" xml:space="preserve" y="731.8252" clip-path="url(#clipPath2)" stroke="none">s</text>
      <rect fill="none" x="317.2575" width="30" height="30" y="712.6709" clip-path="url(#clipPath2)"/>
      <text x="508.9978" xml:space="preserve" font-size="15px" y="692.1333" clip-path="url(#clipPath2)" stroke="none">Line</text>
      <rect x="489.1557" y="676.21" clip-path="url(#clipPath2)" fill="none" width="53.1019" stroke-dasharray="6,2" rx="4" ry="4" height="107.9219"/>
    </g>
    <g fill="white" text-rendering="geometricPrecision" shape-rendering="geometricPrecision" transform="matrix(1,0,0,1,-287,-190)" stroke="white">
      <rect x="302.2575" width="518.9583" height="30" y="804.1318" clip-path="url(#clipPath2)" stroke="none"/>
    </g>
    <g text-rendering="geometricPrecision" stroke-miterlimit="1.45" shape-rendering="geometricPrecision" font-family="sans-serif" transform="matrix(1,0,0,1,-287,-190)" stroke-linecap="butt">
      <text x="533.307" xml:space="preserve" y="823.2861" clip-path="url(#clipPath2)" stroke="none">Figure 30</text>
      <rect fill="none" x="302.2575" width="518.9583" height="30" y="804.1318" clip-path="url(#clipPath2)"/>
    </g>
  </g>
</svg>
