<?xml version="1.0" encoding="UTF-8"?><svg xmlns="http://www.w3.org/2000/svg" xmlns:xlink="http://www.w3.org/1999/xlink" fill-opacity="1" color-rendering="auto" color-interpolation="auto" text-rendering="auto" stroke="black" stroke-linecap="square" width="552" stroke-miterlimit="10" shape-rendering="auto" stroke-opacity="1" fill="black" stroke-dasharray="none" font-weight="normal" stroke-width="1" height="650" font-family="'Dialog'" font-style="normal" stroke-linejoin="miter" font-size="12px" stroke-dashoffset="0" image-rendering="auto">
  <!--Generated by ySVG 2.5-->
  <defs id="genericDefs"/>
  <g>
    <defs id="defs1">
      <clipPath clipPathUnits="userSpaceOnUse" id="clipPath1">
        <path d="M0 0 L552 0 L552 650 L0 650 L0 0 Z"/>
      </clipPath>
      <clipPath clipPathUnits="userSpaceOnUse" id="clipPath2">
        <path d="M429 314 L981 314 L981 964 L429 964 L429 314 Z"/>
      </clipPath>
    </defs>
    <g fill="white" text-rendering="geometricPrecision" shape-rendering="geometricPrecision" transform="translate(-429,-314)" stroke="white">
      <rect x="429" width="552" height="650" y="314" clip-path="url(#clipPath2)" stroke="none"/>
    </g>
    <g font-size="15px" stroke-linecap="butt" transform="matrix(1,0,0,1,-429,-314)" text-rendering="geometricPrecision" font-family="sans-serif" shape-rendering="geometricPrecision" stroke-miterlimit="1.45">
      <text x="744.5873" xml:space="preserve" y="514.1823" clip-path="url(#clipPath2)" stroke="none">Stack</text>
      <rect x="726.9984" y="498.259" clip-path="url(#clipPath2)" fill="none" width="61.1172" stroke-dasharray="6,2" rx="4" ry="4" height="217.4219"/>
    </g>
    <g fill="white" text-rendering="geometricPrecision" shape-rendering="geometricPrecision" transform="matrix(1,0,0,1,-429,-314)" stroke="white">
      <rect x="742.557" width="30" height="30" y="668.6808" clip-path="url(#clipPath2)" stroke="none"/>
    </g>
    <g text-rendering="geometricPrecision" stroke-miterlimit="1.45" shape-rendering="geometricPrecision" font-family="sans-serif" transform="matrix(1,0,0,1,-429,-314)" stroke-linecap="butt">
      <text x="755.2162" xml:space="preserve" y="687.8351" clip-path="url(#clipPath2)" stroke="none">)</text>
      <rect fill="none" x="742.557" width="30" height="30" y="668.6808" clip-path="url(#clipPath2)"/>
    </g>
    <g fill="white" text-rendering="geometricPrecision" shape-rendering="geometricPrecision" transform="matrix(1,0,0,1,-429,-314)" stroke="white">
      <rect x="742.557" width="30" height="30" y="621.6808" clip-path="url(#clipPath2)" stroke="none"/>
    </g>
    <g text-rendering="geometricPrecision" stroke-miterlimit="1.45" shape-rendering="geometricPrecision" font-family="sans-serif" transform="matrix(1,0,0,1,-429,-314)" stroke-linecap="butt">
      <text x="750.1976" xml:space="preserve" y="640.8351" clip-path="url(#clipPath2)" stroke="none">vp</text>
      <rect fill="none" x="742.557" width="30" height="30" y="621.6808" clip-path="url(#clipPath2)"/>
    </g>
    <g fill="white" text-rendering="geometricPrecision" shape-rendering="geometricPrecision" transform="matrix(1,0,0,1,-429,-314)" stroke="white">
      <rect x="742.557" width="30" height="30" y="574.6808" clip-path="url(#clipPath2)" stroke="none"/>
    </g>
    <g text-rendering="geometricPrecision" stroke-miterlimit="1.45" shape-rendering="geometricPrecision" font-family="sans-serif" transform="matrix(1,0,0,1,-429,-314)" stroke-linecap="butt">
      <text x="755.2162" xml:space="preserve" y="593.8351" clip-path="url(#clipPath2)" stroke="none">)</text>
      <rect fill="none" x="742.557" width="30" height="30" y="574.6808" clip-path="url(#clipPath2)"/>
    </g>
    <g fill="white" text-rendering="geometricPrecision" shape-rendering="geometricPrecision" transform="matrix(1,0,0,1,-429,-314)" stroke="white">
      <rect x="742.557" width="30" height="30" y="534.7199" clip-path="url(#clipPath2)" stroke="none"/>
    </g>
    <g text-rendering="geometricPrecision" stroke-miterlimit="1.45" shape-rendering="geometricPrecision" font-family="sans-serif" transform="matrix(1,0,0,1,-429,-314)" stroke-linecap="butt">
      <text x="743.9984" xml:space="preserve" y="553.8742" clip-path="url(#clipPath2)" stroke="none">Pron</text>
      <rect fill="none" x="742.557" width="30" height="30" y="534.7199" clip-path="url(#clipPath2)"/>
      <text x="932.5407" xml:space="preserve" font-size="15px" y="514.1823" clip-path="url(#clipPath2)" stroke="none">Line</text>
      <rect x="815.8005" y="498.259" clip-path="url(#clipPath2)" fill="none" width="150" stroke-dasharray="6,2" rx="4" ry="4" height="81.4609"/>
    </g>
    <g fill="white" text-rendering="geometricPrecision" shape-rendering="geometricPrecision" transform="matrix(1,0,0,1,-429,-314)" stroke="white">
      <rect x="830.8005" width="30" height="30" y="534.7199" clip-path="url(#clipPath2)" stroke="none"/>
    </g>
    <g text-rendering="geometricPrecision" stroke-miterlimit="1.45" shape-rendering="geometricPrecision" font-family="sans-serif" transform="matrix(1,0,0,1,-429,-314)" stroke-linecap="butt">
      <text x="842.6745" xml:space="preserve" y="553.8742" clip-path="url(#clipPath2)" stroke="none">s</text>
      <rect fill="none" x="830.8005" width="30" height="30" y="534.7199" clip-path="url(#clipPath2)"/>
    </g>
    <g fill="white" text-rendering="geometricPrecision" shape-rendering="geometricPrecision" transform="matrix(1,0,0,1,-429,-314)" stroke="white">
      <rect x="860.8005" width="30" height="30" y="534.7199" clip-path="url(#clipPath2)" stroke="none"/>
    </g>
    <g text-rendering="geometricPrecision" stroke-miterlimit="1.45" shape-rendering="geometricPrecision" font-family="sans-serif" transform="matrix(1,0,0,1,-429,-314)" stroke-linecap="butt">
      <text x="873.4597" xml:space="preserve" y="553.8742" clip-path="url(#clipPath2)" stroke="none">(</text>
      <rect fill="none" x="860.8005" width="30" height="30" y="534.7199" clip-path="url(#clipPath2)"/>
    </g>
    <g fill="white" text-rendering="geometricPrecision" shape-rendering="geometricPrecision" transform="matrix(1,0,0,1,-429,-314)" stroke="white">
      <rect x="890.8005" width="30" height="30" y="534.7199" clip-path="url(#clipPath2)" stroke="none"/>
    </g>
    <g text-rendering="geometricPrecision" stroke-miterlimit="1.45" shape-rendering="geometricPrecision" font-family="sans-serif" transform="matrix(1,0,0,1,-429,-314)" stroke-linecap="butt">
      <text x="898.1891" xml:space="preserve" y="553.8742" clip-path="url(#clipPath2)" stroke="none">np</text>
      <rect fill="none" x="890.8005" width="30" height="30" y="534.7199" clip-path="url(#clipPath2)"/>
    </g>
    <g fill="white" text-rendering="geometricPrecision" shape-rendering="geometricPrecision" transform="matrix(1,0,0,1,-429,-314)" stroke="white">
      <rect x="920.8005" width="30" height="30" y="534.7199" clip-path="url(#clipPath2)" stroke="none"/>
    </g>
    <g text-rendering="geometricPrecision" stroke-miterlimit="1.45" shape-rendering="geometricPrecision" font-family="sans-serif" transform="matrix(1,0,0,1,-429,-314)" stroke-linecap="butt">
      <text x="933.4597" xml:space="preserve" y="553.8742" clip-path="url(#clipPath2)" stroke="none">(</text>
      <rect fill="none" x="920.8005" width="30" height="30" y="534.7199" clip-path="url(#clipPath2)"/>
    </g>
    <g fill="white" text-rendering="geometricPrecision" shape-rendering="geometricPrecision" transform="matrix(1,0,0,1,-429,-314)" stroke="white">
      <rect x="445.6442" width="30" height="30" y="498.259" clip-path="url(#clipPath2)" stroke="none"/>
    </g>
    <g text-rendering="geometricPrecision" stroke-miterlimit="1.45" shape-rendering="geometricPrecision" font-family="sans-serif" transform="matrix(1,0,0,1,-429,-314)" stroke-linecap="butt">
      <text x="457.5183" xml:space="preserve" y="517.4133" clip-path="url(#clipPath2)" stroke="none">s</text>
    </g>
    <g stroke-linecap="round" transform="matrix(1,0,0,1,-429,-314)" stroke-dashoffset="2" text-rendering="geometricPrecision" shape-rendering="geometricPrecision" stroke-dasharray="0,4" stroke-miterlimit="1.45">
      <rect fill="none" x="445.6442" width="30" height="30" y="498.259" clip-path="url(#clipPath2)"/>
    </g>
    <g fill="white" text-rendering="geometricPrecision" shape-rendering="geometricPrecision" transform="matrix(1,0,0,1,-429,-314)" stroke="white">
      <rect x="495.6442" width="30" height="30" y="498.259" clip-path="url(#clipPath2)" stroke="none"/>
    </g>
    <g text-rendering="geometricPrecision" stroke-miterlimit="1.45" shape-rendering="geometricPrecision" font-family="sans-serif" transform="matrix(1,0,0,1,-429,-314)" stroke-linecap="butt">
      <text x="503.2849" xml:space="preserve" y="517.4133" clip-path="url(#clipPath2)" stroke="none">vp</text>
      <rect x="495.6442" y="498.259" clip-path="url(#clipPath2)" fill="none" width="30" stroke-dasharray="12,4" height="30" stroke-width="2"/>
    </g>
    <g fill="white" text-rendering="geometricPrecision" shape-rendering="geometricPrecision" transform="matrix(1,0,0,1,-429,-314)" stroke="white">
      <rect x="545.6442" width="30" height="30" y="498.259" clip-path="url(#clipPath2)" stroke="none"/>
    </g>
    <g text-rendering="geometricPrecision" stroke-miterlimit="1.45" shape-rendering="geometricPrecision" font-family="sans-serif" transform="matrix(1,0,0,1,-429,-314)" stroke-linecap="butt">
      <text x="550.7917" xml:space="preserve" y="517.4133" clip-path="url(#clipPath2)" stroke="none">det</text>
      <rect fill="none" x="545.6442" width="30" height="30" y="498.259" clip-path="url(#clipPath2)"/>
    </g>
    <g fill="white" text-rendering="geometricPrecision" shape-rendering="geometricPrecision" transform="matrix(1,0,0,1,-429,-314)" stroke="white">
      <rect x="595.6442" width="30" height="30" y="498.259" clip-path="url(#clipPath2)" stroke="none"/>
    </g>
    <g text-rendering="geometricPrecision" stroke-miterlimit="1.45" shape-rendering="geometricPrecision" font-family="sans-serif" transform="matrix(1,0,0,1,-429,-314)" stroke-linecap="butt">
      <text x="603.2849" xml:space="preserve" y="517.4133" clip-path="url(#clipPath2)" stroke="none">vp</text>
      <rect fill="none" x="595.6442" width="30" height="30" y="498.259" clip-path="url(#clipPath2)"/>
    </g>
    <g fill="white" text-rendering="geometricPrecision" shape-rendering="geometricPrecision" transform="matrix(1,0,0,1,-429,-314)" stroke="white">
      <rect x="445.6442" width="30" height="30" y="548.259" clip-path="url(#clipPath2)" stroke="none"/>
    </g>
    <g text-rendering="geometricPrecision" stroke-miterlimit="1.45" shape-rendering="geometricPrecision" font-family="sans-serif" transform="matrix(1,0,0,1,-429,-314)" stroke-linecap="butt">
      <text x="453.0329" xml:space="preserve" y="567.4133" clip-path="url(#clipPath2)" stroke="none">np</text>
    </g>
    <g stroke-linecap="round" transform="matrix(1,0,0,1,-429,-314)" stroke-dashoffset="2" text-rendering="geometricPrecision" shape-rendering="geometricPrecision" stroke-dasharray="0,4" stroke-miterlimit="1.45">
      <rect fill="none" x="445.6442" width="30" height="30" y="548.259" clip-path="url(#clipPath2)"/>
    </g>
    <g fill="white" text-rendering="geometricPrecision" shape-rendering="geometricPrecision" transform="matrix(1,0,0,1,-429,-314)" stroke="white">
      <rect x="495.6442" width="30" height="30" y="548.259" clip-path="url(#clipPath2)" stroke="none"/>
    </g>
    <g text-rendering="geometricPrecision" stroke-miterlimit="1.45" shape-rendering="geometricPrecision" font-family="sans-serif" transform="matrix(1,0,0,1,-429,-314)" stroke-linecap="butt">
      <text x="503.2849" xml:space="preserve" y="567.4133" clip-path="url(#clipPath2)" stroke="none">vp</text>
      <rect fill="none" x="495.6442" width="30" height="30" y="548.259" clip-path="url(#clipPath2)"/>
    </g>
    <g fill="white" text-rendering="geometricPrecision" shape-rendering="geometricPrecision" transform="matrix(1,0,0,1,-429,-314)" stroke="white">
      <rect x="545.6442" width="30" height="30" y="548.259" clip-path="url(#clipPath2)" stroke="none"/>
    </g>
    <g text-rendering="geometricPrecision" stroke-miterlimit="1.45" shape-rendering="geometricPrecision" font-family="sans-serif" transform="matrix(1,0,0,1,-429,-314)" stroke-linecap="butt">
      <text x="550.7917" xml:space="preserve" y="567.4133" clip-path="url(#clipPath2)" stroke="none">det</text>
      <rect fill="none" x="545.6442" width="30" height="30" y="548.259" clip-path="url(#clipPath2)"/>
    </g>
    <g fill="white" text-rendering="geometricPrecision" shape-rendering="geometricPrecision" transform="matrix(1,0,0,1,-429,-314)" stroke="white">
      <rect x="595.6442" width="30" height="30" y="548.259" clip-path="url(#clipPath2)" stroke="none"/>
    </g>
    <g text-rendering="geometricPrecision" stroke-miterlimit="1.45" shape-rendering="geometricPrecision" font-family="sans-serif" transform="matrix(1,0,0,1,-429,-314)" stroke-linecap="butt">
      <text x="597.1266" xml:space="preserve" y="567.4133" clip-path="url(#clipPath2)" stroke="none">verb</text>
      <rect fill="none" x="595.6442" width="30" height="30" y="548.259" clip-path="url(#clipPath2)"/>
    </g>
    <g fill="white" text-rendering="geometricPrecision" shape-rendering="geometricPrecision" transform="matrix(1,0,0,1,-429,-314)" stroke="white">
      <rect x="445.6442" width="30" height="30" y="598.259" clip-path="url(#clipPath2)" stroke="none"/>
    </g>
    <g text-rendering="geometricPrecision" stroke-miterlimit="1.45" shape-rendering="geometricPrecision" font-family="sans-serif" transform="matrix(1,0,0,1,-429,-314)" stroke-linecap="butt">
      <text x="453.0329" xml:space="preserve" y="617.4133" clip-path="url(#clipPath2)" stroke="none">np</text>
      <rect fill="none" x="445.6442" width="30" height="30" y="598.259" clip-path="url(#clipPath2)"/>
    </g>
    <g fill="white" text-rendering="geometricPrecision" shape-rendering="geometricPrecision" transform="matrix(1,0,0,1,-429,-314)" stroke="white">
      <rect x="495.6442" width="30" height="30" y="598.259" clip-path="url(#clipPath2)" stroke="none"/>
    </g>
    <g text-rendering="geometricPrecision" stroke-miterlimit="1.45" shape-rendering="geometricPrecision" font-family="sans-serif" transform="matrix(1,0,0,1,-429,-314)" stroke-linecap="butt">
      <text x="503.2849" xml:space="preserve" y="617.4133" clip-path="url(#clipPath2)" stroke="none">vp</text>
      <rect fill="none" x="495.6442" width="30" height="30" y="598.259" clip-path="url(#clipPath2)"/>
    </g>
    <g fill="white" text-rendering="geometricPrecision" shape-rendering="geometricPrecision" transform="matrix(1,0,0,1,-429,-314)" stroke="white">
      <rect x="545.6442" width="30" height="30" y="598.259" clip-path="url(#clipPath2)" stroke="none"/>
    </g>
    <g text-rendering="geometricPrecision" stroke-miterlimit="1.45" shape-rendering="geometricPrecision" font-family="sans-serif" transform="matrix(1,0,0,1,-429,-314)" stroke-linecap="butt">
      <text x="550.7917" xml:space="preserve" y="617.4133" clip-path="url(#clipPath2)" stroke="none">det</text>
      <rect fill="none" x="545.6442" width="30" height="30" y="598.259" clip-path="url(#clipPath2)"/>
    </g>
    <g fill="white" text-rendering="geometricPrecision" shape-rendering="geometricPrecision" transform="matrix(1,0,0,1,-429,-314)" stroke="white">
      <rect x="595.6442" width="30" height="30" y="598.259" clip-path="url(#clipPath2)" stroke="none"/>
    </g>
    <g text-rendering="geometricPrecision" stroke-miterlimit="1.45" shape-rendering="geometricPrecision" transform="matrix(1,0,0,1,-429,-314)" stroke-linecap="butt">
      <rect fill="none" x="595.6442" width="30" height="30" y="598.259" clip-path="url(#clipPath2)"/>
    </g>
    <g fill="white" text-rendering="geometricPrecision" shape-rendering="geometricPrecision" transform="matrix(1,0,0,1,-429,-314)" stroke="white">
      <rect x="445.6442" width="30" height="30" y="648.259" clip-path="url(#clipPath2)" stroke="none"/>
    </g>
    <g text-rendering="geometricPrecision" stroke-miterlimit="1.45" shape-rendering="geometricPrecision" font-family="sans-serif" transform="matrix(1,0,0,1,-429,-314)" stroke-linecap="butt">
      <text x="453.0329" xml:space="preserve" y="667.4133" clip-path="url(#clipPath2)" stroke="none">np</text>
      <rect fill="none" x="445.6442" width="30" height="30" y="648.259" clip-path="url(#clipPath2)"/>
    </g>
    <g fill="white" text-rendering="geometricPrecision" shape-rendering="geometricPrecision" transform="matrix(1,0,0,1,-429,-314)" stroke="white">
      <rect x="495.6442" width="30" height="30" y="648.259" clip-path="url(#clipPath2)" stroke="none"/>
    </g>
    <g text-rendering="geometricPrecision" stroke-miterlimit="1.45" shape-rendering="geometricPrecision" font-family="sans-serif" transform="matrix(1,0,0,1,-429,-314)" stroke-linecap="butt">
      <text x="497.1267" xml:space="preserve" y="667.4133" clip-path="url(#clipPath2)" stroke="none">verb</text>
      <rect fill="none" x="495.6442" width="30" height="30" y="648.259" clip-path="url(#clipPath2)"/>
    </g>
    <g fill="white" text-rendering="geometricPrecision" shape-rendering="geometricPrecision" transform="matrix(1,0,0,1,-429,-314)" stroke="white">
      <rect x="545.6442" width="30" height="30" y="648.259" clip-path="url(#clipPath2)" stroke="none"/>
    </g>
    <g text-rendering="geometricPrecision" stroke-miterlimit="1.45" shape-rendering="geometricPrecision" transform="matrix(1,0,0,1,-429,-314)" stroke-linecap="butt">
      <rect fill="none" x="545.6442" width="30" height="30" y="648.259" clip-path="url(#clipPath2)"/>
    </g>
    <g fill="white" text-rendering="geometricPrecision" shape-rendering="geometricPrecision" transform="matrix(1,0,0,1,-429,-314)" stroke="white">
      <rect x="595.6442" width="30" height="30" y="648.259" clip-path="url(#clipPath2)" stroke="none"/>
    </g>
    <g text-rendering="geometricPrecision" stroke-miterlimit="1.45" shape-rendering="geometricPrecision" transform="matrix(1,0,0,1,-429,-314)" stroke-linecap="butt">
      <rect fill="none" x="595.6442" width="30" height="30" y="648.259" clip-path="url(#clipPath2)"/>
    </g>
    <g fill="white" text-rendering="geometricPrecision" shape-rendering="geometricPrecision" transform="matrix(1,0,0,1,-429,-314)" stroke="white">
      <rect x="445.6442" width="30" height="30" y="698.259" clip-path="url(#clipPath2)" stroke="none"/>
    </g>
    <g text-rendering="geometricPrecision" stroke-miterlimit="1.45" shape-rendering="geometricPrecision" font-family="sans-serif" transform="matrix(1,0,0,1,-429,-314)" stroke-linecap="butt">
      <text x="446.8952" xml:space="preserve" y="717.4133" clip-path="url(#clipPath2)" stroke="none">pron</text>
      <rect x="445.6442" y="698.259" clip-path="url(#clipPath2)" fill="none" width="30" stroke-dasharray="12,4" height="30" stroke-width="2"/>
    </g>
    <g fill="white" text-rendering="geometricPrecision" shape-rendering="geometricPrecision" transform="matrix(1,0,0,1,-429,-314)" stroke="white">
      <rect x="495.6442" width="30" height="30" y="698.259" clip-path="url(#clipPath2)" stroke="none"/>
    </g>
    <g text-rendering="geometricPrecision" stroke-miterlimit="1.45" shape-rendering="geometricPrecision" transform="matrix(1,0,0,1,-429,-314)" stroke-linecap="butt">
      <rect fill="none" x="495.6442" width="30" height="30" y="698.259" clip-path="url(#clipPath2)"/>
    </g>
    <g fill="white" text-rendering="geometricPrecision" shape-rendering="geometricPrecision" transform="matrix(1,0,0,1,-429,-314)" stroke="white">
      <rect x="545.6442" width="30" height="30" y="698.259" clip-path="url(#clipPath2)" stroke="none"/>
    </g>
    <g text-rendering="geometricPrecision" stroke-miterlimit="1.45" shape-rendering="geometricPrecision" transform="matrix(1,0,0,1,-429,-314)" stroke-linecap="butt">
      <rect fill="none" x="545.6442" width="30" height="30" y="698.259" clip-path="url(#clipPath2)"/>
    </g>
    <g fill="white" text-rendering="geometricPrecision" shape-rendering="geometricPrecision" transform="matrix(1,0,0,1,-429,-314)" stroke="white">
      <rect x="595.6442" width="30" height="30" y="698.259" clip-path="url(#clipPath2)" stroke="none"/>
    </g>
    <g text-rendering="geometricPrecision" stroke-miterlimit="1.45" shape-rendering="geometricPrecision" transform="matrix(1,0,0,1,-429,-314)" stroke-linecap="butt">
      <rect fill="none" x="595.6442" width="30" height="30" y="698.259" clip-path="url(#clipPath2)"/>
    </g>
    <g fill="white" text-rendering="geometricPrecision" shape-rendering="geometricPrecision" transform="matrix(1,0,0,1,-429,-314)" stroke="white">
      <rect x="827.2139" width="30" height="30" y="791.24" clip-path="url(#clipPath2)" stroke="none"/>
    </g>
    <g text-rendering="geometricPrecision" stroke-miterlimit="1.45" shape-rendering="geometricPrecision" font-family="sans-serif" transform="matrix(1,0,0,1,-429,-314)" stroke-linecap="butt">
      <text x="839.088" xml:space="preserve" y="810.3943" clip-path="url(#clipPath2)" stroke="none">s</text>
      <rect fill="none" x="827.2139" width="30" height="30" y="791.24" clip-path="url(#clipPath2)"/>
    </g>
    <g fill="white" text-rendering="geometricPrecision" shape-rendering="geometricPrecision" transform="matrix(1,0,0,1,-429,-314)" stroke="white">
      <rect x="827.2139" width="30" height="30" y="858.5946" clip-path="url(#clipPath2)" stroke="none"/>
    </g>
    <g text-rendering="geometricPrecision" stroke-miterlimit="1.45" shape-rendering="geometricPrecision" font-family="sans-serif" transform="matrix(1,0,0,1,-429,-314)" stroke-linecap="butt">
      <text x="834.6026" xml:space="preserve" y="877.7489" clip-path="url(#clipPath2)" stroke="none">np</text>
      <rect fill="none" x="827.2139" width="30" height="30" y="858.5946" clip-path="url(#clipPath2)"/>
    </g>
    <g fill="white" text-rendering="geometricPrecision" shape-rendering="geometricPrecision" transform="matrix(1,0,0,1,-429,-314)" stroke="white">
      <rect x="445.6442" width="518.9583" height="30" y="396.0633" clip-path="url(#clipPath2)" stroke="none"/>
    </g>
    <g text-rendering="geometricPrecision" stroke-miterlimit="1.45" shape-rendering="geometricPrecision" font-family="sans-serif" transform="matrix(1,0,0,1,-429,-314)" stroke-linecap="butt">
      <text x="685.7377" xml:space="preserve" y="415.2176" clip-path="url(#clipPath2)" stroke="none">Step 2</text>
      <rect fill="none" x="445.6442" width="518.9583" height="30" y="396.0633" clip-path="url(#clipPath2)"/>
    </g>
    <g fill="white" text-rendering="geometricPrecision" shape-rendering="geometricPrecision" transform="matrix(1,0,0,1,-429,-314)" stroke="white">
      <rect x="445.6442" width="180" height="30" y="448.259" clip-path="url(#clipPath2)" stroke="none"/>
    </g>
    <g text-rendering="geometricPrecision" stroke-miterlimit="1.45" shape-rendering="geometricPrecision" font-family="sans-serif" transform="matrix(1,0,0,1,-429,-314)" stroke-linecap="butt">
      <text x="503.0573" xml:space="preserve" y="467.4133" clip-path="url(#clipPath2)" stroke="none">CKY Matrix</text>
      <rect fill="none" x="445.6442" width="180" height="30" y="448.259" clip-path="url(#clipPath2)"/>
    </g>
    <g fill="white" text-rendering="geometricPrecision" shape-rendering="geometricPrecision" transform="matrix(1,0,0,1,-429,-314)" stroke="white">
      <rect x="445.6442" width="518.9583" height="44.6667" y="329.2009" clip-path="url(#clipPath2)" stroke="none"/>
    </g>
    <g font-size="11px" stroke-linecap="butt" transform="matrix(1,0,0,1,-429,-314)" text-rendering="geometricPrecision" font-family="sans-serif" shape-rendering="geometricPrecision" stroke-miterlimit="1.45">
      <text x="622.5778" xml:space="preserve" y="342.5376" clip-path="url(#clipPath2)" stroke="none">Tree_DFS of "I am a Function"</text>
      <text x="655.6798" xml:space="preserve" y="355.3423" clip-path="url(#clipPath2)" stroke="none">First Permutation:</text>
      <text x="651.8771" xml:space="preserve" y="368.147" clip-path="url(#clipPath2)" stroke="none">Pron Verb Det Verb</text>
      <rect fill="none" x="445.6442" width="518.9583" height="44.6667" y="329.2009" clip-path="url(#clipPath2)"/>
    </g>
    <g fill="white" text-rendering="geometricPrecision" shape-rendering="geometricPrecision" transform="matrix(1,0,0,1,-429,-314)" stroke="white">
      <rect x="726.9984" width="237.6042" height="30" y="448.259" clip-path="url(#clipPath2)" stroke="none"/>
    </g>
    <g text-rendering="geometricPrecision" stroke-miterlimit="1.45" shape-rendering="geometricPrecision" font-family="sans-serif" transform="matrix(1,0,0,1,-429,-314)" stroke-linecap="butt">
      <text x="787.1657" xml:space="preserve" y="467.4133" clip-path="url(#clipPath2)" stroke="none">Stack &amp; Line Status</text>
      <rect fill="none" x="726.9984" width="237.6042" height="30" y="448.259" clip-path="url(#clipPath2)"/>
    </g>
    <g fill="white" text-rendering="geometricPrecision" shape-rendering="geometricPrecision" transform="matrix(1,0,0,1,-429,-314)" stroke="white">
      <rect x="728.1963" width="237.6042" height="30" y="738.4604" clip-path="url(#clipPath2)" stroke="none"/>
    </g>
    <g text-rendering="geometricPrecision" stroke-miterlimit="1.45" shape-rendering="geometricPrecision" font-family="sans-serif" transform="matrix(1,0,0,1,-429,-314)" stroke-linecap="butt">
      <text x="833.4838" xml:space="preserve" y="757.6147" clip-path="url(#clipPath2)" stroke="none">Tree</text>
      <rect fill="none" x="728.1963" width="237.6042" height="30" y="738.4604" clip-path="url(#clipPath2)"/>
    </g>
    <g fill="white" text-rendering="geometricPrecision" shape-rendering="geometricPrecision" transform="matrix(1,0,0,1,-429,-314)" stroke="white">
      <rect x="445.6442" width="518.9583" height="30" y="918.5946" clip-path="url(#clipPath2)" stroke="none"/>
    </g>
    <g text-rendering="geometricPrecision" stroke-miterlimit="1.45" shape-rendering="geometricPrecision" font-family="sans-serif" transform="matrix(1,0,0,1,-429,-314)" stroke-linecap="butt">
      <text x="676.6937" xml:space="preserve" y="937.7489" clip-path="url(#clipPath2)" stroke="none">Figure 26</text>
      <rect fill="none" x="445.6442" width="518.9583" height="30" y="918.5946" clip-path="url(#clipPath2)"/>
      <path fill="none" d="M495.6443 513.259 L483.6443 513.259" clip-path="url(#clipPath2)"/>
      <path d="M475.6443 513.259 L487.6443 518.259 L484.6443 513.259 L487.6443 508.259 Z" clip-path="url(#clipPath2)" stroke="none"/>
      <path fill="none" d="M460.6443 548.259 L460.6443 536.259" clip-path="url(#clipPath2)"/>
      <path d="M460.6443 528.259 L455.6443 540.259 L460.6443 537.259 L465.6443 540.259 Z" clip-path="url(#clipPath2)" stroke="none"/>
    </g>
    <g text-rendering="geometricPrecision" stroke-miterlimit="1.45" shape-rendering="geometricPrecision" transform="matrix(1,0,0,1,-429,-314)" stroke-linecap="butt">
      <path fill="none" d="M510.6443 528.259 L504.3943 543.259 L509.1443 540.409 L509.1443 540.409 L509.1443 548.259 L512.1443 548.259 L512.1443 540.409 L516.8943 543.259 L510.6443 528.259 Z" clip-path="url(#clipPath2)"/>
    </g>
    <g text-rendering="geometricPrecision" stroke-miterlimit="1.45" shape-rendering="geometricPrecision" transform="matrix(1,0,0,1,-429,-314)" stroke-linecap="butt">
      <path fill="none" d="M560.6442 528.259 L554.3942 543.259 L559.1442 540.409 L559.1442 548.259 L562.1442 548.259 L562.1442 540.409 L566.8942 543.259 L560.6442 528.259 Z" clip-path="url(#clipPath2)"/>
    </g>
    <g text-rendering="geometricPrecision" stroke-miterlimit="1.45" shape-rendering="geometricPrecision" transform="matrix(1,0,0,1,-429,-314)" stroke-linecap="butt">
      <path fill="none" d="M610.6442 548.259 L610.6442 536.259" clip-path="url(#clipPath2)"/>
      <path d="M610.6442 528.259 L605.6442 540.259 L610.6442 537.259 L615.6442 540.259 Z" clip-path="url(#clipPath2)" stroke="none"/>
    </g>
    <g text-rendering="geometricPrecision" stroke-miterlimit="1.45" shape-rendering="geometricPrecision" transform="matrix(1,0,0,1,-429,-314)" stroke-linecap="butt">
      <path fill="none" d="M460.6443 578.259 L454.3943 593.259 L459.1443 590.409 L459.1443 590.409 L459.1443 598.259 L462.1443 598.259 L462.1443 590.409 L462.1443 590.409 L466.8943 593.259 L460.6443 578.259 Z" clip-path="url(#clipPath2)"/>
    </g>
    <g text-rendering="geometricPrecision" stroke-miterlimit="1.45" shape-rendering="geometricPrecision" transform="matrix(1,0,0,1,-429,-314)" stroke-linecap="butt">
      <path fill="none" d="M510.6443 578.259 L504.3943 593.259 L509.1443 590.409 L509.1443 590.409 L509.1443 598.259 L512.1443 598.259 L512.1443 590.409 L516.8943 593.259 L510.6443 578.259 Z" clip-path="url(#clipPath2)"/>
    </g>
    <g text-rendering="geometricPrecision" stroke-miterlimit="1.45" shape-rendering="geometricPrecision" transform="matrix(1,0,0,1,-429,-314)" stroke-linecap="butt">
      <path fill="none" d="M560.6442 578.259 L554.3942 593.259 L559.1442 590.409 L559.1442 598.259 L562.1442 598.259 L562.1442 590.409 L566.8942 593.259 L560.6442 578.259 Z" clip-path="url(#clipPath2)"/>
    </g>
    <g text-rendering="geometricPrecision" stroke-miterlimit="1.45" shape-rendering="geometricPrecision" transform="matrix(1,0,0,1,-429,-314)" stroke-linecap="butt">
      <path fill="none" d="M460.6443 628.259 L454.3943 643.259 L459.1443 640.409 L459.1443 640.409 L459.1443 648.259 L462.1443 648.259 L462.1443 640.409 L462.1443 640.409 L466.8943 643.259 L460.6443 628.259 Z" clip-path="url(#clipPath2)"/>
    </g>
    <g text-rendering="geometricPrecision" stroke-miterlimit="1.45" shape-rendering="geometricPrecision" transform="matrix(1,0,0,1,-429,-314)" stroke-linecap="butt">
      <path fill="none" d="M510.6443 648.259 L510.6443 636.259" clip-path="url(#clipPath2)"/>
      <path d="M510.6443 628.259 L505.6443 640.259 L510.6443 637.259 L515.6443 640.259 Z" clip-path="url(#clipPath2)" stroke="none"/>
      <path fill="none" d="M460.6443 698.259 L460.6443 686.259" clip-path="url(#clipPath2)"/>
      <path d="M460.6443 678.259 L455.6443 690.259 L460.6443 687.259 L465.6443 690.259 Z" clip-path="url(#clipPath2)" stroke="none"/>
      <path fill="none" d="M842.2139 821.24 L842.2139 850.5946" clip-path="url(#clipPath2)"/>
      <path d="M842.2139 858.5946 L847.2139 846.5946 L842.2139 849.5946 L837.2139 846.5946 Z" clip-path="url(#clipPath2)" stroke="none"/>
    </g>
  </g>
</svg>
