<?xml version="1.0" encoding="UTF-8"?><svg xmlns="http://www.w3.org/2000/svg" xmlns:xlink="http://www.w3.org/1999/xlink" fill-opacity="1" color-rendering="auto" color-interpolation="auto" text-rendering="auto" stroke="black" stroke-linecap="square" width="483" stroke-miterlimit="10" shape-rendering="auto" stroke-opacity="1" fill="black" stroke-dasharray="none" font-weight="normal" stroke-width="1" height="414" font-family="'Dialog'" font-style="normal" stroke-linejoin="miter" font-size="12px" stroke-dashoffset="0" image-rendering="auto">
  <!--Generated by ySVG 2.5-->
  <defs id="genericDefs"/>
  <g>
    <defs id="defs1">
      <clipPath clipPathUnits="userSpaceOnUse" id="clipPath1">
        <path d="M0 0 L483 0 L483 414 L0 414 L0 0 Z"/>
      </clipPath>
      <clipPath clipPathUnits="userSpaceOnUse" id="clipPath2">
        <path d="M619 587 L1102 587 L1102 1001 L619 1001 L619 587 Z"/>
      </clipPath>
    </defs>
    <g fill="white" text-rendering="geometricPrecision" shape-rendering="geometricPrecision" transform="translate(-619,-587)" stroke="white">
      <rect x="619" width="483" height="414" y="587" clip-path="url(#clipPath2)" stroke="none"/>
    </g>
    <g fill="white" text-rendering="geometricPrecision" shape-rendering="geometricPrecision" transform="matrix(1,0,0,1,-619,-587)" stroke="white">
      <rect x="770.5" width="30" height="30" y="706" clip-path="url(#clipPath2)" stroke="none"/>
    </g>
    <g text-rendering="geometricPrecision" stroke-miterlimit="1.45" shape-rendering="geometricPrecision" transform="matrix(1,0,0,1,-619,-587)" stroke-linecap="butt">
      <rect fill="none" x="770.5" width="30" height="30" y="706" clip-path="url(#clipPath2)"/>
    </g>
    <g fill="white" text-rendering="geometricPrecision" shape-rendering="geometricPrecision" transform="matrix(1,0,0,1,-619,-587)" stroke="white">
      <rect x="820.5" width="30" height="30" y="706" clip-path="url(#clipPath2)" stroke="none"/>
    </g>
    <g text-rendering="geometricPrecision" stroke-miterlimit="1.45" shape-rendering="geometricPrecision" transform="matrix(1,0,0,1,-619,-587)" stroke-linecap="butt">
      <rect fill="none" x="820.5" width="30" height="30" y="706" clip-path="url(#clipPath2)"/>
    </g>
    <g fill="white" text-rendering="geometricPrecision" shape-rendering="geometricPrecision" transform="matrix(1,0,0,1,-619,-587)" stroke="white">
      <rect x="870.5" width="30" height="30" y="706" clip-path="url(#clipPath2)" stroke="none"/>
    </g>
    <g text-rendering="geometricPrecision" stroke-miterlimit="1.45" shape-rendering="geometricPrecision" transform="matrix(1,0,0,1,-619,-587)" stroke-linecap="butt">
      <rect fill="none" x="870.5" width="30" height="30" y="706" clip-path="url(#clipPath2)"/>
    </g>
    <g fill="white" text-rendering="geometricPrecision" shape-rendering="geometricPrecision" transform="matrix(1,0,0,1,-619,-587)" stroke="white">
      <rect x="920.5" width="30" height="30" y="706" clip-path="url(#clipPath2)" stroke="none"/>
    </g>
    <g text-rendering="geometricPrecision" stroke-miterlimit="1.45" shape-rendering="geometricPrecision" font-family="sans-serif" transform="matrix(1,0,0,1,-619,-587)" stroke-linecap="butt">
      <text x="922.1816" xml:space="preserve" y="725.1543" clip-path="url(#clipPath2)" stroke="none">nom</text>
      <rect fill="none" x="920.5" width="30" height="30" y="706" clip-path="url(#clipPath2)"/>
    </g>
    <g fill="white" text-rendering="geometricPrecision" shape-rendering="geometricPrecision" transform="matrix(1,0,0,1,-619,-587)" stroke="white">
      <rect x="770.5" width="30" height="30" y="756" clip-path="url(#clipPath2)" stroke="none"/>
    </g>
    <g text-rendering="geometricPrecision" stroke-miterlimit="1.45" shape-rendering="geometricPrecision" transform="matrix(1,0,0,1,-619,-587)" stroke-linecap="butt">
      <rect fill="none" x="770.5" width="30" height="30" y="756" clip-path="url(#clipPath2)"/>
    </g>
    <g fill="white" text-rendering="geometricPrecision" shape-rendering="geometricPrecision" transform="matrix(1,0,0,1,-619,-587)" stroke="white">
      <rect x="820.5" width="30" height="30" y="756" clip-path="url(#clipPath2)" stroke="none"/>
    </g>
    <g text-rendering="geometricPrecision" stroke-miterlimit="1.45" shape-rendering="geometricPrecision" transform="matrix(1,0,0,1,-619,-587)" stroke-linecap="butt">
      <rect fill="none" x="820.5" width="30" height="30" y="756" clip-path="url(#clipPath2)"/>
    </g>
    <g fill="white" text-rendering="geometricPrecision" shape-rendering="geometricPrecision" transform="matrix(1,0,0,1,-619,-587)" stroke="white">
      <rect x="870.5" width="30" height="30" y="756" clip-path="url(#clipPath2)" stroke="none"/>
    </g>
    <g text-rendering="geometricPrecision" stroke-miterlimit="1.45" shape-rendering="geometricPrecision" font-family="sans-serif" transform="matrix(1,0,0,1,-619,-587)" stroke-linecap="butt">
      <text x="875.6475" xml:space="preserve" y="775.1543" clip-path="url(#clipPath2)" stroke="none">det</text>
      <rect fill="none" x="870.5" width="30" height="30" y="756" clip-path="url(#clipPath2)"/>
    </g>
    <g fill="white" text-rendering="geometricPrecision" shape-rendering="geometricPrecision" transform="matrix(1,0,0,1,-619,-587)" stroke="white">
      <rect x="920.5" width="30" height="30" y="756" clip-path="url(#clipPath2)" stroke="none"/>
    </g>
    <g text-rendering="geometricPrecision" stroke-miterlimit="1.45" shape-rendering="geometricPrecision" font-family="sans-serif" transform="matrix(1,0,0,1,-619,-587)" stroke-linecap="butt">
      <text x="920.4209" xml:space="preserve" y="775.1543" clip-path="url(#clipPath2)" stroke="none">noun</text>
      <rect fill="none" x="920.5" width="30" height="30" y="756" clip-path="url(#clipPath2)"/>
    </g>
    <g fill="white" text-rendering="geometricPrecision" shape-rendering="geometricPrecision" transform="matrix(1,0,0,1,-619,-587)" stroke="white">
      <rect x="770.5" width="30" height="30" y="806" clip-path="url(#clipPath2)" stroke="none"/>
    </g>
    <g text-rendering="geometricPrecision" stroke-miterlimit="1.45" shape-rendering="geometricPrecision" transform="matrix(1,0,0,1,-619,-587)" stroke-linecap="butt">
      <rect fill="none" x="770.5" width="30" height="30" y="806" clip-path="url(#clipPath2)"/>
    </g>
    <g fill="white" text-rendering="geometricPrecision" shape-rendering="geometricPrecision" transform="matrix(1,0,0,1,-619,-587)" stroke="white">
      <rect x="820.5" width="30" height="30" y="806" clip-path="url(#clipPath2)" stroke="none"/>
    </g>
    <g text-rendering="geometricPrecision" stroke-miterlimit="1.45" shape-rendering="geometricPrecision" font-family="sans-serif" transform="matrix(1,0,0,1,-619,-587)" stroke-linecap="butt">
      <text x="828.1406" xml:space="preserve" y="825.1543" clip-path="url(#clipPath2)" stroke="none">vp</text>
      <rect fill="none" x="820.5" width="30" height="30" y="806" clip-path="url(#clipPath2)"/>
    </g>
    <g fill="white" text-rendering="geometricPrecision" shape-rendering="geometricPrecision" transform="matrix(1,0,0,1,-619,-587)" stroke="white">
      <rect x="870.5" width="30" height="30" y="806" clip-path="url(#clipPath2)" stroke="none"/>
    </g>
    <g text-rendering="geometricPrecision" stroke-miterlimit="1.45" shape-rendering="geometricPrecision" font-family="sans-serif" transform="matrix(1,0,0,1,-619,-587)" stroke-linecap="butt">
      <text x="875.6475" xml:space="preserve" y="825.1543" clip-path="url(#clipPath2)" stroke="none">det</text>
      <rect fill="none" x="870.5" width="30" height="30" y="806" clip-path="url(#clipPath2)"/>
    </g>
    <g fill="white" text-rendering="geometricPrecision" shape-rendering="geometricPrecision" transform="matrix(1,0,0,1,-619,-587)" stroke="white">
      <rect x="920.5" width="30" height="30" y="806" clip-path="url(#clipPath2)" stroke="none"/>
    </g>
    <g text-rendering="geometricPrecision" stroke-miterlimit="1.45" shape-rendering="geometricPrecision" transform="matrix(1,0,0,1,-619,-587)" stroke-linecap="butt">
      <rect fill="none" x="920.5" width="30" height="30" y="806" clip-path="url(#clipPath2)"/>
    </g>
    <g fill="white" text-rendering="geometricPrecision" shape-rendering="geometricPrecision" transform="matrix(1,0,0,1,-619,-587)" stroke="white">
      <rect x="770.5" width="30" height="30" y="856" clip-path="url(#clipPath2)" stroke="none"/>
    </g>
    <g text-rendering="geometricPrecision" stroke-miterlimit="1.45" shape-rendering="geometricPrecision" font-family="sans-serif" transform="matrix(1,0,0,1,-619,-587)" stroke-linecap="butt">
      <text x="777.8887" xml:space="preserve" y="875.1543" clip-path="url(#clipPath2)" stroke="none">np</text>
      <rect fill="none" x="770.5" width="30" height="30" y="856" clip-path="url(#clipPath2)"/>
    </g>
    <g fill="white" text-rendering="geometricPrecision" shape-rendering="geometricPrecision" transform="matrix(1,0,0,1,-619,-587)" stroke="white">
      <rect x="820.5" width="30" height="30" y="856" clip-path="url(#clipPath2)" stroke="none"/>
    </g>
    <g text-rendering="geometricPrecision" stroke-miterlimit="1.45" shape-rendering="geometricPrecision" font-family="sans-serif" transform="matrix(1,0,0,1,-619,-587)" stroke-linecap="butt">
      <text x="821.9824" xml:space="preserve" y="875.1543" clip-path="url(#clipPath2)" stroke="none">verb</text>
      <rect fill="none" x="820.5" width="30" height="30" y="856" clip-path="url(#clipPath2)"/>
    </g>
    <g fill="white" text-rendering="geometricPrecision" shape-rendering="geometricPrecision" transform="matrix(1,0,0,1,-619,-587)" stroke="white">
      <rect x="870.5" width="30" height="30" y="856" clip-path="url(#clipPath2)" stroke="none"/>
    </g>
    <g text-rendering="geometricPrecision" stroke-miterlimit="1.45" shape-rendering="geometricPrecision" transform="matrix(1,0,0,1,-619,-587)" stroke-linecap="butt">
      <rect fill="none" x="870.5" width="30" height="30" y="856" clip-path="url(#clipPath2)"/>
    </g>
    <g fill="white" text-rendering="geometricPrecision" shape-rendering="geometricPrecision" transform="matrix(1,0,0,1,-619,-587)" stroke="white">
      <rect x="920.5" width="30" height="30" y="856" clip-path="url(#clipPath2)" stroke="none"/>
    </g>
    <g text-rendering="geometricPrecision" stroke-miterlimit="1.45" shape-rendering="geometricPrecision" transform="matrix(1,0,0,1,-619,-587)" stroke-linecap="butt">
      <rect fill="none" x="920.5" width="30" height="30" y="856" clip-path="url(#clipPath2)"/>
    </g>
    <g fill="white" text-rendering="geometricPrecision" shape-rendering="geometricPrecision" transform="matrix(1,0,0,1,-619,-587)" stroke="white">
      <rect x="770.5" width="30" height="30" y="906" clip-path="url(#clipPath2)" stroke="none"/>
    </g>
    <g text-rendering="geometricPrecision" stroke-miterlimit="1.45" shape-rendering="geometricPrecision" font-family="sans-serif" transform="matrix(1,0,0,1,-619,-587)" stroke-linecap="butt">
      <text x="771.751" xml:space="preserve" y="925.1543" clip-path="url(#clipPath2)" stroke="none">pron</text>
      <rect fill="none" x="770.5" width="30" height="30" y="906" clip-path="url(#clipPath2)"/>
    </g>
    <g fill="white" text-rendering="geometricPrecision" shape-rendering="geometricPrecision" transform="matrix(1,0,0,1,-619,-587)" stroke="white">
      <rect x="820.5" width="30" height="30" y="906" clip-path="url(#clipPath2)" stroke="none"/>
    </g>
    <g text-rendering="geometricPrecision" stroke-miterlimit="1.45" shape-rendering="geometricPrecision" transform="matrix(1,0,0,1,-619,-587)" stroke-linecap="butt">
      <rect fill="none" x="820.5" width="30" height="30" y="906" clip-path="url(#clipPath2)"/>
    </g>
    <g fill="white" text-rendering="geometricPrecision" shape-rendering="geometricPrecision" transform="matrix(1,0,0,1,-619,-587)" stroke="white">
      <rect x="870.5" width="30" height="30" y="906" clip-path="url(#clipPath2)" stroke="none"/>
    </g>
    <g text-rendering="geometricPrecision" stroke-miterlimit="1.45" shape-rendering="geometricPrecision" transform="matrix(1,0,0,1,-619,-587)" stroke-linecap="butt">
      <rect fill="none" x="870.5" width="30" height="30" y="906" clip-path="url(#clipPath2)"/>
    </g>
    <g fill="white" text-rendering="geometricPrecision" shape-rendering="geometricPrecision" transform="matrix(1,0,0,1,-619,-587)" stroke="white">
      <rect x="920.5" width="30" height="30" y="906" clip-path="url(#clipPath2)" stroke="none"/>
    </g>
    <g text-rendering="geometricPrecision" stroke-miterlimit="1.45" shape-rendering="geometricPrecision" transform="matrix(1,0,0,1,-619,-587)" stroke-linecap="butt">
      <rect fill="none" x="920.5" width="30" height="30" y="906" clip-path="url(#clipPath2)"/>
    </g>
    <g fill="white" text-rendering="geometricPrecision" shape-rendering="geometricPrecision" transform="matrix(1,0,0,1,-619,-587)" stroke="white">
      <rect x="770.5" width="180" height="30" y="654" clip-path="url(#clipPath2)" stroke="none"/>
    </g>
    <g text-rendering="geometricPrecision" stroke-miterlimit="1.45" shape-rendering="geometricPrecision" font-family="sans-serif" transform="matrix(1,0,0,1,-619,-587)" stroke-linecap="butt">
      <text x="835.3896" xml:space="preserve" y="673.1543" clip-path="url(#clipPath2)" stroke="none">Step 1.3</text>
      <rect fill="none" x="770.5" width="180" height="30" y="654" clip-path="url(#clipPath2)"/>
    </g>
    <g fill="white" text-rendering="geometricPrecision" shape-rendering="geometricPrecision" transform="matrix(1,0,0,1,-619,-587)" stroke="white">
      <rect x="634" width="453" height="30" y="602" clip-path="url(#clipPath2)" stroke="none"/>
    </g>
    <g text-rendering="geometricPrecision" stroke-miterlimit="1.45" shape-rendering="geometricPrecision" font-family="sans-serif" transform="matrix(1,0,0,1,-619,-587)" stroke-linecap="butt">
      <text x="656.4326" xml:space="preserve" y="621.1543" clip-path="url(#clipPath2)" stroke="none">CKY of "I am a Function" - Second Permutation: Pron Verb Det Noun</text>
      <rect fill="none" x="634" width="453" height="30" y="602" clip-path="url(#clipPath2)"/>
    </g>
    <g fill="white" text-rendering="geometricPrecision" shape-rendering="geometricPrecision" transform="matrix(1,0,0,1,-619,-587)" stroke="white">
      <rect x="634" width="453" height="30" y="956" clip-path="url(#clipPath2)" stroke="none"/>
    </g>
    <g text-rendering="geometricPrecision" stroke-miterlimit="1.45" shape-rendering="geometricPrecision" font-family="sans-serif" transform="matrix(1,0,0,1,-619,-587)" stroke-linecap="butt">
      <text x="832.0703" xml:space="preserve" y="975.1543" clip-path="url(#clipPath2)" stroke="none">Figure 17</text>
      <rect fill="none" x="634" width="453" height="30" y="956" clip-path="url(#clipPath2)"/>
      <path fill="none" d="M935.5 756 L935.5 744" clip-path="url(#clipPath2)"/>
      <path d="M935.5 736 L930.5 748 L935.5 745 L940.5 748 Z" clip-path="url(#clipPath2)" stroke="none"/>
    </g>
    <g text-rendering="geometricPrecision" stroke-miterlimit="1.45" shape-rendering="geometricPrecision" transform="matrix(1,0,0,1,-619,-587)" stroke-linecap="butt">
      <path fill="none" d="M885.5 786 L879.25 801 L884 798.15 L884 806 L887 806 L887 798.15 L891.75 801 L885.5 786 Z" clip-path="url(#clipPath2)"/>
    </g>
    <g text-rendering="geometricPrecision" stroke-miterlimit="1.45" shape-rendering="geometricPrecision" transform="matrix(1,0,0,1,-619,-587)" stroke-linecap="butt">
      <path fill="none" d="M835.5 856 L835.5 844" clip-path="url(#clipPath2)"/>
      <path d="M835.5 836 L830.5 848 L835.5 845 L840.5 848 Z" clip-path="url(#clipPath2)" stroke="none"/>
      <path fill="none" d="M785.5 906 L785.5 894" clip-path="url(#clipPath2)"/>
      <path d="M785.5 886 L780.5 898 L785.5 895 L790.5 898 Z" clip-path="url(#clipPath2)" stroke="none"/>
    </g>
  </g>
</svg>
