<?xml version="1.0" encoding="UTF-8"?><svg xmlns="http://www.w3.org/2000/svg" xmlns:xlink="http://www.w3.org/1999/xlink" fill-opacity="1" color-rendering="auto" color-interpolation="auto" text-rendering="auto" stroke="black" stroke-linecap="square" width="551" stroke-miterlimit="10" shape-rendering="auto" stroke-opacity="1" fill="black" stroke-dasharray="none" font-weight="normal" stroke-width="1" height="770" font-family="'Dialog'" font-style="normal" stroke-linejoin="miter" font-size="12px" stroke-dashoffset="0" image-rendering="auto">
  <!--Generated by ySVG 2.5-->
  <defs id="genericDefs"/>
  <g>
    <defs id="defs1">
      <clipPath clipPathUnits="userSpaceOnUse" id="clipPath1">
        <path d="M0 0 L551 0 L551 770 L0 770 L0 0 Z"/>
      </clipPath>
      <clipPath clipPathUnits="userSpaceOnUse" id="clipPath2">
        <path d="M430 314 L981 314 L981 1084 L430 1084 L430 314 Z"/>
      </clipPath>
    </defs>
    <g fill="white" text-rendering="geometricPrecision" shape-rendering="geometricPrecision" transform="translate(-430,-314)" stroke="white">
      <rect x="430" width="551" height="770" y="314" clip-path="url(#clipPath2)" stroke="none"/>
    </g>
    <g font-size="15px" stroke-linecap="butt" transform="matrix(1,0,0,1,-430,-314)" text-rendering="geometricPrecision" font-family="sans-serif" shape-rendering="geometricPrecision" stroke-miterlimit="1.45">
      <text x="463.6898" xml:space="preserve" y="816.8278" clip-path="url(#clipPath2)" stroke="none">Stack</text>
      <rect x="446.101" y="800.9044" clip-path="url(#clipPath2)" fill="none" width="61.1172" stroke-dasharray="6,2" rx="4" ry="4" height="217.4219"/>
    </g>
    <g fill="white" text-rendering="geometricPrecision" shape-rendering="geometricPrecision" transform="matrix(1,0,0,1,-430,-314)" stroke="white">
      <rect x="461.6596" width="30" height="30" y="837.3654" clip-path="url(#clipPath2)" stroke="none"/>
    </g>
    <g text-rendering="geometricPrecision" stroke-miterlimit="1.45" shape-rendering="geometricPrecision" font-family="sans-serif" transform="matrix(1,0,0,1,-430,-314)" stroke-linecap="butt">
      <text x="463.101" xml:space="preserve" y="856.5197" clip-path="url(#clipPath2)" stroke="none">Pron</text>
      <rect fill="none" x="461.6596" width="30" height="30" y="837.3654" clip-path="url(#clipPath2)"/>
    </g>
    <g fill="white" text-rendering="geometricPrecision" shape-rendering="geometricPrecision" transform="matrix(1,0,0,1,-430,-314)" stroke="white">
      <rect x="461.6596" width="30" height="30" y="877.3263" clip-path="url(#clipPath2)" stroke="none"/>
    </g>
    <g text-rendering="geometricPrecision" stroke-miterlimit="1.45" shape-rendering="geometricPrecision" font-family="sans-serif" transform="matrix(1,0,0,1,-430,-314)" stroke-linecap="butt">
      <text x="474.3187" xml:space="preserve" y="896.4806" clip-path="url(#clipPath2)" stroke="none">)</text>
      <rect fill="none" x="461.6596" width="30" height="30" y="877.3263" clip-path="url(#clipPath2)"/>
    </g>
    <g fill="white" text-rendering="geometricPrecision" shape-rendering="geometricPrecision" transform="matrix(1,0,0,1,-430,-314)" stroke="white">
      <rect x="461.6596" width="30" height="30" y="924.3263" clip-path="url(#clipPath2)" stroke="none"/>
    </g>
    <g text-rendering="geometricPrecision" stroke-miterlimit="1.45" shape-rendering="geometricPrecision" font-family="sans-serif" transform="matrix(1,0,0,1,-430,-314)" stroke-linecap="butt">
      <text x="469.3002" xml:space="preserve" y="943.4806" clip-path="url(#clipPath2)" stroke="none">vp</text>
      <rect fill="none" x="461.6596" width="30" height="30" y="924.3263" clip-path="url(#clipPath2)"/>
    </g>
    <g fill="white" text-rendering="geometricPrecision" shape-rendering="geometricPrecision" transform="matrix(1,0,0,1,-430,-314)" stroke="white">
      <rect x="461.6596" width="30" height="30" y="971.3263" clip-path="url(#clipPath2)" stroke="none"/>
    </g>
    <g text-rendering="geometricPrecision" stroke-miterlimit="1.45" shape-rendering="geometricPrecision" font-family="sans-serif" transform="matrix(1,0,0,1,-430,-314)" stroke-linecap="butt">
      <text x="474.3187" xml:space="preserve" y="990.4806" clip-path="url(#clipPath2)" stroke="none">)</text>
      <rect fill="none" x="461.6596" width="30" height="30" y="971.3263" clip-path="url(#clipPath2)"/>
    </g>
    <g fill="white" text-rendering="geometricPrecision" shape-rendering="geometricPrecision" transform="matrix(1,0,0,1,-430,-314)" stroke="white">
      <rect x="446.101" width="518.9583" height="30" y="396.7087" clip-path="url(#clipPath2)" stroke="none"/>
    </g>
    <g text-rendering="geometricPrecision" stroke-miterlimit="1.45" shape-rendering="geometricPrecision" font-family="sans-serif" transform="matrix(1,0,0,1,-430,-314)" stroke-linecap="butt">
      <text x="686.1944" xml:space="preserve" y="415.863" clip-path="url(#clipPath2)" stroke="none">Step 2</text>
      <rect fill="none" x="446.101" width="518.9583" height="30" y="396.7087" clip-path="url(#clipPath2)"/>
    </g>
    <g fill="white" text-rendering="geometricPrecision" shape-rendering="geometricPrecision" transform="matrix(1,0,0,1,-430,-314)" stroke="white">
      <rect x="446.101" width="518.9583" height="44.6667" y="329.8464" clip-path="url(#clipPath2)" stroke="none"/>
    </g>
    <g font-size="11px" stroke-linecap="butt" transform="matrix(1,0,0,1,-430,-314)" text-rendering="geometricPrecision" font-family="sans-serif" shape-rendering="geometricPrecision" stroke-miterlimit="1.45">
      <text x="623.0345" xml:space="preserve" y="343.1831" clip-path="url(#clipPath2)" stroke="none">Tree_DFS of "I am a Function"</text>
      <text x="656.1365" xml:space="preserve" y="355.9878" clip-path="url(#clipPath2)" stroke="none">First Permutation:</text>
      <text x="650.7816" xml:space="preserve" y="368.7925" clip-path="url(#clipPath2)" stroke="none">Pron Verb Det Noun</text>
      <rect fill="none" x="446.101" width="518.9583" height="44.6667" y="329.8464" clip-path="url(#clipPath2)"/>
    </g>
    <g fill="white" text-rendering="geometricPrecision" shape-rendering="geometricPrecision" transform="matrix(1,0,0,1,-430,-314)" stroke="white">
      <rect x="446.101" width="237.6042" height="30" y="750.9044" clip-path="url(#clipPath2)" stroke="none"/>
    </g>
    <g text-rendering="geometricPrecision" stroke-miterlimit="1.45" shape-rendering="geometricPrecision" font-family="sans-serif" transform="matrix(1,0,0,1,-430,-314)" stroke-linecap="butt">
      <text x="506.2683" xml:space="preserve" y="770.0587" clip-path="url(#clipPath2)" stroke="none">Stack &amp; Line Status</text>
      <rect fill="none" x="446.101" width="237.6042" height="30" y="750.9044" clip-path="url(#clipPath2)"/>
    </g>
    <g fill="white" text-rendering="geometricPrecision" shape-rendering="geometricPrecision" transform="matrix(1,0,0,1,-430,-314)" stroke="white">
      <rect x="727.4551" width="237.6042" height="30" y="448.9044" clip-path="url(#clipPath2)" stroke="none"/>
    </g>
    <g text-rendering="geometricPrecision" stroke-miterlimit="1.45" shape-rendering="geometricPrecision" font-family="sans-serif" transform="matrix(1,0,0,1,-430,-314)" stroke-linecap="butt">
      <text x="832.7426" xml:space="preserve" y="468.0587" clip-path="url(#clipPath2)" stroke="none">Tree</text>
      <rect fill="none" x="727.4551" width="237.6042" height="30" y="448.9044" clip-path="url(#clipPath2)"/>
    </g>
    <g fill="white" text-rendering="geometricPrecision" shape-rendering="geometricPrecision" transform="matrix(1,0,0,1,-430,-314)" stroke="white">
      <rect x="831.2572" width="30" height="30" y="568.2591" clip-path="url(#clipPath2)" stroke="none"/>
    </g>
    <g text-rendering="geometricPrecision" stroke-miterlimit="1.45" shape-rendering="geometricPrecision" font-family="sans-serif" transform="matrix(1,0,0,1,-430,-314)" stroke-linecap="butt">
      <text x="838.6459" xml:space="preserve" y="587.4134" clip-path="url(#clipPath2)" stroke="none">np</text>
      <rect fill="none" x="831.2572" width="30" height="30" y="568.2591" clip-path="url(#clipPath2)"/>
    </g>
    <g fill="white" text-rendering="geometricPrecision" shape-rendering="geometricPrecision" transform="matrix(1,0,0,1,-430,-314)" stroke="white">
      <rect x="831.2572" width="30" height="30" y="500.9044" clip-path="url(#clipPath2)" stroke="none"/>
    </g>
    <g text-rendering="geometricPrecision" stroke-miterlimit="1.45" shape-rendering="geometricPrecision" font-family="sans-serif" transform="matrix(1,0,0,1,-430,-314)" stroke-linecap="butt">
      <text x="843.1312" xml:space="preserve" y="520.0587" clip-path="url(#clipPath2)" stroke="none">s</text>
      <rect fill="none" x="831.2572" width="30" height="30" y="500.9044" clip-path="url(#clipPath2)"/>
    </g>
    <g fill="white" text-rendering="geometricPrecision" shape-rendering="geometricPrecision" transform="matrix(1,0,0,1,-430,-314)" stroke="white">
      <rect x="446.101" width="180" height="30" y="448.9044" clip-path="url(#clipPath2)" stroke="none"/>
    </g>
    <g text-rendering="geometricPrecision" stroke-miterlimit="1.45" shape-rendering="geometricPrecision" font-family="sans-serif" transform="matrix(1,0,0,1,-430,-314)" stroke-linecap="butt">
      <text x="503.514" xml:space="preserve" y="468.0587" clip-path="url(#clipPath2)" stroke="none">CKY Matrix</text>
      <rect fill="none" x="446.101" width="180" height="30" y="448.9044" clip-path="url(#clipPath2)"/>
    </g>
    <g fill="white" text-rendering="geometricPrecision" shape-rendering="geometricPrecision" transform="matrix(1,0,0,1,-430,-314)" stroke="white">
      <rect x="596.101" width="30" height="30" y="700.9044" clip-path="url(#clipPath2)" stroke="none"/>
    </g>
    <g text-rendering="geometricPrecision" stroke-miterlimit="1.45" shape-rendering="geometricPrecision" transform="matrix(1,0,0,1,-430,-314)" stroke-linecap="butt">
      <rect fill="none" x="596.101" width="30" height="30" y="700.9044" clip-path="url(#clipPath2)"/>
    </g>
    <g fill="white" text-rendering="geometricPrecision" shape-rendering="geometricPrecision" transform="matrix(1,0,0,1,-430,-314)" stroke="white">
      <rect x="546.101" width="30" height="30" y="700.9044" clip-path="url(#clipPath2)" stroke="none"/>
    </g>
    <g text-rendering="geometricPrecision" stroke-miterlimit="1.45" shape-rendering="geometricPrecision" transform="matrix(1,0,0,1,-430,-314)" stroke-linecap="butt">
      <rect fill="none" x="546.101" width="30" height="30" y="700.9044" clip-path="url(#clipPath2)"/>
    </g>
    <g fill="white" text-rendering="geometricPrecision" shape-rendering="geometricPrecision" transform="matrix(1,0,0,1,-430,-314)" stroke="white">
      <rect x="496.101" width="30" height="30" y="700.9044" clip-path="url(#clipPath2)" stroke="none"/>
    </g>
    <g text-rendering="geometricPrecision" stroke-miterlimit="1.45" shape-rendering="geometricPrecision" transform="matrix(1,0,0,1,-430,-314)" stroke-linecap="butt">
      <rect fill="none" x="496.101" width="30" height="30" y="700.9044" clip-path="url(#clipPath2)"/>
    </g>
    <g fill="white" text-rendering="geometricPrecision" shape-rendering="geometricPrecision" transform="matrix(1,0,0,1,-430,-314)" stroke="white">
      <rect x="446.101" width="30" height="30" y="700.9044" clip-path="url(#clipPath2)" stroke="none"/>
    </g>
    <g text-rendering="geometricPrecision" stroke-miterlimit="1.45" shape-rendering="geometricPrecision" font-family="sans-serif" transform="matrix(1,0,0,1,-430,-314)" stroke-linecap="butt">
      <text x="447.3519" xml:space="preserve" y="720.0587" clip-path="url(#clipPath2)" stroke="none">pron</text>
      <rect x="446.101" y="700.9044" clip-path="url(#clipPath2)" fill="none" width="30" stroke-dasharray="12,4" height="30" stroke-width="2"/>
    </g>
    <g fill="white" text-rendering="geometricPrecision" shape-rendering="geometricPrecision" transform="matrix(1,0,0,1,-430,-314)" stroke="white">
      <rect x="596.101" width="30" height="30" y="650.9044" clip-path="url(#clipPath2)" stroke="none"/>
    </g>
    <g text-rendering="geometricPrecision" stroke-miterlimit="1.45" shape-rendering="geometricPrecision" transform="matrix(1,0,0,1,-430,-314)" stroke-linecap="butt">
      <rect fill="none" x="596.101" width="30" height="30" y="650.9044" clip-path="url(#clipPath2)"/>
    </g>
    <g fill="white" text-rendering="geometricPrecision" shape-rendering="geometricPrecision" transform="matrix(1,0,0,1,-430,-314)" stroke="white">
      <rect x="546.101" width="30" height="30" y="650.9044" clip-path="url(#clipPath2)" stroke="none"/>
    </g>
    <g text-rendering="geometricPrecision" stroke-miterlimit="1.45" shape-rendering="geometricPrecision" transform="matrix(1,0,0,1,-430,-314)" stroke-linecap="butt">
      <rect fill="none" x="546.101" width="30" height="30" y="650.9044" clip-path="url(#clipPath2)"/>
    </g>
    <g fill="white" text-rendering="geometricPrecision" shape-rendering="geometricPrecision" transform="matrix(1,0,0,1,-430,-314)" stroke="white">
      <rect x="496.101" width="30" height="30" y="650.9044" clip-path="url(#clipPath2)" stroke="none"/>
    </g>
    <g text-rendering="geometricPrecision" stroke-miterlimit="1.45" shape-rendering="geometricPrecision" font-family="sans-serif" transform="matrix(1,0,0,1,-430,-314)" stroke-linecap="butt">
      <text x="497.5834" xml:space="preserve" y="670.0587" clip-path="url(#clipPath2)" stroke="none">verb</text>
      <rect fill="none" x="496.101" width="30" height="30" y="650.9044" clip-path="url(#clipPath2)"/>
    </g>
    <g fill="white" text-rendering="geometricPrecision" shape-rendering="geometricPrecision" transform="matrix(1,0,0,1,-430,-314)" stroke="white">
      <rect x="446.101" width="30" height="30" y="650.9044" clip-path="url(#clipPath2)" stroke="none"/>
    </g>
    <g text-rendering="geometricPrecision" stroke-miterlimit="1.45" shape-rendering="geometricPrecision" font-family="sans-serif" transform="matrix(1,0,0,1,-430,-314)" stroke-linecap="butt">
      <text x="453.4896" xml:space="preserve" y="670.0587" clip-path="url(#clipPath2)" stroke="none">np</text>
      <rect fill="none" x="446.101" width="30" height="30" y="650.9044" clip-path="url(#clipPath2)"/>
    </g>
    <g fill="white" text-rendering="geometricPrecision" shape-rendering="geometricPrecision" transform="matrix(1,0,0,1,-430,-314)" stroke="white">
      <rect x="596.101" width="30" height="30" y="600.9044" clip-path="url(#clipPath2)" stroke="none"/>
    </g>
    <g text-rendering="geometricPrecision" stroke-miterlimit="1.45" shape-rendering="geometricPrecision" transform="matrix(1,0,0,1,-430,-314)" stroke-linecap="butt">
      <rect fill="none" x="596.101" width="30" height="30" y="600.9044" clip-path="url(#clipPath2)"/>
    </g>
    <g fill="white" text-rendering="geometricPrecision" shape-rendering="geometricPrecision" transform="matrix(1,0,0,1,-430,-314)" stroke="white">
      <rect x="546.101" width="30" height="30" y="600.9044" clip-path="url(#clipPath2)" stroke="none"/>
    </g>
    <g text-rendering="geometricPrecision" stroke-miterlimit="1.45" shape-rendering="geometricPrecision" font-family="sans-serif" transform="matrix(1,0,0,1,-430,-314)" stroke-linecap="butt">
      <text x="551.2484" xml:space="preserve" y="620.0587" clip-path="url(#clipPath2)" stroke="none">det</text>
      <rect fill="none" x="546.101" width="30" height="30" y="600.9044" clip-path="url(#clipPath2)"/>
    </g>
    <g fill="white" text-rendering="geometricPrecision" shape-rendering="geometricPrecision" transform="matrix(1,0,0,1,-430,-314)" stroke="white">
      <rect x="496.101" width="30" height="30" y="600.9044" clip-path="url(#clipPath2)" stroke="none"/>
    </g>
    <g text-rendering="geometricPrecision" stroke-miterlimit="1.45" shape-rendering="geometricPrecision" font-family="sans-serif" transform="matrix(1,0,0,1,-430,-314)" stroke-linecap="butt">
      <text x="503.7416" xml:space="preserve" y="620.0587" clip-path="url(#clipPath2)" stroke="none">vp</text>
      <rect fill="none" x="496.101" width="30" height="30" y="600.9044" clip-path="url(#clipPath2)"/>
    </g>
    <g fill="white" text-rendering="geometricPrecision" shape-rendering="geometricPrecision" transform="matrix(1,0,0,1,-430,-314)" stroke="white">
      <rect x="446.101" width="30" height="30" y="600.9044" clip-path="url(#clipPath2)" stroke="none"/>
    </g>
    <g text-rendering="geometricPrecision" stroke-miterlimit="1.45" shape-rendering="geometricPrecision" font-family="sans-serif" transform="matrix(1,0,0,1,-430,-314)" stroke-linecap="butt">
      <text x="453.4896" xml:space="preserve" y="620.0587" clip-path="url(#clipPath2)" stroke="none">np</text>
      <rect fill="none" x="446.101" width="30" height="30" y="600.9044" clip-path="url(#clipPath2)"/>
    </g>
    <g fill="white" text-rendering="geometricPrecision" shape-rendering="geometricPrecision" transform="matrix(1,0,0,1,-430,-314)" stroke="white">
      <rect x="596.101" width="30" height="30" y="550.9044" clip-path="url(#clipPath2)" stroke="none"/>
    </g>
    <g text-rendering="geometricPrecision" stroke-miterlimit="1.45" shape-rendering="geometricPrecision" font-family="sans-serif" transform="matrix(1,0,0,1,-430,-314)" stroke-linecap="butt">
      <text x="596.0219" xml:space="preserve" y="570.0587" clip-path="url(#clipPath2)" stroke="none">noun</text>
      <rect fill="none" x="596.101" width="30" height="30" y="550.9044" clip-path="url(#clipPath2)"/>
    </g>
    <g fill="white" text-rendering="geometricPrecision" shape-rendering="geometricPrecision" transform="matrix(1,0,0,1,-430,-314)" stroke="white">
      <rect x="546.101" width="30" height="30" y="550.9044" clip-path="url(#clipPath2)" stroke="none"/>
    </g>
    <g text-rendering="geometricPrecision" stroke-miterlimit="1.45" shape-rendering="geometricPrecision" font-family="sans-serif" transform="matrix(1,0,0,1,-430,-314)" stroke-linecap="butt">
      <text x="551.2484" xml:space="preserve" y="570.0587" clip-path="url(#clipPath2)" stroke="none">det</text>
      <rect fill="none" x="546.101" width="30" height="30" y="550.9044" clip-path="url(#clipPath2)"/>
    </g>
    <g fill="white" text-rendering="geometricPrecision" shape-rendering="geometricPrecision" transform="matrix(1,0,0,1,-430,-314)" stroke="white">
      <rect x="496.101" width="30" height="30" y="550.9044" clip-path="url(#clipPath2)" stroke="none"/>
    </g>
    <g text-rendering="geometricPrecision" stroke-miterlimit="1.45" shape-rendering="geometricPrecision" font-family="sans-serif" transform="matrix(1,0,0,1,-430,-314)" stroke-linecap="butt">
      <text x="503.7416" xml:space="preserve" y="570.0587" clip-path="url(#clipPath2)" stroke="none">vp</text>
      <rect fill="none" x="496.101" width="30" height="30" y="550.9044" clip-path="url(#clipPath2)"/>
    </g>
    <g fill="white" text-rendering="geometricPrecision" shape-rendering="geometricPrecision" transform="matrix(1,0,0,1,-430,-314)" stroke="white">
      <rect x="446.101" width="30" height="30" y="550.9044" clip-path="url(#clipPath2)" stroke="none"/>
    </g>
    <g text-rendering="geometricPrecision" stroke-miterlimit="1.45" shape-rendering="geometricPrecision" font-family="sans-serif" transform="matrix(1,0,0,1,-430,-314)" stroke-linecap="butt">
      <text x="453.4896" xml:space="preserve" y="570.0587" clip-path="url(#clipPath2)" stroke="none">np</text>
    </g>
    <g stroke-linecap="round" transform="matrix(1,0,0,1,-430,-314)" stroke-dashoffset="2" text-rendering="geometricPrecision" shape-rendering="geometricPrecision" stroke-dasharray="0,4" stroke-miterlimit="1.45">
      <rect fill="none" x="446.101" width="30" height="30" y="550.9044" clip-path="url(#clipPath2)"/>
    </g>
    <g fill="white" text-rendering="geometricPrecision" shape-rendering="geometricPrecision" transform="matrix(1,0,0,1,-430,-314)" stroke="white">
      <rect x="596.101" width="30" height="30" y="500.9044" clip-path="url(#clipPath2)" stroke="none"/>
    </g>
    <g text-rendering="geometricPrecision" stroke-miterlimit="1.45" shape-rendering="geometricPrecision" font-family="sans-serif" transform="matrix(1,0,0,1,-430,-314)" stroke-linecap="butt">
      <text x="597.7826" xml:space="preserve" y="520.0587" clip-path="url(#clipPath2)" stroke="none">nom</text>
      <rect fill="none" x="596.101" width="30" height="30" y="500.9044" clip-path="url(#clipPath2)"/>
    </g>
    <g fill="white" text-rendering="geometricPrecision" shape-rendering="geometricPrecision" transform="matrix(1,0,0,1,-430,-314)" stroke="white">
      <rect x="546.101" width="30" height="30" y="500.9044" clip-path="url(#clipPath2)" stroke="none"/>
    </g>
    <g text-rendering="geometricPrecision" stroke-miterlimit="1.45" shape-rendering="geometricPrecision" font-family="sans-serif" transform="matrix(1,0,0,1,-430,-314)" stroke-linecap="butt">
      <text x="553.4896" xml:space="preserve" y="520.0587" clip-path="url(#clipPath2)" stroke="none">np</text>
      <rect fill="none" x="546.101" width="30" height="30" y="500.9044" clip-path="url(#clipPath2)"/>
    </g>
    <g fill="white" text-rendering="geometricPrecision" shape-rendering="geometricPrecision" transform="matrix(1,0,0,1,-430,-314)" stroke="white">
      <rect x="496.101" width="30" height="30" y="500.9044" clip-path="url(#clipPath2)" stroke="none"/>
    </g>
    <g text-rendering="geometricPrecision" stroke-miterlimit="1.45" shape-rendering="geometricPrecision" font-family="sans-serif" transform="matrix(1,0,0,1,-430,-314)" stroke-linecap="butt">
      <text x="503.7416" xml:space="preserve" y="520.0587" clip-path="url(#clipPath2)" stroke="none">vp</text>
      <rect x="496.101" y="500.9044" clip-path="url(#clipPath2)" fill="none" width="30" stroke-dasharray="12,4" height="30" stroke-width="2"/>
    </g>
    <g fill="white" text-rendering="geometricPrecision" shape-rendering="geometricPrecision" transform="matrix(1,0,0,1,-430,-314)" stroke="white">
      <rect x="446.101" width="30" height="30" y="500.9044" clip-path="url(#clipPath2)" stroke="none"/>
    </g>
    <g text-rendering="geometricPrecision" stroke-miterlimit="1.45" shape-rendering="geometricPrecision" font-family="sans-serif" transform="matrix(1,0,0,1,-430,-314)" stroke-linecap="butt">
      <text x="457.975" xml:space="preserve" y="520.0587" clip-path="url(#clipPath2)" stroke="none">s</text>
    </g>
    <g stroke-linecap="round" transform="matrix(1,0,0,1,-430,-314)" stroke-dashoffset="2" text-rendering="geometricPrecision" shape-rendering="geometricPrecision" stroke-dasharray="0,4" stroke-miterlimit="1.45">
      <rect fill="none" x="446.101" width="30" height="30" y="500.9044" clip-path="url(#clipPath2)"/>
      <path fill="none" stroke-dasharray="none" d="M846.2572 530.9044 L846.2572 560.2591" stroke-dashoffset="0" clip-path="url(#clipPath2)" stroke-linecap="butt"/>
      <path stroke-dasharray="none" d="M846.2572 568.2591 L851.2572 556.2591 L846.2572 559.2591 L841.2572 556.2591 Z" stroke-dashoffset="0" clip-path="url(#clipPath2)" stroke-linecap="butt" stroke="none"/>
      <path fill="none" stroke-dasharray="none" d="M461.101 700.9044 L461.101 688.9044" stroke-dashoffset="0" clip-path="url(#clipPath2)" stroke-linecap="butt"/>
      <path stroke-dasharray="none" d="M461.101 680.9044 L456.101 692.9044 L461.101 689.9044 L466.101 692.9044 Z" stroke-dashoffset="0" clip-path="url(#clipPath2)" stroke-linecap="butt" stroke="none"/>
      <path fill="none" stroke-dasharray="none" d="M511.101 650.9044 L511.101 638.9044" stroke-dashoffset="0" clip-path="url(#clipPath2)" stroke-linecap="butt"/>
      <path stroke-dasharray="none" d="M511.101 630.9044 L506.101 642.9044 L511.101 639.9044 L516.101 642.9044 Z" stroke-dashoffset="0" clip-path="url(#clipPath2)" stroke-linecap="butt" stroke="none"/>
    </g>
    <g text-rendering="geometricPrecision" stroke-miterlimit="1.45" shape-rendering="geometricPrecision" transform="matrix(1,0,0,1,-430,-314)" stroke-linecap="butt">
      <path fill="none" d="M461.101 630.9044 L454.851 645.9044 L459.601 643.0544 L459.601 643.0544 L459.601 650.9044 L462.601 650.9044 L462.601 643.0544 L462.601 643.0544 L467.351 645.9044 L461.101 630.9044 Z" clip-path="url(#clipPath2)"/>
    </g>
    <g text-rendering="geometricPrecision" stroke-miterlimit="1.45" shape-rendering="geometricPrecision" transform="matrix(1,0,0,1,-430,-314)" stroke-linecap="butt">
      <path fill="none" d="M561.101 580.9044 L554.851 595.9044 L559.601 593.0544 L559.601 600.9044 L562.601 600.9044 L562.601 593.0544 L567.351 595.9044 L561.101 580.9044 Z" clip-path="url(#clipPath2)"/>
    </g>
    <g text-rendering="geometricPrecision" stroke-miterlimit="1.45" shape-rendering="geometricPrecision" transform="matrix(1,0,0,1,-430,-314)" stroke-linecap="butt">
      <path fill="none" d="M511.101 580.9044 L504.851 595.9044 L509.601 593.0544 L509.601 593.0544 L509.601 600.9044 L512.601 600.9044 L512.601 593.0544 L517.351 595.9044 L511.101 580.9044 Z" clip-path="url(#clipPath2)"/>
    </g>
    <g text-rendering="geometricPrecision" stroke-miterlimit="1.45" shape-rendering="geometricPrecision" transform="matrix(1,0,0,1,-430,-314)" stroke-linecap="butt">
      <path fill="none" d="M461.101 580.9044 L454.851 595.9044 L459.601 593.0544 L459.601 593.0544 L459.601 600.9044 L462.601 600.9044 L462.601 593.0544 L462.601 593.0544 L467.351 595.9044 L461.101 580.9044 Z" clip-path="url(#clipPath2)"/>
    </g>
    <g text-rendering="geometricPrecision" stroke-miterlimit="1.45" shape-rendering="geometricPrecision" transform="matrix(1,0,0,1,-430,-314)" stroke-linecap="butt">
      <path fill="none" d="M611.101 550.9044 L611.101 538.9044" clip-path="url(#clipPath2)"/>
      <path d="M611.101 530.9044 L606.101 542.9044 L611.101 539.9044 L616.101 542.9044 Z" clip-path="url(#clipPath2)" stroke="none"/>
      <path fill="none" d="M561.101 550.9044 L561.101 538.9044" clip-path="url(#clipPath2)"/>
      <path d="M561.101 530.9044 L556.101 542.9044 L561.101 539.9044 L566.101 542.9044 Z" clip-path="url(#clipPath2)" stroke="none"/>
      <path fill="none" d="M596.101 515.9044 L584.101 515.9044" clip-path="url(#clipPath2)"/>
      <path d="M576.101 515.9044 L588.101 520.9044 L585.101 515.9044 L588.101 510.9044 Z" clip-path="url(#clipPath2)" stroke="none"/>
    </g>
    <g text-rendering="geometricPrecision" stroke-miterlimit="1.45" shape-rendering="geometricPrecision" transform="matrix(1,0,0,1,-430,-314)" stroke-linecap="butt">
      <path fill="none" d="M511.101 530.9044 L504.851 545.9044 L509.601 543.0544 L509.601 543.0544 L509.601 550.9044 L512.601 550.9044 L512.601 543.0544 L517.351 545.9044 L511.101 530.9044 Z" clip-path="url(#clipPath2)"/>
    </g>
    <g text-rendering="geometricPrecision" stroke-miterlimit="1.45" shape-rendering="geometricPrecision" transform="matrix(1,0,0,1,-430,-314)" stroke-linecap="butt">
      <path fill="none" d="M546.101 515.9044 L534.101 515.9044" clip-path="url(#clipPath2)"/>
      <path d="M526.101 515.9044 L538.101 520.9044 L535.101 515.9044 L538.101 510.9044 Z" clip-path="url(#clipPath2)" stroke="none"/>
      <path fill="none" d="M461.101 550.9044 L461.101 538.9044" clip-path="url(#clipPath2)"/>
      <path d="M461.101 530.9044 L456.101 542.9044 L461.101 539.9044 L466.101 542.9044 Z" clip-path="url(#clipPath2)" stroke="none"/>
      <path fill="none" d="M496.101 515.9044 L484.101 515.9044" clip-path="url(#clipPath2)"/>
      <path d="M476.101 515.9044 L488.101 520.9044 L485.101 515.9044 L488.101 510.9044 Z" clip-path="url(#clipPath2)" stroke="none"/>
      <text x="676.4584" font-size="15px" y="816.8278" clip-path="url(#clipPath2)" font-family="sans-serif" stroke="none" xml:space="preserve">Line</text>
      <rect x="559.7182" y="800.9044" clip-path="url(#clipPath2)" fill="none" width="150" stroke-dasharray="6,2" rx="4" ry="4" height="81.4609"/>
    </g>
    <g fill="white" text-rendering="geometricPrecision" shape-rendering="geometricPrecision" transform="matrix(1,0,0,1,-430,-314)" stroke="white">
      <rect x="664.7182" width="30" height="30" y="837.3654" clip-path="url(#clipPath2)" stroke="none"/>
    </g>
    <g text-rendering="geometricPrecision" stroke-miterlimit="1.45" shape-rendering="geometricPrecision" font-family="sans-serif" transform="matrix(1,0,0,1,-430,-314)" stroke-linecap="butt">
      <text x="677.3773" xml:space="preserve" y="856.5197" clip-path="url(#clipPath2)" stroke="none">(</text>
      <rect fill="none" x="664.7182" width="30" height="30" y="837.3654" clip-path="url(#clipPath2)"/>
    </g>
    <g fill="white" text-rendering="geometricPrecision" shape-rendering="geometricPrecision" transform="matrix(1,0,0,1,-430,-314)" stroke="white">
      <rect x="634.7182" width="30" height="30" y="837.3654" clip-path="url(#clipPath2)" stroke="none"/>
    </g>
    <g text-rendering="geometricPrecision" stroke-miterlimit="1.45" shape-rendering="geometricPrecision" font-family="sans-serif" transform="matrix(1,0,0,1,-430,-314)" stroke-linecap="butt">
      <text x="642.1068" xml:space="preserve" y="856.5197" clip-path="url(#clipPath2)" stroke="none">np</text>
      <rect fill="none" x="634.7182" width="30" height="30" y="837.3654" clip-path="url(#clipPath2)"/>
    </g>
    <g fill="white" text-rendering="geometricPrecision" shape-rendering="geometricPrecision" transform="matrix(1,0,0,1,-430,-314)" stroke="white">
      <rect x="604.7182" width="30" height="30" y="837.3654" clip-path="url(#clipPath2)" stroke="none"/>
    </g>
    <g text-rendering="geometricPrecision" stroke-miterlimit="1.45" shape-rendering="geometricPrecision" font-family="sans-serif" transform="matrix(1,0,0,1,-430,-314)" stroke-linecap="butt">
      <text x="617.3773" xml:space="preserve" y="856.5197" clip-path="url(#clipPath2)" stroke="none">(</text>
      <rect fill="none" x="604.7182" width="30" height="30" y="837.3654" clip-path="url(#clipPath2)"/>
    </g>
    <g fill="white" text-rendering="geometricPrecision" shape-rendering="geometricPrecision" transform="matrix(1,0,0,1,-430,-314)" stroke="white">
      <rect x="574.7182" width="30" height="30" y="837.3654" clip-path="url(#clipPath2)" stroke="none"/>
    </g>
    <g text-rendering="geometricPrecision" stroke-miterlimit="1.45" shape-rendering="geometricPrecision" font-family="sans-serif" transform="matrix(1,0,0,1,-430,-314)" stroke-linecap="butt">
      <text x="586.5922" xml:space="preserve" y="856.5197" clip-path="url(#clipPath2)" stroke="none">s</text>
      <rect fill="none" x="574.7182" width="30" height="30" y="837.3654" clip-path="url(#clipPath2)"/>
    </g>
    <g fill="white" text-rendering="geometricPrecision" shape-rendering="geometricPrecision" transform="matrix(1,0,0,1,-430,-314)" stroke="white">
      <rect x="446.101" width="518.9583" height="30" y="1038.3263" clip-path="url(#clipPath2)" stroke="none"/>
    </g>
    <g text-rendering="geometricPrecision" stroke-miterlimit="1.45" shape-rendering="geometricPrecision" font-family="sans-serif" transform="matrix(1,0,0,1,-430,-314)" stroke-linecap="butt">
      <text x="677.1505" xml:space="preserve" y="1057.4806" clip-path="url(#clipPath2)" stroke="none">Figure 32</text>
      <rect fill="none" x="446.101" width="518.9583" height="30" y="1038.3263" clip-path="url(#clipPath2)"/>
    </g>
  </g>
</svg>
