<?xml version="1.0" encoding="UTF-8"?><svg xmlns="http://www.w3.org/2000/svg" xmlns:xlink="http://www.w3.org/1999/xlink" fill-opacity="1" color-rendering="auto" color-interpolation="auto" text-rendering="auto" stroke="black" stroke-linecap="square" width="712" stroke-miterlimit="10" shape-rendering="auto" stroke-opacity="1" fill="black" stroke-dasharray="none" font-weight="normal" stroke-width="1" height="314" font-family="'Dialog'" font-style="normal" stroke-linejoin="miter" font-size="12px" stroke-dashoffset="0" image-rendering="auto">
  <!--Generated by ySVG 2.5-->
  <defs id="genericDefs"/>
  <g>
    <defs id="defs1">
      <clipPath clipPathUnits="userSpaceOnUse" id="clipPath1">
        <path d="M0 0 L712 0 L712 314 L0 314 L0 0 Z"/>
      </clipPath>
      <clipPath clipPathUnits="userSpaceOnUse" id="clipPath2">
        <path d="M430 314 L1142 314 L1142 628 L430 628 L430 314 Z"/>
      </clipPath>
    </defs>
    <g fill="white" text-rendering="geometricPrecision" shape-rendering="geometricPrecision" transform="translate(-430,-314)" stroke="white">
      <rect x="430" width="712" height="314" y="314" clip-path="url(#clipPath2)" stroke="none"/>
    </g>
    <g font-size="15px" stroke-linecap="butt" transform="matrix(1,0,0,1,-430,-314)" text-rendering="geometricPrecision" font-family="sans-serif" shape-rendering="geometricPrecision" stroke-miterlimit="1.45">
      <text x="701.8159" xml:space="preserve" y="405.5838" clip-path="url(#clipPath2)" stroke="none">Iteration #2</text>
      <rect x="445.3212" y="389.6605" clip-path="url(#clipPath2)" fill="none" width="349" stroke-dasharray="6,2" rx="4" ry="4" height="171.4609"/>
    </g>
    <g fill="white" text-rendering="geometricPrecision" shape-rendering="geometricPrecision" transform="matrix(1,0,0,1,-430,-314)" stroke="white">
      <rect x="708.3212" width="71" height="30" y="426.1214" clip-path="url(#clipPath2)" stroke="none"/>
    </g>
    <g text-rendering="geometricPrecision" stroke-miterlimit="1.45" shape-rendering="geometricPrecision" font-family="sans-serif" transform="matrix(1,0,0,1,-430,-314)" stroke-linecap="butt">
      <text x="732.8818" xml:space="preserve" y="445.2757" clip-path="url(#clipPath2)" stroke="none">null</text>
      <rect fill="none" x="708.3212" width="71" height="30" y="426.1214" clip-path="url(#clipPath2)"/>
    </g>
    <g fill="white" text-rendering="geometricPrecision" shape-rendering="geometricPrecision" transform="matrix(1,0,0,1,-430,-314)" stroke="white">
      <rect x="637.3212" width="71" height="30" y="426.1214" clip-path="url(#clipPath2)" stroke="none"/>
    </g>
    <g text-rendering="geometricPrecision" stroke-miterlimit="1.45" shape-rendering="geometricPrecision" font-family="sans-serif" transform="matrix(1,0,0,1,-430,-314)" stroke-linecap="butt">
      <text x="661.8818" xml:space="preserve" y="445.2757" clip-path="url(#clipPath2)" stroke="none">null</text>
      <rect fill="none" x="637.3212" width="71" height="30" y="426.1214" clip-path="url(#clipPath2)"/>
    </g>
    <g transform="matrix(1,0,0,1,-430,-314)" fill-opacity="0.0588" fill="rgb(0,0,0)" text-rendering="geometricPrecision" shape-rendering="geometricPrecision" stroke="rgb(0,0,0)" stroke-opacity="0.0588">
      <rect x="566.3212" width="71" height="30" y="426.1214" clip-path="url(#clipPath2)" stroke="none"/>
    </g>
    <g stroke-linecap="butt" transform="matrix(1,0,0,1,-430,-314)" text-rendering="geometricPrecision" font-family="sans-serif" shape-rendering="geometricPrecision" font-style="italic" font-weight="bold" stroke-miterlimit="1.45">
      <text x="586.1738" xml:space="preserve" y="445.2757" clip-path="url(#clipPath2)" stroke="none">pron</text>
      <rect fill="none" x="566.3212" width="71" height="30" y="426.1214" clip-path="url(#clipPath2)"/>
    </g>
    <g fill="white" text-rendering="geometricPrecision" shape-rendering="geometricPrecision" transform="matrix(1,0,0,1,-430,-314)" stroke="white">
      <rect x="460.3212" width="71" height="30" y="426.1214" clip-path="url(#clipPath2)" stroke="none"/>
    </g>
    <g text-rendering="geometricPrecision" stroke-miterlimit="1.45" shape-rendering="geometricPrecision" font-family="sans-serif" transform="matrix(1,0,0,1,-430,-314)" stroke-linecap="butt">
      <text x="494.0517" xml:space="preserve" y="445.2757" clip-path="url(#clipPath2)" stroke="none">I</text>
      <rect fill="none" x="460.3212" width="71" height="30" y="426.1214" clip-path="url(#clipPath2)"/>
    </g>
    <g fill="white" text-rendering="geometricPrecision" shape-rendering="geometricPrecision" transform="matrix(1,0,0,1,-430,-314)" stroke="white">
      <rect x="708.3212" width="71" height="30" y="456.1214" clip-path="url(#clipPath2)" stroke="none"/>
    </g>
    <g text-rendering="geometricPrecision" stroke-miterlimit="1.45" shape-rendering="geometricPrecision" font-family="sans-serif" transform="matrix(1,0,0,1,-430,-314)" stroke-linecap="butt">
      <text x="732.8818" xml:space="preserve" y="475.2757" clip-path="url(#clipPath2)" stroke="none">null</text>
      <rect fill="none" x="708.3212" width="71" height="30" y="456.1214" clip-path="url(#clipPath2)"/>
    </g>
    <g fill="white" text-rendering="geometricPrecision" shape-rendering="geometricPrecision" transform="matrix(1,0,0,1,-430,-314)" stroke="white">
      <rect x="637.3212" width="71" height="30" y="456.1214" clip-path="url(#clipPath2)" stroke="none"/>
    </g>
    <g text-rendering="geometricPrecision" stroke-miterlimit="1.45" shape-rendering="geometricPrecision" font-family="sans-serif" transform="matrix(1,0,0,1,-430,-314)" stroke-linecap="butt">
      <text x="661.8818" xml:space="preserve" y="475.2757" clip-path="url(#clipPath2)" stroke="none">null</text>
      <rect fill="none" x="637.3212" width="71" height="30" y="456.1214" clip-path="url(#clipPath2)"/>
    </g>
    <g transform="matrix(1,0,0,1,-430,-314)" fill-opacity="0.0588" fill="rgb(0,0,0)" text-rendering="geometricPrecision" shape-rendering="geometricPrecision" stroke="rgb(0,0,0)" stroke-opacity="0.0588">
      <rect x="566.3212" width="71" height="30" y="456.1214" clip-path="url(#clipPath2)" stroke="none"/>
    </g>
    <g stroke-linecap="butt" transform="matrix(1,0,0,1,-430,-314)" text-rendering="geometricPrecision" font-family="sans-serif" shape-rendering="geometricPrecision" font-style="italic" font-weight="bold" stroke-miterlimit="1.45">
      <text x="586.5869" xml:space="preserve" y="475.2757" clip-path="url(#clipPath2)" stroke="none">verb</text>
      <rect fill="none" x="566.3212" width="71" height="30" y="456.1214" clip-path="url(#clipPath2)"/>
    </g>
    <g fill="white" text-rendering="geometricPrecision" shape-rendering="geometricPrecision" transform="matrix(1,0,0,1,-430,-314)" stroke="white">
      <rect x="460.3212" width="71" height="30" y="456.1214" clip-path="url(#clipPath2)" stroke="none"/>
    </g>
    <g text-rendering="geometricPrecision" stroke-miterlimit="1.45" shape-rendering="geometricPrecision" font-family="sans-serif" transform="matrix(1,0,0,1,-430,-314)" stroke-linecap="butt">
      <text x="485.872" xml:space="preserve" y="475.2757" clip-path="url(#clipPath2)" stroke="none">Am</text>
      <rect fill="none" x="460.3212" width="71" height="30" y="456.1214" clip-path="url(#clipPath2)"/>
    </g>
    <g fill="white" text-rendering="geometricPrecision" shape-rendering="geometricPrecision" transform="matrix(1,0,0,1,-430,-314)" stroke="white">
      <rect x="708.3212" width="71" height="30" y="486.1214" clip-path="url(#clipPath2)" stroke="none"/>
    </g>
    <g text-rendering="geometricPrecision" stroke-miterlimit="1.45" shape-rendering="geometricPrecision" font-family="sans-serif" transform="matrix(1,0,0,1,-430,-314)" stroke-linecap="butt">
      <text x="732.8818" xml:space="preserve" y="505.2757" clip-path="url(#clipPath2)" stroke="none">null</text>
      <rect fill="none" x="708.3212" width="71" height="30" y="486.1214" clip-path="url(#clipPath2)"/>
    </g>
    <g fill="white" text-rendering="geometricPrecision" shape-rendering="geometricPrecision" transform="matrix(1,0,0,1,-430,-314)" stroke="white">
      <rect x="637.3212" width="71" height="30" y="486.1214" clip-path="url(#clipPath2)" stroke="none"/>
    </g>
    <g text-rendering="geometricPrecision" stroke-miterlimit="1.45" shape-rendering="geometricPrecision" font-family="sans-serif" transform="matrix(1,0,0,1,-430,-314)" stroke-linecap="butt">
      <text x="661.8818" xml:space="preserve" y="505.2757" clip-path="url(#clipPath2)" stroke="none">null</text>
      <rect fill="none" x="637.3212" width="71" height="30" y="486.1214" clip-path="url(#clipPath2)"/>
    </g>
    <g transform="matrix(1,0,0,1,-430,-314)" fill-opacity="0.0588" fill="rgb(0,0,0)" text-rendering="geometricPrecision" shape-rendering="geometricPrecision" stroke="rgb(0,0,0)" stroke-opacity="0.0588">
      <rect x="566.3212" width="71" height="30" y="486.1214" clip-path="url(#clipPath2)" stroke="none"/>
    </g>
    <g stroke-linecap="butt" transform="matrix(1,0,0,1,-430,-314)" text-rendering="geometricPrecision" font-family="sans-serif" shape-rendering="geometricPrecision" font-style="italic" font-weight="bold" stroke-miterlimit="1.45">
      <text x="590.5888" xml:space="preserve" y="505.2757" clip-path="url(#clipPath2)" stroke="none">det</text>
      <rect fill="none" x="566.3212" width="71" height="30" y="486.1214" clip-path="url(#clipPath2)"/>
    </g>
    <g fill="white" text-rendering="geometricPrecision" shape-rendering="geometricPrecision" transform="matrix(1,0,0,1,-430,-314)" stroke="white">
      <rect x="460.3212" width="71" height="30" y="486.1214" clip-path="url(#clipPath2)" stroke="none"/>
    </g>
    <g text-rendering="geometricPrecision" stroke-miterlimit="1.45" shape-rendering="geometricPrecision" font-family="sans-serif" transform="matrix(1,0,0,1,-430,-314)" stroke-linecap="butt">
      <text x="491.7167" xml:space="preserve" y="505.2757" clip-path="url(#clipPath2)" stroke="none">A</text>
      <rect fill="none" x="460.3212" width="71" height="30" y="486.1214" clip-path="url(#clipPath2)"/>
    </g>
    <g fill="white" text-rendering="geometricPrecision" shape-rendering="geometricPrecision" transform="matrix(1,0,0,1,-430,-314)" stroke="white">
      <rect x="708.3212" width="71" height="30" y="516.1214" clip-path="url(#clipPath2)" stroke="none"/>
    </g>
    <g text-rendering="geometricPrecision" stroke-miterlimit="1.45" shape-rendering="geometricPrecision" font-family="sans-serif" transform="matrix(1,0,0,1,-430,-314)" stroke-linecap="butt">
      <text x="732.8818" xml:space="preserve" y="535.2757" clip-path="url(#clipPath2)" stroke="none">null</text>
      <rect fill="none" x="708.3212" width="71" height="30" y="516.1214" clip-path="url(#clipPath2)"/>
    </g>
    <g transform="matrix(1,0,0,1,-430,-314)" fill-opacity="0.0588" fill="rgb(0,0,0)" text-rendering="geometricPrecision" shape-rendering="geometricPrecision" stroke="rgb(0,0,0)" stroke-opacity="0.0588">
      <rect x="637.3212" width="71" height="30" y="516.1214" clip-path="url(#clipPath2)" stroke="none"/>
    </g>
    <g stroke-linecap="butt" transform="matrix(1,0,0,1,-430,-314)" text-rendering="geometricPrecision" font-family="sans-serif" shape-rendering="geometricPrecision" font-style="italic" font-weight="bold" stroke-miterlimit="1.45">
      <text x="655.8847" xml:space="preserve" y="535.2757" clip-path="url(#clipPath2)" stroke="none">noun</text>
      <rect fill="none" x="637.3212" width="71" height="30" y="516.1214" clip-path="url(#clipPath2)"/>
    </g>
    <g fill="white" text-rendering="geometricPrecision" shape-rendering="geometricPrecision" transform="matrix(1,0,0,1,-430,-314)" stroke="white">
      <rect x="566.3212" width="71" height="30" y="516.1214" clip-path="url(#clipPath2)" stroke="none"/>
    </g>
    <g text-rendering="geometricPrecision" stroke-miterlimit="1.45" shape-rendering="geometricPrecision" font-family="sans-serif" transform="matrix(1,0,0,1,-430,-314)" stroke-linecap="butt">
      <text x="588.3036" xml:space="preserve" y="535.2757" clip-path="url(#clipPath2)" stroke="none">verb</text>
      <rect fill="none" x="566.3212" width="71" height="30" y="516.1214" clip-path="url(#clipPath2)"/>
    </g>
    <g fill="white" text-rendering="geometricPrecision" shape-rendering="geometricPrecision" transform="matrix(1,0,0,1,-430,-314)" stroke="white">
      <rect x="460.3212" width="71" height="30" y="516.1214" clip-path="url(#clipPath2)" stroke="none"/>
    </g>
    <g text-rendering="geometricPrecision" stroke-miterlimit="1.45" shape-rendering="geometricPrecision" font-family="sans-serif" transform="matrix(1,0,0,1,-430,-314)" stroke-linecap="butt">
      <text x="469.9726" xml:space="preserve" y="535.2757" clip-path="url(#clipPath2)" stroke="none">Function</text>
      <rect fill="none" x="460.3212" width="71" height="30" y="516.1214" clip-path="url(#clipPath2)"/>
    </g>
    <g fill="white" text-rendering="geometricPrecision" shape-rendering="geometricPrecision" transform="matrix(1,0,0,1,-430,-314)" stroke="white">
      <rect x="1055.9063" width="71" height="30" y="456.1214" clip-path="url(#clipPath2)" stroke="none"/>
    </g>
    <g text-rendering="geometricPrecision" stroke-miterlimit="1.45" shape-rendering="geometricPrecision" font-family="sans-serif" transform="matrix(1,0,0,1,-430,-314)" stroke-linecap="butt">
      <text x="1076.3273" xml:space="preserve" y="475.2757" clip-path="url(#clipPath2)" stroke="none">noun</text>
      <rect fill="none" x="1055.9063" width="71" height="30" y="456.1214" clip-path="url(#clipPath2)"/>
    </g>
    <g fill="white" text-rendering="geometricPrecision" shape-rendering="geometricPrecision" transform="matrix(1,0,0,1,-430,-314)" stroke="white">
      <rect x="984.9063" width="71" height="30" y="456.1214" clip-path="url(#clipPath2)" stroke="none"/>
    </g>
    <g text-rendering="geometricPrecision" stroke-miterlimit="1.45" shape-rendering="geometricPrecision" font-family="sans-serif" transform="matrix(1,0,0,1,-430,-314)" stroke-linecap="butt">
      <text x="1010.5538" xml:space="preserve" y="475.2757" clip-path="url(#clipPath2)" stroke="none">det</text>
      <rect fill="none" x="984.9063" width="71" height="30" y="456.1214" clip-path="url(#clipPath2)"/>
    </g>
    <g fill="white" text-rendering="geometricPrecision" shape-rendering="geometricPrecision" transform="matrix(1,0,0,1,-430,-314)" stroke="white">
      <rect x="913.9063" width="71" height="30" y="456.1214" clip-path="url(#clipPath2)" stroke="none"/>
    </g>
    <g text-rendering="geometricPrecision" stroke-miterlimit="1.45" shape-rendering="geometricPrecision" font-family="sans-serif" transform="matrix(1,0,0,1,-430,-314)" stroke-linecap="butt">
      <text x="935.8887" xml:space="preserve" y="475.2757" clip-path="url(#clipPath2)" stroke="none">verb</text>
      <rect fill="none" x="913.9063" width="71" height="30" y="456.1214" clip-path="url(#clipPath2)"/>
    </g>
    <g fill="white" text-rendering="geometricPrecision" shape-rendering="geometricPrecision" transform="matrix(1,0,0,1,-430,-314)" stroke="white">
      <rect x="842.9063" width="71" height="30" y="456.1214" clip-path="url(#clipPath2)" stroke="none"/>
    </g>
    <g text-rendering="geometricPrecision" stroke-miterlimit="1.45" shape-rendering="geometricPrecision" font-family="sans-serif" transform="matrix(1,0,0,1,-430,-314)" stroke-linecap="butt">
      <text x="864.6573" xml:space="preserve" y="475.2757" clip-path="url(#clipPath2)" stroke="none">pron</text>
      <rect fill="none" x="842.9063" width="71" height="30" y="456.1214" clip-path="url(#clipPath2)"/>
    </g>
    <g fill="white" text-rendering="geometricPrecision" shape-rendering="geometricPrecision" transform="matrix(1,0,0,1,-430,-314)" stroke="white">
      <rect x="445.3212" width="672.6962" height="30" y="329.6605" clip-path="url(#clipPath2)" stroke="none"/>
    </g>
    <g text-rendering="geometricPrecision" stroke-miterlimit="1.45" shape-rendering="geometricPrecision" font-family="sans-serif" transform="matrix(1,0,0,1,-430,-314)" stroke-linecap="butt">
      <text x="513.4359" xml:space="preserve" y="348.8148" clip-path="url(#clipPath2)" stroke="none">Apply iterate(), and iterate over tokens to generate permutations of tokenized sentences</text>
      <rect fill="none" x="445.3212" width="672.6962" height="30" y="329.6605" clip-path="url(#clipPath2)"/>
    </g>
    <g fill="white" text-rendering="geometricPrecision" shape-rendering="geometricPrecision" transform="matrix(1,0,0,1,-430,-314)" stroke="white">
      <rect x="445.3212" width="672.6962" height="30" y="582.5823" clip-path="url(#clipPath2)" stroke="none"/>
    </g>
    <g text-rendering="geometricPrecision" stroke-miterlimit="1.45" shape-rendering="geometricPrecision" font-family="sans-serif" transform="matrix(1,0,0,1,-430,-314)" stroke-linecap="butt">
      <text x="753.2396" xml:space="preserve" y="601.7366" clip-path="url(#clipPath2)" stroke="none">Figure 41</text>
      <rect fill="none" x="445.3212" width="672.6962" height="30" y="582.5823" clip-path="url(#clipPath2)"/>
      <path fill="none" d="M794.3472 472.5093 L834.9074 471.8396" clip-path="url(#clipPath2)"/>
      <path d="M842.9063 471.7076 L830.8254 466.9063 L833.9075 471.8561 L830.9905 476.905 Z" clip-path="url(#clipPath2)" stroke="none"/>
    </g>
  </g>
</svg>
