<?xml version="1.0" encoding="UTF-8"?><svg xmlns="http://www.w3.org/2000/svg" xmlns:xlink="http://www.w3.org/1999/xlink" fill-opacity="1" color-rendering="auto" color-interpolation="auto" text-rendering="auto" stroke="black" stroke-linecap="square" width="551" stroke-miterlimit="10" shape-rendering="auto" stroke-opacity="1" fill="black" stroke-dasharray="none" font-weight="normal" stroke-width="1" height="719" font-family="'Dialog'" font-style="normal" stroke-linejoin="miter" font-size="12px" stroke-dashoffset="0" image-rendering="auto">
  <!--Generated by ySVG 2.5-->
  <defs id="genericDefs"/>
  <g>
    <defs id="defs1">
      <clipPath clipPathUnits="userSpaceOnUse" id="clipPath1">
        <path d="M0 0 L551 0 L551 719 L0 719 L0 0 Z"/>
      </clipPath>
      <clipPath clipPathUnits="userSpaceOnUse" id="clipPath2">
        <path d="M429 314 L980 314 L980 1033 L429 1033 L429 314 Z"/>
      </clipPath>
    </defs>
    <g fill="white" text-rendering="geometricPrecision" shape-rendering="geometricPrecision" transform="translate(-429,-314)" stroke="white">
      <rect x="429" width="551" height="719" y="314" clip-path="url(#clipPath2)" stroke="none"/>
    </g>
    <g font-size="15px" stroke-linecap="butt" transform="matrix(1,0,0,1,-429,-314)" text-rendering="geometricPrecision" font-family="sans-serif" shape-rendering="geometricPrecision" stroke-miterlimit="1.45">
      <text x="461.9685" xml:space="preserve" y="816.0431" clip-path="url(#clipPath2)" stroke="none">Stack</text>
      <rect x="445.4968" y="800.1198" clip-path="url(#clipPath2)" fill="none" width="60" stroke-dasharray="6,2" rx="4" ry="4" height="167.7305"/>
    </g>
    <g fill="white" text-rendering="geometricPrecision" shape-rendering="geometricPrecision" transform="matrix(1,0,0,1,-429,-314)" stroke="white">
      <rect x="460.4968" width="30" height="30" y="920.8502" clip-path="url(#clipPath2)" stroke="none"/>
    </g>
    <g text-rendering="geometricPrecision" stroke-miterlimit="1.45" shape-rendering="geometricPrecision" font-family="sans-serif" transform="matrix(1,0,0,1,-429,-314)" stroke-linecap="butt">
      <text x="473.156" xml:space="preserve" y="940.0045" clip-path="url(#clipPath2)" stroke="none">)</text>
      <rect fill="none" x="460.4968" width="30" height="30" y="920.8502" clip-path="url(#clipPath2)"/>
    </g>
    <g fill="white" text-rendering="geometricPrecision" shape-rendering="geometricPrecision" transform="matrix(1,0,0,1,-429,-314)" stroke="white">
      <rect x="460.4968" width="30" height="30" y="836.8502" clip-path="url(#clipPath2)" stroke="none"/>
    </g>
    <g text-rendering="geometricPrecision" stroke-miterlimit="1.45" shape-rendering="geometricPrecision" font-family="sans-serif" transform="matrix(1,0,0,1,-429,-314)" stroke-linecap="butt">
      <text x="467.8855" xml:space="preserve" y="856.0045" clip-path="url(#clipPath2)" stroke="none">np</text>
      <rect fill="none" x="460.4968" width="30" height="30" y="836.8502" clip-path="url(#clipPath2)"/>
    </g>
    <g fill="white" text-rendering="geometricPrecision" shape-rendering="geometricPrecision" transform="matrix(1,0,0,1,-429,-314)" stroke="white">
      <rect x="460.4968" width="30" height="30" y="878.8502" clip-path="url(#clipPath2)" stroke="none"/>
    </g>
    <g text-rendering="geometricPrecision" stroke-miterlimit="1.45" shape-rendering="geometricPrecision" font-family="sans-serif" transform="matrix(1,0,0,1,-429,-314)" stroke-linecap="butt">
      <text x="468.1374" xml:space="preserve" y="898.0045" clip-path="url(#clipPath2)" stroke="none">vp</text>
      <rect fill="none" x="460.4968" width="30" height="30" y="878.8502" clip-path="url(#clipPath2)"/>
      <text x="649.8412" xml:space="preserve" font-size="15px" y="816.3126" clip-path="url(#clipPath2)" stroke="none">Line</text>
      <rect x="593.101" y="800.3893" clip-path="url(#clipPath2)" fill="none" width="90" stroke-dasharray="6,2" rx="4" ry="4" height="81.4609"/>
    </g>
    <g fill="white" text-rendering="geometricPrecision" shape-rendering="geometricPrecision" transform="matrix(1,0,0,1,-429,-314)" stroke="white">
      <rect x="608.101" width="30" height="30" y="836.8502" clip-path="url(#clipPath2)" stroke="none"/>
    </g>
    <g text-rendering="geometricPrecision" stroke-miterlimit="1.45" shape-rendering="geometricPrecision" font-family="sans-serif" transform="matrix(1,0,0,1,-429,-314)" stroke-linecap="butt">
      <text x="619.975" xml:space="preserve" y="856.0045" clip-path="url(#clipPath2)" stroke="none">s</text>
      <rect fill="none" x="608.101" width="30" height="30" y="836.8502" clip-path="url(#clipPath2)"/>
    </g>
    <g fill="white" text-rendering="geometricPrecision" shape-rendering="geometricPrecision" transform="matrix(1,0,0,1,-429,-314)" stroke="white">
      <rect x="638.101" width="30" height="30" y="836.8502" clip-path="url(#clipPath2)" stroke="none"/>
    </g>
    <g text-rendering="geometricPrecision" stroke-miterlimit="1.45" shape-rendering="geometricPrecision" font-family="sans-serif" transform="matrix(1,0,0,1,-429,-314)" stroke-linecap="butt">
      <text x="650.7601" xml:space="preserve" y="856.0045" clip-path="url(#clipPath2)" stroke="none">(</text>
      <rect fill="none" x="638.101" width="30" height="30" y="836.8502" clip-path="url(#clipPath2)"/>
    </g>
    <g fill="white" text-rendering="geometricPrecision" shape-rendering="geometricPrecision" transform="matrix(1,0,0,1,-429,-314)" stroke="white">
      <rect x="445.4968" width="30" height="30" y="500.1198" clip-path="url(#clipPath2)" stroke="none"/>
    </g>
    <g text-rendering="geometricPrecision" stroke-miterlimit="1.45" shape-rendering="geometricPrecision" font-family="sans-serif" transform="matrix(1,0,0,1,-429,-314)" stroke-linecap="butt">
      <text x="457.3708" xml:space="preserve" y="519.274" clip-path="url(#clipPath2)" stroke="none">s</text>
    </g>
    <g stroke-linecap="round" transform="matrix(1,0,0,1,-429,-314)" stroke-dashoffset="2" text-rendering="geometricPrecision" shape-rendering="geometricPrecision" stroke-dasharray="0,4" stroke-miterlimit="1.45">
      <rect fill="none" x="445.4968" width="30" height="30" y="500.1198" clip-path="url(#clipPath2)"/>
    </g>
    <g fill="white" text-rendering="geometricPrecision" shape-rendering="geometricPrecision" transform="matrix(1,0,0,1,-429,-314)" stroke="white">
      <rect x="495.4968" width="30" height="30" y="500.1198" clip-path="url(#clipPath2)" stroke="none"/>
    </g>
    <g text-rendering="geometricPrecision" stroke-miterlimit="1.45" shape-rendering="geometricPrecision" font-family="sans-serif" transform="matrix(1,0,0,1,-429,-314)" stroke-linecap="butt">
      <text x="503.1374" xml:space="preserve" y="519.274" clip-path="url(#clipPath2)" stroke="none">vp</text>
      <rect x="495.4968" y="500.1198" clip-path="url(#clipPath2)" fill="none" width="30" stroke-dasharray="12,4" height="30" stroke-width="2"/>
    </g>
    <g fill="white" text-rendering="geometricPrecision" shape-rendering="geometricPrecision" transform="matrix(1,0,0,1,-429,-314)" stroke="white">
      <rect x="545.4968" width="30" height="30" y="500.1198" clip-path="url(#clipPath2)" stroke="none"/>
    </g>
    <g text-rendering="geometricPrecision" stroke-miterlimit="1.45" shape-rendering="geometricPrecision" font-family="sans-serif" transform="matrix(1,0,0,1,-429,-314)" stroke-linecap="butt">
      <text x="552.8855" xml:space="preserve" y="519.274" clip-path="url(#clipPath2)" stroke="none">np</text>
      <rect fill="none" x="545.4968" width="30" height="30" y="500.1198" clip-path="url(#clipPath2)"/>
    </g>
    <g fill="white" text-rendering="geometricPrecision" shape-rendering="geometricPrecision" transform="matrix(1,0,0,1,-429,-314)" stroke="white">
      <rect x="595.4968" width="30" height="30" y="500.1198" clip-path="url(#clipPath2)" stroke="none"/>
    </g>
    <g text-rendering="geometricPrecision" stroke-miterlimit="1.45" shape-rendering="geometricPrecision" font-family="sans-serif" transform="matrix(1,0,0,1,-429,-314)" stroke-linecap="butt">
      <text x="597.1785" xml:space="preserve" y="519.274" clip-path="url(#clipPath2)" stroke="none">nom</text>
      <rect fill="none" x="595.4968" width="30" height="30" y="500.1198" clip-path="url(#clipPath2)"/>
    </g>
    <g fill="white" text-rendering="geometricPrecision" shape-rendering="geometricPrecision" transform="matrix(1,0,0,1,-429,-314)" stroke="white">
      <rect x="445.4968" width="30" height="30" y="550.1198" clip-path="url(#clipPath2)" stroke="none"/>
    </g>
    <g text-rendering="geometricPrecision" stroke-miterlimit="1.45" shape-rendering="geometricPrecision" font-family="sans-serif" transform="matrix(1,0,0,1,-429,-314)" stroke-linecap="butt">
      <text x="452.8855" xml:space="preserve" y="569.274" clip-path="url(#clipPath2)" stroke="none">np</text>
      <rect x="445.4968" y="550.1198" clip-path="url(#clipPath2)" fill="none" width="30" stroke-dasharray="12,4" height="30" stroke-width="2"/>
    </g>
    <g fill="white" text-rendering="geometricPrecision" shape-rendering="geometricPrecision" transform="matrix(1,0,0,1,-429,-314)" stroke="white">
      <rect x="495.4968" width="30" height="30" y="550.1198" clip-path="url(#clipPath2)" stroke="none"/>
    </g>
    <g text-rendering="geometricPrecision" stroke-miterlimit="1.45" shape-rendering="geometricPrecision" font-family="sans-serif" transform="matrix(1,0,0,1,-429,-314)" stroke-linecap="butt">
      <text x="503.1374" xml:space="preserve" y="569.274" clip-path="url(#clipPath2)" stroke="none">vp</text>
      <rect fill="none" x="495.4968" width="30" height="30" y="550.1198" clip-path="url(#clipPath2)"/>
    </g>
    <g fill="white" text-rendering="geometricPrecision" shape-rendering="geometricPrecision" transform="matrix(1,0,0,1,-429,-314)" stroke="white">
      <rect x="545.4968" width="30" height="30" y="550.1198" clip-path="url(#clipPath2)" stroke="none"/>
    </g>
    <g text-rendering="geometricPrecision" stroke-miterlimit="1.45" shape-rendering="geometricPrecision" font-family="sans-serif" transform="matrix(1,0,0,1,-429,-314)" stroke-linecap="butt">
      <text x="550.6443" xml:space="preserve" y="569.274" clip-path="url(#clipPath2)" stroke="none">det</text>
      <rect fill="none" x="545.4968" width="30" height="30" y="550.1198" clip-path="url(#clipPath2)"/>
    </g>
    <g fill="white" text-rendering="geometricPrecision" shape-rendering="geometricPrecision" transform="matrix(1,0,0,1,-429,-314)" stroke="white">
      <rect x="595.4968" width="30" height="30" y="550.1198" clip-path="url(#clipPath2)" stroke="none"/>
    </g>
    <g text-rendering="geometricPrecision" stroke-miterlimit="1.45" shape-rendering="geometricPrecision" font-family="sans-serif" transform="matrix(1,0,0,1,-429,-314)" stroke-linecap="butt">
      <text x="595.4177" xml:space="preserve" y="569.274" clip-path="url(#clipPath2)" stroke="none">noun</text>
      <rect fill="none" x="595.4968" width="30" height="30" y="550.1198" clip-path="url(#clipPath2)"/>
    </g>
    <g fill="white" text-rendering="geometricPrecision" shape-rendering="geometricPrecision" transform="matrix(1,0,0,1,-429,-314)" stroke="white">
      <rect x="445.4968" width="30" height="30" y="600.1198" clip-path="url(#clipPath2)" stroke="none"/>
    </g>
    <g text-rendering="geometricPrecision" stroke-miterlimit="1.45" shape-rendering="geometricPrecision" font-family="sans-serif" transform="matrix(1,0,0,1,-429,-314)" stroke-linecap="butt">
      <text x="452.8855" xml:space="preserve" y="619.274" clip-path="url(#clipPath2)" stroke="none">np</text>
      <rect fill="none" x="445.4968" width="30" height="30" y="600.1198" clip-path="url(#clipPath2)"/>
    </g>
    <g fill="white" text-rendering="geometricPrecision" shape-rendering="geometricPrecision" transform="matrix(1,0,0,1,-429,-314)" stroke="white">
      <rect x="495.4968" width="30" height="30" y="600.1198" clip-path="url(#clipPath2)" stroke="none"/>
    </g>
    <g text-rendering="geometricPrecision" stroke-miterlimit="1.45" shape-rendering="geometricPrecision" font-family="sans-serif" transform="matrix(1,0,0,1,-429,-314)" stroke-linecap="butt">
      <text x="503.1374" xml:space="preserve" y="619.274" clip-path="url(#clipPath2)" stroke="none">vp</text>
      <rect fill="none" x="495.4968" width="30" height="30" y="600.1198" clip-path="url(#clipPath2)"/>
    </g>
    <g fill="white" text-rendering="geometricPrecision" shape-rendering="geometricPrecision" transform="matrix(1,0,0,1,-429,-314)" stroke="white">
      <rect x="545.4968" width="30" height="30" y="600.1198" clip-path="url(#clipPath2)" stroke="none"/>
    </g>
    <g text-rendering="geometricPrecision" stroke-miterlimit="1.45" shape-rendering="geometricPrecision" font-family="sans-serif" transform="matrix(1,0,0,1,-429,-314)" stroke-linecap="butt">
      <text x="550.6443" xml:space="preserve" y="619.274" clip-path="url(#clipPath2)" stroke="none">det</text>
      <rect fill="none" x="545.4968" width="30" height="30" y="600.1198" clip-path="url(#clipPath2)"/>
    </g>
    <g fill="white" text-rendering="geometricPrecision" shape-rendering="geometricPrecision" transform="matrix(1,0,0,1,-429,-314)" stroke="white">
      <rect x="595.4968" width="30" height="30" y="600.1198" clip-path="url(#clipPath2)" stroke="none"/>
    </g>
    <g text-rendering="geometricPrecision" stroke-miterlimit="1.45" shape-rendering="geometricPrecision" transform="matrix(1,0,0,1,-429,-314)" stroke-linecap="butt">
      <rect fill="none" x="595.4968" width="30" height="30" y="600.1198" clip-path="url(#clipPath2)"/>
    </g>
    <g fill="white" text-rendering="geometricPrecision" shape-rendering="geometricPrecision" transform="matrix(1,0,0,1,-429,-314)" stroke="white">
      <rect x="445.4968" width="30" height="30" y="650.1198" clip-path="url(#clipPath2)" stroke="none"/>
    </g>
    <g text-rendering="geometricPrecision" stroke-miterlimit="1.45" shape-rendering="geometricPrecision" font-family="sans-serif" transform="matrix(1,0,0,1,-429,-314)" stroke-linecap="butt">
      <text x="452.8855" xml:space="preserve" y="669.274" clip-path="url(#clipPath2)" stroke="none">np</text>
      <rect fill="none" x="445.4968" width="30" height="30" y="650.1198" clip-path="url(#clipPath2)"/>
    </g>
    <g fill="white" text-rendering="geometricPrecision" shape-rendering="geometricPrecision" transform="matrix(1,0,0,1,-429,-314)" stroke="white">
      <rect x="495.4968" width="30" height="30" y="650.1198" clip-path="url(#clipPath2)" stroke="none"/>
    </g>
    <g text-rendering="geometricPrecision" stroke-miterlimit="1.45" shape-rendering="geometricPrecision" font-family="sans-serif" transform="matrix(1,0,0,1,-429,-314)" stroke-linecap="butt">
      <text x="496.9792" xml:space="preserve" y="669.274" clip-path="url(#clipPath2)" stroke="none">verb</text>
      <rect fill="none" x="495.4968" width="30" height="30" y="650.1198" clip-path="url(#clipPath2)"/>
    </g>
    <g fill="white" text-rendering="geometricPrecision" shape-rendering="geometricPrecision" transform="matrix(1,0,0,1,-429,-314)" stroke="white">
      <rect x="545.4968" width="30" height="30" y="650.1198" clip-path="url(#clipPath2)" stroke="none"/>
    </g>
    <g text-rendering="geometricPrecision" stroke-miterlimit="1.45" shape-rendering="geometricPrecision" transform="matrix(1,0,0,1,-429,-314)" stroke-linecap="butt">
      <rect fill="none" x="545.4968" width="30" height="30" y="650.1198" clip-path="url(#clipPath2)"/>
    </g>
    <g fill="white" text-rendering="geometricPrecision" shape-rendering="geometricPrecision" transform="matrix(1,0,0,1,-429,-314)" stroke="white">
      <rect x="595.4968" width="30" height="30" y="650.1198" clip-path="url(#clipPath2)" stroke="none"/>
    </g>
    <g text-rendering="geometricPrecision" stroke-miterlimit="1.45" shape-rendering="geometricPrecision" transform="matrix(1,0,0,1,-429,-314)" stroke-linecap="butt">
      <rect fill="none" x="595.4968" width="30" height="30" y="650.1198" clip-path="url(#clipPath2)"/>
    </g>
    <g fill="white" text-rendering="geometricPrecision" shape-rendering="geometricPrecision" transform="matrix(1,0,0,1,-429,-314)" stroke="white">
      <rect x="445.4968" width="30" height="30" y="700.1198" clip-path="url(#clipPath2)" stroke="none"/>
    </g>
    <g text-rendering="geometricPrecision" stroke-miterlimit="1.45" shape-rendering="geometricPrecision" font-family="sans-serif" transform="matrix(1,0,0,1,-429,-314)" stroke-linecap="butt">
      <text x="446.7478" xml:space="preserve" y="719.274" clip-path="url(#clipPath2)" stroke="none">pron</text>
      <rect fill="none" x="445.4968" width="30" height="30" y="700.1198" clip-path="url(#clipPath2)"/>
    </g>
    <g fill="white" text-rendering="geometricPrecision" shape-rendering="geometricPrecision" transform="matrix(1,0,0,1,-429,-314)" stroke="white">
      <rect x="495.4968" width="30" height="30" y="700.1198" clip-path="url(#clipPath2)" stroke="none"/>
    </g>
    <g text-rendering="geometricPrecision" stroke-miterlimit="1.45" shape-rendering="geometricPrecision" transform="matrix(1,0,0,1,-429,-314)" stroke-linecap="butt">
      <rect fill="none" x="495.4968" width="30" height="30" y="700.1198" clip-path="url(#clipPath2)"/>
    </g>
    <g fill="white" text-rendering="geometricPrecision" shape-rendering="geometricPrecision" transform="matrix(1,0,0,1,-429,-314)" stroke="white">
      <rect x="545.4968" width="30" height="30" y="700.1198" clip-path="url(#clipPath2)" stroke="none"/>
    </g>
    <g text-rendering="geometricPrecision" stroke-miterlimit="1.45" shape-rendering="geometricPrecision" transform="matrix(1,0,0,1,-429,-314)" stroke-linecap="butt">
      <rect fill="none" x="545.4968" width="30" height="30" y="700.1198" clip-path="url(#clipPath2)"/>
    </g>
    <g fill="white" text-rendering="geometricPrecision" shape-rendering="geometricPrecision" transform="matrix(1,0,0,1,-429,-314)" stroke="white">
      <rect x="595.4968" width="30" height="30" y="700.1198" clip-path="url(#clipPath2)" stroke="none"/>
    </g>
    <g text-rendering="geometricPrecision" stroke-miterlimit="1.45" shape-rendering="geometricPrecision" transform="matrix(1,0,0,1,-429,-314)" stroke-linecap="butt">
      <rect fill="none" x="595.4968" width="30" height="30" y="700.1198" clip-path="url(#clipPath2)"/>
    </g>
    <g fill="white" text-rendering="geometricPrecision" shape-rendering="geometricPrecision" transform="matrix(1,0,0,1,-429,-314)" stroke="white">
      <rect x="445.4968" width="180" height="30" y="448.1198" clip-path="url(#clipPath2)" stroke="none"/>
    </g>
    <g text-rendering="geometricPrecision" stroke-miterlimit="1.45" shape-rendering="geometricPrecision" font-family="sans-serif" transform="matrix(1,0,0,1,-429,-314)" stroke-linecap="butt">
      <text x="502.9099" xml:space="preserve" y="467.274" clip-path="url(#clipPath2)" stroke="none">CKY Matrix</text>
      <rect fill="none" x="445.4968" width="180" height="30" y="448.1198" clip-path="url(#clipPath2)"/>
    </g>
    <g fill="white" text-rendering="geometricPrecision" shape-rendering="geometricPrecision" transform="matrix(1,0,0,1,-429,-314)" stroke="white">
      <rect x="830.653" width="30" height="30" y="510.6569" clip-path="url(#clipPath2)" stroke="none"/>
    </g>
    <g text-rendering="geometricPrecision" stroke-miterlimit="1.45" shape-rendering="geometricPrecision" font-family="sans-serif" transform="matrix(1,0,0,1,-429,-314)" stroke-linecap="butt">
      <text x="842.5271" xml:space="preserve" y="529.8112" clip-path="url(#clipPath2)" stroke="none">s</text>
      <rect fill="none" x="830.653" width="30" height="30" y="510.6569" clip-path="url(#clipPath2)"/>
    </g>
    <g fill="white" text-rendering="geometricPrecision" shape-rendering="geometricPrecision" transform="matrix(1,0,0,1,-429,-314)" stroke="white">
      <rect x="726.851" width="237.6042" height="30" y="448.1198" clip-path="url(#clipPath2)" stroke="none"/>
    </g>
    <g text-rendering="geometricPrecision" stroke-miterlimit="1.45" shape-rendering="geometricPrecision" font-family="sans-serif" transform="matrix(1,0,0,1,-429,-314)" stroke-linecap="butt">
      <text x="832.1384" xml:space="preserve" y="467.274" clip-path="url(#clipPath2)" stroke="none">Tree</text>
      <rect fill="none" x="726.851" width="237.6042" height="30" y="448.1198" clip-path="url(#clipPath2)"/>
    </g>
    <g fill="white" text-rendering="geometricPrecision" shape-rendering="geometricPrecision" transform="matrix(1,0,0,1,-429,-314)" stroke="white">
      <rect x="445.4968" width="237.6042" height="30" y="750.1198" clip-path="url(#clipPath2)" stroke="none"/>
    </g>
    <g text-rendering="geometricPrecision" stroke-miterlimit="1.45" shape-rendering="geometricPrecision" font-family="sans-serif" transform="matrix(1,0,0,1,-429,-314)" stroke-linecap="butt">
      <text x="505.6641" xml:space="preserve" y="769.274" clip-path="url(#clipPath2)" stroke="none">Stack &amp; Line Status</text>
      <rect fill="none" x="445.4968" width="237.6042" height="30" y="750.1198" clip-path="url(#clipPath2)"/>
    </g>
    <g fill="white" text-rendering="geometricPrecision" shape-rendering="geometricPrecision" transform="matrix(1,0,0,1,-429,-314)" stroke="white">
      <rect x="445.4968" width="518.9583" height="44.6667" y="329.0617" clip-path="url(#clipPath2)" stroke="none"/>
    </g>
    <g font-size="11px" stroke-linecap="butt" transform="matrix(1,0,0,1,-429,-314)" text-rendering="geometricPrecision" font-family="sans-serif" shape-rendering="geometricPrecision" stroke-miterlimit="1.45">
      <text x="622.4303" xml:space="preserve" y="342.3984" clip-path="url(#clipPath2)" stroke="none">Tree_DFS of "I am a Function"</text>
      <text x="655.5323" xml:space="preserve" y="355.2031" clip-path="url(#clipPath2)" stroke="none">First Permutation:</text>
      <text x="650.1774" xml:space="preserve" y="368.0078" clip-path="url(#clipPath2)" stroke="none">Pron Verb Det Noun</text>
      <rect fill="none" x="445.4968" width="518.9583" height="44.6667" y="329.0617" clip-path="url(#clipPath2)"/>
    </g>
    <g fill="white" text-rendering="geometricPrecision" shape-rendering="geometricPrecision" transform="matrix(1,0,0,1,-429,-314)" stroke="white">
      <rect x="445.4968" width="518.9583" height="30" y="395.924" clip-path="url(#clipPath2)" stroke="none"/>
    </g>
    <g text-rendering="geometricPrecision" stroke-miterlimit="1.45" shape-rendering="geometricPrecision" font-family="sans-serif" transform="matrix(1,0,0,1,-429,-314)" stroke-linecap="butt">
      <text x="685.5902" xml:space="preserve" y="415.0783" clip-path="url(#clipPath2)" stroke="none">Step 1</text>
      <rect fill="none" x="445.4968" width="518.9583" height="30" y="395.924" clip-path="url(#clipPath2)"/>
    </g>
    <g fill="white" text-rendering="geometricPrecision" shape-rendering="geometricPrecision" transform="matrix(1,0,0,1,-429,-314)" stroke="white">
      <rect x="445.4968" width="518.9583" height="30" y="987.8502" clip-path="url(#clipPath2)" stroke="none"/>
    </g>
    <g text-rendering="geometricPrecision" stroke-miterlimit="1.45" shape-rendering="geometricPrecision" font-family="sans-serif" transform="matrix(1,0,0,1,-429,-314)" stroke-linecap="butt">
      <text x="676.5463" xml:space="preserve" y="1007.0045" clip-path="url(#clipPath2)" stroke="none">Figure 31</text>
      <rect fill="none" x="445.4968" width="518.9583" height="30" y="987.8502" clip-path="url(#clipPath2)"/>
      <path fill="none" d="M495.4968 515.1198 L483.4968 515.1198" clip-path="url(#clipPath2)"/>
      <path d="M475.4968 515.1198 L487.4968 520.1198 L484.4968 515.1198 L487.4968 510.1198 Z" clip-path="url(#clipPath2)" stroke="none"/>
      <path fill="none" d="M545.4968 515.1198 L533.4968 515.1198" clip-path="url(#clipPath2)"/>
      <path d="M525.4968 515.1198 L537.4968 520.1198 L534.4968 515.1198 L537.4968 510.1198 Z" clip-path="url(#clipPath2)" stroke="none"/>
      <path fill="none" d="M595.4968 515.1198 L583.4968 515.1198" clip-path="url(#clipPath2)"/>
      <path d="M575.4968 515.1198 L587.4968 520.1198 L584.4968 515.1198 L587.4968 510.1198 Z" clip-path="url(#clipPath2)" stroke="none"/>
      <path fill="none" d="M460.4968 550.1198 L460.4968 538.1198" clip-path="url(#clipPath2)"/>
      <path d="M460.4968 530.1198 L455.4968 542.1198 L460.4968 539.1198 L465.4968 542.1198 Z" clip-path="url(#clipPath2)" stroke="none"/>
    </g>
    <g text-rendering="geometricPrecision" stroke-miterlimit="1.45" shape-rendering="geometricPrecision" transform="matrix(1,0,0,1,-429,-314)" stroke-linecap="butt">
      <path fill="none" d="M510.4968 530.1198 L504.2468 545.1198 L508.9968 542.2698 L508.9968 542.2698 L508.9968 550.1198 L511.9968 550.1198 L511.9968 542.2698 L511.9968 542.2698 L516.7468 545.1198 L510.4968 530.1198 Z" clip-path="url(#clipPath2)"/>
    </g>
    <g text-rendering="geometricPrecision" stroke-miterlimit="1.45" shape-rendering="geometricPrecision" transform="matrix(1,0,0,1,-429,-314)" stroke-linecap="butt">
      <path fill="none" d="M560.4968 550.1198 L560.4968 538.1198" clip-path="url(#clipPath2)"/>
      <path d="M560.4968 530.1198 L555.4968 542.1198 L560.4968 539.1198 L565.4968 542.1198 Z" clip-path="url(#clipPath2)" stroke="none"/>
      <path fill="none" d="M610.4968 550.1198 L610.4968 538.1198" clip-path="url(#clipPath2)"/>
      <path d="M610.4968 530.1198 L605.4968 542.1198 L610.4968 539.1198 L615.4968 542.1198 Z" clip-path="url(#clipPath2)" stroke="none"/>
    </g>
    <g text-rendering="geometricPrecision" stroke-miterlimit="1.45" shape-rendering="geometricPrecision" transform="matrix(1,0,0,1,-429,-314)" stroke-linecap="butt">
      <path fill="none" d="M460.4968 580.1198 L454.2468 595.1198 L458.9968 592.2698 L458.9968 592.2698 L458.9968 600.1198 L461.9968 600.1198 L461.9968 592.2698 L461.9968 592.2698 L466.7468 595.1198 L460.4968 580.1198 Z" clip-path="url(#clipPath2)"/>
    </g>
    <g text-rendering="geometricPrecision" stroke-miterlimit="1.45" shape-rendering="geometricPrecision" transform="matrix(1,0,0,1,-429,-314)" stroke-linecap="butt">
      <path fill="none" d="M510.4968 580.1198 L504.2468 595.1198 L508.9968 592.2698 L508.9968 592.2698 L508.9968 600.1198 L511.9968 600.1198 L511.9968 592.2698 L511.9968 592.2698 L516.7468 595.1198 L510.4968 580.1198 Z" clip-path="url(#clipPath2)"/>
    </g>
    <g text-rendering="geometricPrecision" stroke-miterlimit="1.45" shape-rendering="geometricPrecision" transform="matrix(1,0,0,1,-429,-314)" stroke-linecap="butt">
      <path fill="none" d="M560.4968 580.1198 L554.2468 595.1198 L558.9968 592.2698 L558.9968 600.1198 L561.9968 600.1198 L561.9968 592.2698 L566.7468 595.1198 L560.4968 580.1198 Z" clip-path="url(#clipPath2)"/>
    </g>
    <g text-rendering="geometricPrecision" stroke-miterlimit="1.45" shape-rendering="geometricPrecision" transform="matrix(1,0,0,1,-429,-314)" stroke-linecap="butt">
      <path fill="none" d="M460.4968 630.1198 L454.2468 645.1198 L458.9968 642.2698 L458.9968 642.2698 L458.9968 650.1198 L461.9968 650.1198 L461.9968 642.2698 L461.9968 642.2698 L466.7468 645.1198 L460.4968 630.1198 Z" clip-path="url(#clipPath2)"/>
    </g>
    <g text-rendering="geometricPrecision" stroke-miterlimit="1.45" shape-rendering="geometricPrecision" transform="matrix(1,0,0,1,-429,-314)" stroke-linecap="butt">
      <path fill="none" d="M510.4968 650.1198 L510.4968 638.1198" clip-path="url(#clipPath2)"/>
      <path d="M510.4968 630.1198 L505.4968 642.1198 L510.4968 639.1198 L515.4968 642.1198 Z" clip-path="url(#clipPath2)" stroke="none"/>
      <path fill="none" d="M460.4968 700.1198 L460.4968 688.1198" clip-path="url(#clipPath2)"/>
      <path d="M460.4968 680.1198 L455.4968 692.1198 L460.4968 689.1198 L465.4968 692.1198 Z" clip-path="url(#clipPath2)" stroke="none"/>
    </g>
  </g>
</svg>
