<?xml version="1.0" encoding="UTF-8"?><svg xmlns="http://www.w3.org/2000/svg" xmlns:xlink="http://www.w3.org/1999/xlink" fill-opacity="1" color-rendering="auto" color-interpolation="auto" text-rendering="auto" stroke="black" stroke-linecap="square" width="551" stroke-miterlimit="10" shape-rendering="auto" stroke-opacity="1" fill="black" stroke-dasharray="none" font-weight="normal" stroke-width="1" height="534" font-family="'Dialog'" font-style="normal" stroke-linejoin="miter" font-size="12px" stroke-dashoffset="0" image-rendering="auto">
  <!--Generated by ySVG 2.5-->
  <defs id="genericDefs"/>
  <g>
    <defs id="defs1">
      <clipPath clipPathUnits="userSpaceOnUse" id="clipPath1">
        <path d="M0 0 L551 0 L551 534 L0 534 L0 0 Z"/>
      </clipPath>
      <clipPath clipPathUnits="userSpaceOnUse" id="clipPath2">
        <path d="M429 314 L980 314 L980 848 L429 848 L429 314 Z"/>
      </clipPath>
    </defs>
    <g fill="white" text-rendering="geometricPrecision" shape-rendering="geometricPrecision" transform="translate(-429,-314)" stroke="white">
      <rect x="429" width="551" height="534" y="314" clip-path="url(#clipPath2)" stroke="none"/>
    </g>
    <g font-size="15px" stroke-linecap="butt" transform="matrix(1,0,0,1,-429,-314)" text-rendering="geometricPrecision" font-family="sans-serif" shape-rendering="geometricPrecision" stroke-miterlimit="1.45">
      <text x="743.1754" xml:space="preserve" y="512.3072" clip-path="url(#clipPath2)" stroke="none">Stack</text>
      <rect x="726.7037" y="496.3838" clip-path="url(#clipPath2)" fill="none" width="60" stroke-dasharray="6,2" rx="4" ry="4" height="167.7305"/>
    </g>
    <g fill="white" text-rendering="geometricPrecision" shape-rendering="geometricPrecision" transform="matrix(1,0,0,1,-429,-314)" stroke="white">
      <rect x="741.7037" width="30" height="30" y="617.1143" clip-path="url(#clipPath2)" stroke="none"/>
    </g>
    <g text-rendering="geometricPrecision" stroke-miterlimit="1.45" shape-rendering="geometricPrecision" font-family="sans-serif" transform="matrix(1,0,0,1,-429,-314)" stroke-linecap="butt">
      <text x="754.3629" xml:space="preserve" y="636.2686" clip-path="url(#clipPath2)" stroke="none">)</text>
      <rect fill="none" x="741.7037" width="30" height="30" y="617.1143" clip-path="url(#clipPath2)"/>
    </g>
    <g fill="white" text-rendering="geometricPrecision" shape-rendering="geometricPrecision" transform="matrix(1,0,0,1,-429,-314)" stroke="white">
      <rect x="741.7037" width="30" height="30" y="533.1143" clip-path="url(#clipPath2)" stroke="none"/>
    </g>
    <g text-rendering="geometricPrecision" stroke-miterlimit="1.45" shape-rendering="geometricPrecision" font-family="sans-serif" transform="matrix(1,0,0,1,-429,-314)" stroke-linecap="butt">
      <text x="749.0923" xml:space="preserve" y="552.2686" clip-path="url(#clipPath2)" stroke="none">np</text>
      <rect fill="none" x="741.7037" width="30" height="30" y="533.1143" clip-path="url(#clipPath2)"/>
    </g>
    <g fill="white" text-rendering="geometricPrecision" shape-rendering="geometricPrecision" transform="matrix(1,0,0,1,-429,-314)" stroke="white">
      <rect x="741.7037" width="30" height="30" y="575.1143" clip-path="url(#clipPath2)" stroke="none"/>
    </g>
    <g text-rendering="geometricPrecision" stroke-miterlimit="1.45" shape-rendering="geometricPrecision" font-family="sans-serif" transform="matrix(1,0,0,1,-429,-314)" stroke-linecap="butt">
      <text x="749.3443" xml:space="preserve" y="594.2686" clip-path="url(#clipPath2)" stroke="none">vp</text>
      <rect fill="none" x="741.7037" width="30" height="30" y="575.1143" clip-path="url(#clipPath2)"/>
      <text x="931.0481" xml:space="preserve" font-size="15px" y="512.5767" clip-path="url(#clipPath2)" stroke="none">Line</text>
      <rect x="874.3079" y="496.6534" clip-path="url(#clipPath2)" fill="none" width="90" stroke-dasharray="6,2" rx="4" ry="4" height="81.4609"/>
    </g>
    <g fill="white" text-rendering="geometricPrecision" shape-rendering="geometricPrecision" transform="matrix(1,0,0,1,-429,-314)" stroke="white">
      <rect x="889.3079" width="30" height="30" y="533.1143" clip-path="url(#clipPath2)" stroke="none"/>
    </g>
    <g text-rendering="geometricPrecision" stroke-miterlimit="1.45" shape-rendering="geometricPrecision" font-family="sans-serif" transform="matrix(1,0,0,1,-429,-314)" stroke-linecap="butt">
      <text x="901.1819" xml:space="preserve" y="552.2686" clip-path="url(#clipPath2)" stroke="none">s</text>
      <rect fill="none" x="889.3079" width="30" height="30" y="533.1143" clip-path="url(#clipPath2)"/>
    </g>
    <g fill="white" text-rendering="geometricPrecision" shape-rendering="geometricPrecision" transform="matrix(1,0,0,1,-429,-314)" stroke="white">
      <rect x="919.3079" width="30" height="30" y="533.1143" clip-path="url(#clipPath2)" stroke="none"/>
    </g>
    <g text-rendering="geometricPrecision" stroke-miterlimit="1.45" shape-rendering="geometricPrecision" font-family="sans-serif" transform="matrix(1,0,0,1,-429,-314)" stroke-linecap="butt">
      <text x="931.967" xml:space="preserve" y="552.2686" clip-path="url(#clipPath2)" stroke="none">(</text>
      <rect fill="none" x="919.3079" width="30" height="30" y="533.1143" clip-path="url(#clipPath2)"/>
    </g>
    <g fill="white" text-rendering="geometricPrecision" shape-rendering="geometricPrecision" transform="matrix(1,0,0,1,-429,-314)" stroke="white">
      <rect x="445.3495" width="30" height="30" y="500.9567" clip-path="url(#clipPath2)" stroke="none"/>
    </g>
    <g text-rendering="geometricPrecision" stroke-miterlimit="1.45" shape-rendering="geometricPrecision" font-family="sans-serif" transform="matrix(1,0,0,1,-429,-314)" stroke-linecap="butt">
      <text x="457.2236" xml:space="preserve" y="520.111" clip-path="url(#clipPath2)" stroke="none">s</text>
    </g>
    <g stroke-linecap="round" transform="matrix(1,0,0,1,-429,-314)" stroke-dashoffset="2" text-rendering="geometricPrecision" shape-rendering="geometricPrecision" stroke-dasharray="0,4" stroke-miterlimit="1.45">
      <rect fill="none" x="445.3495" width="30" height="30" y="500.9567" clip-path="url(#clipPath2)"/>
    </g>
    <g fill="white" text-rendering="geometricPrecision" shape-rendering="geometricPrecision" transform="matrix(1,0,0,1,-429,-314)" stroke="white">
      <rect x="495.3495" width="30" height="30" y="500.9567" clip-path="url(#clipPath2)" stroke="none"/>
    </g>
    <g text-rendering="geometricPrecision" stroke-miterlimit="1.45" shape-rendering="geometricPrecision" font-family="sans-serif" transform="matrix(1,0,0,1,-429,-314)" stroke-linecap="butt">
      <text x="502.9902" xml:space="preserve" y="520.111" clip-path="url(#clipPath2)" stroke="none">vp</text>
      <rect x="495.3495" y="500.9567" clip-path="url(#clipPath2)" fill="none" width="30" stroke-dasharray="12,4" height="30" stroke-width="2"/>
    </g>
    <g fill="white" text-rendering="geometricPrecision" shape-rendering="geometricPrecision" transform="matrix(1,0,0,1,-429,-314)" stroke="white">
      <rect x="545.3495" width="30" height="30" y="500.9567" clip-path="url(#clipPath2)" stroke="none"/>
    </g>
    <g text-rendering="geometricPrecision" stroke-miterlimit="1.45" shape-rendering="geometricPrecision" font-family="sans-serif" transform="matrix(1,0,0,1,-429,-314)" stroke-linecap="butt">
      <text x="550.497" xml:space="preserve" y="520.111" clip-path="url(#clipPath2)" stroke="none">det</text>
      <rect fill="none" x="545.3495" width="30" height="30" y="500.9567" clip-path="url(#clipPath2)"/>
    </g>
    <g fill="white" text-rendering="geometricPrecision" shape-rendering="geometricPrecision" transform="matrix(1,0,0,1,-429,-314)" stroke="white">
      <rect x="595.3495" width="30" height="30" y="500.9567" clip-path="url(#clipPath2)" stroke="none"/>
    </g>
    <g text-rendering="geometricPrecision" stroke-miterlimit="1.45" shape-rendering="geometricPrecision" font-family="sans-serif" transform="matrix(1,0,0,1,-429,-314)" stroke-linecap="butt">
      <text x="602.9902" xml:space="preserve" y="520.111" clip-path="url(#clipPath2)" stroke="none">vp</text>
      <rect fill="none" x="595.3495" width="30" height="30" y="500.9567" clip-path="url(#clipPath2)"/>
    </g>
    <g fill="white" text-rendering="geometricPrecision" shape-rendering="geometricPrecision" transform="matrix(1,0,0,1,-429,-314)" stroke="white">
      <rect x="445.3495" width="30" height="30" y="550.9567" clip-path="url(#clipPath2)" stroke="none"/>
    </g>
    <g text-rendering="geometricPrecision" stroke-miterlimit="1.45" shape-rendering="geometricPrecision" font-family="sans-serif" transform="matrix(1,0,0,1,-429,-314)" stroke-linecap="butt">
      <text x="452.7382" xml:space="preserve" y="570.111" clip-path="url(#clipPath2)" stroke="none">np</text>
      <rect x="445.3495" y="550.9567" clip-path="url(#clipPath2)" fill="none" width="30" stroke-dasharray="12,4" height="30" stroke-width="2"/>
    </g>
    <g fill="white" text-rendering="geometricPrecision" shape-rendering="geometricPrecision" transform="matrix(1,0,0,1,-429,-314)" stroke="white">
      <rect x="495.3495" width="30" height="30" y="550.9567" clip-path="url(#clipPath2)" stroke="none"/>
    </g>
    <g text-rendering="geometricPrecision" stroke-miterlimit="1.45" shape-rendering="geometricPrecision" font-family="sans-serif" transform="matrix(1,0,0,1,-429,-314)" stroke-linecap="butt">
      <text x="502.9902" xml:space="preserve" y="570.111" clip-path="url(#clipPath2)" stroke="none">vp</text>
      <rect fill="none" x="495.3495" width="30" height="30" y="550.9567" clip-path="url(#clipPath2)"/>
    </g>
    <g fill="white" text-rendering="geometricPrecision" shape-rendering="geometricPrecision" transform="matrix(1,0,0,1,-429,-314)" stroke="white">
      <rect x="545.3495" width="30" height="30" y="550.9567" clip-path="url(#clipPath2)" stroke="none"/>
    </g>
    <g text-rendering="geometricPrecision" stroke-miterlimit="1.45" shape-rendering="geometricPrecision" font-family="sans-serif" transform="matrix(1,0,0,1,-429,-314)" stroke-linecap="butt">
      <text x="550.497" xml:space="preserve" y="570.111" clip-path="url(#clipPath2)" stroke="none">det</text>
      <rect fill="none" x="545.3495" width="30" height="30" y="550.9567" clip-path="url(#clipPath2)"/>
    </g>
    <g fill="white" text-rendering="geometricPrecision" shape-rendering="geometricPrecision" transform="matrix(1,0,0,1,-429,-314)" stroke="white">
      <rect x="595.3495" width="30" height="30" y="550.9567" clip-path="url(#clipPath2)" stroke="none"/>
    </g>
    <g text-rendering="geometricPrecision" stroke-miterlimit="1.45" shape-rendering="geometricPrecision" font-family="sans-serif" transform="matrix(1,0,0,1,-429,-314)" stroke-linecap="butt">
      <text x="596.832" xml:space="preserve" y="570.111" clip-path="url(#clipPath2)" stroke="none">verb</text>
      <rect fill="none" x="595.3495" width="30" height="30" y="550.9567" clip-path="url(#clipPath2)"/>
    </g>
    <g fill="white" text-rendering="geometricPrecision" shape-rendering="geometricPrecision" transform="matrix(1,0,0,1,-429,-314)" stroke="white">
      <rect x="445.3495" width="30" height="30" y="600.9567" clip-path="url(#clipPath2)" stroke="none"/>
    </g>
    <g text-rendering="geometricPrecision" stroke-miterlimit="1.45" shape-rendering="geometricPrecision" font-family="sans-serif" transform="matrix(1,0,0,1,-429,-314)" stroke-linecap="butt">
      <text x="452.7382" xml:space="preserve" y="620.111" clip-path="url(#clipPath2)" stroke="none">np</text>
      <rect fill="none" x="445.3495" width="30" height="30" y="600.9567" clip-path="url(#clipPath2)"/>
    </g>
    <g fill="white" text-rendering="geometricPrecision" shape-rendering="geometricPrecision" transform="matrix(1,0,0,1,-429,-314)" stroke="white">
      <rect x="495.3495" width="30" height="30" y="600.9567" clip-path="url(#clipPath2)" stroke="none"/>
    </g>
    <g text-rendering="geometricPrecision" stroke-miterlimit="1.45" shape-rendering="geometricPrecision" font-family="sans-serif" transform="matrix(1,0,0,1,-429,-314)" stroke-linecap="butt">
      <text x="502.9902" xml:space="preserve" y="620.111" clip-path="url(#clipPath2)" stroke="none">vp</text>
      <rect fill="none" x="495.3495" width="30" height="30" y="600.9567" clip-path="url(#clipPath2)"/>
    </g>
    <g fill="white" text-rendering="geometricPrecision" shape-rendering="geometricPrecision" transform="matrix(1,0,0,1,-429,-314)" stroke="white">
      <rect x="545.3495" width="30" height="30" y="600.9567" clip-path="url(#clipPath2)" stroke="none"/>
    </g>
    <g text-rendering="geometricPrecision" stroke-miterlimit="1.45" shape-rendering="geometricPrecision" font-family="sans-serif" transform="matrix(1,0,0,1,-429,-314)" stroke-linecap="butt">
      <text x="550.497" xml:space="preserve" y="620.111" clip-path="url(#clipPath2)" stroke="none">det</text>
      <rect fill="none" x="545.3495" width="30" height="30" y="600.9567" clip-path="url(#clipPath2)"/>
    </g>
    <g fill="white" text-rendering="geometricPrecision" shape-rendering="geometricPrecision" transform="matrix(1,0,0,1,-429,-314)" stroke="white">
      <rect x="595.3495" width="30" height="30" y="600.9567" clip-path="url(#clipPath2)" stroke="none"/>
    </g>
    <g text-rendering="geometricPrecision" stroke-miterlimit="1.45" shape-rendering="geometricPrecision" transform="matrix(1,0,0,1,-429,-314)" stroke-linecap="butt">
      <rect fill="none" x="595.3495" width="30" height="30" y="600.9567" clip-path="url(#clipPath2)"/>
    </g>
    <g fill="white" text-rendering="geometricPrecision" shape-rendering="geometricPrecision" transform="matrix(1,0,0,1,-429,-314)" stroke="white">
      <rect x="445.3495" width="30" height="30" y="650.9567" clip-path="url(#clipPath2)" stroke="none"/>
    </g>
    <g text-rendering="geometricPrecision" stroke-miterlimit="1.45" shape-rendering="geometricPrecision" font-family="sans-serif" transform="matrix(1,0,0,1,-429,-314)" stroke-linecap="butt">
      <text x="452.7382" xml:space="preserve" y="670.111" clip-path="url(#clipPath2)" stroke="none">np</text>
      <rect fill="none" x="445.3495" width="30" height="30" y="650.9567" clip-path="url(#clipPath2)"/>
    </g>
    <g fill="white" text-rendering="geometricPrecision" shape-rendering="geometricPrecision" transform="matrix(1,0,0,1,-429,-314)" stroke="white">
      <rect x="495.3495" width="30" height="30" y="650.9567" clip-path="url(#clipPath2)" stroke="none"/>
    </g>
    <g text-rendering="geometricPrecision" stroke-miterlimit="1.45" shape-rendering="geometricPrecision" font-family="sans-serif" transform="matrix(1,0,0,1,-429,-314)" stroke-linecap="butt">
      <text x="496.832" xml:space="preserve" y="670.111" clip-path="url(#clipPath2)" stroke="none">verb</text>
      <rect fill="none" x="495.3495" width="30" height="30" y="650.9567" clip-path="url(#clipPath2)"/>
    </g>
    <g fill="white" text-rendering="geometricPrecision" shape-rendering="geometricPrecision" transform="matrix(1,0,0,1,-429,-314)" stroke="white">
      <rect x="545.3495" width="30" height="30" y="650.9567" clip-path="url(#clipPath2)" stroke="none"/>
    </g>
    <g text-rendering="geometricPrecision" stroke-miterlimit="1.45" shape-rendering="geometricPrecision" transform="matrix(1,0,0,1,-429,-314)" stroke-linecap="butt">
      <rect fill="none" x="545.3495" width="30" height="30" y="650.9567" clip-path="url(#clipPath2)"/>
    </g>
    <g fill="white" text-rendering="geometricPrecision" shape-rendering="geometricPrecision" transform="matrix(1,0,0,1,-429,-314)" stroke="white">
      <rect x="595.3495" width="30" height="30" y="650.9567" clip-path="url(#clipPath2)" stroke="none"/>
    </g>
    <g text-rendering="geometricPrecision" stroke-miterlimit="1.45" shape-rendering="geometricPrecision" transform="matrix(1,0,0,1,-429,-314)" stroke-linecap="butt">
      <rect fill="none" x="595.3495" width="30" height="30" y="650.9567" clip-path="url(#clipPath2)"/>
    </g>
    <g fill="white" text-rendering="geometricPrecision" shape-rendering="geometricPrecision" transform="matrix(1,0,0,1,-429,-314)" stroke="white">
      <rect x="445.3495" width="30" height="30" y="700.9567" clip-path="url(#clipPath2)" stroke="none"/>
    </g>
    <g text-rendering="geometricPrecision" stroke-miterlimit="1.45" shape-rendering="geometricPrecision" font-family="sans-serif" transform="matrix(1,0,0,1,-429,-314)" stroke-linecap="butt">
      <text x="446.6005" xml:space="preserve" y="720.111" clip-path="url(#clipPath2)" stroke="none">pron</text>
      <rect fill="none" x="445.3495" width="30" height="30" y="700.9567" clip-path="url(#clipPath2)"/>
    </g>
    <g fill="white" text-rendering="geometricPrecision" shape-rendering="geometricPrecision" transform="matrix(1,0,0,1,-429,-314)" stroke="white">
      <rect x="495.3495" width="30" height="30" y="700.9567" clip-path="url(#clipPath2)" stroke="none"/>
    </g>
    <g text-rendering="geometricPrecision" stroke-miterlimit="1.45" shape-rendering="geometricPrecision" transform="matrix(1,0,0,1,-429,-314)" stroke-linecap="butt">
      <rect fill="none" x="495.3495" width="30" height="30" y="700.9567" clip-path="url(#clipPath2)"/>
    </g>
    <g fill="white" text-rendering="geometricPrecision" shape-rendering="geometricPrecision" transform="matrix(1,0,0,1,-429,-314)" stroke="white">
      <rect x="545.3495" width="30" height="30" y="700.9567" clip-path="url(#clipPath2)" stroke="none"/>
    </g>
    <g text-rendering="geometricPrecision" stroke-miterlimit="1.45" shape-rendering="geometricPrecision" transform="matrix(1,0,0,1,-429,-314)" stroke-linecap="butt">
      <rect fill="none" x="545.3495" width="30" height="30" y="700.9567" clip-path="url(#clipPath2)"/>
    </g>
    <g fill="white" text-rendering="geometricPrecision" shape-rendering="geometricPrecision" transform="matrix(1,0,0,1,-429,-314)" stroke="white">
      <rect x="595.3495" width="30" height="30" y="700.9567" clip-path="url(#clipPath2)" stroke="none"/>
    </g>
    <g text-rendering="geometricPrecision" stroke-miterlimit="1.45" shape-rendering="geometricPrecision" transform="matrix(1,0,0,1,-429,-314)" stroke-linecap="butt">
      <rect fill="none" x="595.3495" width="30" height="30" y="700.9567" clip-path="url(#clipPath2)"/>
    </g>
    <g fill="white" text-rendering="geometricPrecision" shape-rendering="geometricPrecision" transform="matrix(1,0,0,1,-429,-314)" stroke="white">
      <rect x="830.5058" width="30" height="30" y="754.1143" clip-path="url(#clipPath2)" stroke="none"/>
    </g>
    <g text-rendering="geometricPrecision" stroke-miterlimit="1.45" shape-rendering="geometricPrecision" font-family="sans-serif" transform="matrix(1,0,0,1,-429,-314)" stroke-linecap="butt">
      <text x="842.3798" xml:space="preserve" y="773.2686" clip-path="url(#clipPath2)" stroke="none">s</text>
      <rect fill="none" x="830.5058" width="30" height="30" y="754.1143" clip-path="url(#clipPath2)"/>
    </g>
    <g fill="white" text-rendering="geometricPrecision" shape-rendering="geometricPrecision" transform="matrix(1,0,0,1,-429,-314)" stroke="white">
      <rect x="445.3495" width="518.9583" height="30" y="396.5652" clip-path="url(#clipPath2)" stroke="none"/>
    </g>
    <g text-rendering="geometricPrecision" stroke-miterlimit="1.45" shape-rendering="geometricPrecision" font-family="sans-serif" transform="matrix(1,0,0,1,-429,-314)" stroke-linecap="butt">
      <text x="685.4429" xml:space="preserve" y="415.7195" clip-path="url(#clipPath2)" stroke="none">Step 1</text>
      <rect fill="none" x="445.3495" width="518.9583" height="30" y="396.5652" clip-path="url(#clipPath2)"/>
    </g>
    <g fill="white" text-rendering="geometricPrecision" shape-rendering="geometricPrecision" transform="matrix(1,0,0,1,-429,-314)" stroke="white">
      <rect x="445.3495" width="180" height="30" y="448.761" clip-path="url(#clipPath2)" stroke="none"/>
    </g>
    <g text-rendering="geometricPrecision" stroke-miterlimit="1.45" shape-rendering="geometricPrecision" font-family="sans-serif" transform="matrix(1,0,0,1,-429,-314)" stroke-linecap="butt">
      <text x="502.7626" xml:space="preserve" y="467.9153" clip-path="url(#clipPath2)" stroke="none">CKY Matrix</text>
      <rect fill="none" x="445.3495" width="180" height="30" y="448.761" clip-path="url(#clipPath2)"/>
    </g>
    <g fill="white" text-rendering="geometricPrecision" shape-rendering="geometricPrecision" transform="matrix(1,0,0,1,-429,-314)" stroke="white">
      <rect x="445.3495" width="518.9583" height="44.6667" y="329.7029" clip-path="url(#clipPath2)" stroke="none"/>
    </g>
    <g font-size="11px" stroke-linecap="butt" transform="matrix(1,0,0,1,-429,-314)" text-rendering="geometricPrecision" font-family="sans-serif" shape-rendering="geometricPrecision" stroke-miterlimit="1.45">
      <text x="622.283" xml:space="preserve" y="343.0396" clip-path="url(#clipPath2)" stroke="none">Tree_DFS of "I am a Function"</text>
      <text x="655.3851" xml:space="preserve" y="355.8443" clip-path="url(#clipPath2)" stroke="none">First Permutation:</text>
      <text x="651.5823" xml:space="preserve" y="368.649" clip-path="url(#clipPath2)" stroke="none">Pron Verb Det Verb</text>
      <rect fill="none" x="445.3495" width="518.9583" height="44.6667" y="329.7029" clip-path="url(#clipPath2)"/>
    </g>
    <g fill="white" text-rendering="geometricPrecision" shape-rendering="geometricPrecision" transform="matrix(1,0,0,1,-429,-314)" stroke="white">
      <rect x="726.7037" width="237.6042" height="30" y="448.761" clip-path="url(#clipPath2)" stroke="none"/>
    </g>
    <g text-rendering="geometricPrecision" stroke-miterlimit="1.45" shape-rendering="geometricPrecision" font-family="sans-serif" transform="matrix(1,0,0,1,-429,-314)" stroke-linecap="butt">
      <text x="786.871" xml:space="preserve" y="467.9153" clip-path="url(#clipPath2)" stroke="none">Stack &amp; Line Status</text>
      <rect fill="none" x="726.7037" width="237.6042" height="30" y="448.761" clip-path="url(#clipPath2)"/>
    </g>
    <g fill="white" text-rendering="geometricPrecision" shape-rendering="geometricPrecision" transform="matrix(1,0,0,1,-429,-314)" stroke="white">
      <rect x="726.7037" width="237.6042" height="30" y="694.1143" clip-path="url(#clipPath2)" stroke="none"/>
    </g>
    <g text-rendering="geometricPrecision" stroke-miterlimit="1.45" shape-rendering="geometricPrecision" font-family="sans-serif" transform="matrix(1,0,0,1,-429,-314)" stroke-linecap="butt">
      <text x="831.9911" xml:space="preserve" y="713.2686" clip-path="url(#clipPath2)" stroke="none">Tree</text>
      <rect fill="none" x="726.7037" width="237.6042" height="30" y="694.1143" clip-path="url(#clipPath2)"/>
    </g>
    <g fill="white" text-rendering="geometricPrecision" shape-rendering="geometricPrecision" transform="matrix(1,0,0,1,-429,-314)" stroke="white">
      <rect x="445.3495" width="518.9583" height="30" y="802.1305" clip-path="url(#clipPath2)" stroke="none"/>
    </g>
    <g text-rendering="geometricPrecision" stroke-miterlimit="1.45" shape-rendering="geometricPrecision" font-family="sans-serif" transform="matrix(1,0,0,1,-429,-314)" stroke-linecap="butt">
      <text x="676.399" xml:space="preserve" y="821.2848" clip-path="url(#clipPath2)" stroke="none">Figure 25</text>
      <rect fill="none" x="445.3495" width="518.9583" height="30" y="802.1305" clip-path="url(#clipPath2)"/>
      <path fill="none" d="M495.3495 515.9567 L483.3495 515.9567" clip-path="url(#clipPath2)"/>
      <path d="M475.3495 515.9567 L487.3495 520.9567 L484.3495 515.9567 L487.3495 510.9567 Z" clip-path="url(#clipPath2)" stroke="none"/>
      <path fill="none" d="M460.3495 550.9567 L460.3495 538.9567" clip-path="url(#clipPath2)"/>
      <path d="M460.3495 530.9567 L455.3495 542.9567 L460.3495 539.9567 L465.3495 542.9567 Z" clip-path="url(#clipPath2)" stroke="none"/>
    </g>
    <g text-rendering="geometricPrecision" stroke-miterlimit="1.45" shape-rendering="geometricPrecision" transform="matrix(1,0,0,1,-429,-314)" stroke-linecap="butt">
      <path fill="none" d="M510.3495 530.9567 L504.0995 545.9567 L508.8495 543.1067 L508.8495 543.1067 L508.8495 550.9567 L511.8495 550.9567 L511.8495 543.1067 L511.8495 543.1067 L516.5995 545.9567 L510.3495 530.9567 Z" clip-path="url(#clipPath2)"/>
    </g>
    <g text-rendering="geometricPrecision" stroke-miterlimit="1.45" shape-rendering="geometricPrecision" transform="matrix(1,0,0,1,-429,-314)" stroke-linecap="butt">
      <path fill="none" d="M560.3495 530.9567 L554.0995 545.9567 L558.8495 543.1067 L558.8495 550.9567 L561.8495 550.9567 L561.8495 543.1067 L566.5995 545.9567 L560.3495 530.9567 Z" clip-path="url(#clipPath2)"/>
    </g>
    <g text-rendering="geometricPrecision" stroke-miterlimit="1.45" shape-rendering="geometricPrecision" transform="matrix(1,0,0,1,-429,-314)" stroke-linecap="butt">
      <path fill="none" d="M610.3495 550.9567 L610.3495 538.9567" clip-path="url(#clipPath2)"/>
      <path d="M610.3495 530.9567 L605.3495 542.9567 L610.3495 539.9567 L615.3495 542.9567 Z" clip-path="url(#clipPath2)" stroke="none"/>
    </g>
    <g text-rendering="geometricPrecision" stroke-miterlimit="1.45" shape-rendering="geometricPrecision" transform="matrix(1,0,0,1,-429,-314)" stroke-linecap="butt">
      <path fill="none" d="M460.3495 580.9567 L454.0995 595.9567 L458.8495 593.1067 L458.8495 593.1067 L458.8495 600.9567 L461.8495 600.9567 L461.8495 593.1067 L461.8495 593.1067 L466.5995 595.9567 L460.3495 580.9567 Z" clip-path="url(#clipPath2)"/>
    </g>
    <g text-rendering="geometricPrecision" stroke-miterlimit="1.45" shape-rendering="geometricPrecision" transform="matrix(1,0,0,1,-429,-314)" stroke-linecap="butt">
      <path fill="none" d="M510.3495 580.9567 L504.0995 595.9567 L508.8495 593.1067 L508.8495 593.1067 L508.8495 600.9567 L511.8495 600.9567 L511.8495 593.1067 L511.8495 593.1067 L516.5995 595.9567 L510.3495 580.9567 Z" clip-path="url(#clipPath2)"/>
    </g>
    <g text-rendering="geometricPrecision" stroke-miterlimit="1.45" shape-rendering="geometricPrecision" transform="matrix(1,0,0,1,-429,-314)" stroke-linecap="butt">
      <path fill="none" d="M560.3495 580.9567 L554.0995 595.9567 L558.8495 593.1067 L558.8495 600.9567 L561.8495 600.9567 L561.8495 593.1067 L566.5995 595.9567 L560.3495 580.9567 Z" clip-path="url(#clipPath2)"/>
    </g>
    <g text-rendering="geometricPrecision" stroke-miterlimit="1.45" shape-rendering="geometricPrecision" transform="matrix(1,0,0,1,-429,-314)" stroke-linecap="butt">
      <path fill="none" d="M460.3495 630.9567 L454.0995 645.9567 L458.8495 643.1067 L458.8495 643.1067 L458.8495 650.9567 L461.8495 650.9567 L461.8495 643.1067 L461.8495 643.1067 L466.5995 645.9567 L460.3495 630.9567 Z" clip-path="url(#clipPath2)"/>
    </g>
    <g text-rendering="geometricPrecision" stroke-miterlimit="1.45" shape-rendering="geometricPrecision" transform="matrix(1,0,0,1,-429,-314)" stroke-linecap="butt">
      <path fill="none" d="M510.3495 650.9567 L510.3495 638.9567" clip-path="url(#clipPath2)"/>
      <path d="M510.3495 630.9567 L505.3495 642.9567 L510.3495 639.9567 L515.3495 642.9567 Z" clip-path="url(#clipPath2)" stroke="none"/>
      <path fill="none" d="M460.3495 700.9567 L460.3495 688.9567" clip-path="url(#clipPath2)"/>
      <path d="M460.3495 680.9567 L455.3495 692.9567 L460.3495 689.9567 L465.3495 692.9567 Z" clip-path="url(#clipPath2)" stroke="none"/>
    </g>
  </g>
</svg>
