<?xml version="1.0" encoding="UTF-8"?><svg xmlns="http://www.w3.org/2000/svg" xmlns:xlink="http://www.w3.org/1999/xlink" fill-opacity="1" color-rendering="auto" color-interpolation="auto" text-rendering="auto" stroke="black" stroke-linecap="square" width="524" stroke-miterlimit="10" shape-rendering="auto" stroke-opacity="1" fill="black" stroke-dasharray="none" font-weight="normal" stroke-width="1" height="301" font-family="'Dialog'" font-style="normal" stroke-linejoin="miter" font-size="12px" stroke-dashoffset="0" image-rendering="auto">
  <!--Generated by ySVG 2.5-->
  <defs id="genericDefs"/>
  <g>
    <defs id="defs1">
      <clipPath clipPathUnits="userSpaceOnUse" id="clipPath1">
        <path d="M0 0 L524 0 L524 301 L0 301 L0 0 Z"/>
      </clipPath>
      <clipPath clipPathUnits="userSpaceOnUse" id="clipPath2">
        <path d="M579 404 L1103 404 L1103 705 L579 705 L579 404 Z"/>
      </clipPath>
    </defs>
    <g fill="white" text-rendering="geometricPrecision" shape-rendering="geometricPrecision" transform="translate(-579,-404)" stroke="white">
      <rect x="579" width="524" height="301" y="404" clip-path="url(#clipPath2)" stroke="none"/>
    </g>
    <g font-size="15px" stroke-linecap="butt" transform="matrix(1,0,0,1,-579,-404)" text-rendering="geometricPrecision" font-family="sans-serif" shape-rendering="geometricPrecision" stroke-miterlimit="1.45">
      <text x="951.0877" xml:space="preserve" y="495.7957" clip-path="url(#clipPath2)" stroke="none">Connection Types</text>
      <rect x="594.8333" y="479.8724" clip-path="url(#clipPath2)" fill="none" width="492.5" stroke-dasharray="6,2" rx="4" ry="4" height="149.4609"/>
    </g>
    <g fill="white" text-rendering="geometricPrecision" shape-rendering="geometricPrecision" transform="matrix(1,0,0,1,-579,-404)" stroke="white">
      <rect x="609.8333" width="30" height="30" y="516.3333" clip-path="url(#clipPath2)" stroke="none"/>
    </g>
    <g text-rendering="geometricPrecision" stroke-miterlimit="1.45" shape-rendering="geometricPrecision" font-family="sans-serif" transform="matrix(1,0,0,1,-579,-404)" stroke-linecap="butt">
      <text x="621.0159" xml:space="preserve" y="535.4876" clip-path="url(#clipPath2)" stroke="none">1</text>
      <rect fill="none" x="609.8333" width="30" height="30" y="516.3333" clip-path="url(#clipPath2)"/>
    </g>
    <g fill="white" text-rendering="geometricPrecision" shape-rendering="geometricPrecision" transform="matrix(1,0,0,1,-579,-404)" stroke="white">
      <rect x="727.8333" width="30" height="30" y="516.3333" clip-path="url(#clipPath2)" stroke="none"/>
    </g>
    <g text-rendering="geometricPrecision" stroke-miterlimit="1.45" shape-rendering="geometricPrecision" font-family="sans-serif" transform="matrix(1,0,0,1,-579,-404)" stroke-linecap="butt">
      <text x="739.0159" xml:space="preserve" y="535.4876" clip-path="url(#clipPath2)" stroke="none">1</text>
      <rect fill="none" x="727.8333" width="30" height="30" y="516.3333" clip-path="url(#clipPath2)"/>
    </g>
    <g fill="white" text-rendering="geometricPrecision" shape-rendering="geometricPrecision" transform="matrix(1,0,0,1,-579,-404)" stroke="white">
      <rect x="609.8333" width="30" height="30" y="584.3333" clip-path="url(#clipPath2)" stroke="none"/>
    </g>
    <g text-rendering="geometricPrecision" stroke-miterlimit="1.45" shape-rendering="geometricPrecision" font-family="sans-serif" transform="matrix(1,0,0,1,-579,-404)" stroke-linecap="butt">
      <text x="621.0159" xml:space="preserve" y="603.4876" clip-path="url(#clipPath2)" stroke="none">1</text>
      <rect fill="none" x="609.8333" width="30" height="30" y="584.3333" clip-path="url(#clipPath2)"/>
    </g>
    <g fill="white" text-rendering="geometricPrecision" shape-rendering="geometricPrecision" transform="matrix(1,0,0,1,-579,-404)" stroke="white">
      <rect x="727.8333" width="30" height="30" y="584.3333" clip-path="url(#clipPath2)" stroke="none"/>
    </g>
    <g text-rendering="geometricPrecision" stroke-miterlimit="1.45" shape-rendering="geometricPrecision" font-family="sans-serif" transform="matrix(1,0,0,1,-579,-404)" stroke-linecap="butt">
      <text x="739.0159" xml:space="preserve" y="603.4876" clip-path="url(#clipPath2)" stroke="none">2</text>
      <rect fill="none" x="727.8333" width="30" height="30" y="584.3333" clip-path="url(#clipPath2)"/>
    </g>
    <g text-rendering="geometricPrecision" shape-rendering="geometricPrecision" transform="matrix(1,0,0,1,-579,-404)">
      <path fill="none" d="M810.3333 526.3333 Q810.3333 518.3333 818.3333 518.3333 L1062.3333 518.3333 Q1070.3333 518.3333 1070.3333 526.3333 L1070.3333 536.3333 Q1070.3333 544.3333 1062.3333 544.3333 L818.3333 544.3333 Q810.3333 544.3333 810.3333 536.3333 Z" clip-path="url(#clipPath2)"/>
      <text stroke-linecap="butt" x="820.4007" y="535.4876" clip-path="url(#clipPath2)" font-family="sans-serif" stroke="none" stroke-miterlimit="1.45" xml:space="preserve">Copy Node 1 from source to destination</text>
    </g>
    <g text-rendering="geometricPrecision" shape-rendering="geometricPrecision" transform="matrix(1,0,0,1,-579,-404)">
      <path fill="none" d="M810.3333 594.3333 Q810.3333 586.3333 818.3333 586.3333 L1062.3333 586.3333 Q1070.3333 586.3333 1070.3333 594.3333 L1070.3333 604.3333 Q1070.3333 612.3333 1062.3333 612.3333 L818.3333 612.3333 Q810.3333 612.3333 810.3333 604.3333 Z" clip-path="url(#clipPath2)"/>
      <text stroke-linecap="butt" x="816.2435" y="603.4876" clip-path="url(#clipPath2)" font-family="sans-serif" stroke="none" stroke-miterlimit="1.45" xml:space="preserve">Create Node 2 out of Node 1 &amp; link Them</text>
    </g>
    <g fill="white" text-rendering="geometricPrecision" shape-rendering="geometricPrecision" transform="matrix(1,0,0,1,-579,-404)" stroke="white">
      <rect x="594.8333" width="492.5" height="30" y="419.8724" clip-path="url(#clipPath2)" stroke="none"/>
    </g>
    <g text-rendering="geometricPrecision" stroke-miterlimit="1.45" shape-rendering="geometricPrecision" font-family="sans-serif" transform="matrix(1,0,0,1,-579,-404)" stroke-linecap="butt">
      <text x="767.639" xml:space="preserve" y="439.0267" clip-path="url(#clipPath2)" stroke="none">CKY of "I am a Function"</text>
      <rect fill="none" x="594.8333" width="492.5" height="30" y="419.8724" clip-path="url(#clipPath2)"/>
    </g>
    <g fill="white" text-rendering="geometricPrecision" shape-rendering="geometricPrecision" transform="matrix(1,0,0,1,-579,-404)" stroke="white">
      <rect x="594.8333" width="492.5" height="30" y="659.3333" clip-path="url(#clipPath2)" stroke="none"/>
    </g>
    <g text-rendering="geometricPrecision" stroke-miterlimit="1.45" shape-rendering="geometricPrecision" font-family="sans-serif" transform="matrix(1,0,0,1,-579,-404)" stroke-linecap="butt">
      <text x="816.471" xml:space="preserve" y="678.4876" clip-path="url(#clipPath2)" stroke="none">Figure 1</text>
      <rect fill="none" x="594.8333" width="492.5" height="30" y="659.3333" clip-path="url(#clipPath2)"/>
    </g>
    <g text-rendering="geometricPrecision" stroke-miterlimit="1.45" shape-rendering="geometricPrecision" transform="matrix(1,0,0,1,-579,-404)" stroke-linecap="butt">
      <path fill="none" d="M712.8333 525.0833 L715.6833 529.8333 L639.8333 529.8333 L639.8333 532.8333 L715.6833 532.8333 L712.8333 537.5833 L727.8333 531.3333 L712.8333 525.0833 Z" clip-path="url(#clipPath2)"/>
    </g>
    <g text-rendering="geometricPrecision" stroke-miterlimit="1.45" shape-rendering="geometricPrecision" transform="matrix(1,0,0,1,-579,-404)" stroke-linecap="butt">
      <path fill="none" d="M639.8333 599.3333 L719.8333 599.3333" clip-path="url(#clipPath2)"/>
      <path d="M727.8333 599.3333 L715.8333 594.3333 L718.8333 599.3333 L715.8333 604.3333 Z" clip-path="url(#clipPath2)" stroke="none"/>
    </g>
  </g>
</svg>
