<?xml version="1.0" encoding="UTF-8"?><svg xmlns="http://www.w3.org/2000/svg" xmlns:xlink="http://www.w3.org/1999/xlink" fill-opacity="1" color-rendering="auto" color-interpolation="auto" text-rendering="auto" stroke="black" stroke-linecap="square" width="483" stroke-miterlimit="10" shape-rendering="auto" stroke-opacity="1" fill="black" stroke-dasharray="none" font-weight="normal" stroke-width="1" height="415" font-family="'Dialog'" font-style="normal" stroke-linejoin="miter" font-size="12px" stroke-dashoffset="0" image-rendering="auto">
  <!--Generated by ySVG 2.5-->
  <defs id="genericDefs"/>
  <g>
    <defs id="defs1">
      <clipPath clipPathUnits="userSpaceOnUse" id="clipPath1">
        <path d="M0 0 L483 0 L483 415 L0 415 L0 0 Z"/>
      </clipPath>
      <clipPath clipPathUnits="userSpaceOnUse" id="clipPath2">
        <path d="M419 387 L902 387 L902 802 L419 802 L419 387 Z"/>
      </clipPath>
    </defs>
    <g fill="white" text-rendering="geometricPrecision" shape-rendering="geometricPrecision" transform="translate(-419,-387)" stroke="white">
      <rect x="419" width="483" height="415" y="387" clip-path="url(#clipPath2)" stroke="none"/>
    </g>
    <g fill="white" text-rendering="geometricPrecision" shape-rendering="geometricPrecision" transform="matrix(1,0,0,1,-419,-387)" stroke="white">
      <rect x="570.5" width="30" height="30" y="506.3333" clip-path="url(#clipPath2)" stroke="none"/>
    </g>
    <g text-rendering="geometricPrecision" stroke-miterlimit="1.45" shape-rendering="geometricPrecision" font-family="sans-serif" transform="matrix(1,0,0,1,-419,-387)" stroke-linecap="butt">
      <text x="582.374" xml:space="preserve" y="525.4876" clip-path="url(#clipPath2)" stroke="none">s</text>
      <rect fill="none" x="570.5" width="30" height="30" y="506.3333" clip-path="url(#clipPath2)"/>
    </g>
    <g fill="white" text-rendering="geometricPrecision" shape-rendering="geometricPrecision" transform="matrix(1,0,0,1,-419,-387)" stroke="white">
      <rect x="620.5" width="30" height="30" y="506.3333" clip-path="url(#clipPath2)" stroke="none"/>
    </g>
    <g text-rendering="geometricPrecision" stroke-miterlimit="1.45" shape-rendering="geometricPrecision" font-family="sans-serif" transform="matrix(1,0,0,1,-419,-387)" stroke-linecap="butt">
      <text x="628.1406" xml:space="preserve" y="525.4876" clip-path="url(#clipPath2)" stroke="none">vp</text>
      <rect fill="none" x="620.5" width="30" height="30" y="506.3333" clip-path="url(#clipPath2)"/>
    </g>
    <g fill="white" text-rendering="geometricPrecision" shape-rendering="geometricPrecision" transform="matrix(1,0,0,1,-419,-387)" stroke="white">
      <rect x="670.5" width="30" height="30" y="506.3333" clip-path="url(#clipPath2)" stroke="none"/>
    </g>
    <g text-rendering="geometricPrecision" stroke-miterlimit="1.45" shape-rendering="geometricPrecision" font-family="sans-serif" transform="matrix(1,0,0,1,-419,-387)" stroke-linecap="butt">
      <text x="677.8887" xml:space="preserve" y="525.4876" clip-path="url(#clipPath2)" stroke="none">np</text>
      <rect fill="none" x="670.5" width="30" height="30" y="506.3333" clip-path="url(#clipPath2)"/>
    </g>
    <g fill="white" text-rendering="geometricPrecision" shape-rendering="geometricPrecision" transform="matrix(1,0,0,1,-419,-387)" stroke="white">
      <rect x="720.5" width="30" height="30" y="506.3333" clip-path="url(#clipPath2)" stroke="none"/>
    </g>
    <g text-rendering="geometricPrecision" stroke-miterlimit="1.45" shape-rendering="geometricPrecision" font-family="sans-serif" transform="matrix(1,0,0,1,-419,-387)" stroke-linecap="butt">
      <text x="722.1816" xml:space="preserve" y="525.4876" clip-path="url(#clipPath2)" stroke="none">nom</text>
      <rect fill="none" x="720.5" width="30" height="30" y="506.3333" clip-path="url(#clipPath2)"/>
    </g>
    <g fill="white" text-rendering="geometricPrecision" shape-rendering="geometricPrecision" transform="matrix(1,0,0,1,-419,-387)" stroke="white">
      <rect x="570.5" width="30" height="30" y="556.3333" clip-path="url(#clipPath2)" stroke="none"/>
    </g>
    <g text-rendering="geometricPrecision" stroke-miterlimit="1.45" shape-rendering="geometricPrecision" font-family="sans-serif" transform="matrix(1,0,0,1,-419,-387)" stroke-linecap="butt">
      <text x="577.8887" xml:space="preserve" y="575.4876" clip-path="url(#clipPath2)" stroke="none">np</text>
      <rect fill="none" x="570.5" width="30" height="30" y="556.3333" clip-path="url(#clipPath2)"/>
    </g>
    <g fill="white" text-rendering="geometricPrecision" shape-rendering="geometricPrecision" transform="matrix(1,0,0,1,-419,-387)" stroke="white">
      <rect x="620.5" width="30" height="30" y="556.3333" clip-path="url(#clipPath2)" stroke="none"/>
    </g>
    <g text-rendering="geometricPrecision" stroke-miterlimit="1.45" shape-rendering="geometricPrecision" font-family="sans-serif" transform="matrix(1,0,0,1,-419,-387)" stroke-linecap="butt">
      <text x="628.1406" xml:space="preserve" y="575.4876" clip-path="url(#clipPath2)" stroke="none">vp</text>
      <rect fill="none" x="620.5" width="30" height="30" y="556.3333" clip-path="url(#clipPath2)"/>
    </g>
    <g fill="white" text-rendering="geometricPrecision" shape-rendering="geometricPrecision" transform="matrix(1,0,0,1,-419,-387)" stroke="white">
      <rect x="670.5" width="30" height="30" y="556.3333" clip-path="url(#clipPath2)" stroke="none"/>
    </g>
    <g text-rendering="geometricPrecision" stroke-miterlimit="1.45" shape-rendering="geometricPrecision" font-family="sans-serif" transform="matrix(1,0,0,1,-419,-387)" stroke-linecap="butt">
      <text x="675.6475" xml:space="preserve" y="575.4876" clip-path="url(#clipPath2)" stroke="none">det</text>
      <rect fill="none" x="670.5" width="30" height="30" y="556.3333" clip-path="url(#clipPath2)"/>
    </g>
    <g fill="white" text-rendering="geometricPrecision" shape-rendering="geometricPrecision" transform="matrix(1,0,0,1,-419,-387)" stroke="white">
      <rect x="720.5" width="30" height="30" y="556.3333" clip-path="url(#clipPath2)" stroke="none"/>
    </g>
    <g text-rendering="geometricPrecision" stroke-miterlimit="1.45" shape-rendering="geometricPrecision" font-family="sans-serif" transform="matrix(1,0,0,1,-419,-387)" stroke-linecap="butt">
      <text x="720.4209" xml:space="preserve" y="575.4876" clip-path="url(#clipPath2)" stroke="none">noun</text>
      <rect fill="none" x="720.5" width="30" height="30" y="556.3333" clip-path="url(#clipPath2)"/>
    </g>
    <g fill="white" text-rendering="geometricPrecision" shape-rendering="geometricPrecision" transform="matrix(1,0,0,1,-419,-387)" stroke="white">
      <rect x="570.5" width="30" height="30" y="606.3333" clip-path="url(#clipPath2)" stroke="none"/>
    </g>
    <g text-rendering="geometricPrecision" stroke-miterlimit="1.45" shape-rendering="geometricPrecision" font-family="sans-serif" transform="matrix(1,0,0,1,-419,-387)" stroke-linecap="butt">
      <text x="577.8887" xml:space="preserve" y="625.4876" clip-path="url(#clipPath2)" stroke="none">np</text>
      <rect fill="none" x="570.5" width="30" height="30" y="606.3333" clip-path="url(#clipPath2)"/>
    </g>
    <g fill="white" text-rendering="geometricPrecision" shape-rendering="geometricPrecision" transform="matrix(1,0,0,1,-419,-387)" stroke="white">
      <rect x="620.5" width="30" height="30" y="606.3333" clip-path="url(#clipPath2)" stroke="none"/>
    </g>
    <g text-rendering="geometricPrecision" stroke-miterlimit="1.45" shape-rendering="geometricPrecision" font-family="sans-serif" transform="matrix(1,0,0,1,-419,-387)" stroke-linecap="butt">
      <text x="628.1406" xml:space="preserve" y="625.4876" clip-path="url(#clipPath2)" stroke="none">vp</text>
      <rect fill="none" x="620.5" width="30" height="30" y="606.3333" clip-path="url(#clipPath2)"/>
    </g>
    <g fill="white" text-rendering="geometricPrecision" shape-rendering="geometricPrecision" transform="matrix(1,0,0,1,-419,-387)" stroke="white">
      <rect x="670.5" width="30" height="30" y="606.3333" clip-path="url(#clipPath2)" stroke="none"/>
    </g>
    <g text-rendering="geometricPrecision" stroke-miterlimit="1.45" shape-rendering="geometricPrecision" font-family="sans-serif" transform="matrix(1,0,0,1,-419,-387)" stroke-linecap="butt">
      <text x="675.6475" xml:space="preserve" y="625.4876" clip-path="url(#clipPath2)" stroke="none">det</text>
      <rect fill="none" x="670.5" width="30" height="30" y="606.3333" clip-path="url(#clipPath2)"/>
    </g>
    <g fill="white" text-rendering="geometricPrecision" shape-rendering="geometricPrecision" transform="matrix(1,0,0,1,-419,-387)" stroke="white">
      <rect x="720.5" width="30" height="30" y="606.3333" clip-path="url(#clipPath2)" stroke="none"/>
    </g>
    <g text-rendering="geometricPrecision" stroke-miterlimit="1.45" shape-rendering="geometricPrecision" transform="matrix(1,0,0,1,-419,-387)" stroke-linecap="butt">
      <rect fill="none" x="720.5" width="30" height="30" y="606.3333" clip-path="url(#clipPath2)"/>
    </g>
    <g fill="white" text-rendering="geometricPrecision" shape-rendering="geometricPrecision" transform="matrix(1,0,0,1,-419,-387)" stroke="white">
      <rect x="570.5" width="30" height="30" y="656.3333" clip-path="url(#clipPath2)" stroke="none"/>
    </g>
    <g text-rendering="geometricPrecision" stroke-miterlimit="1.45" shape-rendering="geometricPrecision" font-family="sans-serif" transform="matrix(1,0,0,1,-419,-387)" stroke-linecap="butt">
      <text x="577.8887" xml:space="preserve" y="675.4876" clip-path="url(#clipPath2)" stroke="none">np</text>
      <rect fill="none" x="570.5" width="30" height="30" y="656.3333" clip-path="url(#clipPath2)"/>
    </g>
    <g fill="white" text-rendering="geometricPrecision" shape-rendering="geometricPrecision" transform="matrix(1,0,0,1,-419,-387)" stroke="white">
      <rect x="620.5" width="30" height="30" y="656.3333" clip-path="url(#clipPath2)" stroke="none"/>
    </g>
    <g text-rendering="geometricPrecision" stroke-miterlimit="1.45" shape-rendering="geometricPrecision" font-family="sans-serif" transform="matrix(1,0,0,1,-419,-387)" stroke-linecap="butt">
      <text x="621.9824" xml:space="preserve" y="675.4876" clip-path="url(#clipPath2)" stroke="none">verb</text>
      <rect fill="none" x="620.5" width="30" height="30" y="656.3333" clip-path="url(#clipPath2)"/>
    </g>
    <g fill="white" text-rendering="geometricPrecision" shape-rendering="geometricPrecision" transform="matrix(1,0,0,1,-419,-387)" stroke="white">
      <rect x="670.5" width="30" height="30" y="656.3333" clip-path="url(#clipPath2)" stroke="none"/>
    </g>
    <g text-rendering="geometricPrecision" stroke-miterlimit="1.45" shape-rendering="geometricPrecision" transform="matrix(1,0,0,1,-419,-387)" stroke-linecap="butt">
      <rect fill="none" x="670.5" width="30" height="30" y="656.3333" clip-path="url(#clipPath2)"/>
    </g>
    <g fill="white" text-rendering="geometricPrecision" shape-rendering="geometricPrecision" transform="matrix(1,0,0,1,-419,-387)" stroke="white">
      <rect x="720.5" width="30" height="30" y="656.3333" clip-path="url(#clipPath2)" stroke="none"/>
    </g>
    <g text-rendering="geometricPrecision" stroke-miterlimit="1.45" shape-rendering="geometricPrecision" transform="matrix(1,0,0,1,-419,-387)" stroke-linecap="butt">
      <rect fill="none" x="720.5" width="30" height="30" y="656.3333" clip-path="url(#clipPath2)"/>
    </g>
    <g fill="white" text-rendering="geometricPrecision" shape-rendering="geometricPrecision" transform="matrix(1,0,0,1,-419,-387)" stroke="white">
      <rect x="570.5" width="30" height="30" y="706.3333" clip-path="url(#clipPath2)" stroke="none"/>
    </g>
    <g text-rendering="geometricPrecision" stroke-miterlimit="1.45" shape-rendering="geometricPrecision" font-family="sans-serif" transform="matrix(1,0,0,1,-419,-387)" stroke-linecap="butt">
      <text x="571.751" xml:space="preserve" y="725.4876" clip-path="url(#clipPath2)" stroke="none">pron</text>
      <rect fill="none" x="570.5" width="30" height="30" y="706.3333" clip-path="url(#clipPath2)"/>
    </g>
    <g fill="white" text-rendering="geometricPrecision" shape-rendering="geometricPrecision" transform="matrix(1,0,0,1,-419,-387)" stroke="white">
      <rect x="620.5" width="30" height="30" y="706.3333" clip-path="url(#clipPath2)" stroke="none"/>
    </g>
    <g text-rendering="geometricPrecision" stroke-miterlimit="1.45" shape-rendering="geometricPrecision" transform="matrix(1,0,0,1,-419,-387)" stroke-linecap="butt">
      <rect fill="none" x="620.5" width="30" height="30" y="706.3333" clip-path="url(#clipPath2)"/>
    </g>
    <g fill="white" text-rendering="geometricPrecision" shape-rendering="geometricPrecision" transform="matrix(1,0,0,1,-419,-387)" stroke="white">
      <rect x="670.5" width="30" height="30" y="706.3333" clip-path="url(#clipPath2)" stroke="none"/>
    </g>
    <g text-rendering="geometricPrecision" stroke-miterlimit="1.45" shape-rendering="geometricPrecision" transform="matrix(1,0,0,1,-419,-387)" stroke-linecap="butt">
      <rect fill="none" x="670.5" width="30" height="30" y="706.3333" clip-path="url(#clipPath2)"/>
    </g>
    <g fill="white" text-rendering="geometricPrecision" shape-rendering="geometricPrecision" transform="matrix(1,0,0,1,-419,-387)" stroke="white">
      <rect x="720.5" width="30" height="30" y="706.3333" clip-path="url(#clipPath2)" stroke="none"/>
    </g>
    <g text-rendering="geometricPrecision" stroke-miterlimit="1.45" shape-rendering="geometricPrecision" transform="matrix(1,0,0,1,-419,-387)" stroke-linecap="butt">
      <rect fill="none" x="720.5" width="30" height="30" y="706.3333" clip-path="url(#clipPath2)"/>
    </g>
    <g fill="white" text-rendering="geometricPrecision" shape-rendering="geometricPrecision" transform="matrix(1,0,0,1,-419,-387)" stroke="white">
      <rect x="570.5" width="180" height="30" y="454.3333" clip-path="url(#clipPath2)" stroke="none"/>
    </g>
    <g text-rendering="geometricPrecision" stroke-miterlimit="1.45" shape-rendering="geometricPrecision" font-family="sans-serif" transform="matrix(1,0,0,1,-419,-387)" stroke-linecap="butt">
      <text x="641.1143" xml:space="preserve" y="473.4876" clip-path="url(#clipPath2)" stroke="none">Step 4</text>
      <rect fill="none" x="570.5" width="180" height="30" y="454.3333" clip-path="url(#clipPath2)"/>
    </g>
    <g fill="white" text-rendering="geometricPrecision" shape-rendering="geometricPrecision" transform="matrix(1,0,0,1,-419,-387)" stroke="white">
      <rect x="434" width="453" height="30" y="402.3333" clip-path="url(#clipPath2)" stroke="none"/>
    </g>
    <g text-rendering="geometricPrecision" stroke-miterlimit="1.45" shape-rendering="geometricPrecision" font-family="sans-serif" transform="matrix(1,0,0,1,-419,-387)" stroke-linecap="butt">
      <text x="456.4326" xml:space="preserve" y="421.4876" clip-path="url(#clipPath2)" stroke="none">CKY of "I am a Function" - Second Permutation: Pron Verb Det Noun</text>
      <rect fill="none" x="434" width="453" height="30" y="402.3333" clip-path="url(#clipPath2)"/>
    </g>
    <g fill="white" text-rendering="geometricPrecision" shape-rendering="geometricPrecision" transform="matrix(1,0,0,1,-419,-387)" stroke="white">
      <rect x="434" width="453" height="30" y="756.3333" clip-path="url(#clipPath2)" stroke="none"/>
    </g>
    <g text-rendering="geometricPrecision" stroke-miterlimit="1.45" shape-rendering="geometricPrecision" font-family="sans-serif" transform="matrix(1,0,0,1,-419,-387)" stroke-linecap="butt">
      <text x="632.0703" xml:space="preserve" y="775.4876" clip-path="url(#clipPath2)" stroke="none">Figure 23</text>
      <rect fill="none" x="434" width="453" height="30" y="756.3333" clip-path="url(#clipPath2)"/>
      <path fill="none" d="M620.5 521.3333 L608.5 521.3333" clip-path="url(#clipPath2)"/>
      <path d="M600.5 521.3333 L612.5 526.3333 L609.5 521.3333 L612.5 516.3333 Z" clip-path="url(#clipPath2)" stroke="none"/>
      <path fill="none" d="M670.5 521.3333 L658.5 521.3333" clip-path="url(#clipPath2)"/>
      <path d="M650.5 521.3333 L662.5 526.3333 L659.5 521.3333 L662.5 516.3333 Z" clip-path="url(#clipPath2)" stroke="none"/>
      <path fill="none" d="M720.5 521.3333 L708.5 521.3333" clip-path="url(#clipPath2)"/>
      <path d="M700.5 521.3333 L712.5 526.3333 L709.5 521.3333 L712.5 516.3333 Z" clip-path="url(#clipPath2)" stroke="none"/>
      <path fill="none" d="M585.5 556.3333 L585.5 544.3333" clip-path="url(#clipPath2)"/>
      <path d="M585.5 536.3333 L580.5 548.3333 L585.5 545.3333 L590.5 548.3333 Z" clip-path="url(#clipPath2)" stroke="none"/>
    </g>
    <g text-rendering="geometricPrecision" stroke-miterlimit="1.45" shape-rendering="geometricPrecision" transform="matrix(1,0,0,1,-419,-387)" stroke-linecap="butt">
      <path fill="none" d="M635.5 536.3333 L629.25 551.3333 L634 548.4833 L634 556.3333 L637 556.3333 L637 548.4833 L641.75 551.3333 L635.5 536.3333 Z" clip-path="url(#clipPath2)"/>
    </g>
    <g text-rendering="geometricPrecision" stroke-miterlimit="1.45" shape-rendering="geometricPrecision" transform="matrix(1,0,0,1,-419,-387)" stroke-linecap="butt">
      <path fill="none" d="M685.5 556.3333 L685.5 544.3333" clip-path="url(#clipPath2)"/>
      <path d="M685.5 536.3333 L680.5 548.3333 L685.5 545.3333 L690.5 548.3333 Z" clip-path="url(#clipPath2)" stroke="none"/>
      <path fill="none" d="M735.5 556.3333 L735.5 544.3333" clip-path="url(#clipPath2)"/>
      <path d="M735.5 536.3333 L730.5 548.3333 L735.5 545.3333 L740.5 548.3333 Z" clip-path="url(#clipPath2)" stroke="none"/>
    </g>
    <g text-rendering="geometricPrecision" stroke-miterlimit="1.45" shape-rendering="geometricPrecision" transform="matrix(1,0,0,1,-419,-387)" stroke-linecap="butt">
      <path fill="none" d="M585.5 586.3333 L579.25 601.3333 L584 598.4833 L584 606.3333 L587 606.3333 L587 598.4833 L591.75 601.3333 L585.5 586.3333 Z" clip-path="url(#clipPath2)"/>
    </g>
    <g text-rendering="geometricPrecision" stroke-miterlimit="1.45" shape-rendering="geometricPrecision" transform="matrix(1,0,0,1,-419,-387)" stroke-linecap="butt">
      <path fill="none" d="M635.5 586.3333 L629.25 601.3333 L634 598.4833 L634 606.3333 L637 606.3333 L637 598.4833 L641.75 601.3333 L635.5 586.3333 Z" clip-path="url(#clipPath2)"/>
    </g>
    <g text-rendering="geometricPrecision" stroke-miterlimit="1.45" shape-rendering="geometricPrecision" transform="matrix(1,0,0,1,-419,-387)" stroke-linecap="butt">
      <path fill="none" d="M685.5 586.3333 L679.25 601.3333 L684 598.4833 L684 606.3333 L687 606.3333 L687 598.4833 L691.75 601.3333 L685.5 586.3333 Z" clip-path="url(#clipPath2)"/>
    </g>
    <g text-rendering="geometricPrecision" stroke-miterlimit="1.45" shape-rendering="geometricPrecision" transform="matrix(1,0,0,1,-419,-387)" stroke-linecap="butt">
      <path fill="none" d="M585.5 636.3333 L579.25 651.3333 L584 648.4833 L584 656.3333 L587 656.3333 L587 648.4833 L591.75 651.3333 L585.5 636.3333 Z" clip-path="url(#clipPath2)"/>
    </g>
    <g text-rendering="geometricPrecision" stroke-miterlimit="1.45" shape-rendering="geometricPrecision" transform="matrix(1,0,0,1,-419,-387)" stroke-linecap="butt">
      <path fill="none" d="M635.5 656.3333 L635.5 644.3333" clip-path="url(#clipPath2)"/>
      <path d="M635.5 636.3333 L630.5 648.3333 L635.5 645.3333 L640.5 648.3333 Z" clip-path="url(#clipPath2)" stroke="none"/>
      <path fill="none" d="M585.5 706.3333 L585.5 694.3333" clip-path="url(#clipPath2)"/>
      <path d="M585.5 686.3333 L580.5 698.3333 L585.5 695.3333 L590.5 698.3333 Z" clip-path="url(#clipPath2)" stroke="none"/>
    </g>
  </g>
</svg>
