<?xml version="1.0" encoding="UTF-8"?><svg xmlns="http://www.w3.org/2000/svg" xmlns:xlink="http://www.w3.org/1999/xlink" fill-opacity="1" color-rendering="auto" color-interpolation="auto" text-rendering="auto" stroke="black" stroke-linecap="square" width="484" stroke-miterlimit="10" shape-rendering="auto" stroke-opacity="1" fill="black" stroke-dasharray="none" font-weight="normal" stroke-width="1" height="415" font-family="'Dialog'" font-style="normal" stroke-linejoin="miter" font-size="12px" stroke-dashoffset="0" image-rendering="auto">
  <!--Generated by ySVG 2.5-->
  <defs id="genericDefs"/>
  <g>
    <defs id="defs1">
      <clipPath clipPathUnits="userSpaceOnUse" id="clipPath1">
        <path d="M0 0 L484 0 L484 415 L0 415 L0 0 Z"/>
      </clipPath>
      <clipPath clipPathUnits="userSpaceOnUse" id="clipPath2">
        <path d="M344 312 L828 312 L828 727 L344 727 L344 312 Z"/>
      </clipPath>
    </defs>
    <g fill="white" text-rendering="geometricPrecision" shape-rendering="geometricPrecision" transform="translate(-344,-312)" stroke="white">
      <rect x="344" width="484" height="415" y="312" clip-path="url(#clipPath2)" stroke="none"/>
    </g>
    <g fill="white" text-rendering="geometricPrecision" shape-rendering="geometricPrecision" transform="matrix(1,0,0,1,-344,-312)" stroke="white">
      <rect x="496" width="30" height="30" y="431.6667" clip-path="url(#clipPath2)" stroke="none"/>
    </g>
    <g text-rendering="geometricPrecision" stroke-miterlimit="1.45" shape-rendering="geometricPrecision" transform="matrix(1,0,0,1,-344,-312)" stroke-linecap="butt">
      <rect fill="none" x="496" width="30" height="30" y="431.6667" clip-path="url(#clipPath2)"/>
    </g>
    <g fill="white" text-rendering="geometricPrecision" shape-rendering="geometricPrecision" transform="matrix(1,0,0,1,-344,-312)" stroke="white">
      <rect x="546" width="30" height="30" y="431.6667" clip-path="url(#clipPath2)" stroke="none"/>
    </g>
    <g text-rendering="geometricPrecision" stroke-miterlimit="1.45" shape-rendering="geometricPrecision" transform="matrix(1,0,0,1,-344,-312)" stroke-linecap="butt">
      <rect fill="none" x="546" width="30" height="30" y="431.6667" clip-path="url(#clipPath2)"/>
    </g>
    <g fill="white" text-rendering="geometricPrecision" shape-rendering="geometricPrecision" transform="matrix(1,0,0,1,-344,-312)" stroke="white">
      <rect x="596" width="30" height="30" y="431.6667" clip-path="url(#clipPath2)" stroke="none"/>
    </g>
    <g text-rendering="geometricPrecision" stroke-miterlimit="1.45" shape-rendering="geometricPrecision" transform="matrix(1,0,0,1,-344,-312)" stroke-linecap="butt">
      <rect fill="none" x="596" width="30" height="30" y="431.6667" clip-path="url(#clipPath2)"/>
    </g>
    <g fill="white" text-rendering="geometricPrecision" shape-rendering="geometricPrecision" transform="matrix(1,0,0,1,-344,-312)" stroke="white">
      <rect x="646" width="30" height="30" y="431.6667" clip-path="url(#clipPath2)" stroke="none"/>
    </g>
    <g text-rendering="geometricPrecision" stroke-miterlimit="1.45" shape-rendering="geometricPrecision" font-family="sans-serif" transform="matrix(1,0,0,1,-344,-312)" stroke-linecap="butt">
      <text x="653.6406" xml:space="preserve" y="450.821" clip-path="url(#clipPath2)" stroke="none">vp</text>
      <rect fill="none" x="646" width="30" height="30" y="431.6667" clip-path="url(#clipPath2)"/>
    </g>
    <g fill="white" text-rendering="geometricPrecision" shape-rendering="geometricPrecision" transform="matrix(1,0,0,1,-344,-312)" stroke="white">
      <rect x="496" width="30" height="30" y="481.6667" clip-path="url(#clipPath2)" stroke="none"/>
    </g>
    <g text-rendering="geometricPrecision" stroke-miterlimit="1.45" shape-rendering="geometricPrecision" transform="matrix(1,0,0,1,-344,-312)" stroke-linecap="butt">
      <rect fill="none" x="496" width="30" height="30" y="481.6667" clip-path="url(#clipPath2)"/>
    </g>
    <g fill="white" text-rendering="geometricPrecision" shape-rendering="geometricPrecision" transform="matrix(1,0,0,1,-344,-312)" stroke="white">
      <rect x="546" width="30" height="30" y="481.6667" clip-path="url(#clipPath2)" stroke="none"/>
    </g>
    <g text-rendering="geometricPrecision" stroke-miterlimit="1.45" shape-rendering="geometricPrecision" transform="matrix(1,0,0,1,-344,-312)" stroke-linecap="butt">
      <rect fill="none" x="546" width="30" height="30" y="481.6667" clip-path="url(#clipPath2)"/>
    </g>
    <g fill="white" text-rendering="geometricPrecision" shape-rendering="geometricPrecision" transform="matrix(1,0,0,1,-344,-312)" stroke="white">
      <rect x="596" width="30" height="30" y="481.6667" clip-path="url(#clipPath2)" stroke="none"/>
    </g>
    <g text-rendering="geometricPrecision" stroke-miterlimit="1.45" shape-rendering="geometricPrecision" font-family="sans-serif" transform="matrix(1,0,0,1,-344,-312)" stroke-linecap="butt">
      <text x="601.1475" xml:space="preserve" y="500.821" clip-path="url(#clipPath2)" stroke="none">det</text>
      <rect fill="none" x="596" width="30" height="30" y="481.6667" clip-path="url(#clipPath2)"/>
    </g>
    <g fill="white" text-rendering="geometricPrecision" shape-rendering="geometricPrecision" transform="matrix(1,0,0,1,-344,-312)" stroke="white">
      <rect x="646" width="30" height="30" y="481.6667" clip-path="url(#clipPath2)" stroke="none"/>
    </g>
    <g text-rendering="geometricPrecision" stroke-miterlimit="1.45" shape-rendering="geometricPrecision" font-family="sans-serif" transform="matrix(1,0,0,1,-344,-312)" stroke-linecap="butt">
      <text x="647.4824" xml:space="preserve" y="500.821" clip-path="url(#clipPath2)" stroke="none">verb</text>
      <rect fill="none" x="646" width="30" height="30" y="481.6667" clip-path="url(#clipPath2)"/>
    </g>
    <g fill="white" text-rendering="geometricPrecision" shape-rendering="geometricPrecision" transform="matrix(1,0,0,1,-344,-312)" stroke="white">
      <rect x="496" width="30" height="30" y="531.6667" clip-path="url(#clipPath2)" stroke="none"/>
    </g>
    <g text-rendering="geometricPrecision" stroke-miterlimit="1.45" shape-rendering="geometricPrecision" transform="matrix(1,0,0,1,-344,-312)" stroke-linecap="butt">
      <rect fill="none" x="496" width="30" height="30" y="531.6667" clip-path="url(#clipPath2)"/>
    </g>
    <g fill="white" text-rendering="geometricPrecision" shape-rendering="geometricPrecision" transform="matrix(1,0,0,1,-344,-312)" stroke="white">
      <rect x="546" width="30" height="30" y="531.6667" clip-path="url(#clipPath2)" stroke="none"/>
    </g>
    <g text-rendering="geometricPrecision" stroke-miterlimit="1.45" shape-rendering="geometricPrecision" font-family="sans-serif" transform="matrix(1,0,0,1,-344,-312)" stroke-linecap="butt">
      <text x="553.6406" xml:space="preserve" y="550.821" clip-path="url(#clipPath2)" stroke="none">vp</text>
      <rect fill="none" x="546" width="30" height="30" y="531.6667" clip-path="url(#clipPath2)"/>
    </g>
    <g fill="white" text-rendering="geometricPrecision" shape-rendering="geometricPrecision" transform="matrix(1,0,0,1,-344,-312)" stroke="white">
      <rect x="596" width="30" height="30" y="531.6667" clip-path="url(#clipPath2)" stroke="none"/>
    </g>
    <g text-rendering="geometricPrecision" stroke-miterlimit="1.45" shape-rendering="geometricPrecision" font-family="sans-serif" transform="matrix(1,0,0,1,-344,-312)" stroke-linecap="butt">
      <text x="601.1475" xml:space="preserve" y="550.821" clip-path="url(#clipPath2)" stroke="none">det</text>
      <rect fill="none" x="596" width="30" height="30" y="531.6667" clip-path="url(#clipPath2)"/>
    </g>
    <g fill="white" text-rendering="geometricPrecision" shape-rendering="geometricPrecision" transform="matrix(1,0,0,1,-344,-312)" stroke="white">
      <rect x="646" width="30" height="30" y="531.6667" clip-path="url(#clipPath2)" stroke="none"/>
    </g>
    <g text-rendering="geometricPrecision" stroke-miterlimit="1.45" shape-rendering="geometricPrecision" transform="matrix(1,0,0,1,-344,-312)" stroke-linecap="butt">
      <rect fill="none" x="646" width="30" height="30" y="531.6667" clip-path="url(#clipPath2)"/>
    </g>
    <g fill="white" text-rendering="geometricPrecision" shape-rendering="geometricPrecision" transform="matrix(1,0,0,1,-344,-312)" stroke="white">
      <rect x="496" width="30" height="30" y="581.6667" clip-path="url(#clipPath2)" stroke="none"/>
    </g>
    <g text-rendering="geometricPrecision" stroke-miterlimit="1.45" shape-rendering="geometricPrecision" font-family="sans-serif" transform="matrix(1,0,0,1,-344,-312)" stroke-linecap="butt">
      <text x="503.3887" xml:space="preserve" y="600.821" clip-path="url(#clipPath2)" stroke="none">np</text>
      <rect fill="none" x="496" width="30" height="30" y="581.6667" clip-path="url(#clipPath2)"/>
    </g>
    <g fill="white" text-rendering="geometricPrecision" shape-rendering="geometricPrecision" transform="matrix(1,0,0,1,-344,-312)" stroke="white">
      <rect x="546" width="30" height="30" y="581.6667" clip-path="url(#clipPath2)" stroke="none"/>
    </g>
    <g text-rendering="geometricPrecision" stroke-miterlimit="1.45" shape-rendering="geometricPrecision" font-family="sans-serif" transform="matrix(1,0,0,1,-344,-312)" stroke-linecap="butt">
      <text x="547.4824" xml:space="preserve" y="600.821" clip-path="url(#clipPath2)" stroke="none">verb</text>
      <rect fill="none" x="546" width="30" height="30" y="581.6667" clip-path="url(#clipPath2)"/>
    </g>
    <g fill="white" text-rendering="geometricPrecision" shape-rendering="geometricPrecision" transform="matrix(1,0,0,1,-344,-312)" stroke="white">
      <rect x="596" width="30" height="30" y="581.6667" clip-path="url(#clipPath2)" stroke="none"/>
    </g>
    <g text-rendering="geometricPrecision" stroke-miterlimit="1.45" shape-rendering="geometricPrecision" transform="matrix(1,0,0,1,-344,-312)" stroke-linecap="butt">
      <rect fill="none" x="596" width="30" height="30" y="581.6667" clip-path="url(#clipPath2)"/>
    </g>
    <g fill="white" text-rendering="geometricPrecision" shape-rendering="geometricPrecision" transform="matrix(1,0,0,1,-344,-312)" stroke="white">
      <rect x="646" width="30" height="30" y="581.6667" clip-path="url(#clipPath2)" stroke="none"/>
    </g>
    <g text-rendering="geometricPrecision" stroke-miterlimit="1.45" shape-rendering="geometricPrecision" transform="matrix(1,0,0,1,-344,-312)" stroke-linecap="butt">
      <rect fill="none" x="646" width="30" height="30" y="581.6667" clip-path="url(#clipPath2)"/>
    </g>
    <g fill="white" text-rendering="geometricPrecision" shape-rendering="geometricPrecision" transform="matrix(1,0,0,1,-344,-312)" stroke="white">
      <rect x="496" width="30" height="30" y="631.6667" clip-path="url(#clipPath2)" stroke="none"/>
    </g>
    <g text-rendering="geometricPrecision" stroke-miterlimit="1.45" shape-rendering="geometricPrecision" font-family="sans-serif" transform="matrix(1,0,0,1,-344,-312)" stroke-linecap="butt">
      <text x="497.251" xml:space="preserve" y="650.821" clip-path="url(#clipPath2)" stroke="none">pron</text>
      <rect fill="none" x="496" width="30" height="30" y="631.6667" clip-path="url(#clipPath2)"/>
    </g>
    <g fill="white" text-rendering="geometricPrecision" shape-rendering="geometricPrecision" transform="matrix(1,0,0,1,-344,-312)" stroke="white">
      <rect x="546" width="30" height="30" y="631.6667" clip-path="url(#clipPath2)" stroke="none"/>
    </g>
    <g text-rendering="geometricPrecision" stroke-miterlimit="1.45" shape-rendering="geometricPrecision" transform="matrix(1,0,0,1,-344,-312)" stroke-linecap="butt">
      <rect fill="none" x="546" width="30" height="30" y="631.6667" clip-path="url(#clipPath2)"/>
    </g>
    <g fill="white" text-rendering="geometricPrecision" shape-rendering="geometricPrecision" transform="matrix(1,0,0,1,-344,-312)" stroke="white">
      <rect x="596" width="30" height="30" y="631.6667" clip-path="url(#clipPath2)" stroke="none"/>
    </g>
    <g text-rendering="geometricPrecision" stroke-miterlimit="1.45" shape-rendering="geometricPrecision" transform="matrix(1,0,0,1,-344,-312)" stroke-linecap="butt">
      <rect fill="none" x="596" width="30" height="30" y="631.6667" clip-path="url(#clipPath2)"/>
    </g>
    <g fill="white" text-rendering="geometricPrecision" shape-rendering="geometricPrecision" transform="matrix(1,0,0,1,-344,-312)" stroke="white">
      <rect x="646" width="30" height="30" y="631.6667" clip-path="url(#clipPath2)" stroke="none"/>
    </g>
    <g text-rendering="geometricPrecision" stroke-miterlimit="1.45" shape-rendering="geometricPrecision" transform="matrix(1,0,0,1,-344,-312)" stroke-linecap="butt">
      <rect fill="none" x="646" width="30" height="30" y="631.6667" clip-path="url(#clipPath2)"/>
    </g>
    <g fill="white" text-rendering="geometricPrecision" shape-rendering="geometricPrecision" transform="matrix(1,0,0,1,-344,-312)" stroke="white">
      <rect x="496" width="180" height="30" y="379.6667" clip-path="url(#clipPath2)" stroke="none"/>
    </g>
    <g text-rendering="geometricPrecision" stroke-miterlimit="1.45" shape-rendering="geometricPrecision" font-family="sans-serif" transform="matrix(1,0,0,1,-344,-312)" stroke-linecap="butt">
      <text x="560.8896" xml:space="preserve" y="398.821" clip-path="url(#clipPath2)" stroke="none">Step 1.3</text>
      <rect fill="none" x="496" width="180" height="30" y="379.6667" clip-path="url(#clipPath2)"/>
    </g>
    <g fill="white" text-rendering="geometricPrecision" shape-rendering="geometricPrecision" transform="matrix(1,0,0,1,-344,-312)" stroke="white">
      <rect x="359.5" width="453" height="30" y="327.6667" clip-path="url(#clipPath2)" stroke="none"/>
    </g>
    <g text-rendering="geometricPrecision" stroke-miterlimit="1.45" shape-rendering="geometricPrecision" font-family="sans-serif" transform="matrix(1,0,0,1,-344,-312)" stroke-linecap="butt">
      <text x="392.6436" xml:space="preserve" y="346.821" clip-path="url(#clipPath2)" stroke="none">CKY of "I am a Function" - First Permutation: Pron Verb Det Verb</text>
      <rect fill="none" x="359.5" width="453" height="30" y="327.6667" clip-path="url(#clipPath2)"/>
    </g>
    <g fill="white" text-rendering="geometricPrecision" shape-rendering="geometricPrecision" transform="matrix(1,0,0,1,-344,-312)" stroke="white">
      <rect x="359.5" width="453" height="30" y="681.6667" clip-path="url(#clipPath2)" stroke="none"/>
    </g>
    <g text-rendering="geometricPrecision" stroke-miterlimit="1.45" shape-rendering="geometricPrecision" font-family="sans-serif" transform="matrix(1,0,0,1,-344,-312)" stroke-linecap="butt">
      <text x="561.3877" xml:space="preserve" y="700.821" clip-path="url(#clipPath2)" stroke="none">Figure 6</text>
      <rect fill="none" x="359.5" width="453" height="30" y="681.6667" clip-path="url(#clipPath2)"/>
      <path fill="none" d="M661 481.6667 L661 469.6667" clip-path="url(#clipPath2)"/>
      <path d="M661 461.6667 L656 473.6667 L661 470.6667 L666 473.6667 Z" clip-path="url(#clipPath2)" stroke="none"/>
    </g>
    <g text-rendering="geometricPrecision" stroke-miterlimit="1.45" shape-rendering="geometricPrecision" transform="matrix(1,0,0,1,-344,-312)" stroke-linecap="butt">
      <path fill="none" d="M611 511.6667 L604.75 526.6667 L609.5 523.8167 L609.5 531.6667 L612.5 531.6667 L612.5 523.8167 L617.25 526.6667 L611 511.6667 Z" clip-path="url(#clipPath2)"/>
    </g>
    <g text-rendering="geometricPrecision" stroke-miterlimit="1.45" shape-rendering="geometricPrecision" transform="matrix(1,0,0,1,-344,-312)" stroke-linecap="butt">
      <path fill="none" d="M561 581.6667 L561 569.6667" clip-path="url(#clipPath2)"/>
      <path d="M561 561.6667 L556 573.6667 L561 570.6667 L566 573.6667 Z" clip-path="url(#clipPath2)" stroke="none"/>
      <path fill="none" d="M511 631.6667 L511 619.6667" clip-path="url(#clipPath2)"/>
      <path d="M511 611.6667 L506 623.6667 L511 620.6667 L516 623.6667 Z" clip-path="url(#clipPath2)" stroke="none"/>
    </g>
  </g>
</svg>
