<?xml version="1.0" encoding="UTF-8"?><svg xmlns="http://www.w3.org/2000/svg" xmlns:xlink="http://www.w3.org/1999/xlink" fill-opacity="1" color-rendering="auto" color-interpolation="auto" text-rendering="auto" stroke="black" stroke-linecap="square" width="483" stroke-miterlimit="10" shape-rendering="auto" stroke-opacity="1" fill="black" stroke-dasharray="none" font-weight="normal" stroke-width="1" height="415" font-family="'Dialog'" font-style="normal" stroke-linejoin="miter" font-size="12px" stroke-dashoffset="0" image-rendering="auto">
  <!--Generated by ySVG 2.5-->
  <defs id="genericDefs"/>
  <g>
    <defs id="defs1">
      <clipPath clipPathUnits="userSpaceOnUse" id="clipPath1">
        <path d="M0 0 L483 0 L483 415 L0 415 L0 0 Z"/>
      </clipPath>
      <clipPath clipPathUnits="userSpaceOnUse" id="clipPath2">
        <path d="M369 337 L852 337 L852 752 L369 752 L369 337 Z"/>
      </clipPath>
    </defs>
    <g fill="white" text-rendering="geometricPrecision" shape-rendering="geometricPrecision" transform="translate(-369,-337)" stroke="white">
      <rect x="369" width="483" height="415" y="337" clip-path="url(#clipPath2)" stroke="none"/>
    </g>
    <g fill="white" text-rendering="geometricPrecision" shape-rendering="geometricPrecision" transform="matrix(1,0,0,1,-369,-337)" stroke="white">
      <rect x="520.5" width="30" height="30" y="456.3333" clip-path="url(#clipPath2)" stroke="none"/>
    </g>
    <g text-rendering="geometricPrecision" stroke-miterlimit="1.45" shape-rendering="geometricPrecision" transform="matrix(1,0,0,1,-369,-337)" stroke-linecap="butt">
      <rect fill="none" x="520.5" width="30" height="30" y="456.3333" clip-path="url(#clipPath2)"/>
    </g>
    <g fill="white" text-rendering="geometricPrecision" shape-rendering="geometricPrecision" transform="matrix(1,0,0,1,-369,-337)" stroke="white">
      <rect x="570.5" width="30" height="30" y="456.3333" clip-path="url(#clipPath2)" stroke="none"/>
    </g>
    <g text-rendering="geometricPrecision" stroke-miterlimit="1.45" shape-rendering="geometricPrecision" transform="matrix(1,0,0,1,-369,-337)" stroke-linecap="butt">
      <rect fill="none" x="570.5" width="30" height="30" y="456.3333" clip-path="url(#clipPath2)"/>
    </g>
    <g fill="white" text-rendering="geometricPrecision" shape-rendering="geometricPrecision" transform="matrix(1,0,0,1,-369,-337)" stroke="white">
      <rect x="620.5" width="30" height="30" y="456.3333" clip-path="url(#clipPath2)" stroke="none"/>
    </g>
    <g text-rendering="geometricPrecision" stroke-miterlimit="1.45" shape-rendering="geometricPrecision" font-family="sans-serif" transform="matrix(1,0,0,1,-369,-337)" stroke-linecap="butt">
      <text x="627.8887" xml:space="preserve" y="475.4876" clip-path="url(#clipPath2)" stroke="none">np</text>
      <rect fill="none" x="620.5" width="30" height="30" y="456.3333" clip-path="url(#clipPath2)"/>
    </g>
    <g fill="white" text-rendering="geometricPrecision" shape-rendering="geometricPrecision" transform="matrix(1,0,0,1,-369,-337)" stroke="white">
      <rect x="670.5" width="30" height="30" y="456.3333" clip-path="url(#clipPath2)" stroke="none"/>
    </g>
    <g text-rendering="geometricPrecision" stroke-miterlimit="1.45" shape-rendering="geometricPrecision" font-family="sans-serif" transform="matrix(1,0,0,1,-369,-337)" stroke-linecap="butt">
      <text x="672.1816" xml:space="preserve" y="475.4876" clip-path="url(#clipPath2)" stroke="none">nom</text>
      <rect fill="none" x="670.5" width="30" height="30" y="456.3333" clip-path="url(#clipPath2)"/>
    </g>
    <g fill="white" text-rendering="geometricPrecision" shape-rendering="geometricPrecision" transform="matrix(1,0,0,1,-369,-337)" stroke="white">
      <rect x="520.5" width="30" height="30" y="506.3333" clip-path="url(#clipPath2)" stroke="none"/>
    </g>
    <g text-rendering="geometricPrecision" stroke-miterlimit="1.45" shape-rendering="geometricPrecision" font-family="sans-serif" transform="matrix(1,0,0,1,-369,-337)" stroke-linecap="butt">
      <text x="527.8887" xml:space="preserve" y="525.4876" clip-path="url(#clipPath2)" stroke="none">np</text>
      <rect fill="none" x="520.5" width="30" height="30" y="506.3333" clip-path="url(#clipPath2)"/>
    </g>
    <g fill="white" text-rendering="geometricPrecision" shape-rendering="geometricPrecision" transform="matrix(1,0,0,1,-369,-337)" stroke="white">
      <rect x="570.5" width="30" height="30" y="506.3333" clip-path="url(#clipPath2)" stroke="none"/>
    </g>
    <g text-rendering="geometricPrecision" stroke-miterlimit="1.45" shape-rendering="geometricPrecision" font-family="sans-serif" transform="matrix(1,0,0,1,-369,-337)" stroke-linecap="butt">
      <text x="578.1406" xml:space="preserve" y="525.4876" clip-path="url(#clipPath2)" stroke="none">vp</text>
      <rect fill="none" x="570.5" width="30" height="30" y="506.3333" clip-path="url(#clipPath2)"/>
    </g>
    <g fill="white" text-rendering="geometricPrecision" shape-rendering="geometricPrecision" transform="matrix(1,0,0,1,-369,-337)" stroke="white">
      <rect x="620.5" width="30" height="30" y="506.3333" clip-path="url(#clipPath2)" stroke="none"/>
    </g>
    <g text-rendering="geometricPrecision" stroke-miterlimit="1.45" shape-rendering="geometricPrecision" font-family="sans-serif" transform="matrix(1,0,0,1,-369,-337)" stroke-linecap="butt">
      <text x="625.6475" xml:space="preserve" y="525.4876" clip-path="url(#clipPath2)" stroke="none">det</text>
      <rect fill="none" x="620.5" width="30" height="30" y="506.3333" clip-path="url(#clipPath2)"/>
    </g>
    <g fill="white" text-rendering="geometricPrecision" shape-rendering="geometricPrecision" transform="matrix(1,0,0,1,-369,-337)" stroke="white">
      <rect x="670.5" width="30" height="30" y="506.3333" clip-path="url(#clipPath2)" stroke="none"/>
    </g>
    <g text-rendering="geometricPrecision" stroke-miterlimit="1.45" shape-rendering="geometricPrecision" font-family="sans-serif" transform="matrix(1,0,0,1,-369,-337)" stroke-linecap="butt">
      <text x="670.4209" xml:space="preserve" y="525.4876" clip-path="url(#clipPath2)" stroke="none">noun</text>
      <rect fill="none" x="670.5" width="30" height="30" y="506.3333" clip-path="url(#clipPath2)"/>
    </g>
    <g fill="white" text-rendering="geometricPrecision" shape-rendering="geometricPrecision" transform="matrix(1,0,0,1,-369,-337)" stroke="white">
      <rect x="520.5" width="30" height="30" y="556.3333" clip-path="url(#clipPath2)" stroke="none"/>
    </g>
    <g text-rendering="geometricPrecision" stroke-miterlimit="1.45" shape-rendering="geometricPrecision" font-family="sans-serif" transform="matrix(1,0,0,1,-369,-337)" stroke-linecap="butt">
      <text x="527.8887" xml:space="preserve" y="575.4876" clip-path="url(#clipPath2)" stroke="none">np</text>
      <rect fill="none" x="520.5" width="30" height="30" y="556.3333" clip-path="url(#clipPath2)"/>
    </g>
    <g fill="white" text-rendering="geometricPrecision" shape-rendering="geometricPrecision" transform="matrix(1,0,0,1,-369,-337)" stroke="white">
      <rect x="570.5" width="30" height="30" y="556.3333" clip-path="url(#clipPath2)" stroke="none"/>
    </g>
    <g text-rendering="geometricPrecision" stroke-miterlimit="1.45" shape-rendering="geometricPrecision" font-family="sans-serif" transform="matrix(1,0,0,1,-369,-337)" stroke-linecap="butt">
      <text x="578.1406" xml:space="preserve" y="575.4876" clip-path="url(#clipPath2)" stroke="none">vp</text>
      <rect fill="none" x="570.5" width="30" height="30" y="556.3333" clip-path="url(#clipPath2)"/>
    </g>
    <g fill="white" text-rendering="geometricPrecision" shape-rendering="geometricPrecision" transform="matrix(1,0,0,1,-369,-337)" stroke="white">
      <rect x="620.5" width="30" height="30" y="556.3333" clip-path="url(#clipPath2)" stroke="none"/>
    </g>
    <g text-rendering="geometricPrecision" stroke-miterlimit="1.45" shape-rendering="geometricPrecision" font-family="sans-serif" transform="matrix(1,0,0,1,-369,-337)" stroke-linecap="butt">
      <text x="625.6475" xml:space="preserve" y="575.4876" clip-path="url(#clipPath2)" stroke="none">det</text>
      <rect fill="none" x="620.5" width="30" height="30" y="556.3333" clip-path="url(#clipPath2)"/>
    </g>
    <g fill="white" text-rendering="geometricPrecision" shape-rendering="geometricPrecision" transform="matrix(1,0,0,1,-369,-337)" stroke="white">
      <rect x="670.5" width="30" height="30" y="556.3333" clip-path="url(#clipPath2)" stroke="none"/>
    </g>
    <g text-rendering="geometricPrecision" stroke-miterlimit="1.45" shape-rendering="geometricPrecision" transform="matrix(1,0,0,1,-369,-337)" stroke-linecap="butt">
      <rect fill="none" x="670.5" width="30" height="30" y="556.3333" clip-path="url(#clipPath2)"/>
    </g>
    <g fill="white" text-rendering="geometricPrecision" shape-rendering="geometricPrecision" transform="matrix(1,0,0,1,-369,-337)" stroke="white">
      <rect x="520.5" width="30" height="30" y="606.3333" clip-path="url(#clipPath2)" stroke="none"/>
    </g>
    <g text-rendering="geometricPrecision" stroke-miterlimit="1.45" shape-rendering="geometricPrecision" font-family="sans-serif" transform="matrix(1,0,0,1,-369,-337)" stroke-linecap="butt">
      <text x="527.8887" xml:space="preserve" y="625.4876" clip-path="url(#clipPath2)" stroke="none">np</text>
      <rect fill="none" x="520.5" width="30" height="30" y="606.3333" clip-path="url(#clipPath2)"/>
    </g>
    <g fill="white" text-rendering="geometricPrecision" shape-rendering="geometricPrecision" transform="matrix(1,0,0,1,-369,-337)" stroke="white">
      <rect x="570.5" width="30" height="30" y="606.3333" clip-path="url(#clipPath2)" stroke="none"/>
    </g>
    <g text-rendering="geometricPrecision" stroke-miterlimit="1.45" shape-rendering="geometricPrecision" font-family="sans-serif" transform="matrix(1,0,0,1,-369,-337)" stroke-linecap="butt">
      <text x="571.9824" xml:space="preserve" y="625.4876" clip-path="url(#clipPath2)" stroke="none">verb</text>
      <rect fill="none" x="570.5" width="30" height="30" y="606.3333" clip-path="url(#clipPath2)"/>
    </g>
    <g fill="white" text-rendering="geometricPrecision" shape-rendering="geometricPrecision" transform="matrix(1,0,0,1,-369,-337)" stroke="white">
      <rect x="620.5" width="30" height="30" y="606.3333" clip-path="url(#clipPath2)" stroke="none"/>
    </g>
    <g text-rendering="geometricPrecision" stroke-miterlimit="1.45" shape-rendering="geometricPrecision" transform="matrix(1,0,0,1,-369,-337)" stroke-linecap="butt">
      <rect fill="none" x="620.5" width="30" height="30" y="606.3333" clip-path="url(#clipPath2)"/>
    </g>
    <g fill="white" text-rendering="geometricPrecision" shape-rendering="geometricPrecision" transform="matrix(1,0,0,1,-369,-337)" stroke="white">
      <rect x="670.5" width="30" height="30" y="606.3333" clip-path="url(#clipPath2)" stroke="none"/>
    </g>
    <g text-rendering="geometricPrecision" stroke-miterlimit="1.45" shape-rendering="geometricPrecision" transform="matrix(1,0,0,1,-369,-337)" stroke-linecap="butt">
      <rect fill="none" x="670.5" width="30" height="30" y="606.3333" clip-path="url(#clipPath2)"/>
    </g>
    <g fill="white" text-rendering="geometricPrecision" shape-rendering="geometricPrecision" transform="matrix(1,0,0,1,-369,-337)" stroke="white">
      <rect x="520.5" width="30" height="30" y="656.3333" clip-path="url(#clipPath2)" stroke="none"/>
    </g>
    <g text-rendering="geometricPrecision" stroke-miterlimit="1.45" shape-rendering="geometricPrecision" font-family="sans-serif" transform="matrix(1,0,0,1,-369,-337)" stroke-linecap="butt">
      <text x="521.751" xml:space="preserve" y="675.4876" clip-path="url(#clipPath2)" stroke="none">pron</text>
      <rect fill="none" x="520.5" width="30" height="30" y="656.3333" clip-path="url(#clipPath2)"/>
    </g>
    <g fill="white" text-rendering="geometricPrecision" shape-rendering="geometricPrecision" transform="matrix(1,0,0,1,-369,-337)" stroke="white">
      <rect x="570.5" width="30" height="30" y="656.3333" clip-path="url(#clipPath2)" stroke="none"/>
    </g>
    <g text-rendering="geometricPrecision" stroke-miterlimit="1.45" shape-rendering="geometricPrecision" transform="matrix(1,0,0,1,-369,-337)" stroke-linecap="butt">
      <rect fill="none" x="570.5" width="30" height="30" y="656.3333" clip-path="url(#clipPath2)"/>
    </g>
    <g fill="white" text-rendering="geometricPrecision" shape-rendering="geometricPrecision" transform="matrix(1,0,0,1,-369,-337)" stroke="white">
      <rect x="620.5" width="30" height="30" y="656.3333" clip-path="url(#clipPath2)" stroke="none"/>
    </g>
    <g text-rendering="geometricPrecision" stroke-miterlimit="1.45" shape-rendering="geometricPrecision" transform="matrix(1,0,0,1,-369,-337)" stroke-linecap="butt">
      <rect fill="none" x="620.5" width="30" height="30" y="656.3333" clip-path="url(#clipPath2)"/>
    </g>
    <g fill="white" text-rendering="geometricPrecision" shape-rendering="geometricPrecision" transform="matrix(1,0,0,1,-369,-337)" stroke="white">
      <rect x="670.5" width="30" height="30" y="656.3333" clip-path="url(#clipPath2)" stroke="none"/>
    </g>
    <g text-rendering="geometricPrecision" stroke-miterlimit="1.45" shape-rendering="geometricPrecision" transform="matrix(1,0,0,1,-369,-337)" stroke-linecap="butt">
      <rect fill="none" x="670.5" width="30" height="30" y="656.3333" clip-path="url(#clipPath2)"/>
    </g>
    <g fill="white" text-rendering="geometricPrecision" shape-rendering="geometricPrecision" transform="matrix(1,0,0,1,-369,-337)" stroke="white">
      <rect x="520.5" width="180" height="30" y="404.3333" clip-path="url(#clipPath2)" stroke="none"/>
    </g>
    <g text-rendering="geometricPrecision" stroke-miterlimit="1.45" shape-rendering="geometricPrecision" font-family="sans-serif" transform="matrix(1,0,0,1,-369,-337)" stroke-linecap="butt">
      <text x="585.3896" xml:space="preserve" y="423.4876" clip-path="url(#clipPath2)" stroke="none">Step 3.0</text>
      <rect fill="none" x="520.5" width="180" height="30" y="404.3333" clip-path="url(#clipPath2)"/>
    </g>
    <g fill="white" text-rendering="geometricPrecision" shape-rendering="geometricPrecision" transform="matrix(1,0,0,1,-369,-337)" stroke="white">
      <rect x="384" width="453" height="30" y="352.3333" clip-path="url(#clipPath2)" stroke="none"/>
    </g>
    <g text-rendering="geometricPrecision" stroke-miterlimit="1.45" shape-rendering="geometricPrecision" font-family="sans-serif" transform="matrix(1,0,0,1,-369,-337)" stroke-linecap="butt">
      <text x="406.4326" xml:space="preserve" y="371.4876" clip-path="url(#clipPath2)" stroke="none">CKY of "I am a Function" - Second Permutation: Pron Verb Det Noun</text>
      <rect fill="none" x="384" width="453" height="30" y="352.3333" clip-path="url(#clipPath2)"/>
    </g>
    <g fill="white" text-rendering="geometricPrecision" shape-rendering="geometricPrecision" transform="matrix(1,0,0,1,-369,-337)" stroke="white">
      <rect x="384" width="453" height="30" y="706.3333" clip-path="url(#clipPath2)" stroke="none"/>
    </g>
    <g text-rendering="geometricPrecision" stroke-miterlimit="1.45" shape-rendering="geometricPrecision" font-family="sans-serif" transform="matrix(1,0,0,1,-369,-337)" stroke-linecap="butt">
      <text x="582.0703" xml:space="preserve" y="725.4876" clip-path="url(#clipPath2)" stroke="none">Figure 21</text>
      <rect fill="none" x="384" width="453" height="30" y="706.3333" clip-path="url(#clipPath2)"/>
      <path fill="none" d="M670.5 471.3333 L658.5 471.3333" clip-path="url(#clipPath2)"/>
      <path d="M650.5 471.3333 L662.5 476.3333 L659.5 471.3333 L662.5 466.3333 Z" clip-path="url(#clipPath2)" stroke="none"/>
      <path fill="none" d="M635.5 506.3333 L635.5 494.3333" clip-path="url(#clipPath2)"/>
      <path d="M635.5 486.3333 L630.5 498.3333 L635.5 495.3333 L640.5 498.3333 Z" clip-path="url(#clipPath2)" stroke="none"/>
      <path fill="none" d="M685.5 506.3333 L685.5 494.3333" clip-path="url(#clipPath2)"/>
      <path d="M685.5 486.3333 L680.5 498.3333 L685.5 495.3333 L690.5 498.3333 Z" clip-path="url(#clipPath2)" stroke="none"/>
    </g>
    <g text-rendering="geometricPrecision" stroke-miterlimit="1.45" shape-rendering="geometricPrecision" transform="matrix(1,0,0,1,-369,-337)" stroke-linecap="butt">
      <path fill="none" d="M535.5 536.3333 L529.25 551.3333 L534 548.4833 L534 556.3333 L537 556.3333 L537 548.4833 L541.75 551.3333 L535.5 536.3333 Z" clip-path="url(#clipPath2)"/>
    </g>
    <g text-rendering="geometricPrecision" stroke-miterlimit="1.45" shape-rendering="geometricPrecision" transform="matrix(1,0,0,1,-369,-337)" stroke-linecap="butt">
      <path fill="none" d="M585.5 536.3333 L579.25 551.3333 L584 548.4833 L584 556.3333 L587 556.3333 L587 548.4833 L591.75 551.3333 L585.5 536.3333 Z" clip-path="url(#clipPath2)"/>
    </g>
    <g text-rendering="geometricPrecision" stroke-miterlimit="1.45" shape-rendering="geometricPrecision" transform="matrix(1,0,0,1,-369,-337)" stroke-linecap="butt">
      <path fill="none" d="M635.5 536.3333 L629.25 551.3333 L634 548.4833 L634 556.3333 L637 556.3333 L637 548.4833 L641.75 551.3333 L635.5 536.3333 Z" clip-path="url(#clipPath2)"/>
    </g>
    <g text-rendering="geometricPrecision" stroke-miterlimit="1.45" shape-rendering="geometricPrecision" transform="matrix(1,0,0,1,-369,-337)" stroke-linecap="butt">
      <path fill="none" d="M535.5 586.3333 L529.25 601.3333 L534 598.4833 L534 606.3333 L537 606.3333 L537 598.4833 L541.75 601.3333 L535.5 586.3333 Z" clip-path="url(#clipPath2)"/>
    </g>
    <g text-rendering="geometricPrecision" stroke-miterlimit="1.45" shape-rendering="geometricPrecision" transform="matrix(1,0,0,1,-369,-337)" stroke-linecap="butt">
      <path fill="none" d="M585.5 606.3333 L585.5 594.3333" clip-path="url(#clipPath2)"/>
      <path d="M585.5 586.3333 L580.5 598.3333 L585.5 595.3333 L590.5 598.3333 Z" clip-path="url(#clipPath2)" stroke="none"/>
      <path fill="none" d="M535.5 656.3333 L535.5 644.3333" clip-path="url(#clipPath2)"/>
      <path d="M535.5 636.3333 L530.5 648.3333 L535.5 645.3333 L540.5 648.3333 Z" clip-path="url(#clipPath2)" stroke="none"/>
    </g>
  </g>
</svg>
