<?xml version="1.0" encoding="UTF-8"?><svg xmlns="http://www.w3.org/2000/svg" xmlns:xlink="http://www.w3.org/1999/xlink" fill-opacity="1" color-rendering="auto" color-interpolation="auto" text-rendering="auto" stroke="black" stroke-linecap="square" width="484" stroke-miterlimit="10" shape-rendering="auto" stroke-opacity="1" fill="black" stroke-dasharray="none" font-weight="normal" stroke-width="1" height="415" font-family="'Dialog'" font-style="normal" stroke-linejoin="miter" font-size="12px" stroke-dashoffset="0" image-rendering="auto">
  <!--Generated by ySVG 2.5-->
  <defs id="genericDefs"/>
  <g>
    <defs id="defs1">
      <clipPath clipPathUnits="userSpaceOnUse" id="clipPath1">
        <path d="M0 0 L484 0 L484 415 L0 415 L0 0 Z"/>
      </clipPath>
      <clipPath clipPathUnits="userSpaceOnUse" id="clipPath2">
        <path d="M369 337 L853 337 L853 752 L369 752 L369 337 Z"/>
      </clipPath>
    </defs>
    <g fill="white" text-rendering="geometricPrecision" shape-rendering="geometricPrecision" transform="translate(-369,-337)" stroke="white">
      <rect x="369" width="484" height="415" y="337" clip-path="url(#clipPath2)" stroke="none"/>
    </g>
    <g fill="white" text-rendering="geometricPrecision" shape-rendering="geometricPrecision" transform="matrix(1,0,0,1,-369,-337)" stroke="white">
      <rect x="521" width="30" height="30" y="456" clip-path="url(#clipPath2)" stroke="none"/>
    </g>
    <g text-rendering="geometricPrecision" stroke-miterlimit="1.45" shape-rendering="geometricPrecision" transform="matrix(1,0,0,1,-369,-337)" stroke-linecap="butt">
      <rect fill="none" x="521" width="30" height="30" y="456" clip-path="url(#clipPath2)"/>
    </g>
    <g fill="white" text-rendering="geometricPrecision" shape-rendering="geometricPrecision" transform="matrix(1,0,0,1,-369,-337)" stroke="white">
      <rect x="571" width="30" height="30" y="456" clip-path="url(#clipPath2)" stroke="none"/>
    </g>
    <g text-rendering="geometricPrecision" stroke-miterlimit="1.45" shape-rendering="geometricPrecision" transform="matrix(1,0,0,1,-369,-337)" stroke-linecap="butt">
      <rect fill="none" x="571" width="30" height="30" y="456" clip-path="url(#clipPath2)"/>
    </g>
    <g fill="white" text-rendering="geometricPrecision" shape-rendering="geometricPrecision" transform="matrix(1,0,0,1,-369,-337)" stroke="white">
      <rect x="621" width="30" height="30" y="456" clip-path="url(#clipPath2)" stroke="none"/>
    </g>
    <g text-rendering="geometricPrecision" stroke-miterlimit="1.45" shape-rendering="geometricPrecision" transform="matrix(1,0,0,1,-369,-337)" stroke-linecap="butt">
      <rect fill="none" x="621" width="30" height="30" y="456" clip-path="url(#clipPath2)"/>
    </g>
    <g fill="white" text-rendering="geometricPrecision" shape-rendering="geometricPrecision" transform="matrix(1,0,0,1,-369,-337)" stroke="white">
      <rect x="671" width="30" height="30" y="456" clip-path="url(#clipPath2)" stroke="none"/>
    </g>
    <g text-rendering="geometricPrecision" stroke-miterlimit="1.45" shape-rendering="geometricPrecision" font-family="sans-serif" transform="matrix(1,0,0,1,-369,-337)" stroke-linecap="butt">
      <text x="678.6406" xml:space="preserve" y="475.1543" clip-path="url(#clipPath2)" stroke="none">vp</text>
      <rect fill="none" x="671" width="30" height="30" y="456" clip-path="url(#clipPath2)"/>
    </g>
    <g fill="white" text-rendering="geometricPrecision" shape-rendering="geometricPrecision" transform="matrix(1,0,0,1,-369,-337)" stroke="white">
      <rect x="521" width="30" height="30" y="506" clip-path="url(#clipPath2)" stroke="none"/>
    </g>
    <g text-rendering="geometricPrecision" stroke-miterlimit="1.45" shape-rendering="geometricPrecision" transform="matrix(1,0,0,1,-369,-337)" stroke-linecap="butt">
      <rect fill="none" x="521" width="30" height="30" y="506" clip-path="url(#clipPath2)"/>
    </g>
    <g fill="white" text-rendering="geometricPrecision" shape-rendering="geometricPrecision" transform="matrix(1,0,0,1,-369,-337)" stroke="white">
      <rect x="571" width="30" height="30" y="506" clip-path="url(#clipPath2)" stroke="none"/>
    </g>
    <g text-rendering="geometricPrecision" stroke-miterlimit="1.45" shape-rendering="geometricPrecision" transform="matrix(1,0,0,1,-369,-337)" stroke-linecap="butt">
      <rect fill="none" x="571" width="30" height="30" y="506" clip-path="url(#clipPath2)"/>
    </g>
    <g fill="white" text-rendering="geometricPrecision" shape-rendering="geometricPrecision" transform="matrix(1,0,0,1,-369,-337)" stroke="white">
      <rect x="621" width="30" height="30" y="506" clip-path="url(#clipPath2)" stroke="none"/>
    </g>
    <g text-rendering="geometricPrecision" stroke-miterlimit="1.45" shape-rendering="geometricPrecision" font-family="sans-serif" transform="matrix(1,0,0,1,-369,-337)" stroke-linecap="butt">
      <text x="626.1475" xml:space="preserve" y="525.1543" clip-path="url(#clipPath2)" stroke="none">det</text>
      <rect fill="none" x="621" width="30" height="30" y="506" clip-path="url(#clipPath2)"/>
    </g>
    <g fill="white" text-rendering="geometricPrecision" shape-rendering="geometricPrecision" transform="matrix(1,0,0,1,-369,-337)" stroke="white">
      <rect x="671" width="30" height="30" y="506" clip-path="url(#clipPath2)" stroke="none"/>
    </g>
    <g text-rendering="geometricPrecision" stroke-miterlimit="1.45" shape-rendering="geometricPrecision" font-family="sans-serif" transform="matrix(1,0,0,1,-369,-337)" stroke-linecap="butt">
      <text x="672.4824" xml:space="preserve" y="525.1543" clip-path="url(#clipPath2)" stroke="none">verb</text>
      <rect fill="none" x="671" width="30" height="30" y="506" clip-path="url(#clipPath2)"/>
    </g>
    <g fill="white" text-rendering="geometricPrecision" shape-rendering="geometricPrecision" transform="matrix(1,0,0,1,-369,-337)" stroke="white">
      <rect x="521" width="30" height="30" y="556" clip-path="url(#clipPath2)" stroke="none"/>
    </g>
    <g text-rendering="geometricPrecision" stroke-miterlimit="1.45" shape-rendering="geometricPrecision" font-family="sans-serif" transform="matrix(1,0,0,1,-369,-337)" stroke-linecap="butt">
      <text x="528.3887" xml:space="preserve" y="575.1543" clip-path="url(#clipPath2)" stroke="none">np</text>
      <rect fill="none" x="521" width="30" height="30" y="556" clip-path="url(#clipPath2)"/>
    </g>
    <g fill="white" text-rendering="geometricPrecision" shape-rendering="geometricPrecision" transform="matrix(1,0,0,1,-369,-337)" stroke="white">
      <rect x="571" width="30" height="30" y="556" clip-path="url(#clipPath2)" stroke="none"/>
    </g>
    <g text-rendering="geometricPrecision" stroke-miterlimit="1.45" shape-rendering="geometricPrecision" font-family="sans-serif" transform="matrix(1,0,0,1,-369,-337)" stroke-linecap="butt">
      <text x="578.6406" xml:space="preserve" y="575.1543" clip-path="url(#clipPath2)" stroke="none">vp</text>
      <rect fill="none" x="571" width="30" height="30" y="556" clip-path="url(#clipPath2)"/>
    </g>
    <g fill="white" text-rendering="geometricPrecision" shape-rendering="geometricPrecision" transform="matrix(1,0,0,1,-369,-337)" stroke="white">
      <rect x="621" width="30" height="30" y="556" clip-path="url(#clipPath2)" stroke="none"/>
    </g>
    <g text-rendering="geometricPrecision" stroke-miterlimit="1.45" shape-rendering="geometricPrecision" font-family="sans-serif" transform="matrix(1,0,0,1,-369,-337)" stroke-linecap="butt">
      <text x="626.1475" xml:space="preserve" y="575.1543" clip-path="url(#clipPath2)" stroke="none">det</text>
      <rect fill="none" x="621" width="30" height="30" y="556" clip-path="url(#clipPath2)"/>
    </g>
    <g fill="white" text-rendering="geometricPrecision" shape-rendering="geometricPrecision" transform="matrix(1,0,0,1,-369,-337)" stroke="white">
      <rect x="671" width="30" height="30" y="556" clip-path="url(#clipPath2)" stroke="none"/>
    </g>
    <g text-rendering="geometricPrecision" stroke-miterlimit="1.45" shape-rendering="geometricPrecision" transform="matrix(1,0,0,1,-369,-337)" stroke-linecap="butt">
      <rect fill="none" x="671" width="30" height="30" y="556" clip-path="url(#clipPath2)"/>
    </g>
    <g fill="white" text-rendering="geometricPrecision" shape-rendering="geometricPrecision" transform="matrix(1,0,0,1,-369,-337)" stroke="white">
      <rect x="521" width="30" height="30" y="606" clip-path="url(#clipPath2)" stroke="none"/>
    </g>
    <g text-rendering="geometricPrecision" stroke-miterlimit="1.45" shape-rendering="geometricPrecision" font-family="sans-serif" transform="matrix(1,0,0,1,-369,-337)" stroke-linecap="butt">
      <text x="528.3887" xml:space="preserve" y="625.1543" clip-path="url(#clipPath2)" stroke="none">np</text>
      <rect fill="none" x="521" width="30" height="30" y="606" clip-path="url(#clipPath2)"/>
    </g>
    <g fill="white" text-rendering="geometricPrecision" shape-rendering="geometricPrecision" transform="matrix(1,0,0,1,-369,-337)" stroke="white">
      <rect x="571" width="30" height="30" y="606" clip-path="url(#clipPath2)" stroke="none"/>
    </g>
    <g text-rendering="geometricPrecision" stroke-miterlimit="1.45" shape-rendering="geometricPrecision" font-family="sans-serif" transform="matrix(1,0,0,1,-369,-337)" stroke-linecap="butt">
      <text x="572.4824" xml:space="preserve" y="625.1543" clip-path="url(#clipPath2)" stroke="none">verb</text>
      <rect fill="none" x="571" width="30" height="30" y="606" clip-path="url(#clipPath2)"/>
    </g>
    <g fill="white" text-rendering="geometricPrecision" shape-rendering="geometricPrecision" transform="matrix(1,0,0,1,-369,-337)" stroke="white">
      <rect x="621" width="30" height="30" y="606" clip-path="url(#clipPath2)" stroke="none"/>
    </g>
    <g text-rendering="geometricPrecision" stroke-miterlimit="1.45" shape-rendering="geometricPrecision" transform="matrix(1,0,0,1,-369,-337)" stroke-linecap="butt">
      <rect fill="none" x="621" width="30" height="30" y="606" clip-path="url(#clipPath2)"/>
    </g>
    <g fill="white" text-rendering="geometricPrecision" shape-rendering="geometricPrecision" transform="matrix(1,0,0,1,-369,-337)" stroke="white">
      <rect x="671" width="30" height="30" y="606" clip-path="url(#clipPath2)" stroke="none"/>
    </g>
    <g text-rendering="geometricPrecision" stroke-miterlimit="1.45" shape-rendering="geometricPrecision" transform="matrix(1,0,0,1,-369,-337)" stroke-linecap="butt">
      <rect fill="none" x="671" width="30" height="30" y="606" clip-path="url(#clipPath2)"/>
    </g>
    <g fill="white" text-rendering="geometricPrecision" shape-rendering="geometricPrecision" transform="matrix(1,0,0,1,-369,-337)" stroke="white">
      <rect x="521" width="30" height="30" y="656" clip-path="url(#clipPath2)" stroke="none"/>
    </g>
    <g text-rendering="geometricPrecision" stroke-miterlimit="1.45" shape-rendering="geometricPrecision" font-family="sans-serif" transform="matrix(1,0,0,1,-369,-337)" stroke-linecap="butt">
      <text x="522.251" xml:space="preserve" y="675.1543" clip-path="url(#clipPath2)" stroke="none">pron</text>
      <rect fill="none" x="521" width="30" height="30" y="656" clip-path="url(#clipPath2)"/>
    </g>
    <g fill="white" text-rendering="geometricPrecision" shape-rendering="geometricPrecision" transform="matrix(1,0,0,1,-369,-337)" stroke="white">
      <rect x="571" width="30" height="30" y="656" clip-path="url(#clipPath2)" stroke="none"/>
    </g>
    <g text-rendering="geometricPrecision" stroke-miterlimit="1.45" shape-rendering="geometricPrecision" transform="matrix(1,0,0,1,-369,-337)" stroke-linecap="butt">
      <rect fill="none" x="571" width="30" height="30" y="656" clip-path="url(#clipPath2)"/>
    </g>
    <g fill="white" text-rendering="geometricPrecision" shape-rendering="geometricPrecision" transform="matrix(1,0,0,1,-369,-337)" stroke="white">
      <rect x="621" width="30" height="30" y="656" clip-path="url(#clipPath2)" stroke="none"/>
    </g>
    <g text-rendering="geometricPrecision" stroke-miterlimit="1.45" shape-rendering="geometricPrecision" transform="matrix(1,0,0,1,-369,-337)" stroke-linecap="butt">
      <rect fill="none" x="621" width="30" height="30" y="656" clip-path="url(#clipPath2)"/>
    </g>
    <g fill="white" text-rendering="geometricPrecision" shape-rendering="geometricPrecision" transform="matrix(1,0,0,1,-369,-337)" stroke="white">
      <rect x="671" width="30" height="30" y="656" clip-path="url(#clipPath2)" stroke="none"/>
    </g>
    <g text-rendering="geometricPrecision" stroke-miterlimit="1.45" shape-rendering="geometricPrecision" transform="matrix(1,0,0,1,-369,-337)" stroke-linecap="butt">
      <rect fill="none" x="671" width="30" height="30" y="656" clip-path="url(#clipPath2)"/>
    </g>
    <g fill="white" text-rendering="geometricPrecision" shape-rendering="geometricPrecision" transform="matrix(1,0,0,1,-369,-337)" stroke="white">
      <rect x="521" width="180" height="30" y="404" clip-path="url(#clipPath2)" stroke="none"/>
    </g>
    <g text-rendering="geometricPrecision" stroke-miterlimit="1.45" shape-rendering="geometricPrecision" font-family="sans-serif" transform="matrix(1,0,0,1,-369,-337)" stroke-linecap="butt">
      <text x="585.8896" xml:space="preserve" y="423.1543" clip-path="url(#clipPath2)" stroke="none">Step 2.0</text>
      <rect fill="none" x="521" width="180" height="30" y="404" clip-path="url(#clipPath2)"/>
    </g>
    <g fill="white" text-rendering="geometricPrecision" shape-rendering="geometricPrecision" transform="matrix(1,0,0,1,-369,-337)" stroke="white">
      <rect x="384.5" width="453" height="30" y="352" clip-path="url(#clipPath2)" stroke="none"/>
    </g>
    <g text-rendering="geometricPrecision" stroke-miterlimit="1.45" shape-rendering="geometricPrecision" font-family="sans-serif" transform="matrix(1,0,0,1,-369,-337)" stroke-linecap="butt">
      <text x="417.6436" xml:space="preserve" y="371.1543" clip-path="url(#clipPath2)" stroke="none">CKY of "I am a Function" - First Permutation: Pron Verb Det Verb</text>
      <rect fill="none" x="384.5" width="453" height="30" y="352" clip-path="url(#clipPath2)"/>
    </g>
    <g fill="white" text-rendering="geometricPrecision" shape-rendering="geometricPrecision" transform="matrix(1,0,0,1,-369,-337)" stroke="white">
      <rect x="384.5" width="453" height="30" y="706" clip-path="url(#clipPath2)" stroke="none"/>
    </g>
    <g text-rendering="geometricPrecision" stroke-miterlimit="1.45" shape-rendering="geometricPrecision" font-family="sans-serif" transform="matrix(1,0,0,1,-369,-337)" stroke-linecap="butt">
      <text x="586.3877" xml:space="preserve" y="725.1543" clip-path="url(#clipPath2)" stroke="none">Figure 7</text>
      <rect fill="none" x="384.5" width="453" height="30" y="706" clip-path="url(#clipPath2)"/>
      <path fill="none" d="M686 506 L686 494" clip-path="url(#clipPath2)"/>
      <path d="M686 486 L681 498 L686 495 L691 498 Z" clip-path="url(#clipPath2)" stroke="none"/>
    </g>
    <g text-rendering="geometricPrecision" stroke-miterlimit="1.45" shape-rendering="geometricPrecision" transform="matrix(1,0,0,1,-369,-337)" stroke-linecap="butt">
      <path fill="none" d="M636 536 L629.75 551 L634.5 548.15 L634.5 556 L637.5 556 L637.5 548.15 L642.25 551 L636 536 Z" clip-path="url(#clipPath2)"/>
    </g>
    <g text-rendering="geometricPrecision" stroke-miterlimit="1.45" shape-rendering="geometricPrecision" transform="matrix(1,0,0,1,-369,-337)" stroke-linecap="butt">
      <path fill="none" d="M536 586 L529.75 601 L534.5 598.15 L534.5 606 L537.5 606 L537.5 598.15 L542.25 601 L536 586 Z" clip-path="url(#clipPath2)"/>
    </g>
    <g text-rendering="geometricPrecision" stroke-miterlimit="1.45" shape-rendering="geometricPrecision" transform="matrix(1,0,0,1,-369,-337)" stroke-linecap="butt">
      <path fill="none" d="M586 606 L586 594" clip-path="url(#clipPath2)"/>
      <path d="M586 586 L581 598 L586 595 L591 598 Z" clip-path="url(#clipPath2)" stroke="none"/>
      <path fill="none" d="M536 656 L536 644" clip-path="url(#clipPath2)"/>
      <path d="M536 636 L531 648 L536 645 L541 648 Z" clip-path="url(#clipPath2)" stroke="none"/>
    </g>
  </g>
</svg>
