<?xml version="1.0" encoding="UTF-8"?><svg xmlns="http://www.w3.org/2000/svg" xmlns:xlink="http://www.w3.org/1999/xlink" fill-opacity="1" color-rendering="auto" color-interpolation="auto" text-rendering="auto" stroke="black" stroke-linecap="square" width="703" stroke-miterlimit="10" shape-rendering="auto" stroke-opacity="1" fill="black" stroke-dasharray="none" font-weight="normal" stroke-width="1" height="365" font-family="'Dialog'" font-style="normal" stroke-linejoin="miter" font-size="12px" stroke-dashoffset="0" image-rendering="auto">
  <!--Generated by ySVG 2.5-->
  <defs id="genericDefs"/>
  <g>
    <defs id="defs1">
      <clipPath clipPathUnits="userSpaceOnUse" id="clipPath1">
        <path d="M0 0 L703 0 L703 365 L0 365 L0 0 Z"/>
      </clipPath>
      <clipPath clipPathUnits="userSpaceOnUse" id="clipPath2">
        <path d="M430 314 L1133 314 L1133 679 L430 679 L430 314 Z"/>
      </clipPath>
    </defs>
    <g fill="white" text-rendering="geometricPrecision" shape-rendering="geometricPrecision" transform="translate(-430,-314)" stroke="white">
      <rect x="430" width="703" height="365" y="314" clip-path="url(#clipPath2)" stroke="none"/>
    </g>
    <g font-size="15px" stroke-linecap="butt" transform="matrix(1,0,0,1,-430,-314)" text-rendering="geometricPrecision" font-family="sans-serif" shape-rendering="geometricPrecision" stroke-miterlimit="1.45">
      <text x="691.9767" xml:space="preserve" y="405.2863" clip-path="url(#clipPath2)" stroke="none">Iteration #10</text>
      <rect x="445.0255" y="389.363" clip-path="url(#clipPath2)" fill="none" width="349" stroke-dasharray="6,2" rx="4" ry="4" height="171.4609"/>
    </g>
    <g fill="white" text-rendering="geometricPrecision" shape-rendering="geometricPrecision" transform="matrix(1,0,0,1,-430,-314)" stroke="white">
      <rect x="708.0255" width="71" height="30" y="425.8239" clip-path="url(#clipPath2)" stroke="none"/>
    </g>
    <g text-rendering="geometricPrecision" stroke-miterlimit="1.45" shape-rendering="geometricPrecision" font-family="sans-serif" transform="matrix(1,0,0,1,-430,-314)" stroke-linecap="butt">
      <text x="732.5861" xml:space="preserve" y="444.9782" clip-path="url(#clipPath2)" stroke="none">null</text>
      <rect fill="none" x="708.0255" width="71" height="30" y="425.8239" clip-path="url(#clipPath2)"/>
    </g>
    <g fill="white" text-rendering="geometricPrecision" shape-rendering="geometricPrecision" transform="matrix(1,0,0,1,-430,-314)" stroke="white">
      <rect x="637.0255" width="71" height="30" y="425.8239" clip-path="url(#clipPath2)" stroke="none"/>
    </g>
    <g text-rendering="geometricPrecision" stroke-miterlimit="1.45" shape-rendering="geometricPrecision" font-family="sans-serif" transform="matrix(1,0,0,1,-430,-314)" stroke-linecap="butt">
      <text x="661.5861" xml:space="preserve" y="444.9782" clip-path="url(#clipPath2)" stroke="none">null</text>
      <rect fill="none" x="637.0255" width="71" height="30" y="425.8239" clip-path="url(#clipPath2)"/>
    </g>
    <g transform="matrix(1,0,0,1,-430,-314)" fill-opacity="0.0588" fill="rgb(0,0,0)" text-rendering="geometricPrecision" shape-rendering="geometricPrecision" stroke="rgb(0,0,0)" stroke-opacity="0.0588">
      <rect x="566.0255" width="71" height="30" y="425.8239" clip-path="url(#clipPath2)" stroke="none"/>
    </g>
    <g stroke-linecap="butt" transform="matrix(1,0,0,1,-430,-314)" text-rendering="geometricPrecision" font-family="sans-serif" shape-rendering="geometricPrecision" font-style="italic" font-weight="bold" stroke-miterlimit="1.45">
      <text x="585.8781" xml:space="preserve" y="444.9782" clip-path="url(#clipPath2)" stroke="none">pron</text>
      <rect fill="none" x="566.0255" width="71" height="30" y="425.8239" clip-path="url(#clipPath2)"/>
    </g>
    <g fill="white" text-rendering="geometricPrecision" shape-rendering="geometricPrecision" transform="matrix(1,0,0,1,-430,-314)" stroke="white">
      <rect x="460.0255" width="71" height="30" y="425.8239" clip-path="url(#clipPath2)" stroke="none"/>
    </g>
    <g text-rendering="geometricPrecision" stroke-miterlimit="1.45" shape-rendering="geometricPrecision" font-family="sans-serif" transform="matrix(1,0,0,1,-430,-314)" stroke-linecap="butt">
      <text x="493.756" xml:space="preserve" y="444.9782" clip-path="url(#clipPath2)" stroke="none">I</text>
      <rect fill="none" x="460.0255" width="71" height="30" y="425.8239" clip-path="url(#clipPath2)"/>
    </g>
    <g fill="white" text-rendering="geometricPrecision" shape-rendering="geometricPrecision" transform="matrix(1,0,0,1,-430,-314)" stroke="white">
      <rect x="708.0255" width="71" height="30" y="455.8239" clip-path="url(#clipPath2)" stroke="none"/>
    </g>
    <g text-rendering="geometricPrecision" stroke-miterlimit="1.45" shape-rendering="geometricPrecision" font-family="sans-serif" transform="matrix(1,0,0,1,-430,-314)" stroke-linecap="butt">
      <text x="732.5861" xml:space="preserve" y="474.9782" clip-path="url(#clipPath2)" stroke="none">null</text>
      <rect fill="none" x="708.0255" width="71" height="30" y="455.8239" clip-path="url(#clipPath2)"/>
    </g>
    <g transform="matrix(1,0,0,1,-430,-314)" fill-opacity="0.0588" fill="rgb(0,0,0)" text-rendering="geometricPrecision" shape-rendering="geometricPrecision" stroke="rgb(0,0,0)" stroke-opacity="0.0588">
      <rect x="637.0255" width="71" height="30" y="455.8239" clip-path="url(#clipPath2)" stroke="none"/>
    </g>
    <g stroke-linecap="butt" transform="matrix(1,0,0,1,-430,-314)" text-rendering="geometricPrecision" font-family="sans-serif" shape-rendering="geometricPrecision" font-style="italic" font-weight="bold" stroke-miterlimit="1.45">
      <text x="659.8693" xml:space="preserve" y="474.9782" clip-path="url(#clipPath2)" stroke="none">null</text>
      <rect fill="none" x="637.0255" width="71" height="30" y="455.8239" clip-path="url(#clipPath2)"/>
      <text x="588.0079" y="474.9782" clip-path="url(#clipPath2)" font-style="normal" stroke="none" font-weight="normal" xml:space="preserve">verb</text>
      <rect fill="none" x="566.0255" width="71" height="30" y="455.8239" clip-path="url(#clipPath2)"/>
    </g>
    <g fill="white" text-rendering="geometricPrecision" shape-rendering="geometricPrecision" transform="matrix(1,0,0,1,-430,-314)" stroke="white">
      <rect x="460.0255" width="71" height="30" y="455.8239" clip-path="url(#clipPath2)" stroke="none"/>
    </g>
    <g text-rendering="geometricPrecision" stroke-miterlimit="1.45" shape-rendering="geometricPrecision" font-family="sans-serif" transform="matrix(1,0,0,1,-430,-314)" stroke-linecap="butt">
      <text x="485.5763" xml:space="preserve" y="474.9782" clip-path="url(#clipPath2)" stroke="none">Am</text>
      <rect fill="none" x="460.0255" width="71" height="30" y="455.8239" clip-path="url(#clipPath2)"/>
    </g>
    <g fill="white" text-rendering="geometricPrecision" shape-rendering="geometricPrecision" transform="matrix(1,0,0,1,-430,-314)" stroke="white">
      <rect x="708.0255" width="71" height="30" y="485.8239" clip-path="url(#clipPath2)" stroke="none"/>
    </g>
    <g text-rendering="geometricPrecision" stroke-miterlimit="1.45" shape-rendering="geometricPrecision" font-family="sans-serif" transform="matrix(1,0,0,1,-430,-314)" stroke-linecap="butt">
      <text x="732.5861" xml:space="preserve" y="504.9782" clip-path="url(#clipPath2)" stroke="none">null</text>
      <rect fill="none" x="708.0255" width="71" height="30" y="485.8239" clip-path="url(#clipPath2)"/>
      <text x="661.5861" xml:space="preserve" y="504.9782" clip-path="url(#clipPath2)" stroke="none">null</text>
      <rect fill="none" x="637.0255" width="71" height="30" y="485.8239" clip-path="url(#clipPath2)"/>
    </g>
    <g transform="matrix(1,0,0,1,-430,-314)" fill-opacity="0.0588" fill="rgb(0,0,0)" text-rendering="geometricPrecision" shape-rendering="geometricPrecision" stroke="rgb(0,0,0)" stroke-opacity="0.0588">
      <rect x="566.0255" width="71" height="30" y="485.8239" clip-path="url(#clipPath2)" stroke="none"/>
    </g>
    <g stroke-linecap="butt" transform="matrix(1,0,0,1,-430,-314)" text-rendering="geometricPrecision" font-family="sans-serif" shape-rendering="geometricPrecision" font-style="italic" font-weight="bold" stroke-miterlimit="1.45">
      <text x="590.2931" xml:space="preserve" y="504.9782" clip-path="url(#clipPath2)" stroke="none">det</text>
      <rect fill="none" x="566.0255" width="71" height="30" y="485.8239" clip-path="url(#clipPath2)"/>
    </g>
    <g fill="white" text-rendering="geometricPrecision" shape-rendering="geometricPrecision" transform="matrix(1,0,0,1,-430,-314)" stroke="white">
      <rect x="460.0255" width="71" height="30" y="485.8239" clip-path="url(#clipPath2)" stroke="none"/>
    </g>
    <g text-rendering="geometricPrecision" stroke-miterlimit="1.45" shape-rendering="geometricPrecision" font-family="sans-serif" transform="matrix(1,0,0,1,-430,-314)" stroke-linecap="butt">
      <text x="491.421" xml:space="preserve" y="504.9782" clip-path="url(#clipPath2)" stroke="none">A</text>
      <rect fill="none" x="460.0255" width="71" height="30" y="485.8239" clip-path="url(#clipPath2)"/>
      <text x="732.5861" xml:space="preserve" y="534.9782" clip-path="url(#clipPath2)" stroke="none">null</text>
      <rect fill="none" x="708.0255" width="71" height="30" y="515.8239" clip-path="url(#clipPath2)"/>
      <text x="657.4464" xml:space="preserve" y="534.9782" clip-path="url(#clipPath2)" stroke="none">noun</text>
      <rect fill="none" x="637.0255" width="71" height="30" y="515.8239" clip-path="url(#clipPath2)"/>
    </g>
    <g transform="matrix(1,0,0,1,-430,-314)" fill-opacity="0.0588" fill="rgb(0,0,0)" text-rendering="geometricPrecision" shape-rendering="geometricPrecision" stroke="rgb(0,0,0)" stroke-opacity="0.0588">
      <rect x="566.0255" width="71" height="30" y="515.8239" clip-path="url(#clipPath2)" stroke="none"/>
    </g>
    <g stroke-linecap="butt" transform="matrix(1,0,0,1,-430,-314)" text-rendering="geometricPrecision" font-family="sans-serif" shape-rendering="geometricPrecision" font-style="italic" font-weight="bold" stroke-miterlimit="1.45">
      <text x="586.2911" xml:space="preserve" y="534.9782" clip-path="url(#clipPath2)" stroke="none">verb</text>
      <rect fill="none" x="566.0255" width="71" height="30" y="515.8239" clip-path="url(#clipPath2)"/>
    </g>
    <g fill="white" text-rendering="geometricPrecision" shape-rendering="geometricPrecision" transform="matrix(1,0,0,1,-430,-314)" stroke="white">
      <rect x="460.0255" width="71" height="30" y="515.8239" clip-path="url(#clipPath2)" stroke="none"/>
    </g>
    <g text-rendering="geometricPrecision" stroke-miterlimit="1.45" shape-rendering="geometricPrecision" font-family="sans-serif" transform="matrix(1,0,0,1,-430,-314)" stroke-linecap="butt">
      <text x="469.6769" xml:space="preserve" y="534.9782" clip-path="url(#clipPath2)" stroke="none">Function</text>
      <rect fill="none" x="460.0255" width="71" height="30" y="515.8239" clip-path="url(#clipPath2)"/>
    </g>
    <g fill="white" text-rendering="geometricPrecision" shape-rendering="geometricPrecision" transform="matrix(1,0,0,1,-430,-314)" stroke="white">
      <rect x="1046.3571" width="71" height="30" y="460.0934" clip-path="url(#clipPath2)" stroke="none"/>
    </g>
    <g text-rendering="geometricPrecision" stroke-miterlimit="1.45" shape-rendering="geometricPrecision" font-family="sans-serif" transform="matrix(1,0,0,1,-430,-314)" stroke-linecap="butt">
      <text x="1068.3396" xml:space="preserve" y="479.2477" clip-path="url(#clipPath2)" stroke="none">verb</text>
      <rect fill="none" x="1046.3571" width="71" height="30" y="460.0934" clip-path="url(#clipPath2)"/>
    </g>
    <g fill="white" text-rendering="geometricPrecision" shape-rendering="geometricPrecision" transform="matrix(1,0,0,1,-430,-314)" stroke="white">
      <rect x="975.3571" width="71" height="30" y="460.0934" clip-path="url(#clipPath2)" stroke="none"/>
    </g>
    <g text-rendering="geometricPrecision" stroke-miterlimit="1.45" shape-rendering="geometricPrecision" font-family="sans-serif" transform="matrix(1,0,0,1,-430,-314)" stroke-linecap="butt">
      <text x="1001.0046" xml:space="preserve" y="479.2477" clip-path="url(#clipPath2)" stroke="none">det</text>
      <rect fill="none" x="975.3571" width="71" height="30" y="460.0934" clip-path="url(#clipPath2)"/>
    </g>
    <g fill="white" text-rendering="geometricPrecision" shape-rendering="geometricPrecision" transform="matrix(1,0,0,1,-430,-314)" stroke="white">
      <rect x="904.3571" width="71" height="30" y="460.0934" clip-path="url(#clipPath2)" stroke="none"/>
    </g>
    <g text-rendering="geometricPrecision" stroke-miterlimit="1.45" shape-rendering="geometricPrecision" font-family="sans-serif" transform="matrix(1,0,0,1,-430,-314)" stroke-linecap="butt">
      <text x="928.9177" xml:space="preserve" y="479.2477" clip-path="url(#clipPath2)" stroke="none">null</text>
      <rect fill="none" x="904.3571" width="71" height="30" y="460.0934" clip-path="url(#clipPath2)"/>
    </g>
    <g fill="white" text-rendering="geometricPrecision" shape-rendering="geometricPrecision" transform="matrix(1,0,0,1,-430,-314)" stroke="white">
      <rect x="833.3571" width="71" height="30" y="460.0934" clip-path="url(#clipPath2)" stroke="none"/>
    </g>
    <g text-rendering="geometricPrecision" stroke-miterlimit="1.45" shape-rendering="geometricPrecision" font-family="sans-serif" transform="matrix(1,0,0,1,-430,-314)" stroke-linecap="butt">
      <text x="855.1081" xml:space="preserve" y="479.2477" clip-path="url(#clipPath2)" stroke="none">pron</text>
      <rect fill="none" x="833.3571" width="71" height="30" y="460.0934" clip-path="url(#clipPath2)"/>
    </g>
    <g fill="white" text-rendering="geometricPrecision" shape-rendering="geometricPrecision" transform="matrix(1,0,0,1,-430,-314)" stroke="white">
      <rect x="445.0255" width="672.6962" height="30" y="329.363" clip-path="url(#clipPath2)" stroke="none"/>
    </g>
    <g text-rendering="geometricPrecision" stroke-miterlimit="1.45" shape-rendering="geometricPrecision" font-family="sans-serif" transform="matrix(1,0,0,1,-430,-314)" stroke-linecap="butt">
      <text x="513.1402" xml:space="preserve" y="348.5172" clip-path="url(#clipPath2)" stroke="none">Apply iterate(), and iterate over tokens to generate permutations of tokenized sentences</text>
      <rect fill="none" x="445.0255" width="672.6962" height="30" y="329.363" clip-path="url(#clipPath2)"/>
    </g>
    <g fill="white" text-rendering="geometricPrecision" shape-rendering="geometricPrecision" transform="matrix(1,0,0,1,-430,-314)" stroke="white">
      <rect x="445.0255" width="672.6962" height="30" y="582.2848" clip-path="url(#clipPath2)" stroke="none"/>
    </g>
    <g text-rendering="geometricPrecision" stroke-miterlimit="1.45" shape-rendering="geometricPrecision" font-family="sans-serif" transform="matrix(1,0,0,1,-430,-314)" stroke-linecap="butt">
      <text x="752.9439" xml:space="preserve" y="601.4391" clip-path="url(#clipPath2)" stroke="none">Figure 41</text>
      <rect fill="none" x="445.0255" width="672.6962" height="30" y="582.2848" clip-path="url(#clipPath2)"/>
    </g>
    <g fill="white" text-rendering="geometricPrecision" shape-rendering="geometricPrecision" transform="matrix(1,0,0,1,-430,-314)" stroke="white">
      <rect x="445.0255" width="672.6962" height="30" y="633.7458" clip-path="url(#clipPath2)" stroke="none"/>
    </g>
    <g text-rendering="geometricPrecision" stroke-miterlimit="1.45" shape-rendering="geometricPrecision" font-family="sans-serif" transform="matrix(1,0,0,1,-430,-314)" stroke-linecap="butt">
      <text x="752.9439" xml:space="preserve" y="652.9001" clip-path="url(#clipPath2)" stroke="none">Figure 46</text>
      <rect fill="none" x="445.0255" width="672.6962" height="30" y="633.7458" clip-path="url(#clipPath2)"/>
      <path fill="none" d="M794.015 475.0934 L825.3571 475.0934" clip-path="url(#clipPath2)"/>
      <path d="M833.3571 475.0934 L821.3571 470.0934 L824.3571 475.0934 L821.3571 480.0934 Z" clip-path="url(#clipPath2)" stroke="none"/>
    </g>
  </g>
</svg>
