<?xml version="1.0" encoding="UTF-8"?><svg xmlns="http://www.w3.org/2000/svg" xmlns:xlink="http://www.w3.org/1999/xlink" fill-opacity="1" color-rendering="auto" color-interpolation="auto" text-rendering="auto" stroke="black" stroke-linecap="square" width="487" stroke-miterlimit="10" shape-rendering="auto" stroke-opacity="1" fill="black" stroke-dasharray="none" font-weight="normal" stroke-width="1" height="429" font-family="'Dialog'" font-style="normal" stroke-linejoin="miter" font-size="12px" stroke-dashoffset="0" image-rendering="auto">
  <!--Generated by ySVG 2.5-->
  <defs id="genericDefs"/>
  <g>
    <defs id="defs1">
      <clipPath clipPathUnits="userSpaceOnUse" id="clipPath1">
        <path d="M0 0 L487 0 L487 429 L0 429 L0 0 Z"/>
      </clipPath>
      <clipPath clipPathUnits="userSpaceOnUse" id="clipPath2">
        <path d="M10 10 L497 10 L497 439 L10 439 L10 10 Z"/>
      </clipPath>
    </defs>
    <g fill="white" text-rendering="geometricPrecision" shape-rendering="geometricPrecision" transform="translate(-10,-10)" stroke="white">
      <rect x="10" width="487" height="429" y="10" clip-path="url(#clipPath2)" stroke="none"/>
    </g>
    <g fill="white" text-rendering="geometricPrecision" shape-rendering="geometricPrecision" transform="matrix(1,0,0,1,-10,-10)" stroke="white">
      <rect x="298.5" width="30" height="30" y="143.3333" clip-path="url(#clipPath2)" stroke="none"/>
    </g>
    <g text-rendering="geometricPrecision" stroke-miterlimit="1.45" shape-rendering="geometricPrecision" transform="matrix(1,0,0,1,-10,-10)" stroke-linecap="butt">
      <rect fill="none" x="298.5" width="30" height="30" y="143.3333" clip-path="url(#clipPath2)"/>
    </g>
    <g fill="white" text-rendering="geometricPrecision" shape-rendering="geometricPrecision" transform="matrix(1,0,0,1,-10,-10)" stroke="white">
      <rect x="348.5" width="30" height="30" y="143.3333" clip-path="url(#clipPath2)" stroke="none"/>
    </g>
    <g text-rendering="geometricPrecision" stroke-miterlimit="1.45" shape-rendering="geometricPrecision" transform="matrix(1,0,0,1,-10,-10)" stroke-linecap="butt">
      <rect fill="none" x="348.5" width="30" height="30" y="143.3333" clip-path="url(#clipPath2)"/>
    </g>
    <g fill="white" text-rendering="geometricPrecision" shape-rendering="geometricPrecision" transform="matrix(1,0,0,1,-10,-10)" stroke="white">
      <rect x="398.5" width="30" height="30" y="143.3333" clip-path="url(#clipPath2)" stroke="none"/>
    </g>
    <g text-rendering="geometricPrecision" stroke-miterlimit="1.45" shape-rendering="geometricPrecision" transform="matrix(1,0,0,1,-10,-10)" stroke-linecap="butt">
      <rect fill="none" x="398.5" width="30" height="30" y="143.3333" clip-path="url(#clipPath2)"/>
    </g>
    <g fill="white" text-rendering="geometricPrecision" shape-rendering="geometricPrecision" transform="matrix(1,0,0,1,-10,-10)" stroke="white">
      <rect x="448.5" width="30" height="30" y="143.3333" clip-path="url(#clipPath2)" stroke="none"/>
    </g>
    <g text-rendering="geometricPrecision" stroke-miterlimit="1.45" shape-rendering="geometricPrecision" transform="matrix(1,0,0,1,-10,-10)" stroke-linecap="butt">
      <rect fill="none" x="448.5" width="30" height="30" y="143.3333" clip-path="url(#clipPath2)"/>
    </g>
    <g fill="white" text-rendering="geometricPrecision" shape-rendering="geometricPrecision" transform="matrix(1,0,0,1,-10,-10)" stroke="white">
      <rect x="298.5" width="30" height="30" y="193.3333" clip-path="url(#clipPath2)" stroke="none"/>
    </g>
    <g text-rendering="geometricPrecision" stroke-miterlimit="1.45" shape-rendering="geometricPrecision" transform="matrix(1,0,0,1,-10,-10)" stroke-linecap="butt">
      <rect fill="none" x="298.5" width="30" height="30" y="193.3333" clip-path="url(#clipPath2)"/>
    </g>
    <g fill="white" text-rendering="geometricPrecision" shape-rendering="geometricPrecision" transform="matrix(1,0,0,1,-10,-10)" stroke="white">
      <rect x="348.5" width="30" height="30" y="193.3333" clip-path="url(#clipPath2)" stroke="none"/>
    </g>
    <g text-rendering="geometricPrecision" stroke-miterlimit="1.45" shape-rendering="geometricPrecision" transform="matrix(1,0,0,1,-10,-10)" stroke-linecap="butt">
      <rect fill="none" x="348.5" width="30" height="30" y="193.3333" clip-path="url(#clipPath2)"/>
    </g>
    <g fill="white" text-rendering="geometricPrecision" shape-rendering="geometricPrecision" transform="matrix(1,0,0,1,-10,-10)" stroke="white">
      <rect x="398.5" width="30" height="30" y="193.3333" clip-path="url(#clipPath2)" stroke="none"/>
    </g>
    <g text-rendering="geometricPrecision" stroke-miterlimit="1.45" shape-rendering="geometricPrecision" transform="matrix(1,0,0,1,-10,-10)" stroke-linecap="butt">
      <rect fill="none" x="398.5" width="30" height="30" y="193.3333" clip-path="url(#clipPath2)"/>
    </g>
    <g fill="white" text-rendering="geometricPrecision" shape-rendering="geometricPrecision" transform="matrix(1,0,0,1,-10,-10)" stroke="white">
      <rect x="448.5" width="30" height="30" y="193.3333" clip-path="url(#clipPath2)" stroke="none"/>
    </g>
    <g text-rendering="geometricPrecision" stroke-miterlimit="1.45" shape-rendering="geometricPrecision" font-family="sans-serif" transform="matrix(1,0,0,1,-10,-10)" stroke-linecap="butt">
      <text x="447.7354" xml:space="preserve" y="212.4876" clip-path="url(#clipPath2)" stroke="none">Noun</text>
      <rect fill="none" x="448.5" width="30" height="30" y="193.3333" clip-path="url(#clipPath2)"/>
    </g>
    <g fill="white" text-rendering="geometricPrecision" shape-rendering="geometricPrecision" transform="matrix(1,0,0,1,-10,-10)" stroke="white">
      <rect x="298.5" width="30" height="30" y="243.3333" clip-path="url(#clipPath2)" stroke="none"/>
    </g>
    <g text-rendering="geometricPrecision" stroke-miterlimit="1.45" shape-rendering="geometricPrecision" transform="matrix(1,0,0,1,-10,-10)" stroke-linecap="butt">
      <rect fill="none" x="298.5" width="30" height="30" y="243.3333" clip-path="url(#clipPath2)"/>
    </g>
    <g fill="white" text-rendering="geometricPrecision" shape-rendering="geometricPrecision" transform="matrix(1,0,0,1,-10,-10)" stroke="white">
      <rect x="348.5" width="30" height="30" y="243.3333" clip-path="url(#clipPath2)" stroke="none"/>
    </g>
    <g text-rendering="geometricPrecision" stroke-miterlimit="1.45" shape-rendering="geometricPrecision" transform="matrix(1,0,0,1,-10,-10)" stroke-linecap="butt">
      <rect fill="none" x="348.5" width="30" height="30" y="243.3333" clip-path="url(#clipPath2)"/>
    </g>
    <g fill="white" text-rendering="geometricPrecision" shape-rendering="geometricPrecision" transform="matrix(1,0,0,1,-10,-10)" stroke="white">
      <rect x="398.5" width="30" height="30" y="243.3333" clip-path="url(#clipPath2)" stroke="none"/>
    </g>
    <g text-rendering="geometricPrecision" stroke-miterlimit="1.45" shape-rendering="geometricPrecision" font-family="sans-serif" transform="matrix(1,0,0,1,-10,-10)" stroke-linecap="butt">
      <text x="403.6475" xml:space="preserve" y="262.4876" clip-path="url(#clipPath2)" stroke="none">det</text>
      <rect fill="none" x="398.5" width="30" height="30" y="243.3333" clip-path="url(#clipPath2)"/>
    </g>
    <g fill="white" text-rendering="geometricPrecision" shape-rendering="geometricPrecision" transform="matrix(1,0,0,1,-10,-10)" stroke="white">
      <rect x="448.5" width="30" height="30" y="243.3333" clip-path="url(#clipPath2)" stroke="none"/>
    </g>
    <g text-rendering="geometricPrecision" stroke-miterlimit="1.45" shape-rendering="geometricPrecision" transform="matrix(1,0,0,1,-10,-10)" stroke-linecap="butt">
      <rect fill="none" x="448.5" width="30" height="30" y="243.3333" clip-path="url(#clipPath2)"/>
    </g>
    <g fill="white" text-rendering="geometricPrecision" shape-rendering="geometricPrecision" transform="matrix(1,0,0,1,-10,-10)" stroke="white">
      <rect x="298.5" width="30" height="30" y="293.3333" clip-path="url(#clipPath2)" stroke="none"/>
    </g>
    <g text-rendering="geometricPrecision" stroke-miterlimit="1.45" shape-rendering="geometricPrecision" transform="matrix(1,0,0,1,-10,-10)" stroke-linecap="butt">
      <rect fill="none" x="298.5" width="30" height="30" y="293.3333" clip-path="url(#clipPath2)"/>
    </g>
    <g fill="white" text-rendering="geometricPrecision" shape-rendering="geometricPrecision" transform="matrix(1,0,0,1,-10,-10)" stroke="white">
      <rect x="348.5" width="30" height="30" y="293.3333" clip-path="url(#clipPath2)" stroke="none"/>
    </g>
    <g text-rendering="geometricPrecision" stroke-miterlimit="1.45" shape-rendering="geometricPrecision" font-family="sans-serif" transform="matrix(1,0,0,1,-10,-10)" stroke-linecap="butt">
      <text x="349.9824" xml:space="preserve" y="312.4876" clip-path="url(#clipPath2)" stroke="none">verb</text>
      <rect fill="none" x="348.5" width="30" height="30" y="293.3333" clip-path="url(#clipPath2)"/>
    </g>
    <g fill="white" text-rendering="geometricPrecision" shape-rendering="geometricPrecision" transform="matrix(1,0,0,1,-10,-10)" stroke="white">
      <rect x="398.5" width="30" height="30" y="293.3333" clip-path="url(#clipPath2)" stroke="none"/>
    </g>
    <g text-rendering="geometricPrecision" stroke-miterlimit="1.45" shape-rendering="geometricPrecision" transform="matrix(1,0,0,1,-10,-10)" stroke-linecap="butt">
      <rect fill="none" x="398.5" width="30" height="30" y="293.3333" clip-path="url(#clipPath2)"/>
    </g>
    <g fill="white" text-rendering="geometricPrecision" shape-rendering="geometricPrecision" transform="matrix(1,0,0,1,-10,-10)" stroke="white">
      <rect x="448.5" width="30" height="30" y="293.3333" clip-path="url(#clipPath2)" stroke="none"/>
    </g>
    <g text-rendering="geometricPrecision" stroke-miterlimit="1.45" shape-rendering="geometricPrecision" transform="matrix(1,0,0,1,-10,-10)" stroke-linecap="butt">
      <rect fill="none" x="448.5" width="30" height="30" y="293.3333" clip-path="url(#clipPath2)"/>
    </g>
    <g fill="white" text-rendering="geometricPrecision" shape-rendering="geometricPrecision" transform="matrix(1,0,0,1,-10,-10)" stroke="white">
      <rect x="298.5" width="30" height="30" y="343.3333" clip-path="url(#clipPath2)" stroke="none"/>
    </g>
    <g text-rendering="geometricPrecision" stroke-miterlimit="1.45" shape-rendering="geometricPrecision" font-family="sans-serif" transform="matrix(1,0,0,1,-10,-10)" stroke-linecap="butt">
      <text x="299.751" xml:space="preserve" y="362.4876" clip-path="url(#clipPath2)" stroke="none">pron</text>
      <rect fill="none" x="298.5" width="30" height="30" y="343.3333" clip-path="url(#clipPath2)"/>
    </g>
    <g fill="white" text-rendering="geometricPrecision" shape-rendering="geometricPrecision" transform="matrix(1,0,0,1,-10,-10)" stroke="white">
      <rect x="348.5" width="30" height="30" y="343.3333" clip-path="url(#clipPath2)" stroke="none"/>
    </g>
    <g text-rendering="geometricPrecision" stroke-miterlimit="1.45" shape-rendering="geometricPrecision" transform="matrix(1,0,0,1,-10,-10)" stroke-linecap="butt">
      <rect fill="none" x="348.5" width="30" height="30" y="343.3333" clip-path="url(#clipPath2)"/>
    </g>
    <g fill="white" text-rendering="geometricPrecision" shape-rendering="geometricPrecision" transform="matrix(1,0,0,1,-10,-10)" stroke="white">
      <rect x="398.5" width="30" height="30" y="343.3333" clip-path="url(#clipPath2)" stroke="none"/>
    </g>
    <g text-rendering="geometricPrecision" stroke-miterlimit="1.45" shape-rendering="geometricPrecision" transform="matrix(1,0,0,1,-10,-10)" stroke-linecap="butt">
      <rect fill="none" x="398.5" width="30" height="30" y="343.3333" clip-path="url(#clipPath2)"/>
    </g>
    <g fill="white" text-rendering="geometricPrecision" shape-rendering="geometricPrecision" transform="matrix(1,0,0,1,-10,-10)" stroke="white">
      <rect x="448.5" width="30" height="30" y="343.3333" clip-path="url(#clipPath2)" stroke="none"/>
    </g>
    <g text-rendering="geometricPrecision" stroke-miterlimit="1.45" shape-rendering="geometricPrecision" transform="matrix(1,0,0,1,-10,-10)" stroke-linecap="butt">
      <rect fill="none" x="448.5" width="30" height="30" y="343.3333" clip-path="url(#clipPath2)"/>
    </g>
    <g fill="white" text-rendering="geometricPrecision" shape-rendering="geometricPrecision" transform="matrix(1,0,0,1,-10,-10)" stroke="white">
      <rect x="298.5" width="180" height="30" y="91.3333" clip-path="url(#clipPath2)" stroke="none"/>
    </g>
    <g text-rendering="geometricPrecision" stroke-miterlimit="1.45" shape-rendering="geometricPrecision" font-family="sans-serif" transform="matrix(1,0,0,1,-10,-10)" stroke-linecap="butt">
      <text x="305.4873" xml:space="preserve" y="110.4876" clip-path="url(#clipPath2)" stroke="none">Step 0: populate the matrix</text>
      <rect fill="none" x="298.5" width="180" height="30" y="91.3333" clip-path="url(#clipPath2)"/>
    </g>
    <g fill="white" text-rendering="geometricPrecision" shape-rendering="geometricPrecision" transform="matrix(1,0,0,1,-10,-10)" stroke="white">
      <rect x="25.5" width="453" height="30" y="25.2486" clip-path="url(#clipPath2)" stroke="none"/>
    </g>
    <g text-rendering="geometricPrecision" stroke-miterlimit="1.45" shape-rendering="geometricPrecision" font-family="sans-serif" transform="matrix(1,0,0,1,-10,-10)" stroke-linecap="butt">
      <text x="47.9326" xml:space="preserve" y="44.4029" clip-path="url(#clipPath2)" stroke="none">CKY of "I am a Function" - Second Permutation: Pron Verb Det Noun</text>
      <rect fill="none" x="25.5" width="453" height="30" y="25.2486" clip-path="url(#clipPath2)"/>
    </g>
    <g fill="white" text-rendering="geometricPrecision" shape-rendering="geometricPrecision" transform="matrix(1,0,0,1,-10,-10)" stroke="white">
      <rect x="25.5" width="30" height="30" y="143.3333" clip-path="url(#clipPath2)" stroke="none"/>
    </g>
    <g text-rendering="geometricPrecision" stroke-miterlimit="1.45" shape-rendering="geometricPrecision" transform="matrix(1,0,0,1,-10,-10)" stroke-linecap="butt">
      <rect fill="none" x="25.5" width="30" height="30" y="143.3333" clip-path="url(#clipPath2)"/>
    </g>
    <g fill="white" text-rendering="geometricPrecision" shape-rendering="geometricPrecision" transform="matrix(1,0,0,1,-10,-10)" stroke="white">
      <rect x="75.5" width="30" height="30" y="143.3333" clip-path="url(#clipPath2)" stroke="none"/>
    </g>
    <g text-rendering="geometricPrecision" stroke-miterlimit="1.45" shape-rendering="geometricPrecision" transform="matrix(1,0,0,1,-10,-10)" stroke-linecap="butt">
      <rect fill="none" x="75.5" width="30" height="30" y="143.3333" clip-path="url(#clipPath2)"/>
    </g>
    <g fill="white" text-rendering="geometricPrecision" shape-rendering="geometricPrecision" transform="matrix(1,0,0,1,-10,-10)" stroke="white">
      <rect x="125.5" width="30" height="30" y="143.3333" clip-path="url(#clipPath2)" stroke="none"/>
    </g>
    <g text-rendering="geometricPrecision" stroke-miterlimit="1.45" shape-rendering="geometricPrecision" transform="matrix(1,0,0,1,-10,-10)" stroke-linecap="butt">
      <rect fill="none" x="125.5" width="30" height="30" y="143.3333" clip-path="url(#clipPath2)"/>
    </g>
    <g fill="white" text-rendering="geometricPrecision" shape-rendering="geometricPrecision" transform="matrix(1,0,0,1,-10,-10)" stroke="white">
      <rect x="175.5" width="30" height="30" y="143.3333" clip-path="url(#clipPath2)" stroke="none"/>
    </g>
    <g text-rendering="geometricPrecision" stroke-miterlimit="1.45" shape-rendering="geometricPrecision" transform="matrix(1,0,0,1,-10,-10)" stroke-linecap="butt">
      <rect fill="none" x="175.5" width="30" height="30" y="143.3333" clip-path="url(#clipPath2)"/>
    </g>
    <g fill="white" text-rendering="geometricPrecision" shape-rendering="geometricPrecision" transform="matrix(1,0,0,1,-10,-10)" stroke="white">
      <rect x="25.5" width="30" height="30" y="193.3333" clip-path="url(#clipPath2)" stroke="none"/>
    </g>
    <g text-rendering="geometricPrecision" stroke-miterlimit="1.45" shape-rendering="geometricPrecision" transform="matrix(1,0,0,1,-10,-10)" stroke-linecap="butt">
      <rect fill="none" x="25.5" width="30" height="30" y="193.3333" clip-path="url(#clipPath2)"/>
    </g>
    <g fill="white" text-rendering="geometricPrecision" shape-rendering="geometricPrecision" transform="matrix(1,0,0,1,-10,-10)" stroke="white">
      <rect x="75.5" width="30" height="30" y="193.3333" clip-path="url(#clipPath2)" stroke="none"/>
    </g>
    <g text-rendering="geometricPrecision" stroke-miterlimit="1.45" shape-rendering="geometricPrecision" transform="matrix(1,0,0,1,-10,-10)" stroke-linecap="butt">
      <rect fill="none" x="75.5" width="30" height="30" y="193.3333" clip-path="url(#clipPath2)"/>
    </g>
    <g fill="white" text-rendering="geometricPrecision" shape-rendering="geometricPrecision" transform="matrix(1,0,0,1,-10,-10)" stroke="white">
      <rect x="125.5" width="30" height="30" y="193.3333" clip-path="url(#clipPath2)" stroke="none"/>
    </g>
    <g text-rendering="geometricPrecision" stroke-miterlimit="1.45" shape-rendering="geometricPrecision" transform="matrix(1,0,0,1,-10,-10)" stroke-linecap="butt">
      <rect fill="none" x="125.5" width="30" height="30" y="193.3333" clip-path="url(#clipPath2)"/>
    </g>
    <g fill="white" text-rendering="geometricPrecision" shape-rendering="geometricPrecision" transform="matrix(1,0,0,1,-10,-10)" stroke="white">
      <rect x="175.5" width="30" height="30" y="193.3333" clip-path="url(#clipPath2)" stroke="none"/>
    </g>
    <g text-rendering="geometricPrecision" stroke-miterlimit="1.45" shape-rendering="geometricPrecision" font-family="sans-serif" transform="matrix(1,0,0,1,-10,-10)" stroke-linecap="butt">
      <text x="164.6514" xml:space="preserve" y="212.4876" clip-path="url(#clipPath2)" stroke="none">Function</text>
      <rect fill="none" x="175.5" width="30" height="30" y="193.3333" clip-path="url(#clipPath2)"/>
    </g>
    <g fill="white" text-rendering="geometricPrecision" shape-rendering="geometricPrecision" transform="matrix(1,0,0,1,-10,-10)" stroke="white">
      <rect x="25.5" width="30" height="30" y="243.3333" clip-path="url(#clipPath2)" stroke="none"/>
    </g>
    <g text-rendering="geometricPrecision" stroke-miterlimit="1.45" shape-rendering="geometricPrecision" transform="matrix(1,0,0,1,-10,-10)" stroke-linecap="butt">
      <rect fill="none" x="25.5" width="30" height="30" y="243.3333" clip-path="url(#clipPath2)"/>
    </g>
    <g fill="white" text-rendering="geometricPrecision" shape-rendering="geometricPrecision" transform="matrix(1,0,0,1,-10,-10)" stroke="white">
      <rect x="75.5" width="30" height="30" y="243.3333" clip-path="url(#clipPath2)" stroke="none"/>
    </g>
    <g text-rendering="geometricPrecision" stroke-miterlimit="1.45" shape-rendering="geometricPrecision" transform="matrix(1,0,0,1,-10,-10)" stroke-linecap="butt">
      <rect fill="none" x="75.5" width="30" height="30" y="243.3333" clip-path="url(#clipPath2)"/>
    </g>
    <g fill="white" text-rendering="geometricPrecision" shape-rendering="geometricPrecision" transform="matrix(1,0,0,1,-10,-10)" stroke="white">
      <rect x="125.5" width="30" height="30" y="243.3333" clip-path="url(#clipPath2)" stroke="none"/>
    </g>
    <g text-rendering="geometricPrecision" stroke-miterlimit="1.45" shape-rendering="geometricPrecision" font-family="sans-serif" transform="matrix(1,0,0,1,-10,-10)" stroke-linecap="butt">
      <text x="136.3955" xml:space="preserve" y="262.4876" clip-path="url(#clipPath2)" stroke="none">A</text>
      <rect fill="none" x="125.5" width="30" height="30" y="243.3333" clip-path="url(#clipPath2)"/>
    </g>
    <g fill="white" text-rendering="geometricPrecision" shape-rendering="geometricPrecision" transform="matrix(1,0,0,1,-10,-10)" stroke="white">
      <rect x="175.5" width="30" height="30" y="243.3333" clip-path="url(#clipPath2)" stroke="none"/>
    </g>
    <g text-rendering="geometricPrecision" stroke-miterlimit="1.45" shape-rendering="geometricPrecision" transform="matrix(1,0,0,1,-10,-10)" stroke-linecap="butt">
      <rect fill="none" x="175.5" width="30" height="30" y="243.3333" clip-path="url(#clipPath2)"/>
    </g>
    <g fill="white" text-rendering="geometricPrecision" shape-rendering="geometricPrecision" transform="matrix(1,0,0,1,-10,-10)" stroke="white">
      <rect x="25.5" width="30" height="30" y="293.3333" clip-path="url(#clipPath2)" stroke="none"/>
    </g>
    <g text-rendering="geometricPrecision" stroke-miterlimit="1.45" shape-rendering="geometricPrecision" transform="matrix(1,0,0,1,-10,-10)" stroke-linecap="butt">
      <rect fill="none" x="25.5" width="30" height="30" y="293.3333" clip-path="url(#clipPath2)"/>
    </g>
    <g fill="white" text-rendering="geometricPrecision" shape-rendering="geometricPrecision" transform="matrix(1,0,0,1,-10,-10)" stroke="white">
      <rect x="75.5" width="30" height="30" y="293.3333" clip-path="url(#clipPath2)" stroke="none"/>
    </g>
    <g text-rendering="geometricPrecision" stroke-miterlimit="1.45" shape-rendering="geometricPrecision" font-family="sans-serif" transform="matrix(1,0,0,1,-10,-10)" stroke-linecap="butt">
      <text x="80.5508" xml:space="preserve" y="312.4876" clip-path="url(#clipPath2)" stroke="none">Am</text>
      <rect fill="none" x="75.5" width="30" height="30" y="293.3333" clip-path="url(#clipPath2)"/>
    </g>
    <g fill="white" text-rendering="geometricPrecision" shape-rendering="geometricPrecision" transform="matrix(1,0,0,1,-10,-10)" stroke="white">
      <rect x="125.5" width="30" height="30" y="293.3333" clip-path="url(#clipPath2)" stroke="none"/>
    </g>
    <g text-rendering="geometricPrecision" stroke-miterlimit="1.45" shape-rendering="geometricPrecision" transform="matrix(1,0,0,1,-10,-10)" stroke-linecap="butt">
      <rect fill="none" x="125.5" width="30" height="30" y="293.3333" clip-path="url(#clipPath2)"/>
    </g>
    <g fill="white" text-rendering="geometricPrecision" shape-rendering="geometricPrecision" transform="matrix(1,0,0,1,-10,-10)" stroke="white">
      <rect x="175.5" width="30" height="30" y="293.3333" clip-path="url(#clipPath2)" stroke="none"/>
    </g>
    <g text-rendering="geometricPrecision" stroke-miterlimit="1.45" shape-rendering="geometricPrecision" transform="matrix(1,0,0,1,-10,-10)" stroke-linecap="butt">
      <rect fill="none" x="175.5" width="30" height="30" y="293.3333" clip-path="url(#clipPath2)"/>
    </g>
    <g fill="white" text-rendering="geometricPrecision" shape-rendering="geometricPrecision" transform="matrix(1,0,0,1,-10,-10)" stroke="white">
      <rect x="25.5" width="30" height="30" y="343.3333" clip-path="url(#clipPath2)" stroke="none"/>
    </g>
    <g text-rendering="geometricPrecision" stroke-miterlimit="1.45" shape-rendering="geometricPrecision" font-family="sans-serif" transform="matrix(1,0,0,1,-10,-10)" stroke-linecap="butt">
      <text x="38.7305" xml:space="preserve" y="362.4876" clip-path="url(#clipPath2)" stroke="none">I</text>
      <rect fill="none" x="25.5" width="30" height="30" y="343.3333" clip-path="url(#clipPath2)"/>
    </g>
    <g fill="white" text-rendering="geometricPrecision" shape-rendering="geometricPrecision" transform="matrix(1,0,0,1,-10,-10)" stroke="white">
      <rect x="75.5" width="30" height="30" y="343.3333" clip-path="url(#clipPath2)" stroke="none"/>
    </g>
    <g text-rendering="geometricPrecision" stroke-miterlimit="1.45" shape-rendering="geometricPrecision" transform="matrix(1,0,0,1,-10,-10)" stroke-linecap="butt">
      <rect fill="none" x="75.5" width="30" height="30" y="343.3333" clip-path="url(#clipPath2)"/>
    </g>
    <g fill="white" text-rendering="geometricPrecision" shape-rendering="geometricPrecision" transform="matrix(1,0,0,1,-10,-10)" stroke="white">
      <rect x="125.5" width="30" height="30" y="343.3333" clip-path="url(#clipPath2)" stroke="none"/>
    </g>
    <g text-rendering="geometricPrecision" stroke-miterlimit="1.45" shape-rendering="geometricPrecision" transform="matrix(1,0,0,1,-10,-10)" stroke-linecap="butt">
      <rect fill="none" x="125.5" width="30" height="30" y="343.3333" clip-path="url(#clipPath2)"/>
    </g>
    <g fill="white" text-rendering="geometricPrecision" shape-rendering="geometricPrecision" transform="matrix(1,0,0,1,-10,-10)" stroke="white">
      <rect x="175.5" width="30" height="30" y="343.3333" clip-path="url(#clipPath2)" stroke="none"/>
    </g>
    <g text-rendering="geometricPrecision" stroke-miterlimit="1.45" shape-rendering="geometricPrecision" transform="matrix(1,0,0,1,-10,-10)" stroke-linecap="butt">
      <rect fill="none" x="175.5" width="30" height="30" y="343.3333" clip-path="url(#clipPath2)"/>
    </g>
    <g fill="white" text-rendering="geometricPrecision" shape-rendering="geometricPrecision" transform="matrix(1,0,0,1,-10,-10)" stroke="white">
      <rect x="25.5" width="180" height="30" y="91.3333" clip-path="url(#clipPath2)" stroke="none"/>
    </g>
    <g text-rendering="geometricPrecision" stroke-miterlimit="1.45" shape-rendering="geometricPrecision" font-family="sans-serif" transform="matrix(1,0,0,1,-10,-10)" stroke-linecap="butt">
      <text x="32.4873" xml:space="preserve" y="110.4876" clip-path="url(#clipPath2)" stroke="none">Step 0: populate the matrix</text>
      <rect fill="none" x="25.5" width="180" height="30" y="91.3333" clip-path="url(#clipPath2)"/>
    </g>
    <g fill="white" text-rendering="geometricPrecision" shape-rendering="geometricPrecision" transform="matrix(1,0,0,1,-10,-10)" stroke="white">
      <rect x="25.5" width="453" height="30" y="393.3333" clip-path="url(#clipPath2)" stroke="none"/>
    </g>
    <g text-rendering="geometricPrecision" stroke-miterlimit="1.45" shape-rendering="geometricPrecision" font-family="sans-serif" transform="matrix(1,0,0,1,-10,-10)" stroke-linecap="butt">
      <text x="223.5703" xml:space="preserve" y="412.4876" clip-path="url(#clipPath2)" stroke="none">Figure 13</text>
      <rect fill="none" x="25.5" width="453" height="30" y="393.3333" clip-path="url(#clipPath2)"/>
    </g>
  </g>
</svg>
