<?xml version="1.0" encoding="UTF-8"?><svg xmlns="http://www.w3.org/2000/svg" xmlns:xlink="http://www.w3.org/1999/xlink" fill-opacity="1" color-rendering="auto" color-interpolation="auto" text-rendering="auto" stroke="black" stroke-linecap="square" width="483" stroke-miterlimit="10" shape-rendering="auto" stroke-opacity="1" fill="black" stroke-dasharray="none" font-weight="normal" stroke-width="1" height="415" font-family="'Dialog'" font-style="normal" stroke-linejoin="miter" font-size="12px" stroke-dashoffset="0" image-rendering="auto">
  <!--Generated by ySVG 2.5-->
  <defs id="genericDefs"/>
  <g>
    <defs id="defs1">
      <clipPath clipPathUnits="userSpaceOnUse" id="clipPath1">
        <path d="M0 0 L483 0 L483 415 L0 415 L0 0 Z"/>
      </clipPath>
      <clipPath clipPathUnits="userSpaceOnUse" id="clipPath2">
        <path d="M294 262 L777 262 L777 677 L294 677 L294 262 Z"/>
      </clipPath>
    </defs>
    <g fill="white" text-rendering="geometricPrecision" shape-rendering="geometricPrecision" transform="translate(-294,-262)" stroke="white">
      <rect x="294" width="483" height="415" y="262" clip-path="url(#clipPath2)" stroke="none"/>
    </g>
    <g fill="white" text-rendering="geometricPrecision" shape-rendering="geometricPrecision" transform="matrix(1,0,0,1,-294,-262)" stroke="white">
      <rect x="445.5" width="30" height="30" y="381.3333" clip-path="url(#clipPath2)" stroke="none"/>
    </g>
    <g text-rendering="geometricPrecision" stroke-miterlimit="1.45" shape-rendering="geometricPrecision" transform="matrix(1,0,0,1,-294,-262)" stroke-linecap="butt">
      <rect fill="none" x="445.5" width="30" height="30" y="381.3333" clip-path="url(#clipPath2)"/>
    </g>
    <g fill="white" text-rendering="geometricPrecision" shape-rendering="geometricPrecision" transform="matrix(1,0,0,1,-294,-262)" stroke="white">
      <rect x="495.5" width="30" height="30" y="381.3333" clip-path="url(#clipPath2)" stroke="none"/>
    </g>
    <g text-rendering="geometricPrecision" stroke-miterlimit="1.45" shape-rendering="geometricPrecision" transform="matrix(1,0,0,1,-294,-262)" stroke-linecap="butt">
      <rect fill="none" x="495.5" width="30" height="30" y="381.3333" clip-path="url(#clipPath2)"/>
    </g>
    <g fill="white" text-rendering="geometricPrecision" shape-rendering="geometricPrecision" transform="matrix(1,0,0,1,-294,-262)" stroke="white">
      <rect x="545.5" width="30" height="30" y="381.3333" clip-path="url(#clipPath2)" stroke="none"/>
    </g>
    <g text-rendering="geometricPrecision" stroke-miterlimit="1.45" shape-rendering="geometricPrecision" transform="matrix(1,0,0,1,-294,-262)" stroke-linecap="butt">
      <rect fill="none" x="545.5" width="30" height="30" y="381.3333" clip-path="url(#clipPath2)"/>
    </g>
    <g fill="white" text-rendering="geometricPrecision" shape-rendering="geometricPrecision" transform="matrix(1,0,0,1,-294,-262)" stroke="white">
      <rect x="595.5" width="30" height="30" y="381.3333" clip-path="url(#clipPath2)" stroke="none"/>
    </g>
    <g text-rendering="geometricPrecision" stroke-miterlimit="1.45" shape-rendering="geometricPrecision" font-family="sans-serif" transform="matrix(1,0,0,1,-294,-262)" stroke-linecap="butt">
      <text x="597.1816" xml:space="preserve" y="400.4876" clip-path="url(#clipPath2)" stroke="none">nom</text>
      <rect fill="none" x="595.5" width="30" height="30" y="381.3333" clip-path="url(#clipPath2)"/>
    </g>
    <g fill="white" text-rendering="geometricPrecision" shape-rendering="geometricPrecision" transform="matrix(1,0,0,1,-294,-262)" stroke="white">
      <rect x="445.5" width="30" height="30" y="431.3333" clip-path="url(#clipPath2)" stroke="none"/>
    </g>
    <g text-rendering="geometricPrecision" stroke-miterlimit="1.45" shape-rendering="geometricPrecision" transform="matrix(1,0,0,1,-294,-262)" stroke-linecap="butt">
      <rect fill="none" x="445.5" width="30" height="30" y="431.3333" clip-path="url(#clipPath2)"/>
    </g>
    <g fill="white" text-rendering="geometricPrecision" shape-rendering="geometricPrecision" transform="matrix(1,0,0,1,-294,-262)" stroke="white">
      <rect x="495.5" width="30" height="30" y="431.3333" clip-path="url(#clipPath2)" stroke="none"/>
    </g>
    <g text-rendering="geometricPrecision" stroke-miterlimit="1.45" shape-rendering="geometricPrecision" transform="matrix(1,0,0,1,-294,-262)" stroke-linecap="butt">
      <rect fill="none" x="495.5" width="30" height="30" y="431.3333" clip-path="url(#clipPath2)"/>
    </g>
    <g fill="white" text-rendering="geometricPrecision" shape-rendering="geometricPrecision" transform="matrix(1,0,0,1,-294,-262)" stroke="white">
      <rect x="545.5" width="30" height="30" y="431.3333" clip-path="url(#clipPath2)" stroke="none"/>
    </g>
    <g text-rendering="geometricPrecision" stroke-miterlimit="1.45" shape-rendering="geometricPrecision" font-family="sans-serif" transform="matrix(1,0,0,1,-294,-262)" stroke-linecap="butt">
      <text x="550.6475" xml:space="preserve" y="450.4876" clip-path="url(#clipPath2)" stroke="none">det</text>
      <rect fill="none" x="545.5" width="30" height="30" y="431.3333" clip-path="url(#clipPath2)"/>
    </g>
    <g fill="white" text-rendering="geometricPrecision" shape-rendering="geometricPrecision" transform="matrix(1,0,0,1,-294,-262)" stroke="white">
      <rect x="595.5" width="30" height="30" y="431.3333" clip-path="url(#clipPath2)" stroke="none"/>
    </g>
    <g text-rendering="geometricPrecision" stroke-miterlimit="1.45" shape-rendering="geometricPrecision" font-family="sans-serif" transform="matrix(1,0,0,1,-294,-262)" stroke-linecap="butt">
      <text x="595.4209" xml:space="preserve" y="450.4876" clip-path="url(#clipPath2)" stroke="none">noun</text>
      <rect fill="none" x="595.5" width="30" height="30" y="431.3333" clip-path="url(#clipPath2)"/>
    </g>
    <g fill="white" text-rendering="geometricPrecision" shape-rendering="geometricPrecision" transform="matrix(1,0,0,1,-294,-262)" stroke="white">
      <rect x="445.5" width="30" height="30" y="481.3333" clip-path="url(#clipPath2)" stroke="none"/>
    </g>
    <g text-rendering="geometricPrecision" stroke-miterlimit="1.45" shape-rendering="geometricPrecision" font-family="sans-serif" transform="matrix(1,0,0,1,-294,-262)" stroke-linecap="butt">
      <text x="452.8887" xml:space="preserve" y="500.4876" clip-path="url(#clipPath2)" stroke="none">np</text>
      <rect fill="none" x="445.5" width="30" height="30" y="481.3333" clip-path="url(#clipPath2)"/>
    </g>
    <g fill="white" text-rendering="geometricPrecision" shape-rendering="geometricPrecision" transform="matrix(1,0,0,1,-294,-262)" stroke="white">
      <rect x="495.5" width="30" height="30" y="481.3333" clip-path="url(#clipPath2)" stroke="none"/>
    </g>
    <g text-rendering="geometricPrecision" stroke-miterlimit="1.45" shape-rendering="geometricPrecision" font-family="sans-serif" transform="matrix(1,0,0,1,-294,-262)" stroke-linecap="butt">
      <text x="503.1406" xml:space="preserve" y="500.4876" clip-path="url(#clipPath2)" stroke="none">vp</text>
      <rect fill="none" x="495.5" width="30" height="30" y="481.3333" clip-path="url(#clipPath2)"/>
    </g>
    <g fill="white" text-rendering="geometricPrecision" shape-rendering="geometricPrecision" transform="matrix(1,0,0,1,-294,-262)" stroke="white">
      <rect x="545.5" width="30" height="30" y="481.3333" clip-path="url(#clipPath2)" stroke="none"/>
    </g>
    <g text-rendering="geometricPrecision" stroke-miterlimit="1.45" shape-rendering="geometricPrecision" font-family="sans-serif" transform="matrix(1,0,0,1,-294,-262)" stroke-linecap="butt">
      <text x="550.6475" xml:space="preserve" y="500.4876" clip-path="url(#clipPath2)" stroke="none">det</text>
      <rect fill="none" x="545.5" width="30" height="30" y="481.3333" clip-path="url(#clipPath2)"/>
    </g>
    <g fill="white" text-rendering="geometricPrecision" shape-rendering="geometricPrecision" transform="matrix(1,0,0,1,-294,-262)" stroke="white">
      <rect x="595.5" width="30" height="30" y="481.3333" clip-path="url(#clipPath2)" stroke="none"/>
    </g>
    <g text-rendering="geometricPrecision" stroke-miterlimit="1.45" shape-rendering="geometricPrecision" transform="matrix(1,0,0,1,-294,-262)" stroke-linecap="butt">
      <rect fill="none" x="595.5" width="30" height="30" y="481.3333" clip-path="url(#clipPath2)"/>
    </g>
    <g fill="white" text-rendering="geometricPrecision" shape-rendering="geometricPrecision" transform="matrix(1,0,0,1,-294,-262)" stroke="white">
      <rect x="445.5" width="30" height="30" y="531.3333" clip-path="url(#clipPath2)" stroke="none"/>
    </g>
    <g text-rendering="geometricPrecision" stroke-miterlimit="1.45" shape-rendering="geometricPrecision" font-family="sans-serif" transform="matrix(1,0,0,1,-294,-262)" stroke-linecap="butt">
      <text x="452.8887" xml:space="preserve" y="550.4876" clip-path="url(#clipPath2)" stroke="none">np</text>
      <rect fill="none" x="445.5" width="30" height="30" y="531.3333" clip-path="url(#clipPath2)"/>
    </g>
    <g fill="white" text-rendering="geometricPrecision" shape-rendering="geometricPrecision" transform="matrix(1,0,0,1,-294,-262)" stroke="white">
      <rect x="495.5" width="30" height="30" y="531.3333" clip-path="url(#clipPath2)" stroke="none"/>
    </g>
    <g text-rendering="geometricPrecision" stroke-miterlimit="1.45" shape-rendering="geometricPrecision" font-family="sans-serif" transform="matrix(1,0,0,1,-294,-262)" stroke-linecap="butt">
      <text x="496.9824" xml:space="preserve" y="550.4876" clip-path="url(#clipPath2)" stroke="none">verb</text>
      <rect fill="none" x="495.5" width="30" height="30" y="531.3333" clip-path="url(#clipPath2)"/>
    </g>
    <g fill="white" text-rendering="geometricPrecision" shape-rendering="geometricPrecision" transform="matrix(1,0,0,1,-294,-262)" stroke="white">
      <rect x="545.5" width="30" height="30" y="531.3333" clip-path="url(#clipPath2)" stroke="none"/>
    </g>
    <g text-rendering="geometricPrecision" stroke-miterlimit="1.45" shape-rendering="geometricPrecision" transform="matrix(1,0,0,1,-294,-262)" stroke-linecap="butt">
      <rect fill="none" x="545.5" width="30" height="30" y="531.3333" clip-path="url(#clipPath2)"/>
    </g>
    <g fill="white" text-rendering="geometricPrecision" shape-rendering="geometricPrecision" transform="matrix(1,0,0,1,-294,-262)" stroke="white">
      <rect x="595.5" width="30" height="30" y="531.3333" clip-path="url(#clipPath2)" stroke="none"/>
    </g>
    <g text-rendering="geometricPrecision" stroke-miterlimit="1.45" shape-rendering="geometricPrecision" transform="matrix(1,0,0,1,-294,-262)" stroke-linecap="butt">
      <rect fill="none" x="595.5" width="30" height="30" y="531.3333" clip-path="url(#clipPath2)"/>
    </g>
    <g fill="white" text-rendering="geometricPrecision" shape-rendering="geometricPrecision" transform="matrix(1,0,0,1,-294,-262)" stroke="white">
      <rect x="445.5" width="30" height="30" y="581.3333" clip-path="url(#clipPath2)" stroke="none"/>
    </g>
    <g text-rendering="geometricPrecision" stroke-miterlimit="1.45" shape-rendering="geometricPrecision" font-family="sans-serif" transform="matrix(1,0,0,1,-294,-262)" stroke-linecap="butt">
      <text x="446.751" xml:space="preserve" y="600.4876" clip-path="url(#clipPath2)" stroke="none">pron</text>
      <rect fill="none" x="445.5" width="30" height="30" y="581.3333" clip-path="url(#clipPath2)"/>
    </g>
    <g fill="white" text-rendering="geometricPrecision" shape-rendering="geometricPrecision" transform="matrix(1,0,0,1,-294,-262)" stroke="white">
      <rect x="495.5" width="30" height="30" y="581.3333" clip-path="url(#clipPath2)" stroke="none"/>
    </g>
    <g text-rendering="geometricPrecision" stroke-miterlimit="1.45" shape-rendering="geometricPrecision" transform="matrix(1,0,0,1,-294,-262)" stroke-linecap="butt">
      <rect fill="none" x="495.5" width="30" height="30" y="581.3333" clip-path="url(#clipPath2)"/>
    </g>
    <g fill="white" text-rendering="geometricPrecision" shape-rendering="geometricPrecision" transform="matrix(1,0,0,1,-294,-262)" stroke="white">
      <rect x="545.5" width="30" height="30" y="581.3333" clip-path="url(#clipPath2)" stroke="none"/>
    </g>
    <g text-rendering="geometricPrecision" stroke-miterlimit="1.45" shape-rendering="geometricPrecision" transform="matrix(1,0,0,1,-294,-262)" stroke-linecap="butt">
      <rect fill="none" x="545.5" width="30" height="30" y="581.3333" clip-path="url(#clipPath2)"/>
    </g>
    <g fill="white" text-rendering="geometricPrecision" shape-rendering="geometricPrecision" transform="matrix(1,0,0,1,-294,-262)" stroke="white">
      <rect x="595.5" width="30" height="30" y="581.3333" clip-path="url(#clipPath2)" stroke="none"/>
    </g>
    <g text-rendering="geometricPrecision" stroke-miterlimit="1.45" shape-rendering="geometricPrecision" transform="matrix(1,0,0,1,-294,-262)" stroke-linecap="butt">
      <rect fill="none" x="595.5" width="30" height="30" y="581.3333" clip-path="url(#clipPath2)"/>
    </g>
    <g fill="white" text-rendering="geometricPrecision" shape-rendering="geometricPrecision" transform="matrix(1,0,0,1,-294,-262)" stroke="white">
      <rect x="445.5" width="180" height="30" y="329.3333" clip-path="url(#clipPath2)" stroke="none"/>
    </g>
    <g text-rendering="geometricPrecision" stroke-miterlimit="1.45" shape-rendering="geometricPrecision" font-family="sans-serif" transform="matrix(1,0,0,1,-294,-262)" stroke-linecap="butt">
      <text x="510.3896" xml:space="preserve" y="348.4876" clip-path="url(#clipPath2)" stroke="none">Step 2.0</text>
      <rect fill="none" x="445.5" width="180" height="30" y="329.3333" clip-path="url(#clipPath2)"/>
    </g>
    <g fill="white" text-rendering="geometricPrecision" shape-rendering="geometricPrecision" transform="matrix(1,0,0,1,-294,-262)" stroke="white">
      <rect x="309" width="453" height="30" y="277.3333" clip-path="url(#clipPath2)" stroke="none"/>
    </g>
    <g text-rendering="geometricPrecision" stroke-miterlimit="1.45" shape-rendering="geometricPrecision" font-family="sans-serif" transform="matrix(1,0,0,1,-294,-262)" stroke-linecap="butt">
      <text x="331.4326" xml:space="preserve" y="296.4876" clip-path="url(#clipPath2)" stroke="none">CKY of "I am a Function" - Second Permutation: Pron Verb Det Noun</text>
      <rect fill="none" x="309" width="453" height="30" y="277.3333" clip-path="url(#clipPath2)"/>
    </g>
    <g fill="white" text-rendering="geometricPrecision" shape-rendering="geometricPrecision" transform="matrix(1,0,0,1,-294,-262)" stroke="white">
      <rect x="309" width="453" height="30" y="631.3333" clip-path="url(#clipPath2)" stroke="none"/>
    </g>
    <g text-rendering="geometricPrecision" stroke-miterlimit="1.45" shape-rendering="geometricPrecision" font-family="sans-serif" transform="matrix(1,0,0,1,-294,-262)" stroke-linecap="butt">
      <text x="507.0703" xml:space="preserve" y="650.4876" clip-path="url(#clipPath2)" stroke="none">Figure 18</text>
      <rect fill="none" x="309" width="453" height="30" y="631.3333" clip-path="url(#clipPath2)"/>
      <path fill="none" d="M610.5 431.3333 L610.5 419.3333" clip-path="url(#clipPath2)"/>
      <path d="M610.5 411.3333 L605.5 423.3333 L610.5 420.3333 L615.5 423.3333 Z" clip-path="url(#clipPath2)" stroke="none"/>
    </g>
    <g text-rendering="geometricPrecision" stroke-miterlimit="1.45" shape-rendering="geometricPrecision" transform="matrix(1,0,0,1,-294,-262)" stroke-linecap="butt">
      <path fill="none" d="M560.5 461.3333 L554.25 476.3333 L559 473.4833 L559 481.3333 L562 481.3333 L562 473.4833 L566.75 476.3333 L560.5 461.3333 Z" clip-path="url(#clipPath2)"/>
    </g>
    <g text-rendering="geometricPrecision" stroke-miterlimit="1.45" shape-rendering="geometricPrecision" transform="matrix(1,0,0,1,-294,-262)" stroke-linecap="butt">
      <path fill="none" d="M460.5 511.3333 L454.25 526.3333 L459 523.4833 L459 523.4833 L459 531.3333 L462 531.3333 L462 523.4833 L462 523.4833 L466.75 526.3333 L460.5 511.3333 Z" clip-path="url(#clipPath2)"/>
    </g>
    <g text-rendering="geometricPrecision" stroke-miterlimit="1.45" shape-rendering="geometricPrecision" transform="matrix(1,0,0,1,-294,-262)" stroke-linecap="butt">
      <path fill="none" d="M510.5 531.3333 L510.5 519.3333" clip-path="url(#clipPath2)"/>
      <path d="M510.5 511.3333 L505.5 523.3333 L510.5 520.3333 L515.5 523.3333 Z" clip-path="url(#clipPath2)" stroke="none"/>
      <path fill="none" d="M460.5 581.3333 L460.5 569.3333" clip-path="url(#clipPath2)"/>
      <path d="M460.5 561.3333 L455.5 573.3333 L460.5 570.3333 L465.5 573.3333 Z" clip-path="url(#clipPath2)" stroke="none"/>
    </g>
  </g>
</svg>
