<?xml version="1.0" encoding="UTF-8"?><svg xmlns="http://www.w3.org/2000/svg" xmlns:xlink="http://www.w3.org/1999/xlink" fill-opacity="1" color-rendering="auto" color-interpolation="auto" text-rendering="auto" stroke="black" stroke-linecap="square" width="484" stroke-miterlimit="10" shape-rendering="auto" stroke-opacity="1" fill="black" stroke-dasharray="none" font-weight="normal" stroke-width="1" height="415" font-family="'Dialog'" font-style="normal" stroke-linejoin="miter" font-size="12px" stroke-dashoffset="0" image-rendering="auto">
  <!--Generated by ySVG 2.5-->
  <defs id="genericDefs"/>
  <g>
    <defs id="defs1">
      <clipPath clipPathUnits="userSpaceOnUse" id="clipPath1">
        <path d="M0 0 L484 0 L484 415 L0 415 L0 0 Z"/>
      </clipPath>
      <clipPath clipPathUnits="userSpaceOnUse" id="clipPath2">
        <path d="M494 462 L978 462 L978 877 L494 877 L494 462 Z"/>
      </clipPath>
    </defs>
    <g fill="white" text-rendering="geometricPrecision" shape-rendering="geometricPrecision" transform="translate(-494,-462)" stroke="white">
      <rect x="494" width="484" height="415" y="462" clip-path="url(#clipPath2)" stroke="none"/>
    </g>
    <g fill="white" text-rendering="geometricPrecision" shape-rendering="geometricPrecision" transform="matrix(1,0,0,1,-494,-462)" stroke="white">
      <rect x="646" width="30" height="30" y="582" clip-path="url(#clipPath2)" stroke="none"/>
    </g>
    <g text-rendering="geometricPrecision" stroke-miterlimit="1.45" shape-rendering="geometricPrecision" font-family="sans-serif" transform="matrix(1,0,0,1,-494,-462)" stroke-linecap="butt">
      <text x="657.874" xml:space="preserve" y="601.1543" clip-path="url(#clipPath2)" stroke="none">s</text>
      <rect fill="none" x="646" width="30" height="30" y="582" clip-path="url(#clipPath2)"/>
    </g>
    <g fill="white" text-rendering="geometricPrecision" shape-rendering="geometricPrecision" transform="matrix(1,0,0,1,-494,-462)" stroke="white">
      <rect x="696" width="30" height="30" y="582" clip-path="url(#clipPath2)" stroke="none"/>
    </g>
    <g text-rendering="geometricPrecision" stroke-miterlimit="1.45" shape-rendering="geometricPrecision" font-family="sans-serif" transform="matrix(1,0,0,1,-494,-462)" stroke-linecap="butt">
      <text x="703.6406" xml:space="preserve" y="601.1543" clip-path="url(#clipPath2)" stroke="none">vp</text>
      <rect fill="none" x="696" width="30" height="30" y="582" clip-path="url(#clipPath2)"/>
    </g>
    <g fill="white" text-rendering="geometricPrecision" shape-rendering="geometricPrecision" transform="matrix(1,0,0,1,-494,-462)" stroke="white">
      <rect x="746" width="30" height="30" y="582" clip-path="url(#clipPath2)" stroke="none"/>
    </g>
    <g text-rendering="geometricPrecision" stroke-miterlimit="1.45" shape-rendering="geometricPrecision" font-family="sans-serif" transform="matrix(1,0,0,1,-494,-462)" stroke-linecap="butt">
      <text x="751.1475" xml:space="preserve" y="601.1543" clip-path="url(#clipPath2)" stroke="none">det</text>
      <rect fill="none" x="746" width="30" height="30" y="582" clip-path="url(#clipPath2)"/>
    </g>
    <g fill="white" text-rendering="geometricPrecision" shape-rendering="geometricPrecision" transform="matrix(1,0,0,1,-494,-462)" stroke="white">
      <rect x="796" width="30" height="30" y="582" clip-path="url(#clipPath2)" stroke="none"/>
    </g>
    <g text-rendering="geometricPrecision" stroke-miterlimit="1.45" shape-rendering="geometricPrecision" font-family="sans-serif" transform="matrix(1,0,0,1,-494,-462)" stroke-linecap="butt">
      <text x="803.6406" xml:space="preserve" y="601.1543" clip-path="url(#clipPath2)" stroke="none">vp</text>
      <rect fill="none" x="796" width="30" height="30" y="582" clip-path="url(#clipPath2)"/>
    </g>
    <g fill="white" text-rendering="geometricPrecision" shape-rendering="geometricPrecision" transform="matrix(1,0,0,1,-494,-462)" stroke="white">
      <rect x="646" width="30" height="30" y="632" clip-path="url(#clipPath2)" stroke="none"/>
    </g>
    <g text-rendering="geometricPrecision" stroke-miterlimit="1.45" shape-rendering="geometricPrecision" font-family="sans-serif" transform="matrix(1,0,0,1,-494,-462)" stroke-linecap="butt">
      <text x="653.3887" xml:space="preserve" y="651.1543" clip-path="url(#clipPath2)" stroke="none">np</text>
      <rect fill="none" x="646" width="30" height="30" y="632" clip-path="url(#clipPath2)"/>
    </g>
    <g fill="white" text-rendering="geometricPrecision" shape-rendering="geometricPrecision" transform="matrix(1,0,0,1,-494,-462)" stroke="white">
      <rect x="696" width="30" height="30" y="632" clip-path="url(#clipPath2)" stroke="none"/>
    </g>
    <g text-rendering="geometricPrecision" stroke-miterlimit="1.45" shape-rendering="geometricPrecision" font-family="sans-serif" transform="matrix(1,0,0,1,-494,-462)" stroke-linecap="butt">
      <text x="703.6406" xml:space="preserve" y="651.1543" clip-path="url(#clipPath2)" stroke="none">vp</text>
      <rect fill="none" x="696" width="30" height="30" y="632" clip-path="url(#clipPath2)"/>
    </g>
    <g fill="white" text-rendering="geometricPrecision" shape-rendering="geometricPrecision" transform="matrix(1,0,0,1,-494,-462)" stroke="white">
      <rect x="746" width="30" height="30" y="632" clip-path="url(#clipPath2)" stroke="none"/>
    </g>
    <g text-rendering="geometricPrecision" stroke-miterlimit="1.45" shape-rendering="geometricPrecision" font-family="sans-serif" transform="matrix(1,0,0,1,-494,-462)" stroke-linecap="butt">
      <text x="751.1475" xml:space="preserve" y="651.1543" clip-path="url(#clipPath2)" stroke="none">det</text>
      <rect fill="none" x="746" width="30" height="30" y="632" clip-path="url(#clipPath2)"/>
    </g>
    <g fill="white" text-rendering="geometricPrecision" shape-rendering="geometricPrecision" transform="matrix(1,0,0,1,-494,-462)" stroke="white">
      <rect x="796" width="30" height="30" y="632" clip-path="url(#clipPath2)" stroke="none"/>
    </g>
    <g text-rendering="geometricPrecision" stroke-miterlimit="1.45" shape-rendering="geometricPrecision" font-family="sans-serif" transform="matrix(1,0,0,1,-494,-462)" stroke-linecap="butt">
      <text x="797.4824" xml:space="preserve" y="651.1543" clip-path="url(#clipPath2)" stroke="none">verb</text>
      <rect fill="none" x="796" width="30" height="30" y="632" clip-path="url(#clipPath2)"/>
    </g>
    <g fill="white" text-rendering="geometricPrecision" shape-rendering="geometricPrecision" transform="matrix(1,0,0,1,-494,-462)" stroke="white">
      <rect x="646" width="30" height="30" y="682" clip-path="url(#clipPath2)" stroke="none"/>
    </g>
    <g text-rendering="geometricPrecision" stroke-miterlimit="1.45" shape-rendering="geometricPrecision" font-family="sans-serif" transform="matrix(1,0,0,1,-494,-462)" stroke-linecap="butt">
      <text x="653.3887" xml:space="preserve" y="701.1543" clip-path="url(#clipPath2)" stroke="none">np</text>
      <rect fill="none" x="646" width="30" height="30" y="682" clip-path="url(#clipPath2)"/>
    </g>
    <g fill="white" text-rendering="geometricPrecision" shape-rendering="geometricPrecision" transform="matrix(1,0,0,1,-494,-462)" stroke="white">
      <rect x="696" width="30" height="30" y="682" clip-path="url(#clipPath2)" stroke="none"/>
    </g>
    <g text-rendering="geometricPrecision" stroke-miterlimit="1.45" shape-rendering="geometricPrecision" font-family="sans-serif" transform="matrix(1,0,0,1,-494,-462)" stroke-linecap="butt">
      <text x="703.6406" xml:space="preserve" y="701.1543" clip-path="url(#clipPath2)" stroke="none">vp</text>
      <rect fill="none" x="696" width="30" height="30" y="682" clip-path="url(#clipPath2)"/>
    </g>
    <g fill="white" text-rendering="geometricPrecision" shape-rendering="geometricPrecision" transform="matrix(1,0,0,1,-494,-462)" stroke="white">
      <rect x="746" width="30" height="30" y="682" clip-path="url(#clipPath2)" stroke="none"/>
    </g>
    <g text-rendering="geometricPrecision" stroke-miterlimit="1.45" shape-rendering="geometricPrecision" font-family="sans-serif" transform="matrix(1,0,0,1,-494,-462)" stroke-linecap="butt">
      <text x="751.1475" xml:space="preserve" y="701.1543" clip-path="url(#clipPath2)" stroke="none">det</text>
      <rect fill="none" x="746" width="30" height="30" y="682" clip-path="url(#clipPath2)"/>
    </g>
    <g fill="white" text-rendering="geometricPrecision" shape-rendering="geometricPrecision" transform="matrix(1,0,0,1,-494,-462)" stroke="white">
      <rect x="796" width="30" height="30" y="682" clip-path="url(#clipPath2)" stroke="none"/>
    </g>
    <g text-rendering="geometricPrecision" stroke-miterlimit="1.45" shape-rendering="geometricPrecision" transform="matrix(1,0,0,1,-494,-462)" stroke-linecap="butt">
      <rect fill="none" x="796" width="30" height="30" y="682" clip-path="url(#clipPath2)"/>
    </g>
    <g fill="white" text-rendering="geometricPrecision" shape-rendering="geometricPrecision" transform="matrix(1,0,0,1,-494,-462)" stroke="white">
      <rect x="646" width="30" height="30" y="732" clip-path="url(#clipPath2)" stroke="none"/>
    </g>
    <g text-rendering="geometricPrecision" stroke-miterlimit="1.45" shape-rendering="geometricPrecision" font-family="sans-serif" transform="matrix(1,0,0,1,-494,-462)" stroke-linecap="butt">
      <text x="653.3887" xml:space="preserve" y="751.1543" clip-path="url(#clipPath2)" stroke="none">np</text>
      <rect fill="none" x="646" width="30" height="30" y="732" clip-path="url(#clipPath2)"/>
    </g>
    <g fill="white" text-rendering="geometricPrecision" shape-rendering="geometricPrecision" transform="matrix(1,0,0,1,-494,-462)" stroke="white">
      <rect x="696" width="30" height="30" y="732" clip-path="url(#clipPath2)" stroke="none"/>
    </g>
    <g text-rendering="geometricPrecision" stroke-miterlimit="1.45" shape-rendering="geometricPrecision" font-family="sans-serif" transform="matrix(1,0,0,1,-494,-462)" stroke-linecap="butt">
      <text x="697.4824" xml:space="preserve" y="751.1543" clip-path="url(#clipPath2)" stroke="none">verb</text>
      <rect fill="none" x="696" width="30" height="30" y="732" clip-path="url(#clipPath2)"/>
    </g>
    <g fill="white" text-rendering="geometricPrecision" shape-rendering="geometricPrecision" transform="matrix(1,0,0,1,-494,-462)" stroke="white">
      <rect x="746" width="30" height="30" y="732" clip-path="url(#clipPath2)" stroke="none"/>
    </g>
    <g text-rendering="geometricPrecision" stroke-miterlimit="1.45" shape-rendering="geometricPrecision" transform="matrix(1,0,0,1,-494,-462)" stroke-linecap="butt">
      <rect fill="none" x="746" width="30" height="30" y="732" clip-path="url(#clipPath2)"/>
    </g>
    <g fill="white" text-rendering="geometricPrecision" shape-rendering="geometricPrecision" transform="matrix(1,0,0,1,-494,-462)" stroke="white">
      <rect x="796" width="30" height="30" y="732" clip-path="url(#clipPath2)" stroke="none"/>
    </g>
    <g text-rendering="geometricPrecision" stroke-miterlimit="1.45" shape-rendering="geometricPrecision" transform="matrix(1,0,0,1,-494,-462)" stroke-linecap="butt">
      <rect fill="none" x="796" width="30" height="30" y="732" clip-path="url(#clipPath2)"/>
    </g>
    <g fill="white" text-rendering="geometricPrecision" shape-rendering="geometricPrecision" transform="matrix(1,0,0,1,-494,-462)" stroke="white">
      <rect x="646" width="30" height="30" y="782" clip-path="url(#clipPath2)" stroke="none"/>
    </g>
    <g text-rendering="geometricPrecision" stroke-miterlimit="1.45" shape-rendering="geometricPrecision" font-family="sans-serif" transform="matrix(1,0,0,1,-494,-462)" stroke-linecap="butt">
      <text x="647.251" xml:space="preserve" y="801.1543" clip-path="url(#clipPath2)" stroke="none">pron</text>
      <rect fill="none" x="646" width="30" height="30" y="782" clip-path="url(#clipPath2)"/>
    </g>
    <g fill="white" text-rendering="geometricPrecision" shape-rendering="geometricPrecision" transform="matrix(1,0,0,1,-494,-462)" stroke="white">
      <rect x="696" width="30" height="30" y="782" clip-path="url(#clipPath2)" stroke="none"/>
    </g>
    <g text-rendering="geometricPrecision" stroke-miterlimit="1.45" shape-rendering="geometricPrecision" transform="matrix(1,0,0,1,-494,-462)" stroke-linecap="butt">
      <rect fill="none" x="696" width="30" height="30" y="782" clip-path="url(#clipPath2)"/>
    </g>
    <g fill="white" text-rendering="geometricPrecision" shape-rendering="geometricPrecision" transform="matrix(1,0,0,1,-494,-462)" stroke="white">
      <rect x="746" width="30" height="30" y="782" clip-path="url(#clipPath2)" stroke="none"/>
    </g>
    <g text-rendering="geometricPrecision" stroke-miterlimit="1.45" shape-rendering="geometricPrecision" transform="matrix(1,0,0,1,-494,-462)" stroke-linecap="butt">
      <rect fill="none" x="746" width="30" height="30" y="782" clip-path="url(#clipPath2)"/>
    </g>
    <g fill="white" text-rendering="geometricPrecision" shape-rendering="geometricPrecision" transform="matrix(1,0,0,1,-494,-462)" stroke="white">
      <rect x="796" width="30" height="30" y="782" clip-path="url(#clipPath2)" stroke="none"/>
    </g>
    <g text-rendering="geometricPrecision" stroke-miterlimit="1.45" shape-rendering="geometricPrecision" transform="matrix(1,0,0,1,-494,-462)" stroke-linecap="butt">
      <rect fill="none" x="796" width="30" height="30" y="782" clip-path="url(#clipPath2)"/>
    </g>
    <g fill="white" text-rendering="geometricPrecision" shape-rendering="geometricPrecision" transform="matrix(1,0,0,1,-494,-462)" stroke="white">
      <rect x="646" width="180" height="30" y="530" clip-path="url(#clipPath2)" stroke="none"/>
    </g>
    <g text-rendering="geometricPrecision" stroke-miterlimit="1.45" shape-rendering="geometricPrecision" font-family="sans-serif" transform="matrix(1,0,0,1,-494,-462)" stroke-linecap="butt">
      <text x="716.6143" xml:space="preserve" y="549.1543" clip-path="url(#clipPath2)" stroke="none">Step 4</text>
      <rect fill="none" x="646" width="180" height="30" y="530" clip-path="url(#clipPath2)"/>
    </g>
    <g fill="white" text-rendering="geometricPrecision" shape-rendering="geometricPrecision" transform="matrix(1,0,0,1,-494,-462)" stroke="white">
      <rect x="509.5" width="453" height="30" y="478" clip-path="url(#clipPath2)" stroke="none"/>
    </g>
    <g text-rendering="geometricPrecision" stroke-miterlimit="1.45" shape-rendering="geometricPrecision" font-family="sans-serif" transform="matrix(1,0,0,1,-494,-462)" stroke-linecap="butt">
      <text x="542.6436" xml:space="preserve" y="497.1543" clip-path="url(#clipPath2)" stroke="none">CKY of "I am a Function" - First Permutation: Pron Verb Det Verb</text>
      <rect fill="none" x="509.5" width="453" height="30" y="478" clip-path="url(#clipPath2)"/>
    </g>
    <g fill="white" text-rendering="geometricPrecision" shape-rendering="geometricPrecision" transform="matrix(1,0,0,1,-494,-462)" stroke="white">
      <rect x="509.5" width="453" height="30" y="832" clip-path="url(#clipPath2)" stroke="none"/>
    </g>
    <g text-rendering="geometricPrecision" stroke-miterlimit="1.45" shape-rendering="geometricPrecision" font-family="sans-serif" transform="matrix(1,0,0,1,-494,-462)" stroke-linecap="butt">
      <text x="707.5703" xml:space="preserve" y="851.1543" clip-path="url(#clipPath2)" stroke="none">Figure 12</text>
      <rect fill="none" x="509.5" width="453" height="30" y="832" clip-path="url(#clipPath2)"/>
      <path fill="none" d="M696 597 L684 597" clip-path="url(#clipPath2)"/>
      <path d="M676 597 L688 602 L685 597 L688 592 Z" clip-path="url(#clipPath2)" stroke="none"/>
      <path fill="none" d="M661 632 L661 620" clip-path="url(#clipPath2)"/>
      <path d="M661 612 L656 624 L661 621 L666 624 Z" clip-path="url(#clipPath2)" stroke="none"/>
    </g>
    <g text-rendering="geometricPrecision" stroke-miterlimit="1.45" shape-rendering="geometricPrecision" transform="matrix(1,0,0,1,-494,-462)" stroke-linecap="butt">
      <path fill="none" d="M711 612 L704.75 627 L709.5 624.15 L709.5 632 L712.5 632 L712.5 624.15 L717.25 627 L711 612 Z" clip-path="url(#clipPath2)"/>
    </g>
    <g text-rendering="geometricPrecision" stroke-miterlimit="1.45" shape-rendering="geometricPrecision" transform="matrix(1,0,0,1,-494,-462)" stroke-linecap="butt">
      <path fill="none" d="M761 612 L754.75 627 L759.5 624.15 L759.5 632 L762.5 632 L762.5 624.15 L767.25 627 L761 612 Z" clip-path="url(#clipPath2)"/>
    </g>
    <g text-rendering="geometricPrecision" stroke-miterlimit="1.45" shape-rendering="geometricPrecision" transform="matrix(1,0,0,1,-494,-462)" stroke-linecap="butt">
      <path fill="none" d="M811 632 L811 620" clip-path="url(#clipPath2)"/>
      <path d="M811 612 L806 624 L811 621 L816 624 Z" clip-path="url(#clipPath2)" stroke="none"/>
    </g>
    <g text-rendering="geometricPrecision" stroke-miterlimit="1.45" shape-rendering="geometricPrecision" transform="matrix(1,0,0,1,-494,-462)" stroke-linecap="butt">
      <path fill="none" d="M661 662 L654.75 677 L659.5 674.15 L659.5 682 L662.5 682 L662.5 674.15 L667.25 677 L661 662 Z" clip-path="url(#clipPath2)"/>
    </g>
    <g text-rendering="geometricPrecision" stroke-miterlimit="1.45" shape-rendering="geometricPrecision" transform="matrix(1,0,0,1,-494,-462)" stroke-linecap="butt">
      <path fill="none" d="M711 662 L704.75 677 L709.5 674.15 L709.5 682 L712.5 682 L712.5 674.15 L717.25 677 L711 662 Z" clip-path="url(#clipPath2)"/>
    </g>
    <g text-rendering="geometricPrecision" stroke-miterlimit="1.45" shape-rendering="geometricPrecision" transform="matrix(1,0,0,1,-494,-462)" stroke-linecap="butt">
      <path fill="none" d="M761 662 L754.75 677 L759.5 674.15 L759.5 682 L762.5 682 L762.5 674.15 L767.25 677 L761 662 Z" clip-path="url(#clipPath2)"/>
    </g>
    <g text-rendering="geometricPrecision" stroke-miterlimit="1.45" shape-rendering="geometricPrecision" transform="matrix(1,0,0,1,-494,-462)" stroke-linecap="butt">
      <path fill="none" d="M661 712 L654.75 727 L659.5 724.15 L659.5 732 L662.5 732 L662.5 724.15 L667.25 727 L661 712 Z" clip-path="url(#clipPath2)"/>
    </g>
    <g text-rendering="geometricPrecision" stroke-miterlimit="1.45" shape-rendering="geometricPrecision" transform="matrix(1,0,0,1,-494,-462)" stroke-linecap="butt">
      <path fill="none" d="M711 732 L711 720" clip-path="url(#clipPath2)"/>
      <path d="M711 712 L706 724 L711 721 L716 724 Z" clip-path="url(#clipPath2)" stroke="none"/>
      <path fill="none" d="M661 782 L661 770" clip-path="url(#clipPath2)"/>
      <path d="M661 762 L656 774 L661 771 L666 774 Z" clip-path="url(#clipPath2)" stroke="none"/>
    </g>
  </g>
</svg>
