<?xml version="1.0" encoding="UTF-8"?><svg xmlns="http://www.w3.org/2000/svg" xmlns:xlink="http://www.w3.org/1999/xlink" fill-opacity="1" color-rendering="auto" color-interpolation="auto" text-rendering="auto" stroke="black" stroke-linecap="square" width="484" stroke-miterlimit="10" shape-rendering="auto" stroke-opacity="1" fill="black" stroke-dasharray="none" font-weight="normal" stroke-width="1" height="415" font-family="'Dialog'" font-style="normal" stroke-linejoin="miter" font-size="12px" stroke-dashoffset="0" image-rendering="auto">
  <!--Generated by ySVG 2.5-->
  <defs id="genericDefs"/>
  <g>
    <defs id="defs1">
      <clipPath clipPathUnits="userSpaceOnUse" id="clipPath1">
        <path d="M0 0 L484 0 L484 415 L0 415 L0 0 Z"/>
      </clipPath>
      <clipPath clipPathUnits="userSpaceOnUse" id="clipPath2">
        <path d="M468 437 L952 437 L952 852 L468 852 L468 437 Z"/>
      </clipPath>
    </defs>
    <g fill="white" text-rendering="geometricPrecision" shape-rendering="geometricPrecision" transform="translate(-468,-437)" stroke="white">
      <rect x="468" width="484" height="415" y="437" clip-path="url(#clipPath2)" stroke="none"/>
    </g>
    <g fill="white" text-rendering="geometricPrecision" shape-rendering="geometricPrecision" transform="matrix(1,0,0,1,-468,-437)" stroke="white">
      <rect x="620.4756" width="30" height="30" y="556.4502" clip-path="url(#clipPath2)" stroke="none"/>
    </g>
    <g text-rendering="geometricPrecision" stroke-miterlimit="1.45" shape-rendering="geometricPrecision" transform="matrix(1,0,0,1,-468,-437)" stroke-linecap="butt">
      <rect fill="none" x="620.4756" width="30" height="30" y="556.4502" clip-path="url(#clipPath2)"/>
    </g>
    <g fill="white" text-rendering="geometricPrecision" shape-rendering="geometricPrecision" transform="matrix(1,0,0,1,-468,-437)" stroke="white">
      <rect x="670.4756" width="30" height="30" y="556.4502" clip-path="url(#clipPath2)" stroke="none"/>
    </g>
    <g text-rendering="geometricPrecision" stroke-miterlimit="1.45" shape-rendering="geometricPrecision" font-family="sans-serif" transform="matrix(1,0,0,1,-468,-437)" stroke-linecap="butt">
      <text x="678.1163" xml:space="preserve" y="575.6046" clip-path="url(#clipPath2)" stroke="none">vp</text>
      <rect fill="none" x="670.4756" width="30" height="30" y="556.4502" clip-path="url(#clipPath2)"/>
    </g>
    <g fill="white" text-rendering="geometricPrecision" shape-rendering="geometricPrecision" transform="matrix(1,0,0,1,-468,-437)" stroke="white">
      <rect x="720.4756" width="30" height="30" y="556.4502" clip-path="url(#clipPath2)" stroke="none"/>
    </g>
    <g text-rendering="geometricPrecision" stroke-miterlimit="1.45" shape-rendering="geometricPrecision" font-family="sans-serif" transform="matrix(1,0,0,1,-468,-437)" stroke-linecap="butt">
      <text x="725.6231" xml:space="preserve" y="575.6046" clip-path="url(#clipPath2)" stroke="none">det</text>
      <rect fill="none" x="720.4756" width="30" height="30" y="556.4502" clip-path="url(#clipPath2)"/>
    </g>
    <g fill="white" text-rendering="geometricPrecision" shape-rendering="geometricPrecision" transform="matrix(1,0,0,1,-468,-437)" stroke="white">
      <rect x="770.4756" width="30" height="30" y="556.4502" clip-path="url(#clipPath2)" stroke="none"/>
    </g>
    <g text-rendering="geometricPrecision" stroke-miterlimit="1.45" shape-rendering="geometricPrecision" font-family="sans-serif" transform="matrix(1,0,0,1,-468,-437)" stroke-linecap="butt">
      <text x="778.1163" xml:space="preserve" y="575.6046" clip-path="url(#clipPath2)" stroke="none">vp</text>
      <rect fill="none" x="770.4756" width="30" height="30" y="556.4502" clip-path="url(#clipPath2)"/>
    </g>
    <g fill="white" text-rendering="geometricPrecision" shape-rendering="geometricPrecision" transform="matrix(1,0,0,1,-468,-437)" stroke="white">
      <rect x="620.4756" width="30" height="30" y="606.4502" clip-path="url(#clipPath2)" stroke="none"/>
    </g>
    <g text-rendering="geometricPrecision" stroke-miterlimit="1.45" shape-rendering="geometricPrecision" font-family="sans-serif" transform="matrix(1,0,0,1,-468,-437)" stroke-linecap="butt">
      <text x="627.8643" xml:space="preserve" y="625.6046" clip-path="url(#clipPath2)" stroke="none">np</text>
      <rect fill="none" x="620.4756" width="30" height="30" y="606.4502" clip-path="url(#clipPath2)"/>
    </g>
    <g fill="white" text-rendering="geometricPrecision" shape-rendering="geometricPrecision" transform="matrix(1,0,0,1,-468,-437)" stroke="white">
      <rect x="670.4756" width="30" height="30" y="606.4502" clip-path="url(#clipPath2)" stroke="none"/>
    </g>
    <g text-rendering="geometricPrecision" stroke-miterlimit="1.45" shape-rendering="geometricPrecision" font-family="sans-serif" transform="matrix(1,0,0,1,-468,-437)" stroke-linecap="butt">
      <text x="678.1163" xml:space="preserve" y="625.6046" clip-path="url(#clipPath2)" stroke="none">vp</text>
      <rect fill="none" x="670.4756" width="30" height="30" y="606.4502" clip-path="url(#clipPath2)"/>
    </g>
    <g fill="white" text-rendering="geometricPrecision" shape-rendering="geometricPrecision" transform="matrix(1,0,0,1,-468,-437)" stroke="white">
      <rect x="720.4756" width="30" height="30" y="606.4502" clip-path="url(#clipPath2)" stroke="none"/>
    </g>
    <g text-rendering="geometricPrecision" stroke-miterlimit="1.45" shape-rendering="geometricPrecision" font-family="sans-serif" transform="matrix(1,0,0,1,-468,-437)" stroke-linecap="butt">
      <text x="725.6231" xml:space="preserve" y="625.6046" clip-path="url(#clipPath2)" stroke="none">det</text>
      <rect fill="none" x="720.4756" width="30" height="30" y="606.4502" clip-path="url(#clipPath2)"/>
    </g>
    <g fill="white" text-rendering="geometricPrecision" shape-rendering="geometricPrecision" transform="matrix(1,0,0,1,-468,-437)" stroke="white">
      <rect x="770.4756" width="30" height="30" y="606.4502" clip-path="url(#clipPath2)" stroke="none"/>
    </g>
    <g text-rendering="geometricPrecision" stroke-miterlimit="1.45" shape-rendering="geometricPrecision" font-family="sans-serif" transform="matrix(1,0,0,1,-468,-437)" stroke-linecap="butt">
      <text x="771.9581" xml:space="preserve" y="625.6046" clip-path="url(#clipPath2)" stroke="none">verb</text>
      <rect fill="none" x="770.4756" width="30" height="30" y="606.4502" clip-path="url(#clipPath2)"/>
    </g>
    <g fill="white" text-rendering="geometricPrecision" shape-rendering="geometricPrecision" transform="matrix(1,0,0,1,-468,-437)" stroke="white">
      <rect x="620.4756" width="30" height="30" y="656.4502" clip-path="url(#clipPath2)" stroke="none"/>
    </g>
    <g text-rendering="geometricPrecision" stroke-miterlimit="1.45" shape-rendering="geometricPrecision" font-family="sans-serif" transform="matrix(1,0,0,1,-468,-437)" stroke-linecap="butt">
      <text x="627.8643" xml:space="preserve" y="675.6046" clip-path="url(#clipPath2)" stroke="none">np</text>
      <rect fill="none" x="620.4756" width="30" height="30" y="656.4502" clip-path="url(#clipPath2)"/>
    </g>
    <g fill="white" text-rendering="geometricPrecision" shape-rendering="geometricPrecision" transform="matrix(1,0,0,1,-468,-437)" stroke="white">
      <rect x="670.4756" width="30" height="30" y="656.4502" clip-path="url(#clipPath2)" stroke="none"/>
    </g>
    <g text-rendering="geometricPrecision" stroke-miterlimit="1.45" shape-rendering="geometricPrecision" font-family="sans-serif" transform="matrix(1,0,0,1,-468,-437)" stroke-linecap="butt">
      <text x="678.1163" xml:space="preserve" y="675.6046" clip-path="url(#clipPath2)" stroke="none">vp</text>
      <rect fill="none" x="670.4756" width="30" height="30" y="656.4502" clip-path="url(#clipPath2)"/>
    </g>
    <g fill="white" text-rendering="geometricPrecision" shape-rendering="geometricPrecision" transform="matrix(1,0,0,1,-468,-437)" stroke="white">
      <rect x="720.4756" width="30" height="30" y="656.4502" clip-path="url(#clipPath2)" stroke="none"/>
    </g>
    <g text-rendering="geometricPrecision" stroke-miterlimit="1.45" shape-rendering="geometricPrecision" font-family="sans-serif" transform="matrix(1,0,0,1,-468,-437)" stroke-linecap="butt">
      <text x="725.6231" xml:space="preserve" y="675.6046" clip-path="url(#clipPath2)" stroke="none">det</text>
      <rect fill="none" x="720.4756" width="30" height="30" y="656.4502" clip-path="url(#clipPath2)"/>
    </g>
    <g fill="white" text-rendering="geometricPrecision" shape-rendering="geometricPrecision" transform="matrix(1,0,0,1,-468,-437)" stroke="white">
      <rect x="770.4756" width="30" height="30" y="656.4502" clip-path="url(#clipPath2)" stroke="none"/>
    </g>
    <g text-rendering="geometricPrecision" stroke-miterlimit="1.45" shape-rendering="geometricPrecision" transform="matrix(1,0,0,1,-468,-437)" stroke-linecap="butt">
      <rect fill="none" x="770.4756" width="30" height="30" y="656.4502" clip-path="url(#clipPath2)"/>
    </g>
    <g fill="white" text-rendering="geometricPrecision" shape-rendering="geometricPrecision" transform="matrix(1,0,0,1,-468,-437)" stroke="white">
      <rect x="620.4756" width="30" height="30" y="706.4502" clip-path="url(#clipPath2)" stroke="none"/>
    </g>
    <g text-rendering="geometricPrecision" stroke-miterlimit="1.45" shape-rendering="geometricPrecision" font-family="sans-serif" transform="matrix(1,0,0,1,-468,-437)" stroke-linecap="butt">
      <text x="627.8643" xml:space="preserve" y="725.6046" clip-path="url(#clipPath2)" stroke="none">np</text>
      <rect fill="none" x="620.4756" width="30" height="30" y="706.4502" clip-path="url(#clipPath2)"/>
    </g>
    <g fill="white" text-rendering="geometricPrecision" shape-rendering="geometricPrecision" transform="matrix(1,0,0,1,-468,-437)" stroke="white">
      <rect x="670.4756" width="30" height="30" y="706.4502" clip-path="url(#clipPath2)" stroke="none"/>
    </g>
    <g text-rendering="geometricPrecision" stroke-miterlimit="1.45" shape-rendering="geometricPrecision" font-family="sans-serif" transform="matrix(1,0,0,1,-468,-437)" stroke-linecap="butt">
      <text x="671.9581" xml:space="preserve" y="725.6046" clip-path="url(#clipPath2)" stroke="none">verb</text>
      <rect fill="none" x="670.4756" width="30" height="30" y="706.4502" clip-path="url(#clipPath2)"/>
    </g>
    <g fill="white" text-rendering="geometricPrecision" shape-rendering="geometricPrecision" transform="matrix(1,0,0,1,-468,-437)" stroke="white">
      <rect x="720.4756" width="30" height="30" y="706.4502" clip-path="url(#clipPath2)" stroke="none"/>
    </g>
    <g text-rendering="geometricPrecision" stroke-miterlimit="1.45" shape-rendering="geometricPrecision" transform="matrix(1,0,0,1,-468,-437)" stroke-linecap="butt">
      <rect fill="none" x="720.4756" width="30" height="30" y="706.4502" clip-path="url(#clipPath2)"/>
    </g>
    <g fill="white" text-rendering="geometricPrecision" shape-rendering="geometricPrecision" transform="matrix(1,0,0,1,-468,-437)" stroke="white">
      <rect x="770.4756" width="30" height="30" y="706.4502" clip-path="url(#clipPath2)" stroke="none"/>
    </g>
    <g text-rendering="geometricPrecision" stroke-miterlimit="1.45" shape-rendering="geometricPrecision" transform="matrix(1,0,0,1,-468,-437)" stroke-linecap="butt">
      <rect fill="none" x="770.4756" width="30" height="30" y="706.4502" clip-path="url(#clipPath2)"/>
    </g>
    <g fill="white" text-rendering="geometricPrecision" shape-rendering="geometricPrecision" transform="matrix(1,0,0,1,-468,-437)" stroke="white">
      <rect x="620.4756" width="30" height="30" y="756.4502" clip-path="url(#clipPath2)" stroke="none"/>
    </g>
    <g text-rendering="geometricPrecision" stroke-miterlimit="1.45" shape-rendering="geometricPrecision" font-family="sans-serif" transform="matrix(1,0,0,1,-468,-437)" stroke-linecap="butt">
      <text x="621.7266" xml:space="preserve" y="775.6046" clip-path="url(#clipPath2)" stroke="none">pron</text>
      <rect fill="none" x="620.4756" width="30" height="30" y="756.4502" clip-path="url(#clipPath2)"/>
    </g>
    <g fill="white" text-rendering="geometricPrecision" shape-rendering="geometricPrecision" transform="matrix(1,0,0,1,-468,-437)" stroke="white">
      <rect x="670.4756" width="30" height="30" y="756.4502" clip-path="url(#clipPath2)" stroke="none"/>
    </g>
    <g text-rendering="geometricPrecision" stroke-miterlimit="1.45" shape-rendering="geometricPrecision" transform="matrix(1,0,0,1,-468,-437)" stroke-linecap="butt">
      <rect fill="none" x="670.4756" width="30" height="30" y="756.4502" clip-path="url(#clipPath2)"/>
    </g>
    <g fill="white" text-rendering="geometricPrecision" shape-rendering="geometricPrecision" transform="matrix(1,0,0,1,-468,-437)" stroke="white">
      <rect x="720.4756" width="30" height="30" y="756.4502" clip-path="url(#clipPath2)" stroke="none"/>
    </g>
    <g text-rendering="geometricPrecision" stroke-miterlimit="1.45" shape-rendering="geometricPrecision" transform="matrix(1,0,0,1,-468,-437)" stroke-linecap="butt">
      <rect fill="none" x="720.4756" width="30" height="30" y="756.4502" clip-path="url(#clipPath2)"/>
    </g>
    <g fill="white" text-rendering="geometricPrecision" shape-rendering="geometricPrecision" transform="matrix(1,0,0,1,-468,-437)" stroke="white">
      <rect x="770.4756" width="30" height="30" y="756.4502" clip-path="url(#clipPath2)" stroke="none"/>
    </g>
    <g text-rendering="geometricPrecision" stroke-miterlimit="1.45" shape-rendering="geometricPrecision" transform="matrix(1,0,0,1,-468,-437)" stroke-linecap="butt">
      <rect fill="none" x="770.4756" width="30" height="30" y="756.4502" clip-path="url(#clipPath2)"/>
    </g>
    <g fill="white" text-rendering="geometricPrecision" shape-rendering="geometricPrecision" transform="matrix(1,0,0,1,-468,-437)" stroke="white">
      <rect x="620.4756" width="180" height="30" y="504.4502" clip-path="url(#clipPath2)" stroke="none"/>
    </g>
    <g text-rendering="geometricPrecision" stroke-miterlimit="1.45" shape-rendering="geometricPrecision" font-family="sans-serif" transform="matrix(1,0,0,1,-468,-437)" stroke-linecap="butt">
      <text x="685.3653" xml:space="preserve" y="523.6046" clip-path="url(#clipPath2)" stroke="none">Step 3.1</text>
      <rect fill="none" x="620.4756" width="180" height="30" y="504.4502" clip-path="url(#clipPath2)"/>
    </g>
    <g fill="white" text-rendering="geometricPrecision" shape-rendering="geometricPrecision" transform="matrix(1,0,0,1,-468,-437)" stroke="white">
      <rect x="483.9756" width="453" height="30" y="452.4502" clip-path="url(#clipPath2)" stroke="none"/>
    </g>
    <g text-rendering="geometricPrecision" stroke-miterlimit="1.45" shape-rendering="geometricPrecision" font-family="sans-serif" transform="matrix(1,0,0,1,-468,-437)" stroke-linecap="butt">
      <text x="517.1192" xml:space="preserve" y="471.6045" clip-path="url(#clipPath2)" stroke="none">CKY of "I am a Function" - First Permutation: Pron Verb Det Verb</text>
      <rect fill="none" x="483.9756" width="453" height="30" y="452.4502" clip-path="url(#clipPath2)"/>
    </g>
    <g fill="white" text-rendering="geometricPrecision" shape-rendering="geometricPrecision" transform="matrix(1,0,0,1,-468,-437)" stroke="white">
      <rect x="483.9756" width="453" height="30" y="806.4502" clip-path="url(#clipPath2)" stroke="none"/>
    </g>
    <g text-rendering="geometricPrecision" stroke-miterlimit="1.45" shape-rendering="geometricPrecision" font-family="sans-serif" transform="matrix(1,0,0,1,-468,-437)" stroke-linecap="butt">
      <text x="682.046" xml:space="preserve" y="825.6046" clip-path="url(#clipPath2)" stroke="none">Figure 11</text>
      <rect fill="none" x="483.9756" width="453" height="30" y="806.4502" clip-path="url(#clipPath2)"/>
    </g>
    <g text-rendering="geometricPrecision" stroke-miterlimit="1.45" shape-rendering="geometricPrecision" transform="matrix(1,0,0,1,-468,-437)" stroke-linecap="butt">
      <path fill="none" d="M685.4756 586.4503 L679.2256 601.4503 L683.9756 598.6003 L683.9756 606.4503 L686.9756 606.4503 L686.9756 598.6003 L691.7256 601.4503 L685.4756 586.4503 Z" clip-path="url(#clipPath2)"/>
    </g>
    <g text-rendering="geometricPrecision" stroke-miterlimit="1.45" shape-rendering="geometricPrecision" transform="matrix(1,0,0,1,-468,-437)" stroke-linecap="butt">
      <path fill="none" d="M735.4756 586.4503 L729.2256 601.4503 L733.9756 598.6003 L733.9756 606.4503 L736.9756 606.4503 L736.9756 598.6003 L741.7256 601.4503 L735.4756 586.4503 Z" clip-path="url(#clipPath2)"/>
    </g>
    <g text-rendering="geometricPrecision" stroke-miterlimit="1.45" shape-rendering="geometricPrecision" transform="matrix(1,0,0,1,-468,-437)" stroke-linecap="butt">
      <path fill="none" d="M785.4756 606.4503 L785.4756 594.4503" clip-path="url(#clipPath2)"/>
      <path d="M785.4756 586.4503 L780.4756 598.4503 L785.4756 595.4503 L790.4756 598.4503 Z" clip-path="url(#clipPath2)" stroke="none"/>
    </g>
    <g text-rendering="geometricPrecision" stroke-miterlimit="1.45" shape-rendering="geometricPrecision" transform="matrix(1,0,0,1,-468,-437)" stroke-linecap="butt">
      <path fill="none" d="M635.4756 636.4503 L629.2256 651.4503 L633.9756 648.6003 L633.9756 656.4503 L636.9756 656.4503 L636.9756 648.6003 L641.7256 651.4503 L635.4756 636.4503 Z" clip-path="url(#clipPath2)"/>
    </g>
    <g text-rendering="geometricPrecision" stroke-miterlimit="1.45" shape-rendering="geometricPrecision" transform="matrix(1,0,0,1,-468,-437)" stroke-linecap="butt">
      <path fill="none" d="M685.4756 636.4503 L679.2256 651.4503 L683.9756 648.6003 L683.9756 656.4503 L686.9756 656.4503 L686.9756 648.6003 L691.7256 651.4503 L685.4756 636.4503 Z" clip-path="url(#clipPath2)"/>
    </g>
    <g text-rendering="geometricPrecision" stroke-miterlimit="1.45" shape-rendering="geometricPrecision" transform="matrix(1,0,0,1,-468,-437)" stroke-linecap="butt">
      <path fill="none" d="M735.4756 636.4503 L729.2256 651.4503 L733.9756 648.6003 L733.9756 656.4503 L736.9756 656.4503 L736.9756 648.6003 L741.7256 651.4503 L735.4756 636.4503 Z" clip-path="url(#clipPath2)"/>
    </g>
    <g text-rendering="geometricPrecision" stroke-miterlimit="1.45" shape-rendering="geometricPrecision" transform="matrix(1,0,0,1,-468,-437)" stroke-linecap="butt">
      <path fill="none" d="M635.4756 686.4503 L629.2256 701.4503 L633.9756 698.6003 L633.9756 706.4503 L636.9756 706.4503 L636.9756 698.6003 L641.7256 701.4503 L635.4756 686.4503 Z" clip-path="url(#clipPath2)"/>
    </g>
    <g text-rendering="geometricPrecision" stroke-miterlimit="1.45" shape-rendering="geometricPrecision" transform="matrix(1,0,0,1,-468,-437)" stroke-linecap="butt">
      <path fill="none" d="M685.4756 706.4503 L685.4756 694.4503" clip-path="url(#clipPath2)"/>
      <path d="M685.4756 686.4503 L680.4756 698.4503 L685.4756 695.4503 L690.4756 698.4503 Z" clip-path="url(#clipPath2)" stroke="none"/>
      <path fill="none" d="M635.4756 756.4503 L635.4756 744.4503" clip-path="url(#clipPath2)"/>
      <path d="M635.4756 736.4503 L630.4756 748.4503 L635.4756 745.4503 L640.4756 748.4503 Z" clip-path="url(#clipPath2)" stroke="none"/>
    </g>
  </g>
</svg>
