<?xml version="1.0" encoding="UTF-8"?><svg xmlns="http://www.w3.org/2000/svg" xmlns:xlink="http://www.w3.org/1999/xlink" fill-opacity="1" color-rendering="auto" color-interpolation="auto" text-rendering="auto" stroke="black" stroke-linecap="square" width="553" stroke-miterlimit="10" shape-rendering="auto" stroke-opacity="1" fill="black" stroke-dasharray="none" font-weight="normal" stroke-width="1" height="633" font-family="'Dialog'" font-style="normal" stroke-linejoin="miter" font-size="12px" stroke-dashoffset="0" image-rendering="auto">
  <!--Generated by ySVG 2.5-->
  <defs id="genericDefs"/>
  <g>
    <defs id="defs1">
      <clipPath clipPathUnits="userSpaceOnUse" id="clipPath1">
        <path d="M0 0 L553 0 L553 633 L0 633 L0 0 Z"/>
      </clipPath>
      <clipPath clipPathUnits="userSpaceOnUse" id="clipPath2">
        <path d="M429 314 L982 314 L982 947 L429 947 L429 314 Z"/>
      </clipPath>
    </defs>
    <g fill="white" text-rendering="geometricPrecision" shape-rendering="geometricPrecision" transform="translate(-429,-314)" stroke="white">
      <rect x="429" width="553" height="633" y="314" clip-path="url(#clipPath2)" stroke="none"/>
    </g>
    <g font-size="15px" stroke-linecap="butt" transform="matrix(1,0,0,1,-429,-314)" text-rendering="geometricPrecision" font-family="sans-serif" shape-rendering="geometricPrecision" stroke-miterlimit="1.45">
      <text x="472.2228" xml:space="preserve" y="816.9225" clip-path="url(#clipPath2)" stroke="none">Stack</text>
      <rect x="447.1574" y="800.9992" clip-path="url(#clipPath2)" fill="none" width="68.5938" stroke-dasharray="6,2" rx="4" ry="4" height="80.4609"/>
      <text x="898.6106" xml:space="preserve" y="816.4225" clip-path="url(#clipPath2)" stroke="none">Line</text>
      <rect x="571.8704" y="800.4992" clip-path="url(#clipPath2)" fill="none" width="360" stroke-dasharray="6,2" rx="4" ry="4" height="81.4609"/>
    </g>
    <g fill="white" text-rendering="geometricPrecision" shape-rendering="geometricPrecision" transform="matrix(1,0,0,1,-429,-314)" stroke="white">
      <rect x="586.8704" width="30" height="30" y="836.9601" clip-path="url(#clipPath2)" stroke="none"/>
    </g>
    <g text-rendering="geometricPrecision" stroke-miterlimit="1.45" shape-rendering="geometricPrecision" font-family="sans-serif" transform="matrix(1,0,0,1,-429,-314)" stroke-linecap="butt">
      <text x="598.7444" xml:space="preserve" y="856.1144" clip-path="url(#clipPath2)" stroke="none">s</text>
      <rect fill="none" x="586.8704" width="30" height="30" y="836.9601" clip-path="url(#clipPath2)"/>
    </g>
    <g fill="white" text-rendering="geometricPrecision" shape-rendering="geometricPrecision" transform="matrix(1,0,0,1,-429,-314)" stroke="white">
      <rect x="616.8704" width="30" height="30" y="836.9601" clip-path="url(#clipPath2)" stroke="none"/>
    </g>
    <g text-rendering="geometricPrecision" stroke-miterlimit="1.45" shape-rendering="geometricPrecision" font-family="sans-serif" transform="matrix(1,0,0,1,-429,-314)" stroke-linecap="butt">
      <text x="629.5295" xml:space="preserve" y="856.1144" clip-path="url(#clipPath2)" stroke="none">(</text>
      <rect fill="none" x="616.8704" width="30" height="30" y="836.9601" clip-path="url(#clipPath2)"/>
    </g>
    <g fill="white" text-rendering="geometricPrecision" shape-rendering="geometricPrecision" transform="matrix(1,0,0,1,-429,-314)" stroke="white">
      <rect x="646.8704" width="30" height="30" y="836.9601" clip-path="url(#clipPath2)" stroke="none"/>
    </g>
    <g text-rendering="geometricPrecision" stroke-miterlimit="1.45" shape-rendering="geometricPrecision" font-family="sans-serif" transform="matrix(1,0,0,1,-429,-314)" stroke-linecap="butt">
      <text x="654.259" xml:space="preserve" y="856.1144" clip-path="url(#clipPath2)" stroke="none">np</text>
      <rect fill="none" x="646.8704" width="30" height="30" y="836.9601" clip-path="url(#clipPath2)"/>
    </g>
    <g fill="white" text-rendering="geometricPrecision" shape-rendering="geometricPrecision" transform="matrix(1,0,0,1,-429,-314)" stroke="white">
      <rect x="676.8704" width="30" height="30" y="836.9601" clip-path="url(#clipPath2)" stroke="none"/>
    </g>
    <g text-rendering="geometricPrecision" stroke-miterlimit="1.45" shape-rendering="geometricPrecision" font-family="sans-serif" transform="matrix(1,0,0,1,-429,-314)" stroke-linecap="butt">
      <text x="689.5295" xml:space="preserve" y="856.1144" clip-path="url(#clipPath2)" stroke="none">(</text>
      <rect fill="none" x="676.8704" width="30" height="30" y="836.9601" clip-path="url(#clipPath2)"/>
    </g>
    <g fill="white" text-rendering="geometricPrecision" shape-rendering="geometricPrecision" transform="matrix(1,0,0,1,-429,-314)" stroke="white">
      <rect x="736.8704" width="30" height="30" y="836.9601" clip-path="url(#clipPath2)" stroke="none"/>
    </g>
    <g text-rendering="geometricPrecision" stroke-miterlimit="1.45" shape-rendering="geometricPrecision" font-family="sans-serif" transform="matrix(1,0,0,1,-429,-314)" stroke-linecap="butt">
      <text x="749.5295" xml:space="preserve" y="856.1144" clip-path="url(#clipPath2)" stroke="none">)</text>
      <rect fill="none" x="736.8704" width="30" height="30" y="836.9601" clip-path="url(#clipPath2)"/>
    </g>
    <g fill="white" text-rendering="geometricPrecision" shape-rendering="geometricPrecision" transform="matrix(1,0,0,1,-429,-314)" stroke="white">
      <rect x="706.8704" width="30" height="30" y="836.9601" clip-path="url(#clipPath2)" stroke="none"/>
    </g>
    <g text-rendering="geometricPrecision" stroke-miterlimit="1.45" shape-rendering="geometricPrecision" font-family="sans-serif" transform="matrix(1,0,0,1,-429,-314)" stroke-linecap="butt">
      <text x="708.1213" xml:space="preserve" y="856.1144" clip-path="url(#clipPath2)" stroke="none">pron</text>
      <rect fill="none" x="706.8704" width="30" height="30" y="836.9601" clip-path="url(#clipPath2)"/>
    </g>
    <g fill="white" text-rendering="geometricPrecision" shape-rendering="geometricPrecision" transform="matrix(1,0,0,1,-429,-314)" stroke="white">
      <rect x="766.8704" width="30" height="30" y="836.9601" clip-path="url(#clipPath2)" stroke="none"/>
    </g>
    <g text-rendering="geometricPrecision" stroke-miterlimit="1.45" shape-rendering="geometricPrecision" font-family="sans-serif" transform="matrix(1,0,0,1,-429,-314)" stroke-linecap="butt">
      <text x="774.511" xml:space="preserve" y="856.1144" clip-path="url(#clipPath2)" stroke="none">vp</text>
      <rect fill="none" x="766.8704" width="30" height="30" y="836.9601" clip-path="url(#clipPath2)"/>
    </g>
    <g fill="white" text-rendering="geometricPrecision" shape-rendering="geometricPrecision" transform="matrix(1,0,0,1,-429,-314)" stroke="white">
      <rect x="796.8704" width="30" height="30" y="836.9601" clip-path="url(#clipPath2)" stroke="none"/>
    </g>
    <g text-rendering="geometricPrecision" stroke-miterlimit="1.45" shape-rendering="geometricPrecision" font-family="sans-serif" transform="matrix(1,0,0,1,-429,-314)" stroke-linecap="butt">
      <text x="809.5295" xml:space="preserve" y="856.1144" clip-path="url(#clipPath2)" stroke="none">(</text>
      <rect fill="none" x="796.8704" width="30" height="30" y="836.9601" clip-path="url(#clipPath2)"/>
    </g>
    <g fill="white" text-rendering="geometricPrecision" shape-rendering="geometricPrecision" transform="matrix(1,0,0,1,-429,-314)" stroke="white">
      <rect x="886.8704" width="30" height="30" y="836.9601" clip-path="url(#clipPath2)" stroke="none"/>
    </g>
    <g text-rendering="geometricPrecision" stroke-miterlimit="1.45" shape-rendering="geometricPrecision" font-family="sans-serif" transform="matrix(1,0,0,1,-429,-314)" stroke-linecap="butt">
      <text x="899.5295" xml:space="preserve" y="856.1144" clip-path="url(#clipPath2)" stroke="none">)</text>
      <rect fill="none" x="886.8704" width="30" height="30" y="836.9601" clip-path="url(#clipPath2)"/>
    </g>
    <g fill="white" text-rendering="geometricPrecision" shape-rendering="geometricPrecision" transform="matrix(1,0,0,1,-429,-314)" stroke="white">
      <rect x="856.8704" width="30" height="30" y="836.9601" clip-path="url(#clipPath2)" stroke="none"/>
    </g>
    <g text-rendering="geometricPrecision" stroke-miterlimit="1.45" shape-rendering="geometricPrecision" font-family="sans-serif" transform="matrix(1,0,0,1,-429,-314)" stroke-linecap="butt">
      <text x="869.5295" xml:space="preserve" y="856.1144" clip-path="url(#clipPath2)" stroke="none">)</text>
      <rect fill="none" x="856.8704" width="30" height="30" y="836.9601" clip-path="url(#clipPath2)"/>
    </g>
    <g fill="white" text-rendering="geometricPrecision" shape-rendering="geometricPrecision" transform="matrix(1,0,0,1,-429,-314)" stroke="white">
      <rect x="826.8704" width="30" height="30" y="836.9601" clip-path="url(#clipPath2)" stroke="none"/>
    </g>
    <g text-rendering="geometricPrecision" stroke-miterlimit="1.45" shape-rendering="geometricPrecision" font-family="sans-serif" transform="matrix(1,0,0,1,-429,-314)" stroke-linecap="butt">
      <text x="828.3528" xml:space="preserve" y="856.1144" clip-path="url(#clipPath2)" stroke="none">verb</text>
      <rect fill="none" x="826.8704" width="30" height="30" y="836.9601" clip-path="url(#clipPath2)"/>
    </g>
    <g fill="white" text-rendering="geometricPrecision" shape-rendering="geometricPrecision" transform="matrix(1,0,0,1,-429,-314)" stroke="white">
      <rect x="445.6359" width="30" height="30" y="500.9992" clip-path="url(#clipPath2)" stroke="none"/>
    </g>
    <g text-rendering="geometricPrecision" stroke-miterlimit="1.45" shape-rendering="geometricPrecision" font-family="sans-serif" transform="matrix(1,0,0,1,-429,-314)" stroke-linecap="butt">
      <text x="457.5099" xml:space="preserve" y="520.1534" clip-path="url(#clipPath2)" stroke="none">s</text>
    </g>
    <g stroke-linecap="round" transform="matrix(1,0,0,1,-429,-314)" stroke-dashoffset="2" text-rendering="geometricPrecision" shape-rendering="geometricPrecision" stroke-dasharray="0,4" stroke-miterlimit="1.45">
      <rect fill="none" x="445.6359" width="30" height="30" y="500.9992" clip-path="url(#clipPath2)"/>
    </g>
    <g fill="white" text-rendering="geometricPrecision" shape-rendering="geometricPrecision" transform="matrix(1,0,0,1,-429,-314)" stroke="white">
      <rect x="495.6359" width="30" height="30" y="500.9992" clip-path="url(#clipPath2)" stroke="none"/>
    </g>
    <g text-rendering="geometricPrecision" stroke-miterlimit="1.45" shape-rendering="geometricPrecision" font-family="sans-serif" transform="matrix(1,0,0,1,-429,-314)" stroke-linecap="butt">
      <text x="503.2765" xml:space="preserve" y="520.1534" clip-path="url(#clipPath2)" stroke="none">vp</text>
    </g>
    <g stroke-linecap="round" transform="matrix(1,0,0,1,-429,-314)" stroke-dashoffset="2" text-rendering="geometricPrecision" shape-rendering="geometricPrecision" stroke-dasharray="0,4" stroke-miterlimit="1.45">
      <rect fill="none" x="495.6359" width="30" height="30" y="500.9992" clip-path="url(#clipPath2)"/>
    </g>
    <g fill="white" text-rendering="geometricPrecision" shape-rendering="geometricPrecision" transform="matrix(1,0,0,1,-429,-314)" stroke="white">
      <rect x="545.6359" width="30" height="30" y="500.9992" clip-path="url(#clipPath2)" stroke="none"/>
    </g>
    <g text-rendering="geometricPrecision" stroke-miterlimit="1.45" shape-rendering="geometricPrecision" font-family="sans-serif" transform="matrix(1,0,0,1,-429,-314)" stroke-linecap="butt">
      <text x="550.7834" xml:space="preserve" y="520.1534" clip-path="url(#clipPath2)" stroke="none">det</text>
      <rect fill="none" x="545.6359" width="30" height="30" y="500.9992" clip-path="url(#clipPath2)"/>
    </g>
    <g fill="white" text-rendering="geometricPrecision" shape-rendering="geometricPrecision" transform="matrix(1,0,0,1,-429,-314)" stroke="white">
      <rect x="595.6359" width="30" height="30" y="500.9992" clip-path="url(#clipPath2)" stroke="none"/>
    </g>
    <g text-rendering="geometricPrecision" stroke-miterlimit="1.45" shape-rendering="geometricPrecision" font-family="sans-serif" transform="matrix(1,0,0,1,-429,-314)" stroke-linecap="butt">
      <text x="603.2766" xml:space="preserve" y="520.1534" clip-path="url(#clipPath2)" stroke="none">vp</text>
      <rect fill="none" x="595.6359" width="30" height="30" y="500.9992" clip-path="url(#clipPath2)"/>
    </g>
    <g fill="white" text-rendering="geometricPrecision" shape-rendering="geometricPrecision" transform="matrix(1,0,0,1,-429,-314)" stroke="white">
      <rect x="445.6359" width="30" height="30" y="550.9992" clip-path="url(#clipPath2)" stroke="none"/>
    </g>
    <g text-rendering="geometricPrecision" stroke-miterlimit="1.45" shape-rendering="geometricPrecision" font-family="sans-serif" transform="matrix(1,0,0,1,-429,-314)" stroke-linecap="butt">
      <text x="453.0246" xml:space="preserve" y="570.1534" clip-path="url(#clipPath2)" stroke="none">np</text>
    </g>
    <g stroke-linecap="round" transform="matrix(1,0,0,1,-429,-314)" stroke-dashoffset="2" text-rendering="geometricPrecision" shape-rendering="geometricPrecision" stroke-dasharray="0,4" stroke-miterlimit="1.45">
      <rect fill="none" x="445.6359" width="30" height="30" y="550.9992" clip-path="url(#clipPath2)"/>
    </g>
    <g fill="white" text-rendering="geometricPrecision" shape-rendering="geometricPrecision" transform="matrix(1,0,0,1,-429,-314)" stroke="white">
      <rect x="495.6359" width="30" height="30" y="550.9992" clip-path="url(#clipPath2)" stroke="none"/>
    </g>
    <g text-rendering="geometricPrecision" stroke-miterlimit="1.45" shape-rendering="geometricPrecision" font-family="sans-serif" transform="matrix(1,0,0,1,-429,-314)" stroke-linecap="butt">
      <text x="503.2765" xml:space="preserve" y="570.1534" clip-path="url(#clipPath2)" stroke="none">vp</text>
      <rect fill="none" x="495.6359" width="30" height="30" y="550.9992" clip-path="url(#clipPath2)"/>
    </g>
    <g fill="white" text-rendering="geometricPrecision" shape-rendering="geometricPrecision" transform="matrix(1,0,0,1,-429,-314)" stroke="white">
      <rect x="545.6359" width="30" height="30" y="550.9992" clip-path="url(#clipPath2)" stroke="none"/>
    </g>
    <g text-rendering="geometricPrecision" stroke-miterlimit="1.45" shape-rendering="geometricPrecision" font-family="sans-serif" transform="matrix(1,0,0,1,-429,-314)" stroke-linecap="butt">
      <text x="550.7834" xml:space="preserve" y="570.1534" clip-path="url(#clipPath2)" stroke="none">det</text>
      <rect fill="none" x="545.6359" width="30" height="30" y="550.9992" clip-path="url(#clipPath2)"/>
    </g>
    <g fill="white" text-rendering="geometricPrecision" shape-rendering="geometricPrecision" transform="matrix(1,0,0,1,-429,-314)" stroke="white">
      <rect x="595.6359" width="30" height="30" y="550.9992" clip-path="url(#clipPath2)" stroke="none"/>
    </g>
    <g text-rendering="geometricPrecision" stroke-miterlimit="1.45" shape-rendering="geometricPrecision" font-family="sans-serif" transform="matrix(1,0,0,1,-429,-314)" stroke-linecap="butt">
      <text x="597.1183" xml:space="preserve" y="570.1534" clip-path="url(#clipPath2)" stroke="none">verb</text>
      <rect fill="none" x="595.6359" width="30" height="30" y="550.9992" clip-path="url(#clipPath2)"/>
    </g>
    <g fill="white" text-rendering="geometricPrecision" shape-rendering="geometricPrecision" transform="matrix(1,0,0,1,-429,-314)" stroke="white">
      <rect x="445.6359" width="30" height="30" y="600.9992" clip-path="url(#clipPath2)" stroke="none"/>
    </g>
    <g text-rendering="geometricPrecision" stroke-miterlimit="1.45" shape-rendering="geometricPrecision" font-family="sans-serif" transform="matrix(1,0,0,1,-429,-314)" stroke-linecap="butt">
      <text x="453.0246" xml:space="preserve" y="620.1534" clip-path="url(#clipPath2)" stroke="none">np</text>
      <rect fill="none" x="445.6359" width="30" height="30" y="600.9992" clip-path="url(#clipPath2)"/>
    </g>
    <g fill="white" text-rendering="geometricPrecision" shape-rendering="geometricPrecision" transform="matrix(1,0,0,1,-429,-314)" stroke="white">
      <rect x="495.6359" width="30" height="30" y="600.9992" clip-path="url(#clipPath2)" stroke="none"/>
    </g>
    <g text-rendering="geometricPrecision" stroke-miterlimit="1.45" shape-rendering="geometricPrecision" font-family="sans-serif" transform="matrix(1,0,0,1,-429,-314)" stroke-linecap="butt">
      <text x="503.2765" xml:space="preserve" y="620.1534" clip-path="url(#clipPath2)" stroke="none">vp</text>
      <rect fill="none" x="495.6359" width="30" height="30" y="600.9992" clip-path="url(#clipPath2)"/>
    </g>
    <g fill="white" text-rendering="geometricPrecision" shape-rendering="geometricPrecision" transform="matrix(1,0,0,1,-429,-314)" stroke="white">
      <rect x="545.6359" width="30" height="30" y="600.9992" clip-path="url(#clipPath2)" stroke="none"/>
    </g>
    <g text-rendering="geometricPrecision" stroke-miterlimit="1.45" shape-rendering="geometricPrecision" font-family="sans-serif" transform="matrix(1,0,0,1,-429,-314)" stroke-linecap="butt">
      <text x="550.7834" xml:space="preserve" y="620.1534" clip-path="url(#clipPath2)" stroke="none">det</text>
      <rect fill="none" x="545.6359" width="30" height="30" y="600.9992" clip-path="url(#clipPath2)"/>
    </g>
    <g fill="white" text-rendering="geometricPrecision" shape-rendering="geometricPrecision" transform="matrix(1,0,0,1,-429,-314)" stroke="white">
      <rect x="595.6359" width="30" height="30" y="600.9992" clip-path="url(#clipPath2)" stroke="none"/>
    </g>
    <g text-rendering="geometricPrecision" stroke-miterlimit="1.45" shape-rendering="geometricPrecision" transform="matrix(1,0,0,1,-429,-314)" stroke-linecap="butt">
      <rect fill="none" x="595.6359" width="30" height="30" y="600.9992" clip-path="url(#clipPath2)"/>
    </g>
    <g fill="white" text-rendering="geometricPrecision" shape-rendering="geometricPrecision" transform="matrix(1,0,0,1,-429,-314)" stroke="white">
      <rect x="445.6359" width="30" height="30" y="650.9992" clip-path="url(#clipPath2)" stroke="none"/>
    </g>
    <g text-rendering="geometricPrecision" stroke-miterlimit="1.45" shape-rendering="geometricPrecision" font-family="sans-serif" transform="matrix(1,0,0,1,-429,-314)" stroke-linecap="butt">
      <text x="453.0246" xml:space="preserve" y="670.1534" clip-path="url(#clipPath2)" stroke="none">np</text>
      <rect fill="none" x="445.6359" width="30" height="30" y="650.9992" clip-path="url(#clipPath2)"/>
    </g>
    <g fill="white" text-rendering="geometricPrecision" shape-rendering="geometricPrecision" transform="matrix(1,0,0,1,-429,-314)" stroke="white">
      <rect x="495.6359" width="30" height="30" y="650.9992" clip-path="url(#clipPath2)" stroke="none"/>
    </g>
    <g text-rendering="geometricPrecision" stroke-miterlimit="1.45" shape-rendering="geometricPrecision" font-family="sans-serif" transform="matrix(1,0,0,1,-429,-314)" stroke-linecap="butt">
      <text x="497.1183" xml:space="preserve" y="670.1534" clip-path="url(#clipPath2)" stroke="none">verb</text>
    </g>
    <g stroke-linecap="round" transform="matrix(1,0,0,1,-429,-314)" stroke-dashoffset="2" text-rendering="geometricPrecision" shape-rendering="geometricPrecision" stroke-dasharray="0,4" stroke-miterlimit="1.45">
      <rect fill="none" x="495.6359" width="30" height="30" y="650.9992" clip-path="url(#clipPath2)"/>
    </g>
    <g fill="white" text-rendering="geometricPrecision" shape-rendering="geometricPrecision" transform="matrix(1,0,0,1,-429,-314)" stroke="white">
      <rect x="545.6359" width="30" height="30" y="650.9992" clip-path="url(#clipPath2)" stroke="none"/>
    </g>
    <g text-rendering="geometricPrecision" stroke-miterlimit="1.45" shape-rendering="geometricPrecision" transform="matrix(1,0,0,1,-429,-314)" stroke-linecap="butt">
      <rect fill="none" x="545.6359" width="30" height="30" y="650.9992" clip-path="url(#clipPath2)"/>
    </g>
    <g fill="white" text-rendering="geometricPrecision" shape-rendering="geometricPrecision" transform="matrix(1,0,0,1,-429,-314)" stroke="white">
      <rect x="595.6359" width="30" height="30" y="650.9992" clip-path="url(#clipPath2)" stroke="none"/>
    </g>
    <g text-rendering="geometricPrecision" stroke-miterlimit="1.45" shape-rendering="geometricPrecision" transform="matrix(1,0,0,1,-429,-314)" stroke-linecap="butt">
      <rect fill="none" x="595.6359" width="30" height="30" y="650.9992" clip-path="url(#clipPath2)"/>
    </g>
    <g fill="white" text-rendering="geometricPrecision" shape-rendering="geometricPrecision" transform="matrix(1,0,0,1,-429,-314)" stroke="white">
      <rect x="445.6359" width="30" height="30" y="700.9992" clip-path="url(#clipPath2)" stroke="none"/>
    </g>
    <g text-rendering="geometricPrecision" stroke-miterlimit="1.45" shape-rendering="geometricPrecision" font-family="sans-serif" transform="matrix(1,0,0,1,-429,-314)" stroke-linecap="butt">
      <text x="446.8869" xml:space="preserve" y="720.1534" clip-path="url(#clipPath2)" stroke="none">pron</text>
    </g>
    <g stroke-linecap="round" transform="matrix(1,0,0,1,-429,-314)" stroke-dashoffset="2" text-rendering="geometricPrecision" shape-rendering="geometricPrecision" stroke-dasharray="0,4" stroke-miterlimit="1.45">
      <rect fill="none" x="445.6359" width="30" height="30" y="700.9992" clip-path="url(#clipPath2)"/>
    </g>
    <g fill="white" text-rendering="geometricPrecision" shape-rendering="geometricPrecision" transform="matrix(1,0,0,1,-429,-314)" stroke="white">
      <rect x="495.6359" width="30" height="30" y="700.9992" clip-path="url(#clipPath2)" stroke="none"/>
    </g>
    <g text-rendering="geometricPrecision" stroke-miterlimit="1.45" shape-rendering="geometricPrecision" transform="matrix(1,0,0,1,-429,-314)" stroke-linecap="butt">
      <rect fill="none" x="495.6359" width="30" height="30" y="700.9992" clip-path="url(#clipPath2)"/>
    </g>
    <g fill="white" text-rendering="geometricPrecision" shape-rendering="geometricPrecision" transform="matrix(1,0,0,1,-429,-314)" stroke="white">
      <rect x="545.6359" width="30" height="30" y="700.9992" clip-path="url(#clipPath2)" stroke="none"/>
    </g>
    <g text-rendering="geometricPrecision" stroke-miterlimit="1.45" shape-rendering="geometricPrecision" transform="matrix(1,0,0,1,-429,-314)" stroke-linecap="butt">
      <rect fill="none" x="545.6359" width="30" height="30" y="700.9992" clip-path="url(#clipPath2)"/>
    </g>
    <g fill="white" text-rendering="geometricPrecision" shape-rendering="geometricPrecision" transform="matrix(1,0,0,1,-429,-314)" stroke="white">
      <rect x="595.6359" width="30" height="30" y="700.9992" clip-path="url(#clipPath2)" stroke="none"/>
    </g>
    <g text-rendering="geometricPrecision" stroke-miterlimit="1.45" shape-rendering="geometricPrecision" transform="matrix(1,0,0,1,-429,-314)" stroke-linecap="butt">
      <rect fill="none" x="595.6359" width="30" height="30" y="700.9992" clip-path="url(#clipPath2)"/>
    </g>
    <g fill="white" text-rendering="geometricPrecision" shape-rendering="geometricPrecision" transform="matrix(1,0,0,1,-429,-314)" stroke="white">
      <rect x="445.6359" width="180" height="30" y="448.9992" clip-path="url(#clipPath2)" stroke="none"/>
    </g>
    <g text-rendering="geometricPrecision" stroke-miterlimit="1.45" shape-rendering="geometricPrecision" font-family="sans-serif" transform="matrix(1,0,0,1,-429,-314)" stroke-linecap="butt">
      <text x="503.049" xml:space="preserve" y="468.1534" clip-path="url(#clipPath2)" stroke="none">CKY Matrix</text>
      <rect fill="none" x="445.6359" width="180" height="30" y="448.9992" clip-path="url(#clipPath2)"/>
    </g>
    <g fill="white" text-rendering="geometricPrecision" shape-rendering="geometricPrecision" transform="matrix(1,0,0,1,-429,-314)" stroke="white">
      <rect x="726.9901" width="237.6042" height="30" y="448.9992" clip-path="url(#clipPath2)" stroke="none"/>
    </g>
    <g text-rendering="geometricPrecision" stroke-miterlimit="1.45" shape-rendering="geometricPrecision" font-family="sans-serif" transform="matrix(1,0,0,1,-429,-314)" stroke-linecap="butt">
      <text x="832.2775" xml:space="preserve" y="468.1534" clip-path="url(#clipPath2)" stroke="none">Tree</text>
      <rect fill="none" x="726.9901" width="237.6042" height="30" y="448.9992" clip-path="url(#clipPath2)"/>
    </g>
    <g fill="white" text-rendering="geometricPrecision" shape-rendering="geometricPrecision" transform="matrix(1,0,0,1,-429,-314)" stroke="white">
      <rect x="445.6359" width="237.6042" height="30" y="750.9992" clip-path="url(#clipPath2)" stroke="none"/>
    </g>
    <g text-rendering="geometricPrecision" stroke-miterlimit="1.45" shape-rendering="geometricPrecision" font-family="sans-serif" transform="matrix(1,0,0,1,-429,-314)" stroke-linecap="butt">
      <text x="505.8032" xml:space="preserve" y="770.1534" clip-path="url(#clipPath2)" stroke="none">Stack &amp; Line Status</text>
      <rect fill="none" x="445.6359" width="237.6042" height="30" y="750.9992" clip-path="url(#clipPath2)"/>
    </g>
    <g fill="white" text-rendering="geometricPrecision" shape-rendering="geometricPrecision" transform="matrix(1,0,0,1,-429,-314)" stroke="white">
      <rect x="445.6359" width="518.9583" height="44.6667" y="329.9411" clip-path="url(#clipPath2)" stroke="none"/>
    </g>
    <g font-size="11px" stroke-linecap="butt" transform="matrix(1,0,0,1,-429,-314)" text-rendering="geometricPrecision" font-family="sans-serif" shape-rendering="geometricPrecision" stroke-miterlimit="1.45">
      <text x="622.5694" xml:space="preserve" y="343.2778" clip-path="url(#clipPath2)" stroke="none">Tree_DFS of "I am a Function"</text>
      <text x="655.6714" xml:space="preserve" y="356.0825" clip-path="url(#clipPath2)" stroke="none">First Permutation:</text>
      <text x="651.8687" xml:space="preserve" y="368.8872" clip-path="url(#clipPath2)" stroke="none">Pron Verb Det Verb</text>
      <rect fill="none" x="445.6359" width="518.9583" height="44.6667" y="329.9411" clip-path="url(#clipPath2)"/>
    </g>
    <g fill="white" text-rendering="geometricPrecision" shape-rendering="geometricPrecision" transform="matrix(1,0,0,1,-429,-314)" stroke="white">
      <rect x="445.6359" width="518.9583" height="30" y="396.8034" clip-path="url(#clipPath2)" stroke="none"/>
    </g>
    <g text-rendering="geometricPrecision" stroke-miterlimit="1.45" shape-rendering="geometricPrecision" font-family="sans-serif" transform="matrix(1,0,0,1,-429,-314)" stroke-linecap="butt">
      <text x="685.7293" xml:space="preserve" y="415.9577" clip-path="url(#clipPath2)" stroke="none">Step 5</text>
      <rect fill="none" x="445.6359" width="518.9583" height="30" y="396.8034" clip-path="url(#clipPath2)"/>
    </g>
    <g fill="white" text-rendering="geometricPrecision" shape-rendering="geometricPrecision" transform="matrix(1,0,0,1,-429,-314)" stroke="white">
      <rect x="835.9965" width="30" height="30" y="500.9992" clip-path="url(#clipPath2)" stroke="none"/>
    </g>
    <g text-rendering="geometricPrecision" stroke-miterlimit="1.45" shape-rendering="geometricPrecision" font-family="sans-serif" transform="matrix(1,0,0,1,-429,-314)" stroke-linecap="butt">
      <text x="847.8705" xml:space="preserve" y="520.1534" clip-path="url(#clipPath2)" stroke="none">s</text>
      <rect fill="none" x="835.9965" width="30" height="30" y="500.9992" clip-path="url(#clipPath2)"/>
    </g>
    <g fill="white" text-rendering="geometricPrecision" shape-rendering="geometricPrecision" transform="matrix(1,0,0,1,-429,-314)" stroke="white">
      <rect x="835.9965" width="30" height="30" y="568.3538" clip-path="url(#clipPath2)" stroke="none"/>
    </g>
    <g text-rendering="geometricPrecision" stroke-miterlimit="1.45" shape-rendering="geometricPrecision" font-family="sans-serif" transform="matrix(1,0,0,1,-429,-314)" stroke-linecap="butt">
      <text x="843.3852" xml:space="preserve" y="587.5081" clip-path="url(#clipPath2)" stroke="none">np</text>
      <rect fill="none" x="835.9965" width="30" height="30" y="568.3538" clip-path="url(#clipPath2)"/>
    </g>
    <g fill="white" text-rendering="geometricPrecision" shape-rendering="geometricPrecision" transform="matrix(1,0,0,1,-429,-314)" stroke="white">
      <rect x="835.9965" width="30" height="30" y="635.7084" clip-path="url(#clipPath2)" stroke="none"/>
    </g>
    <g text-rendering="geometricPrecision" stroke-miterlimit="1.45" shape-rendering="geometricPrecision" font-family="sans-serif" transform="matrix(1,0,0,1,-429,-314)" stroke-linecap="butt">
      <text x="837.2475" xml:space="preserve" y="654.8627" clip-path="url(#clipPath2)" stroke="none">pron</text>
      <rect stroke-linecap="round" x="835.9965" y="635.7084" clip-path="url(#clipPath2)" fill="none" width="30" stroke-dasharray="4,3,0,3" height="30"/>
    </g>
    <g fill="white" text-rendering="geometricPrecision" shape-rendering="geometricPrecision" transform="matrix(1,0,0,1,-429,-314)" stroke="white">
      <rect x="909.4085" width="30" height="30" y="568.3538" clip-path="url(#clipPath2)" stroke="none"/>
    </g>
    <g text-rendering="geometricPrecision" stroke-miterlimit="1.45" shape-rendering="geometricPrecision" font-family="sans-serif" transform="matrix(1,0,0,1,-429,-314)" stroke-linecap="butt">
      <text x="917.0491" xml:space="preserve" y="587.5081" clip-path="url(#clipPath2)" stroke="none">vp</text>
      <rect fill="none" x="909.4085" width="30" height="30" y="568.3538" clip-path="url(#clipPath2)"/>
    </g>
    <g fill="white" text-rendering="geometricPrecision" shape-rendering="geometricPrecision" transform="matrix(1,0,0,1,-429,-314)" stroke="white">
      <rect x="909.4085" width="30" height="30" y="635.7084" clip-path="url(#clipPath2)" stroke="none"/>
    </g>
    <g text-rendering="geometricPrecision" stroke-miterlimit="1.45" shape-rendering="geometricPrecision" font-family="sans-serif" transform="matrix(1,0,0,1,-429,-314)" stroke-linecap="butt">
      <text x="910.8909" xml:space="preserve" y="654.8627" clip-path="url(#clipPath2)" stroke="none">verb</text>
      <rect stroke-linecap="round" x="909.4085" y="635.7084" clip-path="url(#clipPath2)" fill="none" width="30" stroke-dasharray="4,3,0,3" height="30"/>
    </g>
    <g fill="white" text-rendering="geometricPrecision" shape-rendering="geometricPrecision" transform="matrix(1,0,0,1,-429,-314)" stroke="white">
      <rect x="447.1574" width="518.9583" height="30" y="901.4601" clip-path="url(#clipPath2)" stroke="none"/>
    </g>
    <g text-rendering="geometricPrecision" stroke-miterlimit="1.45" shape-rendering="geometricPrecision" font-family="sans-serif" transform="matrix(1,0,0,1,-429,-314)" stroke-linecap="butt">
      <text x="678.2068" xml:space="preserve" y="920.6144" clip-path="url(#clipPath2)" stroke="none">Figure 29</text>
      <rect fill="none" x="447.1574" width="518.9583" height="30" y="901.4601" clip-path="url(#clipPath2)"/>
      <path fill="none" d="M495.6359 515.9991 L483.6359 515.9991" clip-path="url(#clipPath2)"/>
      <path d="M475.6359 515.9991 L487.6359 520.9991 L484.6359 515.9991 L487.6359 510.9991 Z" clip-path="url(#clipPath2)" stroke="none"/>
      <path fill="none" d="M460.6359 550.9991 L460.6359 538.9991" clip-path="url(#clipPath2)"/>
      <path d="M460.6359 530.9991 L455.6359 542.9991 L460.6359 539.9991 L465.6359 542.9991 Z" clip-path="url(#clipPath2)" stroke="none"/>
    </g>
    <g text-rendering="geometricPrecision" stroke-miterlimit="1.45" shape-rendering="geometricPrecision" transform="matrix(1,0,0,1,-429,-314)" stroke-linecap="butt">
      <path fill="none" d="M510.6359 530.9991 L504.3859 545.9991 L509.1359 543.1492 L509.1359 543.1492 L509.1359 550.9991 L512.1359 550.9991 L512.1359 543.1491 L512.1359 543.1491 L516.8859 545.9991 L510.6359 530.9991 Z" clip-path="url(#clipPath2)"/>
    </g>
    <g text-rendering="geometricPrecision" stroke-miterlimit="1.45" shape-rendering="geometricPrecision" transform="matrix(1,0,0,1,-429,-314)" stroke-linecap="butt">
      <path fill="none" d="M560.6359 530.9991 L554.3859 545.9991 L559.1359 543.1492 L559.1359 550.9991 L562.1359 550.9991 L562.1359 543.1492 L566.8859 545.9991 L560.6359 530.9991 Z" clip-path="url(#clipPath2)"/>
    </g>
    <g text-rendering="geometricPrecision" stroke-miterlimit="1.45" shape-rendering="geometricPrecision" transform="matrix(1,0,0,1,-429,-314)" stroke-linecap="butt">
      <path fill="none" d="M610.6359 550.9991 L610.6359 538.9991" clip-path="url(#clipPath2)"/>
      <path d="M610.6359 530.9991 L605.6359 542.9991 L610.6359 539.9991 L615.6359 542.9991 Z" clip-path="url(#clipPath2)" stroke="none"/>
    </g>
    <g text-rendering="geometricPrecision" stroke-miterlimit="1.45" shape-rendering="geometricPrecision" transform="matrix(1,0,0,1,-429,-314)" stroke-linecap="butt">
      <path fill="none" d="M460.6359 580.9991 L454.3859 595.9991 L459.1359 593.1492 L459.1359 593.1492 L459.1359 600.9991 L462.1359 600.9991 L462.1359 593.1492 L462.1359 593.1492 L466.8859 595.9991 L460.6359 580.9991 Z" clip-path="url(#clipPath2)"/>
    </g>
    <g text-rendering="geometricPrecision" stroke-miterlimit="1.45" shape-rendering="geometricPrecision" transform="matrix(1,0,0,1,-429,-314)" stroke-linecap="butt">
      <path fill="none" d="M510.6359 580.9991 L504.3859 595.9991 L509.1359 593.1492 L509.1359 593.1492 L509.1359 600.9991 L512.1359 600.9991 L512.1359 593.1491 L512.1359 593.1491 L516.8859 595.9991 L510.6359 580.9991 Z" clip-path="url(#clipPath2)"/>
    </g>
    <g text-rendering="geometricPrecision" stroke-miterlimit="1.45" shape-rendering="geometricPrecision" transform="matrix(1,0,0,1,-429,-314)" stroke-linecap="butt">
      <path fill="none" d="M560.6359 580.9991 L554.3859 595.9991 L559.1359 593.1492 L559.1359 600.9991 L562.1359 600.9991 L562.1359 593.1492 L566.8859 595.9991 L560.6359 580.9991 Z" clip-path="url(#clipPath2)"/>
    </g>
    <g text-rendering="geometricPrecision" stroke-miterlimit="1.45" shape-rendering="geometricPrecision" transform="matrix(1,0,0,1,-429,-314)" stroke-linecap="butt">
      <path fill="none" d="M460.6359 630.9991 L454.3859 645.9991 L459.1359 643.1492 L459.1359 643.1492 L459.1359 650.9991 L462.1359 650.9991 L462.1359 643.1492 L462.1359 643.1492 L466.8859 645.9991 L460.6359 630.9991 Z" clip-path="url(#clipPath2)"/>
    </g>
    <g text-rendering="geometricPrecision" stroke-miterlimit="1.45" shape-rendering="geometricPrecision" transform="matrix(1,0,0,1,-429,-314)" stroke-linecap="butt">
      <path fill="none" d="M510.6359 650.9991 L510.6359 638.9991" clip-path="url(#clipPath2)"/>
      <path d="M510.6359 630.9991 L505.6359 642.9991 L510.6359 639.9991 L515.6359 642.9991 Z" clip-path="url(#clipPath2)" stroke="none"/>
      <path fill="none" d="M460.6359 700.9991 L460.6359 688.9991" clip-path="url(#clipPath2)"/>
      <path d="M460.6359 680.9991 L455.6359 692.9991 L460.6359 689.9991 L465.6359 692.9991 Z" clip-path="url(#clipPath2)" stroke="none"/>
      <path fill="none" d="M850.9965 530.9991 L850.9965 560.3538" clip-path="url(#clipPath2)"/>
      <path d="M850.9965 568.3538 L855.9965 556.3538 L850.9965 559.3538 L845.9965 556.3538 Z" clip-path="url(#clipPath2)" stroke="none"/>
      <path fill="none" d="M850.9965 598.3538 L850.9965 627.7084" clip-path="url(#clipPath2)"/>
      <path d="M850.9965 635.7084 L855.9965 623.7084 L850.9965 626.7084 L845.9965 623.7084 Z" clip-path="url(#clipPath2)" stroke="none"/>
      <path fill="none" d="M865.9965 529.7615 L903.5137 564.183" clip-path="url(#clipPath2)"/>
      <path d="M909.4085 569.5915 L903.9466 557.7946 L902.7769 563.507 L897.186 565.163 Z" clip-path="url(#clipPath2)" stroke="none"/>
      <path fill="none" d="M924.4085 598.3538 L924.4085 627.7084" clip-path="url(#clipPath2)"/>
      <path d="M924.4085 635.7084 L929.4085 623.7084 L924.4085 626.7084 L919.4085 623.7084 Z" clip-path="url(#clipPath2)" stroke="none"/>
    </g>
  </g>
</svg>
