<?xml version="1.0" encoding="UTF-8"?><svg xmlns="http://www.w3.org/2000/svg" xmlns:xlink="http://www.w3.org/1999/xlink" fill-opacity="1" color-rendering="auto" color-interpolation="auto" text-rendering="auto" stroke="black" stroke-linecap="square" width="552" stroke-miterlimit="10" shape-rendering="auto" stroke-opacity="1" fill="black" stroke-dasharray="none" font-weight="normal" stroke-width="1" height="704" font-family="'Dialog'" font-style="normal" stroke-linejoin="miter" font-size="12px" stroke-dashoffset="0" image-rendering="auto">
  <!--Generated by ySVG 2.5-->
  <defs id="genericDefs"/>
  <g>
    <defs id="defs1">
      <clipPath clipPathUnits="userSpaceOnUse" id="clipPath1">
        <path d="M0 0 L552 0 L552 704 L0 704 L0 0 Z"/>
      </clipPath>
      <clipPath clipPathUnits="userSpaceOnUse" id="clipPath2">
        <path d="M430 314 L982 314 L982 1018 L430 1018 L430 314 Z"/>
      </clipPath>
    </defs>
    <g fill="white" text-rendering="geometricPrecision" shape-rendering="geometricPrecision" transform="translate(-430,-314)" stroke="white">
      <rect x="430" width="552" height="704" y="314" clip-path="url(#clipPath2)" stroke="none"/>
    </g>
    <g font-size="15px" stroke-linecap="butt" transform="matrix(1,0,0,1,-430,-314)" text-rendering="geometricPrecision" font-family="sans-serif" shape-rendering="geometricPrecision" stroke-miterlimit="1.45">
      <text x="472.0589" xml:space="preserve" y="801.7368" clip-path="url(#clipPath2)" stroke="none">Stack</text>
      <rect x="447.5521" y="785.8135" clip-path="url(#clipPath2)" fill="none" width="68.0352" stroke-dasharray="6,2" rx="4" ry="4" height="165.4609"/>
    </g>
    <g fill="white" text-rendering="geometricPrecision" shape-rendering="geometricPrecision" transform="matrix(1,0,0,1,-430,-314)" stroke="white">
      <rect x="470.0697" width="30" height="30" y="906.2744" clip-path="url(#clipPath2)" stroke="none"/>
    </g>
    <g text-rendering="geometricPrecision" stroke-miterlimit="1.45" shape-rendering="geometricPrecision" font-family="sans-serif" transform="matrix(1,0,0,1,-430,-314)" stroke-linecap="butt">
      <text x="482.7289" xml:space="preserve" y="925.4287" clip-path="url(#clipPath2)" stroke="none">)</text>
      <rect fill="none" x="470.0697" width="30" height="30" y="906.2744" clip-path="url(#clipPath2)"/>
    </g>
    <g fill="white" text-rendering="geometricPrecision" shape-rendering="geometricPrecision" transform="matrix(1,0,0,1,-430,-314)" stroke="white">
      <rect x="470.0697" width="30" height="30" y="864.2744" clip-path="url(#clipPath2)" stroke="none"/>
    </g>
    <g text-rendering="geometricPrecision" stroke-miterlimit="1.45" shape-rendering="geometricPrecision" font-family="sans-serif" transform="matrix(1,0,0,1,-430,-314)" stroke-linecap="butt">
      <text x="482.7289" xml:space="preserve" y="883.4287" clip-path="url(#clipPath2)" stroke="none">)</text>
      <rect fill="none" x="470.0697" width="30" height="30" y="864.2744" clip-path="url(#clipPath2)"/>
    </g>
    <g fill="white" text-rendering="geometricPrecision" shape-rendering="geometricPrecision" transform="matrix(1,0,0,1,-430,-314)" stroke="white">
      <rect x="470.0697" width="30" height="30" y="822.2744" clip-path="url(#clipPath2)" stroke="none"/>
    </g>
    <g text-rendering="geometricPrecision" stroke-miterlimit="1.45" shape-rendering="geometricPrecision" font-family="sans-serif" transform="matrix(1,0,0,1,-430,-314)" stroke-linecap="butt">
      <text x="471.5521" xml:space="preserve" y="841.4287" clip-path="url(#clipPath2)" stroke="none">verb</text>
      <rect fill="none" x="470.0697" width="30" height="30" y="822.2744" clip-path="url(#clipPath2)"/>
      <text x="808.4847" xml:space="preserve" font-size="15px" y="801.7368" clip-path="url(#clipPath2)" stroke="none">Line</text>
      <rect x="571.7445" y="785.8135" clip-path="url(#clipPath2)" fill="none" width="270" stroke-dasharray="6,2" rx="4" ry="4" height="81.4609"/>
    </g>
    <g fill="white" text-rendering="geometricPrecision" shape-rendering="geometricPrecision" transform="matrix(1,0,0,1,-430,-314)" stroke="white">
      <rect x="586.7445" width="30" height="30" y="822.2744" clip-path="url(#clipPath2)" stroke="none"/>
    </g>
    <g text-rendering="geometricPrecision" stroke-miterlimit="1.45" shape-rendering="geometricPrecision" font-family="sans-serif" transform="matrix(1,0,0,1,-430,-314)" stroke-linecap="butt">
      <text x="598.6185" xml:space="preserve" y="841.4287" clip-path="url(#clipPath2)" stroke="none">s</text>
      <rect fill="none" x="586.7445" width="30" height="30" y="822.2744" clip-path="url(#clipPath2)"/>
    </g>
    <g fill="white" text-rendering="geometricPrecision" shape-rendering="geometricPrecision" transform="matrix(1,0,0,1,-430,-314)" stroke="white">
      <rect x="616.7445" width="30" height="30" y="822.2744" clip-path="url(#clipPath2)" stroke="none"/>
    </g>
    <g text-rendering="geometricPrecision" stroke-miterlimit="1.45" shape-rendering="geometricPrecision" font-family="sans-serif" transform="matrix(1,0,0,1,-430,-314)" stroke-linecap="butt">
      <text x="629.4036" xml:space="preserve" y="841.4287" clip-path="url(#clipPath2)" stroke="none">(</text>
      <rect fill="none" x="616.7445" width="30" height="30" y="822.2744" clip-path="url(#clipPath2)"/>
    </g>
    <g fill="white" text-rendering="geometricPrecision" shape-rendering="geometricPrecision" transform="matrix(1,0,0,1,-430,-314)" stroke="white">
      <rect x="646.7445" width="30" height="30" y="822.2744" clip-path="url(#clipPath2)" stroke="none"/>
    </g>
    <g text-rendering="geometricPrecision" stroke-miterlimit="1.45" shape-rendering="geometricPrecision" font-family="sans-serif" transform="matrix(1,0,0,1,-430,-314)" stroke-linecap="butt">
      <text x="654.1331" xml:space="preserve" y="841.4287" clip-path="url(#clipPath2)" stroke="none">np</text>
      <rect fill="none" x="646.7445" width="30" height="30" y="822.2744" clip-path="url(#clipPath2)"/>
    </g>
    <g fill="white" text-rendering="geometricPrecision" shape-rendering="geometricPrecision" transform="matrix(1,0,0,1,-430,-314)" stroke="white">
      <rect x="676.7445" width="30" height="30" y="822.2744" clip-path="url(#clipPath2)" stroke="none"/>
    </g>
    <g text-rendering="geometricPrecision" stroke-miterlimit="1.45" shape-rendering="geometricPrecision" font-family="sans-serif" transform="matrix(1,0,0,1,-430,-314)" stroke-linecap="butt">
      <text x="689.4036" xml:space="preserve" y="841.4287" clip-path="url(#clipPath2)" stroke="none">(</text>
      <rect fill="none" x="676.7445" width="30" height="30" y="822.2744" clip-path="url(#clipPath2)"/>
    </g>
    <g fill="white" text-rendering="geometricPrecision" shape-rendering="geometricPrecision" transform="matrix(1,0,0,1,-430,-314)" stroke="white">
      <rect x="736.7445" width="30" height="30" y="822.2744" clip-path="url(#clipPath2)" stroke="none"/>
    </g>
    <g text-rendering="geometricPrecision" stroke-miterlimit="1.45" shape-rendering="geometricPrecision" font-family="sans-serif" transform="matrix(1,0,0,1,-430,-314)" stroke-linecap="butt">
      <text x="749.4036" xml:space="preserve" y="841.4287" clip-path="url(#clipPath2)" stroke="none">)</text>
      <rect fill="none" x="736.7445" width="30" height="30" y="822.2744" clip-path="url(#clipPath2)"/>
    </g>
    <g fill="white" text-rendering="geometricPrecision" shape-rendering="geometricPrecision" transform="matrix(1,0,0,1,-430,-314)" stroke="white">
      <rect x="706.7445" width="30" height="30" y="822.2744" clip-path="url(#clipPath2)" stroke="none"/>
    </g>
    <g text-rendering="geometricPrecision" stroke-miterlimit="1.45" shape-rendering="geometricPrecision" font-family="sans-serif" transform="matrix(1,0,0,1,-430,-314)" stroke-linecap="butt">
      <text x="707.9954" xml:space="preserve" y="841.4287" clip-path="url(#clipPath2)" stroke="none">pron</text>
      <rect fill="none" x="706.7445" width="30" height="30" y="822.2744" clip-path="url(#clipPath2)"/>
    </g>
    <g fill="white" text-rendering="geometricPrecision" shape-rendering="geometricPrecision" transform="matrix(1,0,0,1,-430,-314)" stroke="white">
      <rect x="766.7445" width="30" height="30" y="822.2744" clip-path="url(#clipPath2)" stroke="none"/>
    </g>
    <g text-rendering="geometricPrecision" stroke-miterlimit="1.45" shape-rendering="geometricPrecision" font-family="sans-serif" transform="matrix(1,0,0,1,-430,-314)" stroke-linecap="butt">
      <text x="774.3851" xml:space="preserve" y="841.4287" clip-path="url(#clipPath2)" stroke="none">vp</text>
      <rect fill="none" x="766.7445" width="30" height="30" y="822.2744" clip-path="url(#clipPath2)"/>
    </g>
    <g fill="white" text-rendering="geometricPrecision" shape-rendering="geometricPrecision" transform="matrix(1,0,0,1,-430,-314)" stroke="white">
      <rect x="796.7445" width="30" height="30" y="822.2744" clip-path="url(#clipPath2)" stroke="none"/>
    </g>
    <g text-rendering="geometricPrecision" stroke-miterlimit="1.45" shape-rendering="geometricPrecision" font-family="sans-serif" transform="matrix(1,0,0,1,-430,-314)" stroke-linecap="butt">
      <text x="809.4036" xml:space="preserve" y="841.4287" clip-path="url(#clipPath2)" stroke="none">(</text>
      <rect fill="none" x="796.7445" width="30" height="30" y="822.2744" clip-path="url(#clipPath2)"/>
    </g>
    <g fill="white" text-rendering="geometricPrecision" shape-rendering="geometricPrecision" transform="matrix(1,0,0,1,-430,-314)" stroke="white">
      <rect x="446.0306" width="30" height="30" y="488.9846" clip-path="url(#clipPath2)" stroke="none"/>
    </g>
    <g text-rendering="geometricPrecision" stroke-miterlimit="1.45" shape-rendering="geometricPrecision" font-family="sans-serif" transform="matrix(1,0,0,1,-430,-314)" stroke-linecap="butt">
      <text x="457.9046" xml:space="preserve" y="508.1389" clip-path="url(#clipPath2)" stroke="none">s</text>
    </g>
    <g stroke-linecap="round" transform="matrix(1,0,0,1,-430,-314)" stroke-dashoffset="2" text-rendering="geometricPrecision" shape-rendering="geometricPrecision" stroke-dasharray="0,4" stroke-miterlimit="1.45">
      <rect fill="none" x="446.0306" width="30" height="30" y="488.9846" clip-path="url(#clipPath2)"/>
    </g>
    <g fill="white" text-rendering="geometricPrecision" shape-rendering="geometricPrecision" transform="matrix(1,0,0,1,-430,-314)" stroke="white">
      <rect x="496.0306" width="30" height="30" y="488.9846" clip-path="url(#clipPath2)" stroke="none"/>
    </g>
    <g text-rendering="geometricPrecision" stroke-miterlimit="1.45" shape-rendering="geometricPrecision" font-family="sans-serif" transform="matrix(1,0,0,1,-430,-314)" stroke-linecap="butt">
      <text x="503.6712" xml:space="preserve" y="508.1389" clip-path="url(#clipPath2)" stroke="none">vp</text>
    </g>
    <g stroke-linecap="round" transform="matrix(1,0,0,1,-430,-314)" stroke-dashoffset="2" text-rendering="geometricPrecision" shape-rendering="geometricPrecision" stroke-dasharray="0,4" stroke-miterlimit="1.45">
      <rect fill="none" x="496.0306" width="30" height="30" y="488.9846" clip-path="url(#clipPath2)"/>
    </g>
    <g fill="white" text-rendering="geometricPrecision" shape-rendering="geometricPrecision" transform="matrix(1,0,0,1,-430,-314)" stroke="white">
      <rect x="546.0306" width="30" height="30" y="488.9846" clip-path="url(#clipPath2)" stroke="none"/>
    </g>
    <g text-rendering="geometricPrecision" stroke-miterlimit="1.45" shape-rendering="geometricPrecision" font-family="sans-serif" transform="matrix(1,0,0,1,-430,-314)" stroke-linecap="butt">
      <text x="551.1781" xml:space="preserve" y="508.1389" clip-path="url(#clipPath2)" stroke="none">det</text>
      <rect fill="none" x="546.0306" width="30" height="30" y="488.9846" clip-path="url(#clipPath2)"/>
    </g>
    <g fill="white" text-rendering="geometricPrecision" shape-rendering="geometricPrecision" transform="matrix(1,0,0,1,-430,-314)" stroke="white">
      <rect x="596.0306" width="30" height="30" y="488.9846" clip-path="url(#clipPath2)" stroke="none"/>
    </g>
    <g text-rendering="geometricPrecision" stroke-miterlimit="1.45" shape-rendering="geometricPrecision" font-family="sans-serif" transform="matrix(1,0,0,1,-430,-314)" stroke-linecap="butt">
      <text x="603.6713" xml:space="preserve" y="508.1389" clip-path="url(#clipPath2)" stroke="none">vp</text>
      <rect fill="none" x="596.0306" width="30" height="30" y="488.9846" clip-path="url(#clipPath2)"/>
    </g>
    <g fill="white" text-rendering="geometricPrecision" shape-rendering="geometricPrecision" transform="matrix(1,0,0,1,-430,-314)" stroke="white">
      <rect x="446.0306" width="30" height="30" y="538.9846" clip-path="url(#clipPath2)" stroke="none"/>
    </g>
    <g text-rendering="geometricPrecision" stroke-miterlimit="1.45" shape-rendering="geometricPrecision" font-family="sans-serif" transform="matrix(1,0,0,1,-430,-314)" stroke-linecap="butt">
      <text x="453.4193" xml:space="preserve" y="558.1389" clip-path="url(#clipPath2)" stroke="none">np</text>
    </g>
    <g stroke-linecap="round" transform="matrix(1,0,0,1,-430,-314)" stroke-dashoffset="2" text-rendering="geometricPrecision" shape-rendering="geometricPrecision" stroke-dasharray="0,4" stroke-miterlimit="1.45">
      <rect fill="none" x="446.0306" width="30" height="30" y="538.9846" clip-path="url(#clipPath2)"/>
    </g>
    <g fill="white" text-rendering="geometricPrecision" shape-rendering="geometricPrecision" transform="matrix(1,0,0,1,-430,-314)" stroke="white">
      <rect x="496.0306" width="30" height="30" y="538.9846" clip-path="url(#clipPath2)" stroke="none"/>
    </g>
    <g text-rendering="geometricPrecision" stroke-miterlimit="1.45" shape-rendering="geometricPrecision" font-family="sans-serif" transform="matrix(1,0,0,1,-430,-314)" stroke-linecap="butt">
      <text x="503.6712" xml:space="preserve" y="558.1389" clip-path="url(#clipPath2)" stroke="none">vp</text>
      <rect fill="none" x="496.0306" width="30" height="30" y="538.9846" clip-path="url(#clipPath2)"/>
    </g>
    <g fill="white" text-rendering="geometricPrecision" shape-rendering="geometricPrecision" transform="matrix(1,0,0,1,-430,-314)" stroke="white">
      <rect x="546.0306" width="30" height="30" y="538.9846" clip-path="url(#clipPath2)" stroke="none"/>
    </g>
    <g text-rendering="geometricPrecision" stroke-miterlimit="1.45" shape-rendering="geometricPrecision" font-family="sans-serif" transform="matrix(1,0,0,1,-430,-314)" stroke-linecap="butt">
      <text x="551.1781" xml:space="preserve" y="558.1389" clip-path="url(#clipPath2)" stroke="none">det</text>
      <rect fill="none" x="546.0306" width="30" height="30" y="538.9846" clip-path="url(#clipPath2)"/>
    </g>
    <g fill="white" text-rendering="geometricPrecision" shape-rendering="geometricPrecision" transform="matrix(1,0,0,1,-430,-314)" stroke="white">
      <rect x="596.0306" width="30" height="30" y="538.9846" clip-path="url(#clipPath2)" stroke="none"/>
    </g>
    <g text-rendering="geometricPrecision" stroke-miterlimit="1.45" shape-rendering="geometricPrecision" font-family="sans-serif" transform="matrix(1,0,0,1,-430,-314)" stroke-linecap="butt">
      <text x="597.5131" xml:space="preserve" y="558.1389" clip-path="url(#clipPath2)" stroke="none">verb</text>
      <rect fill="none" x="596.0306" width="30" height="30" y="538.9846" clip-path="url(#clipPath2)"/>
    </g>
    <g fill="white" text-rendering="geometricPrecision" shape-rendering="geometricPrecision" transform="matrix(1,0,0,1,-430,-314)" stroke="white">
      <rect x="446.0306" width="30" height="30" y="588.9846" clip-path="url(#clipPath2)" stroke="none"/>
    </g>
    <g text-rendering="geometricPrecision" stroke-miterlimit="1.45" shape-rendering="geometricPrecision" font-family="sans-serif" transform="matrix(1,0,0,1,-430,-314)" stroke-linecap="butt">
      <text x="453.4193" xml:space="preserve" y="608.1389" clip-path="url(#clipPath2)" stroke="none">np</text>
      <rect fill="none" x="446.0306" width="30" height="30" y="588.9846" clip-path="url(#clipPath2)"/>
    </g>
    <g fill="white" text-rendering="geometricPrecision" shape-rendering="geometricPrecision" transform="matrix(1,0,0,1,-430,-314)" stroke="white">
      <rect x="496.0306" width="30" height="30" y="588.9846" clip-path="url(#clipPath2)" stroke="none"/>
    </g>
    <g text-rendering="geometricPrecision" stroke-miterlimit="1.45" shape-rendering="geometricPrecision" font-family="sans-serif" transform="matrix(1,0,0,1,-430,-314)" stroke-linecap="butt">
      <text x="503.6712" xml:space="preserve" y="608.1389" clip-path="url(#clipPath2)" stroke="none">vp</text>
      <rect fill="none" x="496.0306" width="30" height="30" y="588.9846" clip-path="url(#clipPath2)"/>
    </g>
    <g fill="white" text-rendering="geometricPrecision" shape-rendering="geometricPrecision" transform="matrix(1,0,0,1,-430,-314)" stroke="white">
      <rect x="546.0306" width="30" height="30" y="588.9846" clip-path="url(#clipPath2)" stroke="none"/>
    </g>
    <g text-rendering="geometricPrecision" stroke-miterlimit="1.45" shape-rendering="geometricPrecision" font-family="sans-serif" transform="matrix(1,0,0,1,-430,-314)" stroke-linecap="butt">
      <text x="551.1781" xml:space="preserve" y="608.1389" clip-path="url(#clipPath2)" stroke="none">det</text>
      <rect fill="none" x="546.0306" width="30" height="30" y="588.9846" clip-path="url(#clipPath2)"/>
    </g>
    <g fill="white" text-rendering="geometricPrecision" shape-rendering="geometricPrecision" transform="matrix(1,0,0,1,-430,-314)" stroke="white">
      <rect x="596.0306" width="30" height="30" y="588.9846" clip-path="url(#clipPath2)" stroke="none"/>
    </g>
    <g text-rendering="geometricPrecision" stroke-miterlimit="1.45" shape-rendering="geometricPrecision" transform="matrix(1,0,0,1,-430,-314)" stroke-linecap="butt">
      <rect fill="none" x="596.0306" width="30" height="30" y="588.9846" clip-path="url(#clipPath2)"/>
    </g>
    <g fill="white" text-rendering="geometricPrecision" shape-rendering="geometricPrecision" transform="matrix(1,0,0,1,-430,-314)" stroke="white">
      <rect x="446.0306" width="30" height="30" y="638.9846" clip-path="url(#clipPath2)" stroke="none"/>
    </g>
    <g text-rendering="geometricPrecision" stroke-miterlimit="1.45" shape-rendering="geometricPrecision" font-family="sans-serif" transform="matrix(1,0,0,1,-430,-314)" stroke-linecap="butt">
      <text x="453.4193" xml:space="preserve" y="658.1389" clip-path="url(#clipPath2)" stroke="none">np</text>
      <rect fill="none" x="446.0306" width="30" height="30" y="638.9846" clip-path="url(#clipPath2)"/>
    </g>
    <g fill="white" text-rendering="geometricPrecision" shape-rendering="geometricPrecision" transform="matrix(1,0,0,1,-430,-314)" stroke="white">
      <rect x="496.0306" width="30" height="30" y="638.9846" clip-path="url(#clipPath2)" stroke="none"/>
    </g>
    <g text-rendering="geometricPrecision" stroke-miterlimit="1.45" shape-rendering="geometricPrecision" font-family="sans-serif" transform="matrix(1,0,0,1,-430,-314)" stroke-linecap="butt">
      <text x="497.513" xml:space="preserve" y="658.1389" clip-path="url(#clipPath2)" stroke="none">verb</text>
      <rect x="496.0306" y="638.9846" clip-path="url(#clipPath2)" fill="none" width="30" stroke-dasharray="12,4" height="30" stroke-width="2"/>
    </g>
    <g fill="white" text-rendering="geometricPrecision" shape-rendering="geometricPrecision" transform="matrix(1,0,0,1,-430,-314)" stroke="white">
      <rect x="546.0306" width="30" height="30" y="638.9846" clip-path="url(#clipPath2)" stroke="none"/>
    </g>
    <g text-rendering="geometricPrecision" stroke-miterlimit="1.45" shape-rendering="geometricPrecision" transform="matrix(1,0,0,1,-430,-314)" stroke-linecap="butt">
      <rect fill="none" x="546.0306" width="30" height="30" y="638.9846" clip-path="url(#clipPath2)"/>
    </g>
    <g fill="white" text-rendering="geometricPrecision" shape-rendering="geometricPrecision" transform="matrix(1,0,0,1,-430,-314)" stroke="white">
      <rect x="596.0306" width="30" height="30" y="638.9846" clip-path="url(#clipPath2)" stroke="none"/>
    </g>
    <g text-rendering="geometricPrecision" stroke-miterlimit="1.45" shape-rendering="geometricPrecision" transform="matrix(1,0,0,1,-430,-314)" stroke-linecap="butt">
      <rect fill="none" x="596.0306" width="30" height="30" y="638.9846" clip-path="url(#clipPath2)"/>
    </g>
    <g fill="white" text-rendering="geometricPrecision" shape-rendering="geometricPrecision" transform="matrix(1,0,0,1,-430,-314)" stroke="white">
      <rect x="446.0306" width="30" height="30" y="688.9846" clip-path="url(#clipPath2)" stroke="none"/>
    </g>
    <g text-rendering="geometricPrecision" stroke-miterlimit="1.45" shape-rendering="geometricPrecision" font-family="sans-serif" transform="matrix(1,0,0,1,-430,-314)" stroke-linecap="butt">
      <text x="447.2816" xml:space="preserve" y="708.1389" clip-path="url(#clipPath2)" stroke="none">pron</text>
    </g>
    <g stroke-linecap="round" transform="matrix(1,0,0,1,-430,-314)" stroke-dashoffset="2" text-rendering="geometricPrecision" shape-rendering="geometricPrecision" stroke-dasharray="0,4" stroke-miterlimit="1.45">
      <rect fill="none" x="446.0306" width="30" height="30" y="688.9846" clip-path="url(#clipPath2)"/>
    </g>
    <g fill="white" text-rendering="geometricPrecision" shape-rendering="geometricPrecision" transform="matrix(1,0,0,1,-430,-314)" stroke="white">
      <rect x="496.0306" width="30" height="30" y="688.9846" clip-path="url(#clipPath2)" stroke="none"/>
    </g>
    <g text-rendering="geometricPrecision" stroke-miterlimit="1.45" shape-rendering="geometricPrecision" transform="matrix(1,0,0,1,-430,-314)" stroke-linecap="butt">
      <rect fill="none" x="496.0306" width="30" height="30" y="688.9846" clip-path="url(#clipPath2)"/>
    </g>
    <g fill="white" text-rendering="geometricPrecision" shape-rendering="geometricPrecision" transform="matrix(1,0,0,1,-430,-314)" stroke="white">
      <rect x="546.0306" width="30" height="30" y="688.9846" clip-path="url(#clipPath2)" stroke="none"/>
    </g>
    <g text-rendering="geometricPrecision" stroke-miterlimit="1.45" shape-rendering="geometricPrecision" transform="matrix(1,0,0,1,-430,-314)" stroke-linecap="butt">
      <rect fill="none" x="546.0306" width="30" height="30" y="688.9846" clip-path="url(#clipPath2)"/>
    </g>
    <g fill="white" text-rendering="geometricPrecision" shape-rendering="geometricPrecision" transform="matrix(1,0,0,1,-430,-314)" stroke="white">
      <rect x="596.0306" width="30" height="30" y="688.9846" clip-path="url(#clipPath2)" stroke="none"/>
    </g>
    <g text-rendering="geometricPrecision" stroke-miterlimit="1.45" shape-rendering="geometricPrecision" transform="matrix(1,0,0,1,-430,-314)" stroke-linecap="butt">
      <rect fill="none" x="596.0306" width="30" height="30" y="688.9846" clip-path="url(#clipPath2)"/>
    </g>
    <g fill="white" text-rendering="geometricPrecision" shape-rendering="geometricPrecision" transform="matrix(1,0,0,1,-430,-314)" stroke="white">
      <rect x="446.0306" width="180" height="30" y="436.9846" clip-path="url(#clipPath2)" stroke="none"/>
    </g>
    <g text-rendering="geometricPrecision" stroke-miterlimit="1.45" shape-rendering="geometricPrecision" font-family="sans-serif" transform="matrix(1,0,0,1,-430,-314)" stroke-linecap="butt">
      <text x="503.4437" xml:space="preserve" y="456.1389" clip-path="url(#clipPath2)" stroke="none">CKY Matrix</text>
      <rect fill="none" x="446.0306" width="180" height="30" y="436.9846" clip-path="url(#clipPath2)"/>
    </g>
    <g fill="white" text-rendering="geometricPrecision" shape-rendering="geometricPrecision" transform="matrix(1,0,0,1,-430,-314)" stroke="white">
      <rect x="831.1869" width="30" height="30" y="501.0862" clip-path="url(#clipPath2)" stroke="none"/>
    </g>
    <g text-rendering="geometricPrecision" stroke-miterlimit="1.45" shape-rendering="geometricPrecision" font-family="sans-serif" transform="matrix(1,0,0,1,-430,-314)" stroke-linecap="butt">
      <text x="843.0609" xml:space="preserve" y="520.2405" clip-path="url(#clipPath2)" stroke="none">s</text>
      <rect fill="none" x="831.1869" width="30" height="30" y="501.0862" clip-path="url(#clipPath2)"/>
    </g>
    <g fill="white" text-rendering="geometricPrecision" shape-rendering="geometricPrecision" transform="matrix(1,0,0,1,-430,-314)" stroke="white">
      <rect x="831.1869" width="30" height="30" y="568.4408" clip-path="url(#clipPath2)" stroke="none"/>
    </g>
    <g text-rendering="geometricPrecision" stroke-miterlimit="1.45" shape-rendering="geometricPrecision" font-family="sans-serif" transform="matrix(1,0,0,1,-430,-314)" stroke-linecap="butt">
      <text x="838.5756" xml:space="preserve" y="587.5951" clip-path="url(#clipPath2)" stroke="none">np</text>
      <rect fill="none" x="831.1869" width="30" height="30" y="568.4408" clip-path="url(#clipPath2)"/>
    </g>
    <g fill="white" text-rendering="geometricPrecision" shape-rendering="geometricPrecision" transform="matrix(1,0,0,1,-430,-314)" stroke="white">
      <rect x="831.1869" width="30" height="30" y="635.7955" clip-path="url(#clipPath2)" stroke="none"/>
    </g>
    <g text-rendering="geometricPrecision" stroke-miterlimit="1.45" shape-rendering="geometricPrecision" font-family="sans-serif" transform="matrix(1,0,0,1,-430,-314)" stroke-linecap="butt">
      <text x="832.4379" xml:space="preserve" y="654.9498" clip-path="url(#clipPath2)" stroke="none">pron</text>
      <rect stroke-linecap="round" x="831.1869" y="635.7955" clip-path="url(#clipPath2)" fill="none" width="30" stroke-dasharray="4,3,0,3" height="30"/>
    </g>
    <g fill="white" text-rendering="geometricPrecision" shape-rendering="geometricPrecision" transform="matrix(1,0,0,1,-430,-314)" stroke="white">
      <rect x="904.5988" width="30" height="30" y="568.4408" clip-path="url(#clipPath2)" stroke="none"/>
    </g>
    <g text-rendering="geometricPrecision" stroke-miterlimit="1.45" shape-rendering="geometricPrecision" font-family="sans-serif" transform="matrix(1,0,0,1,-430,-314)" stroke-linecap="butt">
      <text x="912.2395" xml:space="preserve" y="587.5951" clip-path="url(#clipPath2)" stroke="none">vp</text>
      <rect fill="none" x="904.5988" width="30" height="30" y="568.4408" clip-path="url(#clipPath2)"/>
    </g>
    <g fill="white" text-rendering="geometricPrecision" shape-rendering="geometricPrecision" transform="matrix(1,0,0,1,-430,-314)" stroke="white">
      <rect x="727.3848" width="237.6042" height="30" y="448.8905" clip-path="url(#clipPath2)" stroke="none"/>
    </g>
    <g text-rendering="geometricPrecision" stroke-miterlimit="1.45" shape-rendering="geometricPrecision" font-family="sans-serif" transform="matrix(1,0,0,1,-430,-314)" stroke-linecap="butt">
      <text x="832.6722" xml:space="preserve" y="468.0448" clip-path="url(#clipPath2)" stroke="none">Tree</text>
      <rect fill="none" x="727.3848" width="237.6042" height="30" y="448.8905" clip-path="url(#clipPath2)"/>
    </g>
    <g fill="white" text-rendering="geometricPrecision" shape-rendering="geometricPrecision" transform="matrix(1,0,0,1,-430,-314)" stroke="white">
      <rect x="446.0306" width="237.6042" height="30" y="734.3378" clip-path="url(#clipPath2)" stroke="none"/>
    </g>
    <g text-rendering="geometricPrecision" stroke-miterlimit="1.45" shape-rendering="geometricPrecision" font-family="sans-serif" transform="matrix(1,0,0,1,-430,-314)" stroke-linecap="butt">
      <text x="506.1979" xml:space="preserve" y="753.4921" clip-path="url(#clipPath2)" stroke="none">Stack &amp; Line Status</text>
      <rect fill="none" x="446.0306" width="237.6042" height="30" y="734.3378" clip-path="url(#clipPath2)"/>
    </g>
    <g fill="white" text-rendering="geometricPrecision" shape-rendering="geometricPrecision" transform="matrix(1,0,0,1,-430,-314)" stroke="white">
      <rect x="446.0306" width="518.9583" height="44.6667" y="329.8324" clip-path="url(#clipPath2)" stroke="none"/>
    </g>
    <g font-size="11px" stroke-linecap="butt" transform="matrix(1,0,0,1,-430,-314)" text-rendering="geometricPrecision" font-family="sans-serif" shape-rendering="geometricPrecision" stroke-miterlimit="1.45">
      <text x="622.9641" xml:space="preserve" y="343.1691" clip-path="url(#clipPath2)" stroke="none">Tree_DFS of "I am a Function"</text>
      <text x="656.0662" xml:space="preserve" y="355.9738" clip-path="url(#clipPath2)" stroke="none">First Permutation:</text>
      <text x="652.2634" xml:space="preserve" y="368.7785" clip-path="url(#clipPath2)" stroke="none">Pron Verb Det Verb</text>
      <rect fill="none" x="446.0306" width="518.9583" height="44.6667" y="329.8324" clip-path="url(#clipPath2)"/>
    </g>
    <g fill="white" text-rendering="geometricPrecision" shape-rendering="geometricPrecision" transform="matrix(1,0,0,1,-430,-314)" stroke="white">
      <rect x="446.0306" width="518.9583" height="30" y="396.6948" clip-path="url(#clipPath2)" stroke="none"/>
    </g>
    <g text-rendering="geometricPrecision" stroke-miterlimit="1.45" shape-rendering="geometricPrecision" font-family="sans-serif" transform="matrix(1,0,0,1,-430,-314)" stroke-linecap="butt">
      <text x="686.124" xml:space="preserve" y="415.8491" clip-path="url(#clipPath2)" stroke="none">Step 4</text>
      <rect fill="none" x="446.0306" width="518.9583" height="30" y="396.6948" clip-path="url(#clipPath2)"/>
    </g>
    <g fill="white" text-rendering="geometricPrecision" shape-rendering="geometricPrecision" transform="matrix(1,0,0,1,-430,-314)" stroke="white">
      <rect x="447.2653" width="518.9583" height="30" y="972.7501" clip-path="url(#clipPath2)" stroke="none"/>
    </g>
    <g text-rendering="geometricPrecision" stroke-miterlimit="1.45" shape-rendering="geometricPrecision" font-family="sans-serif" transform="matrix(1,0,0,1,-430,-314)" stroke-linecap="butt">
      <text x="678.3148" xml:space="preserve" y="991.9044" clip-path="url(#clipPath2)" stroke="none">Figure 28</text>
      <rect fill="none" x="447.2653" width="518.9583" height="30" y="972.7501" clip-path="url(#clipPath2)"/>
      <path fill="none" d="M496.0306 503.9846 L484.0306 503.9846" clip-path="url(#clipPath2)"/>
      <path d="M476.0306 503.9846 L488.0306 508.9846 L485.0306 503.9846 L488.0306 498.9846 Z" clip-path="url(#clipPath2)" stroke="none"/>
      <path fill="none" d="M461.0306 538.9846 L461.0306 526.9846" clip-path="url(#clipPath2)"/>
      <path d="M461.0306 518.9846 L456.0306 530.9846 L461.0306 527.9846 L466.0306 530.9846 Z" clip-path="url(#clipPath2)" stroke="none"/>
    </g>
    <g text-rendering="geometricPrecision" stroke-miterlimit="1.45" shape-rendering="geometricPrecision" transform="matrix(1,0,0,1,-430,-314)" stroke-linecap="butt">
      <path fill="none" d="M511.0306 518.9846 L504.7806 533.9846 L509.5306 531.1346 L509.5306 531.1346 L509.5306 538.9846 L512.5306 538.9846 L512.5306 531.1346 L517.2806 533.9846 L511.0306 518.9846 Z" clip-path="url(#clipPath2)"/>
    </g>
    <g text-rendering="geometricPrecision" stroke-miterlimit="1.45" shape-rendering="geometricPrecision" transform="matrix(1,0,0,1,-430,-314)" stroke-linecap="butt">
      <path fill="none" d="M561.0306 518.9846 L554.7806 533.9846 L559.5306 531.1346 L559.5306 538.9846 L562.5306 538.9846 L562.5306 531.1346 L567.2806 533.9846 L561.0306 518.9846 Z" clip-path="url(#clipPath2)"/>
    </g>
    <g text-rendering="geometricPrecision" stroke-miterlimit="1.45" shape-rendering="geometricPrecision" transform="matrix(1,0,0,1,-430,-314)" stroke-linecap="butt">
      <path fill="none" d="M611.0306 538.9846 L611.0306 526.9846" clip-path="url(#clipPath2)"/>
      <path d="M611.0306 518.9846 L606.0306 530.9846 L611.0306 527.9846 L616.0306 530.9846 Z" clip-path="url(#clipPath2)" stroke="none"/>
    </g>
    <g text-rendering="geometricPrecision" stroke-miterlimit="1.45" shape-rendering="geometricPrecision" transform="matrix(1,0,0,1,-430,-314)" stroke-linecap="butt">
      <path fill="none" d="M461.0306 568.9846 L454.7806 583.9846 L459.5306 581.1346 L459.5306 581.1346 L459.5306 588.9846 L462.5306 588.9846 L462.5306 581.1346 L462.5306 581.1346 L467.2806 583.9846 L461.0306 568.9846 Z" clip-path="url(#clipPath2)"/>
    </g>
    <g text-rendering="geometricPrecision" stroke-miterlimit="1.45" shape-rendering="geometricPrecision" transform="matrix(1,0,0,1,-430,-314)" stroke-linecap="butt">
      <path fill="none" d="M511.0306 568.9846 L504.7806 583.9846 L509.5306 581.1346 L509.5306 581.1346 L509.5306 588.9846 L512.5306 588.9846 L512.5306 581.1346 L517.2806 583.9846 L511.0306 568.9846 Z" clip-path="url(#clipPath2)"/>
    </g>
    <g text-rendering="geometricPrecision" stroke-miterlimit="1.45" shape-rendering="geometricPrecision" transform="matrix(1,0,0,1,-430,-314)" stroke-linecap="butt">
      <path fill="none" d="M561.0306 568.9846 L554.7806 583.9846 L559.5306 581.1346 L559.5306 588.9846 L562.5306 588.9846 L562.5306 581.1346 L567.2806 583.9846 L561.0306 568.9846 Z" clip-path="url(#clipPath2)"/>
    </g>
    <g text-rendering="geometricPrecision" stroke-miterlimit="1.45" shape-rendering="geometricPrecision" transform="matrix(1,0,0,1,-430,-314)" stroke-linecap="butt">
      <path fill="none" d="M461.0306 618.9846 L454.7806 633.9846 L459.5306 631.1346 L459.5306 631.1346 L459.5306 638.9846 L462.5306 638.9846 L462.5306 631.1346 L462.5306 631.1346 L467.2806 633.9846 L461.0306 618.9846 Z" clip-path="url(#clipPath2)"/>
    </g>
    <g text-rendering="geometricPrecision" stroke-miterlimit="1.45" shape-rendering="geometricPrecision" transform="matrix(1,0,0,1,-430,-314)" stroke-linecap="butt">
      <path fill="none" d="M511.0306 638.9846 L511.0306 626.9846" clip-path="url(#clipPath2)"/>
      <path d="M511.0306 618.9846 L506.0306 630.9846 L511.0306 627.9846 L516.0306 630.9846 Z" clip-path="url(#clipPath2)" stroke="none"/>
      <path fill="none" d="M461.0306 688.9846 L461.0306 676.9846" clip-path="url(#clipPath2)"/>
      <path d="M461.0306 668.9846 L456.0306 680.9846 L461.0306 677.9846 L466.0306 680.9846 Z" clip-path="url(#clipPath2)" stroke="none"/>
      <path fill="none" d="M846.1869 531.0862 L846.1869 560.4408" clip-path="url(#clipPath2)"/>
      <path d="M846.1869 568.4408 L851.1869 556.4408 L846.1869 559.4408 L841.1869 556.4408 Z" clip-path="url(#clipPath2)" stroke="none"/>
      <path fill="none" d="M846.1869 598.4408 L846.1869 627.7955" clip-path="url(#clipPath2)"/>
      <path d="M846.1869 635.7955 L851.1869 623.7955 L846.1869 626.7955 L841.1869 623.7955 Z" clip-path="url(#clipPath2)" stroke="none"/>
      <path fill="none" d="M861.1869 529.8485 L898.704 564.2701" clip-path="url(#clipPath2)"/>
      <path d="M904.5989 569.6785 L899.1369 557.8816 L897.9672 563.5941 L892.3764 565.2501 Z" clip-path="url(#clipPath2)" stroke="none"/>
    </g>
  </g>
</svg>
