<?xml version="1.0" encoding="UTF-8"?><svg xmlns="http://www.w3.org/2000/svg" xmlns:xlink="http://www.w3.org/1999/xlink" fill-opacity="1" color-rendering="auto" color-interpolation="auto" text-rendering="auto" stroke="black" stroke-linecap="square" width="556" stroke-miterlimit="10" shape-rendering="auto" stroke-opacity="1" fill="black" stroke-dasharray="none" font-weight="normal" stroke-width="1" height="754" font-family="'Dialog'" font-style="normal" stroke-linejoin="miter" font-size="12px" stroke-dashoffset="0" image-rendering="auto">
  <!--Generated by ySVG 2.5-->
  <defs id="genericDefs"/>
  <g>
    <defs id="defs1">
      <clipPath clipPathUnits="userSpaceOnUse" id="clipPath1">
        <path d="M0 0 L556 0 L556 754 L0 754 L0 0 Z"/>
      </clipPath>
      <clipPath clipPathUnits="userSpaceOnUse" id="clipPath2">
        <path d="M429 314 L985 314 L985 1068 L429 1068 L429 314 Z"/>
      </clipPath>
    </defs>
    <g fill="white" text-rendering="geometricPrecision" shape-rendering="geometricPrecision" transform="translate(-429,-314)" stroke="white">
      <rect x="429" width="556" height="754" y="314" clip-path="url(#clipPath2)" stroke="none"/>
    </g>
    <g font-size="15px" stroke-linecap="butt" transform="matrix(1,0,0,1,-429,-314)" text-rendering="geometricPrecision" font-family="sans-serif" shape-rendering="geometricPrecision" stroke-miterlimit="1.45">
      <text x="471.9083" xml:space="preserve" y="836.7322" clip-path="url(#clipPath2)" stroke="none">Stack</text>
      <rect x="449.4366" y="820.8088" clip-path="url(#clipPath2)" fill="none" width="66" stroke-dasharray="6,2" rx="4" ry="4" height="171.4701"/>
    </g>
    <g fill="white" text-rendering="geometricPrecision" shape-rendering="geometricPrecision" transform="matrix(1,0,0,1,-429,-314)" stroke="white">
      <rect x="464.4366" width="30" height="30" y="941.2698" clip-path="url(#clipPath2)" stroke="none"/>
    </g>
    <g text-rendering="geometricPrecision" stroke-miterlimit="1.45" shape-rendering="geometricPrecision" font-family="sans-serif" transform="matrix(1,0,0,1,-429,-314)" stroke-linecap="butt">
      <text x="477.0958" xml:space="preserve" y="960.4241" clip-path="url(#clipPath2)" stroke="none">)</text>
      <rect fill="none" x="464.4366" width="30" height="30" y="941.2698" clip-path="url(#clipPath2)"/>
    </g>
    <g fill="white" text-rendering="geometricPrecision" shape-rendering="geometricPrecision" transform="matrix(1,0,0,1,-429,-314)" stroke="white">
      <rect x="464.4366" width="30" height="30" y="899.2698" clip-path="url(#clipPath2)" stroke="none"/>
    </g>
    <g text-rendering="geometricPrecision" stroke-miterlimit="1.45" shape-rendering="geometricPrecision" font-family="sans-serif" transform="matrix(1,0,0,1,-429,-314)" stroke-linecap="butt">
      <text x="477.0958" xml:space="preserve" y="918.4241" clip-path="url(#clipPath2)" stroke="none">)</text>
      <rect fill="none" x="464.4366" width="30" height="30" y="899.2698" clip-path="url(#clipPath2)"/>
    </g>
    <g fill="white" text-rendering="geometricPrecision" shape-rendering="geometricPrecision" transform="matrix(1,0,0,1,-429,-314)" stroke="white">
      <rect x="464.4366" width="30" height="30" y="857.2698" clip-path="url(#clipPath2)" stroke="none"/>
    </g>
    <g text-rendering="geometricPrecision" stroke-miterlimit="1.45" shape-rendering="geometricPrecision" font-family="sans-serif" transform="matrix(1,0,0,1,-429,-314)" stroke-linecap="butt">
      <text x="471.8253" xml:space="preserve" y="876.4241" clip-path="url(#clipPath2)" stroke="none">np</text>
      <rect fill="none" x="464.4366" width="30" height="30" y="857.2698" clip-path="url(#clipPath2)"/>
      <text x="827.1769" xml:space="preserve" font-size="15px" y="836.7322" clip-path="url(#clipPath2)" stroke="none">Line</text>
      <rect x="559.9191" y="820.8088" clip-path="url(#clipPath2)" fill="none" width="300.5176" stroke-dasharray="6,2" rx="4" ry="4" height="81.4609"/>
    </g>
    <g fill="white" text-rendering="geometricPrecision" shape-rendering="geometricPrecision" transform="matrix(1,0,0,1,-429,-314)" stroke="white">
      <rect x="574.9191" width="30" height="30" y="857.2698" clip-path="url(#clipPath2)" stroke="none"/>
    </g>
    <g text-rendering="geometricPrecision" stroke-miterlimit="1.45" shape-rendering="geometricPrecision" font-family="sans-serif" transform="matrix(1,0,0,1,-429,-314)" stroke-linecap="butt">
      <text x="586.7931" xml:space="preserve" y="876.4241" clip-path="url(#clipPath2)" stroke="none">s</text>
      <rect fill="none" x="574.9191" width="30" height="30" y="857.2698" clip-path="url(#clipPath2)"/>
    </g>
    <g fill="white" text-rendering="geometricPrecision" shape-rendering="geometricPrecision" transform="matrix(1,0,0,1,-429,-314)" stroke="white">
      <rect x="604.9191" width="30" height="30" y="857.2698" clip-path="url(#clipPath2)" stroke="none"/>
    </g>
    <g text-rendering="geometricPrecision" stroke-miterlimit="1.45" shape-rendering="geometricPrecision" font-family="sans-serif" transform="matrix(1,0,0,1,-429,-314)" stroke-linecap="butt">
      <text x="617.5782" xml:space="preserve" y="876.4241" clip-path="url(#clipPath2)" stroke="none">(</text>
      <rect fill="none" x="604.9191" width="30" height="30" y="857.2698" clip-path="url(#clipPath2)"/>
    </g>
    <g fill="white" text-rendering="geometricPrecision" shape-rendering="geometricPrecision" transform="matrix(1,0,0,1,-429,-314)" stroke="white">
      <rect x="634.9191" width="30" height="30" y="857.2698" clip-path="url(#clipPath2)" stroke="none"/>
    </g>
    <g text-rendering="geometricPrecision" stroke-miterlimit="1.45" shape-rendering="geometricPrecision" font-family="sans-serif" transform="matrix(1,0,0,1,-429,-314)" stroke-linecap="butt">
      <text x="642.3077" xml:space="preserve" y="876.4241" clip-path="url(#clipPath2)" stroke="none">np</text>
      <rect fill="none" x="634.9191" width="30" height="30" y="857.2698" clip-path="url(#clipPath2)"/>
    </g>
    <g fill="white" text-rendering="geometricPrecision" shape-rendering="geometricPrecision" transform="matrix(1,0,0,1,-429,-314)" stroke="white">
      <rect x="664.9191" width="30" height="30" y="857.2698" clip-path="url(#clipPath2)" stroke="none"/>
    </g>
    <g text-rendering="geometricPrecision" stroke-miterlimit="1.45" shape-rendering="geometricPrecision" font-family="sans-serif" transform="matrix(1,0,0,1,-429,-314)" stroke-linecap="butt">
      <text x="677.5782" xml:space="preserve" y="876.4241" clip-path="url(#clipPath2)" stroke="none">(</text>
      <rect fill="none" x="664.9191" width="30" height="30" y="857.2698" clip-path="url(#clipPath2)"/>
    </g>
    <g fill="white" text-rendering="geometricPrecision" shape-rendering="geometricPrecision" transform="matrix(1,0,0,1,-429,-314)" stroke="white">
      <rect x="724.9191" width="30" height="30" y="857.2698" clip-path="url(#clipPath2)" stroke="none"/>
    </g>
    <g text-rendering="geometricPrecision" stroke-miterlimit="1.45" shape-rendering="geometricPrecision" font-family="sans-serif" transform="matrix(1,0,0,1,-429,-314)" stroke-linecap="butt">
      <text x="737.5782" xml:space="preserve" y="876.4241" clip-path="url(#clipPath2)" stroke="none">)</text>
      <rect fill="none" x="724.9191" width="30" height="30" y="857.2698" clip-path="url(#clipPath2)"/>
    </g>
    <g fill="white" text-rendering="geometricPrecision" shape-rendering="geometricPrecision" transform="matrix(1,0,0,1,-429,-314)" stroke="white">
      <rect x="694.9191" width="30" height="30" y="857.2698" clip-path="url(#clipPath2)" stroke="none"/>
    </g>
    <g text-rendering="geometricPrecision" stroke-miterlimit="1.45" shape-rendering="geometricPrecision" font-family="sans-serif" transform="matrix(1,0,0,1,-429,-314)" stroke-linecap="butt">
      <text x="696.17" xml:space="preserve" y="876.4241" clip-path="url(#clipPath2)" stroke="none">pron</text>
      <rect fill="none" x="694.9191" width="30" height="30" y="857.2698" clip-path="url(#clipPath2)"/>
    </g>
    <g fill="white" text-rendering="geometricPrecision" shape-rendering="geometricPrecision" transform="matrix(1,0,0,1,-429,-314)" stroke="white">
      <rect x="754.9191" width="30" height="30" y="857.2698" clip-path="url(#clipPath2)" stroke="none"/>
    </g>
    <g text-rendering="geometricPrecision" stroke-miterlimit="1.45" shape-rendering="geometricPrecision" font-family="sans-serif" transform="matrix(1,0,0,1,-429,-314)" stroke-linecap="butt">
      <text x="762.5597" xml:space="preserve" y="876.4241" clip-path="url(#clipPath2)" stroke="none">vp</text>
      <rect fill="none" x="754.9191" width="30" height="30" y="857.2698" clip-path="url(#clipPath2)"/>
    </g>
    <g fill="white" text-rendering="geometricPrecision" shape-rendering="geometricPrecision" transform="matrix(1,0,0,1,-429,-314)" stroke="white">
      <rect x="784.9191" width="30" height="30" y="857.2698" clip-path="url(#clipPath2)" stroke="none"/>
    </g>
    <g text-rendering="geometricPrecision" stroke-miterlimit="1.45" shape-rendering="geometricPrecision" font-family="sans-serif" transform="matrix(1,0,0,1,-429,-314)" stroke-linecap="butt">
      <text x="797.5782" xml:space="preserve" y="876.4241" clip-path="url(#clipPath2)" stroke="none">(</text>
      <rect fill="none" x="784.9191" width="30" height="30" y="857.2698" clip-path="url(#clipPath2)"/>
    </g>
    <g fill="white" text-rendering="geometricPrecision" shape-rendering="geometricPrecision" transform="matrix(1,0,0,1,-429,-314)" stroke="white">
      <rect x="814.9191" width="30" height="30" y="857.2698" clip-path="url(#clipPath2)" stroke="none"/>
    </g>
    <g text-rendering="geometricPrecision" stroke-miterlimit="1.45" shape-rendering="geometricPrecision" font-family="sans-serif" transform="matrix(1,0,0,1,-429,-314)" stroke-linecap="butt">
      <text x="816.4015" xml:space="preserve" y="876.4241" clip-path="url(#clipPath2)" stroke="none">verb</text>
      <rect fill="none" x="814.9191" width="30" height="30" y="857.2698" clip-path="url(#clipPath2)"/>
    </g>
    <g fill="white" text-rendering="geometricPrecision" shape-rendering="geometricPrecision" transform="matrix(1,0,0,1,-429,-314)" stroke="white">
      <rect x="445.2804" width="30" height="30" y="500.8088" clip-path="url(#clipPath2)" stroke="none"/>
    </g>
    <g text-rendering="geometricPrecision" stroke-miterlimit="1.45" shape-rendering="geometricPrecision" font-family="sans-serif" transform="matrix(1,0,0,1,-429,-314)" stroke-linecap="butt">
      <text x="457.1544" xml:space="preserve" y="519.9631" clip-path="url(#clipPath2)" stroke="none">s</text>
    </g>
    <g stroke-linecap="round" transform="matrix(1,0,0,1,-429,-314)" stroke-dashoffset="2" text-rendering="geometricPrecision" shape-rendering="geometricPrecision" stroke-dasharray="0,4" stroke-miterlimit="1.45">
      <rect fill="none" x="445.2804" width="30" height="30" y="500.8088" clip-path="url(#clipPath2)"/>
    </g>
    <g fill="white" text-rendering="geometricPrecision" shape-rendering="geometricPrecision" transform="matrix(1,0,0,1,-429,-314)" stroke="white">
      <rect x="495.2804" width="30" height="30" y="500.8088" clip-path="url(#clipPath2)" stroke="none"/>
    </g>
    <g text-rendering="geometricPrecision" stroke-miterlimit="1.45" shape-rendering="geometricPrecision" font-family="sans-serif" transform="matrix(1,0,0,1,-429,-314)" stroke-linecap="butt">
      <text x="502.921" xml:space="preserve" y="519.9631" clip-path="url(#clipPath2)" stroke="none">vp</text>
    </g>
    <g stroke-linecap="round" transform="matrix(1,0,0,1,-429,-314)" stroke-dashoffset="2" text-rendering="geometricPrecision" shape-rendering="geometricPrecision" stroke-dasharray="0,4" stroke-miterlimit="1.45">
      <rect fill="none" x="495.2804" width="30" height="30" y="500.8088" clip-path="url(#clipPath2)"/>
    </g>
    <g fill="white" text-rendering="geometricPrecision" shape-rendering="geometricPrecision" transform="matrix(1,0,0,1,-429,-314)" stroke="white">
      <rect x="545.2804" width="30" height="30" y="500.8088" clip-path="url(#clipPath2)" stroke="none"/>
    </g>
    <g text-rendering="geometricPrecision" stroke-miterlimit="1.45" shape-rendering="geometricPrecision" font-family="sans-serif" transform="matrix(1,0,0,1,-429,-314)" stroke-linecap="butt">
      <text x="552.6691" xml:space="preserve" y="519.9631" clip-path="url(#clipPath2)" stroke="none">np</text>
      <rect x="545.2804" y="500.8088" clip-path="url(#clipPath2)" fill="none" width="30" stroke-dasharray="12,4" height="30" stroke-width="2"/>
    </g>
    <g fill="white" text-rendering="geometricPrecision" shape-rendering="geometricPrecision" transform="matrix(1,0,0,1,-429,-314)" stroke="white">
      <rect x="595.2804" width="30" height="30" y="500.8088" clip-path="url(#clipPath2)" stroke="none"/>
    </g>
    <g text-rendering="geometricPrecision" stroke-miterlimit="1.45" shape-rendering="geometricPrecision" font-family="sans-serif" transform="matrix(1,0,0,1,-429,-314)" stroke-linecap="butt">
      <text x="596.962" xml:space="preserve" y="519.9631" clip-path="url(#clipPath2)" stroke="none">nom</text>
      <rect fill="none" x="595.2804" width="30" height="30" y="500.8088" clip-path="url(#clipPath2)"/>
    </g>
    <g fill="white" text-rendering="geometricPrecision" shape-rendering="geometricPrecision" transform="matrix(1,0,0,1,-429,-314)" stroke="white">
      <rect x="445.2804" width="30" height="30" y="550.8088" clip-path="url(#clipPath2)" stroke="none"/>
    </g>
    <g text-rendering="geometricPrecision" stroke-miterlimit="1.45" shape-rendering="geometricPrecision" font-family="sans-serif" transform="matrix(1,0,0,1,-429,-314)" stroke-linecap="butt">
      <text x="452.669" xml:space="preserve" y="569.9631" clip-path="url(#clipPath2)" stroke="none">np</text>
    </g>
    <g stroke-linecap="round" transform="matrix(1,0,0,1,-429,-314)" stroke-dashoffset="2" text-rendering="geometricPrecision" shape-rendering="geometricPrecision" stroke-dasharray="0,4" stroke-miterlimit="1.45">
      <rect fill="none" x="445.2804" width="30" height="30" y="550.8088" clip-path="url(#clipPath2)"/>
    </g>
    <g fill="white" text-rendering="geometricPrecision" shape-rendering="geometricPrecision" transform="matrix(1,0,0,1,-429,-314)" stroke="white">
      <rect x="495.2804" width="30" height="30" y="550.8088" clip-path="url(#clipPath2)" stroke="none"/>
    </g>
    <g text-rendering="geometricPrecision" stroke-miterlimit="1.45" shape-rendering="geometricPrecision" font-family="sans-serif" transform="matrix(1,0,0,1,-429,-314)" stroke-linecap="butt">
      <text x="502.921" xml:space="preserve" y="569.9631" clip-path="url(#clipPath2)" stroke="none">vp</text>
      <rect fill="none" x="495.2804" width="30" height="30" y="550.8088" clip-path="url(#clipPath2)"/>
    </g>
    <g fill="white" text-rendering="geometricPrecision" shape-rendering="geometricPrecision" transform="matrix(1,0,0,1,-429,-314)" stroke="white">
      <rect x="545.2804" width="30" height="30" y="550.8088" clip-path="url(#clipPath2)" stroke="none"/>
    </g>
    <g text-rendering="geometricPrecision" stroke-miterlimit="1.45" shape-rendering="geometricPrecision" font-family="sans-serif" transform="matrix(1,0,0,1,-429,-314)" stroke-linecap="butt">
      <text x="550.4279" xml:space="preserve" y="569.9631" clip-path="url(#clipPath2)" stroke="none">det</text>
      <rect fill="none" x="545.2804" width="30" height="30" y="550.8088" clip-path="url(#clipPath2)"/>
    </g>
    <g fill="white" text-rendering="geometricPrecision" shape-rendering="geometricPrecision" transform="matrix(1,0,0,1,-429,-314)" stroke="white">
      <rect x="595.2804" width="30" height="30" y="550.8088" clip-path="url(#clipPath2)" stroke="none"/>
    </g>
    <g text-rendering="geometricPrecision" stroke-miterlimit="1.45" shape-rendering="geometricPrecision" font-family="sans-serif" transform="matrix(1,0,0,1,-429,-314)" stroke-linecap="butt">
      <text x="595.2013" xml:space="preserve" y="569.9631" clip-path="url(#clipPath2)" stroke="none">noun</text>
      <rect fill="none" x="595.2804" width="30" height="30" y="550.8088" clip-path="url(#clipPath2)"/>
    </g>
    <g fill="white" text-rendering="geometricPrecision" shape-rendering="geometricPrecision" transform="matrix(1,0,0,1,-429,-314)" stroke="white">
      <rect x="445.2804" width="30" height="30" y="600.8088" clip-path="url(#clipPath2)" stroke="none"/>
    </g>
    <g text-rendering="geometricPrecision" stroke-miterlimit="1.45" shape-rendering="geometricPrecision" font-family="sans-serif" transform="matrix(1,0,0,1,-429,-314)" stroke-linecap="butt">
      <text x="452.669" xml:space="preserve" y="619.9631" clip-path="url(#clipPath2)" stroke="none">np</text>
      <rect fill="none" x="445.2804" width="30" height="30" y="600.8088" clip-path="url(#clipPath2)"/>
    </g>
    <g fill="white" text-rendering="geometricPrecision" shape-rendering="geometricPrecision" transform="matrix(1,0,0,1,-429,-314)" stroke="white">
      <rect x="495.2804" width="30" height="30" y="600.8088" clip-path="url(#clipPath2)" stroke="none"/>
    </g>
    <g text-rendering="geometricPrecision" stroke-miterlimit="1.45" shape-rendering="geometricPrecision" font-family="sans-serif" transform="matrix(1,0,0,1,-429,-314)" stroke-linecap="butt">
      <text x="502.921" xml:space="preserve" y="619.9631" clip-path="url(#clipPath2)" stroke="none">vp</text>
      <rect fill="none" x="495.2804" width="30" height="30" y="600.8088" clip-path="url(#clipPath2)"/>
    </g>
    <g fill="white" text-rendering="geometricPrecision" shape-rendering="geometricPrecision" transform="matrix(1,0,0,1,-429,-314)" stroke="white">
      <rect x="545.2804" width="30" height="30" y="600.8088" clip-path="url(#clipPath2)" stroke="none"/>
    </g>
    <g text-rendering="geometricPrecision" stroke-miterlimit="1.45" shape-rendering="geometricPrecision" font-family="sans-serif" transform="matrix(1,0,0,1,-429,-314)" stroke-linecap="butt">
      <text x="550.4279" xml:space="preserve" y="619.9631" clip-path="url(#clipPath2)" stroke="none">det</text>
      <rect fill="none" x="545.2804" width="30" height="30" y="600.8088" clip-path="url(#clipPath2)"/>
    </g>
    <g fill="white" text-rendering="geometricPrecision" shape-rendering="geometricPrecision" transform="matrix(1,0,0,1,-429,-314)" stroke="white">
      <rect x="595.2804" width="30" height="30" y="600.8088" clip-path="url(#clipPath2)" stroke="none"/>
    </g>
    <g text-rendering="geometricPrecision" stroke-miterlimit="1.45" shape-rendering="geometricPrecision" transform="matrix(1,0,0,1,-429,-314)" stroke-linecap="butt">
      <rect fill="none" x="595.2804" width="30" height="30" y="600.8088" clip-path="url(#clipPath2)"/>
    </g>
    <g fill="white" text-rendering="geometricPrecision" shape-rendering="geometricPrecision" transform="matrix(1,0,0,1,-429,-314)" stroke="white">
      <rect x="445.2804" width="30" height="30" y="650.8088" clip-path="url(#clipPath2)" stroke="none"/>
    </g>
    <g text-rendering="geometricPrecision" stroke-miterlimit="1.45" shape-rendering="geometricPrecision" font-family="sans-serif" transform="matrix(1,0,0,1,-429,-314)" stroke-linecap="butt">
      <text x="452.669" xml:space="preserve" y="669.9631" clip-path="url(#clipPath2)" stroke="none">np</text>
      <rect fill="none" x="445.2804" width="30" height="30" y="650.8088" clip-path="url(#clipPath2)"/>
    </g>
    <g fill="white" text-rendering="geometricPrecision" shape-rendering="geometricPrecision" transform="matrix(1,0,0,1,-429,-314)" stroke="white">
      <rect x="495.2804" width="30" height="30" y="650.8088" clip-path="url(#clipPath2)" stroke="none"/>
    </g>
    <g text-rendering="geometricPrecision" stroke-miterlimit="1.45" shape-rendering="geometricPrecision" font-family="sans-serif" transform="matrix(1,0,0,1,-429,-314)" stroke-linecap="butt">
      <text x="496.7628" xml:space="preserve" y="669.9631" clip-path="url(#clipPath2)" stroke="none">verb</text>
    </g>
    <g stroke-linecap="round" transform="matrix(1,0,0,1,-429,-314)" stroke-dashoffset="2" text-rendering="geometricPrecision" shape-rendering="geometricPrecision" stroke-dasharray="0,4" stroke-miterlimit="1.45">
      <rect fill="none" x="495.2804" width="30" height="30" y="650.8088" clip-path="url(#clipPath2)"/>
    </g>
    <g fill="white" text-rendering="geometricPrecision" shape-rendering="geometricPrecision" transform="matrix(1,0,0,1,-429,-314)" stroke="white">
      <rect x="545.2804" width="30" height="30" y="650.8088" clip-path="url(#clipPath2)" stroke="none"/>
    </g>
    <g text-rendering="geometricPrecision" stroke-miterlimit="1.45" shape-rendering="geometricPrecision" transform="matrix(1,0,0,1,-429,-314)" stroke-linecap="butt">
      <rect fill="none" x="545.2804" width="30" height="30" y="650.8088" clip-path="url(#clipPath2)"/>
    </g>
    <g fill="white" text-rendering="geometricPrecision" shape-rendering="geometricPrecision" transform="matrix(1,0,0,1,-429,-314)" stroke="white">
      <rect x="595.2804" width="30" height="30" y="650.8088" clip-path="url(#clipPath2)" stroke="none"/>
    </g>
    <g text-rendering="geometricPrecision" stroke-miterlimit="1.45" shape-rendering="geometricPrecision" transform="matrix(1,0,0,1,-429,-314)" stroke-linecap="butt">
      <rect fill="none" x="595.2804" width="30" height="30" y="650.8088" clip-path="url(#clipPath2)"/>
    </g>
    <g fill="white" text-rendering="geometricPrecision" shape-rendering="geometricPrecision" transform="matrix(1,0,0,1,-429,-314)" stroke="white">
      <rect x="445.2804" width="30" height="30" y="700.8088" clip-path="url(#clipPath2)" stroke="none"/>
    </g>
    <g text-rendering="geometricPrecision" stroke-miterlimit="1.45" shape-rendering="geometricPrecision" font-family="sans-serif" transform="matrix(1,0,0,1,-429,-314)" stroke-linecap="butt">
      <text x="446.5313" xml:space="preserve" y="719.9631" clip-path="url(#clipPath2)" stroke="none">pron</text>
    </g>
    <g stroke-linecap="round" transform="matrix(1,0,0,1,-429,-314)" stroke-dashoffset="2" text-rendering="geometricPrecision" shape-rendering="geometricPrecision" stroke-dasharray="0,4" stroke-miterlimit="1.45">
      <rect fill="none" x="445.2804" width="30" height="30" y="700.8088" clip-path="url(#clipPath2)"/>
    </g>
    <g fill="white" text-rendering="geometricPrecision" shape-rendering="geometricPrecision" transform="matrix(1,0,0,1,-429,-314)" stroke="white">
      <rect x="495.2804" width="30" height="30" y="700.8088" clip-path="url(#clipPath2)" stroke="none"/>
    </g>
    <g text-rendering="geometricPrecision" stroke-miterlimit="1.45" shape-rendering="geometricPrecision" transform="matrix(1,0,0,1,-429,-314)" stroke-linecap="butt">
      <rect fill="none" x="495.2804" width="30" height="30" y="700.8088" clip-path="url(#clipPath2)"/>
    </g>
    <g fill="white" text-rendering="geometricPrecision" shape-rendering="geometricPrecision" transform="matrix(1,0,0,1,-429,-314)" stroke="white">
      <rect x="545.2804" width="30" height="30" y="700.8088" clip-path="url(#clipPath2)" stroke="none"/>
    </g>
    <g text-rendering="geometricPrecision" stroke-miterlimit="1.45" shape-rendering="geometricPrecision" transform="matrix(1,0,0,1,-429,-314)" stroke-linecap="butt">
      <rect fill="none" x="545.2804" width="30" height="30" y="700.8088" clip-path="url(#clipPath2)"/>
    </g>
    <g fill="white" text-rendering="geometricPrecision" shape-rendering="geometricPrecision" transform="matrix(1,0,0,1,-429,-314)" stroke="white">
      <rect x="595.2804" width="30" height="30" y="700.8088" clip-path="url(#clipPath2)" stroke="none"/>
    </g>
    <g text-rendering="geometricPrecision" stroke-miterlimit="1.45" shape-rendering="geometricPrecision" transform="matrix(1,0,0,1,-429,-314)" stroke-linecap="butt">
      <rect fill="none" x="595.2804" width="30" height="30" y="700.8088" clip-path="url(#clipPath2)"/>
    </g>
    <g fill="white" text-rendering="geometricPrecision" shape-rendering="geometricPrecision" transform="matrix(1,0,0,1,-429,-314)" stroke="white">
      <rect x="445.2804" width="180" height="30" y="448.8088" clip-path="url(#clipPath2)" stroke="none"/>
    </g>
    <g text-rendering="geometricPrecision" stroke-miterlimit="1.45" shape-rendering="geometricPrecision" font-family="sans-serif" transform="matrix(1,0,0,1,-429,-314)" stroke-linecap="butt">
      <text x="502.6935" xml:space="preserve" y="467.9631" clip-path="url(#clipPath2)" stroke="none">CKY Matrix</text>
      <rect fill="none" x="445.2804" width="180" height="30" y="448.8088" clip-path="url(#clipPath2)"/>
    </g>
    <g fill="white" text-rendering="geometricPrecision" shape-rendering="geometricPrecision" transform="matrix(1,0,0,1,-429,-314)" stroke="white">
      <rect x="830.4366" width="30" height="30" y="500.8088" clip-path="url(#clipPath2)" stroke="none"/>
    </g>
    <g text-rendering="geometricPrecision" stroke-miterlimit="1.45" shape-rendering="geometricPrecision" font-family="sans-serif" transform="matrix(1,0,0,1,-429,-314)" stroke-linecap="butt">
      <text x="842.3107" xml:space="preserve" y="519.9631" clip-path="url(#clipPath2)" stroke="none">s</text>
      <rect fill="none" x="830.4366" width="30" height="30" y="500.8088" clip-path="url(#clipPath2)"/>
    </g>
    <g fill="white" text-rendering="geometricPrecision" shape-rendering="geometricPrecision" transform="matrix(1,0,0,1,-429,-314)" stroke="white">
      <rect x="830.4366" width="30" height="30" y="568.1635" clip-path="url(#clipPath2)" stroke="none"/>
    </g>
    <g text-rendering="geometricPrecision" stroke-miterlimit="1.45" shape-rendering="geometricPrecision" font-family="sans-serif" transform="matrix(1,0,0,1,-429,-314)" stroke-linecap="butt">
      <text x="837.8253" xml:space="preserve" y="587.3177" clip-path="url(#clipPath2)" stroke="none">np</text>
      <rect fill="none" x="830.4366" width="30" height="30" y="568.1635" clip-path="url(#clipPath2)"/>
    </g>
    <g fill="white" text-rendering="geometricPrecision" shape-rendering="geometricPrecision" transform="matrix(1,0,0,1,-429,-314)" stroke="white">
      <rect x="830.4366" width="30" height="30" y="635.5181" clip-path="url(#clipPath2)" stroke="none"/>
    </g>
    <g text-rendering="geometricPrecision" stroke-miterlimit="1.45" shape-rendering="geometricPrecision" font-family="sans-serif" transform="matrix(1,0,0,1,-429,-314)" stroke-linecap="butt">
      <text x="831.6876" xml:space="preserve" y="654.6724" clip-path="url(#clipPath2)" stroke="none">pron</text>
      <rect stroke-linecap="round" x="830.4366" y="635.5181" clip-path="url(#clipPath2)" fill="none" width="30" stroke-dasharray="4,3,0,3" height="30"/>
    </g>
    <g fill="white" text-rendering="geometricPrecision" shape-rendering="geometricPrecision" transform="matrix(1,0,0,1,-429,-314)" stroke="white">
      <rect x="903.8486" width="30" height="30" y="568.1635" clip-path="url(#clipPath2)" stroke="none"/>
    </g>
    <g text-rendering="geometricPrecision" stroke-miterlimit="1.45" shape-rendering="geometricPrecision" font-family="sans-serif" transform="matrix(1,0,0,1,-429,-314)" stroke-linecap="butt">
      <text x="911.4893" xml:space="preserve" y="587.3177" clip-path="url(#clipPath2)" stroke="none">vp</text>
      <rect fill="none" x="903.8486" width="30" height="30" y="568.1635" clip-path="url(#clipPath2)"/>
    </g>
    <g fill="white" text-rendering="geometricPrecision" shape-rendering="geometricPrecision" transform="matrix(1,0,0,1,-429,-314)" stroke="white">
      <rect x="903.8486" width="30" height="30" y="635.5181" clip-path="url(#clipPath2)" stroke="none"/>
    </g>
    <g text-rendering="geometricPrecision" stroke-miterlimit="1.45" shape-rendering="geometricPrecision" font-family="sans-serif" transform="matrix(1,0,0,1,-429,-314)" stroke-linecap="butt">
      <text x="905.3311" xml:space="preserve" y="654.6724" clip-path="url(#clipPath2)" stroke="none">verb</text>
      <rect stroke-linecap="round" x="903.8486" y="635.5181" clip-path="url(#clipPath2)" fill="none" width="30" stroke-dasharray="4,3,0,3" height="30"/>
    </g>
    <g fill="white" text-rendering="geometricPrecision" shape-rendering="geometricPrecision" transform="matrix(1,0,0,1,-429,-314)" stroke="white">
      <rect x="445.2804" width="518.9583" height="30" y="396.6131" clip-path="url(#clipPath2)" stroke="none"/>
    </g>
    <g text-rendering="geometricPrecision" stroke-miterlimit="1.45" shape-rendering="geometricPrecision" font-family="sans-serif" transform="matrix(1,0,0,1,-429,-314)" stroke-linecap="butt">
      <text x="685.3738" xml:space="preserve" y="415.7674" clip-path="url(#clipPath2)" stroke="none">Step 5</text>
      <rect fill="none" x="445.2804" width="518.9583" height="30" y="396.6131" clip-path="url(#clipPath2)"/>
    </g>
    <g fill="white" text-rendering="geometricPrecision" shape-rendering="geometricPrecision" transform="matrix(1,0,0,1,-429,-314)" stroke="white">
      <rect x="445.2804" width="518.9583" height="44.6667" y="329.7507" clip-path="url(#clipPath2)" stroke="none"/>
    </g>
    <g font-size="11px" stroke-linecap="butt" transform="matrix(1,0,0,1,-429,-314)" text-rendering="geometricPrecision" font-family="sans-serif" shape-rendering="geometricPrecision" stroke-miterlimit="1.45">
      <text x="622.2139" xml:space="preserve" y="343.0875" clip-path="url(#clipPath2)" stroke="none">Tree_DFS of "I am a Function"</text>
      <text x="655.3159" xml:space="preserve" y="355.8922" clip-path="url(#clipPath2)" stroke="none">First Permutation:</text>
      <text x="649.9609" xml:space="preserve" y="368.6969" clip-path="url(#clipPath2)" stroke="none">Pron Verb Det Noun</text>
      <rect fill="none" x="445.2804" width="518.9583" height="44.6667" y="329.7507" clip-path="url(#clipPath2)"/>
    </g>
    <g fill="white" text-rendering="geometricPrecision" shape-rendering="geometricPrecision" transform="matrix(1,0,0,1,-429,-314)" stroke="white">
      <rect x="445.2804" width="237.6042" height="30" y="760.8088" clip-path="url(#clipPath2)" stroke="none"/>
    </g>
    <g text-rendering="geometricPrecision" stroke-miterlimit="1.45" shape-rendering="geometricPrecision" font-family="sans-serif" transform="matrix(1,0,0,1,-429,-314)" stroke-linecap="butt">
      <text x="505.4477" xml:space="preserve" y="779.9631" clip-path="url(#clipPath2)" stroke="none">Stack &amp; Line Status</text>
      <rect fill="none" x="445.2804" width="237.6042" height="30" y="760.8088" clip-path="url(#clipPath2)"/>
    </g>
    <g fill="white" text-rendering="geometricPrecision" shape-rendering="geometricPrecision" transform="matrix(1,0,0,1,-429,-314)" stroke="white">
      <rect x="726.6345" width="237.6042" height="30" y="448.8088" clip-path="url(#clipPath2)" stroke="none"/>
    </g>
    <g text-rendering="geometricPrecision" stroke-miterlimit="1.45" shape-rendering="geometricPrecision" font-family="sans-serif" transform="matrix(1,0,0,1,-429,-314)" stroke-linecap="butt">
      <text x="831.922" xml:space="preserve" y="467.9631" clip-path="url(#clipPath2)" stroke="none">Tree</text>
      <rect fill="none" x="726.6345" width="237.6042" height="30" y="448.8088" clip-path="url(#clipPath2)"/>
    </g>
    <g fill="white" text-rendering="geometricPrecision" shape-rendering="geometricPrecision" transform="matrix(1,0,0,1,-429,-314)" stroke="white">
      <rect x="450.6987" width="518.9583" height="30" y="1022.2789" clip-path="url(#clipPath2)" stroke="none"/>
    </g>
    <g text-rendering="geometricPrecision" stroke-miterlimit="1.45" shape-rendering="geometricPrecision" font-family="sans-serif" transform="matrix(1,0,0,1,-429,-314)" stroke-linecap="butt">
      <text x="681.7482" xml:space="preserve" y="1041.4331" clip-path="url(#clipPath2)" stroke="none">Figure 34</text>
      <rect fill="none" x="450.6987" width="518.9583" height="30" y="1022.2789" clip-path="url(#clipPath2)"/>
      <path fill="none" d="M495.2804 515.8088 L483.2804 515.8088" clip-path="url(#clipPath2)"/>
      <path d="M475.2804 515.8088 L487.2804 520.8088 L484.2804 515.8088 L487.2804 510.8088 Z" clip-path="url(#clipPath2)" stroke="none"/>
      <path fill="none" d="M545.2804 515.8088 L533.2804 515.8088" clip-path="url(#clipPath2)"/>
      <path d="M525.2804 515.8088 L537.2804 520.8088 L534.2804 515.8088 L537.2804 510.8088 Z" clip-path="url(#clipPath2)" stroke="none"/>
      <path fill="none" d="M595.2804 515.8088 L583.2804 515.8088" clip-path="url(#clipPath2)"/>
      <path d="M575.2804 515.8088 L587.2804 520.8088 L584.2804 515.8088 L587.2804 510.8088 Z" clip-path="url(#clipPath2)" stroke="none"/>
      <path fill="none" d="M460.2804 550.8088 L460.2804 538.8088" clip-path="url(#clipPath2)"/>
      <path d="M460.2804 530.8088 L455.2804 542.8088 L460.2804 539.8088 L465.2804 542.8088 Z" clip-path="url(#clipPath2)" stroke="none"/>
    </g>
    <g text-rendering="geometricPrecision" stroke-miterlimit="1.45" shape-rendering="geometricPrecision" transform="matrix(1,0,0,1,-429,-314)" stroke-linecap="butt">
      <path fill="none" d="M510.2804 530.8088 L504.0304 545.8088 L508.7804 542.9589 L508.7804 542.9589 L508.7804 550.8088 L511.7804 550.8088 L511.7804 542.9589 L511.7804 542.9589 L516.5304 545.8088 L510.2804 530.8088 Z" clip-path="url(#clipPath2)"/>
    </g>
    <g text-rendering="geometricPrecision" stroke-miterlimit="1.45" shape-rendering="geometricPrecision" transform="matrix(1,0,0,1,-429,-314)" stroke-linecap="butt">
      <path fill="none" d="M560.2804 550.8088 L560.2804 538.8088" clip-path="url(#clipPath2)"/>
      <path d="M560.2804 530.8088 L555.2804 542.8088 L560.2804 539.8088 L565.2804 542.8088 Z" clip-path="url(#clipPath2)" stroke="none"/>
      <path fill="none" d="M610.2804 550.8088 L610.2804 538.8088" clip-path="url(#clipPath2)"/>
      <path d="M610.2804 530.8088 L605.2804 542.8088 L610.2804 539.8088 L615.2804 542.8088 Z" clip-path="url(#clipPath2)" stroke="none"/>
    </g>
    <g text-rendering="geometricPrecision" stroke-miterlimit="1.45" shape-rendering="geometricPrecision" transform="matrix(1,0,0,1,-429,-314)" stroke-linecap="butt">
      <path fill="none" d="M460.2804 580.8088 L454.0304 595.8088 L458.7804 592.9589 L458.7804 592.9589 L458.7804 600.8088 L461.7804 600.8088 L461.7804 592.9589 L461.7804 592.9589 L466.5304 595.8088 L460.2804 580.8088 Z" clip-path="url(#clipPath2)"/>
    </g>
    <g text-rendering="geometricPrecision" stroke-miterlimit="1.45" shape-rendering="geometricPrecision" transform="matrix(1,0,0,1,-429,-314)" stroke-linecap="butt">
      <path fill="none" d="M510.2804 580.8088 L504.0304 595.8088 L508.7804 592.9589 L508.7804 592.9589 L508.7804 600.8088 L511.7804 600.8088 L511.7804 592.9589 L511.7804 592.9589 L516.5304 595.8088 L510.2804 580.8088 Z" clip-path="url(#clipPath2)"/>
    </g>
    <g text-rendering="geometricPrecision" stroke-miterlimit="1.45" shape-rendering="geometricPrecision" transform="matrix(1,0,0,1,-429,-314)" stroke-linecap="butt">
      <path fill="none" d="M560.2804 580.8088 L554.0304 595.8088 L558.7804 592.9589 L558.7804 600.8088 L561.7804 600.8088 L561.7804 592.9589 L566.5304 595.8088 L560.2804 580.8088 Z" clip-path="url(#clipPath2)"/>
    </g>
    <g text-rendering="geometricPrecision" stroke-miterlimit="1.45" shape-rendering="geometricPrecision" transform="matrix(1,0,0,1,-429,-314)" stroke-linecap="butt">
      <path fill="none" d="M460.2804 630.8088 L454.0304 645.8088 L458.7804 642.9589 L458.7804 642.9589 L458.7804 650.8088 L461.7804 650.8088 L461.7804 642.9589 L461.7804 642.9589 L466.5304 645.8088 L460.2804 630.8088 Z" clip-path="url(#clipPath2)"/>
    </g>
    <g text-rendering="geometricPrecision" stroke-miterlimit="1.45" shape-rendering="geometricPrecision" transform="matrix(1,0,0,1,-429,-314)" stroke-linecap="butt">
      <path fill="none" d="M510.2804 650.8088 L510.2804 638.8088" clip-path="url(#clipPath2)"/>
      <path d="M510.2804 630.8088 L505.2804 642.8088 L510.2804 639.8088 L515.2804 642.8088 Z" clip-path="url(#clipPath2)" stroke="none"/>
      <path fill="none" d="M460.2804 700.8088 L460.2804 688.8088" clip-path="url(#clipPath2)"/>
      <path d="M460.2804 680.8088 L455.2804 692.8088 L460.2804 689.8088 L465.2804 692.8088 Z" clip-path="url(#clipPath2)" stroke="none"/>
      <path fill="none" d="M845.4366 530.8088 L845.4366 560.1635" clip-path="url(#clipPath2)"/>
      <path d="M845.4366 568.1635 L850.4366 556.1635 L845.4366 559.1635 L840.4366 556.1635 Z" clip-path="url(#clipPath2)" stroke="none"/>
      <path fill="none" d="M845.4366 598.1635 L845.4366 627.5181" clip-path="url(#clipPath2)"/>
      <path d="M845.4366 635.5181 L850.4366 623.5181 L845.4366 626.5181 L840.4366 623.5181 Z" clip-path="url(#clipPath2)" stroke="none"/>
      <path fill="none" d="M860.4366 529.5712 L897.9538 563.9927" clip-path="url(#clipPath2)"/>
      <path d="M903.8486 569.4011 L898.3867 557.6042 L897.217 563.3167 L891.6262 564.9727 Z" clip-path="url(#clipPath2)" stroke="none"/>
      <path fill="none" d="M918.8486 598.1635 L918.8486 627.5181" clip-path="url(#clipPath2)"/>
      <path d="M918.8486 635.5181 L923.8486 623.5181 L918.8486 626.5181 L913.8486 623.5181 Z" clip-path="url(#clipPath2)" stroke="none"/>
    </g>
  </g>
</svg>
