<?xml version="1.0" encoding="UTF-8"?><svg xmlns="http://www.w3.org/2000/svg" xmlns:xlink="http://www.w3.org/1999/xlink" fill-opacity="1" color-rendering="auto" color-interpolation="auto" text-rendering="auto" stroke="black" stroke-linecap="square" width="483" stroke-miterlimit="10" shape-rendering="auto" stroke-opacity="1" fill="black" stroke-dasharray="none" font-weight="normal" stroke-width="1" height="415" font-family="'Dialog'" font-style="normal" stroke-linejoin="miter" font-size="12px" stroke-dashoffset="0" image-rendering="auto">
  <!--Generated by ySVG 2.5-->
  <defs id="genericDefs"/>
  <g>
    <defs id="defs1">
      <clipPath clipPathUnits="userSpaceOnUse" id="clipPath1">
        <path d="M0 0 L483 0 L483 415 L0 415 L0 0 Z"/>
      </clipPath>
      <clipPath clipPathUnits="userSpaceOnUse" id="clipPath2">
        <path d="M394 362 L877 362 L877 777 L394 777 L394 362 Z"/>
      </clipPath>
    </defs>
    <g fill="white" text-rendering="geometricPrecision" shape-rendering="geometricPrecision" transform="translate(-394,-362)" stroke="white">
      <rect x="394" width="483" height="415" y="362" clip-path="url(#clipPath2)" stroke="none"/>
    </g>
    <g fill="white" text-rendering="geometricPrecision" shape-rendering="geometricPrecision" transform="matrix(1,0,0,1,-394,-362)" stroke="white">
      <rect x="545.5" width="30" height="30" y="481.3333" clip-path="url(#clipPath2)" stroke="none"/>
    </g>
    <g text-rendering="geometricPrecision" stroke-miterlimit="1.45" shape-rendering="geometricPrecision" transform="matrix(1,0,0,1,-394,-362)" stroke-linecap="butt">
      <rect fill="none" x="545.5" width="30" height="30" y="481.3333" clip-path="url(#clipPath2)"/>
    </g>
    <g fill="white" text-rendering="geometricPrecision" shape-rendering="geometricPrecision" transform="matrix(1,0,0,1,-394,-362)" stroke="white">
      <rect x="595.5" width="30" height="30" y="481.3333" clip-path="url(#clipPath2)" stroke="none"/>
    </g>
    <g text-rendering="geometricPrecision" stroke-miterlimit="1.45" shape-rendering="geometricPrecision" font-family="sans-serif" transform="matrix(1,0,0,1,-394,-362)" stroke-linecap="butt">
      <text x="603.1406" xml:space="preserve" y="500.4876" clip-path="url(#clipPath2)" stroke="none">vp</text>
      <rect fill="none" x="595.5" width="30" height="30" y="481.3333" clip-path="url(#clipPath2)"/>
    </g>
    <g fill="white" text-rendering="geometricPrecision" shape-rendering="geometricPrecision" transform="matrix(1,0,0,1,-394,-362)" stroke="white">
      <rect x="645.5" width="30" height="30" y="481.3333" clip-path="url(#clipPath2)" stroke="none"/>
    </g>
    <g text-rendering="geometricPrecision" stroke-miterlimit="1.45" shape-rendering="geometricPrecision" font-family="sans-serif" transform="matrix(1,0,0,1,-394,-362)" stroke-linecap="butt">
      <text x="652.8887" xml:space="preserve" y="500.4876" clip-path="url(#clipPath2)" stroke="none">np</text>
      <rect fill="none" x="645.5" width="30" height="30" y="481.3333" clip-path="url(#clipPath2)"/>
    </g>
    <g fill="white" text-rendering="geometricPrecision" shape-rendering="geometricPrecision" transform="matrix(1,0,0,1,-394,-362)" stroke="white">
      <rect x="695.5" width="30" height="30" y="481.3333" clip-path="url(#clipPath2)" stroke="none"/>
    </g>
    <g text-rendering="geometricPrecision" stroke-miterlimit="1.45" shape-rendering="geometricPrecision" font-family="sans-serif" transform="matrix(1,0,0,1,-394,-362)" stroke-linecap="butt">
      <text x="697.1816" xml:space="preserve" y="500.4876" clip-path="url(#clipPath2)" stroke="none">nom</text>
      <rect fill="none" x="695.5" width="30" height="30" y="481.3333" clip-path="url(#clipPath2)"/>
    </g>
    <g fill="white" text-rendering="geometricPrecision" shape-rendering="geometricPrecision" transform="matrix(1,0,0,1,-394,-362)" stroke="white">
      <rect x="545.5" width="30" height="30" y="531.3333" clip-path="url(#clipPath2)" stroke="none"/>
    </g>
    <g text-rendering="geometricPrecision" stroke-miterlimit="1.45" shape-rendering="geometricPrecision" font-family="sans-serif" transform="matrix(1,0,0,1,-394,-362)" stroke-linecap="butt">
      <text x="552.8887" xml:space="preserve" y="550.4876" clip-path="url(#clipPath2)" stroke="none">np</text>
      <rect fill="none" x="545.5" width="30" height="30" y="531.3333" clip-path="url(#clipPath2)"/>
    </g>
    <g fill="white" text-rendering="geometricPrecision" shape-rendering="geometricPrecision" transform="matrix(1,0,0,1,-394,-362)" stroke="white">
      <rect x="595.5" width="30" height="30" y="531.3333" clip-path="url(#clipPath2)" stroke="none"/>
    </g>
    <g text-rendering="geometricPrecision" stroke-miterlimit="1.45" shape-rendering="geometricPrecision" font-family="sans-serif" transform="matrix(1,0,0,1,-394,-362)" stroke-linecap="butt">
      <text x="603.1406" xml:space="preserve" y="550.4876" clip-path="url(#clipPath2)" stroke="none">vp</text>
      <rect fill="none" x="595.5" width="30" height="30" y="531.3333" clip-path="url(#clipPath2)"/>
    </g>
    <g fill="white" text-rendering="geometricPrecision" shape-rendering="geometricPrecision" transform="matrix(1,0,0,1,-394,-362)" stroke="white">
      <rect x="645.5" width="30" height="30" y="531.3333" clip-path="url(#clipPath2)" stroke="none"/>
    </g>
    <g text-rendering="geometricPrecision" stroke-miterlimit="1.45" shape-rendering="geometricPrecision" font-family="sans-serif" transform="matrix(1,0,0,1,-394,-362)" stroke-linecap="butt">
      <text x="650.6475" xml:space="preserve" y="550.4876" clip-path="url(#clipPath2)" stroke="none">det</text>
      <rect fill="none" x="645.5" width="30" height="30" y="531.3333" clip-path="url(#clipPath2)"/>
    </g>
    <g fill="white" text-rendering="geometricPrecision" shape-rendering="geometricPrecision" transform="matrix(1,0,0,1,-394,-362)" stroke="white">
      <rect x="695.5" width="30" height="30" y="531.3333" clip-path="url(#clipPath2)" stroke="none"/>
    </g>
    <g text-rendering="geometricPrecision" stroke-miterlimit="1.45" shape-rendering="geometricPrecision" font-family="sans-serif" transform="matrix(1,0,0,1,-394,-362)" stroke-linecap="butt">
      <text x="695.4209" xml:space="preserve" y="550.4876" clip-path="url(#clipPath2)" stroke="none">noun</text>
      <rect fill="none" x="695.5" width="30" height="30" y="531.3333" clip-path="url(#clipPath2)"/>
    </g>
    <g fill="white" text-rendering="geometricPrecision" shape-rendering="geometricPrecision" transform="matrix(1,0,0,1,-394,-362)" stroke="white">
      <rect x="545.5" width="30" height="30" y="581.3333" clip-path="url(#clipPath2)" stroke="none"/>
    </g>
    <g text-rendering="geometricPrecision" stroke-miterlimit="1.45" shape-rendering="geometricPrecision" font-family="sans-serif" transform="matrix(1,0,0,1,-394,-362)" stroke-linecap="butt">
      <text x="552.8887" xml:space="preserve" y="600.4876" clip-path="url(#clipPath2)" stroke="none">np</text>
      <rect fill="none" x="545.5" width="30" height="30" y="581.3333" clip-path="url(#clipPath2)"/>
    </g>
    <g fill="white" text-rendering="geometricPrecision" shape-rendering="geometricPrecision" transform="matrix(1,0,0,1,-394,-362)" stroke="white">
      <rect x="595.5" width="30" height="30" y="581.3333" clip-path="url(#clipPath2)" stroke="none"/>
    </g>
    <g text-rendering="geometricPrecision" stroke-miterlimit="1.45" shape-rendering="geometricPrecision" font-family="sans-serif" transform="matrix(1,0,0,1,-394,-362)" stroke-linecap="butt">
      <text x="603.1406" xml:space="preserve" y="600.4876" clip-path="url(#clipPath2)" stroke="none">vp</text>
      <rect fill="none" x="595.5" width="30" height="30" y="581.3333" clip-path="url(#clipPath2)"/>
    </g>
    <g fill="white" text-rendering="geometricPrecision" shape-rendering="geometricPrecision" transform="matrix(1,0,0,1,-394,-362)" stroke="white">
      <rect x="645.5" width="30" height="30" y="581.3333" clip-path="url(#clipPath2)" stroke="none"/>
    </g>
    <g text-rendering="geometricPrecision" stroke-miterlimit="1.45" shape-rendering="geometricPrecision" font-family="sans-serif" transform="matrix(1,0,0,1,-394,-362)" stroke-linecap="butt">
      <text x="650.6475" xml:space="preserve" y="600.4876" clip-path="url(#clipPath2)" stroke="none">det</text>
      <rect fill="none" x="645.5" width="30" height="30" y="581.3333" clip-path="url(#clipPath2)"/>
    </g>
    <g fill="white" text-rendering="geometricPrecision" shape-rendering="geometricPrecision" transform="matrix(1,0,0,1,-394,-362)" stroke="white">
      <rect x="695.5" width="30" height="30" y="581.3333" clip-path="url(#clipPath2)" stroke="none"/>
    </g>
    <g text-rendering="geometricPrecision" stroke-miterlimit="1.45" shape-rendering="geometricPrecision" transform="matrix(1,0,0,1,-394,-362)" stroke-linecap="butt">
      <rect fill="none" x="695.5" width="30" height="30" y="581.3333" clip-path="url(#clipPath2)"/>
    </g>
    <g fill="white" text-rendering="geometricPrecision" shape-rendering="geometricPrecision" transform="matrix(1,0,0,1,-394,-362)" stroke="white">
      <rect x="545.5" width="30" height="30" y="631.3333" clip-path="url(#clipPath2)" stroke="none"/>
    </g>
    <g text-rendering="geometricPrecision" stroke-miterlimit="1.45" shape-rendering="geometricPrecision" font-family="sans-serif" transform="matrix(1,0,0,1,-394,-362)" stroke-linecap="butt">
      <text x="552.8887" xml:space="preserve" y="650.4876" clip-path="url(#clipPath2)" stroke="none">np</text>
      <rect fill="none" x="545.5" width="30" height="30" y="631.3333" clip-path="url(#clipPath2)"/>
    </g>
    <g fill="white" text-rendering="geometricPrecision" shape-rendering="geometricPrecision" transform="matrix(1,0,0,1,-394,-362)" stroke="white">
      <rect x="595.5" width="30" height="30" y="631.3333" clip-path="url(#clipPath2)" stroke="none"/>
    </g>
    <g text-rendering="geometricPrecision" stroke-miterlimit="1.45" shape-rendering="geometricPrecision" font-family="sans-serif" transform="matrix(1,0,0,1,-394,-362)" stroke-linecap="butt">
      <text x="596.9824" xml:space="preserve" y="650.4876" clip-path="url(#clipPath2)" stroke="none">verb</text>
      <rect fill="none" x="595.5" width="30" height="30" y="631.3333" clip-path="url(#clipPath2)"/>
    </g>
    <g fill="white" text-rendering="geometricPrecision" shape-rendering="geometricPrecision" transform="matrix(1,0,0,1,-394,-362)" stroke="white">
      <rect x="645.5" width="30" height="30" y="631.3333" clip-path="url(#clipPath2)" stroke="none"/>
    </g>
    <g text-rendering="geometricPrecision" stroke-miterlimit="1.45" shape-rendering="geometricPrecision" transform="matrix(1,0,0,1,-394,-362)" stroke-linecap="butt">
      <rect fill="none" x="645.5" width="30" height="30" y="631.3333" clip-path="url(#clipPath2)"/>
    </g>
    <g fill="white" text-rendering="geometricPrecision" shape-rendering="geometricPrecision" transform="matrix(1,0,0,1,-394,-362)" stroke="white">
      <rect x="695.5" width="30" height="30" y="631.3333" clip-path="url(#clipPath2)" stroke="none"/>
    </g>
    <g text-rendering="geometricPrecision" stroke-miterlimit="1.45" shape-rendering="geometricPrecision" transform="matrix(1,0,0,1,-394,-362)" stroke-linecap="butt">
      <rect fill="none" x="695.5" width="30" height="30" y="631.3333" clip-path="url(#clipPath2)"/>
    </g>
    <g fill="white" text-rendering="geometricPrecision" shape-rendering="geometricPrecision" transform="matrix(1,0,0,1,-394,-362)" stroke="white">
      <rect x="545.5" width="30" height="30" y="681.3333" clip-path="url(#clipPath2)" stroke="none"/>
    </g>
    <g text-rendering="geometricPrecision" stroke-miterlimit="1.45" shape-rendering="geometricPrecision" font-family="sans-serif" transform="matrix(1,0,0,1,-394,-362)" stroke-linecap="butt">
      <text x="546.751" xml:space="preserve" y="700.4876" clip-path="url(#clipPath2)" stroke="none">pron</text>
      <rect fill="none" x="545.5" width="30" height="30" y="681.3333" clip-path="url(#clipPath2)"/>
    </g>
    <g fill="white" text-rendering="geometricPrecision" shape-rendering="geometricPrecision" transform="matrix(1,0,0,1,-394,-362)" stroke="white">
      <rect x="595.5" width="30" height="30" y="681.3333" clip-path="url(#clipPath2)" stroke="none"/>
    </g>
    <g text-rendering="geometricPrecision" stroke-miterlimit="1.45" shape-rendering="geometricPrecision" transform="matrix(1,0,0,1,-394,-362)" stroke-linecap="butt">
      <rect fill="none" x="595.5" width="30" height="30" y="681.3333" clip-path="url(#clipPath2)"/>
    </g>
    <g fill="white" text-rendering="geometricPrecision" shape-rendering="geometricPrecision" transform="matrix(1,0,0,1,-394,-362)" stroke="white">
      <rect x="645.5" width="30" height="30" y="681.3333" clip-path="url(#clipPath2)" stroke="none"/>
    </g>
    <g text-rendering="geometricPrecision" stroke-miterlimit="1.45" shape-rendering="geometricPrecision" transform="matrix(1,0,0,1,-394,-362)" stroke-linecap="butt">
      <rect fill="none" x="645.5" width="30" height="30" y="681.3333" clip-path="url(#clipPath2)"/>
    </g>
    <g fill="white" text-rendering="geometricPrecision" shape-rendering="geometricPrecision" transform="matrix(1,0,0,1,-394,-362)" stroke="white">
      <rect x="695.5" width="30" height="30" y="681.3333" clip-path="url(#clipPath2)" stroke="none"/>
    </g>
    <g text-rendering="geometricPrecision" stroke-miterlimit="1.45" shape-rendering="geometricPrecision" transform="matrix(1,0,0,1,-394,-362)" stroke-linecap="butt">
      <rect fill="none" x="695.5" width="30" height="30" y="681.3333" clip-path="url(#clipPath2)"/>
    </g>
    <g fill="white" text-rendering="geometricPrecision" shape-rendering="geometricPrecision" transform="matrix(1,0,0,1,-394,-362)" stroke="white">
      <rect x="545.5" width="180" height="30" y="429.3333" clip-path="url(#clipPath2)" stroke="none"/>
    </g>
    <g text-rendering="geometricPrecision" stroke-miterlimit="1.45" shape-rendering="geometricPrecision" font-family="sans-serif" transform="matrix(1,0,0,1,-394,-362)" stroke-linecap="butt">
      <text x="610.3896" xml:space="preserve" y="448.4876" clip-path="url(#clipPath2)" stroke="none">Step 3.1</text>
      <rect fill="none" x="545.5" width="180" height="30" y="429.3333" clip-path="url(#clipPath2)"/>
    </g>
    <g fill="white" text-rendering="geometricPrecision" shape-rendering="geometricPrecision" transform="matrix(1,0,0,1,-394,-362)" stroke="white">
      <rect x="409" width="453" height="30" y="377.3333" clip-path="url(#clipPath2)" stroke="none"/>
    </g>
    <g text-rendering="geometricPrecision" stroke-miterlimit="1.45" shape-rendering="geometricPrecision" font-family="sans-serif" transform="matrix(1,0,0,1,-394,-362)" stroke-linecap="butt">
      <text x="431.4326" xml:space="preserve" y="396.4876" clip-path="url(#clipPath2)" stroke="none">CKY of "I am a Function" - Second Permutation: Pron Verb Det Noun</text>
      <rect fill="none" x="409" width="453" height="30" y="377.3333" clip-path="url(#clipPath2)"/>
    </g>
    <g fill="white" text-rendering="geometricPrecision" shape-rendering="geometricPrecision" transform="matrix(1,0,0,1,-394,-362)" stroke="white">
      <rect x="409" width="453" height="30" y="731.3333" clip-path="url(#clipPath2)" stroke="none"/>
    </g>
    <g text-rendering="geometricPrecision" stroke-miterlimit="1.45" shape-rendering="geometricPrecision" font-family="sans-serif" transform="matrix(1,0,0,1,-394,-362)" stroke-linecap="butt">
      <text x="607.0703" xml:space="preserve" y="750.4876" clip-path="url(#clipPath2)" stroke="none">Figure 22</text>
      <rect fill="none" x="409" width="453" height="30" y="731.3333" clip-path="url(#clipPath2)"/>
      <path fill="none" d="M645.5 496.3333 L633.5 496.3333" clip-path="url(#clipPath2)"/>
      <path d="M625.5 496.3333 L637.5 501.3333 L634.5 496.3333 L637.5 491.3333 Z" clip-path="url(#clipPath2)" stroke="none"/>
      <path fill="none" d="M695.5 496.3333 L683.5 496.3333" clip-path="url(#clipPath2)"/>
      <path d="M675.5 496.3333 L687.5 501.3333 L684.5 496.3333 L687.5 491.3333 Z" clip-path="url(#clipPath2)" stroke="none"/>
    </g>
    <g text-rendering="geometricPrecision" stroke-miterlimit="1.45" shape-rendering="geometricPrecision" transform="matrix(1,0,0,1,-394,-362)" stroke-linecap="butt">
      <path fill="none" d="M610.5 511.3333 L604.25 526.3333 L609 523.4833 L609 531.3333 L612 531.3333 L612 523.4833 L616.75 526.3333 L610.5 511.3333 Z" clip-path="url(#clipPath2)"/>
    </g>
    <g text-rendering="geometricPrecision" stroke-miterlimit="1.45" shape-rendering="geometricPrecision" transform="matrix(1,0,0,1,-394,-362)" stroke-linecap="butt">
      <path fill="none" d="M660.5 531.3333 L660.5 519.3333" clip-path="url(#clipPath2)"/>
      <path d="M660.5 511.3333 L655.5 523.3333 L660.5 520.3333 L665.5 523.3333 Z" clip-path="url(#clipPath2)" stroke="none"/>
      <path fill="none" d="M710.5 531.3333 L710.5 519.3333" clip-path="url(#clipPath2)"/>
      <path d="M710.5 511.3333 L705.5 523.3333 L710.5 520.3333 L715.5 523.3333 Z" clip-path="url(#clipPath2)" stroke="none"/>
    </g>
    <g text-rendering="geometricPrecision" stroke-miterlimit="1.45" shape-rendering="geometricPrecision" transform="matrix(1,0,0,1,-394,-362)" stroke-linecap="butt">
      <path fill="none" d="M560.5 561.3333 L554.25 576.3333 L559 573.4833 L559 581.3333 L562 581.3333 L562 573.4833 L566.75 576.3333 L560.5 561.3333 Z" clip-path="url(#clipPath2)"/>
    </g>
    <g text-rendering="geometricPrecision" stroke-miterlimit="1.45" shape-rendering="geometricPrecision" transform="matrix(1,0,0,1,-394,-362)" stroke-linecap="butt">
      <path fill="none" d="M610.5 561.3333 L604.25 576.3333 L609 573.4833 L609 581.3333 L612 581.3333 L612 573.4833 L616.75 576.3333 L610.5 561.3333 Z" clip-path="url(#clipPath2)"/>
    </g>
    <g text-rendering="geometricPrecision" stroke-miterlimit="1.45" shape-rendering="geometricPrecision" transform="matrix(1,0,0,1,-394,-362)" stroke-linecap="butt">
      <path fill="none" d="M660.5 561.3333 L654.25 576.3333 L659 573.4833 L659 581.3333 L662 581.3333 L662 573.4833 L666.75 576.3333 L660.5 561.3333 Z" clip-path="url(#clipPath2)"/>
    </g>
    <g text-rendering="geometricPrecision" stroke-miterlimit="1.45" shape-rendering="geometricPrecision" transform="matrix(1,0,0,1,-394,-362)" stroke-linecap="butt">
      <path fill="none" d="M560.5 611.3333 L554.25 626.3333 L559 623.4833 L559 631.3333 L562 631.3333 L562 623.4833 L566.75 626.3333 L560.5 611.3333 Z" clip-path="url(#clipPath2)"/>
    </g>
    <g text-rendering="geometricPrecision" stroke-miterlimit="1.45" shape-rendering="geometricPrecision" transform="matrix(1,0,0,1,-394,-362)" stroke-linecap="butt">
      <path fill="none" d="M610.5 631.3333 L610.5 619.3333" clip-path="url(#clipPath2)"/>
      <path d="M610.5 611.3333 L605.5 623.3333 L610.5 620.3333 L615.5 623.3333 Z" clip-path="url(#clipPath2)" stroke="none"/>
      <path fill="none" d="M560.5 681.3333 L560.5 669.3333" clip-path="url(#clipPath2)"/>
      <path d="M560.5 661.3333 L555.5 673.3333 L560.5 670.3333 L565.5 673.3333 Z" clip-path="url(#clipPath2)" stroke="none"/>
    </g>
  </g>
</svg>
