<?xml version="1.0" encoding="UTF-8"?><svg xmlns="http://www.w3.org/2000/svg" xmlns:xlink="http://www.w3.org/1999/xlink" fill-opacity="1" color-rendering="auto" color-interpolation="auto" text-rendering="auto" stroke="black" stroke-linecap="square" width="483" stroke-miterlimit="10" shape-rendering="auto" stroke-opacity="1" fill="black" stroke-dasharray="none" font-weight="normal" stroke-width="1" height="414" font-family="'Dialog'" font-style="normal" stroke-linejoin="miter" font-size="12px" stroke-dashoffset="0" image-rendering="auto">
  <!--Generated by ySVG 2.5-->
  <defs id="genericDefs"/>
  <g>
    <defs id="defs1">
      <clipPath clipPathUnits="userSpaceOnUse" id="clipPath1">
        <path d="M0 0 L483 0 L483 414 L0 414 L0 0 Z"/>
      </clipPath>
      <clipPath clipPathUnits="userSpaceOnUse" id="clipPath2">
        <path d="M569 537 L1052 537 L1052 951 L569 951 L569 537 Z"/>
      </clipPath>
    </defs>
    <g fill="white" text-rendering="geometricPrecision" shape-rendering="geometricPrecision" transform="translate(-569,-537)" stroke="white">
      <rect x="569" width="483" height="414" y="537" clip-path="url(#clipPath2)" stroke="none"/>
    </g>
    <g fill="white" text-rendering="geometricPrecision" shape-rendering="geometricPrecision" transform="matrix(1,0,0,1,-569,-537)" stroke="white">
      <rect x="720.5" width="30" height="30" y="656" clip-path="url(#clipPath2)" stroke="none"/>
    </g>
    <g text-rendering="geometricPrecision" stroke-miterlimit="1.45" shape-rendering="geometricPrecision" transform="matrix(1,0,0,1,-569,-537)" stroke-linecap="butt">
      <rect fill="none" x="720.5" width="30" height="30" y="656" clip-path="url(#clipPath2)"/>
    </g>
    <g fill="white" text-rendering="geometricPrecision" shape-rendering="geometricPrecision" transform="matrix(1,0,0,1,-569,-537)" stroke="white">
      <rect x="770.5" width="30" height="30" y="656" clip-path="url(#clipPath2)" stroke="none"/>
    </g>
    <g text-rendering="geometricPrecision" stroke-miterlimit="1.45" shape-rendering="geometricPrecision" transform="matrix(1,0,0,1,-569,-537)" stroke-linecap="butt">
      <rect fill="none" x="770.5" width="30" height="30" y="656" clip-path="url(#clipPath2)"/>
    </g>
    <g fill="white" text-rendering="geometricPrecision" shape-rendering="geometricPrecision" transform="matrix(1,0,0,1,-569,-537)" stroke="white">
      <rect x="820.5" width="30" height="30" y="656" clip-path="url(#clipPath2)" stroke="none"/>
    </g>
    <g text-rendering="geometricPrecision" stroke-miterlimit="1.45" shape-rendering="geometricPrecision" transform="matrix(1,0,0,1,-569,-537)" stroke-linecap="butt">
      <rect fill="none" x="820.5" width="30" height="30" y="656" clip-path="url(#clipPath2)"/>
    </g>
    <g fill="white" text-rendering="geometricPrecision" shape-rendering="geometricPrecision" transform="matrix(1,0,0,1,-569,-537)" stroke="white">
      <rect x="870.5" width="30" height="30" y="656" clip-path="url(#clipPath2)" stroke="none"/>
    </g>
    <g text-rendering="geometricPrecision" stroke-miterlimit="1.45" shape-rendering="geometricPrecision" transform="matrix(1,0,0,1,-569,-537)" stroke-linecap="butt">
      <rect fill="none" x="870.5" width="30" height="30" y="656" clip-path="url(#clipPath2)"/>
    </g>
    <g fill="white" text-rendering="geometricPrecision" shape-rendering="geometricPrecision" transform="matrix(1,0,0,1,-569,-537)" stroke="white">
      <rect x="720.5" width="30" height="30" y="706" clip-path="url(#clipPath2)" stroke="none"/>
    </g>
    <g text-rendering="geometricPrecision" stroke-miterlimit="1.45" shape-rendering="geometricPrecision" transform="matrix(1,0,0,1,-569,-537)" stroke-linecap="butt">
      <rect fill="none" x="720.5" width="30" height="30" y="706" clip-path="url(#clipPath2)"/>
    </g>
    <g fill="white" text-rendering="geometricPrecision" shape-rendering="geometricPrecision" transform="matrix(1,0,0,1,-569,-537)" stroke="white">
      <rect x="770.5" width="30" height="30" y="706" clip-path="url(#clipPath2)" stroke="none"/>
    </g>
    <g text-rendering="geometricPrecision" stroke-miterlimit="1.45" shape-rendering="geometricPrecision" transform="matrix(1,0,0,1,-569,-537)" stroke-linecap="butt">
      <rect fill="none" x="770.5" width="30" height="30" y="706" clip-path="url(#clipPath2)"/>
    </g>
    <g fill="white" text-rendering="geometricPrecision" shape-rendering="geometricPrecision" transform="matrix(1,0,0,1,-569,-537)" stroke="white">
      <rect x="820.5" width="30" height="30" y="706" clip-path="url(#clipPath2)" stroke="none"/>
    </g>
    <g text-rendering="geometricPrecision" stroke-miterlimit="1.45" shape-rendering="geometricPrecision" transform="matrix(1,0,0,1,-569,-537)" stroke-linecap="butt">
      <rect fill="none" x="820.5" width="30" height="30" y="706" clip-path="url(#clipPath2)"/>
    </g>
    <g fill="white" text-rendering="geometricPrecision" shape-rendering="geometricPrecision" transform="matrix(1,0,0,1,-569,-537)" stroke="white">
      <rect x="870.5" width="30" height="30" y="706" clip-path="url(#clipPath2)" stroke="none"/>
    </g>
    <g text-rendering="geometricPrecision" stroke-miterlimit="1.45" shape-rendering="geometricPrecision" font-family="sans-serif" transform="matrix(1,0,0,1,-569,-537)" stroke-linecap="butt">
      <text x="870.4209" xml:space="preserve" y="725.1543" clip-path="url(#clipPath2)" stroke="none">noun</text>
      <rect fill="none" x="870.5" width="30" height="30" y="706" clip-path="url(#clipPath2)"/>
    </g>
    <g fill="white" text-rendering="geometricPrecision" shape-rendering="geometricPrecision" transform="matrix(1,0,0,1,-569,-537)" stroke="white">
      <rect x="720.5" width="30" height="30" y="756" clip-path="url(#clipPath2)" stroke="none"/>
    </g>
    <g text-rendering="geometricPrecision" stroke-miterlimit="1.45" shape-rendering="geometricPrecision" transform="matrix(1,0,0,1,-569,-537)" stroke-linecap="butt">
      <rect fill="none" x="720.5" width="30" height="30" y="756" clip-path="url(#clipPath2)"/>
    </g>
    <g fill="white" text-rendering="geometricPrecision" shape-rendering="geometricPrecision" transform="matrix(1,0,0,1,-569,-537)" stroke="white">
      <rect x="770.5" width="30" height="30" y="756" clip-path="url(#clipPath2)" stroke="none"/>
    </g>
    <g text-rendering="geometricPrecision" stroke-miterlimit="1.45" shape-rendering="geometricPrecision" font-family="sans-serif" transform="matrix(1,0,0,1,-569,-537)" stroke-linecap="butt">
      <text x="778.1406" xml:space="preserve" y="775.1543" clip-path="url(#clipPath2)" stroke="none">vp</text>
      <rect fill="none" x="770.5" width="30" height="30" y="756" clip-path="url(#clipPath2)"/>
    </g>
    <g fill="white" text-rendering="geometricPrecision" shape-rendering="geometricPrecision" transform="matrix(1,0,0,1,-569,-537)" stroke="white">
      <rect x="820.5" width="30" height="30" y="756" clip-path="url(#clipPath2)" stroke="none"/>
    </g>
    <g text-rendering="geometricPrecision" stroke-miterlimit="1.45" shape-rendering="geometricPrecision" font-family="sans-serif" transform="matrix(1,0,0,1,-569,-537)" stroke-linecap="butt">
      <text x="825.6475" xml:space="preserve" y="775.1543" clip-path="url(#clipPath2)" stroke="none">det</text>
      <rect fill="none" x="820.5" width="30" height="30" y="756" clip-path="url(#clipPath2)"/>
    </g>
    <g fill="white" text-rendering="geometricPrecision" shape-rendering="geometricPrecision" transform="matrix(1,0,0,1,-569,-537)" stroke="white">
      <rect x="870.5" width="30" height="30" y="756" clip-path="url(#clipPath2)" stroke="none"/>
    </g>
    <g text-rendering="geometricPrecision" stroke-miterlimit="1.45" shape-rendering="geometricPrecision" transform="matrix(1,0,0,1,-569,-537)" stroke-linecap="butt">
      <rect fill="none" x="870.5" width="30" height="30" y="756" clip-path="url(#clipPath2)"/>
    </g>
    <g fill="white" text-rendering="geometricPrecision" shape-rendering="geometricPrecision" transform="matrix(1,0,0,1,-569,-537)" stroke="white">
      <rect x="720.5" width="30" height="30" y="806" clip-path="url(#clipPath2)" stroke="none"/>
    </g>
    <g text-rendering="geometricPrecision" stroke-miterlimit="1.45" shape-rendering="geometricPrecision" font-family="sans-serif" transform="matrix(1,0,0,1,-569,-537)" stroke-linecap="butt">
      <text x="727.8887" xml:space="preserve" y="825.1543" clip-path="url(#clipPath2)" stroke="none">np</text>
      <rect fill="none" x="720.5" width="30" height="30" y="806" clip-path="url(#clipPath2)"/>
    </g>
    <g fill="white" text-rendering="geometricPrecision" shape-rendering="geometricPrecision" transform="matrix(1,0,0,1,-569,-537)" stroke="white">
      <rect x="770.5" width="30" height="30" y="806" clip-path="url(#clipPath2)" stroke="none"/>
    </g>
    <g text-rendering="geometricPrecision" stroke-miterlimit="1.45" shape-rendering="geometricPrecision" font-family="sans-serif" transform="matrix(1,0,0,1,-569,-537)" stroke-linecap="butt">
      <text x="771.9824" xml:space="preserve" y="825.1543" clip-path="url(#clipPath2)" stroke="none">verb</text>
      <rect fill="none" x="770.5" width="30" height="30" y="806" clip-path="url(#clipPath2)"/>
    </g>
    <g fill="white" text-rendering="geometricPrecision" shape-rendering="geometricPrecision" transform="matrix(1,0,0,1,-569,-537)" stroke="white">
      <rect x="820.5" width="30" height="30" y="806" clip-path="url(#clipPath2)" stroke="none"/>
    </g>
    <g text-rendering="geometricPrecision" stroke-miterlimit="1.45" shape-rendering="geometricPrecision" transform="matrix(1,0,0,1,-569,-537)" stroke-linecap="butt">
      <rect fill="none" x="820.5" width="30" height="30" y="806" clip-path="url(#clipPath2)"/>
    </g>
    <g fill="white" text-rendering="geometricPrecision" shape-rendering="geometricPrecision" transform="matrix(1,0,0,1,-569,-537)" stroke="white">
      <rect x="870.5" width="30" height="30" y="806" clip-path="url(#clipPath2)" stroke="none"/>
    </g>
    <g text-rendering="geometricPrecision" stroke-miterlimit="1.45" shape-rendering="geometricPrecision" transform="matrix(1,0,0,1,-569,-537)" stroke-linecap="butt">
      <rect fill="none" x="870.5" width="30" height="30" y="806" clip-path="url(#clipPath2)"/>
    </g>
    <g fill="white" text-rendering="geometricPrecision" shape-rendering="geometricPrecision" transform="matrix(1,0,0,1,-569,-537)" stroke="white">
      <rect x="720.5" width="30" height="30" y="856" clip-path="url(#clipPath2)" stroke="none"/>
    </g>
    <g text-rendering="geometricPrecision" stroke-miterlimit="1.45" shape-rendering="geometricPrecision" font-family="sans-serif" transform="matrix(1,0,0,1,-569,-537)" stroke-linecap="butt">
      <text x="721.751" xml:space="preserve" y="875.1543" clip-path="url(#clipPath2)" stroke="none">pron</text>
      <rect fill="none" x="720.5" width="30" height="30" y="856" clip-path="url(#clipPath2)"/>
    </g>
    <g fill="white" text-rendering="geometricPrecision" shape-rendering="geometricPrecision" transform="matrix(1,0,0,1,-569,-537)" stroke="white">
      <rect x="770.5" width="30" height="30" y="856" clip-path="url(#clipPath2)" stroke="none"/>
    </g>
    <g text-rendering="geometricPrecision" stroke-miterlimit="1.45" shape-rendering="geometricPrecision" transform="matrix(1,0,0,1,-569,-537)" stroke-linecap="butt">
      <rect fill="none" x="770.5" width="30" height="30" y="856" clip-path="url(#clipPath2)"/>
    </g>
    <g fill="white" text-rendering="geometricPrecision" shape-rendering="geometricPrecision" transform="matrix(1,0,0,1,-569,-537)" stroke="white">
      <rect x="820.5" width="30" height="30" y="856" clip-path="url(#clipPath2)" stroke="none"/>
    </g>
    <g text-rendering="geometricPrecision" stroke-miterlimit="1.45" shape-rendering="geometricPrecision" transform="matrix(1,0,0,1,-569,-537)" stroke-linecap="butt">
      <rect fill="none" x="820.5" width="30" height="30" y="856" clip-path="url(#clipPath2)"/>
    </g>
    <g fill="white" text-rendering="geometricPrecision" shape-rendering="geometricPrecision" transform="matrix(1,0,0,1,-569,-537)" stroke="white">
      <rect x="870.5" width="30" height="30" y="856" clip-path="url(#clipPath2)" stroke="none"/>
    </g>
    <g text-rendering="geometricPrecision" stroke-miterlimit="1.45" shape-rendering="geometricPrecision" transform="matrix(1,0,0,1,-569,-537)" stroke-linecap="butt">
      <rect fill="none" x="870.5" width="30" height="30" y="856" clip-path="url(#clipPath2)"/>
    </g>
    <g fill="white" text-rendering="geometricPrecision" shape-rendering="geometricPrecision" transform="matrix(1,0,0,1,-569,-537)" stroke="white">
      <rect x="720.5" width="180" height="30" y="604" clip-path="url(#clipPath2)" stroke="none"/>
    </g>
    <g text-rendering="geometricPrecision" stroke-miterlimit="1.45" shape-rendering="geometricPrecision" font-family="sans-serif" transform="matrix(1,0,0,1,-569,-537)" stroke-linecap="butt">
      <text x="785.3896" xml:space="preserve" y="623.1543" clip-path="url(#clipPath2)" stroke="none">Step 1.1</text>
      <rect fill="none" x="720.5" width="180" height="30" y="604" clip-path="url(#clipPath2)"/>
    </g>
    <g fill="white" text-rendering="geometricPrecision" shape-rendering="geometricPrecision" transform="matrix(1,0,0,1,-569,-537)" stroke="white">
      <rect x="584" width="453" height="30" y="906" clip-path="url(#clipPath2)" stroke="none"/>
    </g>
    <g text-rendering="geometricPrecision" stroke-miterlimit="1.45" shape-rendering="geometricPrecision" font-family="sans-serif" transform="matrix(1,0,0,1,-569,-537)" stroke-linecap="butt">
      <text x="782.0703" xml:space="preserve" y="925.1543" clip-path="url(#clipPath2)" stroke="none">Figure 15</text>
      <rect fill="none" x="584" width="453" height="30" y="906" clip-path="url(#clipPath2)"/>
    </g>
    <g fill="white" text-rendering="geometricPrecision" shape-rendering="geometricPrecision" transform="matrix(1,0,0,1,-569,-537)" stroke="white">
      <rect x="584" width="453" height="30" y="552" clip-path="url(#clipPath2)" stroke="none"/>
    </g>
    <g text-rendering="geometricPrecision" stroke-miterlimit="1.45" shape-rendering="geometricPrecision" font-family="sans-serif" transform="matrix(1,0,0,1,-569,-537)" stroke-linecap="butt">
      <text x="606.4326" xml:space="preserve" y="571.1543" clip-path="url(#clipPath2)" stroke="none">CKY of "I am a Function" - Second Permutation: Pron Verb Det Noun</text>
      <rect fill="none" x="584" width="453" height="30" y="552" clip-path="url(#clipPath2)"/>
      <path fill="none" d="M785.5 806 L785.5 794" clip-path="url(#clipPath2)"/>
      <path d="M785.5 786 L780.5 798 L785.5 795 L790.5 798 Z" clip-path="url(#clipPath2)" stroke="none"/>
      <path fill="none" d="M735.5 856 L735.5 844" clip-path="url(#clipPath2)"/>
      <path d="M735.5 836 L730.5 848 L735.5 845 L740.5 848 Z" clip-path="url(#clipPath2)" stroke="none"/>
    </g>
  </g>
</svg>
