<?xml version="1.0" encoding="UTF-8"?><svg xmlns="http://www.w3.org/2000/svg" xmlns:xlink="http://www.w3.org/1999/xlink" fill-opacity="1" color-rendering="auto" color-interpolation="auto" text-rendering="auto" stroke="black" stroke-linecap="square" width="704" stroke-miterlimit="10" shape-rendering="auto" stroke-opacity="1" fill="black" stroke-dasharray="none" font-weight="normal" stroke-width="1" height="314" font-family="'Dialog'" font-style="normal" stroke-linejoin="miter" font-size="12px" stroke-dashoffset="0" image-rendering="auto">
  <!--Generated by ySVG 2.5-->
  <defs id="genericDefs"/>
  <g>
    <defs id="defs1">
      <clipPath clipPathUnits="userSpaceOnUse" id="clipPath1">
        <path d="M0 0 L704 0 L704 314 L0 314 L0 0 Z"/>
      </clipPath>
      <clipPath clipPathUnits="userSpaceOnUse" id="clipPath2">
        <path d="M430 314 L1134 314 L1134 628 L430 628 L430 314 Z"/>
      </clipPath>
    </defs>
    <g fill="white" text-rendering="geometricPrecision" shape-rendering="geometricPrecision" transform="translate(-430,-314)" stroke="white">
      <rect x="430" width="704" height="314" y="314" clip-path="url(#clipPath2)" stroke="none"/>
    </g>
    <g font-size="15px" stroke-linecap="butt" transform="matrix(1,0,0,1,-430,-314)" text-rendering="geometricPrecision" font-family="sans-serif" shape-rendering="geometricPrecision" stroke-miterlimit="1.45">
      <text x="701.9218" xml:space="preserve" y="405.0245" clip-path="url(#clipPath2)" stroke="none">Iteration #4</text>
      <rect x="445.4272" y="389.1011" clip-path="url(#clipPath2)" fill="none" width="349" stroke-dasharray="6,2" rx="4" ry="4" height="171.4609"/>
    </g>
    <g fill="white" text-rendering="geometricPrecision" shape-rendering="geometricPrecision" transform="matrix(1,0,0,1,-430,-314)" stroke="white">
      <rect x="708.4272" width="71" height="30" y="425.5621" clip-path="url(#clipPath2)" stroke="none"/>
    </g>
    <g text-rendering="geometricPrecision" stroke-miterlimit="1.45" shape-rendering="geometricPrecision" font-family="sans-serif" transform="matrix(1,0,0,1,-430,-314)" stroke-linecap="butt">
      <text x="732.9877" xml:space="preserve" y="444.7164" clip-path="url(#clipPath2)" stroke="none">null</text>
      <rect fill="none" x="708.4272" width="71" height="30" y="425.5621" clip-path="url(#clipPath2)"/>
    </g>
    <g fill="white" text-rendering="geometricPrecision" shape-rendering="geometricPrecision" transform="matrix(1,0,0,1,-430,-314)" stroke="white">
      <rect x="637.4272" width="71" height="30" y="425.5621" clip-path="url(#clipPath2)" stroke="none"/>
    </g>
    <g text-rendering="geometricPrecision" stroke-miterlimit="1.45" shape-rendering="geometricPrecision" font-family="sans-serif" transform="matrix(1,0,0,1,-430,-314)" stroke-linecap="butt">
      <text x="661.9877" xml:space="preserve" y="444.7164" clip-path="url(#clipPath2)" stroke="none">null</text>
      <rect fill="none" x="637.4272" width="71" height="30" y="425.5621" clip-path="url(#clipPath2)"/>
    </g>
    <g transform="matrix(1,0,0,1,-430,-314)" fill-opacity="0.0588" fill="rgb(0,0,0)" text-rendering="geometricPrecision" shape-rendering="geometricPrecision" stroke="rgb(0,0,0)" stroke-opacity="0.0588">
      <rect x="566.4272" width="71" height="30" y="425.5621" clip-path="url(#clipPath2)" stroke="none"/>
    </g>
    <g stroke-linecap="butt" transform="matrix(1,0,0,1,-430,-314)" text-rendering="geometricPrecision" font-family="sans-serif" shape-rendering="geometricPrecision" font-style="italic" font-weight="bold" stroke-miterlimit="1.45">
      <text x="586.2797" xml:space="preserve" y="444.7164" clip-path="url(#clipPath2)" stroke="none">pron</text>
      <rect fill="none" x="566.4272" width="71" height="30" y="425.5621" clip-path="url(#clipPath2)"/>
    </g>
    <g fill="white" text-rendering="geometricPrecision" shape-rendering="geometricPrecision" transform="matrix(1,0,0,1,-430,-314)" stroke="white">
      <rect x="460.4272" width="71" height="30" y="425.5621" clip-path="url(#clipPath2)" stroke="none"/>
    </g>
    <g text-rendering="geometricPrecision" stroke-miterlimit="1.45" shape-rendering="geometricPrecision" font-family="sans-serif" transform="matrix(1,0,0,1,-430,-314)" stroke-linecap="butt">
      <text x="494.1576" xml:space="preserve" y="444.7164" clip-path="url(#clipPath2)" stroke="none">I</text>
      <rect fill="none" x="460.4272" width="71" height="30" y="425.5621" clip-path="url(#clipPath2)"/>
    </g>
    <g fill="white" text-rendering="geometricPrecision" shape-rendering="geometricPrecision" transform="matrix(1,0,0,1,-430,-314)" stroke="white">
      <rect x="708.4272" width="71" height="30" y="455.5621" clip-path="url(#clipPath2)" stroke="none"/>
    </g>
    <g text-rendering="geometricPrecision" stroke-miterlimit="1.45" shape-rendering="geometricPrecision" font-family="sans-serif" transform="matrix(1,0,0,1,-430,-314)" stroke-linecap="butt">
      <text x="732.9877" xml:space="preserve" y="474.7164" clip-path="url(#clipPath2)" stroke="none">null</text>
      <rect fill="none" x="708.4272" width="71" height="30" y="455.5621" clip-path="url(#clipPath2)"/>
    </g>
    <g fill="white" text-rendering="geometricPrecision" shape-rendering="geometricPrecision" transform="matrix(1,0,0,1,-430,-314)" stroke="white">
      <rect x="637.4272" width="71" height="30" y="455.5621" clip-path="url(#clipPath2)" stroke="none"/>
    </g>
    <g text-rendering="geometricPrecision" stroke-miterlimit="1.45" shape-rendering="geometricPrecision" font-family="sans-serif" transform="matrix(1,0,0,1,-430,-314)" stroke-linecap="butt">
      <text x="661.9877" xml:space="preserve" y="474.7164" clip-path="url(#clipPath2)" stroke="none">null</text>
      <rect fill="none" x="637.4272" width="71" height="30" y="455.5621" clip-path="url(#clipPath2)"/>
    </g>
    <g transform="matrix(1,0,0,1,-430,-314)" fill-opacity="0.0588" fill="rgb(0,0,0)" text-rendering="geometricPrecision" shape-rendering="geometricPrecision" stroke="rgb(0,0,0)" stroke-opacity="0.0588">
      <rect x="566.4272" width="71" height="30" y="455.5621" clip-path="url(#clipPath2)" stroke="none"/>
    </g>
    <g stroke-linecap="butt" transform="matrix(1,0,0,1,-430,-314)" text-rendering="geometricPrecision" font-family="sans-serif" shape-rendering="geometricPrecision" font-style="italic" font-weight="bold" stroke-miterlimit="1.45">
      <text x="586.6928" xml:space="preserve" y="474.7164" clip-path="url(#clipPath2)" stroke="none">verb</text>
      <rect fill="none" x="566.4272" width="71" height="30" y="455.5621" clip-path="url(#clipPath2)"/>
    </g>
    <g fill="white" text-rendering="geometricPrecision" shape-rendering="geometricPrecision" transform="matrix(1,0,0,1,-430,-314)" stroke="white">
      <rect x="460.4272" width="71" height="30" y="455.5621" clip-path="url(#clipPath2)" stroke="none"/>
    </g>
    <g text-rendering="geometricPrecision" stroke-miterlimit="1.45" shape-rendering="geometricPrecision" font-family="sans-serif" transform="matrix(1,0,0,1,-430,-314)" stroke-linecap="butt">
      <text x="485.9779" xml:space="preserve" y="474.7164" clip-path="url(#clipPath2)" stroke="none">Am</text>
      <rect fill="none" x="460.4272" width="71" height="30" y="455.5621" clip-path="url(#clipPath2)"/>
    </g>
    <g fill="white" text-rendering="geometricPrecision" shape-rendering="geometricPrecision" transform="matrix(1,0,0,1,-430,-314)" stroke="white">
      <rect x="708.4272" width="71" height="30" y="485.5621" clip-path="url(#clipPath2)" stroke="none"/>
    </g>
    <g text-rendering="geometricPrecision" stroke-miterlimit="1.45" shape-rendering="geometricPrecision" font-family="sans-serif" transform="matrix(1,0,0,1,-430,-314)" stroke-linecap="butt">
      <text x="732.9877" xml:space="preserve" y="504.7164" clip-path="url(#clipPath2)" stroke="none">null</text>
      <rect fill="none" x="708.4272" width="71" height="30" y="485.5621" clip-path="url(#clipPath2)"/>
    </g>
    <g transform="matrix(1,0,0,1,-430,-314)" fill-opacity="0.0588" fill="rgb(0,0,0)" text-rendering="geometricPrecision" shape-rendering="geometricPrecision" stroke="rgb(0,0,0)" stroke-opacity="0.0588">
      <rect x="637.4272" width="71" height="30" y="485.5621" clip-path="url(#clipPath2)" stroke="none"/>
    </g>
    <g stroke-linecap="butt" transform="matrix(1,0,0,1,-430,-314)" text-rendering="geometricPrecision" font-family="sans-serif" shape-rendering="geometricPrecision" font-style="italic" font-weight="bold" stroke-miterlimit="1.45">
      <text x="660.2709" xml:space="preserve" y="504.7164" clip-path="url(#clipPath2)" stroke="none">null</text>
      <rect fill="none" x="637.4272" width="71" height="30" y="485.5621" clip-path="url(#clipPath2)"/>
      <text x="592.0746" y="504.7164" clip-path="url(#clipPath2)" font-style="normal" stroke="none" font-weight="normal" xml:space="preserve">det</text>
      <rect fill="none" x="566.4272" width="71" height="30" y="485.5621" clip-path="url(#clipPath2)"/>
    </g>
    <g fill="white" text-rendering="geometricPrecision" shape-rendering="geometricPrecision" transform="matrix(1,0,0,1,-430,-314)" stroke="white">
      <rect x="460.4272" width="71" height="30" y="485.5621" clip-path="url(#clipPath2)" stroke="none"/>
    </g>
    <g text-rendering="geometricPrecision" stroke-miterlimit="1.45" shape-rendering="geometricPrecision" font-family="sans-serif" transform="matrix(1,0,0,1,-430,-314)" stroke-linecap="butt">
      <text x="491.8227" xml:space="preserve" y="504.7164" clip-path="url(#clipPath2)" stroke="none">A</text>
      <rect fill="none" x="460.4272" width="71" height="30" y="485.5621" clip-path="url(#clipPath2)"/>
      <text x="732.9877" xml:space="preserve" y="534.7164" clip-path="url(#clipPath2)" stroke="none">null</text>
      <rect fill="none" x="708.4272" width="71" height="30" y="515.5621" clip-path="url(#clipPath2)"/>
    </g>
    <g fill="white" text-rendering="geometricPrecision" shape-rendering="geometricPrecision" transform="matrix(1,0,0,1,-430,-314)" stroke="white">
      <rect x="637.4272" width="71" height="30" y="515.5621" clip-path="url(#clipPath2)" stroke="none"/>
    </g>
    <g text-rendering="geometricPrecision" stroke-miterlimit="1.45" shape-rendering="geometricPrecision" font-family="sans-serif" transform="matrix(1,0,0,1,-430,-314)" stroke-linecap="butt">
      <text x="657.8481" xml:space="preserve" y="534.7164" clip-path="url(#clipPath2)" stroke="none">noun</text>
      <rect fill="none" x="637.4272" width="71" height="30" y="515.5621" clip-path="url(#clipPath2)"/>
    </g>
    <g transform="matrix(1,0,0,1,-430,-314)" fill-opacity="0.0588" fill="rgb(0,0,0)" text-rendering="geometricPrecision" shape-rendering="geometricPrecision" stroke="rgb(0,0,0)" stroke-opacity="0.0588">
      <rect x="566.4272" width="71" height="30" y="515.5621" clip-path="url(#clipPath2)" stroke="none"/>
    </g>
    <g stroke-linecap="butt" transform="matrix(1,0,0,1,-430,-314)" text-rendering="geometricPrecision" font-family="sans-serif" shape-rendering="geometricPrecision" font-style="italic" font-weight="bold" stroke-miterlimit="1.45">
      <text x="586.6928" xml:space="preserve" y="534.7164" clip-path="url(#clipPath2)" stroke="none">verb</text>
      <rect fill="none" x="566.4272" width="71" height="30" y="515.5621" clip-path="url(#clipPath2)"/>
    </g>
    <g fill="white" text-rendering="geometricPrecision" shape-rendering="geometricPrecision" transform="matrix(1,0,0,1,-430,-314)" stroke="white">
      <rect x="460.4272" width="71" height="30" y="515.5621" clip-path="url(#clipPath2)" stroke="none"/>
    </g>
    <g text-rendering="geometricPrecision" stroke-miterlimit="1.45" shape-rendering="geometricPrecision" font-family="sans-serif" transform="matrix(1,0,0,1,-430,-314)" stroke-linecap="butt">
      <text x="470.0785" xml:space="preserve" y="534.7164" clip-path="url(#clipPath2)" stroke="none">Function</text>
      <rect fill="none" x="460.4272" width="71" height="30" y="515.5621" clip-path="url(#clipPath2)"/>
    </g>
    <g fill="white" text-rendering="geometricPrecision" shape-rendering="geometricPrecision" transform="matrix(1,0,0,1,-430,-314)" stroke="white">
      <rect x="1046.7588" width="71" height="30" y="459.8316" clip-path="url(#clipPath2)" stroke="none"/>
    </g>
    <g text-rendering="geometricPrecision" stroke-miterlimit="1.45" shape-rendering="geometricPrecision" font-family="sans-serif" transform="matrix(1,0,0,1,-430,-314)" stroke-linecap="butt">
      <text x="1068.7412" xml:space="preserve" y="478.9859" clip-path="url(#clipPath2)" stroke="none">verb</text>
      <rect fill="none" x="1046.7588" width="71" height="30" y="459.8316" clip-path="url(#clipPath2)"/>
    </g>
    <g fill="white" text-rendering="geometricPrecision" shape-rendering="geometricPrecision" transform="matrix(1,0,0,1,-430,-314)" stroke="white">
      <rect x="975.7588" width="71" height="30" y="459.8316" clip-path="url(#clipPath2)" stroke="none"/>
    </g>
    <g text-rendering="geometricPrecision" stroke-miterlimit="1.45" shape-rendering="geometricPrecision" font-family="sans-serif" transform="matrix(1,0,0,1,-430,-314)" stroke-linecap="butt">
      <text x="1000.3193" xml:space="preserve" y="478.9859" clip-path="url(#clipPath2)" stroke="none">null</text>
      <rect fill="none" x="975.7588" width="71" height="30" y="459.8316" clip-path="url(#clipPath2)"/>
    </g>
    <g fill="white" text-rendering="geometricPrecision" shape-rendering="geometricPrecision" transform="matrix(1,0,0,1,-430,-314)" stroke="white">
      <rect x="904.7588" width="71" height="30" y="459.8316" clip-path="url(#clipPath2)" stroke="none"/>
    </g>
    <g text-rendering="geometricPrecision" stroke-miterlimit="1.45" shape-rendering="geometricPrecision" font-family="sans-serif" transform="matrix(1,0,0,1,-430,-314)" stroke-linecap="butt">
      <text x="926.7412" xml:space="preserve" y="478.9859" clip-path="url(#clipPath2)" stroke="none">verb</text>
      <rect fill="none" x="904.7588" width="71" height="30" y="459.8316" clip-path="url(#clipPath2)"/>
    </g>
    <g fill="white" text-rendering="geometricPrecision" shape-rendering="geometricPrecision" transform="matrix(1,0,0,1,-430,-314)" stroke="white">
      <rect x="833.7588" width="71" height="30" y="459.8316" clip-path="url(#clipPath2)" stroke="none"/>
    </g>
    <g text-rendering="geometricPrecision" stroke-miterlimit="1.45" shape-rendering="geometricPrecision" font-family="sans-serif" transform="matrix(1,0,0,1,-430,-314)" stroke-linecap="butt">
      <text x="855.5098" xml:space="preserve" y="478.9859" clip-path="url(#clipPath2)" stroke="none">pron</text>
      <rect fill="none" x="833.7588" width="71" height="30" y="459.8316" clip-path="url(#clipPath2)"/>
    </g>
    <g fill="white" text-rendering="geometricPrecision" shape-rendering="geometricPrecision" transform="matrix(1,0,0,1,-430,-314)" stroke="white">
      <rect x="445.0626" width="672.6962" height="30" y="329.1011" clip-path="url(#clipPath2)" stroke="none"/>
    </g>
    <g text-rendering="geometricPrecision" stroke-miterlimit="1.45" shape-rendering="geometricPrecision" font-family="sans-serif" transform="matrix(1,0,0,1,-430,-314)" stroke-linecap="butt">
      <text x="513.1773" xml:space="preserve" y="348.2554" clip-path="url(#clipPath2)" stroke="none">Apply iterate(), and iterate over tokens to generate permutations of tokenized sentences</text>
      <rect fill="none" x="445.0626" width="672.6962" height="30" y="329.1011" clip-path="url(#clipPath2)"/>
    </g>
    <g fill="white" text-rendering="geometricPrecision" shape-rendering="geometricPrecision" transform="matrix(1,0,0,1,-430,-314)" stroke="white">
      <rect x="445.4272" width="672.6962" height="30" y="582.023" clip-path="url(#clipPath2)" stroke="none"/>
    </g>
    <g text-rendering="geometricPrecision" stroke-miterlimit="1.45" shape-rendering="geometricPrecision" font-family="sans-serif" transform="matrix(1,0,0,1,-430,-314)" stroke-linecap="butt">
      <text x="753.3456" xml:space="preserve" y="601.1773" clip-path="url(#clipPath2)" stroke="none">Figure 43</text>
      <rect fill="none" x="445.4272" width="672.6962" height="30" y="582.023" clip-path="url(#clipPath2)"/>
      <path fill="none" d="M794.4167 474.8316 L825.7588 474.8316" clip-path="url(#clipPath2)"/>
      <path d="M833.7588 474.8316 L821.7588 469.8316 L824.7588 474.8316 L821.7588 479.8316 Z" clip-path="url(#clipPath2)" stroke="none"/>
    </g>
  </g>
</svg>
