<?xml version="1.0" encoding="UTF-8"?><svg xmlns="http://www.w3.org/2000/svg" xmlns:xlink="http://www.w3.org/1999/xlink" fill-opacity="1" color-rendering="auto" color-interpolation="auto" text-rendering="auto" stroke="black" stroke-linecap="square" width="483" stroke-miterlimit="10" shape-rendering="auto" stroke-opacity="1" fill="black" stroke-dasharray="none" font-weight="normal" stroke-width="1" height="415" font-family="'Dialog'" font-style="normal" stroke-linejoin="miter" font-size="12px" stroke-dashoffset="0" image-rendering="auto">
  <!--Generated by ySVG 2.5-->
  <defs id="genericDefs"/>
  <g>
    <defs id="defs1">
      <clipPath clipPathUnits="userSpaceOnUse" id="clipPath1">
        <path d="M0 0 L483 0 L483 415 L0 415 L0 0 Z"/>
      </clipPath>
      <clipPath clipPathUnits="userSpaceOnUse" id="clipPath2">
        <path d="M344 312 L827 312 L827 727 L344 727 L344 312 Z"/>
      </clipPath>
    </defs>
    <g fill="white" text-rendering="geometricPrecision" shape-rendering="geometricPrecision" transform="translate(-344,-312)" stroke="white">
      <rect x="344" width="483" height="415" y="312" clip-path="url(#clipPath2)" stroke="none"/>
    </g>
    <g fill="white" text-rendering="geometricPrecision" shape-rendering="geometricPrecision" transform="matrix(1,0,0,1,-344,-312)" stroke="white">
      <rect x="495.5" width="30" height="30" y="431.3333" clip-path="url(#clipPath2)" stroke="none"/>
    </g>
    <g text-rendering="geometricPrecision" stroke-miterlimit="1.45" shape-rendering="geometricPrecision" transform="matrix(1,0,0,1,-344,-312)" stroke-linecap="butt">
      <rect fill="none" x="495.5" width="30" height="30" y="431.3333" clip-path="url(#clipPath2)"/>
    </g>
    <g fill="white" text-rendering="geometricPrecision" shape-rendering="geometricPrecision" transform="matrix(1,0,0,1,-344,-312)" stroke="white">
      <rect x="545.5" width="30" height="30" y="431.3333" clip-path="url(#clipPath2)" stroke="none"/>
    </g>
    <g text-rendering="geometricPrecision" stroke-miterlimit="1.45" shape-rendering="geometricPrecision" transform="matrix(1,0,0,1,-344,-312)" stroke-linecap="butt">
      <rect fill="none" x="545.5" width="30" height="30" y="431.3333" clip-path="url(#clipPath2)"/>
    </g>
    <g fill="white" text-rendering="geometricPrecision" shape-rendering="geometricPrecision" transform="matrix(1,0,0,1,-344,-312)" stroke="white">
      <rect x="595.5" width="30" height="30" y="431.3333" clip-path="url(#clipPath2)" stroke="none"/>
    </g>
    <g text-rendering="geometricPrecision" stroke-miterlimit="1.45" shape-rendering="geometricPrecision" font-family="sans-serif" transform="matrix(1,0,0,1,-344,-312)" stroke-linecap="butt">
      <text x="602.8887" xml:space="preserve" y="450.4876" clip-path="url(#clipPath2)" stroke="none">np</text>
      <rect fill="none" x="595.5" width="30" height="30" y="431.3333" clip-path="url(#clipPath2)"/>
    </g>
    <g fill="white" text-rendering="geometricPrecision" shape-rendering="geometricPrecision" transform="matrix(1,0,0,1,-344,-312)" stroke="white">
      <rect x="645.5" width="30" height="30" y="431.3333" clip-path="url(#clipPath2)" stroke="none"/>
    </g>
    <g text-rendering="geometricPrecision" stroke-miterlimit="1.45" shape-rendering="geometricPrecision" font-family="sans-serif" transform="matrix(1,0,0,1,-344,-312)" stroke-linecap="butt">
      <text x="647.1816" xml:space="preserve" y="450.4876" clip-path="url(#clipPath2)" stroke="none">nom</text>
      <rect fill="none" x="645.5" width="30" height="30" y="431.3333" clip-path="url(#clipPath2)"/>
    </g>
    <g fill="white" text-rendering="geometricPrecision" shape-rendering="geometricPrecision" transform="matrix(1,0,0,1,-344,-312)" stroke="white">
      <rect x="495.5" width="30" height="30" y="481.3333" clip-path="url(#clipPath2)" stroke="none"/>
    </g>
    <g text-rendering="geometricPrecision" stroke-miterlimit="1.45" shape-rendering="geometricPrecision" transform="matrix(1,0,0,1,-344,-312)" stroke-linecap="butt">
      <rect fill="none" x="495.5" width="30" height="30" y="481.3333" clip-path="url(#clipPath2)"/>
    </g>
    <g fill="white" text-rendering="geometricPrecision" shape-rendering="geometricPrecision" transform="matrix(1,0,0,1,-344,-312)" stroke="white">
      <rect x="545.5" width="30" height="30" y="481.3333" clip-path="url(#clipPath2)" stroke="none"/>
    </g>
    <g text-rendering="geometricPrecision" stroke-miterlimit="1.45" shape-rendering="geometricPrecision" font-family="sans-serif" transform="matrix(1,0,0,1,-344,-312)" stroke-linecap="butt">
      <text x="553.1406" xml:space="preserve" y="500.4876" clip-path="url(#clipPath2)" stroke="none">vp</text>
      <rect fill="none" x="545.5" width="30" height="30" y="481.3333" clip-path="url(#clipPath2)"/>
    </g>
    <g fill="white" text-rendering="geometricPrecision" shape-rendering="geometricPrecision" transform="matrix(1,0,0,1,-344,-312)" stroke="white">
      <rect x="595.5" width="30" height="30" y="481.3333" clip-path="url(#clipPath2)" stroke="none"/>
    </g>
    <g text-rendering="geometricPrecision" stroke-miterlimit="1.45" shape-rendering="geometricPrecision" font-family="sans-serif" transform="matrix(1,0,0,1,-344,-312)" stroke-linecap="butt">
      <text x="600.6475" xml:space="preserve" y="500.4876" clip-path="url(#clipPath2)" stroke="none">det</text>
      <rect fill="none" x="595.5" width="30" height="30" y="481.3333" clip-path="url(#clipPath2)"/>
    </g>
    <g fill="white" text-rendering="geometricPrecision" shape-rendering="geometricPrecision" transform="matrix(1,0,0,1,-344,-312)" stroke="white">
      <rect x="645.5" width="30" height="30" y="481.3333" clip-path="url(#clipPath2)" stroke="none"/>
    </g>
    <g text-rendering="geometricPrecision" stroke-miterlimit="1.45" shape-rendering="geometricPrecision" font-family="sans-serif" transform="matrix(1,0,0,1,-344,-312)" stroke-linecap="butt">
      <text x="645.4209" xml:space="preserve" y="500.4876" clip-path="url(#clipPath2)" stroke="none">noun</text>
      <rect fill="none" x="645.5" width="30" height="30" y="481.3333" clip-path="url(#clipPath2)"/>
    </g>
    <g fill="white" text-rendering="geometricPrecision" shape-rendering="geometricPrecision" transform="matrix(1,0,0,1,-344,-312)" stroke="white">
      <rect x="495.5" width="30" height="30" y="531.3333" clip-path="url(#clipPath2)" stroke="none"/>
    </g>
    <g text-rendering="geometricPrecision" stroke-miterlimit="1.45" shape-rendering="geometricPrecision" font-family="sans-serif" transform="matrix(1,0,0,1,-344,-312)" stroke-linecap="butt">
      <text x="502.8887" xml:space="preserve" y="550.4876" clip-path="url(#clipPath2)" stroke="none">np</text>
      <rect fill="none" x="495.5" width="30" height="30" y="531.3333" clip-path="url(#clipPath2)"/>
    </g>
    <g fill="white" text-rendering="geometricPrecision" shape-rendering="geometricPrecision" transform="matrix(1,0,0,1,-344,-312)" stroke="white">
      <rect x="545.5" width="30" height="30" y="531.3333" clip-path="url(#clipPath2)" stroke="none"/>
    </g>
    <g text-rendering="geometricPrecision" stroke-miterlimit="1.45" shape-rendering="geometricPrecision" font-family="sans-serif" transform="matrix(1,0,0,1,-344,-312)" stroke-linecap="butt">
      <text x="553.1406" xml:space="preserve" y="550.4876" clip-path="url(#clipPath2)" stroke="none">vp</text>
      <rect fill="none" x="545.5" width="30" height="30" y="531.3333" clip-path="url(#clipPath2)"/>
    </g>
    <g fill="white" text-rendering="geometricPrecision" shape-rendering="geometricPrecision" transform="matrix(1,0,0,1,-344,-312)" stroke="white">
      <rect x="595.5" width="30" height="30" y="531.3333" clip-path="url(#clipPath2)" stroke="none"/>
    </g>
    <g text-rendering="geometricPrecision" stroke-miterlimit="1.45" shape-rendering="geometricPrecision" font-family="sans-serif" transform="matrix(1,0,0,1,-344,-312)" stroke-linecap="butt">
      <text x="600.6475" xml:space="preserve" y="550.4876" clip-path="url(#clipPath2)" stroke="none">det</text>
      <rect fill="none" x="595.5" width="30" height="30" y="531.3333" clip-path="url(#clipPath2)"/>
    </g>
    <g fill="white" text-rendering="geometricPrecision" shape-rendering="geometricPrecision" transform="matrix(1,0,0,1,-344,-312)" stroke="white">
      <rect x="645.5" width="30" height="30" y="531.3333" clip-path="url(#clipPath2)" stroke="none"/>
    </g>
    <g text-rendering="geometricPrecision" stroke-miterlimit="1.45" shape-rendering="geometricPrecision" transform="matrix(1,0,0,1,-344,-312)" stroke-linecap="butt">
      <rect fill="none" x="645.5" width="30" height="30" y="531.3333" clip-path="url(#clipPath2)"/>
    </g>
    <g fill="white" text-rendering="geometricPrecision" shape-rendering="geometricPrecision" transform="matrix(1,0,0,1,-344,-312)" stroke="white">
      <rect x="495.5" width="30" height="30" y="581.3333" clip-path="url(#clipPath2)" stroke="none"/>
    </g>
    <g text-rendering="geometricPrecision" stroke-miterlimit="1.45" shape-rendering="geometricPrecision" font-family="sans-serif" transform="matrix(1,0,0,1,-344,-312)" stroke-linecap="butt">
      <text x="502.8887" xml:space="preserve" y="600.4876" clip-path="url(#clipPath2)" stroke="none">np</text>
      <rect fill="none" x="495.5" width="30" height="30" y="581.3333" clip-path="url(#clipPath2)"/>
    </g>
    <g fill="white" text-rendering="geometricPrecision" shape-rendering="geometricPrecision" transform="matrix(1,0,0,1,-344,-312)" stroke="white">
      <rect x="545.5" width="30" height="30" y="581.3333" clip-path="url(#clipPath2)" stroke="none"/>
    </g>
    <g text-rendering="geometricPrecision" stroke-miterlimit="1.45" shape-rendering="geometricPrecision" font-family="sans-serif" transform="matrix(1,0,0,1,-344,-312)" stroke-linecap="butt">
      <text x="546.9824" xml:space="preserve" y="600.4876" clip-path="url(#clipPath2)" stroke="none">verb</text>
      <rect fill="none" x="545.5" width="30" height="30" y="581.3333" clip-path="url(#clipPath2)"/>
    </g>
    <g fill="white" text-rendering="geometricPrecision" shape-rendering="geometricPrecision" transform="matrix(1,0,0,1,-344,-312)" stroke="white">
      <rect x="595.5" width="30" height="30" y="581.3333" clip-path="url(#clipPath2)" stroke="none"/>
    </g>
    <g text-rendering="geometricPrecision" stroke-miterlimit="1.45" shape-rendering="geometricPrecision" transform="matrix(1,0,0,1,-344,-312)" stroke-linecap="butt">
      <rect fill="none" x="595.5" width="30" height="30" y="581.3333" clip-path="url(#clipPath2)"/>
    </g>
    <g fill="white" text-rendering="geometricPrecision" shape-rendering="geometricPrecision" transform="matrix(1,0,0,1,-344,-312)" stroke="white">
      <rect x="645.5" width="30" height="30" y="581.3333" clip-path="url(#clipPath2)" stroke="none"/>
    </g>
    <g text-rendering="geometricPrecision" stroke-miterlimit="1.45" shape-rendering="geometricPrecision" transform="matrix(1,0,0,1,-344,-312)" stroke-linecap="butt">
      <rect fill="none" x="645.5" width="30" height="30" y="581.3333" clip-path="url(#clipPath2)"/>
    </g>
    <g fill="white" text-rendering="geometricPrecision" shape-rendering="geometricPrecision" transform="matrix(1,0,0,1,-344,-312)" stroke="white">
      <rect x="495.5" width="30" height="30" y="631.3333" clip-path="url(#clipPath2)" stroke="none"/>
    </g>
    <g text-rendering="geometricPrecision" stroke-miterlimit="1.45" shape-rendering="geometricPrecision" font-family="sans-serif" transform="matrix(1,0,0,1,-344,-312)" stroke-linecap="butt">
      <text x="496.751" xml:space="preserve" y="650.4876" clip-path="url(#clipPath2)" stroke="none">pron</text>
      <rect fill="none" x="495.5" width="30" height="30" y="631.3333" clip-path="url(#clipPath2)"/>
    </g>
    <g fill="white" text-rendering="geometricPrecision" shape-rendering="geometricPrecision" transform="matrix(1,0,0,1,-344,-312)" stroke="white">
      <rect x="545.5" width="30" height="30" y="631.3333" clip-path="url(#clipPath2)" stroke="none"/>
    </g>
    <g text-rendering="geometricPrecision" stroke-miterlimit="1.45" shape-rendering="geometricPrecision" transform="matrix(1,0,0,1,-344,-312)" stroke-linecap="butt">
      <rect fill="none" x="545.5" width="30" height="30" y="631.3333" clip-path="url(#clipPath2)"/>
    </g>
    <g fill="white" text-rendering="geometricPrecision" shape-rendering="geometricPrecision" transform="matrix(1,0,0,1,-344,-312)" stroke="white">
      <rect x="595.5" width="30" height="30" y="631.3333" clip-path="url(#clipPath2)" stroke="none"/>
    </g>
    <g text-rendering="geometricPrecision" stroke-miterlimit="1.45" shape-rendering="geometricPrecision" transform="matrix(1,0,0,1,-344,-312)" stroke-linecap="butt">
      <rect fill="none" x="595.5" width="30" height="30" y="631.3333" clip-path="url(#clipPath2)"/>
    </g>
    <g fill="white" text-rendering="geometricPrecision" shape-rendering="geometricPrecision" transform="matrix(1,0,0,1,-344,-312)" stroke="white">
      <rect x="645.5" width="30" height="30" y="631.3333" clip-path="url(#clipPath2)" stroke="none"/>
    </g>
    <g text-rendering="geometricPrecision" stroke-miterlimit="1.45" shape-rendering="geometricPrecision" transform="matrix(1,0,0,1,-344,-312)" stroke-linecap="butt">
      <rect fill="none" x="645.5" width="30" height="30" y="631.3333" clip-path="url(#clipPath2)"/>
    </g>
    <g fill="white" text-rendering="geometricPrecision" shape-rendering="geometricPrecision" transform="matrix(1,0,0,1,-344,-312)" stroke="white">
      <rect x="495.5" width="180" height="30" y="379.3333" clip-path="url(#clipPath2)" stroke="none"/>
    </g>
    <g text-rendering="geometricPrecision" stroke-miterlimit="1.45" shape-rendering="geometricPrecision" font-family="sans-serif" transform="matrix(1,0,0,1,-344,-312)" stroke-linecap="butt">
      <text x="560.3896" xml:space="preserve" y="398.4876" clip-path="url(#clipPath2)" stroke="none">Step 2.2</text>
      <rect fill="none" x="495.5" width="180" height="30" y="379.3333" clip-path="url(#clipPath2)"/>
    </g>
    <g fill="white" text-rendering="geometricPrecision" shape-rendering="geometricPrecision" transform="matrix(1,0,0,1,-344,-312)" stroke="white">
      <rect x="359" width="453" height="30" y="327.3333" clip-path="url(#clipPath2)" stroke="none"/>
    </g>
    <g text-rendering="geometricPrecision" stroke-miterlimit="1.45" shape-rendering="geometricPrecision" font-family="sans-serif" transform="matrix(1,0,0,1,-344,-312)" stroke-linecap="butt">
      <text x="381.4326" xml:space="preserve" y="346.4876" clip-path="url(#clipPath2)" stroke="none">CKY of "I am a Function" - Second Permutation: Pron Verb Det Noun</text>
      <rect fill="none" x="359" width="453" height="30" y="327.3333" clip-path="url(#clipPath2)"/>
    </g>
    <g fill="white" text-rendering="geometricPrecision" shape-rendering="geometricPrecision" transform="matrix(1,0,0,1,-344,-312)" stroke="white">
      <rect x="359" width="453" height="30" y="681.3333" clip-path="url(#clipPath2)" stroke="none"/>
    </g>
    <g text-rendering="geometricPrecision" stroke-miterlimit="1.45" shape-rendering="geometricPrecision" font-family="sans-serif" transform="matrix(1,0,0,1,-344,-312)" stroke-linecap="butt">
      <text x="557.0703" xml:space="preserve" y="700.4876" clip-path="url(#clipPath2)" stroke="none">Figure 20</text>
      <rect fill="none" x="359" width="453" height="30" y="681.3333" clip-path="url(#clipPath2)"/>
      <path fill="none" d="M645.5 446.3333 L633.5 446.3333" clip-path="url(#clipPath2)"/>
      <path d="M625.5 446.3333 L637.5 451.3333 L634.5 446.3333 L637.5 441.3333 Z" clip-path="url(#clipPath2)" stroke="none"/>
      <path fill="none" d="M610.5 481.3333 L610.5 469.3333" clip-path="url(#clipPath2)"/>
      <path d="M610.5 461.3333 L605.5 473.3333 L610.5 470.3333 L615.5 473.3333 Z" clip-path="url(#clipPath2)" stroke="none"/>
      <path fill="none" d="M660.5 481.3333 L660.5 469.3333" clip-path="url(#clipPath2)"/>
      <path d="M660.5 461.3333 L655.5 473.3333 L660.5 470.3333 L665.5 473.3333 Z" clip-path="url(#clipPath2)" stroke="none"/>
    </g>
    <g text-rendering="geometricPrecision" stroke-miterlimit="1.45" shape-rendering="geometricPrecision" transform="matrix(1,0,0,1,-344,-312)" stroke-linecap="butt">
      <path fill="none" d="M560.5 511.3333 L554.25 526.3333 L559 523.4833 L559 531.3333 L562 531.3333 L562 523.4833 L566.75 526.3333 L560.5 511.3333 Z" clip-path="url(#clipPath2)"/>
    </g>
    <g text-rendering="geometricPrecision" stroke-miterlimit="1.45" shape-rendering="geometricPrecision" transform="matrix(1,0,0,1,-344,-312)" stroke-linecap="butt">
      <path fill="none" d="M610.5 511.3333 L604.25 526.3333 L609 523.4833 L609 531.3333 L612 531.3333 L612 523.4833 L616.75 526.3333 L610.5 511.3333 Z" clip-path="url(#clipPath2)"/>
    </g>
    <g text-rendering="geometricPrecision" stroke-miterlimit="1.45" shape-rendering="geometricPrecision" transform="matrix(1,0,0,1,-344,-312)" stroke-linecap="butt">
      <path fill="none" d="M510.5 561.3333 L504.25 576.3333 L509 573.4833 L509 573.4833 L509 581.3333 L512 581.3333 L512 573.4833 L512 573.4833 L516.75 576.3333 L510.5 561.3333 Z" clip-path="url(#clipPath2)"/>
    </g>
    <g text-rendering="geometricPrecision" stroke-miterlimit="1.45" shape-rendering="geometricPrecision" transform="matrix(1,0,0,1,-344,-312)" stroke-linecap="butt">
      <path fill="none" d="M560.5 581.3333 L560.5 569.3333" clip-path="url(#clipPath2)"/>
      <path d="M560.5 561.3333 L555.5 573.3333 L560.5 570.3333 L565.5 573.3333 Z" clip-path="url(#clipPath2)" stroke="none"/>
      <path fill="none" d="M510.5 631.3333 L510.5 619.3333" clip-path="url(#clipPath2)"/>
      <path d="M510.5 611.3333 L505.5 623.3333 L510.5 620.3333 L515.5 623.3333 Z" clip-path="url(#clipPath2)" stroke="none"/>
    </g>
  </g>
</svg>
