<?xml version="1.0" encoding="UTF-8"?><svg xmlns="http://www.w3.org/2000/svg" xmlns:xlink="http://www.w3.org/1999/xlink" fill-opacity="1" color-rendering="auto" color-interpolation="auto" text-rendering="auto" stroke="black" stroke-linecap="square" width="484" stroke-miterlimit="10" shape-rendering="auto" stroke-opacity="1" fill="black" stroke-dasharray="none" font-weight="normal" stroke-width="1" height="425" font-family="'Dialog'" font-style="normal" stroke-linejoin="miter" font-size="12px" stroke-dashoffset="0" image-rendering="auto">
  <!--Generated by ySVG 2.5-->
  <defs id="genericDefs"/>
  <g>
    <defs id="defs1">
      <clipPath clipPathUnits="userSpaceOnUse" id="clipPath1">
        <path d="M0 0 L484 0 L484 425 L0 425 L0 0 Z"/>
      </clipPath>
      <clipPath clipPathUnits="userSpaceOnUse" id="clipPath2">
        <path d="M319 287 L803 287 L803 712 L319 712 L319 287 Z"/>
      </clipPath>
    </defs>
    <g fill="white" text-rendering="geometricPrecision" shape-rendering="geometricPrecision" transform="translate(-319,-287)" stroke="white">
      <rect x="319" width="484" height="425" y="287" clip-path="url(#clipPath2)" stroke="none"/>
    </g>
    <g fill="white" text-rendering="geometricPrecision" shape-rendering="geometricPrecision" transform="matrix(1,0,0,1,-319,-287)" stroke="white">
      <rect x="471" width="30" height="30" y="406.6667" clip-path="url(#clipPath2)" stroke="none"/>
    </g>
    <g text-rendering="geometricPrecision" stroke-miterlimit="1.45" shape-rendering="geometricPrecision" transform="matrix(1,0,0,1,-319,-287)" stroke-linecap="butt">
      <rect fill="none" x="471" width="30" height="30" y="406.6667" clip-path="url(#clipPath2)"/>
    </g>
    <g fill="white" text-rendering="geometricPrecision" shape-rendering="geometricPrecision" transform="matrix(1,0,0,1,-319,-287)" stroke="white">
      <rect x="521" width="30" height="30" y="406.6667" clip-path="url(#clipPath2)" stroke="none"/>
    </g>
    <g text-rendering="geometricPrecision" stroke-miterlimit="1.45" shape-rendering="geometricPrecision" transform="matrix(1,0,0,1,-319,-287)" stroke-linecap="butt">
      <rect fill="none" x="521" width="30" height="30" y="406.6667" clip-path="url(#clipPath2)"/>
    </g>
    <g fill="white" text-rendering="geometricPrecision" shape-rendering="geometricPrecision" transform="matrix(1,0,0,1,-319,-287)" stroke="white">
      <rect x="571" width="30" height="30" y="406.6667" clip-path="url(#clipPath2)" stroke="none"/>
    </g>
    <g text-rendering="geometricPrecision" stroke-miterlimit="1.45" shape-rendering="geometricPrecision" transform="matrix(1,0,0,1,-319,-287)" stroke-linecap="butt">
      <rect fill="none" x="571" width="30" height="30" y="406.6667" clip-path="url(#clipPath2)"/>
    </g>
    <g fill="white" text-rendering="geometricPrecision" shape-rendering="geometricPrecision" transform="matrix(1,0,0,1,-319,-287)" stroke="white">
      <rect x="621" width="30" height="30" y="406.6667" clip-path="url(#clipPath2)" stroke="none"/>
    </g>
    <g text-rendering="geometricPrecision" stroke-miterlimit="1.45" shape-rendering="geometricPrecision" transform="matrix(1,0,0,1,-319,-287)" stroke-linecap="butt">
      <rect fill="none" x="621" width="30" height="30" y="406.6667" clip-path="url(#clipPath2)"/>
    </g>
    <g fill="white" text-rendering="geometricPrecision" shape-rendering="geometricPrecision" transform="matrix(1,0,0,1,-319,-287)" stroke="white">
      <rect x="471" width="30" height="30" y="456.6667" clip-path="url(#clipPath2)" stroke="none"/>
    </g>
    <g text-rendering="geometricPrecision" stroke-miterlimit="1.45" shape-rendering="geometricPrecision" transform="matrix(1,0,0,1,-319,-287)" stroke-linecap="butt">
      <rect fill="none" x="471" width="30" height="30" y="456.6667" clip-path="url(#clipPath2)"/>
    </g>
    <g fill="white" text-rendering="geometricPrecision" shape-rendering="geometricPrecision" transform="matrix(1,0,0,1,-319,-287)" stroke="white">
      <rect x="521" width="30" height="30" y="456.6667" clip-path="url(#clipPath2)" stroke="none"/>
    </g>
    <g text-rendering="geometricPrecision" stroke-miterlimit="1.45" shape-rendering="geometricPrecision" transform="matrix(1,0,0,1,-319,-287)" stroke-linecap="butt">
      <rect fill="none" x="521" width="30" height="30" y="456.6667" clip-path="url(#clipPath2)"/>
    </g>
    <g fill="white" text-rendering="geometricPrecision" shape-rendering="geometricPrecision" transform="matrix(1,0,0,1,-319,-287)" stroke="white">
      <rect x="571" width="30" height="30" y="456.6667" clip-path="url(#clipPath2)" stroke="none"/>
    </g>
    <g text-rendering="geometricPrecision" stroke-miterlimit="1.45" shape-rendering="geometricPrecision" font-family="sans-serif" transform="matrix(1,0,0,1,-319,-287)" stroke-linecap="butt">
      <text x="576.1475" xml:space="preserve" y="475.821" clip-path="url(#clipPath2)" stroke="none">det</text>
      <rect fill="none" x="571" width="30" height="30" y="456.6667" clip-path="url(#clipPath2)"/>
    </g>
    <g fill="white" text-rendering="geometricPrecision" shape-rendering="geometricPrecision" transform="matrix(1,0,0,1,-319,-287)" stroke="white">
      <rect x="621" width="30" height="30" y="456.6667" clip-path="url(#clipPath2)" stroke="none"/>
    </g>
    <g text-rendering="geometricPrecision" stroke-miterlimit="1.45" shape-rendering="geometricPrecision" font-family="sans-serif" transform="matrix(1,0,0,1,-319,-287)" stroke-linecap="butt">
      <text x="622.4824" xml:space="preserve" y="475.821" clip-path="url(#clipPath2)" stroke="none">verb</text>
      <rect fill="none" x="621" width="30" height="30" y="456.6667" clip-path="url(#clipPath2)"/>
    </g>
    <g fill="white" text-rendering="geometricPrecision" shape-rendering="geometricPrecision" transform="matrix(1,0,0,1,-319,-287)" stroke="white">
      <rect x="471" width="30" height="30" y="506.6667" clip-path="url(#clipPath2)" stroke="none"/>
    </g>
    <g text-rendering="geometricPrecision" stroke-miterlimit="1.45" shape-rendering="geometricPrecision" transform="matrix(1,0,0,1,-319,-287)" stroke-linecap="butt">
      <rect fill="none" x="471" width="30" height="30" y="506.6667" clip-path="url(#clipPath2)"/>
    </g>
    <g fill="white" text-rendering="geometricPrecision" shape-rendering="geometricPrecision" transform="matrix(1,0,0,1,-319,-287)" stroke="white">
      <rect x="521" width="30" height="30" y="506.6667" clip-path="url(#clipPath2)" stroke="none"/>
    </g>
    <g text-rendering="geometricPrecision" stroke-miterlimit="1.45" shape-rendering="geometricPrecision" font-family="sans-serif" transform="matrix(1,0,0,1,-319,-287)" stroke-linecap="butt">
      <text x="528.6406" xml:space="preserve" y="525.821" clip-path="url(#clipPath2)" stroke="none">vp</text>
      <rect fill="none" x="521" width="30" height="30" y="506.6667" clip-path="url(#clipPath2)"/>
    </g>
    <g fill="white" text-rendering="geometricPrecision" shape-rendering="geometricPrecision" transform="matrix(1,0,0,1,-319,-287)" stroke="white">
      <rect x="571" width="30" height="30" y="506.6667" clip-path="url(#clipPath2)" stroke="none"/>
    </g>
    <g text-rendering="geometricPrecision" stroke-miterlimit="1.45" shape-rendering="geometricPrecision" font-family="sans-serif" transform="matrix(1,0,0,1,-319,-287)" stroke-linecap="butt">
      <text x="576.1475" xml:space="preserve" y="525.821" clip-path="url(#clipPath2)" stroke="none">det</text>
      <rect fill="none" x="571" width="30" height="30" y="506.6667" clip-path="url(#clipPath2)"/>
    </g>
    <g fill="white" text-rendering="geometricPrecision" shape-rendering="geometricPrecision" transform="matrix(1,0,0,1,-319,-287)" stroke="white">
      <rect x="621" width="30" height="30" y="506.6667" clip-path="url(#clipPath2)" stroke="none"/>
    </g>
    <g text-rendering="geometricPrecision" stroke-miterlimit="1.45" shape-rendering="geometricPrecision" transform="matrix(1,0,0,1,-319,-287)" stroke-linecap="butt">
      <rect fill="none" x="621" width="30" height="30" y="506.6667" clip-path="url(#clipPath2)"/>
    </g>
    <g fill="white" text-rendering="geometricPrecision" shape-rendering="geometricPrecision" transform="matrix(1,0,0,1,-319,-287)" stroke="white">
      <rect x="471" width="30" height="30" y="556.6667" clip-path="url(#clipPath2)" stroke="none"/>
    </g>
    <g text-rendering="geometricPrecision" stroke-miterlimit="1.45" shape-rendering="geometricPrecision" font-family="sans-serif" transform="matrix(1,0,0,1,-319,-287)" stroke-linecap="butt">
      <text x="478.3887" xml:space="preserve" y="575.821" clip-path="url(#clipPath2)" stroke="none">np</text>
      <rect fill="none" x="471" width="30" height="30" y="556.6667" clip-path="url(#clipPath2)"/>
    </g>
    <g fill="white" text-rendering="geometricPrecision" shape-rendering="geometricPrecision" transform="matrix(1,0,0,1,-319,-287)" stroke="white">
      <rect x="521" width="30" height="30" y="556.6667" clip-path="url(#clipPath2)" stroke="none"/>
    </g>
    <g text-rendering="geometricPrecision" stroke-miterlimit="1.45" shape-rendering="geometricPrecision" font-family="sans-serif" transform="matrix(1,0,0,1,-319,-287)" stroke-linecap="butt">
      <text x="522.4824" xml:space="preserve" y="575.821" clip-path="url(#clipPath2)" stroke="none">verb</text>
      <rect fill="none" x="521" width="30" height="30" y="556.6667" clip-path="url(#clipPath2)"/>
    </g>
    <g fill="white" text-rendering="geometricPrecision" shape-rendering="geometricPrecision" transform="matrix(1,0,0,1,-319,-287)" stroke="white">
      <rect x="571" width="30" height="30" y="556.6667" clip-path="url(#clipPath2)" stroke="none"/>
    </g>
    <g text-rendering="geometricPrecision" stroke-miterlimit="1.45" shape-rendering="geometricPrecision" transform="matrix(1,0,0,1,-319,-287)" stroke-linecap="butt">
      <rect fill="none" x="571" width="30" height="30" y="556.6667" clip-path="url(#clipPath2)"/>
    </g>
    <g fill="white" text-rendering="geometricPrecision" shape-rendering="geometricPrecision" transform="matrix(1,0,0,1,-319,-287)" stroke="white">
      <rect x="621" width="30" height="30" y="556.6667" clip-path="url(#clipPath2)" stroke="none"/>
    </g>
    <g text-rendering="geometricPrecision" stroke-miterlimit="1.45" shape-rendering="geometricPrecision" transform="matrix(1,0,0,1,-319,-287)" stroke-linecap="butt">
      <rect fill="none" x="621" width="30" height="30" y="556.6667" clip-path="url(#clipPath2)"/>
    </g>
    <g fill="white" text-rendering="geometricPrecision" shape-rendering="geometricPrecision" transform="matrix(1,0,0,1,-319,-287)" stroke="white">
      <rect x="471" width="30" height="30" y="606.6667" clip-path="url(#clipPath2)" stroke="none"/>
    </g>
    <g text-rendering="geometricPrecision" stroke-miterlimit="1.45" shape-rendering="geometricPrecision" font-family="sans-serif" transform="matrix(1,0,0,1,-319,-287)" stroke-linecap="butt">
      <text x="472.251" xml:space="preserve" y="625.821" clip-path="url(#clipPath2)" stroke="none">pron</text>
      <rect fill="none" x="471" width="30" height="30" y="606.6667" clip-path="url(#clipPath2)"/>
    </g>
    <g fill="white" text-rendering="geometricPrecision" shape-rendering="geometricPrecision" transform="matrix(1,0,0,1,-319,-287)" stroke="white">
      <rect x="521" width="30" height="30" y="606.6667" clip-path="url(#clipPath2)" stroke="none"/>
    </g>
    <g text-rendering="geometricPrecision" stroke-miterlimit="1.45" shape-rendering="geometricPrecision" transform="matrix(1,0,0,1,-319,-287)" stroke-linecap="butt">
      <rect fill="none" x="521" width="30" height="30" y="606.6667" clip-path="url(#clipPath2)"/>
    </g>
    <g fill="white" text-rendering="geometricPrecision" shape-rendering="geometricPrecision" transform="matrix(1,0,0,1,-319,-287)" stroke="white">
      <rect x="571" width="30" height="30" y="606.6667" clip-path="url(#clipPath2)" stroke="none"/>
    </g>
    <g text-rendering="geometricPrecision" stroke-miterlimit="1.45" shape-rendering="geometricPrecision" transform="matrix(1,0,0,1,-319,-287)" stroke-linecap="butt">
      <rect fill="none" x="571" width="30" height="30" y="606.6667" clip-path="url(#clipPath2)"/>
    </g>
    <g fill="white" text-rendering="geometricPrecision" shape-rendering="geometricPrecision" transform="matrix(1,0,0,1,-319,-287)" stroke="white">
      <rect x="621" width="30" height="30" y="606.6667" clip-path="url(#clipPath2)" stroke="none"/>
    </g>
    <g text-rendering="geometricPrecision" stroke-miterlimit="1.45" shape-rendering="geometricPrecision" transform="matrix(1,0,0,1,-319,-287)" stroke-linecap="butt">
      <rect fill="none" x="621" width="30" height="30" y="606.6667" clip-path="url(#clipPath2)"/>
    </g>
    <g fill="white" text-rendering="geometricPrecision" shape-rendering="geometricPrecision" transform="matrix(1,0,0,1,-319,-287)" stroke="white">
      <rect x="471" width="180" height="30" y="354.6667" clip-path="url(#clipPath2)" stroke="none"/>
    </g>
    <g text-rendering="geometricPrecision" stroke-miterlimit="1.45" shape-rendering="geometricPrecision" font-family="sans-serif" transform="matrix(1,0,0,1,-319,-287)" stroke-linecap="butt">
      <text x="535.8896" xml:space="preserve" y="373.821" clip-path="url(#clipPath2)" stroke="none">Step 1.2</text>
      <rect fill="none" x="471" width="180" height="30" y="354.6667" clip-path="url(#clipPath2)"/>
    </g>
    <g fill="white" text-rendering="geometricPrecision" shape-rendering="geometricPrecision" transform="matrix(1,0,0,1,-319,-287)" stroke="white">
      <rect x="334.5" width="453" height="30" y="302.6667" clip-path="url(#clipPath2)" stroke="none"/>
    </g>
    <g text-rendering="geometricPrecision" stroke-miterlimit="1.45" shape-rendering="geometricPrecision" font-family="sans-serif" transform="matrix(1,0,0,1,-319,-287)" stroke-linecap="butt">
      <text x="367.6436" xml:space="preserve" y="321.821" clip-path="url(#clipPath2)" stroke="none">CKY of "I am a Function" - First Permutation: Pron Verb Det Verb</text>
      <rect fill="none" x="334.5" width="453" height="30" y="302.6667" clip-path="url(#clipPath2)"/>
    </g>
    <g fill="white" text-rendering="geometricPrecision" shape-rendering="geometricPrecision" transform="matrix(1,0,0,1,-319,-287)" stroke="white">
      <rect x="334.5" width="453" height="30" y="666.6667" clip-path="url(#clipPath2)" stroke="none"/>
    </g>
    <g text-rendering="geometricPrecision" stroke-miterlimit="1.45" shape-rendering="geometricPrecision" font-family="sans-serif" transform="matrix(1,0,0,1,-319,-287)" stroke-linecap="butt">
      <text x="536.3877" xml:space="preserve" y="685.821" clip-path="url(#clipPath2)" stroke="none">Figure 5</text>
      <rect fill="none" x="334.5" width="453" height="30" y="666.6667" clip-path="url(#clipPath2)"/>
    </g>
    <g text-rendering="geometricPrecision" stroke-miterlimit="1.45" shape-rendering="geometricPrecision" transform="matrix(1,0,0,1,-319,-287)" stroke-linecap="butt">
      <path fill="none" d="M586 486.6667 L579.75 501.6667 L584.5 498.8167 L584.5 506.6667 L587.5 506.6667 L587.5 498.8167 L592.25 501.6667 L586 486.6667 Z" clip-path="url(#clipPath2)"/>
    </g>
    <g text-rendering="geometricPrecision" stroke-miterlimit="1.45" shape-rendering="geometricPrecision" transform="matrix(1,0,0,1,-319,-287)" stroke-linecap="butt">
      <path fill="none" d="M536 556.6667 L536 544.6667" clip-path="url(#clipPath2)"/>
      <path d="M536 536.6667 L531 548.6667 L536 545.6667 L541 548.6667 Z" clip-path="url(#clipPath2)" stroke="none"/>
      <path fill="none" d="M486 606.6667 L486 594.6667" clip-path="url(#clipPath2)"/>
      <path d="M486 586.6667 L481 598.6667 L486 595.6667 L491 598.6667 Z" clip-path="url(#clipPath2)" stroke="none"/>
    </g>
  </g>
</svg>
