<?xml version="1.0" encoding="UTF-8"?><svg xmlns="http://www.w3.org/2000/svg" xmlns:xlink="http://www.w3.org/1999/xlink" fill-opacity="1" color-rendering="auto" color-interpolation="auto" text-rendering="auto" stroke="black" stroke-linecap="square" width="730" stroke-miterlimit="10" shape-rendering="auto" stroke-opacity="1" fill="black" stroke-dasharray="none" font-weight="normal" stroke-width="1" height="630" font-family="'Dialog'" font-style="normal" stroke-linejoin="miter" font-size="12px" stroke-dashoffset="0" image-rendering="auto">
  <!--Generated by ySVG 2.5-->
  <defs id="genericDefs"/>
  <g>
    <defs id="defs1">
      <clipPath clipPathUnits="userSpaceOnUse" id="clipPath1">
        <path d="M0 0 L730 0 L730 630 L0 630 L0 0 Z"/>
      </clipPath>
      <clipPath clipPathUnits="userSpaceOnUse" id="clipPath2">
        <path d="M429 314 L1159 314 L1159 944 L429 944 L429 314 Z"/>
      </clipPath>
    </defs>
    <g fill="white" text-rendering="geometricPrecision" shape-rendering="geometricPrecision" transform="translate(-429,-314)" stroke="white">
      <rect x="429" width="730" height="630" y="314" clip-path="url(#clipPath2)" stroke="none"/>
    </g>
    <g font-size="15px" stroke-linecap="butt" transform="matrix(1,0,0,1,-429,-314)" text-rendering="geometricPrecision" font-family="sans-serif" shape-rendering="geometricPrecision" stroke-miterlimit="1.45">
      <text x="465.416" xml:space="preserve" y="803.0608" clip-path="url(#clipPath2)" stroke="none">Stack</text>
      <rect x="445.748" y="787.1375" clip-path="url(#clipPath2)" fill="none" width="63.1963" stroke-dasharray="6,2" rx="4" ry="4" height="81.4609"/>
      <text x="1108.6031" xml:space="preserve" y="803.0608" clip-path="url(#clipPath2)" stroke="none">Line</text>
      <rect x="541.8629" y="787.1375" clip-path="url(#clipPath2)" fill="none" width="600" stroke-dasharray="6,2" rx="4" ry="4" height="81.4609"/>
    </g>
    <g fill="white" text-rendering="geometricPrecision" shape-rendering="geometricPrecision" transform="matrix(1,0,0,1,-429,-314)" stroke="white">
      <rect x="556.8629" width="30" height="30" y="823.5984" clip-path="url(#clipPath2)" stroke="none"/>
    </g>
    <g text-rendering="geometricPrecision" stroke-miterlimit="1.45" shape-rendering="geometricPrecision" font-family="sans-serif" transform="matrix(1,0,0,1,-429,-314)" stroke-linecap="butt">
      <text x="568.7369" xml:space="preserve" y="842.7527" clip-path="url(#clipPath2)" stroke="none">s</text>
      <rect fill="none" x="556.8629" width="30" height="30" y="823.5984" clip-path="url(#clipPath2)"/>
    </g>
    <g fill="white" text-rendering="geometricPrecision" shape-rendering="geometricPrecision" transform="matrix(1,0,0,1,-429,-314)" stroke="white">
      <rect x="586.8629" width="30" height="30" y="823.5984" clip-path="url(#clipPath2)" stroke="none"/>
    </g>
    <g text-rendering="geometricPrecision" stroke-miterlimit="1.45" shape-rendering="geometricPrecision" font-family="sans-serif" transform="matrix(1,0,0,1,-429,-314)" stroke-linecap="butt">
      <text x="599.522" xml:space="preserve" y="842.7527" clip-path="url(#clipPath2)" stroke="none">(</text>
      <rect fill="none" x="586.8629" width="30" height="30" y="823.5984" clip-path="url(#clipPath2)"/>
    </g>
    <g fill="white" text-rendering="geometricPrecision" shape-rendering="geometricPrecision" transform="matrix(1,0,0,1,-429,-314)" stroke="white">
      <rect x="616.8629" width="30" height="30" y="823.5984" clip-path="url(#clipPath2)" stroke="none"/>
    </g>
    <g text-rendering="geometricPrecision" stroke-miterlimit="1.45" shape-rendering="geometricPrecision" font-family="sans-serif" transform="matrix(1,0,0,1,-429,-314)" stroke-linecap="butt">
      <text x="624.2515" xml:space="preserve" y="842.7527" clip-path="url(#clipPath2)" stroke="none">np</text>
      <rect fill="none" x="616.8629" width="30" height="30" y="823.5984" clip-path="url(#clipPath2)"/>
    </g>
    <g fill="white" text-rendering="geometricPrecision" shape-rendering="geometricPrecision" transform="matrix(1,0,0,1,-429,-314)" stroke="white">
      <rect x="646.8629" width="30" height="30" y="823.5984" clip-path="url(#clipPath2)" stroke="none"/>
    </g>
    <g text-rendering="geometricPrecision" stroke-miterlimit="1.45" shape-rendering="geometricPrecision" font-family="sans-serif" transform="matrix(1,0,0,1,-429,-314)" stroke-linecap="butt">
      <text x="659.522" xml:space="preserve" y="842.7527" clip-path="url(#clipPath2)" stroke="none">(</text>
      <rect fill="none" x="646.8629" width="30" height="30" y="823.5984" clip-path="url(#clipPath2)"/>
    </g>
    <g fill="white" text-rendering="geometricPrecision" shape-rendering="geometricPrecision" transform="matrix(1,0,0,1,-429,-314)" stroke="white">
      <rect x="706.8629" width="30" height="30" y="823.5984" clip-path="url(#clipPath2)" stroke="none"/>
    </g>
    <g text-rendering="geometricPrecision" stroke-miterlimit="1.45" shape-rendering="geometricPrecision" font-family="sans-serif" transform="matrix(1,0,0,1,-429,-314)" stroke-linecap="butt">
      <text x="719.522" xml:space="preserve" y="842.7527" clip-path="url(#clipPath2)" stroke="none">)</text>
      <rect fill="none" x="706.8629" width="30" height="30" y="823.5984" clip-path="url(#clipPath2)"/>
    </g>
    <g fill="white" text-rendering="geometricPrecision" shape-rendering="geometricPrecision" transform="matrix(1,0,0,1,-429,-314)" stroke="white">
      <rect x="676.8629" width="30" height="30" y="823.5984" clip-path="url(#clipPath2)" stroke="none"/>
    </g>
    <g text-rendering="geometricPrecision" stroke-miterlimit="1.45" shape-rendering="geometricPrecision" font-family="sans-serif" transform="matrix(1,0,0,1,-429,-314)" stroke-linecap="butt">
      <text x="678.1138" xml:space="preserve" y="842.7527" clip-path="url(#clipPath2)" stroke="none">pron</text>
      <rect fill="none" x="676.8629" width="30" height="30" y="823.5984" clip-path="url(#clipPath2)"/>
    </g>
    <g fill="white" text-rendering="geometricPrecision" shape-rendering="geometricPrecision" transform="matrix(1,0,0,1,-429,-314)" stroke="white">
      <rect x="736.8629" width="30" height="30" y="823.5984" clip-path="url(#clipPath2)" stroke="none"/>
    </g>
    <g text-rendering="geometricPrecision" stroke-miterlimit="1.45" shape-rendering="geometricPrecision" font-family="sans-serif" transform="matrix(1,0,0,1,-429,-314)" stroke-linecap="butt">
      <text x="744.5035" xml:space="preserve" y="842.7527" clip-path="url(#clipPath2)" stroke="none">vp</text>
      <rect fill="none" x="736.8629" width="30" height="30" y="823.5984" clip-path="url(#clipPath2)"/>
    </g>
    <g fill="white" text-rendering="geometricPrecision" shape-rendering="geometricPrecision" transform="matrix(1,0,0,1,-429,-314)" stroke="white">
      <rect x="766.8629" width="30" height="30" y="823.5984" clip-path="url(#clipPath2)" stroke="none"/>
    </g>
    <g text-rendering="geometricPrecision" stroke-miterlimit="1.45" shape-rendering="geometricPrecision" font-family="sans-serif" transform="matrix(1,0,0,1,-429,-314)" stroke-linecap="butt">
      <text x="779.522" xml:space="preserve" y="842.7527" clip-path="url(#clipPath2)" stroke="none">(</text>
      <rect fill="none" x="766.8629" width="30" height="30" y="823.5984" clip-path="url(#clipPath2)"/>
    </g>
    <g fill="white" text-rendering="geometricPrecision" shape-rendering="geometricPrecision" transform="matrix(1,0,0,1,-429,-314)" stroke="white">
      <rect x="796.8629" width="30" height="30" y="823.5984" clip-path="url(#clipPath2)" stroke="none"/>
    </g>
    <g text-rendering="geometricPrecision" stroke-miterlimit="1.45" shape-rendering="geometricPrecision" font-family="sans-serif" transform="matrix(1,0,0,1,-429,-314)" stroke-linecap="butt">
      <text x="798.3453" xml:space="preserve" y="842.7527" clip-path="url(#clipPath2)" stroke="none">verb</text>
      <rect fill="none" x="796.8629" width="30" height="30" y="823.5984" clip-path="url(#clipPath2)"/>
    </g>
    <g fill="white" text-rendering="geometricPrecision" shape-rendering="geometricPrecision" transform="matrix(1,0,0,1,-429,-314)" stroke="white">
      <rect x="826.8629" width="30" height="30" y="823.5984" clip-path="url(#clipPath2)" stroke="none"/>
    </g>
    <g text-rendering="geometricPrecision" stroke-miterlimit="1.45" shape-rendering="geometricPrecision" font-family="sans-serif" transform="matrix(1,0,0,1,-429,-314)" stroke-linecap="butt">
      <text x="834.2515" xml:space="preserve" y="842.7527" clip-path="url(#clipPath2)" stroke="none">np</text>
      <rect fill="none" x="826.8629" width="30" height="30" y="823.5984" clip-path="url(#clipPath2)"/>
    </g>
    <g fill="white" text-rendering="geometricPrecision" shape-rendering="geometricPrecision" transform="matrix(1,0,0,1,-429,-314)" stroke="white">
      <rect x="856.8629" width="30" height="30" y="823.5984" clip-path="url(#clipPath2)" stroke="none"/>
    </g>
    <g text-rendering="geometricPrecision" stroke-miterlimit="1.45" shape-rendering="geometricPrecision" font-family="sans-serif" transform="matrix(1,0,0,1,-429,-314)" stroke-linecap="butt">
      <text x="869.522" xml:space="preserve" y="842.7527" clip-path="url(#clipPath2)" stroke="none">(</text>
      <rect fill="none" x="856.8629" width="30" height="30" y="823.5984" clip-path="url(#clipPath2)"/>
    </g>
    <g fill="white" text-rendering="geometricPrecision" shape-rendering="geometricPrecision" transform="matrix(1,0,0,1,-429,-314)" stroke="white">
      <rect x="886.8629" width="30" height="30" y="823.5984" clip-path="url(#clipPath2)" stroke="none"/>
    </g>
    <g text-rendering="geometricPrecision" stroke-miterlimit="1.45" shape-rendering="geometricPrecision" font-family="sans-serif" transform="matrix(1,0,0,1,-429,-314)" stroke-linecap="butt">
      <text x="892.0103" xml:space="preserve" y="842.7527" clip-path="url(#clipPath2)" stroke="none">det</text>
      <rect fill="none" x="886.8629" width="30" height="30" y="823.5984" clip-path="url(#clipPath2)"/>
    </g>
    <g fill="white" text-rendering="geometricPrecision" shape-rendering="geometricPrecision" transform="matrix(1,0,0,1,-429,-314)" stroke="white">
      <rect x="916.8629" width="30" height="30" y="823.5984" clip-path="url(#clipPath2)" stroke="none"/>
    </g>
    <g text-rendering="geometricPrecision" stroke-miterlimit="1.45" shape-rendering="geometricPrecision" font-family="sans-serif" transform="matrix(1,0,0,1,-429,-314)" stroke-linecap="butt">
      <text x="918.5445" xml:space="preserve" y="842.7527" clip-path="url(#clipPath2)" stroke="none">nom</text>
      <rect fill="none" x="916.8629" width="30" height="30" y="823.5984" clip-path="url(#clipPath2)"/>
    </g>
    <g fill="white" text-rendering="geometricPrecision" shape-rendering="geometricPrecision" transform="matrix(1,0,0,1,-429,-314)" stroke="white">
      <rect x="946.8629" width="30" height="30" y="823.5984" clip-path="url(#clipPath2)" stroke="none"/>
    </g>
    <g text-rendering="geometricPrecision" stroke-miterlimit="1.45" shape-rendering="geometricPrecision" font-family="sans-serif" transform="matrix(1,0,0,1,-429,-314)" stroke-linecap="butt">
      <text x="959.522" xml:space="preserve" y="842.7527" clip-path="url(#clipPath2)" stroke="none">(</text>
      <rect fill="none" x="946.8629" width="30" height="30" y="823.5984" clip-path="url(#clipPath2)"/>
    </g>
    <g fill="white" text-rendering="geometricPrecision" shape-rendering="geometricPrecision" transform="matrix(1,0,0,1,-429,-314)" stroke="white">
      <rect x="1096.8629" width="30" height="30" y="823.5984" clip-path="url(#clipPath2)" stroke="none"/>
    </g>
    <g text-rendering="geometricPrecision" stroke-miterlimit="1.45" shape-rendering="geometricPrecision" font-family="sans-serif" transform="matrix(1,0,0,1,-429,-314)" stroke-linecap="butt">
      <text x="1109.5221" xml:space="preserve" y="842.7527" clip-path="url(#clipPath2)" stroke="none">)</text>
      <rect fill="none" x="1096.8629" width="30" height="30" y="823.5984" clip-path="url(#clipPath2)"/>
    </g>
    <g fill="white" text-rendering="geometricPrecision" shape-rendering="geometricPrecision" transform="matrix(1,0,0,1,-429,-314)" stroke="white">
      <rect x="1066.8629" width="30" height="30" y="823.5984" clip-path="url(#clipPath2)" stroke="none"/>
    </g>
    <g text-rendering="geometricPrecision" stroke-miterlimit="1.45" shape-rendering="geometricPrecision" font-family="sans-serif" transform="matrix(1,0,0,1,-429,-314)" stroke-linecap="butt">
      <text x="1079.5221" xml:space="preserve" y="842.7527" clip-path="url(#clipPath2)" stroke="none">)</text>
      <rect fill="none" x="1066.8629" width="30" height="30" y="823.5984" clip-path="url(#clipPath2)"/>
    </g>
    <g fill="white" text-rendering="geometricPrecision" shape-rendering="geometricPrecision" transform="matrix(1,0,0,1,-429,-314)" stroke="white">
      <rect x="1036.8629" width="30" height="30" y="823.5984" clip-path="url(#clipPath2)" stroke="none"/>
    </g>
    <g text-rendering="geometricPrecision" stroke-miterlimit="1.45" shape-rendering="geometricPrecision" font-family="sans-serif" transform="matrix(1,0,0,1,-429,-314)" stroke-linecap="butt">
      <text x="1049.5221" xml:space="preserve" y="842.7527" clip-path="url(#clipPath2)" stroke="none">)</text>
      <rect fill="none" x="1036.8629" width="30" height="30" y="823.5984" clip-path="url(#clipPath2)"/>
    </g>
    <g fill="white" text-rendering="geometricPrecision" shape-rendering="geometricPrecision" transform="matrix(1,0,0,1,-429,-314)" stroke="white">
      <rect x="1006.8629" width="30" height="30" y="823.5984" clip-path="url(#clipPath2)" stroke="none"/>
    </g>
    <g text-rendering="geometricPrecision" stroke-miterlimit="1.45" shape-rendering="geometricPrecision" font-family="sans-serif" transform="matrix(1,0,0,1,-429,-314)" stroke-linecap="butt">
      <text x="1019.522" xml:space="preserve" y="842.7527" clip-path="url(#clipPath2)" stroke="none">)</text>
      <rect fill="none" x="1006.8629" width="30" height="30" y="823.5984" clip-path="url(#clipPath2)"/>
    </g>
    <g fill="white" text-rendering="geometricPrecision" shape-rendering="geometricPrecision" transform="matrix(1,0,0,1,-429,-314)" stroke="white">
      <rect x="976.8629" width="30" height="30" y="823.5984" clip-path="url(#clipPath2)" stroke="none"/>
    </g>
    <g text-rendering="geometricPrecision" stroke-miterlimit="1.45" shape-rendering="geometricPrecision" font-family="sans-serif" transform="matrix(1,0,0,1,-429,-314)" stroke-linecap="butt">
      <text x="976.7838" xml:space="preserve" y="842.7527" clip-path="url(#clipPath2)" stroke="none">noun</text>
      <rect fill="none" x="976.8629" width="30" height="30" y="823.5984" clip-path="url(#clipPath2)"/>
    </g>
    <g fill="white" text-rendering="geometricPrecision" shape-rendering="geometricPrecision" transform="matrix(1,0,0,1,-429,-314)" stroke="white">
      <rect x="445.748" width="30" height="30" y="490.0841" clip-path="url(#clipPath2)" stroke="none"/>
    </g>
    <g text-rendering="geometricPrecision" stroke-miterlimit="1.45" shape-rendering="geometricPrecision" font-family="sans-serif" transform="matrix(1,0,0,1,-429,-314)" stroke-linecap="butt">
      <text x="457.6221" xml:space="preserve" y="509.2384" clip-path="url(#clipPath2)" stroke="none">s</text>
    </g>
    <g stroke-linecap="round" transform="matrix(1,0,0,1,-429,-314)" stroke-dashoffset="2" text-rendering="geometricPrecision" shape-rendering="geometricPrecision" stroke-dasharray="0,4" stroke-miterlimit="1.45">
      <rect fill="none" x="445.748" width="30" height="30" y="490.0841" clip-path="url(#clipPath2)"/>
    </g>
    <g fill="white" text-rendering="geometricPrecision" shape-rendering="geometricPrecision" transform="matrix(1,0,0,1,-429,-314)" stroke="white">
      <rect x="495.748" width="30" height="30" y="490.0841" clip-path="url(#clipPath2)" stroke="none"/>
    </g>
    <g text-rendering="geometricPrecision" stroke-miterlimit="1.45" shape-rendering="geometricPrecision" font-family="sans-serif" transform="matrix(1,0,0,1,-429,-314)" stroke-linecap="butt">
      <text x="503.3887" xml:space="preserve" y="509.2384" clip-path="url(#clipPath2)" stroke="none">vp</text>
    </g>
    <g stroke-linecap="round" transform="matrix(1,0,0,1,-429,-314)" stroke-dashoffset="2" text-rendering="geometricPrecision" shape-rendering="geometricPrecision" stroke-dasharray="0,4" stroke-miterlimit="1.45">
      <rect fill="none" x="495.748" width="30" height="30" y="490.0841" clip-path="url(#clipPath2)"/>
    </g>
    <g fill="white" text-rendering="geometricPrecision" shape-rendering="geometricPrecision" transform="matrix(1,0,0,1,-429,-314)" stroke="white">
      <rect x="545.748" width="30" height="30" y="490.0841" clip-path="url(#clipPath2)" stroke="none"/>
    </g>
    <g text-rendering="geometricPrecision" stroke-miterlimit="1.45" shape-rendering="geometricPrecision" font-family="sans-serif" transform="matrix(1,0,0,1,-429,-314)" stroke-linecap="butt">
      <text x="553.1367" xml:space="preserve" y="509.2384" clip-path="url(#clipPath2)" stroke="none">np</text>
    </g>
    <g stroke-linecap="round" transform="matrix(1,0,0,1,-429,-314)" stroke-dashoffset="2" text-rendering="geometricPrecision" shape-rendering="geometricPrecision" stroke-dasharray="0,4" stroke-miterlimit="1.45">
      <rect fill="none" x="545.748" width="30" height="30" y="490.0841" clip-path="url(#clipPath2)"/>
    </g>
    <g fill="white" text-rendering="geometricPrecision" shape-rendering="geometricPrecision" transform="matrix(1,0,0,1,-429,-314)" stroke="white">
      <rect x="595.748" width="30" height="30" y="490.0841" clip-path="url(#clipPath2)" stroke="none"/>
    </g>
    <g text-rendering="geometricPrecision" stroke-miterlimit="1.45" shape-rendering="geometricPrecision" font-family="sans-serif" transform="matrix(1,0,0,1,-429,-314)" stroke-linecap="butt">
      <text x="597.4297" xml:space="preserve" y="509.2384" clip-path="url(#clipPath2)" stroke="none">nom</text>
    </g>
    <g stroke-linecap="round" transform="matrix(1,0,0,1,-429,-314)" stroke-dashoffset="2" text-rendering="geometricPrecision" shape-rendering="geometricPrecision" stroke-dasharray="0,4" stroke-miterlimit="1.45">
      <rect fill="none" x="595.748" width="30" height="30" y="490.0841" clip-path="url(#clipPath2)"/>
    </g>
    <g fill="white" text-rendering="geometricPrecision" shape-rendering="geometricPrecision" transform="matrix(1,0,0,1,-429,-314)" stroke="white">
      <rect x="445.748" width="30" height="30" y="540.0841" clip-path="url(#clipPath2)" stroke="none"/>
    </g>
    <g text-rendering="geometricPrecision" stroke-miterlimit="1.45" shape-rendering="geometricPrecision" font-family="sans-serif" transform="matrix(1,0,0,1,-429,-314)" stroke-linecap="butt">
      <text x="453.1367" xml:space="preserve" y="559.2384" clip-path="url(#clipPath2)" stroke="none">np</text>
    </g>
    <g stroke-linecap="round" transform="matrix(1,0,0,1,-429,-314)" stroke-dashoffset="2" text-rendering="geometricPrecision" shape-rendering="geometricPrecision" stroke-dasharray="0,4" stroke-miterlimit="1.45">
      <rect fill="none" x="445.748" width="30" height="30" y="540.0841" clip-path="url(#clipPath2)"/>
    </g>
    <g fill="white" text-rendering="geometricPrecision" shape-rendering="geometricPrecision" transform="matrix(1,0,0,1,-429,-314)" stroke="white">
      <rect x="495.748" width="30" height="30" y="540.0841" clip-path="url(#clipPath2)" stroke="none"/>
    </g>
    <g text-rendering="geometricPrecision" stroke-miterlimit="1.45" shape-rendering="geometricPrecision" font-family="sans-serif" transform="matrix(1,0,0,1,-429,-314)" stroke-linecap="butt">
      <text x="503.3887" xml:space="preserve" y="559.2384" clip-path="url(#clipPath2)" stroke="none">vp</text>
      <rect fill="none" x="495.748" width="30" height="30" y="540.0841" clip-path="url(#clipPath2)"/>
    </g>
    <g fill="white" text-rendering="geometricPrecision" shape-rendering="geometricPrecision" transform="matrix(1,0,0,1,-429,-314)" stroke="white">
      <rect x="545.748" width="30" height="30" y="540.0841" clip-path="url(#clipPath2)" stroke="none"/>
    </g>
    <g text-rendering="geometricPrecision" stroke-miterlimit="1.45" shape-rendering="geometricPrecision" font-family="sans-serif" transform="matrix(1,0,0,1,-429,-314)" stroke-linecap="butt">
      <text x="550.8955" xml:space="preserve" y="559.2384" clip-path="url(#clipPath2)" stroke="none">det</text>
      <rect fill="none" x="545.748" width="30" height="30" y="540.0841" clip-path="url(#clipPath2)"/>
    </g>
    <g fill="white" text-rendering="geometricPrecision" shape-rendering="geometricPrecision" transform="matrix(1,0,0,1,-429,-314)" stroke="white">
      <rect x="595.748" width="30" height="30" y="540.0841" clip-path="url(#clipPath2)" stroke="none"/>
    </g>
    <g text-rendering="geometricPrecision" stroke-miterlimit="1.45" shape-rendering="geometricPrecision" font-family="sans-serif" transform="matrix(1,0,0,1,-429,-314)" stroke-linecap="butt">
      <text x="595.6689" xml:space="preserve" y="559.2384" clip-path="url(#clipPath2)" stroke="none">noun</text>
    </g>
    <g stroke-linecap="round" transform="matrix(1,0,0,1,-429,-314)" stroke-dashoffset="2" text-rendering="geometricPrecision" shape-rendering="geometricPrecision" stroke-dasharray="0,4" stroke-miterlimit="1.45">
      <rect fill="none" x="595.748" width="30" height="30" y="540.0841" clip-path="url(#clipPath2)"/>
    </g>
    <g fill="white" text-rendering="geometricPrecision" shape-rendering="geometricPrecision" transform="matrix(1,0,0,1,-429,-314)" stroke="white">
      <rect x="445.748" width="30" height="30" y="590.0841" clip-path="url(#clipPath2)" stroke="none"/>
    </g>
    <g text-rendering="geometricPrecision" stroke-miterlimit="1.45" shape-rendering="geometricPrecision" font-family="sans-serif" transform="matrix(1,0,0,1,-429,-314)" stroke-linecap="butt">
      <text x="453.1367" xml:space="preserve" y="609.2384" clip-path="url(#clipPath2)" stroke="none">np</text>
      <rect fill="none" x="445.748" width="30" height="30" y="590.0841" clip-path="url(#clipPath2)"/>
    </g>
    <g fill="white" text-rendering="geometricPrecision" shape-rendering="geometricPrecision" transform="matrix(1,0,0,1,-429,-314)" stroke="white">
      <rect x="495.748" width="30" height="30" y="590.0841" clip-path="url(#clipPath2)" stroke="none"/>
    </g>
    <g text-rendering="geometricPrecision" stroke-miterlimit="1.45" shape-rendering="geometricPrecision" font-family="sans-serif" transform="matrix(1,0,0,1,-429,-314)" stroke-linecap="butt">
      <text x="503.3887" xml:space="preserve" y="609.2384" clip-path="url(#clipPath2)" stroke="none">vp</text>
      <rect fill="none" x="495.748" width="30" height="30" y="590.0841" clip-path="url(#clipPath2)"/>
    </g>
    <g fill="white" text-rendering="geometricPrecision" shape-rendering="geometricPrecision" transform="matrix(1,0,0,1,-429,-314)" stroke="white">
      <rect x="545.748" width="30" height="30" y="590.0841" clip-path="url(#clipPath2)" stroke="none"/>
    </g>
    <g text-rendering="geometricPrecision" stroke-miterlimit="1.45" shape-rendering="geometricPrecision" font-family="sans-serif" transform="matrix(1,0,0,1,-429,-314)" stroke-linecap="butt">
      <text x="550.8955" xml:space="preserve" y="609.2384" clip-path="url(#clipPath2)" stroke="none">det</text>
    </g>
    <g stroke-linecap="round" transform="matrix(1,0,0,1,-429,-314)" stroke-dashoffset="2" text-rendering="geometricPrecision" shape-rendering="geometricPrecision" stroke-dasharray="0,4" stroke-miterlimit="1.45">
      <rect fill="none" x="545.748" width="30" height="30" y="590.0841" clip-path="url(#clipPath2)"/>
    </g>
    <g fill="white" text-rendering="geometricPrecision" shape-rendering="geometricPrecision" transform="matrix(1,0,0,1,-429,-314)" stroke="white">
      <rect x="595.748" width="30" height="30" y="590.0841" clip-path="url(#clipPath2)" stroke="none"/>
    </g>
    <g text-rendering="geometricPrecision" stroke-miterlimit="1.45" shape-rendering="geometricPrecision" transform="matrix(1,0,0,1,-429,-314)" stroke-linecap="butt">
      <rect fill="none" x="595.748" width="30" height="30" y="590.0841" clip-path="url(#clipPath2)"/>
    </g>
    <g fill="white" text-rendering="geometricPrecision" shape-rendering="geometricPrecision" transform="matrix(1,0,0,1,-429,-314)" stroke="white">
      <rect x="445.748" width="30" height="30" y="640.0841" clip-path="url(#clipPath2)" stroke="none"/>
    </g>
    <g text-rendering="geometricPrecision" stroke-miterlimit="1.45" shape-rendering="geometricPrecision" font-family="sans-serif" transform="matrix(1,0,0,1,-429,-314)" stroke-linecap="butt">
      <text x="453.1367" xml:space="preserve" y="659.2384" clip-path="url(#clipPath2)" stroke="none">np</text>
      <rect fill="none" x="445.748" width="30" height="30" y="640.0841" clip-path="url(#clipPath2)"/>
    </g>
    <g fill="white" text-rendering="geometricPrecision" shape-rendering="geometricPrecision" transform="matrix(1,0,0,1,-429,-314)" stroke="white">
      <rect x="495.748" width="30" height="30" y="640.0841" clip-path="url(#clipPath2)" stroke="none"/>
    </g>
    <g text-rendering="geometricPrecision" stroke-miterlimit="1.45" shape-rendering="geometricPrecision" font-family="sans-serif" transform="matrix(1,0,0,1,-429,-314)" stroke-linecap="butt">
      <text x="497.2305" xml:space="preserve" y="659.2384" clip-path="url(#clipPath2)" stroke="none">verb</text>
    </g>
    <g stroke-linecap="round" transform="matrix(1,0,0,1,-429,-314)" stroke-dashoffset="2" text-rendering="geometricPrecision" shape-rendering="geometricPrecision" stroke-dasharray="0,4" stroke-miterlimit="1.45">
      <rect fill="none" x="495.748" width="30" height="30" y="640.0841" clip-path="url(#clipPath2)"/>
    </g>
    <g fill="white" text-rendering="geometricPrecision" shape-rendering="geometricPrecision" transform="matrix(1,0,0,1,-429,-314)" stroke="white">
      <rect x="545.748" width="30" height="30" y="640.0841" clip-path="url(#clipPath2)" stroke="none"/>
    </g>
    <g text-rendering="geometricPrecision" stroke-miterlimit="1.45" shape-rendering="geometricPrecision" transform="matrix(1,0,0,1,-429,-314)" stroke-linecap="butt">
      <rect fill="none" x="545.748" width="30" height="30" y="640.0841" clip-path="url(#clipPath2)"/>
    </g>
    <g fill="white" text-rendering="geometricPrecision" shape-rendering="geometricPrecision" transform="matrix(1,0,0,1,-429,-314)" stroke="white">
      <rect x="595.748" width="30" height="30" y="640.0841" clip-path="url(#clipPath2)" stroke="none"/>
    </g>
    <g text-rendering="geometricPrecision" stroke-miterlimit="1.45" shape-rendering="geometricPrecision" transform="matrix(1,0,0,1,-429,-314)" stroke-linecap="butt">
      <rect fill="none" x="595.748" width="30" height="30" y="640.0841" clip-path="url(#clipPath2)"/>
    </g>
    <g fill="white" text-rendering="geometricPrecision" shape-rendering="geometricPrecision" transform="matrix(1,0,0,1,-429,-314)" stroke="white">
      <rect x="445.748" width="30" height="30" y="690.0841" clip-path="url(#clipPath2)" stroke="none"/>
    </g>
    <g text-rendering="geometricPrecision" stroke-miterlimit="1.45" shape-rendering="geometricPrecision" font-family="sans-serif" transform="matrix(1,0,0,1,-429,-314)" stroke-linecap="butt">
      <text x="446.999" xml:space="preserve" y="709.2384" clip-path="url(#clipPath2)" stroke="none">pron</text>
    </g>
    <g stroke-linecap="round" transform="matrix(1,0,0,1,-429,-314)" stroke-dashoffset="2" text-rendering="geometricPrecision" shape-rendering="geometricPrecision" stroke-dasharray="0,4" stroke-miterlimit="1.45">
      <rect fill="none" x="445.748" width="30" height="30" y="690.0841" clip-path="url(#clipPath2)"/>
    </g>
    <g fill="white" text-rendering="geometricPrecision" shape-rendering="geometricPrecision" transform="matrix(1,0,0,1,-429,-314)" stroke="white">
      <rect x="495.748" width="30" height="30" y="690.0841" clip-path="url(#clipPath2)" stroke="none"/>
    </g>
    <g text-rendering="geometricPrecision" stroke-miterlimit="1.45" shape-rendering="geometricPrecision" transform="matrix(1,0,0,1,-429,-314)" stroke-linecap="butt">
      <rect fill="none" x="495.748" width="30" height="30" y="690.0841" clip-path="url(#clipPath2)"/>
    </g>
    <g fill="white" text-rendering="geometricPrecision" shape-rendering="geometricPrecision" transform="matrix(1,0,0,1,-429,-314)" stroke="white">
      <rect x="545.748" width="30" height="30" y="690.0841" clip-path="url(#clipPath2)" stroke="none"/>
    </g>
    <g text-rendering="geometricPrecision" stroke-miterlimit="1.45" shape-rendering="geometricPrecision" transform="matrix(1,0,0,1,-429,-314)" stroke-linecap="butt">
      <rect fill="none" x="545.748" width="30" height="30" y="690.0841" clip-path="url(#clipPath2)"/>
    </g>
    <g fill="white" text-rendering="geometricPrecision" shape-rendering="geometricPrecision" transform="matrix(1,0,0,1,-429,-314)" stroke="white">
      <rect x="595.748" width="30" height="30" y="690.0841" clip-path="url(#clipPath2)" stroke="none"/>
    </g>
    <g text-rendering="geometricPrecision" stroke-miterlimit="1.45" shape-rendering="geometricPrecision" transform="matrix(1,0,0,1,-429,-314)" stroke-linecap="butt">
      <rect fill="none" x="595.748" width="30" height="30" y="690.0841" clip-path="url(#clipPath2)"/>
    </g>
    <g fill="white" text-rendering="geometricPrecision" shape-rendering="geometricPrecision" transform="matrix(1,0,0,1,-429,-314)" stroke="white">
      <rect x="445.748" width="180" height="30" y="438.0841" clip-path="url(#clipPath2)" stroke="none"/>
    </g>
    <g text-rendering="geometricPrecision" stroke-miterlimit="1.45" shape-rendering="geometricPrecision" font-family="sans-serif" transform="matrix(1,0,0,1,-429,-314)" stroke-linecap="butt">
      <text x="503.1611" xml:space="preserve" y="457.2384" clip-path="url(#clipPath2)" stroke="none">CKY Matrix</text>
      <rect fill="none" x="445.748" width="180" height="30" y="438.0841" clip-path="url(#clipPath2)"/>
    </g>
    <g fill="white" text-rendering="geometricPrecision" shape-rendering="geometricPrecision" transform="matrix(1,0,0,1,-429,-314)" stroke="white">
      <rect x="891.6269" width="30" height="30" y="490.0841" clip-path="url(#clipPath2)" stroke="none"/>
    </g>
    <g text-rendering="geometricPrecision" stroke-miterlimit="1.45" shape-rendering="geometricPrecision" font-family="sans-serif" transform="matrix(1,0,0,1,-429,-314)" stroke-linecap="butt">
      <text x="903.5009" xml:space="preserve" y="509.2384" clip-path="url(#clipPath2)" stroke="none">s</text>
      <rect fill="none" x="891.6269" width="30" height="30" y="490.0841" clip-path="url(#clipPath2)"/>
    </g>
    <g fill="white" text-rendering="geometricPrecision" shape-rendering="geometricPrecision" transform="matrix(1,0,0,1,-429,-314)" stroke="white">
      <rect x="891.6269" width="30" height="30" y="557.4387" clip-path="url(#clipPath2)" stroke="none"/>
    </g>
    <g text-rendering="geometricPrecision" stroke-miterlimit="1.45" shape-rendering="geometricPrecision" font-family="sans-serif" transform="matrix(1,0,0,1,-429,-314)" stroke-linecap="butt">
      <text x="899.0156" xml:space="preserve" y="576.593" clip-path="url(#clipPath2)" stroke="none">np</text>
      <rect fill="none" x="891.6269" width="30" height="30" y="557.4387" clip-path="url(#clipPath2)"/>
    </g>
    <g fill="white" text-rendering="geometricPrecision" shape-rendering="geometricPrecision" transform="matrix(1,0,0,1,-429,-314)" stroke="white">
      <rect x="891.6269" width="30" height="30" y="624.7934" clip-path="url(#clipPath2)" stroke="none"/>
    </g>
    <g text-rendering="geometricPrecision" stroke-miterlimit="1.45" shape-rendering="geometricPrecision" font-family="sans-serif" transform="matrix(1,0,0,1,-429,-314)" stroke-linecap="butt">
      <text x="892.8779" xml:space="preserve" y="643.9476" clip-path="url(#clipPath2)" stroke="none">pron</text>
      <rect stroke-linecap="round" x="891.6269" y="624.7934" clip-path="url(#clipPath2)" fill="none" width="30" stroke-dasharray="4,3,0,3" height="30"/>
    </g>
    <g fill="white" text-rendering="geometricPrecision" shape-rendering="geometricPrecision" transform="matrix(1,0,0,1,-429,-314)" stroke="white">
      <rect x="965.0389" width="30" height="30" y="557.4387" clip-path="url(#clipPath2)" stroke="none"/>
    </g>
    <g text-rendering="geometricPrecision" stroke-miterlimit="1.45" shape-rendering="geometricPrecision" font-family="sans-serif" transform="matrix(1,0,0,1,-429,-314)" stroke-linecap="butt">
      <text x="972.6795" xml:space="preserve" y="576.593" clip-path="url(#clipPath2)" stroke="none">vp</text>
      <rect fill="none" x="965.0389" width="30" height="30" y="557.4387" clip-path="url(#clipPath2)"/>
    </g>
    <g fill="white" text-rendering="geometricPrecision" shape-rendering="geometricPrecision" transform="matrix(1,0,0,1,-429,-314)" stroke="white">
      <rect x="965.0389" width="30" height="30" y="624.7934" clip-path="url(#clipPath2)" stroke="none"/>
    </g>
    <g text-rendering="geometricPrecision" stroke-miterlimit="1.45" shape-rendering="geometricPrecision" font-family="sans-serif" transform="matrix(1,0,0,1,-429,-314)" stroke-linecap="butt">
      <text x="966.5213" xml:space="preserve" y="643.9476" clip-path="url(#clipPath2)" stroke="none">verb</text>
      <rect stroke-linecap="round" x="965.0389" y="624.7934" clip-path="url(#clipPath2)" fill="none" width="30" stroke-dasharray="4,3,0,3" height="30"/>
    </g>
    <g fill="white" text-rendering="geometricPrecision" shape-rendering="geometricPrecision" transform="matrix(1,0,0,1,-429,-314)" stroke="white">
      <rect x="1038.4509" width="30" height="30" y="624.7934" clip-path="url(#clipPath2)" stroke="none"/>
    </g>
    <g text-rendering="geometricPrecision" stroke-miterlimit="1.45" shape-rendering="geometricPrecision" font-family="sans-serif" transform="matrix(1,0,0,1,-429,-314)" stroke-linecap="butt">
      <text x="1045.8396" xml:space="preserve" y="643.9476" clip-path="url(#clipPath2)" stroke="none">np</text>
      <rect fill="none" x="1038.4509" width="30" height="30" y="624.7934" clip-path="url(#clipPath2)"/>
    </g>
    <g fill="white" text-rendering="geometricPrecision" shape-rendering="geometricPrecision" transform="matrix(1,0,0,1,-429,-314)" stroke="white">
      <rect x="1038.4509" width="30" height="30" y="684.7934" clip-path="url(#clipPath2)" stroke="none"/>
    </g>
    <g text-rendering="geometricPrecision" stroke-miterlimit="1.45" shape-rendering="geometricPrecision" font-family="sans-serif" transform="matrix(1,0,0,1,-429,-314)" stroke-linecap="butt">
      <text x="1043.5984" xml:space="preserve" y="703.9476" clip-path="url(#clipPath2)" stroke="none">det</text>
      <rect stroke-linecap="round" x="1038.4509" y="684.7934" clip-path="url(#clipPath2)" fill="none" width="30" stroke-dasharray="4,3,0,3" height="30"/>
    </g>
    <g fill="white" text-rendering="geometricPrecision" shape-rendering="geometricPrecision" transform="matrix(1,0,0,1,-429,-314)" stroke="white">
      <rect x="1111.8629" width="30" height="30" y="684.7934" clip-path="url(#clipPath2)" stroke="none"/>
    </g>
    <g text-rendering="geometricPrecision" stroke-miterlimit="1.45" shape-rendering="geometricPrecision" font-family="sans-serif" transform="matrix(1,0,0,1,-429,-314)" stroke-linecap="butt">
      <text x="1113.5446" xml:space="preserve" y="703.9476" clip-path="url(#clipPath2)" stroke="none">nom</text>
      <rect fill="none" x="1111.8629" width="30" height="30" y="684.7934" clip-path="url(#clipPath2)"/>
    </g>
    <g fill="white" text-rendering="geometricPrecision" shape-rendering="geometricPrecision" transform="matrix(1,0,0,1,-429,-314)" stroke="white">
      <rect x="1111.8629" width="30" height="30" y="744.7934" clip-path="url(#clipPath2)" stroke="none"/>
    </g>
    <g text-rendering="geometricPrecision" stroke-miterlimit="1.45" shape-rendering="geometricPrecision" font-family="sans-serif" transform="matrix(1,0,0,1,-429,-314)" stroke-linecap="butt">
      <text x="1111.7838" xml:space="preserve" y="763.9476" clip-path="url(#clipPath2)" stroke="none">noun</text>
      <rect stroke-linecap="round" x="1111.8629" y="744.7934" clip-path="url(#clipPath2)" fill="none" width="30" stroke-dasharray="4,3,0,3" height="30"/>
    </g>
    <g fill="white" text-rendering="geometricPrecision" shape-rendering="geometricPrecision" transform="matrix(1,0,0,1,-429,-314)" stroke="white">
      <rect x="736.8629" width="405" height="30" y="448.0841" clip-path="url(#clipPath2)" stroke="none"/>
    </g>
    <g text-rendering="geometricPrecision" stroke-miterlimit="1.45" shape-rendering="geometricPrecision" font-family="sans-serif" transform="matrix(1,0,0,1,-429,-314)" stroke-linecap="butt">
      <text x="925.8482" xml:space="preserve" y="467.2384" clip-path="url(#clipPath2)" stroke="none">Tree</text>
      <rect fill="none" x="736.8629" width="405" height="30" y="448.0841" clip-path="url(#clipPath2)"/>
    </g>
    <g fill="white" text-rendering="geometricPrecision" shape-rendering="geometricPrecision" transform="matrix(1,0,0,1,-429,-314)" stroke="white">
      <rect x="445.748" width="180" height="30" y="750.0841" clip-path="url(#clipPath2)" stroke="none"/>
    </g>
    <g text-rendering="geometricPrecision" stroke-miterlimit="1.45" shape-rendering="geometricPrecision" font-family="sans-serif" transform="matrix(1,0,0,1,-429,-314)" stroke-linecap="butt">
      <text x="477.1133" xml:space="preserve" y="769.2384" clip-path="url(#clipPath2)" stroke="none">Stack &amp; Line Status</text>
      <rect fill="none" x="445.748" width="180" height="30" y="750.0841" clip-path="url(#clipPath2)"/>
    </g>
    <g fill="white" text-rendering="geometricPrecision" shape-rendering="geometricPrecision" transform="matrix(1,0,0,1,-429,-314)" stroke="white">
      <rect x="445.748" width="696.1148" height="44.6667" y="329.026" clip-path="url(#clipPath2)" stroke="none"/>
    </g>
    <g font-size="11px" stroke-linecap="butt" transform="matrix(1,0,0,1,-429,-314)" text-rendering="geometricPrecision" font-family="sans-serif" shape-rendering="geometricPrecision" stroke-miterlimit="1.45">
      <text x="711.2598" xml:space="preserve" y="342.3627" clip-path="url(#clipPath2)" stroke="none">Tree_DFS of "I am a Function"</text>
      <text x="744.3619" xml:space="preserve" y="355.1674" clip-path="url(#clipPath2)" stroke="none">First Permutation:</text>
      <text x="739.0069" xml:space="preserve" y="367.9721" clip-path="url(#clipPath2)" stroke="none">Pron Verb Det Noun</text>
      <rect fill="none" x="445.748" width="696.1148" height="44.6667" y="329.026" clip-path="url(#clipPath2)"/>
    </g>
    <g fill="white" text-rendering="geometricPrecision" shape-rendering="geometricPrecision" transform="matrix(1,0,0,1,-429,-314)" stroke="white">
      <rect x="445.748" width="696.1148" height="30" y="395.8884" clip-path="url(#clipPath2)" stroke="none"/>
    </g>
    <g text-rendering="geometricPrecision" stroke-miterlimit="1.45" shape-rendering="geometricPrecision" font-family="sans-serif" transform="matrix(1,0,0,1,-429,-314)" stroke-linecap="butt">
      <text x="774.4197" xml:space="preserve" y="415.0427" clip-path="url(#clipPath2)" stroke="none">Step 9</text>
      <rect fill="none" x="445.748" width="696.1148" height="30" y="395.8884" clip-path="url(#clipPath2)"/>
    </g>
    <g fill="white" text-rendering="geometricPrecision" shape-rendering="geometricPrecision" transform="matrix(1,0,0,1,-429,-314)" stroke="white">
      <rect x="445.748" width="696.1148" height="30" y="898.5984" clip-path="url(#clipPath2)" stroke="none"/>
    </g>
    <g text-rendering="geometricPrecision" stroke-miterlimit="1.45" shape-rendering="geometricPrecision" font-family="sans-serif" transform="matrix(1,0,0,1,-429,-314)" stroke-linecap="butt">
      <text x="765.3758" xml:space="preserve" y="917.7527" clip-path="url(#clipPath2)" stroke="none">Figure 39</text>
      <rect fill="none" x="445.748" width="696.1148" height="30" y="898.5984" clip-path="url(#clipPath2)"/>
      <path fill="none" d="M495.748 505.0841 L483.748 505.0841" clip-path="url(#clipPath2)"/>
      <path d="M475.748 505.0841 L487.748 510.0841 L484.748 505.0841 L487.748 500.0841 Z" clip-path="url(#clipPath2)" stroke="none"/>
      <path fill="none" d="M545.748 505.0841 L533.748 505.0841" clip-path="url(#clipPath2)"/>
      <path d="M525.748 505.0841 L537.748 510.0841 L534.748 505.0841 L537.748 500.0841 Z" clip-path="url(#clipPath2)" stroke="none"/>
      <path fill="none" d="M595.748 505.0841 L583.748 505.0841" clip-path="url(#clipPath2)"/>
      <path d="M575.748 505.0841 L587.748 510.0841 L584.748 505.0841 L587.748 500.0841 Z" clip-path="url(#clipPath2)" stroke="none"/>
      <path fill="none" d="M460.748 540.0841 L460.748 528.0841" clip-path="url(#clipPath2)"/>
      <path d="M460.748 520.0841 L455.748 532.0841 L460.748 529.0841 L465.748 532.0841 Z" clip-path="url(#clipPath2)" stroke="none"/>
    </g>
    <g text-rendering="geometricPrecision" stroke-miterlimit="1.45" shape-rendering="geometricPrecision" transform="matrix(1,0,0,1,-429,-314)" stroke-linecap="butt">
      <path fill="none" d="M510.748 520.0841 L504.498 535.0841 L509.248 532.2341 L509.248 532.2341 L509.248 540.0841 L512.248 540.0841 L512.248 532.2341 L516.998 535.0841 L510.748 520.0841 Z" clip-path="url(#clipPath2)"/>
    </g>
    <g text-rendering="geometricPrecision" stroke-miterlimit="1.45" shape-rendering="geometricPrecision" transform="matrix(1,0,0,1,-429,-314)" stroke-linecap="butt">
      <path fill="none" d="M560.748 540.0841 L560.748 528.0841" clip-path="url(#clipPath2)"/>
      <path d="M560.748 520.0841 L555.748 532.0841 L560.748 529.0841 L565.748 532.0841 Z" clip-path="url(#clipPath2)" stroke="none"/>
      <path fill="none" d="M610.748 540.0841 L610.748 528.0841" clip-path="url(#clipPath2)"/>
      <path d="M610.748 520.0841 L605.748 532.0841 L610.748 529.0841 L615.748 532.0841 Z" clip-path="url(#clipPath2)" stroke="none"/>
    </g>
    <g text-rendering="geometricPrecision" stroke-miterlimit="1.45" shape-rendering="geometricPrecision" transform="matrix(1,0,0,1,-429,-314)" stroke-linecap="butt">
      <path fill="none" d="M460.748 570.0841 L454.498 585.0841 L459.248 582.2341 L459.248 582.2341 L459.248 590.0841 L462.248 590.0841 L462.248 582.2341 L462.248 582.2341 L466.998 585.0841 L460.748 570.0841 Z" clip-path="url(#clipPath2)"/>
    </g>
    <g text-rendering="geometricPrecision" stroke-miterlimit="1.45" shape-rendering="geometricPrecision" transform="matrix(1,0,0,1,-429,-314)" stroke-linecap="butt">
      <path fill="none" d="M510.748 570.0841 L504.498 585.0841 L509.248 582.2341 L509.248 582.2341 L509.248 590.0841 L512.248 590.0841 L512.248 582.2341 L516.998 585.0841 L510.748 570.0841 Z" clip-path="url(#clipPath2)"/>
    </g>
    <g text-rendering="geometricPrecision" stroke-miterlimit="1.45" shape-rendering="geometricPrecision" transform="matrix(1,0,0,1,-429,-314)" stroke-linecap="butt">
      <path fill="none" d="M560.748 570.0841 L554.498 585.0841 L559.248 582.2341 L559.248 590.0841 L562.248 590.0841 L562.248 582.2341 L566.998 585.0841 L560.748 570.0841 Z" clip-path="url(#clipPath2)"/>
    </g>
    <g text-rendering="geometricPrecision" stroke-miterlimit="1.45" shape-rendering="geometricPrecision" transform="matrix(1,0,0,1,-429,-314)" stroke-linecap="butt">
      <path fill="none" d="M460.748 620.0841 L454.498 635.0841 L459.248 632.2341 L459.248 632.2341 L459.248 640.0841 L462.248 640.0841 L462.248 632.2341 L462.248 632.2341 L466.998 635.0841 L460.748 620.0841 Z" clip-path="url(#clipPath2)"/>
    </g>
    <g text-rendering="geometricPrecision" stroke-miterlimit="1.45" shape-rendering="geometricPrecision" transform="matrix(1,0,0,1,-429,-314)" stroke-linecap="butt">
      <path fill="none" d="M510.748 640.0841 L510.748 628.0841" clip-path="url(#clipPath2)"/>
      <path d="M510.748 620.0841 L505.748 632.0841 L510.748 629.0841 L515.748 632.0841 Z" clip-path="url(#clipPath2)" stroke="none"/>
      <path fill="none" d="M460.748 690.0841 L460.748 678.0841" clip-path="url(#clipPath2)"/>
      <path d="M460.748 670.0841 L455.748 682.0841 L460.748 679.0841 L465.748 682.0841 Z" clip-path="url(#clipPath2)" stroke="none"/>
      <path fill="none" d="M906.6269 520.0841 L906.6269 549.4387" clip-path="url(#clipPath2)"/>
      <path d="M906.6269 557.4387 L911.6269 545.4387 L906.6269 548.4387 L901.6269 545.4387 Z" clip-path="url(#clipPath2)" stroke="none"/>
      <path fill="none" d="M906.6269 587.4387 L906.6269 616.7933" clip-path="url(#clipPath2)"/>
      <path d="M906.6269 624.7933 L911.6269 612.7933 L906.6269 615.7933 L901.6269 612.7933 Z" clip-path="url(#clipPath2)" stroke="none"/>
      <path fill="none" d="M921.6269 518.8464 L959.1441 553.2679" clip-path="url(#clipPath2)"/>
      <path d="M965.0389 558.6764 L959.577 546.8795 L958.4072 552.5919 L952.8164 554.2479 Z" clip-path="url(#clipPath2)" stroke="none"/>
      <path fill="none" d="M980.0389 587.4387 L980.0389 616.7933" clip-path="url(#clipPath2)"/>
      <path d="M980.0389 624.7933 L985.0389 612.7933 L980.0389 615.7933 L975.0389 612.7933 Z" clip-path="url(#clipPath2)" stroke="none"/>
      <path fill="none" d="M995.0389 586.201 L1032.556 620.6226" clip-path="url(#clipPath2)"/>
      <path d="M1038.4509 626.031 L1032.9889 614.2341 L1031.8192 619.9466 L1026.2284 621.6028 Z" clip-path="url(#clipPath2)" stroke="none"/>
      <path fill="none" d="M1053.4509 654.7933 L1053.4509 676.7933" clip-path="url(#clipPath2)"/>
      <path d="M1053.4509 684.7933 L1058.4509 672.7933 L1053.4509 675.7933 L1048.4509 672.7933 Z" clip-path="url(#clipPath2)" stroke="none"/>
      <path fill="none" d="M1068.4509 652.0529 L1105.6686 682.4711" clip-path="url(#clipPath2)"/>
      <path d="M1111.8629 687.5338 L1105.7356 676.0684 L1104.8943 681.8383 L1099.4072 683.8113 Z" clip-path="url(#clipPath2)" stroke="none"/>
      <path fill="none" d="M1126.8629 714.7933 L1126.8629 736.7933" clip-path="url(#clipPath2)"/>
      <path d="M1126.8629 744.7933 L1131.8629 732.7933 L1126.8629 735.7933 L1121.8629 732.7933 Z" clip-path="url(#clipPath2)" stroke="none"/>
    </g>
  </g>
</svg>
