<?xml version="1.0" encoding="UTF-8"?><svg xmlns="http://www.w3.org/2000/svg" xmlns:xlink="http://www.w3.org/1999/xlink" fill-opacity="1" color-rendering="auto" color-interpolation="auto" text-rendering="auto" stroke="black" stroke-linecap="square" width="554" stroke-miterlimit="10" shape-rendering="auto" stroke-opacity="1" fill="black" stroke-dasharray="none" font-weight="normal" stroke-width="1" height="682" font-family="'Dialog'" font-style="normal" stroke-linejoin="miter" font-size="12px" stroke-dashoffset="0" image-rendering="auto">
  <!--Generated by ySVG 2.5-->
  <defs id="genericDefs"/>
  <g>
    <defs id="defs1">
      <clipPath clipPathUnits="userSpaceOnUse" id="clipPath1">
        <path d="M0 0 L554 0 L554 682 L0 682 L0 0 Z"/>
      </clipPath>
      <clipPath clipPathUnits="userSpaceOnUse" id="clipPath2">
        <path d="M430 314 L984 314 L984 996 L430 996 L430 314 Z"/>
      </clipPath>
    </defs>
    <g fill="white" text-rendering="geometricPrecision" shape-rendering="geometricPrecision" transform="translate(-430,-314)" stroke="white">
      <rect x="430" width="554" height="682" y="314" clip-path="url(#clipPath2)" stroke="none"/>
    </g>
    <g font-size="15px" stroke-linecap="butt" transform="matrix(1,0,0,1,-430,-314)" text-rendering="geometricPrecision" font-family="sans-serif" shape-rendering="geometricPrecision" stroke-miterlimit="1.45">
      <text x="462.9418" xml:space="preserve" y="818.4507" clip-path="url(#clipPath2)" stroke="none">Stack</text>
      <rect x="445.353" y="802.5273" clip-path="url(#clipPath2)" fill="none" width="61.1172" stroke-dasharray="6,2" rx="4" ry="4" height="125.4609"/>
    </g>
    <g fill="white" text-rendering="geometricPrecision" shape-rendering="geometricPrecision" transform="matrix(1,0,0,1,-430,-314)" stroke="white">
      <rect x="460.353" width="30" height="30" y="880.9883" clip-path="url(#clipPath2)" stroke="none"/>
    </g>
    <g text-rendering="geometricPrecision" stroke-miterlimit="1.45" shape-rendering="geometricPrecision" font-family="sans-serif" transform="matrix(1,0,0,1,-430,-314)" stroke-linecap="butt">
      <text x="473.0121" xml:space="preserve" y="900.1426" clip-path="url(#clipPath2)" stroke="none">)</text>
      <rect fill="none" x="460.353" width="30" height="30" y="880.9883" clip-path="url(#clipPath2)"/>
    </g>
    <g fill="white" text-rendering="geometricPrecision" shape-rendering="geometricPrecision" transform="matrix(1,0,0,1,-430,-314)" stroke="white">
      <rect x="460.353" width="30" height="30" y="838.9883" clip-path="url(#clipPath2)" stroke="none"/>
    </g>
    <g text-rendering="geometricPrecision" stroke-miterlimit="1.45" shape-rendering="geometricPrecision" font-family="sans-serif" transform="matrix(1,0,0,1,-430,-314)" stroke-linecap="butt">
      <text x="467.9936" xml:space="preserve" y="858.1426" clip-path="url(#clipPath2)" stroke="none">vp</text>
      <rect fill="none" x="460.353" width="30" height="30" y="838.9883" clip-path="url(#clipPath2)"/>
      <text x="721.6973" xml:space="preserve" font-size="15px" y="818.4507" clip-path="url(#clipPath2)" stroke="none">Line</text>
      <rect x="547.9571" y="802.5273" clip-path="url(#clipPath2)" fill="none" width="207" stroke-dasharray="6,2" rx="4" ry="4" height="81.4609"/>
    </g>
    <g fill="white" text-rendering="geometricPrecision" shape-rendering="geometricPrecision" transform="matrix(1,0,0,1,-430,-314)" stroke="white">
      <rect x="562.9571" width="30" height="30" y="838.9883" clip-path="url(#clipPath2)" stroke="none"/>
    </g>
    <g text-rendering="geometricPrecision" stroke-miterlimit="1.45" shape-rendering="geometricPrecision" font-family="sans-serif" transform="matrix(1,0,0,1,-430,-314)" stroke-linecap="butt">
      <text x="574.8311" xml:space="preserve" y="858.1426" clip-path="url(#clipPath2)" stroke="none">s</text>
      <rect fill="none" x="562.9571" width="30" height="30" y="838.9883" clip-path="url(#clipPath2)"/>
    </g>
    <g fill="white" text-rendering="geometricPrecision" shape-rendering="geometricPrecision" transform="matrix(1,0,0,1,-430,-314)" stroke="white">
      <rect x="592.9571" width="30" height="30" y="838.9883" clip-path="url(#clipPath2)" stroke="none"/>
    </g>
    <g text-rendering="geometricPrecision" stroke-miterlimit="1.45" shape-rendering="geometricPrecision" font-family="sans-serif" transform="matrix(1,0,0,1,-430,-314)" stroke-linecap="butt">
      <text x="605.6163" xml:space="preserve" y="858.1426" clip-path="url(#clipPath2)" stroke="none">(</text>
      <rect fill="none" x="592.9571" width="30" height="30" y="838.9883" clip-path="url(#clipPath2)"/>
    </g>
    <g fill="white" text-rendering="geometricPrecision" shape-rendering="geometricPrecision" transform="matrix(1,0,0,1,-430,-314)" stroke="white">
      <rect x="622.9571" width="30" height="30" y="838.9883" clip-path="url(#clipPath2)" stroke="none"/>
    </g>
    <g text-rendering="geometricPrecision" stroke-miterlimit="1.45" shape-rendering="geometricPrecision" font-family="sans-serif" transform="matrix(1,0,0,1,-430,-314)" stroke-linecap="butt">
      <text x="630.3458" xml:space="preserve" y="858.1426" clip-path="url(#clipPath2)" stroke="none">np</text>
      <rect fill="none" x="622.9571" width="30" height="30" y="838.9883" clip-path="url(#clipPath2)"/>
    </g>
    <g fill="white" text-rendering="geometricPrecision" shape-rendering="geometricPrecision" transform="matrix(1,0,0,1,-430,-314)" stroke="white">
      <rect x="652.9571" width="30" height="30" y="838.9883" clip-path="url(#clipPath2)" stroke="none"/>
    </g>
    <g text-rendering="geometricPrecision" stroke-miterlimit="1.45" shape-rendering="geometricPrecision" font-family="sans-serif" transform="matrix(1,0,0,1,-430,-314)" stroke-linecap="butt">
      <text x="665.6163" xml:space="preserve" y="858.1426" clip-path="url(#clipPath2)" stroke="none">(</text>
      <rect fill="none" x="652.9571" width="30" height="30" y="838.9883" clip-path="url(#clipPath2)"/>
    </g>
    <g fill="white" text-rendering="geometricPrecision" shape-rendering="geometricPrecision" transform="matrix(1,0,0,1,-430,-314)" stroke="white">
      <rect x="709.9571" width="30" height="30" y="838.9883" clip-path="url(#clipPath2)" stroke="none"/>
    </g>
    <g text-rendering="geometricPrecision" stroke-miterlimit="1.45" shape-rendering="geometricPrecision" font-family="sans-serif" transform="matrix(1,0,0,1,-430,-314)" stroke-linecap="butt">
      <text x="722.6163" xml:space="preserve" y="858.1426" clip-path="url(#clipPath2)" stroke="none">)</text>
      <rect fill="none" x="709.9571" width="30" height="30" y="838.9883" clip-path="url(#clipPath2)"/>
    </g>
    <g fill="white" text-rendering="geometricPrecision" shape-rendering="geometricPrecision" transform="matrix(1,0,0,1,-430,-314)" stroke="white">
      <rect x="679.9571" width="30" height="30" y="838.9883" clip-path="url(#clipPath2)" stroke="none"/>
    </g>
    <g text-rendering="geometricPrecision" stroke-miterlimit="1.45" shape-rendering="geometricPrecision" font-family="sans-serif" transform="matrix(1,0,0,1,-430,-314)" stroke-linecap="butt">
      <text x="681.3985" xml:space="preserve" y="858.1426" clip-path="url(#clipPath2)" stroke="none">Pron</text>
      <rect fill="none" x="679.9571" width="30" height="30" y="838.9883" clip-path="url(#clipPath2)"/>
    </g>
    <g fill="white" text-rendering="geometricPrecision" shape-rendering="geometricPrecision" transform="matrix(1,0,0,1,-430,-314)" stroke="white">
      <rect x="449.155" width="30" height="30" y="500.3316" clip-path="url(#clipPath2)" stroke="none"/>
    </g>
    <g text-rendering="geometricPrecision" stroke-miterlimit="1.45" shape-rendering="geometricPrecision" font-family="sans-serif" transform="matrix(1,0,0,1,-430,-314)" stroke-linecap="butt">
      <text x="461.0291" xml:space="preserve" y="519.4859" clip-path="url(#clipPath2)" stroke="none">s</text>
    </g>
    <g stroke-linecap="round" transform="matrix(1,0,0,1,-430,-314)" stroke-dashoffset="2" text-rendering="geometricPrecision" shape-rendering="geometricPrecision" stroke-dasharray="0,4" stroke-miterlimit="1.45">
      <rect fill="none" x="449.155" width="30" height="30" y="500.3316" clip-path="url(#clipPath2)"/>
    </g>
    <g fill="white" text-rendering="geometricPrecision" shape-rendering="geometricPrecision" transform="matrix(1,0,0,1,-430,-314)" stroke="white">
      <rect x="499.155" width="30" height="30" y="500.3316" clip-path="url(#clipPath2)" stroke="none"/>
    </g>
    <g text-rendering="geometricPrecision" stroke-miterlimit="1.45" shape-rendering="geometricPrecision" font-family="sans-serif" transform="matrix(1,0,0,1,-430,-314)" stroke-linecap="butt">
      <text x="506.7957" xml:space="preserve" y="519.4859" clip-path="url(#clipPath2)" stroke="none">vp</text>
      <rect x="499.155" y="500.3316" clip-path="url(#clipPath2)" fill="none" width="30" stroke-dasharray="12,4" height="30" stroke-width="2"/>
    </g>
    <g fill="white" text-rendering="geometricPrecision" shape-rendering="geometricPrecision" transform="matrix(1,0,0,1,-430,-314)" stroke="white">
      <rect x="549.155" width="30" height="30" y="500.3316" clip-path="url(#clipPath2)" stroke="none"/>
    </g>
    <g text-rendering="geometricPrecision" stroke-miterlimit="1.45" shape-rendering="geometricPrecision" font-family="sans-serif" transform="matrix(1,0,0,1,-430,-314)" stroke-linecap="butt">
      <text x="554.3025" xml:space="preserve" y="519.4859" clip-path="url(#clipPath2)" stroke="none">det</text>
      <rect fill="none" x="549.155" width="30" height="30" y="500.3316" clip-path="url(#clipPath2)"/>
    </g>
    <g fill="white" text-rendering="geometricPrecision" shape-rendering="geometricPrecision" transform="matrix(1,0,0,1,-430,-314)" stroke="white">
      <rect x="599.155" width="30" height="30" y="500.3316" clip-path="url(#clipPath2)" stroke="none"/>
    </g>
    <g text-rendering="geometricPrecision" stroke-miterlimit="1.45" shape-rendering="geometricPrecision" font-family="sans-serif" transform="matrix(1,0,0,1,-430,-314)" stroke-linecap="butt">
      <text x="606.7957" xml:space="preserve" y="519.4859" clip-path="url(#clipPath2)" stroke="none">vp</text>
      <rect fill="none" x="599.155" width="30" height="30" y="500.3316" clip-path="url(#clipPath2)"/>
    </g>
    <g fill="white" text-rendering="geometricPrecision" shape-rendering="geometricPrecision" transform="matrix(1,0,0,1,-430,-314)" stroke="white">
      <rect x="449.155" width="30" height="30" y="550.3316" clip-path="url(#clipPath2)" stroke="none"/>
    </g>
    <g text-rendering="geometricPrecision" stroke-miterlimit="1.45" shape-rendering="geometricPrecision" font-family="sans-serif" transform="matrix(1,0,0,1,-430,-314)" stroke-linecap="butt">
      <text x="456.5437" xml:space="preserve" y="569.4859" clip-path="url(#clipPath2)" stroke="none">np</text>
    </g>
    <g stroke-linecap="round" transform="matrix(1,0,0,1,-430,-314)" stroke-dashoffset="2" text-rendering="geometricPrecision" shape-rendering="geometricPrecision" stroke-dasharray="0,4" stroke-miterlimit="1.45">
      <rect fill="none" x="449.155" width="30" height="30" y="550.3316" clip-path="url(#clipPath2)"/>
    </g>
    <g fill="white" text-rendering="geometricPrecision" shape-rendering="geometricPrecision" transform="matrix(1,0,0,1,-430,-314)" stroke="white">
      <rect x="499.155" width="30" height="30" y="550.3316" clip-path="url(#clipPath2)" stroke="none"/>
    </g>
    <g text-rendering="geometricPrecision" stroke-miterlimit="1.45" shape-rendering="geometricPrecision" font-family="sans-serif" transform="matrix(1,0,0,1,-430,-314)" stroke-linecap="butt">
      <text x="506.7957" xml:space="preserve" y="569.4859" clip-path="url(#clipPath2)" stroke="none">vp</text>
      <rect fill="none" x="499.155" width="30" height="30" y="550.3316" clip-path="url(#clipPath2)"/>
    </g>
    <g fill="white" text-rendering="geometricPrecision" shape-rendering="geometricPrecision" transform="matrix(1,0,0,1,-430,-314)" stroke="white">
      <rect x="549.155" width="30" height="30" y="550.3316" clip-path="url(#clipPath2)" stroke="none"/>
    </g>
    <g text-rendering="geometricPrecision" stroke-miterlimit="1.45" shape-rendering="geometricPrecision" font-family="sans-serif" transform="matrix(1,0,0,1,-430,-314)" stroke-linecap="butt">
      <text x="554.3025" xml:space="preserve" y="569.4859" clip-path="url(#clipPath2)" stroke="none">det</text>
      <rect fill="none" x="549.155" width="30" height="30" y="550.3316" clip-path="url(#clipPath2)"/>
    </g>
    <g fill="white" text-rendering="geometricPrecision" shape-rendering="geometricPrecision" transform="matrix(1,0,0,1,-430,-314)" stroke="white">
      <rect x="599.155" width="30" height="30" y="550.3316" clip-path="url(#clipPath2)" stroke="none"/>
    </g>
    <g text-rendering="geometricPrecision" stroke-miterlimit="1.45" shape-rendering="geometricPrecision" font-family="sans-serif" transform="matrix(1,0,0,1,-430,-314)" stroke-linecap="butt">
      <text x="600.6375" xml:space="preserve" y="569.4859" clip-path="url(#clipPath2)" stroke="none">verb</text>
      <rect fill="none" x="599.155" width="30" height="30" y="550.3316" clip-path="url(#clipPath2)"/>
    </g>
    <g fill="white" text-rendering="geometricPrecision" shape-rendering="geometricPrecision" transform="matrix(1,0,0,1,-430,-314)" stroke="white">
      <rect x="449.155" width="30" height="30" y="600.3316" clip-path="url(#clipPath2)" stroke="none"/>
    </g>
    <g text-rendering="geometricPrecision" stroke-miterlimit="1.45" shape-rendering="geometricPrecision" font-family="sans-serif" transform="matrix(1,0,0,1,-430,-314)" stroke-linecap="butt">
      <text x="456.5437" xml:space="preserve" y="619.4859" clip-path="url(#clipPath2)" stroke="none">np</text>
      <rect fill="none" x="449.155" width="30" height="30" y="600.3316" clip-path="url(#clipPath2)"/>
    </g>
    <g fill="white" text-rendering="geometricPrecision" shape-rendering="geometricPrecision" transform="matrix(1,0,0,1,-430,-314)" stroke="white">
      <rect x="499.155" width="30" height="30" y="600.3316" clip-path="url(#clipPath2)" stroke="none"/>
    </g>
    <g text-rendering="geometricPrecision" stroke-miterlimit="1.45" shape-rendering="geometricPrecision" font-family="sans-serif" transform="matrix(1,0,0,1,-430,-314)" stroke-linecap="butt">
      <text x="506.7957" xml:space="preserve" y="619.4859" clip-path="url(#clipPath2)" stroke="none">vp</text>
      <rect fill="none" x="499.155" width="30" height="30" y="600.3316" clip-path="url(#clipPath2)"/>
    </g>
    <g fill="white" text-rendering="geometricPrecision" shape-rendering="geometricPrecision" transform="matrix(1,0,0,1,-430,-314)" stroke="white">
      <rect x="549.155" width="30" height="30" y="600.3316" clip-path="url(#clipPath2)" stroke="none"/>
    </g>
    <g text-rendering="geometricPrecision" stroke-miterlimit="1.45" shape-rendering="geometricPrecision" font-family="sans-serif" transform="matrix(1,0,0,1,-430,-314)" stroke-linecap="butt">
      <text x="554.3025" xml:space="preserve" y="619.4859" clip-path="url(#clipPath2)" stroke="none">det</text>
      <rect fill="none" x="549.155" width="30" height="30" y="600.3316" clip-path="url(#clipPath2)"/>
    </g>
    <g fill="white" text-rendering="geometricPrecision" shape-rendering="geometricPrecision" transform="matrix(1,0,0,1,-430,-314)" stroke="white">
      <rect x="599.155" width="30" height="30" y="600.3316" clip-path="url(#clipPath2)" stroke="none"/>
    </g>
    <g text-rendering="geometricPrecision" stroke-miterlimit="1.45" shape-rendering="geometricPrecision" transform="matrix(1,0,0,1,-430,-314)" stroke-linecap="butt">
      <rect fill="none" x="599.155" width="30" height="30" y="600.3316" clip-path="url(#clipPath2)"/>
    </g>
    <g fill="white" text-rendering="geometricPrecision" shape-rendering="geometricPrecision" transform="matrix(1,0,0,1,-430,-314)" stroke="white">
      <rect x="449.155" width="30" height="30" y="650.3316" clip-path="url(#clipPath2)" stroke="none"/>
    </g>
    <g text-rendering="geometricPrecision" stroke-miterlimit="1.45" shape-rendering="geometricPrecision" font-family="sans-serif" transform="matrix(1,0,0,1,-430,-314)" stroke-linecap="butt">
      <text x="456.5437" xml:space="preserve" y="669.4859" clip-path="url(#clipPath2)" stroke="none">np</text>
      <rect fill="none" x="449.155" width="30" height="30" y="650.3316" clip-path="url(#clipPath2)"/>
    </g>
    <g fill="white" text-rendering="geometricPrecision" shape-rendering="geometricPrecision" transform="matrix(1,0,0,1,-430,-314)" stroke="white">
      <rect x="499.155" width="30" height="30" y="650.3316" clip-path="url(#clipPath2)" stroke="none"/>
    </g>
    <g text-rendering="geometricPrecision" stroke-miterlimit="1.45" shape-rendering="geometricPrecision" font-family="sans-serif" transform="matrix(1,0,0,1,-430,-314)" stroke-linecap="butt">
      <text x="500.6375" xml:space="preserve" y="669.4859" clip-path="url(#clipPath2)" stroke="none">verb</text>
      <rect fill="none" x="499.155" width="30" height="30" y="650.3316" clip-path="url(#clipPath2)"/>
    </g>
    <g fill="white" text-rendering="geometricPrecision" shape-rendering="geometricPrecision" transform="matrix(1,0,0,1,-430,-314)" stroke="white">
      <rect x="549.155" width="30" height="30" y="650.3316" clip-path="url(#clipPath2)" stroke="none"/>
    </g>
    <g text-rendering="geometricPrecision" stroke-miterlimit="1.45" shape-rendering="geometricPrecision" transform="matrix(1,0,0,1,-430,-314)" stroke-linecap="butt">
      <rect fill="none" x="549.155" width="30" height="30" y="650.3316" clip-path="url(#clipPath2)"/>
    </g>
    <g fill="white" text-rendering="geometricPrecision" shape-rendering="geometricPrecision" transform="matrix(1,0,0,1,-430,-314)" stroke="white">
      <rect x="599.155" width="30" height="30" y="650.3316" clip-path="url(#clipPath2)" stroke="none"/>
    </g>
    <g text-rendering="geometricPrecision" stroke-miterlimit="1.45" shape-rendering="geometricPrecision" transform="matrix(1,0,0,1,-430,-314)" stroke-linecap="butt">
      <rect fill="none" x="599.155" width="30" height="30" y="650.3316" clip-path="url(#clipPath2)"/>
    </g>
    <g fill="white" text-rendering="geometricPrecision" shape-rendering="geometricPrecision" transform="matrix(1,0,0,1,-430,-314)" stroke="white">
      <rect x="449.155" width="30" height="30" y="700.3316" clip-path="url(#clipPath2)" stroke="none"/>
    </g>
    <g text-rendering="geometricPrecision" stroke-miterlimit="1.45" shape-rendering="geometricPrecision" font-family="sans-serif" transform="matrix(1,0,0,1,-430,-314)" stroke-linecap="butt">
      <text x="450.406" xml:space="preserve" y="719.4859" clip-path="url(#clipPath2)" stroke="none">pron</text>
    </g>
    <g stroke-linecap="round" transform="matrix(1,0,0,1,-430,-314)" stroke-dashoffset="2" text-rendering="geometricPrecision" shape-rendering="geometricPrecision" stroke-dasharray="0,4" stroke-miterlimit="1.45">
      <rect fill="none" x="449.155" width="30" height="30" y="700.3316" clip-path="url(#clipPath2)"/>
    </g>
    <g fill="white" text-rendering="geometricPrecision" shape-rendering="geometricPrecision" transform="matrix(1,0,0,1,-430,-314)" stroke="white">
      <rect x="499.155" width="30" height="30" y="700.3316" clip-path="url(#clipPath2)" stroke="none"/>
    </g>
    <g text-rendering="geometricPrecision" stroke-miterlimit="1.45" shape-rendering="geometricPrecision" transform="matrix(1,0,0,1,-430,-314)" stroke-linecap="butt">
      <rect fill="none" x="499.155" width="30" height="30" y="700.3316" clip-path="url(#clipPath2)"/>
    </g>
    <g fill="white" text-rendering="geometricPrecision" shape-rendering="geometricPrecision" transform="matrix(1,0,0,1,-430,-314)" stroke="white">
      <rect x="549.155" width="30" height="30" y="700.3316" clip-path="url(#clipPath2)" stroke="none"/>
    </g>
    <g text-rendering="geometricPrecision" stroke-miterlimit="1.45" shape-rendering="geometricPrecision" transform="matrix(1,0,0,1,-430,-314)" stroke-linecap="butt">
      <rect fill="none" x="549.155" width="30" height="30" y="700.3316" clip-path="url(#clipPath2)"/>
    </g>
    <g fill="white" text-rendering="geometricPrecision" shape-rendering="geometricPrecision" transform="matrix(1,0,0,1,-430,-314)" stroke="white">
      <rect x="599.155" width="30" height="30" y="700.3316" clip-path="url(#clipPath2)" stroke="none"/>
    </g>
    <g text-rendering="geometricPrecision" stroke-miterlimit="1.45" shape-rendering="geometricPrecision" transform="matrix(1,0,0,1,-430,-314)" stroke-linecap="butt">
      <rect fill="none" x="599.155" width="30" height="30" y="700.3316" clip-path="url(#clipPath2)"/>
    </g>
    <g fill="white" text-rendering="geometricPrecision" shape-rendering="geometricPrecision" transform="matrix(1,0,0,1,-430,-314)" stroke="white">
      <rect x="449.155" width="180" height="30" y="448.3316" clip-path="url(#clipPath2)" stroke="none"/>
    </g>
    <g text-rendering="geometricPrecision" stroke-miterlimit="1.45" shape-rendering="geometricPrecision" font-family="sans-serif" transform="matrix(1,0,0,1,-430,-314)" stroke-linecap="butt">
      <text x="506.5681" xml:space="preserve" y="467.4859" clip-path="url(#clipPath2)" stroke="none">CKY Matrix</text>
      <rect fill="none" x="449.155" width="180" height="30" y="448.3316" clip-path="url(#clipPath2)"/>
    </g>
    <g fill="white" text-rendering="geometricPrecision" shape-rendering="geometricPrecision" transform="matrix(1,0,0,1,-430,-314)" stroke="white">
      <rect x="834.3113" width="30" height="30" y="505.8791" clip-path="url(#clipPath2)" stroke="none"/>
    </g>
    <g text-rendering="geometricPrecision" stroke-miterlimit="1.45" shape-rendering="geometricPrecision" font-family="sans-serif" transform="matrix(1,0,0,1,-430,-314)" stroke-linecap="butt">
      <text x="846.1853" xml:space="preserve" y="525.0334" clip-path="url(#clipPath2)" stroke="none">s</text>
      <rect fill="none" x="834.3113" width="30" height="30" y="505.8791" clip-path="url(#clipPath2)"/>
    </g>
    <g fill="white" text-rendering="geometricPrecision" shape-rendering="geometricPrecision" transform="matrix(1,0,0,1,-430,-314)" stroke="white">
      <rect x="834.3113" width="30" height="30" y="573.2337" clip-path="url(#clipPath2)" stroke="none"/>
    </g>
    <g text-rendering="geometricPrecision" stroke-miterlimit="1.45" shape-rendering="geometricPrecision" font-family="sans-serif" transform="matrix(1,0,0,1,-430,-314)" stroke-linecap="butt">
      <text x="841.7" xml:space="preserve" y="592.3881" clip-path="url(#clipPath2)" stroke="none">np</text>
      <rect fill="none" x="834.3113" width="30" height="30" y="573.2337" clip-path="url(#clipPath2)"/>
    </g>
    <g fill="white" text-rendering="geometricPrecision" shape-rendering="geometricPrecision" transform="matrix(1,0,0,1,-430,-314)" stroke="white">
      <rect x="834.3113" width="30" height="30" y="640.5884" clip-path="url(#clipPath2)" stroke="none"/>
    </g>
    <g text-rendering="geometricPrecision" stroke-miterlimit="1.45" shape-rendering="geometricPrecision" font-family="sans-serif" transform="matrix(1,0,0,1,-430,-314)" stroke-linecap="butt">
      <text x="835.5623" xml:space="preserve" y="659.7427" clip-path="url(#clipPath2)" stroke="none">pron</text>
      <rect stroke-linecap="round" x="834.3113" y="640.5884" clip-path="url(#clipPath2)" fill="none" width="30" stroke-dasharray="4,3,0,3" height="30"/>
    </g>
    <g fill="white" text-rendering="geometricPrecision" shape-rendering="geometricPrecision" transform="matrix(1,0,0,1,-430,-314)" stroke="white">
      <rect x="449.155" width="518.9583" height="30" y="396.1359" clip-path="url(#clipPath2)" stroke="none"/>
    </g>
    <g text-rendering="geometricPrecision" stroke-miterlimit="1.45" shape-rendering="geometricPrecision" font-family="sans-serif" transform="matrix(1,0,0,1,-430,-314)" stroke-linecap="butt">
      <text x="689.2485" xml:space="preserve" y="415.2902" clip-path="url(#clipPath2)" stroke="none">Step 3</text>
      <rect fill="none" x="449.155" width="518.9583" height="30" y="396.1359" clip-path="url(#clipPath2)"/>
    </g>
    <g fill="white" text-rendering="geometricPrecision" shape-rendering="geometricPrecision" transform="matrix(1,0,0,1,-430,-314)" stroke="white">
      <rect x="449.155" width="518.9583" height="44.6667" y="329.2735" clip-path="url(#clipPath2)" stroke="none"/>
    </g>
    <g font-size="11px" stroke-linecap="butt" transform="matrix(1,0,0,1,-430,-314)" text-rendering="geometricPrecision" font-family="sans-serif" shape-rendering="geometricPrecision" stroke-miterlimit="1.45">
      <text x="626.0886" xml:space="preserve" y="342.6103" clip-path="url(#clipPath2)" stroke="none">Tree_DFS of "I am a Function"</text>
      <text x="659.1906" xml:space="preserve" y="355.4149" clip-path="url(#clipPath2)" stroke="none">First Permutation:</text>
      <text x="655.3879" xml:space="preserve" y="368.2196" clip-path="url(#clipPath2)" stroke="none">Pron Verb Det Verb</text>
      <rect fill="none" x="449.155" width="518.9583" height="44.6667" y="329.2735" clip-path="url(#clipPath2)"/>
    </g>
    <g fill="white" text-rendering="geometricPrecision" shape-rendering="geometricPrecision" transform="matrix(1,0,0,1,-430,-314)" stroke="white">
      <rect x="445.353" width="237.6042" height="30" y="750.3316" clip-path="url(#clipPath2)" stroke="none"/>
    </g>
    <g text-rendering="geometricPrecision" stroke-miterlimit="1.45" shape-rendering="geometricPrecision" font-family="sans-serif" transform="matrix(1,0,0,1,-430,-314)" stroke-linecap="butt">
      <text x="505.5203" xml:space="preserve" y="769.4859" clip-path="url(#clipPath2)" stroke="none">Stack &amp; Line Status</text>
      <rect fill="none" x="445.353" width="237.6042" height="30" y="750.3316" clip-path="url(#clipPath2)"/>
    </g>
    <g fill="white" text-rendering="geometricPrecision" shape-rendering="geometricPrecision" transform="matrix(1,0,0,1,-430,-314)" stroke="white">
      <rect x="730.5092" width="237.6042" height="30" y="448.3316" clip-path="url(#clipPath2)" stroke="none"/>
    </g>
    <g text-rendering="geometricPrecision" stroke-miterlimit="1.45" shape-rendering="geometricPrecision" font-family="sans-serif" transform="matrix(1,0,0,1,-430,-314)" stroke-linecap="butt">
      <text x="835.7966" xml:space="preserve" y="467.4859" clip-path="url(#clipPath2)" stroke="none">Tree</text>
      <rect fill="none" x="730.5092" width="237.6042" height="30" y="448.3316" clip-path="url(#clipPath2)"/>
    </g>
    <g fill="white" text-rendering="geometricPrecision" shape-rendering="geometricPrecision" transform="matrix(1,0,0,1,-430,-314)" stroke="white">
      <rect x="445.353" width="518.9583" height="30" y="950.184" clip-path="url(#clipPath2)" stroke="none"/>
    </g>
    <g text-rendering="geometricPrecision" stroke-miterlimit="1.45" shape-rendering="geometricPrecision" font-family="sans-serif" transform="matrix(1,0,0,1,-430,-314)" stroke-linecap="butt">
      <text x="676.4024" xml:space="preserve" y="969.3383" clip-path="url(#clipPath2)" stroke="none">Figure 27</text>
      <rect fill="none" x="445.353" width="518.9583" height="30" y="950.184" clip-path="url(#clipPath2)"/>
      <path fill="none" d="M499.155 515.3316 L487.155 515.3316" clip-path="url(#clipPath2)"/>
      <path d="M479.155 515.3316 L491.155 520.3316 L488.155 515.3316 L491.155 510.3316 Z" clip-path="url(#clipPath2)" stroke="none"/>
      <path fill="none" d="M464.155 550.3316 L464.155 538.3316" clip-path="url(#clipPath2)"/>
      <path d="M464.155 530.3316 L459.155 542.3316 L464.155 539.3316 L469.155 542.3316 Z" clip-path="url(#clipPath2)" stroke="none"/>
    </g>
    <g text-rendering="geometricPrecision" stroke-miterlimit="1.45" shape-rendering="geometricPrecision" transform="matrix(1,0,0,1,-430,-314)" stroke-linecap="butt">
      <path fill="none" d="M514.155 530.3316 L507.905 545.3316 L512.655 542.4816 L512.655 550.3316 L515.655 550.3316 L515.655 542.4816 L520.405 545.3316 L514.155 530.3316 Z" clip-path="url(#clipPath2)"/>
    </g>
    <g text-rendering="geometricPrecision" stroke-miterlimit="1.45" shape-rendering="geometricPrecision" transform="matrix(1,0,0,1,-430,-314)" stroke-linecap="butt">
      <path fill="none" d="M564.155 530.3316 L557.905 545.3316 L562.655 542.4816 L562.655 550.3316 L565.655 550.3316 L565.655 542.4816 L570.405 545.3316 L564.155 530.3316 Z" clip-path="url(#clipPath2)"/>
    </g>
    <g text-rendering="geometricPrecision" stroke-miterlimit="1.45" shape-rendering="geometricPrecision" transform="matrix(1,0,0,1,-430,-314)" stroke-linecap="butt">
      <path fill="none" d="M614.155 550.3316 L614.155 538.3316" clip-path="url(#clipPath2)"/>
      <path d="M614.155 530.3316 L609.155 542.3316 L614.155 539.3316 L619.155 542.3316 Z" clip-path="url(#clipPath2)" stroke="none"/>
    </g>
    <g text-rendering="geometricPrecision" stroke-miterlimit="1.45" shape-rendering="geometricPrecision" transform="matrix(1,0,0,1,-430,-314)" stroke-linecap="butt">
      <path fill="none" d="M464.155 580.3316 L457.905 595.3316 L462.655 592.4816 L462.655 592.4816 L462.655 600.3316 L465.655 600.3316 L465.655 592.4816 L465.655 592.4816 L470.405 595.3316 L464.155 580.3316 Z" clip-path="url(#clipPath2)"/>
    </g>
    <g text-rendering="geometricPrecision" stroke-miterlimit="1.45" shape-rendering="geometricPrecision" transform="matrix(1,0,0,1,-430,-314)" stroke-linecap="butt">
      <path fill="none" d="M514.155 580.3316 L507.905 595.3316 L512.655 592.4816 L512.655 600.3316 L515.655 600.3316 L515.655 592.4816 L520.405 595.3316 L514.155 580.3316 Z" clip-path="url(#clipPath2)"/>
    </g>
    <g text-rendering="geometricPrecision" stroke-miterlimit="1.45" shape-rendering="geometricPrecision" transform="matrix(1,0,0,1,-430,-314)" stroke-linecap="butt">
      <path fill="none" d="M564.155 580.3316 L557.905 595.3316 L562.655 592.4816 L562.655 600.3316 L565.655 600.3316 L565.655 592.4816 L570.405 595.3316 L564.155 580.3316 Z" clip-path="url(#clipPath2)"/>
    </g>
    <g text-rendering="geometricPrecision" stroke-miterlimit="1.45" shape-rendering="geometricPrecision" transform="matrix(1,0,0,1,-430,-314)" stroke-linecap="butt">
      <path fill="none" d="M464.155 630.3316 L457.905 645.3316 L462.655 642.4816 L462.655 642.4816 L462.655 650.3316 L465.655 650.3316 L465.655 642.4816 L465.655 642.4816 L470.405 645.3316 L464.155 630.3316 Z" clip-path="url(#clipPath2)"/>
    </g>
    <g text-rendering="geometricPrecision" stroke-miterlimit="1.45" shape-rendering="geometricPrecision" transform="matrix(1,0,0,1,-430,-314)" stroke-linecap="butt">
      <path fill="none" d="M514.155 650.3316 L514.155 638.3316" clip-path="url(#clipPath2)"/>
      <path d="M514.155 630.3316 L509.155 642.3316 L514.155 639.3316 L519.155 642.3316 Z" clip-path="url(#clipPath2)" stroke="none"/>
      <path fill="none" d="M464.155 700.3316 L464.155 688.3316" clip-path="url(#clipPath2)"/>
      <path d="M464.155 680.3316 L459.155 692.3316 L464.155 689.3316 L469.155 692.3316 Z" clip-path="url(#clipPath2)" stroke="none"/>
      <path fill="none" d="M849.3113 535.8791 L849.3113 565.2338" clip-path="url(#clipPath2)"/>
      <path d="M849.3113 573.2338 L854.3113 561.2338 L849.3113 564.2338 L844.3113 561.2338 Z" clip-path="url(#clipPath2)" stroke="none"/>
      <path fill="none" d="M849.3113 603.2338 L849.3113 632.5884" clip-path="url(#clipPath2)"/>
      <path d="M849.3113 640.5884 L854.3113 628.5884 L849.3113 631.5884 L844.3113 628.5884 Z" clip-path="url(#clipPath2)" stroke="none"/>
    </g>
  </g>
</svg>
