<?xml version="1.0" encoding="UTF-8"?><svg xmlns="http://www.w3.org/2000/svg" xmlns:xlink="http://www.w3.org/1999/xlink" fill-opacity="1" color-rendering="auto" color-interpolation="auto" text-rendering="auto" stroke="black" stroke-linecap="square" width="704" stroke-miterlimit="10" shape-rendering="auto" stroke-opacity="1" fill="black" stroke-dasharray="none" font-weight="normal" stroke-width="1" height="306" font-family="'Dialog'" font-style="normal" stroke-linejoin="miter" font-size="12px" stroke-dashoffset="0" image-rendering="auto">
  <!--Generated by ySVG 2.5-->
  <defs id="genericDefs"/>
  <g>
    <defs id="defs1">
      <clipPath clipPathUnits="userSpaceOnUse" id="clipPath1">
        <path d="M0 0 L704 0 L704 306 L0 306 L0 0 Z"/>
      </clipPath>
      <clipPath clipPathUnits="userSpaceOnUse" id="clipPath2">
        <path d="M63 3 L767 3 L767 309 L63 309 L63 3 Z"/>
      </clipPath>
    </defs>
    <g fill="white" text-rendering="geometricPrecision" shape-rendering="geometricPrecision" transform="translate(-63,-3)" stroke="white">
      <rect x="63" width="704" height="306" y="3" clip-path="url(#clipPath2)" stroke="none"/>
    </g>
    <g fill="white" text-rendering="geometricPrecision" shape-rendering="geometricPrecision" transform="matrix(1,0,0,1,-63,-3)" stroke="white">
      <rect x="680.0887" width="71" height="30" y="141.1417" clip-path="url(#clipPath2)" stroke="none"/>
    </g>
    <g text-rendering="geometricPrecision" stroke-miterlimit="1.45" shape-rendering="geometricPrecision" font-family="sans-serif" transform="matrix(1,0,0,1,-63,-3)" stroke-linecap="butt">
      <text x="702.071" xml:space="preserve" y="160.296" clip-path="url(#clipPath2)" stroke="none">verb</text>
      <rect fill="none" x="680.0887" width="71" height="30" y="141.1417" clip-path="url(#clipPath2)"/>
    </g>
    <g fill="white" text-rendering="geometricPrecision" shape-rendering="geometricPrecision" transform="matrix(1,0,0,1,-63,-3)" stroke="white">
      <rect x="609.0887" width="71" height="30" y="141.1417" clip-path="url(#clipPath2)" stroke="none"/>
    </g>
    <g text-rendering="geometricPrecision" stroke-miterlimit="1.45" shape-rendering="geometricPrecision" font-family="sans-serif" transform="matrix(1,0,0,1,-63,-3)" stroke-linecap="butt">
      <text x="634.7361" xml:space="preserve" y="160.296" clip-path="url(#clipPath2)" stroke="none">det</text>
      <rect fill="none" x="609.0887" width="71" height="30" y="141.1417" clip-path="url(#clipPath2)"/>
    </g>
    <g fill="white" text-rendering="geometricPrecision" shape-rendering="geometricPrecision" transform="matrix(1,0,0,1,-63,-3)" stroke="white">
      <rect x="538.0887" width="71" height="30" y="141.1417" clip-path="url(#clipPath2)" stroke="none"/>
    </g>
    <g text-rendering="geometricPrecision" stroke-miterlimit="1.45" shape-rendering="geometricPrecision" font-family="sans-serif" transform="matrix(1,0,0,1,-63,-3)" stroke-linecap="butt">
      <text x="560.071" xml:space="preserve" y="160.296" clip-path="url(#clipPath2)" stroke="none">verb</text>
      <rect fill="none" x="538.0887" width="71" height="30" y="141.1417" clip-path="url(#clipPath2)"/>
    </g>
    <g fill="white" text-rendering="geometricPrecision" shape-rendering="geometricPrecision" transform="matrix(1,0,0,1,-63,-3)" stroke="white">
      <rect x="467.0887" width="71" height="30" y="141.1417" clip-path="url(#clipPath2)" stroke="none"/>
    </g>
    <g text-rendering="geometricPrecision" stroke-miterlimit="1.45" shape-rendering="geometricPrecision" font-family="sans-serif" transform="matrix(1,0,0,1,-63,-3)" stroke-linecap="butt">
      <text x="488.8396" xml:space="preserve" y="160.296" clip-path="url(#clipPath2)" stroke="none">pron</text>
      <rect fill="none" x="467.0887" width="71" height="30" y="141.1417" clip-path="url(#clipPath2)"/>
      <text x="334.8871" xml:space="preserve" font-size="15px" y="86.3346" clip-path="url(#clipPath2)" stroke="none">Iteration #1</text>
      <rect x="78.3924" y="70.4112" clip-path="url(#clipPath2)" fill="none" width="349" stroke-dasharray="6,2" rx="4" ry="4" height="171.4609"/>
    </g>
    <g fill="white" text-rendering="geometricPrecision" shape-rendering="geometricPrecision" transform="matrix(1,0,0,1,-63,-3)" stroke="white">
      <rect x="341.3924" width="71" height="30" y="106.8722" clip-path="url(#clipPath2)" stroke="none"/>
    </g>
    <g text-rendering="geometricPrecision" stroke-miterlimit="1.45" shape-rendering="geometricPrecision" font-family="sans-serif" transform="matrix(1,0,0,1,-63,-3)" stroke-linecap="butt">
      <text x="365.953" xml:space="preserve" y="126.0265" clip-path="url(#clipPath2)" stroke="none">null</text>
      <rect fill="none" x="341.3924" width="71" height="30" y="106.8722" clip-path="url(#clipPath2)"/>
    </g>
    <g fill="white" text-rendering="geometricPrecision" shape-rendering="geometricPrecision" transform="matrix(1,0,0,1,-63,-3)" stroke="white">
      <rect x="270.3924" width="71" height="30" y="106.8722" clip-path="url(#clipPath2)" stroke="none"/>
    </g>
    <g text-rendering="geometricPrecision" stroke-miterlimit="1.45" shape-rendering="geometricPrecision" font-family="sans-serif" transform="matrix(1,0,0,1,-63,-3)" stroke-linecap="butt">
      <text x="294.953" xml:space="preserve" y="126.0265" clip-path="url(#clipPath2)" stroke="none">null</text>
      <rect fill="none" x="270.3924" width="71" height="30" y="106.8722" clip-path="url(#clipPath2)"/>
    </g>
    <g transform="matrix(1,0,0,1,-63,-3)" fill-opacity="0.0588" fill="rgb(0,0,0)" text-rendering="geometricPrecision" shape-rendering="geometricPrecision" stroke="rgb(0,0,0)" stroke-opacity="0.0588">
      <rect x="199.3924" width="71" height="30" y="106.8722" clip-path="url(#clipPath2)" stroke="none"/>
    </g>
    <g stroke-linecap="butt" transform="matrix(1,0,0,1,-63,-3)" text-rendering="geometricPrecision" font-family="sans-serif" shape-rendering="geometricPrecision" font-style="italic" font-weight="bold" stroke-miterlimit="1.45">
      <text x="219.245" xml:space="preserve" y="126.0265" clip-path="url(#clipPath2)" stroke="none">pron</text>
      <rect fill="none" x="199.3924" width="71" height="30" y="106.8722" clip-path="url(#clipPath2)"/>
    </g>
    <g fill="white" text-rendering="geometricPrecision" shape-rendering="geometricPrecision" transform="matrix(1,0,0,1,-63,-3)" stroke="white">
      <rect x="93.3924" width="71" height="30" y="106.8722" clip-path="url(#clipPath2)" stroke="none"/>
    </g>
    <g text-rendering="geometricPrecision" stroke-miterlimit="1.45" shape-rendering="geometricPrecision" font-family="sans-serif" transform="matrix(1,0,0,1,-63,-3)" stroke-linecap="butt">
      <text x="127.1229" xml:space="preserve" y="126.0265" clip-path="url(#clipPath2)" stroke="none">I</text>
      <rect fill="none" x="93.3924" width="71" height="30" y="106.8722" clip-path="url(#clipPath2)"/>
    </g>
    <g fill="white" text-rendering="geometricPrecision" shape-rendering="geometricPrecision" transform="matrix(1,0,0,1,-63,-3)" stroke="white">
      <rect x="341.3924" width="71" height="30" y="136.8722" clip-path="url(#clipPath2)" stroke="none"/>
    </g>
    <g text-rendering="geometricPrecision" stroke-miterlimit="1.45" shape-rendering="geometricPrecision" font-family="sans-serif" transform="matrix(1,0,0,1,-63,-3)" stroke-linecap="butt">
      <text x="365.953" xml:space="preserve" y="156.0265" clip-path="url(#clipPath2)" stroke="none">null</text>
      <rect fill="none" x="341.3924" width="71" height="30" y="136.8722" clip-path="url(#clipPath2)"/>
    </g>
    <g fill="white" text-rendering="geometricPrecision" shape-rendering="geometricPrecision" transform="matrix(1,0,0,1,-63,-3)" stroke="white">
      <rect x="270.3924" width="71" height="30" y="136.8722" clip-path="url(#clipPath2)" stroke="none"/>
    </g>
    <g text-rendering="geometricPrecision" stroke-miterlimit="1.45" shape-rendering="geometricPrecision" font-family="sans-serif" transform="matrix(1,0,0,1,-63,-3)" stroke-linecap="butt">
      <text x="294.953" xml:space="preserve" y="156.0265" clip-path="url(#clipPath2)" stroke="none">null</text>
      <rect fill="none" x="270.3924" width="71" height="30" y="136.8722" clip-path="url(#clipPath2)"/>
    </g>
    <g transform="matrix(1,0,0,1,-63,-3)" fill-opacity="0.0588" fill="rgb(0,0,0)" text-rendering="geometricPrecision" shape-rendering="geometricPrecision" stroke="rgb(0,0,0)" stroke-opacity="0.0588">
      <rect x="199.3924" width="71" height="30" y="136.8722" clip-path="url(#clipPath2)" stroke="none"/>
    </g>
    <g stroke-linecap="butt" transform="matrix(1,0,0,1,-63,-3)" text-rendering="geometricPrecision" font-family="sans-serif" shape-rendering="geometricPrecision" font-style="italic" font-weight="bold" stroke-miterlimit="1.45">
      <text x="219.6581" xml:space="preserve" y="156.0265" clip-path="url(#clipPath2)" stroke="none">verb</text>
      <rect fill="none" x="199.3924" width="71" height="30" y="136.8722" clip-path="url(#clipPath2)"/>
    </g>
    <g fill="white" text-rendering="geometricPrecision" shape-rendering="geometricPrecision" transform="matrix(1,0,0,1,-63,-3)" stroke="white">
      <rect x="93.3924" width="71" height="30" y="136.8722" clip-path="url(#clipPath2)" stroke="none"/>
    </g>
    <g text-rendering="geometricPrecision" stroke-miterlimit="1.45" shape-rendering="geometricPrecision" font-family="sans-serif" transform="matrix(1,0,0,1,-63,-3)" stroke-linecap="butt">
      <text x="118.9432" xml:space="preserve" y="156.0265" clip-path="url(#clipPath2)" stroke="none">Am</text>
      <rect fill="none" x="93.3924" width="71" height="30" y="136.8722" clip-path="url(#clipPath2)"/>
    </g>
    <g fill="white" text-rendering="geometricPrecision" shape-rendering="geometricPrecision" transform="matrix(1,0,0,1,-63,-3)" stroke="white">
      <rect x="341.3924" width="71" height="30" y="166.8722" clip-path="url(#clipPath2)" stroke="none"/>
    </g>
    <g text-rendering="geometricPrecision" stroke-miterlimit="1.45" shape-rendering="geometricPrecision" font-family="sans-serif" transform="matrix(1,0,0,1,-63,-3)" stroke-linecap="butt">
      <text x="365.953" xml:space="preserve" y="186.0265" clip-path="url(#clipPath2)" stroke="none">null</text>
      <rect fill="none" x="341.3924" width="71" height="30" y="166.8722" clip-path="url(#clipPath2)"/>
    </g>
    <g fill="white" text-rendering="geometricPrecision" shape-rendering="geometricPrecision" transform="matrix(1,0,0,1,-63,-3)" stroke="white">
      <rect x="270.3924" width="71" height="30" y="166.8722" clip-path="url(#clipPath2)" stroke="none"/>
    </g>
    <g text-rendering="geometricPrecision" stroke-miterlimit="1.45" shape-rendering="geometricPrecision" font-family="sans-serif" transform="matrix(1,0,0,1,-63,-3)" stroke-linecap="butt">
      <text x="294.953" xml:space="preserve" y="186.0265" clip-path="url(#clipPath2)" stroke="none">null</text>
      <rect fill="none" x="270.3924" width="71" height="30" y="166.8722" clip-path="url(#clipPath2)"/>
    </g>
    <g transform="matrix(1,0,0,1,-63,-3)" fill-opacity="0.0588" fill="rgb(0,0,0)" text-rendering="geometricPrecision" shape-rendering="geometricPrecision" stroke="rgb(0,0,0)" stroke-opacity="0.0588">
      <rect x="199.3924" width="71" height="30" y="166.8722" clip-path="url(#clipPath2)" stroke="none"/>
    </g>
    <g stroke-linecap="butt" transform="matrix(1,0,0,1,-63,-3)" text-rendering="geometricPrecision" font-family="sans-serif" shape-rendering="geometricPrecision" font-style="italic" font-weight="bold" stroke-miterlimit="1.45">
      <text x="223.66" xml:space="preserve" y="186.0265" clip-path="url(#clipPath2)" stroke="none">det</text>
      <rect fill="none" x="199.3924" width="71" height="30" y="166.8722" clip-path="url(#clipPath2)"/>
    </g>
    <g fill="white" text-rendering="geometricPrecision" shape-rendering="geometricPrecision" transform="matrix(1,0,0,1,-63,-3)" stroke="white">
      <rect x="93.3924" width="71" height="30" y="166.8722" clip-path="url(#clipPath2)" stroke="none"/>
    </g>
    <g text-rendering="geometricPrecision" stroke-miterlimit="1.45" shape-rendering="geometricPrecision" font-family="sans-serif" transform="matrix(1,0,0,1,-63,-3)" stroke-linecap="butt">
      <text x="124.7879" xml:space="preserve" y="186.0265" clip-path="url(#clipPath2)" stroke="none">A</text>
      <rect fill="none" x="93.3924" width="71" height="30" y="166.8722" clip-path="url(#clipPath2)"/>
    </g>
    <g fill="white" text-rendering="geometricPrecision" shape-rendering="geometricPrecision" transform="matrix(1,0,0,1,-63,-3)" stroke="white">
      <rect x="341.3924" width="71" height="30" y="196.8722" clip-path="url(#clipPath2)" stroke="none"/>
    </g>
    <g text-rendering="geometricPrecision" stroke-miterlimit="1.45" shape-rendering="geometricPrecision" font-family="sans-serif" transform="matrix(1,0,0,1,-63,-3)" stroke-linecap="butt">
      <text x="365.953" xml:space="preserve" y="216.0265" clip-path="url(#clipPath2)" stroke="none">null</text>
      <rect fill="none" x="341.3924" width="71" height="30" y="196.8722" clip-path="url(#clipPath2)"/>
    </g>
    <g fill="white" text-rendering="geometricPrecision" shape-rendering="geometricPrecision" transform="matrix(1,0,0,1,-63,-3)" stroke="white">
      <rect x="270.3924" width="71" height="30" y="196.8722" clip-path="url(#clipPath2)" stroke="none"/>
    </g>
    <g text-rendering="geometricPrecision" stroke-miterlimit="1.45" shape-rendering="geometricPrecision" font-family="sans-serif" transform="matrix(1,0,0,1,-63,-3)" stroke-linecap="butt">
      <text x="290.8133" xml:space="preserve" y="216.0265" clip-path="url(#clipPath2)" stroke="none">noun</text>
      <rect fill="none" x="270.3924" width="71" height="30" y="196.8722" clip-path="url(#clipPath2)"/>
    </g>
    <g transform="matrix(1,0,0,1,-63,-3)" fill-opacity="0.0588" fill="rgb(0,0,0)" text-rendering="geometricPrecision" shape-rendering="geometricPrecision" stroke="rgb(0,0,0)" stroke-opacity="0.0588">
      <rect x="199.3924" width="71" height="30" y="196.8722" clip-path="url(#clipPath2)" stroke="none"/>
    </g>
    <g stroke-linecap="butt" transform="matrix(1,0,0,1,-63,-3)" text-rendering="geometricPrecision" font-family="sans-serif" shape-rendering="geometricPrecision" font-style="italic" font-weight="bold" stroke-miterlimit="1.45">
      <text x="219.6581" xml:space="preserve" y="216.0265" clip-path="url(#clipPath2)" stroke="none">verb</text>
      <rect fill="none" x="199.3924" width="71" height="30" y="196.8722" clip-path="url(#clipPath2)"/>
    </g>
    <g fill="white" text-rendering="geometricPrecision" shape-rendering="geometricPrecision" transform="matrix(1,0,0,1,-63,-3)" stroke="white">
      <rect x="93.3924" width="71" height="30" y="196.8722" clip-path="url(#clipPath2)" stroke="none"/>
    </g>
    <g text-rendering="geometricPrecision" stroke-miterlimit="1.45" shape-rendering="geometricPrecision" font-family="sans-serif" transform="matrix(1,0,0,1,-63,-3)" stroke-linecap="butt">
      <text x="103.0438" xml:space="preserve" y="216.0265" clip-path="url(#clipPath2)" stroke="none">Function</text>
      <rect fill="none" x="93.3924" width="71" height="30" y="196.8722" clip-path="url(#clipPath2)"/>
    </g>
    <g fill="white" text-rendering="geometricPrecision" shape-rendering="geometricPrecision" transform="matrix(1,0,0,1,-63,-3)" stroke="white">
      <rect x="78.3924" width="672.6962" height="30" y="18.5761" clip-path="url(#clipPath2)" stroke="none"/>
    </g>
    <g text-rendering="geometricPrecision" stroke-miterlimit="1.45" shape-rendering="geometricPrecision" font-family="sans-serif" transform="matrix(1,0,0,1,-63,-3)" stroke-linecap="butt">
      <text x="146.5071" xml:space="preserve" y="37.7304" clip-path="url(#clipPath2)" stroke="none">Apply iterate(), and iterate over tokens to generate permutations of tokenized sentences</text>
      <rect fill="none" x="78.3924" width="672.6962" height="30" y="18.5761" clip-path="url(#clipPath2)"/>
    </g>
    <g fill="white" text-rendering="geometricPrecision" shape-rendering="geometricPrecision" transform="matrix(1,0,0,1,-63,-3)" stroke="white">
      <rect x="78.3924" width="672.6962" height="30" y="263.7072" clip-path="url(#clipPath2)" stroke="none"/>
    </g>
    <g text-rendering="geometricPrecision" stroke-miterlimit="1.45" shape-rendering="geometricPrecision" font-family="sans-serif" transform="matrix(1,0,0,1,-63,-3)" stroke-linecap="butt">
      <text x="386.3109" xml:space="preserve" y="282.8615" clip-path="url(#clipPath2)" stroke="none">Figure 40</text>
      <rect fill="none" x="78.3924" width="672.6962" height="30" y="263.7072" clip-path="url(#clipPath2)"/>
      <path fill="none" d="M427.3933 156.1417 L459.0887 156.1417" clip-path="url(#clipPath2)"/>
      <path d="M467.0887 156.1417 L455.0887 151.1417 L458.0887 156.1417 L455.0887 161.1417 Z" clip-path="url(#clipPath2)" stroke="none"/>
    </g>
  </g>
</svg>
