<?xml version="1.0" encoding="UTF-8"?><svg xmlns="http://www.w3.org/2000/svg" xmlns:xlink="http://www.w3.org/1999/xlink" fill-opacity="1" color-rendering="auto" color-interpolation="auto" text-rendering="auto" stroke="black" stroke-linecap="square" width="551" stroke-miterlimit="10" shape-rendering="auto" stroke-opacity="1" fill="black" stroke-dasharray="none" font-weight="normal" stroke-width="1" height="765" font-family="'Dialog'" font-style="normal" stroke-linejoin="miter" font-size="12px" stroke-dashoffset="0" image-rendering="auto">
  <!--Generated by ySVG 2.5-->
  <defs id="genericDefs"/>
  <g>
    <defs id="defs1">
      <clipPath clipPathUnits="userSpaceOnUse" id="clipPath1">
        <path d="M0 0 L551 0 L551 765 L0 765 L0 0 Z"/>
      </clipPath>
      <clipPath clipPathUnits="userSpaceOnUse" id="clipPath2">
        <path d="M430 314 L981 314 L981 1079 L430 1079 L430 314 Z"/>
      </clipPath>
    </defs>
    <g fill="white" text-rendering="geometricPrecision" shape-rendering="geometricPrecision" transform="translate(-430,-314)" stroke="white">
      <rect x="430" width="551" height="765" y="314" clip-path="url(#clipPath2)" stroke="none"/>
    </g>
    <g font-size="15px" stroke-linecap="butt" transform="matrix(1,0,0,1,-430,-314)" text-rendering="geometricPrecision" font-family="sans-serif" shape-rendering="geometricPrecision" stroke-miterlimit="1.45">
      <text x="463.6914" xml:space="preserve" y="812.0937" clip-path="url(#clipPath2)" stroke="none">Stack</text>
      <rect x="446.1846" y="796.1704" clip-path="url(#clipPath2)" fill="none" width="61.0352" stroke-dasharray="6,2" rx="4" ry="4" height="207.4609"/>
    </g>
    <g fill="white" text-rendering="geometricPrecision" shape-rendering="geometricPrecision" transform="matrix(1,0,0,1,-430,-314)" stroke="white">
      <rect x="461.7022" width="30" height="30" y="958.6313" clip-path="url(#clipPath2)" stroke="none"/>
    </g>
    <g text-rendering="geometricPrecision" stroke-miterlimit="1.45" shape-rendering="geometricPrecision" font-family="sans-serif" transform="matrix(1,0,0,1,-430,-314)" stroke-linecap="butt">
      <text x="474.3614" xml:space="preserve" y="977.7856" clip-path="url(#clipPath2)" stroke="none">)</text>
      <rect fill="none" x="461.7022" width="30" height="30" y="958.6313" clip-path="url(#clipPath2)"/>
    </g>
    <g fill="white" text-rendering="geometricPrecision" shape-rendering="geometricPrecision" transform="matrix(1,0,0,1,-430,-314)" stroke="white">
      <rect x="461.7022" width="30" height="30" y="916.6313" clip-path="url(#clipPath2)" stroke="none"/>
    </g>
    <g text-rendering="geometricPrecision" stroke-miterlimit="1.45" shape-rendering="geometricPrecision" font-family="sans-serif" transform="matrix(1,0,0,1,-430,-314)" stroke-linecap="butt">
      <text x="474.3614" xml:space="preserve" y="935.7856" clip-path="url(#clipPath2)" stroke="none">)</text>
      <rect fill="none" x="461.7022" width="30" height="30" y="916.6313" clip-path="url(#clipPath2)"/>
    </g>
    <g fill="white" text-rendering="geometricPrecision" shape-rendering="geometricPrecision" transform="matrix(1,0,0,1,-430,-314)" stroke="white">
      <rect x="461.7022" width="30" height="30" y="874.6313" clip-path="url(#clipPath2)" stroke="none"/>
    </g>
    <g text-rendering="geometricPrecision" stroke-miterlimit="1.45" shape-rendering="geometricPrecision" font-family="sans-serif" transform="matrix(1,0,0,1,-430,-314)" stroke-linecap="butt">
      <text x="469.0909" xml:space="preserve" y="893.7856" clip-path="url(#clipPath2)" stroke="none">np</text>
      <rect fill="none" x="461.7022" width="30" height="30" y="874.6313" clip-path="url(#clipPath2)"/>
    </g>
    <g fill="white" text-rendering="geometricPrecision" shape-rendering="geometricPrecision" transform="matrix(1,0,0,1,-430,-314)" stroke="white">
      <rect x="461.7022" width="30" height="30" y="832.6313" clip-path="url(#clipPath2)" stroke="none"/>
    </g>
    <g text-rendering="geometricPrecision" stroke-miterlimit="1.45" shape-rendering="geometricPrecision" font-family="sans-serif" transform="matrix(1,0,0,1,-430,-314)" stroke-linecap="butt">
      <text x="463.1846" xml:space="preserve" y="851.7856" clip-path="url(#clipPath2)" stroke="none">verb</text>
      <rect fill="none" x="461.7022" width="30" height="30" y="832.6313" clip-path="url(#clipPath2)"/>
      <text x="773.96" xml:space="preserve" font-size="15px" y="817.0937" clip-path="url(#clipPath2)" stroke="none">Line</text>
      <rect x="537.2197" y="801.1704" clip-path="url(#clipPath2)" fill="none" width="270" stroke-dasharray="6,2" rx="4" ry="4" height="81.4609"/>
    </g>
    <g fill="white" text-rendering="geometricPrecision" shape-rendering="geometricPrecision" transform="matrix(1,0,0,1,-430,-314)" stroke="white">
      <rect x="552.2197" width="30" height="30" y="837.6313" clip-path="url(#clipPath2)" stroke="none"/>
    </g>
    <g text-rendering="geometricPrecision" stroke-miterlimit="1.45" shape-rendering="geometricPrecision" font-family="sans-serif" transform="matrix(1,0,0,1,-430,-314)" stroke-linecap="butt">
      <text x="564.0938" xml:space="preserve" y="856.7856" clip-path="url(#clipPath2)" stroke="none">s</text>
      <rect fill="none" x="552.2197" width="30" height="30" y="837.6313" clip-path="url(#clipPath2)"/>
    </g>
    <g fill="white" text-rendering="geometricPrecision" shape-rendering="geometricPrecision" transform="matrix(1,0,0,1,-430,-314)" stroke="white">
      <rect x="582.2197" width="30" height="30" y="837.6313" clip-path="url(#clipPath2)" stroke="none"/>
    </g>
    <g text-rendering="geometricPrecision" stroke-miterlimit="1.45" shape-rendering="geometricPrecision" font-family="sans-serif" transform="matrix(1,0,0,1,-430,-314)" stroke-linecap="butt">
      <text x="594.8789" xml:space="preserve" y="856.7856" clip-path="url(#clipPath2)" stroke="none">(</text>
      <rect fill="none" x="582.2197" width="30" height="30" y="837.6313" clip-path="url(#clipPath2)"/>
    </g>
    <g fill="white" text-rendering="geometricPrecision" shape-rendering="geometricPrecision" transform="matrix(1,0,0,1,-430,-314)" stroke="white">
      <rect x="612.2197" width="30" height="30" y="837.6313" clip-path="url(#clipPath2)" stroke="none"/>
    </g>
    <g text-rendering="geometricPrecision" stroke-miterlimit="1.45" shape-rendering="geometricPrecision" font-family="sans-serif" transform="matrix(1,0,0,1,-430,-314)" stroke-linecap="butt">
      <text x="619.6084" xml:space="preserve" y="856.7856" clip-path="url(#clipPath2)" stroke="none">np</text>
      <rect fill="none" x="612.2197" width="30" height="30" y="837.6313" clip-path="url(#clipPath2)"/>
    </g>
    <g fill="white" text-rendering="geometricPrecision" shape-rendering="geometricPrecision" transform="matrix(1,0,0,1,-430,-314)" stroke="white">
      <rect x="642.2197" width="30" height="30" y="837.6313" clip-path="url(#clipPath2)" stroke="none"/>
    </g>
    <g text-rendering="geometricPrecision" stroke-miterlimit="1.45" shape-rendering="geometricPrecision" font-family="sans-serif" transform="matrix(1,0,0,1,-430,-314)" stroke-linecap="butt">
      <text x="654.8789" xml:space="preserve" y="856.7856" clip-path="url(#clipPath2)" stroke="none">(</text>
      <rect fill="none" x="642.2197" width="30" height="30" y="837.6313" clip-path="url(#clipPath2)"/>
    </g>
    <g fill="white" text-rendering="geometricPrecision" shape-rendering="geometricPrecision" transform="matrix(1,0,0,1,-430,-314)" stroke="white">
      <rect x="702.2197" width="30" height="30" y="837.6313" clip-path="url(#clipPath2)" stroke="none"/>
    </g>
    <g text-rendering="geometricPrecision" stroke-miterlimit="1.45" shape-rendering="geometricPrecision" font-family="sans-serif" transform="matrix(1,0,0,1,-430,-314)" stroke-linecap="butt">
      <text x="714.8789" xml:space="preserve" y="856.7856" clip-path="url(#clipPath2)" stroke="none">)</text>
      <rect fill="none" x="702.2197" width="30" height="30" y="837.6313" clip-path="url(#clipPath2)"/>
    </g>
    <g fill="white" text-rendering="geometricPrecision" shape-rendering="geometricPrecision" transform="matrix(1,0,0,1,-430,-314)" stroke="white">
      <rect x="672.2197" width="30" height="30" y="837.6313" clip-path="url(#clipPath2)" stroke="none"/>
    </g>
    <g text-rendering="geometricPrecision" stroke-miterlimit="1.45" shape-rendering="geometricPrecision" font-family="sans-serif" transform="matrix(1,0,0,1,-430,-314)" stroke-linecap="butt">
      <text x="673.4707" xml:space="preserve" y="856.7856" clip-path="url(#clipPath2)" stroke="none">pron</text>
      <rect fill="none" x="672.2197" width="30" height="30" y="837.6313" clip-path="url(#clipPath2)"/>
    </g>
    <g fill="white" text-rendering="geometricPrecision" shape-rendering="geometricPrecision" transform="matrix(1,0,0,1,-430,-314)" stroke="white">
      <rect x="732.2197" width="30" height="30" y="837.6313" clip-path="url(#clipPath2)" stroke="none"/>
    </g>
    <g text-rendering="geometricPrecision" stroke-miterlimit="1.45" shape-rendering="geometricPrecision" font-family="sans-serif" transform="matrix(1,0,0,1,-430,-314)" stroke-linecap="butt">
      <text x="739.8604" xml:space="preserve" y="856.7856" clip-path="url(#clipPath2)" stroke="none">vp</text>
      <rect fill="none" x="732.2197" width="30" height="30" y="837.6313" clip-path="url(#clipPath2)"/>
    </g>
    <g fill="white" text-rendering="geometricPrecision" shape-rendering="geometricPrecision" transform="matrix(1,0,0,1,-430,-314)" stroke="white">
      <rect x="762.2197" width="30" height="30" y="837.6313" clip-path="url(#clipPath2)" stroke="none"/>
    </g>
    <g text-rendering="geometricPrecision" stroke-miterlimit="1.45" shape-rendering="geometricPrecision" font-family="sans-serif" transform="matrix(1,0,0,1,-430,-314)" stroke-linecap="butt">
      <text x="774.8789" xml:space="preserve" y="856.7856" clip-path="url(#clipPath2)" stroke="none">(</text>
      <rect fill="none" x="762.2197" width="30" height="30" y="837.6313" clip-path="url(#clipPath2)"/>
    </g>
    <g fill="white" text-rendering="geometricPrecision" shape-rendering="geometricPrecision" transform="matrix(1,0,0,1,-430,-314)" stroke="white">
      <rect x="446.1846" width="30" height="30" y="500.9567" clip-path="url(#clipPath2)" stroke="none"/>
    </g>
    <g text-rendering="geometricPrecision" stroke-miterlimit="1.45" shape-rendering="geometricPrecision" font-family="sans-serif" transform="matrix(1,0,0,1,-430,-314)" stroke-linecap="butt">
      <text x="458.0586" xml:space="preserve" y="520.111" clip-path="url(#clipPath2)" stroke="none">s</text>
    </g>
    <g stroke-linecap="round" transform="matrix(1,0,0,1,-430,-314)" stroke-dashoffset="2" text-rendering="geometricPrecision" shape-rendering="geometricPrecision" stroke-dasharray="0,4" stroke-miterlimit="1.45">
      <rect fill="none" x="446.1846" width="30" height="30" y="500.9567" clip-path="url(#clipPath2)"/>
    </g>
    <g fill="white" text-rendering="geometricPrecision" shape-rendering="geometricPrecision" transform="matrix(1,0,0,1,-430,-314)" stroke="white">
      <rect x="496.1846" width="30" height="30" y="500.9567" clip-path="url(#clipPath2)" stroke="none"/>
    </g>
    <g text-rendering="geometricPrecision" stroke-miterlimit="1.45" shape-rendering="geometricPrecision" font-family="sans-serif" transform="matrix(1,0,0,1,-430,-314)" stroke-linecap="butt">
      <text x="503.8252" xml:space="preserve" y="520.111" clip-path="url(#clipPath2)" stroke="none">vp</text>
    </g>
    <g stroke-linecap="round" transform="matrix(1,0,0,1,-430,-314)" stroke-dashoffset="2" text-rendering="geometricPrecision" shape-rendering="geometricPrecision" stroke-dasharray="0,4" stroke-miterlimit="1.45">
      <rect fill="none" x="496.1846" width="30" height="30" y="500.9567" clip-path="url(#clipPath2)"/>
    </g>
    <g fill="white" text-rendering="geometricPrecision" shape-rendering="geometricPrecision" transform="matrix(1,0,0,1,-430,-314)" stroke="white">
      <rect x="546.1846" width="30" height="30" y="500.9567" clip-path="url(#clipPath2)" stroke="none"/>
    </g>
    <g text-rendering="geometricPrecision" stroke-miterlimit="1.45" shape-rendering="geometricPrecision" font-family="sans-serif" transform="matrix(1,0,0,1,-430,-314)" stroke-linecap="butt">
      <text x="553.5732" xml:space="preserve" y="520.111" clip-path="url(#clipPath2)" stroke="none">np</text>
      <rect x="546.1846" y="500.9567" clip-path="url(#clipPath2)" fill="none" width="30" stroke-dasharray="12,4" height="30" stroke-width="2"/>
    </g>
    <g fill="white" text-rendering="geometricPrecision" shape-rendering="geometricPrecision" transform="matrix(1,0,0,1,-430,-314)" stroke="white">
      <rect x="596.1846" width="30" height="30" y="500.9567" clip-path="url(#clipPath2)" stroke="none"/>
    </g>
    <g text-rendering="geometricPrecision" stroke-miterlimit="1.45" shape-rendering="geometricPrecision" font-family="sans-serif" transform="matrix(1,0,0,1,-430,-314)" stroke-linecap="butt">
      <text x="597.8662" xml:space="preserve" y="520.111" clip-path="url(#clipPath2)" stroke="none">nom</text>
      <rect fill="none" x="596.1846" width="30" height="30" y="500.9567" clip-path="url(#clipPath2)"/>
    </g>
    <g fill="white" text-rendering="geometricPrecision" shape-rendering="geometricPrecision" transform="matrix(1,0,0,1,-430,-314)" stroke="white">
      <rect x="446.1846" width="30" height="30" y="550.9567" clip-path="url(#clipPath2)" stroke="none"/>
    </g>
    <g text-rendering="geometricPrecision" stroke-miterlimit="1.45" shape-rendering="geometricPrecision" font-family="sans-serif" transform="matrix(1,0,0,1,-430,-314)" stroke-linecap="butt">
      <text x="453.5733" xml:space="preserve" y="570.111" clip-path="url(#clipPath2)" stroke="none">np</text>
    </g>
    <g stroke-linecap="round" transform="matrix(1,0,0,1,-430,-314)" stroke-dashoffset="2" text-rendering="geometricPrecision" shape-rendering="geometricPrecision" stroke-dasharray="0,4" stroke-miterlimit="1.45">
      <rect fill="none" x="446.1846" width="30" height="30" y="550.9567" clip-path="url(#clipPath2)"/>
    </g>
    <g fill="white" text-rendering="geometricPrecision" shape-rendering="geometricPrecision" transform="matrix(1,0,0,1,-430,-314)" stroke="white">
      <rect x="496.1846" width="30" height="30" y="550.9567" clip-path="url(#clipPath2)" stroke="none"/>
    </g>
    <g text-rendering="geometricPrecision" stroke-miterlimit="1.45" shape-rendering="geometricPrecision" font-family="sans-serif" transform="matrix(1,0,0,1,-430,-314)" stroke-linecap="butt">
      <text x="503.8252" xml:space="preserve" y="570.111" clip-path="url(#clipPath2)" stroke="none">vp</text>
      <rect fill="none" x="496.1846" width="30" height="30" y="550.9567" clip-path="url(#clipPath2)"/>
    </g>
    <g fill="white" text-rendering="geometricPrecision" shape-rendering="geometricPrecision" transform="matrix(1,0,0,1,-430,-314)" stroke="white">
      <rect x="546.1846" width="30" height="30" y="550.9567" clip-path="url(#clipPath2)" stroke="none"/>
    </g>
    <g text-rendering="geometricPrecision" stroke-miterlimit="1.45" shape-rendering="geometricPrecision" font-family="sans-serif" transform="matrix(1,0,0,1,-430,-314)" stroke-linecap="butt">
      <text x="551.332" xml:space="preserve" y="570.111" clip-path="url(#clipPath2)" stroke="none">det</text>
      <rect fill="none" x="546.1846" width="30" height="30" y="550.9567" clip-path="url(#clipPath2)"/>
    </g>
    <g fill="white" text-rendering="geometricPrecision" shape-rendering="geometricPrecision" transform="matrix(1,0,0,1,-430,-314)" stroke="white">
      <rect x="596.1846" width="30" height="30" y="550.9567" clip-path="url(#clipPath2)" stroke="none"/>
    </g>
    <g text-rendering="geometricPrecision" stroke-miterlimit="1.45" shape-rendering="geometricPrecision" font-family="sans-serif" transform="matrix(1,0,0,1,-430,-314)" stroke-linecap="butt">
      <text x="596.1055" xml:space="preserve" y="570.111" clip-path="url(#clipPath2)" stroke="none">noun</text>
      <rect fill="none" x="596.1846" width="30" height="30" y="550.9567" clip-path="url(#clipPath2)"/>
    </g>
    <g fill="white" text-rendering="geometricPrecision" shape-rendering="geometricPrecision" transform="matrix(1,0,0,1,-430,-314)" stroke="white">
      <rect x="446.1846" width="30" height="30" y="600.9567" clip-path="url(#clipPath2)" stroke="none"/>
    </g>
    <g text-rendering="geometricPrecision" stroke-miterlimit="1.45" shape-rendering="geometricPrecision" font-family="sans-serif" transform="matrix(1,0,0,1,-430,-314)" stroke-linecap="butt">
      <text x="453.5733" xml:space="preserve" y="620.111" clip-path="url(#clipPath2)" stroke="none">np</text>
      <rect fill="none" x="446.1846" width="30" height="30" y="600.9567" clip-path="url(#clipPath2)"/>
    </g>
    <g fill="white" text-rendering="geometricPrecision" shape-rendering="geometricPrecision" transform="matrix(1,0,0,1,-430,-314)" stroke="white">
      <rect x="496.1846" width="30" height="30" y="600.9567" clip-path="url(#clipPath2)" stroke="none"/>
    </g>
    <g text-rendering="geometricPrecision" stroke-miterlimit="1.45" shape-rendering="geometricPrecision" font-family="sans-serif" transform="matrix(1,0,0,1,-430,-314)" stroke-linecap="butt">
      <text x="503.8252" xml:space="preserve" y="620.111" clip-path="url(#clipPath2)" stroke="none">vp</text>
      <rect fill="none" x="496.1846" width="30" height="30" y="600.9567" clip-path="url(#clipPath2)"/>
    </g>
    <g fill="white" text-rendering="geometricPrecision" shape-rendering="geometricPrecision" transform="matrix(1,0,0,1,-430,-314)" stroke="white">
      <rect x="546.1846" width="30" height="30" y="600.9567" clip-path="url(#clipPath2)" stroke="none"/>
    </g>
    <g text-rendering="geometricPrecision" stroke-miterlimit="1.45" shape-rendering="geometricPrecision" font-family="sans-serif" transform="matrix(1,0,0,1,-430,-314)" stroke-linecap="butt">
      <text x="551.332" xml:space="preserve" y="620.111" clip-path="url(#clipPath2)" stroke="none">det</text>
      <rect fill="none" x="546.1846" width="30" height="30" y="600.9567" clip-path="url(#clipPath2)"/>
    </g>
    <g fill="white" text-rendering="geometricPrecision" shape-rendering="geometricPrecision" transform="matrix(1,0,0,1,-430,-314)" stroke="white">
      <rect x="596.1846" width="30" height="30" y="600.9567" clip-path="url(#clipPath2)" stroke="none"/>
    </g>
    <g text-rendering="geometricPrecision" stroke-miterlimit="1.45" shape-rendering="geometricPrecision" transform="matrix(1,0,0,1,-430,-314)" stroke-linecap="butt">
      <rect fill="none" x="596.1846" width="30" height="30" y="600.9567" clip-path="url(#clipPath2)"/>
    </g>
    <g fill="white" text-rendering="geometricPrecision" shape-rendering="geometricPrecision" transform="matrix(1,0,0,1,-430,-314)" stroke="white">
      <rect x="446.1846" width="30" height="30" y="650.9567" clip-path="url(#clipPath2)" stroke="none"/>
    </g>
    <g text-rendering="geometricPrecision" stroke-miterlimit="1.45" shape-rendering="geometricPrecision" font-family="sans-serif" transform="matrix(1,0,0,1,-430,-314)" stroke-linecap="butt">
      <text x="453.5733" xml:space="preserve" y="670.111" clip-path="url(#clipPath2)" stroke="none">np</text>
      <rect fill="none" x="446.1846" width="30" height="30" y="650.9567" clip-path="url(#clipPath2)"/>
    </g>
    <g fill="white" text-rendering="geometricPrecision" shape-rendering="geometricPrecision" transform="matrix(1,0,0,1,-430,-314)" stroke="white">
      <rect x="496.1846" width="30" height="30" y="650.9567" clip-path="url(#clipPath2)" stroke="none"/>
    </g>
    <g text-rendering="geometricPrecision" stroke-miterlimit="1.45" shape-rendering="geometricPrecision" font-family="sans-serif" transform="matrix(1,0,0,1,-430,-314)" stroke-linecap="butt">
      <text x="497.667" xml:space="preserve" y="670.111" clip-path="url(#clipPath2)" stroke="none">verb</text>
      <rect x="496.1846" y="650.9567" clip-path="url(#clipPath2)" fill="none" width="30" stroke-dasharray="12,4" height="30" stroke-width="2"/>
    </g>
    <g fill="white" text-rendering="geometricPrecision" shape-rendering="geometricPrecision" transform="matrix(1,0,0,1,-430,-314)" stroke="white">
      <rect x="546.1846" width="30" height="30" y="650.9567" clip-path="url(#clipPath2)" stroke="none"/>
    </g>
    <g text-rendering="geometricPrecision" stroke-miterlimit="1.45" shape-rendering="geometricPrecision" transform="matrix(1,0,0,1,-430,-314)" stroke-linecap="butt">
      <rect fill="none" x="546.1846" width="30" height="30" y="650.9567" clip-path="url(#clipPath2)"/>
    </g>
    <g fill="white" text-rendering="geometricPrecision" shape-rendering="geometricPrecision" transform="matrix(1,0,0,1,-430,-314)" stroke="white">
      <rect x="596.1846" width="30" height="30" y="650.9567" clip-path="url(#clipPath2)" stroke="none"/>
    </g>
    <g text-rendering="geometricPrecision" stroke-miterlimit="1.45" shape-rendering="geometricPrecision" transform="matrix(1,0,0,1,-430,-314)" stroke-linecap="butt">
      <rect fill="none" x="596.1846" width="30" height="30" y="650.9567" clip-path="url(#clipPath2)"/>
    </g>
    <g fill="white" text-rendering="geometricPrecision" shape-rendering="geometricPrecision" transform="matrix(1,0,0,1,-430,-314)" stroke="white">
      <rect x="446.1846" width="30" height="30" y="700.9567" clip-path="url(#clipPath2)" stroke="none"/>
    </g>
    <g text-rendering="geometricPrecision" stroke-miterlimit="1.45" shape-rendering="geometricPrecision" font-family="sans-serif" transform="matrix(1,0,0,1,-430,-314)" stroke-linecap="butt">
      <text x="447.4356" xml:space="preserve" y="720.111" clip-path="url(#clipPath2)" stroke="none">pron</text>
    </g>
    <g stroke-linecap="round" transform="matrix(1,0,0,1,-430,-314)" stroke-dashoffset="2" text-rendering="geometricPrecision" shape-rendering="geometricPrecision" stroke-dasharray="0,4" stroke-miterlimit="1.45">
      <rect fill="none" x="446.1846" width="30" height="30" y="700.9567" clip-path="url(#clipPath2)"/>
    </g>
    <g fill="white" text-rendering="geometricPrecision" shape-rendering="geometricPrecision" transform="matrix(1,0,0,1,-430,-314)" stroke="white">
      <rect x="496.1846" width="30" height="30" y="700.9567" clip-path="url(#clipPath2)" stroke="none"/>
    </g>
    <g text-rendering="geometricPrecision" stroke-miterlimit="1.45" shape-rendering="geometricPrecision" transform="matrix(1,0,0,1,-430,-314)" stroke-linecap="butt">
      <rect fill="none" x="496.1846" width="30" height="30" y="700.9567" clip-path="url(#clipPath2)"/>
    </g>
    <g fill="white" text-rendering="geometricPrecision" shape-rendering="geometricPrecision" transform="matrix(1,0,0,1,-430,-314)" stroke="white">
      <rect x="546.1846" width="30" height="30" y="700.9567" clip-path="url(#clipPath2)" stroke="none"/>
    </g>
    <g text-rendering="geometricPrecision" stroke-miterlimit="1.45" shape-rendering="geometricPrecision" transform="matrix(1,0,0,1,-430,-314)" stroke-linecap="butt">
      <rect fill="none" x="546.1846" width="30" height="30" y="700.9567" clip-path="url(#clipPath2)"/>
    </g>
    <g fill="white" text-rendering="geometricPrecision" shape-rendering="geometricPrecision" transform="matrix(1,0,0,1,-430,-314)" stroke="white">
      <rect x="596.1846" width="30" height="30" y="700.9567" clip-path="url(#clipPath2)" stroke="none"/>
    </g>
    <g text-rendering="geometricPrecision" stroke-miterlimit="1.45" shape-rendering="geometricPrecision" transform="matrix(1,0,0,1,-430,-314)" stroke-linecap="butt">
      <rect fill="none" x="596.1846" width="30" height="30" y="700.9567" clip-path="url(#clipPath2)"/>
    </g>
    <g fill="white" text-rendering="geometricPrecision" shape-rendering="geometricPrecision" transform="matrix(1,0,0,1,-430,-314)" stroke="white">
      <rect x="831.3408" width="30" height="30" y="508.761" clip-path="url(#clipPath2)" stroke="none"/>
    </g>
    <g text-rendering="geometricPrecision" stroke-miterlimit="1.45" shape-rendering="geometricPrecision" font-family="sans-serif" transform="matrix(1,0,0,1,-430,-314)" stroke-linecap="butt">
      <text x="843.2148" xml:space="preserve" y="527.9152" clip-path="url(#clipPath2)" stroke="none">s</text>
      <rect fill="none" x="831.3408" width="30" height="30" y="508.761" clip-path="url(#clipPath2)"/>
    </g>
    <g fill="white" text-rendering="geometricPrecision" shape-rendering="geometricPrecision" transform="matrix(1,0,0,1,-430,-314)" stroke="white">
      <rect x="831.3408" width="30" height="30" y="576.1156" clip-path="url(#clipPath2)" stroke="none"/>
    </g>
    <g text-rendering="geometricPrecision" stroke-miterlimit="1.45" shape-rendering="geometricPrecision" font-family="sans-serif" transform="matrix(1,0,0,1,-430,-314)" stroke-linecap="butt">
      <text x="838.7295" xml:space="preserve" y="595.2699" clip-path="url(#clipPath2)" stroke="none">np</text>
      <rect fill="none" x="831.3408" width="30" height="30" y="576.1156" clip-path="url(#clipPath2)"/>
    </g>
    <g fill="white" text-rendering="geometricPrecision" shape-rendering="geometricPrecision" transform="matrix(1,0,0,1,-430,-314)" stroke="white">
      <rect x="831.3408" width="30" height="30" y="643.4702" clip-path="url(#clipPath2)" stroke="none"/>
    </g>
    <g text-rendering="geometricPrecision" stroke-miterlimit="1.45" shape-rendering="geometricPrecision" font-family="sans-serif" transform="matrix(1,0,0,1,-430,-314)" stroke-linecap="butt">
      <text x="832.5918" xml:space="preserve" y="662.6245" clip-path="url(#clipPath2)" stroke="none">pron</text>
      <rect stroke-linecap="round" x="831.3408" y="643.4702" clip-path="url(#clipPath2)" fill="none" width="30" stroke-dasharray="4,3,0,3" height="30"/>
    </g>
    <g fill="white" text-rendering="geometricPrecision" shape-rendering="geometricPrecision" transform="matrix(1,0,0,1,-430,-314)" stroke="white">
      <rect x="904.7528" width="30" height="30" y="576.1156" clip-path="url(#clipPath2)" stroke="none"/>
    </g>
    <g text-rendering="geometricPrecision" stroke-miterlimit="1.45" shape-rendering="geometricPrecision" font-family="sans-serif" transform="matrix(1,0,0,1,-430,-314)" stroke-linecap="butt">
      <text x="912.3934" xml:space="preserve" y="595.2699" clip-path="url(#clipPath2)" stroke="none">vp</text>
      <rect fill="none" x="904.7528" width="30" height="30" y="576.1156" clip-path="url(#clipPath2)"/>
    </g>
    <g fill="white" text-rendering="geometricPrecision" shape-rendering="geometricPrecision" transform="matrix(1,0,0,1,-430,-314)" stroke="white">
      <rect x="446.1846" width="518.9583" height="30" y="396.5652" clip-path="url(#clipPath2)" stroke="none"/>
    </g>
    <g text-rendering="geometricPrecision" stroke-miterlimit="1.45" shape-rendering="geometricPrecision" font-family="sans-serif" transform="matrix(1,0,0,1,-430,-314)" stroke-linecap="butt">
      <text x="686.278" xml:space="preserve" y="415.7195" clip-path="url(#clipPath2)" stroke="none">Step 4</text>
      <rect fill="none" x="446.1846" width="518.9583" height="30" y="396.5652" clip-path="url(#clipPath2)"/>
    </g>
    <g fill="white" text-rendering="geometricPrecision" shape-rendering="geometricPrecision" transform="matrix(1,0,0,1,-430,-314)" stroke="white">
      <rect x="446.1846" width="180" height="30" y="448.761" clip-path="url(#clipPath2)" stroke="none"/>
    </g>
    <g text-rendering="geometricPrecision" stroke-miterlimit="1.45" shape-rendering="geometricPrecision" font-family="sans-serif" transform="matrix(1,0,0,1,-430,-314)" stroke-linecap="butt">
      <text x="503.5977" xml:space="preserve" y="467.9153" clip-path="url(#clipPath2)" stroke="none">CKY Matrix</text>
      <rect fill="none" x="446.1846" width="180" height="30" y="448.761" clip-path="url(#clipPath2)"/>
    </g>
    <g fill="white" text-rendering="geometricPrecision" shape-rendering="geometricPrecision" transform="matrix(1,0,0,1,-430,-314)" stroke="white">
      <rect x="446.1846" width="518.9583" height="44.6667" y="329.7029" clip-path="url(#clipPath2)" stroke="none"/>
    </g>
    <g font-size="11px" stroke-linecap="butt" transform="matrix(1,0,0,1,-430,-314)" text-rendering="geometricPrecision" font-family="sans-serif" shape-rendering="geometricPrecision" stroke-miterlimit="1.45">
      <text x="623.1181" xml:space="preserve" y="343.0396" clip-path="url(#clipPath2)" stroke="none">Tree_DFS of "I am a Function"</text>
      <text x="656.2202" xml:space="preserve" y="355.8443" clip-path="url(#clipPath2)" stroke="none">First Permutation:</text>
      <text x="650.8652" xml:space="preserve" y="368.649" clip-path="url(#clipPath2)" stroke="none">Pron Verb Det Noun</text>
      <rect fill="none" x="446.1846" width="518.9583" height="44.6667" y="329.7029" clip-path="url(#clipPath2)"/>
    </g>
    <g fill="white" text-rendering="geometricPrecision" shape-rendering="geometricPrecision" transform="matrix(1,0,0,1,-430,-314)" stroke="white">
      <rect x="449.8316" width="237.6042" height="30" y="750.9567" clip-path="url(#clipPath2)" stroke="none"/>
    </g>
    <g text-rendering="geometricPrecision" stroke-miterlimit="1.45" shape-rendering="geometricPrecision" font-family="sans-serif" transform="matrix(1,0,0,1,-430,-314)" stroke-linecap="butt">
      <text x="509.9989" xml:space="preserve" y="770.111" clip-path="url(#clipPath2)" stroke="none">Stack &amp; Line Status</text>
      <rect fill="none" x="449.8316" width="237.6042" height="30" y="750.9567" clip-path="url(#clipPath2)"/>
    </g>
    <g fill="white" text-rendering="geometricPrecision" shape-rendering="geometricPrecision" transform="matrix(1,0,0,1,-430,-314)" stroke="white">
      <rect x="727.5388" width="237.6042" height="30" y="448.761" clip-path="url(#clipPath2)" stroke="none"/>
    </g>
    <g text-rendering="geometricPrecision" stroke-miterlimit="1.45" shape-rendering="geometricPrecision" font-family="sans-serif" transform="matrix(1,0,0,1,-430,-314)" stroke-linecap="butt">
      <text x="832.8262" xml:space="preserve" y="467.9153" clip-path="url(#clipPath2)" stroke="none">Tree</text>
      <rect fill="none" x="727.5388" width="237.6042" height="30" y="448.761" clip-path="url(#clipPath2)"/>
    </g>
    <g fill="white" text-rendering="geometricPrecision" shape-rendering="geometricPrecision" transform="matrix(1,0,0,1,-430,-314)" stroke="white">
      <rect x="446.1846" width="518.9583" height="30" y="1033.6313" clip-path="url(#clipPath2)" stroke="none"/>
    </g>
    <g text-rendering="geometricPrecision" stroke-miterlimit="1.45" shape-rendering="geometricPrecision" font-family="sans-serif" transform="matrix(1,0,0,1,-430,-314)" stroke-linecap="butt">
      <text x="677.2341" xml:space="preserve" y="1052.7856" clip-path="url(#clipPath2)" stroke="none">Figure 34</text>
      <rect fill="none" x="446.1846" width="518.9583" height="30" y="1033.6313" clip-path="url(#clipPath2)"/>
      <path fill="none" d="M496.1846 515.9567 L484.1846 515.9567" clip-path="url(#clipPath2)"/>
      <path d="M476.1846 515.9567 L488.1846 520.9567 L485.1846 515.9567 L488.1846 510.9567 Z" clip-path="url(#clipPath2)" stroke="none"/>
      <path fill="none" d="M546.1846 515.9567 L534.1846 515.9567" clip-path="url(#clipPath2)"/>
      <path d="M526.1846 515.9567 L538.1846 520.9567 L535.1846 515.9567 L538.1846 510.9567 Z" clip-path="url(#clipPath2)" stroke="none"/>
      <path fill="none" d="M596.1846 515.9567 L584.1846 515.9567" clip-path="url(#clipPath2)"/>
      <path d="M576.1846 515.9567 L588.1846 520.9567 L585.1846 515.9567 L588.1846 510.9567 Z" clip-path="url(#clipPath2)" stroke="none"/>
      <path fill="none" d="M461.1846 550.9567 L461.1846 538.9567" clip-path="url(#clipPath2)"/>
      <path d="M461.1846 530.9567 L456.1846 542.9567 L461.1846 539.9567 L466.1846 542.9567 Z" clip-path="url(#clipPath2)" stroke="none"/>
    </g>
    <g text-rendering="geometricPrecision" stroke-miterlimit="1.45" shape-rendering="geometricPrecision" transform="matrix(1,0,0,1,-430,-314)" stroke-linecap="butt">
      <path fill="none" d="M511.1846 530.9567 L504.9346 545.9567 L509.6846 543.1067 L509.6846 543.1067 L509.6846 550.9567 L512.6846 550.9567 L512.6846 543.1066 L512.6846 543.1066 L517.4346 545.9567 L511.1846 530.9567 Z" clip-path="url(#clipPath2)"/>
    </g>
    <g text-rendering="geometricPrecision" stroke-miterlimit="1.45" shape-rendering="geometricPrecision" transform="matrix(1,0,0,1,-430,-314)" stroke-linecap="butt">
      <path fill="none" d="M561.1846 550.9567 L561.1846 538.9567" clip-path="url(#clipPath2)"/>
      <path d="M561.1846 530.9567 L556.1846 542.9567 L561.1846 539.9567 L566.1846 542.9567 Z" clip-path="url(#clipPath2)" stroke="none"/>
      <path fill="none" d="M611.1846 550.9567 L611.1846 538.9567" clip-path="url(#clipPath2)"/>
      <path d="M611.1846 530.9567 L606.1846 542.9567 L611.1846 539.9567 L616.1846 542.9567 Z" clip-path="url(#clipPath2)" stroke="none"/>
    </g>
    <g text-rendering="geometricPrecision" stroke-miterlimit="1.45" shape-rendering="geometricPrecision" transform="matrix(1,0,0,1,-430,-314)" stroke-linecap="butt">
      <path fill="none" d="M461.1846 580.9567 L454.9346 595.9567 L459.6846 593.1067 L459.6846 593.1067 L459.6846 600.9567 L462.6846 600.9567 L462.6846 593.1067 L462.6846 593.1067 L467.4346 595.9567 L461.1846 580.9567 Z" clip-path="url(#clipPath2)"/>
    </g>
    <g text-rendering="geometricPrecision" stroke-miterlimit="1.45" shape-rendering="geometricPrecision" transform="matrix(1,0,0,1,-430,-314)" stroke-linecap="butt">
      <path fill="none" d="M511.1846 580.9567 L504.9346 595.9567 L509.6846 593.1067 L509.6846 593.1067 L509.6846 600.9567 L512.6846 600.9567 L512.6846 593.1066 L512.6846 593.1066 L517.4346 595.9567 L511.1846 580.9567 Z" clip-path="url(#clipPath2)"/>
    </g>
    <g text-rendering="geometricPrecision" stroke-miterlimit="1.45" shape-rendering="geometricPrecision" transform="matrix(1,0,0,1,-430,-314)" stroke-linecap="butt">
      <path fill="none" d="M561.1846 580.9567 L554.9346 595.9567 L559.6846 593.1067 L559.6846 600.9567 L562.6846 600.9567 L562.6846 593.1067 L567.4346 595.9567 L561.1846 580.9567 Z" clip-path="url(#clipPath2)"/>
    </g>
    <g text-rendering="geometricPrecision" stroke-miterlimit="1.45" shape-rendering="geometricPrecision" transform="matrix(1,0,0,1,-430,-314)" stroke-linecap="butt">
      <path fill="none" d="M461.1846 630.9567 L454.9346 645.9567 L459.6846 643.1067 L459.6846 643.1067 L459.6846 650.9567 L462.6846 650.9567 L462.6846 643.1067 L462.6846 643.1067 L467.4346 645.9567 L461.1846 630.9567 Z" clip-path="url(#clipPath2)"/>
    </g>
    <g text-rendering="geometricPrecision" stroke-miterlimit="1.45" shape-rendering="geometricPrecision" transform="matrix(1,0,0,1,-430,-314)" stroke-linecap="butt">
      <path fill="none" d="M511.1846 650.9567 L511.1846 638.9567" clip-path="url(#clipPath2)"/>
      <path d="M511.1846 630.9567 L506.1846 642.9567 L511.1846 639.9567 L516.1846 642.9567 Z" clip-path="url(#clipPath2)" stroke="none"/>
      <path fill="none" d="M461.1846 700.9567 L461.1846 688.9567" clip-path="url(#clipPath2)"/>
      <path d="M461.1846 680.9567 L456.1846 692.9567 L461.1846 689.9567 L466.1846 692.9567 Z" clip-path="url(#clipPath2)" stroke="none"/>
      <path fill="none" d="M846.3408 538.7609 L846.3408 568.1156" clip-path="url(#clipPath2)"/>
      <path d="M846.3408 576.1156 L851.3408 564.1156 L846.3408 567.1156 L841.3408 564.1156 Z" clip-path="url(#clipPath2)" stroke="none"/>
      <path fill="none" d="M846.3408 606.1156 L846.3408 635.4702" clip-path="url(#clipPath2)"/>
      <path d="M846.3408 643.4702 L851.3408 631.4702 L846.3408 634.4702 L841.3408 631.4702 Z" clip-path="url(#clipPath2)" stroke="none"/>
      <path fill="none" d="M861.3408 537.5233 L898.858 571.9448" clip-path="url(#clipPath2)"/>
      <path d="M904.7528 577.3533 L899.2909 565.5563 L898.1212 571.2687 L892.5303 572.9248 Z" clip-path="url(#clipPath2)" stroke="none"/>
    </g>
  </g>
</svg>
