<?xml version="1.0" encoding="UTF-8"?><svg xmlns="http://www.w3.org/2000/svg" xmlns:xlink="http://www.w3.org/1999/xlink" fill-opacity="1" color-rendering="auto" color-interpolation="auto" text-rendering="auto" stroke="black" stroke-linecap="square" width="690" stroke-miterlimit="10" shape-rendering="auto" stroke-opacity="1" fill="black" stroke-dasharray="none" font-weight="normal" stroke-width="1" height="702" font-family="'Dialog'" font-style="normal" stroke-linejoin="miter" font-size="12px" stroke-dashoffset="0" image-rendering="auto">
  <!--Generated by ySVG 2.5-->
  <defs id="genericDefs"/>
  <g>
    <defs id="defs1">
      <clipPath clipPathUnits="userSpaceOnUse" id="clipPath1">
        <path d="M0 0 L690 0 L690 702 L0 702 L0 0 Z"/>
      </clipPath>
      <clipPath clipPathUnits="userSpaceOnUse" id="clipPath2">
        <path d="M-82 -79 L608 -79 L608 623 L-82 623 L-82 -79 Z"/>
      </clipPath>
    </defs>
    <g fill="rgb(153,204,255)" text-rendering="geometricPrecision" shape-rendering="geometricPrecision" transform="matrix(1,0,0,1,82,79)" stroke="rgb(153,204,255)">
      <path d="M58.606 380.2599 L82.6233 358 L116.5888 358 L140.606 380.2599 L140.606 411.7401 L116.5888 434 L82.6233 434 L58.606 411.7401 Z" fill-rule="evenodd" clip-path="url(#clipPath2)" stroke="none"/>
    </g>
    <g text-rendering="geometricPrecision" stroke-miterlimit="1.45" shape-rendering="geometricPrecision" font-family="sans-serif" transform="matrix(1,0,0,1,82,79)" stroke-linecap="butt">
      <text x="66.9049" xml:space="preserve" y="400.1543" clip-path="url(#clipPath2)" stroke="none">Math Class</text>
    </g>
    <g stroke-linecap="butt" transform="matrix(1,0,0,1,82,79)" fill="rgb(255,102,0)" text-rendering="geometricPrecision" shape-rendering="geometricPrecision" stroke="rgb(255,102,0)" stroke-width="5" stroke-miterlimit="1.45">
      <path fill="none" d="M58.606 380.2599 L82.6233 358 L116.5888 358 L140.606 380.2599 L140.606 411.7401 L116.5888 434 L82.6233 434 L58.606 411.7401 Z" fill-rule="evenodd" clip-path="url(#clipPath2)"/>
    </g>
    <g fill="rgb(153,204,255)" text-rendering="geometricPrecision" shape-rendering="geometricPrecision" transform="matrix(1,0,0,1,82,79)" stroke="rgb(153,204,255)">
      <path d="M440.5 164.2599 L468.9106 142 L509.0894 142 L537.5 164.2599 L537.5 195.7401 L509.0894 218 L468.9106 218 L440.5 195.7401 Z" fill-rule="evenodd" clip-path="url(#clipPath2)" stroke="none"/>
    </g>
    <g text-rendering="geometricPrecision" stroke-miterlimit="1.45" shape-rendering="geometricPrecision" font-family="sans-serif" transform="matrix(1,0,0,1,82,79)" stroke-linecap="butt">
      <text x="460.8574" xml:space="preserve" y="170.1855" clip-path="url(#clipPath2)" stroke="none">Semantic</text>
      <text x="442.5381" xml:space="preserve" y="184.1543" clip-path="url(#clipPath2)" stroke="none">Comprehention</text>
      <text x="473.2148" xml:space="preserve" y="198.123" clip-path="url(#clipPath2)" stroke="none">Class</text>
    </g>
    <g stroke-linecap="butt" transform="matrix(1,0,0,1,82,79)" fill="rgb(255,102,0)" text-rendering="geometricPrecision" shape-rendering="geometricPrecision" stroke="rgb(255,102,0)" stroke-width="4" stroke-miterlimit="1.45">
      <path fill="none" d="M440.5 164.2599 L468.9106 142 L509.0894 142 L537.5 164.2599 L537.5 195.7401 L509.0894 218 L468.9106 218 L440.5 195.7401 Z" fill-rule="evenodd" clip-path="url(#clipPath2)"/>
    </g>
    <g fill="rgb(153,204,255)" text-rendering="geometricPrecision" shape-rendering="geometricPrecision" transform="matrix(1,0,0,1,82,79)" stroke="rgb(153,204,255)">
      <path d="M194.5 164.2599 L222.9106 142 L263.0894 142 L291.5 164.2599 L291.5 195.7401 L263.0894 218 L222.9106 218 L194.5 195.7401 Z" fill-rule="evenodd" clip-path="url(#clipPath2)" stroke="none"/>
    </g>
    <g text-rendering="geometricPrecision" stroke-miterlimit="1.45" shape-rendering="geometricPrecision" font-family="sans-serif" transform="matrix(1,0,0,1,82,79)" stroke-linecap="butt">
      <text x="214.8574" xml:space="preserve" y="170.1855" clip-path="url(#clipPath2)" stroke="none">Semantic</text>
      <text x="209.5283" xml:space="preserve" y="184.1543" clip-path="url(#clipPath2)" stroke="none">Generation</text>
      <text x="227.2148" xml:space="preserve" y="198.123" clip-path="url(#clipPath2)" stroke="none">Class</text>
    </g>
    <g stroke-linecap="butt" transform="matrix(1,0,0,1,82,79)" fill="rgb(255,102,0)" text-rendering="geometricPrecision" shape-rendering="geometricPrecision" stroke="rgb(255,102,0)" stroke-width="4" stroke-miterlimit="1.45">
      <path fill="none" d="M194.5 164.2599 L222.9106 142 L263.0894 142 L291.5 164.2599 L291.5 195.7401 L263.0894 218 L222.9106 218 L194.5 195.7401 Z" fill-rule="evenodd" clip-path="url(#clipPath2)"/>
    </g>
    <g fill="rgb(153,204,0)" text-rendering="geometricPrecision" shape-rendering="geometricPrecision" transform="matrix(1,0,0,1,82,79)" stroke="rgb(153,204,0)">
      <ellipse rx="37.5" ry="31" clip-path="url(#clipPath2)" cx="366" cy="180" stroke="none"/>
    </g>
    <g text-rendering="geometricPrecision" stroke-miterlimit="1.45" shape-rendering="geometricPrecision" font-family="sans-serif" transform="matrix(1,0,0,1,82,79)" stroke-linecap="butt">
      <text x="336.3896" xml:space="preserve" y="177.1699" clip-path="url(#clipPath2)" stroke="none">Language</text>
      <text x="346.9541" xml:space="preserve" y="191.1387" clip-path="url(#clipPath2)" stroke="none">Parser</text>
      <ellipse clip-path="url(#clipPath2)" fill="none" rx="37.5" cx="366" ry="31" cy="180" stroke="red"/>
    </g>
    <g fill="rgb(153,204,0)" text-rendering="geometricPrecision" shape-rendering="geometricPrecision" transform="matrix(1,0,0,1,82,79)" stroke="rgb(153,204,0)">
      <ellipse rx="37.5" ry="31" clip-path="url(#clipPath2)" cx="99.606" cy="303.5" stroke="none"/>
    </g>
    <g text-rendering="geometricPrecision" stroke-miterlimit="1.45" shape-rendering="geometricPrecision" font-family="sans-serif" transform="matrix(1,0,0,1,82,79)" stroke-linecap="butt">
      <text x="84.5973" xml:space="preserve" y="300.6699" clip-path="url(#clipPath2)" stroke="none">Math</text>
      <text x="80.5601" xml:space="preserve" y="314.6387" clip-path="url(#clipPath2)" stroke="none">Parser</text>
      <ellipse clip-path="url(#clipPath2)" fill="none" rx="37.5" cx="99.606" ry="31" cy="303.5" stroke="red"/>
    </g>
    <g fill="rgb(153,204,255)" text-rendering="geometricPrecision" shape-rendering="geometricPrecision" transform="matrix(1,0,0,1,82,79)" stroke="rgb(153,204,255)">
      <path d="M440.5 378.8102 L468.9106 354.5 L509.0894 354.5 L537.5 378.8102 L537.5 413.1898 L509.0894 437.5 L468.9106 437.5 L440.5 413.1898 Z" fill-rule="evenodd" clip-path="url(#clipPath2)" stroke="none"/>
    </g>
    <g text-rendering="geometricPrecision" stroke-miterlimit="1.45" shape-rendering="geometricPrecision" font-family="sans-serif" transform="matrix(1,0,0,1,82,79)" stroke-linecap="butt">
      <text x="463.4561" xml:space="preserve" y="393.1699" clip-path="url(#clipPath2)" stroke="none">Decision</text>
      <text x="473.2148" xml:space="preserve" y="407.1387" clip-path="url(#clipPath2)" stroke="none">Class</text>
    </g>
    <g stroke-linecap="butt" transform="matrix(1,0,0,1,82,79)" fill="rgb(255,102,0)" text-rendering="geometricPrecision" shape-rendering="geometricPrecision" stroke="rgb(255,102,0)" stroke-width="4" stroke-miterlimit="1.45">
      <path fill="none" d="M440.5 378.8102 L468.9106 354.5 L509.0894 354.5 L537.5 378.8102 L537.5 413.1898 L509.0894 437.5 L468.9106 437.5 L440.5 413.1898 Z" fill-rule="evenodd" clip-path="url(#clipPath2)"/>
    </g>
    <g fill="rgb(255,204,0)" text-rendering="geometricPrecision" shape-rendering="geometricPrecision" transform="matrix(1,0,0,1,82,79)" stroke="rgb(255,204,0)">
      <path d="M461.8906 -35 L486.8906 -63 L511.8906 -35 L486.8906 -7 Z" fill-rule="evenodd" clip-path="url(#clipPath2)" stroke="none"/>
    </g>
    <g text-rendering="geometricPrecision" stroke-miterlimit="1.45" shape-rendering="geometricPrecision" font-family="sans-serif" transform="matrix(1,0,0,1,82,79)" stroke-linecap="butt">
      <text x="472.2334" xml:space="preserve" y="-30.8457" clip-path="url(#clipPath2)" stroke="none">Start</text>
      <path fill="none" d="M461.8906 -35 L486.8906 -63 L511.8906 -35 L486.8906 -7 Z" clip-path="url(#clipPath2)" fill-rule="evenodd"/>
    </g>
    <g fill="rgb(255,204,0)" text-rendering="geometricPrecision" shape-rendering="geometricPrecision" transform="matrix(1,0,0,1,82,79)" stroke="rgb(255,204,0)">
      <path d="M461.8906 69 L486.8906 45.5 L511.8906 69 L486.8906 92.5 Z" fill-rule="evenodd" clip-path="url(#clipPath2)" stroke="none"/>
    </g>
    <g text-rendering="geometricPrecision" stroke-miterlimit="1.45" shape-rendering="geometricPrecision" font-family="sans-serif" transform="matrix(1,0,0,1,82,79)" stroke-linecap="butt">
      <text x="472.3975" xml:space="preserve" y="73.1543" clip-path="url(#clipPath2)" stroke="none">Loop</text>
      <path fill="none" d="M461.8906 69 L486.8906 45.5 L511.8906 69 L486.8906 92.5 Z" clip-path="url(#clipPath2)" fill-rule="evenodd"/>
    </g>
    <g fill="rgb(153,204,255)" text-rendering="geometricPrecision" shape-rendering="geometricPrecision" transform="matrix(1,0,0,1,82,79)" stroke="rgb(153,204,255)">
      <path d="M448 525.2599 L472.0172 503 L505.9828 503 L530 525.2599 L530 556.7401 L505.9828 579 L472.0172 579 L448 556.7401 Z" fill-rule="evenodd" clip-path="url(#clipPath2)" stroke="none"/>
    </g>
    <g text-rendering="geometricPrecision" stroke-miterlimit="1.45" shape-rendering="geometricPrecision" font-family="sans-serif" transform="matrix(1,0,0,1,82,79)" stroke-linecap="butt">
      <text x="456.3281" xml:space="preserve" y="538.1699" clip-path="url(#clipPath2)" stroke="none">ChatterBot</text>
      <text x="473.2148" xml:space="preserve" y="552.1387" clip-path="url(#clipPath2)" stroke="none">Class</text>
    </g>
    <g stroke-linecap="butt" transform="matrix(1,0,0,1,82,79)" fill="rgb(255,102,0)" text-rendering="geometricPrecision" shape-rendering="geometricPrecision" stroke="rgb(255,102,0)" stroke-width="4" stroke-miterlimit="1.45">
      <path fill="none" d="M448 525.2599 L472.0172 503 L505.9828 503 L530 525.2599 L530 556.7401 L505.9828 579 L472.0172 579 L448 556.7401 Z" fill-rule="evenodd" clip-path="url(#clipPath2)"/>
    </g>
    <g fill="rgb(153,204,255)" text-rendering="geometricPrecision" shape-rendering="geometricPrecision" transform="matrix(1,0,0,1,82,79)" stroke="rgb(153,204,255)">
      <path d="M202 380.2599 L226.0172 358 L259.9828 358 L284 380.2599 L284 411.7401 L259.9828 434 L226.0172 434 L202 411.7401 Z" fill-rule="evenodd" clip-path="url(#clipPath2)" stroke="none"/>
    </g>
    <g text-rendering="geometricPrecision" stroke-miterlimit="1.45" shape-rendering="geometricPrecision" font-family="sans-serif" transform="matrix(1,0,0,1,82,79)" stroke-linecap="butt">
      <text x="213.6035" xml:space="preserve" y="393.1699" clip-path="url(#clipPath2)" stroke="none">CleverBot</text>
      <text x="227.2148" xml:space="preserve" y="407.1387" clip-path="url(#clipPath2)" stroke="none">Class</text>
    </g>
    <g stroke-linecap="butt" transform="matrix(1,0,0,1,82,79)" fill="rgb(255,102,0)" text-rendering="geometricPrecision" shape-rendering="geometricPrecision" stroke="rgb(255,102,0)" stroke-width="5" stroke-miterlimit="1.45">
      <path fill="none" d="M202 380.2599 L226.0172 358 L259.9828 358 L284 380.2599 L284 411.7401 L259.9828 434 L226.0172 434 L202 411.7401 Z" fill-rule="evenodd" clip-path="url(#clipPath2)"/>
    </g>
    <g fill="rgb(255,153,204)" text-rendering="geometricPrecision" shape-rendering="geometricPrecision" transform="matrix(1,0,0,1,82,79)" stroke="rgb(255,153,204)">
      <rect x="310" width="112" height="47" y="92.5" clip-path="url(#clipPath2)" stroke="none"/>
    </g>
    <g text-rendering="geometricPrecision" stroke-miterlimit="1.45" shape-rendering="geometricPrecision" font-family="sans-serif" transform="matrix(1,0,0,1,82,79)" stroke-linecap="butt">
      <text x="310.6494" xml:space="preserve" y="120.1543" clip-path="url(#clipPath2)" stroke="none">Concept Database</text>
      <rect fill="none" x="310" width="112" height="47" y="92.5" clip-path="url(#clipPath2)"/>
    </g>
    <g fill="rgb(255,153,204)" text-rendering="geometricPrecision" shape-rendering="geometricPrecision" transform="matrix(1,0,0,1,82,79)" stroke="rgb(255,153,204)">
      <rect x="-66.5" width="112" height="47" y="434" clip-path="url(#clipPath2)" stroke="none"/>
    </g>
    <g text-rendering="geometricPrecision" stroke-miterlimit="1.45" shape-rendering="geometricPrecision" font-family="sans-serif" transform="matrix(1,0,0,1,82,79)" stroke-linecap="butt">
      <text x="-43.8721" xml:space="preserve" y="461.6543" clip-path="url(#clipPath2)" stroke="none">Math Rules</text>
      <rect fill="none" x="-66.5" width="112" height="47" y="434" clip-path="url(#clipPath2)"/>
    </g>
    <g fill="rgb(255,153,204)" text-rendering="geometricPrecision" shape-rendering="geometricPrecision" transform="matrix(1,0,0,1,82,79)" stroke="rgb(255,153,204)">
      <rect x="-66.5" width="112" height="47" y="319.5" clip-path="url(#clipPath2)" stroke="none"/>
    </g>
    <g text-rendering="geometricPrecision" stroke-miterlimit="1.45" shape-rendering="geometricPrecision" font-family="sans-serif" transform="matrix(1,0,0,1,82,79)" stroke-linecap="butt">
      <text x="-56.0449" xml:space="preserve" y="347.1543" clip-path="url(#clipPath2)" stroke="none">Math Database</text>
      <rect fill="none" x="-66.5" width="112" height="47" y="319.5" clip-path="url(#clipPath2)"/>
    </g>
    <g fill="silver" text-rendering="geometricPrecision" shape-rendering="geometricPrecision" transform="matrix(1,0,0,1,82,79)" stroke="silver">
      <rect x="310" width="112" height="47" y="15.5" clip-path="url(#clipPath2)" stroke="none"/>
    </g>
    <g text-rendering="geometricPrecision" stroke-miterlimit="1.45" shape-rendering="geometricPrecision" font-family="sans-serif" transform="matrix(1,0,0,1,82,79)" stroke-linecap="butt">
      <text x="327.7852" xml:space="preserve" y="43.1543" clip-path="url(#clipPath2)" stroke="none">Concept Dic.</text>
      <rect fill="none" x="310" width="112" height="47" y="15.5" clip-path="url(#clipPath2)"/>
    </g>
    <g fill="silver" text-rendering="geometricPrecision" shape-rendering="geometricPrecision" transform="matrix(1,0,0,1,82,79)" stroke="silver">
      <rect x="314" width="112" height="47" y="467.5" clip-path="url(#clipPath2)" stroke="none"/>
    </g>
    <g text-rendering="geometricPrecision" stroke-miterlimit="1.45" shape-rendering="geometricPrecision" font-family="sans-serif" transform="matrix(1,0,0,1,82,79)" stroke-linecap="butt">
      <text x="340.7764" xml:space="preserve" y="495.1543" clip-path="url(#clipPath2)" stroke="none">MetaData</text>
      <rect fill="none" x="314" width="112" height="47" y="467.5" clip-path="url(#clipPath2)"/>
    </g>
    <g fill="silver" text-rendering="geometricPrecision" shape-rendering="geometricPrecision" transform="matrix(1,0,0,1,82,79)" stroke="silver">
      <rect x="310" width="112" height="47" y="307.5" clip-path="url(#clipPath2)" stroke="none"/>
    </g>
    <g text-rendering="geometricPrecision" stroke-miterlimit="1.45" shape-rendering="geometricPrecision" font-family="sans-serif" transform="matrix(1,0,0,1,82,79)" stroke-linecap="butt">
      <text x="344.9355" xml:space="preserve" y="335.1543" clip-path="url(#clipPath2)" stroke="none">Corpus</text>
      <rect fill="none" x="310" width="112" height="47" y="307.5" clip-path="url(#clipPath2)"/>
    </g>
    <g fill="rgb(255,153,204)" text-rendering="geometricPrecision" shape-rendering="geometricPrecision" transform="matrix(1,0,0,1,82,79)" stroke="rgb(255,153,204)">
      <rect x="310" width="112" height="47" y="230.5" clip-path="url(#clipPath2)" stroke="none"/>
    </g>
    <g text-rendering="geometricPrecision" stroke-miterlimit="1.45" shape-rendering="geometricPrecision" font-family="sans-serif" transform="matrix(1,0,0,1,82,79)" stroke-linecap="butt">
      <text x="318.0264" xml:space="preserve" y="258.1543" clip-path="url(#clipPath2)" stroke="none">Langauge Rules</text>
      <rect fill="none" x="310" width="112" height="47" y="230.5" clip-path="url(#clipPath2)"/>
      <path fill="none" d="M328.5 180 L299.4695 180" clip-path="url(#clipPath2)"/>
      <path d="M291.4695 180 L303.4695 185 L300.4695 180 L303.4695 175 Z" clip-path="url(#clipPath2)" stroke="none"/>
      <path fill="none" d="M403.5 180 L432.5305 180" clip-path="url(#clipPath2)"/>
      <path d="M440.5305 180 L428.5305 175 L431.5305 180 L428.5305 185 Z" clip-path="url(#clipPath2)" stroke="none"/>
      <path fill="none" d="M99.606 334.5 L99.606 350.0129" clip-path="url(#clipPath2)"/>
      <path d="M99.606 358.0129 L104.606 346.0129 L99.606 349.0129 L94.606 346.0129 Z" clip-path="url(#clipPath2)" stroke="none"/>
      <path fill="none" d="M489 217.9951 L489 346.4974" clip-path="url(#clipPath2)"/>
      <path d="M489 354.4974 L494 342.4974 L489 345.4974 L484 342.4974 Z" clip-path="url(#clipPath2)" stroke="none"/>
      <path fill="none" d="M486.8906 -6.9941 L486.8906 37.5116" clip-path="url(#clipPath2)"/>
      <path d="M486.8906 45.5116 L491.8906 33.5116 L486.8906 36.5116 L481.8906 33.5116 Z" clip-path="url(#clipPath2)" stroke="none"/>
      <path fill="none" d="M487.3289 92.0618 L488.1259 134.0008" clip-path="url(#clipPath2)"/>
      <path d="M488.2779 141.9993 L493.049 129.9065 L488.1068 133.001 L483.0508 130.0965 Z" clip-path="url(#clipPath2)" stroke="none"/>
      <path fill="none" d="M489 437.5247 L489 494.9799" clip-path="url(#clipPath2)"/>
      <path d="M489 502.9799 L494 490.9799 L489 493.9799 L484 490.9799 Z" clip-path="url(#clipPath2)" stroke="none"/>
      <path fill="none" d="M511.6531 508.2534 L559.5606 439 L559.5606 69 L519.9064 69" clip-path="url(#clipPath2)"/>
      <path d="M511.9064 69 L523.9064 74 L520.9064 69 L523.9064 64 Z" clip-path="url(#clipPath2)" stroke="none"/>
      <path fill="none" d="M440.5027 396 L292.0339 396" clip-path="url(#clipPath2)"/>
      <path d="M284.0339 396 L296.0339 401 L293.0339 396 L296.0339 391 Z" clip-path="url(#clipPath2)" stroke="none"/>
      <path fill="none" d="M140.6008 396 L193.9503 396" clip-path="url(#clipPath2)"/>
      <path d="M201.9503 396 L189.9503 391 L192.9503 396 L189.9503 401 Z" clip-path="url(#clipPath2)" stroke="none"/>
      <path fill="none" d="M243 217.9951 L243 349.9741" clip-path="url(#clipPath2)"/>
      <path d="M243 357.9741 L248 345.9741 L243 348.9741 L238 345.9741 Z" clip-path="url(#clipPath2)" stroke="none"/>
      <path fill="none" d="M243 433.9998 L243 607.3333 L593 607.3333 L593 41 L514 41 L504.3422 50.9751" clip-path="url(#clipPath2)"/>
      <path d="M498.7775 56.7227 L510.7167 51.5793 L505.0378 50.2567 L503.5323 44.6234 Z" clip-path="url(#clipPath2)" stroke="none"/>
      <path fill="none" d="M320.8359 139.5 L291.3331 154.8511" clip-path="url(#clipPath2)"/>
      <path d="M284.2363 158.5437 L297.1894 157.4402 L292.2202 154.3895 L292.5736 148.5692 Z" clip-path="url(#clipPath2)" stroke="none"/>
      <path fill="none" d="M411.1641 139.5 L440.6669 154.8511" clip-path="url(#clipPath2)"/>
      <path d="M447.7637 158.5437 L439.4264 148.5692 L439.7798 154.3895 L434.8106 157.4402 Z" clip-path="url(#clipPath2)" stroke="none"/>
      <path fill="none" d="M-10.5 434 L-10.5 407.7501 L50.6107 407.7501" clip-path="url(#clipPath2)"/>
      <path d="M58.6107 407.7501 L46.6107 402.7501 L49.6107 407.7501 L46.6107 412.7501 Z" clip-path="url(#clipPath2)" stroke="none"/>
      <path fill="none" d="M-10.5 366.5 L-10.5 386.33 L50.6064 386.33" clip-path="url(#clipPath2)"/>
      <path d="M58.6064 386.33 L46.6064 381.33 L49.6064 386.33 L46.6064 391.33 Z" clip-path="url(#clipPath2)" stroke="none"/>
      <path fill="none" d="M366 62.5 L366 84.5" clip-path="url(#clipPath2)"/>
      <path d="M366 92.5 L371 80.5 L366 83.5 L361 80.5 Z" clip-path="url(#clipPath2)" stroke="none"/>
      <path fill="none" d="M370 514.5 L370 541 L440.0066 541" clip-path="url(#clipPath2)"/>
      <path d="M448.0066 541 L436.0066 536 L439.0066 541 L436.0066 546 Z" clip-path="url(#clipPath2)" stroke="none"/>
      <path fill="none" d="M366 307.5 L366 285.5" clip-path="url(#clipPath2)"/>
      <path d="M366 277.5 L361 289.5 L366 286.5 L371 289.5 Z" clip-path="url(#clipPath2)" stroke="none"/>
      <path fill="none" d="M408.554 230.5 L433 217 L445.1105 208.9984" clip-path="url(#clipPath2)"/>
      <path d="M451.7852 204.5884 L439.0168 207.0318 L444.2762 209.5497 L444.5294 215.3752 Z" clip-path="url(#clipPath2)" stroke="none"/>
      <path fill="none" d="M320.3824 230.5 L300 220 L285.7579 210.0056" clip-path="url(#clipPath2)"/>
      <path d="M279.2095 205.4102 L286.16 216.3961 L286.5765 210.58 L291.9043 208.2105 Z" clip-path="url(#clipPath2)" stroke="none"/>
    </g>
  </g>
</svg>
