<?xml version="1.0" encoding="UTF-8" standalone="no"?>
<!-- Created with Inkscape (http://www.inkscape.org/) -->

<svg
   xmlns:dc="http://purl.org/dc/elements/1.1/"
   xmlns:cc="http://creativecommons.org/ns#"
   xmlns:rdf="http://www.w3.org/1999/02/22-rdf-syntax-ns#"
   xmlns:svg="http://www.w3.org/2000/svg"
   xmlns="http://www.w3.org/2000/svg"
   xmlns:sodipodi="http://sodipodi.sourceforge.net/DTD/sodipodi-0.dtd"
   xmlns:inkscape="http://www.inkscape.org/namespaces/inkscape"
   version="1.1"
   width="800"
   height="700"
   id="svg2"
   inkscape:version="0.48.4 r9939"
   sodipodi:docname="Spec.Dec.Bot-Mascot.svg">
  <sodipodi:namedview
     pagecolor="#ffffff"
     bordercolor="#666666"
     borderopacity="1"
     objecttolerance="10"
     gridtolerance="10"
     guidetolerance="10"
     inkscape:pageopacity="0"
     inkscape:pageshadow="2"
     inkscape:window-width="1301"
     inkscape:window-height="744"
     id="namedview77"
     showgrid="false"
     inkscape:zoom="0.33714286"
     inkscape:cx="143.34333"
     inkscape:cy="594.80312"
     inkscape:window-x="65"
     inkscape:window-y="24"
     inkscape:window-maximized="1"
     inkscape:current-layer="svg2"
     showguides="true"
     inkscape:guide-bbox="true" />
  <metadata
     id="metadata8">
    <rdf:RDF>
      <cc:Work
         rdf:about="">
        <dc:format>image/svg+xml</dc:format>
        <dc:type
           rdf:resource="http://purl.org/dc/dcmitype/StillImage" />
        <dc:title />
      </cc:Work>
    </rdf:RDF>
  </metadata>
  <defs
     id="defs6" />
  <g
     id="layer1"
     transform="translate(249.15254,142.37288)">
    <path
       d="M 44.942067,203.91598 C -19.878188,159.00031 27.180815,82.027658 65.99789,43.75235 c 11.9047,-11.73854 49.82589,-17.246028 61.66352,-28.918434 2.56643,-2.53061 28.00856,-4.266785 31.58375,-0.741498 11.4859,11.325586 35.61452,12.85198 47.39656,24.46958 9.45448,9.32252 24.41194,11.486262 35.32278,22.244812 10.36395,10.219304 43.40385,92.2993 18.94641,116.41537 -9.34787,9.2174 -10.04,12.72121 -19.6984,22.24481"
       id="path3014"
       style="fill:none;stroke:#000000;stroke-width:1.00701571px;stroke-linecap:butt;stroke-linejoin:miter;stroke-opacity:1"
       inkscape:connector-curvature="0" />
  </g>
  <path
     d="m 368.53813,161.65254 c 5.10656,20.42623 33.74652,72.65527 19.27966,101.58898 -3.97769,7.95539 -1.97653,21.99772 -7.41525,27.43644 -2.19536,2.19536 -23.82636,8.05923 -20.02119,11.86441 19.69315,19.69314 44.08761,46.07921 63.02967,11.12288 3.58686,-39.21115 -35.70403,-134.10529 -13.34746,-156.46186"
     id="path3016"
     style="fill:none;stroke:#000000;stroke-width:1px;stroke-linecap:butt;stroke-linejoin:miter;stroke-opacity:1"
     inkscape:connector-curvature="0" />
  <path
     d="m 296.61017,358.8983 c 6.0244,-54.21962 34.94517,-56.26245 63.77118,-27.43644 6.22738,6.22737 4.28014,16.14455 8.15678,20.02119 12.6483,12.64829 14.22015,-35.86003 4.44916,-34.8517 -36.1236,-39.88524 -77.11865,-19.42774 -77.11865,38.55932"
     id="path3018"
     style="fill:#1c2224;stroke:#000000;stroke-width:1px;stroke-linecap:butt;stroke-linejoin:miter;stroke-opacity:1"
     inkscape:connector-curvature="0" />
  <path
     d="m 414.51271,329.23728 c 1.5793,-13.4494 46.95277,-47.66618 68.96186,-30.40254 10.6647,8.36525 15.14413,39.72582 8.06683,59.9209 -3.37687,9.63591 12.16147,-42.86581 -17.70666,-42.86581 -16.53984,0 -59.32203,66.70487 -59.32203,37.07627 0,-7.6841 -3.52669,-14.32431 0,-23.72882 z"
     id="path3020"
     style="fill:#1c1f24;stroke:#000000;stroke-width:1px;stroke-linecap:butt;stroke-linejoin:miter;stroke-opacity:1"
     inkscape:connector-curvature="0"
     sodipodi:nodetypes="cssssc" />
  <path
     d="m 365.57203,346.29237 c -45.69451,-60.86772 -39.44018,-0.6022 -57.83898,17.79661 -8.96343,8.96343 -11.12288,-1.44961 -11.12288,-8.15678"
     id="path3022"
     style="fill:none;stroke:#000000;stroke-width:1px;stroke-linecap:butt;stroke-linejoin:miter;stroke-opacity:1"
     inkscape:connector-curvature="0" />
  <path
     d="m 492.37288,350.74152 c 0,-54.74462 -54.55278,-14.68485 -66.73729,8.52755 -8.81297,-1.94649 -5.24957,3.10127 -6.67373,-2.59534"
     id="path3024"
     style="fill:none;stroke:#000000;stroke-width:1px;stroke-linecap:butt;stroke-linejoin:miter;stroke-opacity:1"
     inkscape:connector-curvature="0" />
  <path
     d="m 459.74576,332.94491 c 25.44868,-6.07556 19.21674,16.25064 31.14407,28.17797"
     id="path3026"
     style="fill:none;stroke:#000000;stroke-width:1px;stroke-linecap:butt;stroke-linejoin:miter;stroke-opacity:1"
     inkscape:connector-curvature="0" />
  <path
     d="m 373.72881,358.8983 c -2.86713,-7.94492 -6.79503,-12.72723 -11.12288,-17.05508 -4.4577,-4.4577 -15.80076,-3.19484 -20.02119,-7.41526 -34.13525,-34.13525 -11.8415,79.32032 22.98729,44.49153 5.79244,-5.79244 9.36519,-9.14551 8.15678,-20.02119 z"
     id="path3028"
     style="fill:none;stroke:#000000;stroke-width:1px;stroke-linecap:butt;stroke-linejoin:miter;stroke-opacity:1"
     inkscape:connector-curvature="0" />
  <path
     d="m 427.11864,372.98728 c -16.72292,-28.24454 63.7171,-40.67571 52.64831,-18.53813 -4.2031,8.40619 -52.64831,41.71775 -52.64831,18.53813 z"
     id="path3030"
     style="fill:none;stroke:#000000;stroke-width:1px;stroke-linecap:butt;stroke-linejoin:miter;stroke-opacity:1"
     inkscape:connector-curvature="0" />
  <path
     d="m 303.2839,367.05508 c 10.40082,4.8177 14.32126,32.11787 25.21186,43.00848 4.82317,4.82316 17.84577,1.5322 22.24576,5.9322 17.113,17.11299 20.66399,45.08607 23.72882,72.66949"
     id="path3032"
     style="fill:none;stroke:#000000;stroke-width:1px;stroke-linecap:butt;stroke-linejoin:miter;stroke-opacity:1"
     inkscape:connector-curvature="0" />
  <path
     d="m 424.89407,372.24576 c 1.21191,41.66797 10.22313,78.49307 1.48305,113.45339"
     id="path3034"
     style="fill:none;stroke:#000000;stroke-width:1px;stroke-linecap:butt;stroke-linejoin:miter;stroke-opacity:1"
     inkscape:connector-curvature="0" />
  <path
     d="m 487.1822,364.08898 c -0.96688,33.32443 -19.70338,42.69067 -34.11017,57.09746 -5.3269,5.3269 1.18231,25.51261 -4.44915,31.14407 -14.86444,14.86444 -21.89767,38.21122 -37.07627,53.38983 -17.33762,17.33761 -52.12843,-32.10725 -57.83898,-37.8178 -4.09507,-4.09506 5.19067,-32.67904 5.19067,-41.52542"
     id="path3036"
     style="fill:none;stroke:#000000;stroke-width:1px;stroke-linecap:butt;stroke-linejoin:miter;stroke-opacity:1"
     inkscape:connector-curvature="0" />
  <path
     d="M 349.25847,460.48728 C 337.87322,449.12044 338.13559,432.12814 338.13559,412.28813"
     id="path3038"
     style="fill:none;stroke:#000000;stroke-width:1px;stroke-linecap:butt;stroke-linejoin:miter;stroke-opacity:1"
     inkscape:connector-curvature="0" />
  <path
     d="m 373.72881,459.74576 c 11.07567,-15.32777 34.51434,-18.67317 53.38983,-5.19068"
     id="path3044"
     style="fill:none;stroke:#000000;stroke-width:1px;stroke-linecap:butt;stroke-linejoin:miter;stroke-opacity:1"
     inkscape:connector-curvature="0" />
  <path
     d="m 420.44491,424.89406 c -9.0842,-31.37235 -15.60265,1.73363 0,0 z"
     id="path3046"
     style="fill:none;stroke:#000000;stroke-width:1px;stroke-linecap:butt;stroke-linejoin:miter;stroke-opacity:1"
     inkscape:connector-curvature="0" />
  <path
     d="m 424.89407,372.98728 c -59.43812,-46.12696 -50.14682,31.618 -55.61441,80.82628"
     id="path3050"
     style="fill:none;stroke:#000000;stroke-width:1px;stroke-linecap:butt;stroke-linejoin:miter;stroke-opacity:1"
     inkscape:connector-curvature="0" />
  <path
     d="m 417.47881,352.22457 c -23.72789,-0.87306 -12.781,-10.2888 -11.12288,-25.21186"
     id="path3052"
     style="fill:none;stroke:#000000;stroke-width:1px;stroke-linecap:butt;stroke-linejoin:miter;stroke-opacity:1"
     inkscape:connector-curvature="0" />
  <path
     d="m 387.81779,328.49576 c 5.68654,8.46631 3.31704,23.72881 -16.31355,23.72881"
     id="path3054"
     style="fill:none;stroke:#000000;stroke-width:1px;stroke-linecap:butt;stroke-linejoin:miter;stroke-opacity:1"
     inkscape:connector-curvature="0" />
  <path
     d="m 433.79237,385.59322 c 18.9794,41.04283 44.09858,-5.3787 52.64831,-28.17797"
     id="path3056"
     style="fill:none;stroke:#000000;stroke-width:1px;stroke-linecap:butt;stroke-linejoin:miter;stroke-opacity:1"
     inkscape:connector-curvature="0" />
  <path
     d="m 378.17796,372.98728 c -18.9407,71.58786 -59.3805,1.36612 -66.73728,-13.34745"
     id="path3058"
     style="fill:none;stroke:#000000;stroke-width:1px;stroke-linecap:butt;stroke-linejoin:miter;stroke-opacity:1"
     inkscape:connector-curvature="0" />
  <path
     d="m 383.36865,426.37712 c 4.73876,-24.88724 21.10496,-10.55248 0,0 z"
     id="path3066"
     style="fill:none;stroke:#000000;stroke-width:1px;stroke-linecap:butt;stroke-linejoin:miter;stroke-opacity:1"
     inkscape:connector-curvature="0" />
  <path
     d="m 394.46862,505.79017 c -7.23641,-3.60606 -20.41527,-14.83163 -19.67554,-16.75934 0.5926,-1.54428 -2.09889,-24.28346 -3.67278,-31.02975 -0.85899,-3.68194 -0.66061,-7.63324 2.41854,-48.17246 2.24447,-29.55004 5.74615,-41.07416 14.43943,-47.5206 5.87283,-4.35495 19.37892,-0.73144 32.03536,8.59467 4.41166,3.25081 4.45705,3.35054 4.47543,9.83177 0.0102,3.6012 0.94566,17.16548 2.07879,30.14283 3.52154,40.33118 2.35001,68.07475 -3.2664,77.35295 -4.50751,7.4463 -11.70139,16.18413 -14.96074,18.17161 -4.36429,2.66125 -7.58957,2.51902 -13.87209,-0.61168 l 0,0 z M 378.4166,456.54009 c 7.70932,-6.96491 11.80588,-8.43482 23.50738,-8.43482 9.75328,0 10.95689,0.23838 17.20847,3.40819 7.01252,3.55565 8.48407,3.99465 8.48407,2.531 0,-1.31229 -10.30106,-6.19467 -16.03475,-7.59997 -6.82679,-1.67322 -19.02887,-0.74708 -24.99195,1.89687 -6.66953,2.95719 -16.3019,11.82367 -12.84501,11.82367 0.36268,0 2.46498,-1.63122 4.67179,-3.62494 z m 9.13668,-31.48881 c 7.3121,-4.83893 9.76462,-13.12531 3.88469,-13.12531 -3.50448,0 -8.91449,8.68661 -8.91449,14.3136 0,1.93106 0.49165,1.81491 5.0298,-1.18829 l 0,0 z m 33.77119,-0.51131 c 0,-1.97968 -4.92652,-12.10805 -6.53572,-13.4367 -1.34863,-1.11351 -1.9421,-1.03642 -3.42319,0.44466 -4.00307,4.00307 0.99386,14.01082 6.99568,14.01082 1.62978,0 2.96323,-0.45845 2.96323,-1.01878 z"
     id="path3092"
     style="fill:#93a7ac;fill-opacity:1"
     inkscape:connector-curvature="0" />
  <path
     d="m 496.90321,324.64338 c -1.75502,-7.02101 -7.67517,-20.02376 -11.25179,-24.71295 -8.12351,-10.65047 -26.34317,-9.84578 -46.12382,2.0371 -3.22081,1.93484 -7.92626,5.32764 -10.45656,7.53955 l -4.60054,4.02165 -2.1e-4,-7.16767 c -2.7e-4,-9.26891 -2.74291,-25.80649 -9.889,-59.62875 -3.1716,-15.01108 -6.727,-33.17938 -7.90088,-40.374 -3.28057,-20.10632 -2.62382,-38.29744 1.61749,-44.80208 l 1.53754,-2.35803 3.90933,2.4305 c 2.15014,1.33677 9.10028,4.47999 15.44477,6.98493 15.56489,6.14535 20.09733,8.48878 26.2391,13.56649 2.87164,2.37413 10.65814,7.13638 17.30335,10.58277 6.64521,3.4464 13.79205,7.92694 15.88185,9.95676 6.87795,6.68054 15.97517,26.58271 22.52728,49.28333 7.90738,27.39616 8.66667,48.35243 2.20447,60.84246 -1.532,2.96099 -12.893,16.42068 -14.38419,17.04132 -0.37239,0.15498 -1.29857,-2.20454 -2.05819,-5.24338 z"
     id="path3094"
     style="fill:#93a7ac;fill-opacity:1"
     inkscape:connector-curvature="0" />
  <path
     d="m 369.31565,348.21894 c -1.13675,-1.58612 -2.9153,-5.64178 -3.95232,-9.01258 -1.41228,-4.59058 -3.11438,-7.31452 -6.78196,-10.85348 -18.4151,-17.76933 -38.00185,-21.08177 -49.20554,-8.32146 -3.52488,4.01461 -6.86726,9.93202 -9.22527,16.33259 -1.87081,5.07808 -1.90826,1.08059 -0.0551,-5.87955 3.83105,-14.38868 12.80528,-26.42627 22.96624,-30.8058 13.42056,-5.78446 28.23699,-1.31193 45.30465,13.67579 8.60924,7.56008 9.36161,9.19594 9.40319,20.44521 0.0564,15.2589 -3.50215,21.3285 -8.45391,14.41928 z"
     id="path3096"
     style="fill:#93a7ac;fill-opacity:1"
     inkscape:connector-curvature="0" />
  <path
     d="m 416.8676,358.88716 c -1.16316,-1.17305 -0.95507,-5.68701 0.26217,-5.68701 0.57677,0 1.04867,-0.4719 1.04867,-1.04867 0,-0.57678 -0.65288,-1.04868 -1.45084,-1.04868 -1.00896,0 -1.6692,-2.03893 -2.16776,-6.6944 -1.30469,-12.18301 1.08299,-18.77552 10.06042,-27.77745 6.96529,-6.98428 15.41065,-12.79397 25.70455,-17.68252 14.4097,-6.84314 27.80252,-5.72482 33.89424,2.8302 3.16074,4.43885 8.89521,17.25056 10.97267,24.51466 1.65553,5.78879 1.65011,6.28003 -0.0983,8.91375 l -1.85037,2.78732 -1.18587,-5.24338 c -2.30267,-10.18137 -6.56057,-15.49209 -13.70814,-17.09763 -8.73404,-1.9619 -12.87697,0.8183 -38.30259,25.70376 -16.2062,15.86192 -19.77069,18.75338 -19.77069,16.03774 0,-1.71075 -1.91439,-1.1921 -2.28262,0.61842 -0.18649,0.9169 -0.69299,1.31015 -1.12557,0.87389 z"
     id="path3098"
     style="fill:#93a7ac;fill-opacity:1"
     inkscape:connector-curvature="0" />
  <path
     d="m 295.12712,346.29237 c -0.57845,1.19733 -1.84971,-0.73988 -1.85381,-0.74152"
     id="path3100"
     style="fill:none;stroke:#000000;stroke-width:1px;stroke-linecap:butt;stroke-linejoin:miter;stroke-opacity:1"
     inkscape:connector-curvature="0" />
  <path
     d="m 295.12712,346.29237 0.74152,0.74153"
     id="path3115"
     style="fill:#1c1f24;stroke:#000000;stroke-width:1px;stroke-linecap:butt;stroke-linejoin:miter;stroke-opacity:1"
     inkscape:connector-curvature="0" />
  <path
     d="m 291.13709,343.11356 c -15.97814,-11.99862 -25.26873,-27.12199 -27.90181,-45.41902 -0.64149,-4.45761 -0.54641,-14.59596 0.18359,-19.57819 3.80017,-25.93564 18.33987,-53.65705 42.528,-81.08388 5.6708,-6.4301 10.81015,-11.53808 13.31502,-13.23373 4.28962,-2.90383 12.16227,-6.2781 25.76801,-11.04434 9.58181,-3.35662 18.01755,-6.56454 21.12251,-8.03242 l 2.21362,-1.04649 1.16556,3.6091 c 0.64106,1.98501 3.45459,9.61546 6.2523,16.95657 10.06757,26.41707 13.74717,39.4998 15.06835,53.57521 0.81363,8.66808 -0.0155,15.61787 -2.69811,22.61652 -2.44708,6.38411 -2.7997,7.7493 -3.81419,14.76691 -1.44483,9.99441 -2.51338,13.35534 -4.78625,15.05435 -0.63533,0.47493 -3.74122,1.90411 -6.90197,3.17596 -9.72769,3.91432 -13.34746,6.08323 -13.34746,7.99757 0,0.48158 0.51781,1.46535 1.15069,2.18617 0.63289,0.72081 1.07311,1.31057 0.97828,1.31057 -0.0948,0 -1.40515,-0.81189 -2.91182,-1.80419 -20.18822,-13.29612 -41.11239,-9.32623 -53.29319,10.11119 -4.90527,7.82753 -7.74875,17.00785 -9.51382,30.71577 -0.12917,1.00324 -0.41938,1.76113 -0.67436,1.76113 -0.24618,0 -2.00251,-1.16764 -3.90295,-2.59476 l 0,0 z"
     id="path3130"
     style="fill:#374548;fill-opacity:1"
     inkscape:connector-curvature="0" />
  <path
     d="m 498.39526,328.62883 c -0.21946,-0.55631 -1.00651,-2.93017 -1.749,-5.27524 -2.70694,-8.54955 -7.55647,-19.07028 -10.72762,-23.27288 -3.98495,-5.28109 -9.5382,-7.65949 -17.79553,-7.62161 -7.00494,0.0321 -14.0632,1.90624 -22.34769,5.93375 -6.40385,3.11323 -10.83238,6.145 -20.09353,13.756 l -1.02827,0.84506 -0.19239,-7.3334 c -0.29021,-11.06218 -1.80862,-20.31373 -9.57066,-58.31328 -7.77069,-38.04185 -9.97509,-51.24571 -9.98123,-59.78548 l -10e-4,-1.76113 27.66756,0 27.66756,0 2.82767,1.72028 c 1.55522,0.94615 5.9977,3.46463 9.87217,5.59663 8.65444,4.76227 13.76706,8.07744 16.02158,10.38885 8.49673,8.71116 20.44971,38.3018 25.65249,63.505 2.34006,11.33569 3.07343,19.22273 2.61884,28.16424 -0.44361,8.7257 -2.2643,15.28695 -5.42652,19.55566 -3.43338,4.63475 -10.98089,13.44462 -12.38264,14.4537 -0.54118,0.38958 -0.69013,0.30927 -1.03152,-0.55615 z"
     id="path3132"
     style="fill:#374548;fill-opacity:1"
     inkscape:connector-curvature="0" />
  <path
     d="m 370.29825,348.92073 c -1.31194,-1.45919 -2.05908,-2.86234 -3.40551,-6.39565 -3.10569,-8.14999 -4.34864,-10.36531 -7.71533,-13.75116 -10.33708,-10.3959 -22.5149,-16.56171 -32.66105,-16.53677 -10.63286,0.0261 -18.10165,5.85357 -24.20881,18.88867 -1.10226,2.35266 -2.32518,4.94493 -2.71761,5.76061 l -0.71349,1.48305 0.21751,-1.85382 c 1.40629,-11.98565 9.48649,-26.66458 18.22357,-33.10591 13.90121,-10.24854 30.05721,-7.33192 49.43287,8.92406 9.74779,8.17829 10.72123,10.10381 10.72123,21.20717 0,6.44004 -0.43875,10.76557 -1.37191,13.52523 -1.45371,4.29912 -3.12362,4.83293 -5.80147,1.85452 z"
     id="path3134"
     style="fill:#374548;fill-opacity:1"
     inkscape:connector-curvature="0" />
  <path
     d="m 416.82208,358.29796 c -0.96526,-1.8036 -0.2479,-5.28335 1.08917,-5.28335 0.18935,0 0.34428,-0.34237 0.34428,-0.76082 0,-0.50907 -0.36176,-0.88692 -1.09332,-1.14194 -1.23159,-0.42933 -1.62776,-1.34365 -2.2279,-5.14174 -0.55029,-3.48253 -0.46117,-10.52008 0.17137,-13.53283 1.10377,-5.25725 4.12125,-10.01753 10.12476,-15.97245 9.14047,-9.0665 23.01568,-17.49004 33.62361,-20.41262 4.48838,-1.2366 11.20061,-1.57163 14.74112,-0.7358 2.8109,0.66359 5.72211,2.02364 7.7503,3.62076 3.50344,2.75883 9.54521,14.80384 13.24731,26.41016 1.91283,5.99686 1.92964,7.06493 0.1571,9.98284 l -1.36581,2.24838 -1.1682,-4.60983 c -1.37681,-5.43302 -2.28975,-7.86883 -3.87541,-10.33985 -2.52934,-3.94164 -6.76944,-6.6642 -11.54928,-7.41578 -7.12152,-1.11978 -11.92557,2.02012 -30.65557,20.0363 -18.90189,18.18152 -24.16374,22.95589 -25.29974,22.95589 -0.16731,0 -0.35751,-0.37539 -0.42267,-0.83421 -0.0751,-0.52869 -0.41643,-0.87662 -0.932,-0.94999 -0.62044,-0.0883 -0.98265,0.21392 -1.52614,1.27329 -0.6827,1.33071 -0.73028,1.35605 -1.13298,0.60359 l 0,0 z"
     id="path3136"
     style="fill:#374548;fill-opacity:1"
     inkscape:connector-curvature="0" />
  <path
     d="m 397.17968,506.70549 c -5.28474,-2.17679 -11.88268,-6.73787 -17.92894,-12.39407 -4.05739,-3.79564 -4.23889,-4.17875 -4.49626,-9.49067 -0.25669,-5.29819 -1.73738,-17.17127 -3.07479,-24.65572 -0.949,-5.31077 -0.95552,-5.47287 -0.53728,-13.34746 0.42556,-8.01228 2.27887,-33.946 2.99405,-41.89618 2.07552,-23.0722 5.11076,-33.67676 11.47135,-40.07882 3.28041,-3.3018 4.28423,-3.77625 8.39532,-3.96799 3.81728,-0.17803 7.28403,0.53284 12.25825,2.51363 6.22074,2.47717 16.06457,8.78249 17.21092,11.02421 0.42984,0.84058 0.69578,3.31719 1.01605,9.46247 0.2386,4.57815 1.01155,15.81638 1.71766,24.97386 1.86508,24.18815 2.187,31.80345 1.93947,45.8803 -0.27109,15.41674 -0.98674,22.05643 -3.09999,28.76091 -1.52276,4.83108 -7.84586,14.0048 -13.83939,20.07853 -4.61707,4.67885 -8.28926,5.50014 -14.02642,3.137 z m -18.56532,-50.08312 c 6.81746,-5.70518 9.66744,-7.11628 16.10212,-7.97257 4.45716,-0.59314 16.00336,-0.25641 18.46959,0.53864 0.98431,0.31732 4.28176,1.76026 7.32767,3.20654 5.24128,2.48871 6.95492,2.95091 7.27979,1.96352 0.23978,-0.72875 -1.29361,-1.83828 -5.21842,-3.77594 -8.82747,-4.3581 -15.22583,-5.68283 -23.77151,-4.92171 -8.69263,0.77422 -13.35553,2.40443 -18.92201,6.61542 -5.26513,3.983 -8.32479,7.88876 -6.17984,7.88876 0.3736,0 2.58427,-1.59419 4.91261,-3.54266 z m 8.21215,-30.91927 c 4.68984,-3.13676 7.45812,-6.67684 7.93354,-10.14542 0.18349,-1.33873 0.076,-1.76642 -0.65576,-2.60865 -1.06292,-1.2234 -3.01108,-1.41212 -4.61331,-0.44688 -2.71376,1.63486 -5.96208,7.14375 -6.83822,11.59706 -0.79781,4.05521 0.032,4.37408 4.17375,1.60389 l 0,0 z m 34.47544,-0.69255 c 0.48061,-0.4806 -0.43719,-3.07114 -2.86064,-8.07439 -2.25824,-4.66217 -3.90282,-6.8241 -5.19108,-6.8241 -0.89605,0 -2.72119,1.84768 -3.17078,3.20995 -1.18942,3.604 1.53808,9.58943 5.26161,11.54644 1.33161,0.69986 1.97562,0.81165 3.651,0.63377 1.11881,-0.11879 2.15827,-0.34004 2.30989,-0.49167 l 0,0 z"
     id="path3138"
     style="fill:#1c2224;fill-opacity:1"
     inkscape:connector-curvature="0" />
  <path
     d="m 293.11867,344.24118 c -0.81323,-0.54471 -2.81335,-2.07566 -4.44471,-3.40213 -13.27258,-10.79199 -21.52887,-24.23126 -24.72993,-40.2544 -1.14471,-5.7299 -1.14053,-17.4633 0.009,-24.31793 2.91082,-17.36238 11.00685,-36.43976 23.0816,-54.38919 6.80245,-10.11202 17.9878,-23.93914 25.7516,-31.83365 l 4.17301,-4.24326 29.60753,0.001 29.60753,0.001 3.25875,8.99083 c 8.00098,22.07449 10.88484,34.04962 11.28642,46.86638 0.24934,7.95802 -0.25759,11.07168 -3.25245,19.97688 -1.70841,5.07998 -2.39238,7.84734 -3.30939,13.38992 -1.73303,10.47484 -2.60822,13.28839 -4.62763,14.87685 -0.51081,0.40181 -3.56035,1.85723 -6.77676,3.23426 -10.7706,4.6112 -13.44864,6.26026 -13.44864,8.2813 0,0.56272 0.19743,1.22056 0.43873,1.46187 0.94971,0.9497 -0.0306,0.75305 -1.76311,-0.35369 -3.43422,-2.19381 -10.06345,-5.14326 -13.73301,-6.11004 -4.76003,-1.25407 -12.46963,-1.43367 -16.8282,-0.39201 -6.26354,1.49692 -13.59542,6.08248 -17.98706,11.2496 -7.04622,8.29046 -10.65269,17.02733 -13.10776,31.75426 -0.54625,3.27671 -1.15819,6.01267 -1.35988,6.07989 -0.20168,0.0672 -1.03206,-0.32344 -1.8453,-0.86814 l 0,0 z"
     id="path3140"
     style="fill:#374548;fill-opacity:1"
     inkscape:connector-curvature="0" />
  <path
     d="m 498.51946,328.45158 c -0.0926,-0.2549 -1.00948,-2.94348 -2.03757,-5.97463 -4.27202,-12.59527 -8.84745,-21.47167 -13.0071,-25.23397 -3.82579,-3.46033 -8.23304,-4.85641 -15.1663,-4.80423 -6.88446,0.0518 -12.0576,1.22667 -19.46504,4.42065 -6.87134,2.96281 -11.98985,6.12905 -19.43385,12.0215 -2.32793,1.84271 -4.29796,3.28502 -4.37785,3.20513 -0.0799,-0.0799 -0.3069,-3.37518 -0.50447,-7.32285 -0.60682,-12.12507 -1.46319,-17.34128 -9.42623,-57.41595 -7.84797,-39.49555 -9.46044,-48.9052 -9.95916,-58.11705 l -0.18567,-3.42956 27.37855,0 27.37854,0 10.13711,5.78367 c 19.46822,11.10747 20.68549,12.21854 27.00388,24.64798 10.48042,20.61691 18.68147,48.6745 20.09443,68.74738 0.66114,9.39237 -0.43333,19.14775 -2.8023,24.97781 -1.42405,3.50462 -6.68946,10.48297 -12.4158,16.45492 -2.45273,2.55793 -2.91596,2.8521 -3.21117,2.0392 z"
     id="path3142"
     style="fill:#1c2224;fill-opacity:1"
     inkscape:connector-curvature="0" />
  <path
     d="m 370.61504,348.81329 c -1.1606,-1.21127 -2.02046,-2.78318 -3.49855,-6.39566 -3.48408,-8.51515 -4.55754,-10.29531 -8.71544,-14.45319 -7.38206,-7.38202 -15.71788,-12.50074 -24.16115,-14.83647 -2.97075,-0.82183 -10.04896,-1.12036 -12.70785,-0.53597 -6.10761,1.34237 -11.05911,4.95531 -15.25678,11.13235 -0.90074,1.32548 -2.85887,4.82919 -4.3514,7.78602 -2.80674,5.56042 -2.92699,5.53074 -1.50211,-0.37076 2.83553,-11.74407 11.36459,-24.39073 19.79822,-29.35629 4.44454,-2.61686 8.05173,-3.71585 12.90627,-3.93209 6.55363,-0.29193 12.15162,1.11293 19.08653,4.78992 6.30948,3.34537 14.07993,9.11837 19.41642,14.42528 4.0856,4.06294 5.12506,6.38801 5.43713,12.16167 0.50179,9.28363 -0.47891,17.65249 -2.3855,20.35695 -0.93969,1.33292 -2.29579,1.07551 -4.06579,-0.77176 z"
     id="path3144"
     style="fill:#1c1f24;fill-opacity:1"
     inkscape:connector-curvature="0" />
  <path
     d="m 416.77248,356.40147 c 0,-1.24241 0.23079,-2.09721 0.74152,-2.74651 1.00961,-1.28351 0.94106,-1.77949 -0.39816,-2.88047 -1.64563,-1.35289 -2.18552,-4.05046 -2.1859,-10.92196 -4.6e-4,-8.15851 1.05425,-11.67594 5.16291,-17.21823 2.27446,-3.06806 8.91191,-9.54442 12.80781,-12.49694 9.88361,-7.49033 21.74549,-13.36641 29.37068,-14.5495 3.39612,-0.52692 8.77726,-0.52872 11.30227,-0.004 2.94249,0.61174 6.57698,2.51884 8.45311,4.43553 4.56732,4.66608 13.71822,25.79822 13.71822,31.67946 0,1.31451 -1.65299,5.00196 -2.24224,5.00196 -0.14882,0 -0.38764,-0.62398 -0.53071,-1.38661 -0.56137,-2.99238 -2.90104,-10.02148 -3.94286,-11.84561 -3.28487,-5.75152 -10.70673,-9.46379 -16.69445,-8.35025 -6.00386,1.11653 -9.37733,3.8612 -37.19633,30.26309 -8.36275,7.93673 -13.42553,12.45285 -13.96025,12.45285 -0.16563,0 -0.47973,-0.33369 -0.69799,-0.74152 -0.54518,-1.01868 -1.71318,-0.93009 -2.44406,0.18538 -0.90521,1.38153 -1.26357,1.13283 -1.26357,-0.87691 z"
     id="path3146"
     style="fill:#1c2224;fill-opacity:1"
     inkscape:connector-curvature="0" />
  <path
     d="m 300.09016,366.17348 c -0.90545,-0.63421 -2.11639,-3.62514 -2.47998,-6.12539 -0.46972,-3.23006 1.96344,-16.21747 4.34239,-23.17825 2.62711,-7.68687 5.40717,-12.4779 9.69388,-16.70603 11.15484,-11.00236 26.74131,-7.76885 45.75777,9.49274 1.68488,1.5294 3.55912,3.52848 4.16497,4.4424 1.11525,1.68233 3.11783,7.40191 2.86118,8.17186 -0.15457,0.46369 -2.77829,-2.24413 -6.90286,-7.12411 -3.8469,-4.55146 -10.18741,-10.56799 -13.35923,-12.67662 -3.55552,-2.3637 -5.99893,-3.27433 -8.80535,-3.28168 -6.59146,-0.0172 -10.26898,4.79863 -16.48743,21.59104 -4.64906,12.5544 -7.29528,17.85164 -10.87861,21.77695 -3.57044,3.91119 -5.93952,4.99498 -7.90673,3.61709 l 0,0 z"
     id="path3148"
     style="fill:#53676c;fill-opacity:1"
     inkscape:connector-curvature="0" />
  <path
     d="m 489.09348,357.81693 c -1.71973,-2.35901 -2.61192,-4.22605 -5.40668,-11.31425 -2.79211,-7.08145 -4.31208,-9.83813 -6.52872,-11.84074 -3.00005,-2.71036 -7.36091,-3.81999 -12.50352,-3.18153 -1.55258,0.19275 -2.8745,0.29884 -2.93759,0.23575 -0.36495,-0.36495 8.73262,-4.42303 11.39191,-5.0815 8.75856,-2.16873 14.58871,1.61635 17.08094,11.08936 0.58436,2.22117 0.59592,2.56887 0.1039,3.12474 -0.62401,0.70499 -0.36264,1.41373 0.52134,1.41373 0.52647,0 0.55985,0.81725 0.31991,7.83204 -0.14734,4.30762 -0.39617,8.17881 -0.55296,8.60264 -0.26069,0.70472 -0.38794,0.62948 -1.48853,-0.88024 z"
     id="path3150"
     style="fill:#53676c;fill-opacity:1"
     inkscape:connector-curvature="0" />
  <path
     d="m 489.06008,330.84176 c -2.74108,-5.21215 -7.92263,-8.2297 -14.13151,-8.2297 -4.36021,0 -8.78974,1.2012 -14.9235,4.04695 -1.81398,0.84159 -3.36116,1.46714 -3.43819,1.39011 -0.21163,-0.21163 4.88414,-4.66027 8.03399,-7.01371 5.59396,-4.17958 8.91728,-5.0826 13.91473,-3.78093 4.16643,1.08522 7.18012,3.70333 9.3901,8.15757 1.016,2.04776 2.48312,6.7581 2.19476,7.04647 -0.0685,0.0685 -0.5367,-0.65901 -1.04038,-1.61676 z"
     id="path3152"
     style="fill:#53676c;fill-opacity:1"
     inkscape:connector-curvature="0" />
  <path
     d="m 350.03519,403.13088 c -10.70501,-3.57894 -23.56769,-17.7804 -35.30314,-38.97757 -2.26468,-4.09059 -2.51826,-4.73961 -2.10666,-5.39188 1.55296,-2.46098 4.39,-8.95101 7.3744,-16.86971 5.64019,-14.96552 7.93299,-18.8152 12.37621,-20.77996 3.67885,-1.62677 8.28978,0.0608 14.54944,5.32508 3.58889,3.0182 11.86907,11.83239 11.30613,12.0353 -0.60819,0.21923 -11.55143,-2.50683 -12.97157,-3.23133 -0.82597,-0.42138 -2.48906,-1.64709 -3.69576,-2.72381 -4.27177,-3.81163 -6.62913,-5.03913 -9.73428,-5.06875 -6.50485,-0.062 -8.67517,10.39907 -5.29516,25.52304 2.937,13.14169 9.3227,24.91082 16.25176,29.95273 3.24074,2.35811 5.71196,3.2142 9.28782,3.21753 5.36559,0.005 9.0735,-1.93605 15.06465,-7.88619 5.84599,-5.80597 7.3665,-9.03572 7.3665,-15.64735 0,-3.06552 -0.15392,-4.05473 -0.92691,-5.95707 -1.10663,-2.72344 -1.08804,-2.52405 -0.23538,-2.52405 0.38034,0 1.10273,-0.32345 1.60532,-0.71879 0.50258,-0.39533 2.03699,-0.97927 3.40978,-1.29764 8.49158,-1.96933 13.28416,-7.90337 12.72984,-15.76173 -0.29825,-4.22821 -2.09566,-8.54957 -3.35506,-8.06629 -0.51952,0.19936 -0.44152,0.55951 0.59522,2.74827 1.09614,2.31418 1.19308,2.82012 1.19308,6.22648 0,4.35015 -0.63736,6.12786 -3.18981,8.89694 -2.18287,2.36813 -4.86935,3.86621 -8.53712,4.7606 l -0.97482,0.23771 0.90364,-2.23717 c 1.51947,-3.76183 2.11451,-8.01403 2.09836,-14.99494 -0.0108,-4.67859 -0.18299,-7.01961 -0.66803,-9.08369 -0.3594,-1.5294 -0.74156,-3.17742 -0.84924,-3.66227 -0.17327,-0.78018 0.0767,-0.66971 2.17375,0.96076 3.19401,2.48333 6.41705,4.6203 8.74172,5.79602 4.91864,2.48763 10.51961,3.86855 13.88173,3.42255 0.99356,-0.1318 1.80647,-0.14965 1.80647,-0.0397 0,0.10998 -0.5999,2.3264 -1.33312,4.92537 -1.73845,6.16216 -2.02444,8.0258 -1.56667,10.20931 0.67876,3.23761 3.28183,4.89737 9.21833,5.87776 l 2.48117,0.40976 0.21975,2.35331 c 0.49878,5.34131 3.25398,7.33459 7.38165,5.34032 1.46936,-0.70991 3.26746,-0.97056 3.70148,-0.53654 0.11274,0.11275 -0.0263,0.97348 -0.30897,1.91274 -0.70788,2.3521 -0.62394,5.46491 0.21274,7.88891 1.07784,3.12271 1.47791,3.25467 -6.45612,-2.12949 -10.46791,-7.10369 -18.93802,-10.08809 -25.69272,-9.05269 -8.15057,1.24937 -12.83987,6.90333 -17.34299,20.91072 -3.94364,12.26707 -9.10836,20.13684 -15.1513,23.08688 -2.85057,1.39158 -7.15013,1.65221 -10.23611,0.62049 l 0,0 z"
     id="path3154"
     style="fill:#6f8a91;fill-opacity:1"
     inkscape:connector-curvature="0" />
  <path
     d="m 434.16313,386.70551 c -1.09593,-0.68275 -4.79895,-6.26105 -6.30296,-9.26907"
     id="path3156"
     style="fill:none;stroke:#000000;stroke-width:1px;stroke-linecap:butt;stroke-linejoin:miter;stroke-opacity:1"
     inkscape:connector-curvature="0" />
  <path
     d="m 485.32839,358.15678 c 0.68203,-0.40133 1.23587,-0.9887 1.85381,-1.48305"
     id="path3158"
     style="fill:none;stroke:#000000;stroke-width:1px;stroke-linecap:butt;stroke-linejoin:miter;stroke-opacity:1"
     inkscape:connector-curvature="0" />
  <path
     d="m 447.51152,400.53584 c -2.71105,-1.09721 -4.99707,-2.87114 -7.14922,-5.54771 -1.82757,-2.27289 -5.79321,-8.72361 -5.79321,-9.42354 0,-0.1615 -0.20856,-0.29996 -0.46346,-0.3077 -0.25489,-0.008 -1.07445,-0.89469 -1.82122,-1.97101 l -1.35778,-1.95696 3.09687,0.16255 c 4.90317,0.25735 9.74373,-1.16535 17.94345,-5.2738 10.80283,-5.41273 24.40177,-15.43747 27.67807,-20.40344 3.54137,-5.36775 1.68931,-10.12607 -4.72586,-12.14171 -2.45451,-0.77121 -3.41772,-0.85292 -9.94753,-0.84383 -5.42346,0.008 -8.0636,0.17585 -10.56674,0.67363 -6.65347,1.32314 -14.11078,3.8538 -18.26498,6.19829 -1.1091,0.62593 -2.07998,1.07461 -2.15752,0.99707 -0.0776,-0.0776 3.81842,-4.0584 8.6577,-8.84634 7.1944,-7.11806 9.37333,-9.04993 11.95018,-10.59518 7.82033,-4.68958 13.47284,-6.79934 18.95789,-7.07591 2.16579,-0.1092 4.30895,-0.003 5.44578,0.26963 1.77279,0.42529 5.52908,2.4632 5.18127,2.81101 -0.0889,0.0889 -1.15098,-0.1891 -2.36008,-0.61785 -2.90215,-1.02912 -7.38527,-0.80684 -10.97444,0.54412 -3.52916,1.32837 -9.20592,4.00924 -9.20592,4.34752 0,0.15814 -0.50053,0.39747 -1.11229,0.53183 -1.00772,0.22134 -1.42965,0.85672 -0.9124,1.37398 0.10994,0.10994 1.4864,-0.0466 3.05879,-0.34788 3.88693,-0.74475 7.96234,-0.45465 10.53199,0.74968 4.05507,1.90052 5.54262,4.05909 9.22094,13.38043 1.45823,3.69533 2.96542,7.23655 3.34931,7.86937 0.68118,1.12287 0.68133,1.16565 0.006,1.77664 -0.3805,0.34434 -0.69608,0.99448 -0.7013,1.44477 -0.0132,1.13423 -3.33535,8.7528 -6.33904,14.53691 -7.40267,14.25511 -15.15795,23.66869 -22.23691,26.9918 -3.04433,1.42912 -6.51039,1.69659 -8.98854,0.69363 l 0,0 z"
     id="path3160"
     style="fill:#6f8a91;fill-opacity:1"
     inkscape:connector-curvature="0" />
  <path
     d="m 409.50691,350.63904 c -4.1126,-0.99835 -6.45265,-3.08099 -6.45265,-5.74286 0,-0.73426 0.77725,-4.20868 1.72723,-7.72092 l 1.72722,-6.38588 1.71636,-0.57008 c 0.94399,-0.31355 2.60851,-1.15764 3.69893,-1.87577 1.09043,-0.71813 2.05739,-1.23089 2.14882,-1.13946 0.0914,0.0914 -0.20085,1.47314 -0.64949,3.07048 -1.21062,4.31034 -1.33108,8.92287 -0.39856,15.26183 0.42988,2.92219 0.78161,5.38313 0.78161,5.46875 0,0.29647 -2.41836,0.0906 -4.29947,-0.36609 z"
     id="path3162"
     style="fill:#1c2224;fill-opacity:1"
     inkscape:connector-curvature="0" />
  <path
     d="m 398.04896,329.7116 c -1.85414,-0.41497 -5.72871,-1.78819 -7.41525,-2.62809 -2.88249,-1.43549 -8.57924,-5.33394 -12.04979,-8.24602 -4.53005,-3.80108 -17.79661,-16.64736 -17.79661,-17.23281 0,-1.31069 3.89345,-3.46163 12.43235,-6.86826 2.59308,-1.03453 5.35171,-2.20594 6.13028,-2.60313 3.18196,-1.62332 4.66646,-5.24459 6.07449,-14.81801 1.34273,-9.12946 1.56402,-10.07617 3.40257,-14.55667 0.90048,-2.19447 1.96361,-5.36449 2.36251,-7.0445 1.79904,-7.57684 1.59742,-18.20663 -0.55723,-29.3787 -0.79922,-4.14404 -3.23807,-13.41344 -4.80209,-18.25143 -0.72274,-2.23566 -1.31407,-4.1741 -1.31407,-4.30766 0,-0.13355 4.50477,-0.24282 10.0106,-0.24282 l 10.01059,0 0,0.94779 c 0,0.97327 1.65947,10.66654 3.01143,17.59034 0.41809,2.14116 2.48801,11.81912 4.59981,21.50658 7.71563,35.39379 9.51547,45.45113 10.57081,59.06865 0.59372,7.66098 0.3035,10.16471 -1.54343,13.31502 -2.00364,3.41765 -5.63125,7.85049 -7.87736,9.62594 -1.65482,1.30805 -5.74302,3.63424 -6.38708,3.63424 -0.13326,0 -0.14521,-0.48544 -0.0265,-1.07876 0.19032,-0.95162 -0.19674,-1.51658 -1.03903,-1.51658 -0.0626,0 -0.2311,0.62528 -0.37447,1.38951 -0.14337,0.76423 -0.45391,1.51247 -0.6901,1.66275 -0.45466,0.28931 -5.47679,0.31364 -6.73239,0.0326 l 0,-1e-5 z"
     id="path3164"
     style="fill:#1c2224;fill-opacity:1"
     inkscape:connector-curvature="0" />
  <path
     d="m 384.29598,203.16513 c -0.85678,-2.54144 -4.8962,-13.47232 -7.7412,-20.94809 -4.03279,-10.5969 -6.27403,-16.75978 -6.62806,-18.22557 -0.21485,-0.88958 -0.0493,-1.0916 1.70699,-2.08333 1.0697,-0.60402 2.89403,-1.8717 4.05406,-2.81706 1.47695,-1.20363 2.75497,-1.88283 4.26377,-2.26597 9.36867,-2.37904 26.89361,-2.01402 28.50529,0.59373 0.10996,0.17792 -0.20736,0.86672 -0.70516,1.53066 -1.86429,2.48649 -3.56365,6.8247 -4.33101,11.05639 -1.18016,6.5082 -1.08913,17.2636 0.23761,28.07492 0.3325,2.70944 0.53781,4.99299 0.45624,5.07456 -0.35193,0.35193 -19.69996,0.36147 -19.81853,0.01 l 0,1e-5 z"
     id="path3166"
     style="fill:#1c2224;fill-opacity:1"
     inkscape:connector-curvature="0" />
  <path
     d="m 498.02951,326.42746 c -3.85179,-10.63755 -5.2686,-14.23088 -7.12668,-18.07468 -4.63462,-9.58768 -8.52255,-13.58417 -14.84731,-15.26189 -2.94599,-0.78146 -11.14028,-0.86826 -15.16228,-0.16062 -4.23436,0.74501 -10.04468,2.78158 -15.38665,5.39317 -5.56054,2.71844 -8.52749,4.59889 -15.18198,9.62232 -3.41253,2.57609 -4.85392,3.4694 -5.03505,3.12047 -0.13957,-0.26888 -0.4575,-3.6589 -0.70649,-7.53337 -0.75468,-11.74294 -1.74767,-17.70786 -9.62853,-57.83898 -6.9082,-35.17808 -8.19203,-42.34981 -9.12605,-50.97987 -0.29794,-2.75292 -0.5435,-5.88123 -0.54569,-6.9518 l -0.004,-1.94651 27.08067,0 27.08066,0 5.26838,3.01896 c 24.99581,14.32345 25.89532,15.12271 32.70445,29.05955 11.43345,23.4018 19.44845,53.11267 19.45176,72.10581 10e-4,7.51326 -0.99269,14.76222 -2.62101,19.1143 -0.84505,2.25859 -3.88211,6.91012 -7.01514,10.74432 -2.69518,3.29834 -7.74946,8.7007 -8.14011,8.7007 -0.15787,0 -0.63442,-0.95934 -1.05898,-2.13188 z"
     id="path3168"
     style="fill:#374548;fill-opacity:1"
     inkscape:connector-curvature="0" />
  <path
     d="m 404.90807,181.06607 c 0,-7.84189 1.06049,-14.2002 3.05849,-18.33769 1.60615,-3.32603 1.71495,-3.37128 4.31241,-1.7934 3.29954,2.00436 8.91616,4.58769 18.21173,8.37636 12.33777,5.02861 17.78047,7.83927 24.04553,12.41734 l 5.32202,3.88896 -27.47509,0 -27.47509,0 0,-4.55157 z"
     id="path3170"
     style="fill:#374548;fill-opacity:1"
     inkscape:connector-curvature="0" />
  <path
     d="m 409.38739,350.32855 c -3.86094,-1.03805 -5.96237,-2.95143 -5.96237,-5.42883 0,-0.80774 0.69328,-4.19342 1.54062,-7.52372 l 1.54063,-6.05509 3.64836,-1.84587 c 3.28514,-1.66208 3.62997,-1.76627 3.46355,-1.04651 -1.44839,6.26433 -1.64828,10.86645 -0.74326,17.11291 0.76619,5.28823 0.75825,5.38079 -0.4589,5.35166 -0.56078,-0.0134 -1.92366,-0.26747 -3.02863,-0.56455 l 0,0 z"
     id="path3172"
     style="fill:#374548;fill-opacity:1"
     inkscape:connector-curvature="0" />
  <path
     d="m 351.14067,403.18144 c -8.21717,-1.95201 -19.75036,-12.95931 -29.70418,-28.34974 -2.94863,-4.55913 -6.14488,-9.98839 -7.69333,-13.0682 l -1.16447,-2.31608 1.43968,-2.8746 c 0.79182,-1.58103 3.48212,-7.96332 5.97843,-14.18286 5.16757,-12.87496 6.49721,-15.6173 8.8303,-18.21226 2.39605,-2.66498 4.07658,-3.42393 7.09911,-3.20605 3.0252,0.21806 5.0476,1.20926 9.52022,4.66593 2.99248,2.31274 11.22477,10.55321 12.09347,12.10547 0.38323,0.6848 0.70018,0.73426 -6.14834,-0.95946 -5.81304,-1.43764 -6.15916,-1.60315 -10.25467,-4.90369 -3.91642,-3.15621 -5.65178,-4.09918 -8.24041,-4.47772 -3.50354,-0.51233 -5.82326,1.33839 -7.24404,5.77946 -1.05272,3.29059 -0.84526,12.20712 0.4256,18.292 1.35731,6.49883 3.11424,11.65012 5.94736,17.43752 3.85755,7.88008 8.23052,13.06408 13.3225,15.79335 2.02486,1.08532 2.67246,1.2371 5.84145,1.36913 6.22175,0.2592 9.6428,-1.38923 15.9289,-7.67533 6.05188,-6.05188 7.38728,-8.87653 7.38728,-15.62565 0,-2.98916 -0.18104,-4.47927 -0.74249,-6.11113 -0.40836,-1.18694 -0.70034,-2.18297 -0.64883,-2.2134 0.79619,-0.47044 4.94754,-2.09334 6.20188,-2.42452 6.93374,-1.83071 11.42573,-6.92205 11.7992,-13.37354 0.28557,-4.93306 -1.43492,-10.34909 -3.28755,-10.34909 -0.90277,0 -0.90998,-0.0612 0.294,2.49207 0.91598,1.94247 1.01067,2.54046 1.01441,6.40623 0.003,3.47554 -0.12503,4.50367 -0.69447,5.56144 -1.85744,3.45028 -4.55066,5.73416 -8.52672,7.23074 -1.35314,0.50932 -2.53744,0.92604 -2.63177,0.92604 -0.0943,0 0.16746,-0.85994 0.58174,-1.91099 1.58276,-4.01548 1.95704,-6.79821 1.96209,-14.58795 0.004,-5.587 -0.14758,-8.09467 -0.6133,-10.17092 -0.33996,-1.51562 -0.55262,-2.82116 -0.47258,-2.90121 0.08,-0.08 1.37476,0.76351 2.87713,1.87457 7.25716,5.36693 13.21048,7.87832 19.70327,8.3118 3.09881,0.20688 3.26109,0.25977 3.05597,0.99598 -2.77138,9.94723 -3.18702,13.31474 -1.93751,15.69776 0.89181,1.70086 3.78955,3.22927 7.60416,4.01081 1.76334,0.36127 3.2535,0.69054 3.31146,0.7317 0.058,0.0411 0.27605,1.13457 0.48464,2.42982 0.48827,3.03187 1.28819,4.68541 2.59304,5.36017 1.42676,0.73781 2.75064,0.6785 5.48785,-0.24587 2.68481,-0.90667 3.16759,-0.6924 2.63376,1.16896 -0.53694,1.8722 -0.44831,5.90303 0.17537,7.97535 0.2984,0.99152 0.48952,1.85578 0.42471,1.92059 -0.0648,0.0648 -2.68647,-1.57698 -5.82592,-3.64842 -10.15059,-6.69748 -17.33362,-9.61487 -23.69007,-9.62172 -9.83389,-0.0106 -14.94639,5.24888 -20.38685,20.97292 -5.02159,14.51344 -10.4435,21.94152 -17.32362,23.73356 -2.29238,0.5971 -4.72543,0.65696 -6.78786,0.16703 l 0,0 z"
     id="path3174"
     style="fill:#6f8a91;fill-opacity:1"
     inkscape:connector-curvature="0" />
  <path
     d="m 388.18856,329.60805 c -0.45553,-2.51528 -0.84642,-2.82138 -1.11229,-3.70763"
     id="path3176"
     style="fill:none;stroke:#000000;stroke-width:1px;stroke-linecap:butt;stroke-linejoin:miter;stroke-opacity:1"
     inkscape:connector-curvature="0" />
  <path
     d="m 377.99877,349.52131 c 1.57098,-5.39626 1.75425,-6.63315 1.93656,-13.06938 0.13299,-4.69531 0.0315,-7.82781 -0.34225,-10.56674 -0.29221,-2.14115 -0.50681,-3.92768 -0.47688,-3.97007 0.0299,-0.0424 1.75957,1.0421 3.84366,2.40996 2.75189,1.80615 3.84409,2.74078 3.98953,3.41393 0.11014,0.50979 0.56707,1.84454 1.01538,2.9661 0.61896,1.54845 0.84546,3.00337 0.94117,6.04565 0.11686,3.71443 0.0547,4.15229 -0.85289,6.00732 -1.20437,2.46165 -4.07525,5.12118 -7.05917,6.53949 -2.74101,1.30284 -3.3219,1.34624 -2.99511,0.22374 z"
     id="path3178"
     style="fill:#374548;fill-opacity:1"
     inkscape:connector-curvature="0" />
  <path
     d="m 348.51695,459.375 c 0.0848,1.02178 1.89071,2.62169 4.44915,4.44915"
     id="path3180"
     style="fill:none;stroke:#000000;stroke-width:1px;stroke-linecap:butt;stroke-linejoin:miter;stroke-opacity:1"
     inkscape:connector-curvature="0" />
  <path
     d="m 486.44068,364.83051 c -0.10842,-2.93921 0.17587,-5.29052 0.37076,-7.0445"
     id="path3195"
     style="fill:none;stroke:#000000;stroke-width:1px;stroke-linecap:butt;stroke-linejoin:miter;stroke-opacity:1"
     inkscape:connector-curvature="0" />
  <path
     d="m 487.1822,365.20127 c 0,-2.7375 0,-5.65972 0,-6.67373"
     id="path3210"
     style="fill:#216778;stroke:#000000;stroke-width:1px;stroke-linecap:butt;stroke-linejoin:miter;stroke-opacity:1"
     inkscape:connector-curvature="0" />
  <path
     d="m 348.09971,384.1261 c -4.37771,-1.58664 -7.90876,-4.76047 -11.61157,-10.43685 -3.63689,-5.57533 -6.19505,-11.63226 -8.1333,-19.25713 -3.84293,-15.11771 -2.01916,-26.47204 4.12009,-25.65064 1.98104,0.26505 5.21093,2.19786 8.47658,5.0725 3.18343,2.80226 4.41419,3.35483 10.24121,4.59793 2.52411,0.53847 5.65644,1.34381 6.96073,1.78964 2.14602,0.73353 2.56534,1.05778 4.41115,3.41092 1.12184,1.43019 2.26425,2.78476 2.53869,3.01017 0.27444,0.22541 0.75364,1.13159 1.06488,2.01373 0.71943,2.03911 2.09304,3.84349 3.57468,4.69576 2.41831,1.39106 3.96539,7.09354 3.2741,12.06825 -0.55959,4.02691 -2.06626,6.74626 -6.04192,10.90487 -7.29643,7.6322 -12.90568,9.94446 -18.87532,7.78085 l 0,0 z"
     id="path3212"
     style="fill:#216778;fill-opacity:1"
     inkscape:connector-curvature="0" />
  <path
     d="m 430.89555,379.37712 c -1.88675,-1.29601 -2.61826,-2.50882 -2.87477,-4.76622 -0.12711,-1.11866 -0.65175,-2.86815 -1.16587,-3.88775 -0.6744,-1.33746 -0.98238,-2.64744 -1.10569,-4.70309 -0.15563,-2.59449 -0.0695,-3.06605 0.9635,-5.27348 0.62394,-1.33331 1.93029,-3.27504 2.90301,-4.31496 6.2418,-6.67299 20.22311,-11.84834 33.693,-12.47187 9.34073,-0.43239 15.36843,1.54351 16.52937,5.41837 0.96571,3.22326 -1.46648,6.84956 -8.31248,12.39358 -6.81044,5.51523 -14.45777,10.40333 -21.81618,13.9447 -6.55387,3.15416 -9.78127,4.15733 -14.02806,4.36032 -3.23582,0.15466 -3.625,0.0978 -4.78583,-0.6996 z"
     id="path3214"
     style="fill:#00ccff;fill-opacity:1"
     inkscape:connector-curvature="0" />
  <path
     d="m 349.29366,384.29845 c -2.46333,-0.80131 -5.26011,-2.44423 -7.29387,-4.28467 -3.92625,-3.55306 -9.23937,-12.45889 -11.58205,-19.4138 -4.06604,-12.07122 -4.95184,-24.70875 -2.05325,-29.29357 2.26145,-3.57705 5.32951,-2.97102 12.02547,2.37538 3.95268,3.15603 4.50911,3.39802 12.32524,5.36018 3.3181,0.83298 6.48777,1.80117 7.0437,2.15153 1.55672,0.98107 5.34042,5.67629 6.43173,7.98119 0.53813,1.13655 1.80768,2.86278 2.82123,3.83606 2.39451,2.2994 3.20741,3.93585 3.72743,7.50371 0.99421,6.82126 -1.73972,12.29125 -9.49391,18.99524 -3.97356,3.43538 -7.02037,4.90034 -10.41507,5.00772 -1.43536,0.0454 -3.02685,-0.0531 -3.53665,-0.21897 z"
     id="path3216"
     style="fill:#80e5ff;fill-opacity:1"
     inkscape:connector-curvature="0" />
  <path
     d="m 430.22562,378.46151 c -1.21983,-1.16475 -1.58843,-1.84816 -1.95495,-3.62457 -0.24842,-1.20405 -0.8516,-3.25169 -1.3404,-4.55031 -1.33044,-3.53465 -1.24109,-6.858 0.26458,-9.8407 4.52537,-8.9647 21.75837,-16.25019 38.38051,-16.22588 7.19677,0.0105 11.83429,1.45046 13.5071,4.19389 1.60196,2.62723 0.47301,5.47119 -3.83766,9.66756 -5.85034,5.69521 -15.86536,12.50506 -25.28906,17.19564 -6.67641,3.32313 -9.61958,4.23787 -14.30411,4.44571 l -3.92275,0.17405 -1.50326,-1.43539 z"
     id="path3218"
     style="fill:#dbe3e2;fill-opacity:1"
     inkscape:connector-curvature="0" />
  <path
     d="m 384.51612,424.50288 c 0,-0.0914 0.41393,-1.47655 0.91984,-3.07803 1.56808,-4.96387 4.97608,-8.89015 6.84734,-7.88869 1.76588,0.94507 0.43569,4.8311 -2.62099,7.65699 -2.30302,2.12912 -5.14619,3.95769 -5.14619,3.30973 z"
     id="path3220"
     style="fill:#93aca7;fill-opacity:1"
     inkscape:connector-curvature="0" />
  <path
     d="m 416.94618,423.90455 c -1.51995,-0.44211 -3.46916,-2.40667 -4.34881,-4.38305 -1.17601,-2.64225 -0.85429,-7.45831 0.49823,-7.45831 0.64779,0 2.23065,1.95685 3.29895,4.07839 1.02695,2.03945 2.97327,7.15067 2.97327,7.80812 0,0.41732 -0.88869,0.40075 -2.42164,-0.0451 z"
     id="path3222"
     style="fill:#93aca7;fill-opacity:1"
     inkscape:connector-curvature="0" />
  <path
     d="m 430.83178,378.79996 c -1.6676,-1.84253 -1.83572,-2.19712 -3.1524,-6.64909 -1.87135,-6.32737 -1.75882,-9.2971 0.4876,-12.86775 3.61847,-5.75152 13.54925,-11.12536 25.12563,-13.59622 4.76511,-1.01706 14.68308,-1.41134 18.49992,-0.73545 6.45054,1.14227 9.03487,4.34129 6.89525,8.53529 -2.83961,5.5661 -19.81103,17.71509 -32.62274,23.35298 -3.99733,1.75906 -6.70317,2.42918 -11.13632,2.75799 -3.11859,0.23131 -3.17563,0.2202 -4.09694,-0.79775 z"
     id="path3224"
     style="fill:#80e5ff;fill-opacity:1"
     inkscape:connector-curvature="0" />
  <path
     d="m 368.59683,448.67589 c -0.0129,-0.35693 -0.8772,-3.24599 -1.9206,-6.42014 -4.4539,-13.54932 -13.23288,-26.97815 -18.64316,-28.51766 -1.99939,-0.56893 -6.59043,-1.22801 -10.60381,-1.52226 -1.32548,-0.0972 -3.51053,-0.50198 -4.85568,-0.89957 -2.00984,-0.59404 -2.7516,-1.04989 -4.16201,-2.55773 -3.49674,-3.7383 -6.4067,-9.10648 -11.07143,-20.42415 -4.66182,-11.31062 -8.44884,-18.12992 -11.32433,-20.39178 -0.52586,-0.41365 -0.88893,-0.80098 -0.80682,-0.86075 2.09228,-1.523 3.48874,-2.82734 4.63188,-4.32633 l 1.41253,-1.85223 1.08217,1.94383 c 4.85214,8.71552 7.39072,12.77423 11.87726,18.98946 16.32445,22.61436 30.87244,29.04758 41.61516,18.4025 2.42155,-2.39955 4.31689,-5.07861 6.49942,-9.1869 1.3991,-2.63361 1.51956,-2.76548 1.2973,-1.42013 -1.00318,6.07249 -2.05811,18.13466 -2.82105,32.25636 -0.78294,14.4919 -1.59331,25.97709 -1.88353,26.69491 -0.25436,0.62913 -0.30336,0.64316 -0.3233,0.0926 z"
     id="path3226"
     style="fill:#2c89a0;fill-opacity:1"
     inkscape:connector-curvature="0" />
  <path
     d="m 428.41808,479.72739 c 2.10809,-11.43167 2.83006,-24.81088 2.11078,-39.11547 -0.40915,-8.13672 -0.84143,-13.6969 -3.17081,-40.7839 -1.01505,-11.80334 -1.89514,-27.35215 -1.56677,-27.68052 0.1178,-0.1178 0.29145,0.18091 0.3859,0.66379 0.91873,4.69712 1.13885,5.28862 3.17323,8.52703 1.18397,1.88467 2.76896,4.18808 3.52222,5.11868 0.75325,0.9306 2.23561,3.1889 3.29413,5.01844 3.16799,5.47557 7.92664,9.75944 11.93517,10.74438 2.00962,0.49379 5.62601,0.23834 7.72065,-0.54537 6.34331,-2.37334 13.20659,-9.4107 19.79658,-20.29872 2.69744,-4.45672 7.44535,-13.74273 9.03771,-17.67606 l 0.89209,-2.20356 0.11824,1.64133 c 0.065,0.90273 0.28198,1.74252 0.4821,1.8662 0.23701,0.14648 0.22166,1.63511 -0.044,4.26987 -1.38521,13.73723 -5.73593,23.77233 -14.45916,33.35057 -2.24512,2.46517 -6.43725,6.45433 -14.2053,13.5175 -3.98096,3.61973 -5.3179,5.08105 -6.10568,6.67373 l -1.00865,2.0392 -0.0191,10.75212 c -0.0244,13.7285 0.007,13.58825 -4.13734,18.30778 -4.92547,5.60868 -8.76977,11.21528 -15.02995,21.91997 -1.75581,3.00238 -2.84505,4.5602 -2.72202,3.89301 l 0,0 z"
     id="path3228"
     style="fill:#2c89a0;fill-opacity:1"
     inkscape:connector-curvature="0" />
  <path
     d="m 374.03801,490.20144 c -7.13014,-7.63585 -19.21024,-21.78239 -20.16847,-23.61852 -1.01694,-1.94863 -0.46894,-7.33465 1.92931,-18.9623 0.73198,-3.54891 1.86672,-9.17465 2.52164,-12.50165 l 1.19078,-6.0491 0.78835,1.41456 c 0.4336,0.77801 1.53349,3.16642 2.4442,5.30758 4.5259,10.6407 7.31626,22.89289 9.91265,43.52538 0.77875,6.18844 1.33585,9.40421 1.69065,9.75901 0.29104,0.29104 0.52917,0.69648 0.52917,0.90097 0,0.20449 0.94304,1.36048 2.09563,2.56886 1.1526,1.20838 1.91822,2.19705 1.70138,2.19705 -0.21683,0 -2.30272,-2.04383 -4.63529,-4.54184 z"
     id="path3230"
     style="fill:#216778;fill-opacity:1"
     inkscape:connector-curvature="0" />
  <path
     d="m 349.41023,459.61351 c -4.35722,-5.02534 -6.60332,-9.23404 -8.13855,-15.24988 -1.52548,-5.97765 -2.01106,-10.4677 -2.24641,-20.77202 l -0.2236,-9.79044 2.92873,0.2482 c 3.37926,0.28639 6.47446,1.03786 7.76931,1.88628 1.12006,0.73389 5.86025,6.40639 7.50865,8.98545 l 1.22634,1.91873 -0.41929,3.08573 c -0.2306,1.69715 -1.08675,6.25575 -1.90254,10.13022 -2.35911,11.20425 -3.23213,15.91536 -3.5028,18.90227 -0.16287,1.7973 -0.41221,2.78735 -0.70199,2.78735 -0.24717,0 -1.2812,-0.95935 -2.29785,-2.13189 l 0,0 z"
     id="path3232"
     style="fill:#164450;fill-opacity:1"
     inkscape:connector-curvature="0" />
  <path
     d="m 368.50845,483.70269 c -6.49919,-7.34572 -11.12845,-12.8071 -13.39294,-15.80033 -1.30467,-1.72453 -1.37255,-1.95419 -1.36989,-4.63454 0.002,-1.55105 0.16848,-3.90457 0.37097,-5.23005 0.72232,-4.72803 5.35467,-27.8072 5.58134,-27.8072 0.31586,0 2.63688,5.02605 4.19483,9.08368 3.29232,8.5748 5.56996,18.9347 8.22316,37.40327 0.9052,6.30099 1.89731,11.96049 2.2047,12.57666 0.30739,0.61618 0.50723,1.17198 0.44409,1.23512 -0.0631,0.0631 -2.87846,-3.00884 -6.25626,-6.82661 z"
     id="path3234"
     style="fill:#0b2228;fill-opacity:1"
     inkscape:connector-curvature="0" />
  <path
     d="m 350.34325,460.35504 c -1.91741,-2.07324 -4.61393,-5.91599 -5.98187,-8.52462 -3.26365,-6.22373 -4.5822,-13.3456 -5.09021,-27.49379 -0.20077,-5.59145 -0.31934,-10.21197 -0.26349,-10.26782 0.21752,-0.21752 6.12291,0.64164 7.91029,1.15085 1.03845,0.29585 2.33069,0.88607 2.87167,1.3116 1.10835,0.87182 6.78624,7.87 7.70058,9.4912 0.70619,1.25214 0.63337,1.77244 -2.30139,16.44328 -1.57101,7.8535 -3.27529,17.48987 -3.29502,18.63082 -0.01,0.55275 -0.62639,0.25776 -1.55056,-0.74152 z"
     id="path3236"
     style="fill:#164450;fill-opacity:1"
     inkscape:connector-curvature="0" />
  <path
     d="m 350.34325,460.35504 c -5.48565,-5.93147 -8.57672,-12.75129 -10.12485,-22.33846 -0.52186,-3.23171 -1.52491,-23.63358 -1.17894,-23.97955 0.33076,-0.33075 7.81535,1.02679 9.31266,1.68912 1.148,0.50781 2.38819,1.65326 4.37635,4.04201 5.42495,6.51802 5.53853,6.78234 4.7347,11.01855 -0.19347,1.0196 -1.35203,7.10938 -2.57457,13.53284 -1.22255,6.42346 -2.41266,12.88864 -2.6447,14.36705 -0.23204,1.47842 -0.54245,2.68803 -0.68979,2.68803 -0.14735,0 -0.69223,-0.45881 -1.21086,-1.01959 l 0,0 z"
     id="path3238"
     style="fill:#164450;fill-opacity:1"
     inkscape:connector-curvature="0" />
  <path
     d="m 349.24454,459.05737 c -5.12354,-6.15173 -7.52632,-11.75284 -9.02614,-21.04079 -0.52186,-3.23171 -1.52491,-23.63358 -1.17894,-23.97955 0.33076,-0.33075 7.81535,1.02679 9.31266,1.68912 1.148,0.50781 2.38819,1.65326 4.37635,4.04201 5.42495,6.51802 5.53853,6.78234 4.7347,11.01855 -0.19347,1.0196 -1.35203,7.10938 -2.57457,13.53284 -1.22255,6.42346 -2.41266,12.88864 -2.6447,14.36705 -0.23204,1.47842 -0.56758,2.68803 -0.74564,2.68803 -0.17806,0 -1.19223,-1.04277 -2.25372,-2.31726 l 0,0 z"
     id="path3240"
     style="fill:#164450;fill-opacity:1"
     inkscape:connector-curvature="0" />
  <path
     d="m 370.68959,485.7691 c -4.19488,-4.56873 -12.82932,-14.66382 -14.91321,-17.43601 -1.74331,-2.31912 -1.80034,-2.55462 -1.68495,-6.95846 0.084,-3.20623 5.10351,-29.67528 5.75015,-30.32192 0.19986,-0.19987 0.62041,0.65022 2.43625,4.92468 4.0917,9.63173 6.10359,17.99094 9.42222,39.14838 0.91443,5.82981 1.82694,11.33111 2.02781,12.22512 0.20087,0.894 0.31141,1.67927 0.24565,1.74502 -0.0658,0.0658 -1.54352,-1.4313 -3.28392,-3.32681 l 0,0 z"
     id="path3242"
     style="fill:#216778;fill-opacity:1"
     inkscape:connector-curvature="0" />
  <path
     style="fill:#374548;fill-opacity:1"
     d="m 495.60019,335.01472 c -0.004,-0.18249 0.17928,-0.68302 0.40761,-1.11229 0.64649,-1.2154 0.54945,-3.14124 -0.30554,-6.06385 -0.37284,-1.2745 -0.96558,-3.90228 -1.3172,-5.83952 -0.66723,-3.67615 -1.14367,-5.80361 -1.77877,-7.94281 -0.20723,-0.69799 -0.33878,-1.30708 -0.29234,-1.35352 0.26151,-0.26151 3.14698,7.37097 4.39055,11.6136 1.35833,4.63419 1.73465,5.56144 2.25708,5.56144 0.19058,0 1.09944,-0.78231 2.04296,-1.75849 0.93481,-0.96717 1.73039,-1.72776 1.76795,-1.6902 0.0628,0.0628 -5.29255,6.77405 -6.59802,8.26861 -0.43209,0.49466 -0.56854,0.56999 -0.57428,0.31703 z"
     id="path3053"
     inkscape:connector-curvature="0" />
  <path
     style="fill:#1c2224;fill-opacity:1"
     d="m 423.26822,315.093 c 0,-0.0206 0.14849,-0.30015 0.32998,-0.62123 0.2942,-0.5205 0.34131,-0.69984 0.43451,-1.65417 0.14324,-1.46666 0.1369,-8.19485 -0.01,-10.15406 -0.57405,-7.67864 -1.44394,-14.11942 -3.22158,-23.85305 -0.28248,-1.54674 -0.49337,-2.83249 -0.46865,-2.85722 0.0697,-0.0697 0.12184,0.16295 0.47031,2.1009 1.32579,7.37331 2.15673,12.58149 2.73584,17.14777 0.73012,5.75697 0.83828,7.5261 0.84009,13.7414 7.4e-4,2.53625 0.0336,4.61136 0.0731,4.61136 0.0394,0 1.03008,-0.83904 2.2014,-1.86452 3.58081,-3.135 5.73047,-4.83658 8.89608,-7.04179 5.84736,-4.07334 12.37796,-7.4127 18.63083,-9.52668 13.1095,-4.43209 24.0668,-3.15403 30.30869,3.53521 0.43397,0.46507 0.78903,0.88102 0.78903,0.92432 0,0.0433 -0.36497,-0.23794 -0.81104,-0.62498 -3.31036,-2.87231 -7.53686,-4.63644 -12.58276,-5.25202 -1.29008,-0.15738 -5.56222,-0.15823 -6.9518,-0.001 -9.36534,1.05713 -19.51144,5.14441 -29.80005,12.00475 -3.91516,2.61058 -7.96777,5.81385 -10.95306,8.65752 -0.72807,0.69353 -0.91135,0.83991 -0.91135,0.72787 z"
     id="path3055"
     inkscape:connector-curvature="0" />
  <path
     style="fill:#1c2224;fill-opacity:1"
     d="m 387.6383,214.57862 c -1.55041,-5.50943 -3.59548,-11.76133 -6.11989,-18.70885 -1.18094,-3.25011 -2.4109,-6.50276 -5.34824,-14.14354 -1.47966,-3.84898 -2.70418,-7.03464 -2.72115,-7.07925 -0.024,-0.0632 -0.006,-0.0811 0.0794,-0.0811 0.0992,0 0.13414,0.0638 0.34865,0.63725 0.1311,0.35049 1.24319,3.29631 2.4713,6.54628 3.26002,8.62704 5.97031,15.93339 7.36521,19.85501 0.30749,0.86447 0.56789,1.58058 0.57866,1.59136 0.25368,0.25367 14.42374,0.33035 18.66591,0.10101 0.50152,-0.0271 0.97076,-0.0654 1.04277,-0.0851 l 0.13093,-0.0358 -0.0101,-0.52888 c -0.0127,-0.6634 -0.13466,-1.92302 -0.45496,-4.69995 -0.30362,-2.63236 -0.49469,-4.52916 -0.47578,-4.72308 0.008,-0.0787 0.0522,0.24264 0.0988,0.71421 0.13475,1.36133 0.43388,3.98881 0.61206,5.37606 0.18808,1.46433 0.52139,3.90182 0.55927,4.08997 l 0.0257,0.12745 -7.31466,2.8e-4 c -8.56293,3.3e-4 -12.47935,0.071 -12.63642,0.22812 -0.0544,0.0544 0.12094,0.6942 0.64246,2.34375 1.15152,3.64223 1.59255,5.10848 2.30711,7.67016 0.55481,1.989 0.64147,2.31877 0.62348,2.37272 -0.009,0.0261 -0.22042,-0.67954 -0.47048,-1.56813 l 0,1e-5 z"
     id="path3057"
     inkscape:connector-curvature="0" />
  <path
     style="fill:#374548;fill-opacity:1"
     d="m 418.64589,185.79303 c 7.54074,-0.006 19.86629,-0.006 27.3901,0 7.52381,0.007 1.35411,0.0117 -13.71044,0.0117 -15.06455,0 -21.2204,-0.005 -13.67966,-0.0117 z"
     id="path3059"
     inkscape:connector-curvature="0" />
  <path
     style="fill:#374548;fill-opacity:1"
     d="m 418.64589,185.79303 c 7.54074,-0.006 19.86629,-0.006 27.3901,0 7.52381,0.007 1.35411,0.0117 -13.71044,0.0117 -15.06455,0 -21.2204,-0.005 -13.67966,-0.0117 z"
     id="path3061"
     inkscape:connector-curvature="0" />
  <path
     style="fill:#374548;fill-opacity:1"
     d="m 425.33286,185.77723 c 3.86314,-0.005 10.17485,-0.005 14.02603,0 3.85119,0.005 0.69044,0.008 -7.02388,0.008 -7.71432,0 -10.86528,-0.004 -7.00215,-0.008 z"
     id="path3063"
     inkscape:connector-curvature="0" />
  <path
     style="fill:#374548;fill-opacity:1"
     d="m 416.95512,185.7085 0,-0.0887 10.71156,0 10.71157,0 0,0.0735 0,0.0735 -9.86287,0.008 c -5.42457,0.004 -10.24478,0.0111 -10.71156,0.0152 l -0.8487,0.008 0,-0.0887 z"
     id="path3065"
     inkscape:connector-curvature="0" />
  <path
     style="fill:#374548;fill-opacity:1"
     d="m 437.08869,185.78086 c 0.46201,-0.004 1.21802,-0.004 1.68002,0 0.46201,0.004 0.084,0.006 -0.84001,0.006 -0.92401,0 -1.30201,-0.003 -0.84001,-0.006 z"
     id="path3067"
     inkscape:connector-curvature="0" />
  <path
     style="fill:#374548;fill-opacity:1"
     d="m 438.39216,185.70554 0,-0.0695 5.35288,0 5.35289,0 0,0.0695 0,0.0695 -5.35289,0 -5.35288,0 0,-0.0695 z"
     id="path3069"
     inkscape:connector-curvature="0" />
  <path
     style="fill:#374548;fill-opacity:1"
     d="m 406.25166,185.71713 0,-0.0811 5.3413,0 5.3413,0 0,0.0657 0,0.0657 -1.06015,0.0153 c -0.58308,0.008 -2.98666,0.0154 -5.3413,0.0154 l -4.28115,2e-5 0,-0.0811 z"
     id="path3071"
     inkscape:connector-curvature="0" />
  <path
     style="fill:#374548;fill-opacity:1"
     d="m 464.11708,188.12934 c -0.63532,-0.37124 -0.90213,-0.5317 -2.4615,-1.48033 l -1.39645,-0.84952 -5.54283,-2.2e-4 c -3.04857,-1.3e-4 -5.55943,-0.005 -5.57971,-0.0101 -0.0311,-0.008 -0.0369,-0.0211 -0.0369,-0.0817 l 0,-0.0718 -5.36217,-0.004 c -3.55214,-0.003 -1.73511,-0.007 5.3829,-0.0123 l 10.74508,-0.008 -2.65769,-1.94169 c -1.46173,-1.06793 -2.92363,-2.13286 -3.24868,-2.36652 -1.57582,-1.13276 -3.11524,-2.15552 -4.65462,-3.09243 -0.35147,-0.21392 -0.6501,-0.39627 -0.66361,-0.40524 -0.0167,-0.0111 0.0952,-0.0166 0.34851,-0.0173 l 0.37308,-9.6e-4 0.25776,0.16109 c 1.77323,1.10819 3.29886,2.20876 5.20619,3.7557 0.80663,0.65421 1.16726,0.93908 1.53015,1.20871 1.73404,1.28837 4.22887,2.91726 7.27709,4.75126 0.50016,0.30093 0.91537,0.55288 0.92267,0.5599 0.007,0.007 0.011,0.0468 0.008,0.0885 l -0.005,0.0757 -0.44241,-0.25852 0,0 z"
     id="path3073"
     inkscape:connector-curvature="0" />
</svg>
